<svg id="Layer_1" data-name="Layer 1" xmlns="http://www.w3.org/2000/svg" viewBox="0 0 423 46"><defs><style>.cls-1{isolation:isolate;}.cls-2{fill:#231f20;}</style></defs><g id="Layer_1-2" data-name="Layer 1-2"><g class="cls-1"><path class="cls-2" d="M7,3.5V25H1.8V3.5Z" transform="translate(-0.9 -3.2)"/><path class="cls-2" d="M16.1,7.7v4.4h7v4.1h-7v4.7h7.8V25H10.8V3.5H23.9V7.7Z" transform="translate(-0.9 -3.2)"/><path class="cls-2" d="M32.5,7.7v4.4h7v4.1h-7v4.7h7.9V25H27.3V3.5H40.4V7.7Z" transform="translate(-0.9 -3.2)"/><path class="cls-2" d="M49,7.7v4.4h7v4.1H49v4.7h7.9V25H43.8V3.5H56.9V7.7Z" transform="translate(-0.9 -3.2)"/><path class="cls-2" d="M70.3,24.4a6.92,6.92,0,0,1-3-2.3,6.15,6.15,0,0,1-1.1-3.6h5.5a2.41,2.41,0,0,0,2.7,2.4,3.83,3.83,0,0,0,1.9-.5,1.75,1.75,0,0,0,.6-1.5,2.65,2.65,0,0,0-.5-1.4c-.3-.5-.8-.6-1.4-.8a14.45,14.45,0,0,0-2.2-.7,13.3,13.3,0,0,1-3.3-1.3,5.87,5.87,0,0,1-2.3-1.9,5.27,5.27,0,0,1-.9-3.2,5.61,5.61,0,0,1,2.2-4.7,9.1,9.1,0,0,1,5.6-1.7,8.44,8.44,0,0,1,5.7,1.7,5.83,5.83,0,0,1,2.3,4.7H76.5a2.41,2.41,0,0,0-.7-1.7A2.44,2.44,0,0,0,74,7.3a3,3,0,0,0-1.6.5,1.75,1.75,0,0,0-.6,1.5,2,2,0,0,0,.9,1.7,18.67,18.67,0,0,0,3,1.3A13,13,0,0,1,79,13.7a6.67,6.67,0,0,1,2.3,1.9,5.17,5.17,0,0,1,.9,3.1,6,6,0,0,1-.9,3.3,7,7,0,0,1-2.7,2.4,9,9,0,0,1-4.2.8A10.7,10.7,0,0,1,70.3,24.4Z" transform="translate(-0.9 -3.2)"/><path class="cls-2" d="M100.9,3.5V7.7H95.3V25H90V7.7H84.3V3.5Z" transform="translate(-0.9 -3.2)"/><path class="cls-2" d="M108.7,3.5V16.3a4,4,0,0,0,.9,2.9,4.42,4.42,0,0,0,5.6,0,4.37,4.37,0,0,0,.9-2.9V3.5h5.2V16.3a8.76,8.76,0,0,1-1.3,4.9,7.68,7.68,0,0,1-3.2,3,11.48,11.48,0,0,1-4.6,1,9.33,9.33,0,0,1-4.5-1,6.45,6.45,0,0,1-3.1-3,10.15,10.15,0,0,1-1.1-4.9V3.5Z" transform="translate(-0.9 -3.2)"/><path class="cls-2" d="M139,4.9a10.44,10.44,0,0,1,4,3.8,11.34,11.34,0,0,1,1.4,5.6,10.37,10.37,0,0,1-1.4,5.6,8.68,8.68,0,0,1-4,3.8,12.25,12.25,0,0,1-5.9,1.4h-8V3.5h8A11.7,11.7,0,0,1,139,4.9Zm-1.7,13.9a6,6,0,0,0,1.7-4.6,5.82,5.82,0,0,0-1.7-4.6A6.3,6.3,0,0,0,132.7,8h-2.5V20.4h2.5A6.14,6.14,0,0,0,137.3,18.8Z" transform="translate(-0.9 -3.2)"/><path class="cls-2" d="M152.4,7.7v4.4h7v4.1h-7v4.7h7.9V25H147.2V3.5h13.1V7.7Z" transform="translate(-0.9 -3.2)"/><path class="cls-2" d="M182.8,25h-5.2l-8.8-13.2V25h-5.2V3.5h5.2l8.8,13.2V3.5h5.2Z" transform="translate(-0.9 -3.2)"/><path class="cls-2" d="M202,3.5V7.7h-5.6V25h-5.2V7.7h-5.6V3.5Z" transform="translate(-0.9 -3.2)"/><path class="cls-2" d="M227,15.8a5.46,5.46,0,0,1,1.1,3.3,5.28,5.28,0,0,1-1.9,4.3A7.71,7.71,0,0,1,221,25H211V3.5h9.6A7.76,7.76,0,0,1,225.7,5a5.18,5.18,0,0,1,1.9,4.1,4.45,4.45,0,0,1-1,3.1A5.34,5.34,0,0,1,224,14,5.43,5.43,0,0,1,227,15.8Zm-10.7-3.6h3.4a3.94,3.94,0,0,0,2-.5,2.24,2.24,0,0,0,.7-1.7,2.06,2.06,0,0,0-.7-1.7,2.81,2.81,0,0,0-2-.6h-3.4Zm5.9,7.9a2,2,0,0,0,.7-1.8,2.14,2.14,0,0,0-.7-1.8,3.1,3.1,0,0,0-2.1-.6h-3.8v4.7h3.9A2.52,2.52,0,0,0,222.2,20.1Z" transform="translate(-0.9 -3.2)"/><path class="cls-2" d="M242.1,25l-4.5-8.1h-1.3V25h-5.2V3.5h8.8a11,11,0,0,1,4.3.8,7,7,0,0,1,2.7,2.4,6.57,6.57,0,0,1,.8,3.4,6.12,6.12,0,0,1-1.3,3.9,6.72,6.72,0,0,1-3.5,2.4l4.9,8.4h-5.7Zm-5.7-11.8h3.2a3.07,3.07,0,0,0,2.2-.7,2.44,2.44,0,0,0,.7-2,2.35,2.35,0,0,0-.7-1.9,3.2,3.2,0,0,0-2.2-.7h-3.2Z" transform="translate(-0.9 -3.2)"/><path class="cls-2" d="M264.4,21.1h-8L255.1,25h-5.4l7.7-21.4h6L271.1,25h-5.5Zm-1.3-3.9-2.7-7.9-2.6,7.8h5.3v.1Z" transform="translate(-0.9 -3.2)"/><path class="cls-2" d="M292.6,25h-5.2l-8.8-13.2V25h-5.2V3.5h5.2l8.8,13.2V3.5h5.2Z" transform="translate(-0.9 -3.2)"/><path class="cls-2" d="M296.9,8.5a9.76,9.76,0,0,1,3.9-3.9,11.52,11.52,0,0,1,5.5-1.4,10.75,10.75,0,0,1,6.6,2,9.57,9.57,0,0,1,3.6,5.5h-5.7A4.63,4.63,0,0,0,309,8.6a6,6,0,0,0-2.7-.7,4.75,4.75,0,0,0-3.9,1.7,6.61,6.61,0,0,0-1.5,4.5,6.61,6.61,0,0,0,1.5,4.5,4.75,4.75,0,0,0,3.9,1.7,5,5,0,0,0,2.7-.7,3.79,3.79,0,0,0,1.8-2.1h5.7a9.57,9.57,0,0,1-3.6,5.5,10.37,10.37,0,0,1-6.6,2,9.8,9.8,0,0,1-5.5-1.4,9.76,9.76,0,0,1-3.9-3.9,11.62,11.62,0,0,1-1.4-5.6A12.88,12.88,0,0,1,296.9,8.5Z" transform="translate(-0.9 -3.2)"/><path class="cls-2" d="M338.3,3.5V25h-5.2V16.1H325V25h-5.2V3.5H325v8.3h8.1V3.5Z" transform="translate(-0.9 -3.2)"/></g><g class="cls-1"><path class="cls-2" d="M12,36a5.67,5.67,0,0,1,2.2,3.4H11.8a3.35,3.35,0,0,0-1.5-1.8,4.09,4.09,0,0,0-2.5-.7,4.75,4.75,0,0,0-2.4.6,4,4,0,0,0-1.6,1.8A6,6,0,0,0,3.2,42a6.09,6.09,0,0,0,.6,2.8,4.24,4.24,0,0,0,1.7,1.8,10.13,10.13,0,0,0,2.6.4,4.43,4.43,0,0,0,3-1.1,4.79,4.79,0,0,0,1.5-3H7.4V41.2h7.1v2.2a6.86,6.86,0,0,1-1.1,2.8,6.42,6.42,0,0,1-2.3,2,7,7,0,0,1-3.3.8,6.87,6.87,0,0,1-3.6-.9,5.77,5.77,0,0,1-2.4-2.5,8.41,8.41,0,0,1-.9-3.7,7.51,7.51,0,0,1,.9-3.7,6.42,6.42,0,0,1,2.4-2.5,7.13,7.13,0,0,1,3.6-.9A5.84,5.84,0,0,1,12,36Z" transform="translate(-0.9 -3.2)"/><path class="cls-2" d="M26.9,35.6a6.27,6.27,0,0,1,2.5,2.6,8.06,8.06,0,0,1,0,7.4,6.27,6.27,0,0,1-2.5,2.6,7.13,7.13,0,0,1-3.6.9,7.4,7.4,0,0,1-3.6-.9,6.27,6.27,0,0,1-2.5-2.6,8.06,8.06,0,0,1,0-7.4,7,7,0,0,1,2.5-2.6,7.13,7.13,0,0,1,3.6-.9A6.87,6.87,0,0,1,26.9,35.6ZM21,37.4a3.53,3.53,0,0,0-1.6,1.8,6.38,6.38,0,0,0,0,5.4A4,4,0,0,0,21,46.4a5.1,5.1,0,0,0,4.8,0,4,4,0,0,0,1.6-1.8,6.37,6.37,0,0,0,0-5.4,4,4,0,0,0-1.6-1.8,5.1,5.1,0,0,0-4.8,0Z" transform="translate(-0.9 -3.2)"/><path class="cls-2" d="M34.1,34.8l4.1,11.7,4.1-11.7h2.5L39.6,49H36.7L31.6,34.9h2.5Z" transform="translate(-0.9 -3.2)"/><path class="cls-2" d="M48.7,36.7V41h5.2v1.8H48.7v4.4h5.8V49H46.4V34.8h8.1v1.8H48.7Z" transform="translate(-0.9 -3.2)"/><path class="cls-2" d="M64.1,49l-3.5-5.6H59V49H56.7V34.8h5A5.31,5.31,0,0,1,65.4,36a4.22,4.22,0,0,1,1.3,3.1,4,4,0,0,1-.9,2.7A5,5,0,0,1,63,43.2l3.7,5.7-2.6.1ZM59,41.7h2.5c1.8,0,2.8-.8,2.8-2.4a2.14,2.14,0,0,0-.7-1.8,3.1,3.1,0,0,0-2.1-.7H59Z" transform="translate(-0.9 -3.2)"/><path class="cls-2" d="M80.1,49H77.8L70.9,38.6V49H68.6V34.9h2.3l6.9,10.5V34.9h2.3Z" transform="translate(-0.9 -3.2)"/><path class="cls-2" d="M97.5,35V49H95.2V38.5l-4,10.4h-2l-4-10.4V49H82.9V35h2.8l4.6,11.1L94.7,35Z" transform="translate(-0.9 -3.2)"/><path class="cls-2" d="M102.5,36.7V41h5.2v1.8h-5.2v4.4h5.8V49h-8.1V34.8h8.1v1.8h-5.8Z" transform="translate(-0.9 -3.2)"/><path class="cls-2" d="M121.9,49h-2.3l-6.9-10.4V49h-2.3V34.9h2.3l6.9,10.5V34.9h2.3Z" transform="translate(-0.9 -3.2)"/><path class="cls-2" d="M133.8,34.8v1.8h-3.9V49h-2.3V36.7h-3.9V34.9h10.1Z" transform="translate(-0.9 -3.2)"/><path class="cls-2" d="M142.4,36.7V41h5.2v1.8h-5.2v4.4h5.8V49h-8.1V34.8h8.1v1.8h-5.8Z" transform="translate(-0.9 -3.2)"/><path class="cls-2" d="M161.9,49h-2.3l-6.9-10.4V49h-2.3V34.9h2.3l6.9,10.5V34.9h2.3Z" transform="translate(-0.9 -3.2)"/><path class="cls-2" d="M175.3,36a5.67,5.67,0,0,1,2.2,3.4h-2.4a3.35,3.35,0,0,0-1.5-1.8,4.09,4.09,0,0,0-2.5-.7,4.75,4.75,0,0,0-2.4.6,4,4,0,0,0-1.6,1.8,6,6,0,0,0-.6,2.7,6.09,6.09,0,0,0,.6,2.8,4.24,4.24,0,0,0,1.7,1.8,5.14,5.14,0,0,0,2.5.6,4.43,4.43,0,0,0,3-1.1,4.79,4.79,0,0,0,1.5-3h-5.2V41.4h7.1v2.2a6.86,6.86,0,0,1-1.1,2.8,6.42,6.42,0,0,1-2.3,2,7,7,0,0,1-3.3.8,6.87,6.87,0,0,1-3.6-.9,5.77,5.77,0,0,1-2.4-2.5,8.41,8.41,0,0,1-.9-3.7,7.51,7.51,0,0,1,.9-3.7,6.42,6.42,0,0,1,2.4-2.5A7.13,7.13,0,0,1,171,35,5.12,5.12,0,0,1,175.3,36Z" transform="translate(-0.9 -3.2)"/><path class="cls-2" d="M182.4,34.8V49h-2.3V34.8Z" transform="translate(-0.9 -3.2)"/><path class="cls-2" d="M196.5,49h-2.3l-6.9-10.4V49H185V34.9h2.3l6.9,10.5V34.9h2.3Z" transform="translate(-0.9 -3.2)"/><path class="cls-2" d="M201.6,36.7V41h5.2v1.8h-5.2v4.4h5.8V49h-8.1V34.8h8.1v1.8h-5.8Z" transform="translate(-0.9 -3.2)"/><path class="cls-2" d="M211.9,36.7V41h5.2v1.8h-5.2v4.4h5.8V49h-8.1V34.8h8.1v1.8h-5.8Z" transform="translate(-0.9 -3.2)"/><path class="cls-2" d="M227.3,49l-3.5-5.6h-1.6V49h-2.3V34.8h5a5.31,5.31,0,0,1,3.7,1.2,4.22,4.22,0,0,1,1.3,3.1,4,4,0,0,1-.9,2.7,4.39,4.39,0,0,1-2.7,1.4l3.7,5.7-2.7.1Zm-5.1-7.3h2.5c1.8,0,2.8-.8,2.8-2.4a2.14,2.14,0,0,0-.7-1.8,2.92,2.92,0,0,0-2.1-.7h-2.5Z" transform="translate(-0.9 -3.2)"/><path class="cls-2" d="M234.1,34.8V49h-2.3V34.8Z" transform="translate(-0.9 -3.2)"/><path class="cls-2" d="M248.3,49H246l-6.9-10.4V49h-2.3V34.9h2.3L246,45.4V34.9h2.3Z" transform="translate(-0.9 -3.2)"/><path class="cls-2" d="M261.7,36a5.67,5.67,0,0,1,2.2,3.4h-2.4a3.35,3.35,0,0,0-1.5-1.8,4.09,4.09,0,0,0-2.5-.7,4.75,4.75,0,0,0-2.4.6,4,4,0,0,0-1.6,1.8,6,6,0,0,0-.6,2.7,6.09,6.09,0,0,0,.6,2.8,4.24,4.24,0,0,0,1.7,1.8,5.14,5.14,0,0,0,2.5.6,4.43,4.43,0,0,0,3-1.1,4.79,4.79,0,0,0,1.5-3H257V41.4h7.1v2.2a6.86,6.86,0,0,1-1.1,2.8,6.42,6.42,0,0,1-2.3,2,7,7,0,0,1-3.3.8,6.87,6.87,0,0,1-3.6-.9,6.4,6.4,0,0,1-2.4-2.5,8.06,8.06,0,0,1,0-7.4,6.42,6.42,0,0,1,2.4-2.5,7.13,7.13,0,0,1,3.6-.9A5.12,5.12,0,0,1,261.7,36Z" transform="translate(-0.9 -3.2)"/><path class="cls-2" d="M281.8,36a6.83,6.83,0,0,1,2.3,3.6h-2.4a4,4,0,0,0-1.6-2,4.55,4.55,0,0,0-2.7-.8,4.65,4.65,0,0,0-2.3.6,4,4,0,0,0-1.6,1.8,6.38,6.38,0,0,0,0,5.4,4,4,0,0,0,1.6,1.8,4.38,4.38,0,0,0,2.3.6,4.78,4.78,0,0,0,2.7-.8,3.89,3.89,0,0,0,1.6-2h2.4a6.83,6.83,0,0,1-2.3,3.6,6.68,6.68,0,0,1-4.3,1.3,6.76,6.76,0,0,1-3.5-.9,7.18,7.18,0,0,1-2.4-2.5,7.46,7.46,0,0,1-.8-3.7,8.74,8.74,0,0,1,.8-3.7,6.42,6.42,0,0,1,2.4-2.5,6.76,6.76,0,0,1,3.5-.9A5.51,5.51,0,0,1,281.8,36Z" transform="translate(-0.9 -3.2)"/><path class="cls-2" d="M296.5,35.6a6.27,6.27,0,0,1,2.5,2.6,8.06,8.06,0,0,1,0,7.4,6.27,6.27,0,0,1-2.5,2.6,7,7,0,0,1-3.5.9,7.4,7.4,0,0,1-3.6-.9,6.27,6.27,0,0,1-2.5-2.6,8.06,8.06,0,0,1,0-7.4,6.27,6.27,0,0,1,2.5-2.6,7.4,7.4,0,0,1,3.6-.9A6.76,6.76,0,0,1,296.5,35.6Zm-5.9,1.8a4.24,4.24,0,0,0-1.7,1.8,6.37,6.37,0,0,0,0,5.4,3.72,3.72,0,0,0,1.7,1.8,5.1,5.1,0,0,0,4.8,0,4,4,0,0,0,1.6-1.8,6.37,6.37,0,0,0,0-5.4,4,4,0,0,0-1.6-1.8,5.1,5.1,0,0,0-4.8,0Z" transform="translate(-0.9 -3.2)"/><path class="cls-2" d="M304.5,47.2h4.9V49h-7.2V34.8h2.3V47.2Z" transform="translate(-0.9 -3.2)"/><path class="cls-2" d="M313.5,47.2h4.9V49h-7.2V34.8h2.3V47.2Z" transform="translate(-0.9 -3.2)"/><path class="cls-2" d="M322.4,36.7V41h5.2v1.8h-5.2v4.4h5.8V49h-8.1V34.8h8.1v1.8h-5.8Z" transform="translate(-0.9 -3.2)"/><path class="cls-2" d="M341.1,36a5.67,5.67,0,0,1,2.2,3.4h-2.4a3.35,3.35,0,0,0-1.5-1.8,4.09,4.09,0,0,0-2.5-.7,4.75,4.75,0,0,0-2.4.6,4,4,0,0,0-1.6,1.8,6,6,0,0,0-.6,2.7,6.09,6.09,0,0,0,.6,2.8,4.24,4.24,0,0,0,1.7,1.8,5.14,5.14,0,0,0,2.5.6,4.43,4.43,0,0,0,3-1.1,4.79,4.79,0,0,0,1.5-3h-5.2V41.4h7.1v2.2a6.86,6.86,0,0,1-1.1,2.8,6.42,6.42,0,0,1-2.3,2,7,7,0,0,1-3.3.8,6.87,6.87,0,0,1-3.6-.9,5.77,5.77,0,0,1-2.4-2.5,8.41,8.41,0,0,1-.9-3.7,7.51,7.51,0,0,1,.9-3.7,6.42,6.42,0,0,1,2.4-2.5,7.13,7.13,0,0,1,3.6-.9A5.12,5.12,0,0,1,341.1,36Z" transform="translate(-0.9 -3.2)"/><path class="cls-2" d="M348.2,36.7V41h5.2v1.8h-5.2v4.4H354V49h-8.1V34.8H354v1.8h-5.8Z" transform="translate(-0.9 -3.2)"/></g><g class="cls-1"><path class="cls-2" d="M366.4,34.6V48.8h-2.3V34.6Z" transform="translate(-0.9 -3.2)"/><path class="cls-2" d="M380.4,45.4a6,6,0,0,1-2.5,2.5,8.16,8.16,0,0,1-4,.9h-4.8V34.6h4.7a8.43,8.43,0,0,1,4,.9,5.5,5.5,0,0,1,2.5,2.5,8.78,8.78,0,0,1,.9,3.7A7.46,7.46,0,0,1,380.4,45.4Zm-2.8,0a5,5,0,0,0,1.4-3.7,5,5,0,0,0-1.4-3.7,5.26,5.26,0,0,0-3.9-1.3h-2.3v10h2.3A5.26,5.26,0,0,0,377.6,45.4Z" transform="translate(-0.9 -3.2)"/><path class="cls-2" d="M385.7,34.6V43a4.25,4.25,0,0,0,.8,2.8,3,3,0,0,0,2.3.9,2.87,2.87,0,0,0,2.3-.9,3.76,3.76,0,0,0,.8-2.8V34.6h2.3V43a6,6,0,0,1-1.5,4.4,5.35,5.35,0,0,1-4,1.5,5.28,5.28,0,0,1-3.9-1.5,6,6,0,0,1-1.5-4.4V34.6A9.64,9.64,0,0,1,385.7,34.6Z" transform="translate(-0.9 -3.2)"/><path class="cls-2" d="M401.4,41.6l6.2,7.1h-2.8l-5.6-6.5v6.6h-2.3V34.6h2.3v6.5l5.6-6.5h2.8Z" transform="translate(-0.9 -3.2)"/><path class="cls-2" d="M413.7,41.6l6.2,7.1h-2.8l-5.6-6.5v6.6h-2.3V34.6h2.3v6.5l5.6-6.5h2.8Z" transform="translate(-0.9 -3.2)"/><path class="cls-2" d="M423.9,34.6V48.8h-2.3V34.6Z" transform="translate(-0.9 -3.2)"/></g></g></svg>