<?xml version="1.0" encoding="utf-8"?>
<!-- Generator: Adobe Illustrator 24.1.1, SVG Export Plug-In . SVG Version: 6.00 Build 0)  -->
<svg version="1.1" id="Layer_1" xmlns="http://www.w3.org/2000/svg" xmlns:xlink="http://www.w3.org/1999/xlink" x="0px" y="0px"
	 viewBox="0 0 507.9 84.6" style="enable-background:new 0 0 507.9 84.6;" xml:space="preserve">
<style type="text/css">
	.st0{enable-background:new    ;}
	.st1{fill:#231F20;}
</style>
<g id="Layer_1-2">
	<g class="st0">
		<path class="st1" d="M7,3.5V25H1.8V3.5H7z"/>
		<path class="st1" d="M16.1,7.7v4.4h7v4.1h-7v4.7h7.8V25H10.8V3.5h13.1v4.2H16.1z"/>
		<path class="st1" d="M32.5,7.7v4.4h7v4.1h-7v4.7h7.9V25H27.3V3.5h13.1v4.2H32.5z"/>
		<path class="st1" d="M49,7.7v4.4h7v4.1h-7v4.7h7.9V25H43.8V3.5h13.1v4.2H49z"/>
		<path class="st1" d="M70.3,24.4c-1.3-0.5-2.2-1.3-3-2.3c-0.7-1-1.1-2.2-1.1-3.6h5.5c0.1,0.8,0.3,1.4,0.8,1.8
			c0.4,0.4,1,0.6,1.9,0.6c0.7,0,1.4-0.2,1.9-0.5c0.4-0.3,0.6-0.8,0.6-1.5c0-0.5-0.2-0.9-0.5-1.4s-0.8-0.6-1.4-0.8
			c-0.5-0.2-1.3-0.5-2.2-0.7c-1.4-0.4-2.5-0.8-3.3-1.3c-0.8-0.4-1.7-1-2.3-1.9c-0.6-0.8-0.9-1.9-0.9-3.2c0-2,0.7-3.5,2.2-4.7
			c1.5-1.1,3.3-1.7,5.6-1.7c2.4,0,4.3,0.5,5.7,1.7C81.3,6,82,7.6,82.1,9.6h-5.6c0-0.7-0.3-1.3-0.7-1.7c-0.4-0.4-1-0.6-1.8-0.6
			c-0.6,0-1.1,0.2-1.6,0.5c-0.4,0.3-0.6,0.8-0.6,1.5c0,0.7,0.3,1.3,0.9,1.7s1.7,0.8,3,1.3c1.4,0.4,2.5,0.9,3.3,1.4
			c0.8,0.4,1.6,1,2.3,1.9c0.6,0.8,0.9,1.9,0.9,3.1c0,1.3-0.3,2.3-0.9,3.3s-1.6,1.8-2.7,2.4s-2.6,0.8-4.2,0.8
			C72.9,25.2,71.5,24.9,70.3,24.4z"/>
		<path class="st1" d="M100.9,3.5v4.2h-5.6V25H90V7.7h-5.7V3.5H100.9z"/>
		<path class="st1" d="M108.7,3.5v12.8c0,1.3,0.3,2.3,0.9,2.9c0.6,0.7,1.6,1,2.8,1s2.2-0.3,2.8-1c0.6-0.7,0.9-1.7,0.9-2.9V3.5h5.2
			v12.8c0,1.9-0.4,3.5-1.3,4.9c-0.8,1.4-1.9,2.3-3.2,3c-1.4,0.6-2.9,1-4.6,1s-3.2-0.3-4.5-1c-1.4-0.6-2.4-1.7-3.1-3
			s-1.1-2.9-1.1-4.9V3.5H108.7z"/>
		<path class="st1" d="M139,4.9c1.7,0.9,3,2.2,4,3.8c0.9,1.7,1.4,3.4,1.4,5.6c0,2.1-0.4,4-1.4,5.6c-0.9,1.7-2.2,2.9-4,3.8
			c-1.7,0.9-3.6,1.4-5.9,1.4h-8V3.5h8C135.3,3.5,137.2,3.9,139,4.9z M137.3,18.8c1.1-1,1.7-2.6,1.7-4.6s-0.5-3.5-1.7-4.6
			S134.7,8,132.7,8h-2.5v12.4h2.5C134.7,20.4,136.2,19.9,137.3,18.8z"/>
		<path class="st1" d="M152.4,7.7v4.4h7v4.1h-7v4.7h7.9V25h-13.1V3.5h13.1v4.2H152.4z"/>
		<path class="st1" d="M182.8,25h-5.2l-8.8-13.2V25h-5.2V3.5h5.2l8.8,13.2V3.5h5.2V25z"/>
		<path class="st1" d="M202,3.5v4.2h-5.6V25h-5.2V7.7h-5.6V3.5C185.6,3.5,202,3.5,202,3.5z"/>
		<path class="st1" d="M227,15.8c0.7,0.9,1.1,2.1,1.1,3.3c0,1.8-0.6,3.2-1.9,4.3s-3,1.6-5.2,1.6h-10V3.5h9.6c2.2,0,3.9,0.5,5.1,1.5
			s1.9,2.4,1.9,4.1c0,1.3-0.3,2.3-1,3.1C226,13,225,13.7,224,14C225.2,14.3,226.3,14.9,227,15.8z M216.3,12.2h3.4
			c0.8,0,1.5-0.2,2-0.5c0.4-0.4,0.7-0.9,0.7-1.7c0-0.7-0.2-1.3-0.7-1.7c-0.4-0.4-1.1-0.6-2-0.6h-3.4V12.2z M222.2,20.1
			c0.5-0.4,0.7-0.9,0.7-1.8c0-0.8-0.2-1.4-0.7-1.8s-1.1-0.6-2.1-0.6h-3.8v4.7h3.9C221.1,20.7,221.7,20.5,222.2,20.1z"/>
		<path class="st1" d="M242.1,25l-4.5-8.1h-1.3V25h-5.2V3.5h8.8c1.7,0,3.1,0.3,4.3,0.8c1.1,0.6,2.1,1.4,2.7,2.4s0.8,2.2,0.8,3.4
			c0,1.5-0.4,2.7-1.3,3.9s-2,1.9-3.5,2.4l4.9,8.4h-5.7V25z M236.4,13.2h3.2c0.9,0,1.7-0.2,2.2-0.7c0.5-0.4,0.7-1.1,0.7-2
			c0-0.8-0.2-1.5-0.7-1.9s-1.1-0.7-2.2-0.7h-3.2V13.2z"/>
		<path class="st1" d="M264.4,21.1h-8l-1.3,3.9h-5.4l7.7-21.4h6l7.7,21.4h-5.5L264.4,21.1z M263.1,17.2l-2.7-7.9l-2.6,7.8
			L263.1,17.2L263.1,17.2L263.1,17.2z"/>
		<path class="st1" d="M292.6,25h-5.2l-8.8-13.2V25h-5.2V3.5h5.2l8.8,13.2V3.5h5.2V25z"/>
		<path class="st1" d="M296.9,8.5c0.9-1.7,2.2-2.9,3.9-3.9c1.7-0.9,3.5-1.4,5.5-1.4c2.5,0,4.7,0.6,6.6,2c1.8,1.4,3,3.1,3.6,5.5h-5.7
			c-0.4-0.9-1-1.6-1.8-2.1c-0.8-0.4-1.7-0.7-2.7-0.7c-1.6,0-2.9,0.5-3.9,1.7s-1.5,2.6-1.5,4.5s0.5,3.3,1.5,4.5s2.3,1.7,3.9,1.7
			c1,0,1.9-0.2,2.7-0.7c0.8-0.4,1.4-1.1,1.8-2.1h5.7c-0.6,2.3-1.8,4.2-3.6,5.5c-1.8,1.4-4,2-6.6,2c-2.1,0-4-0.4-5.5-1.4
			c-1.7-0.9-2.9-2.2-3.9-3.9c-0.9-1.7-1.4-3.5-1.4-5.6S296.1,10.2,296.9,8.5z"/>
		<path class="st1" d="M338.3,3.5V25h-5.2v-8.9H325V25h-5.2V3.5h5.2v8.3h8.1V3.5C333.1,3.5,338.3,3.5,338.3,3.5z"/>
	</g>
	<g class="st0">
		<path class="st1" d="M12,36c1.1,0.8,1.9,2,2.2,3.4h-2.4c-0.3-0.8-0.8-1.4-1.5-1.8c-0.7-0.5-1.5-0.7-2.5-0.7
			c-0.9,0-1.7,0.2-2.4,0.6c-0.7,0.4-1.2,1-1.6,1.8C3.4,40.1,3.2,41,3.2,42c0,1.1,0.2,2,0.6,2.8s1,1.4,1.7,1.8
			C6.3,46.8,7.1,47,8.1,47c1.2,0,2.2-0.4,3-1.1c0.8-0.7,1.3-1.7,1.5-3H7.4v-1.7h7.1v2.2c-0.2,1-0.5,2-1.1,2.8s-1.3,1.5-2.3,2
			S9.1,49,7.8,49c-1.4,0-2.6-0.3-3.6-0.9c-1.1-0.6-1.9-1.5-2.4-2.5s-0.9-2.3-0.9-3.7s0.3-2.6,0.9-3.7s1.4-1.9,2.4-2.5
			s2.3-0.9,3.6-0.9C9.5,34.7,10.9,35.1,12,36z"/>
		<path class="st1" d="M26.9,35.6c1.1,0.6,1.9,1.5,2.5,2.6s0.9,2.3,0.9,3.7s-0.3,2.6-0.9,3.7c-0.6,1.1-1.4,2-2.5,2.6
			s-2.2,0.9-3.6,0.9c-1.3,0-2.5-0.3-3.6-0.9c-1.1-0.6-1.9-1.5-2.5-2.6s-0.9-2.3-0.9-3.7s0.3-2.6,0.9-3.7c0.6-1.1,1.5-2,2.5-2.6
			s2.3-0.9,3.6-0.9C24.7,34.7,25.9,35,26.9,35.6z M21,37.4c-0.7,0.4-1.3,1-1.6,1.8c-0.4,0.8-0.6,1.7-0.6,2.7s0.2,1.9,0.6,2.7
			s0.9,1.4,1.6,1.8c0.7,0.4,1.5,0.6,2.4,0.6s1.7-0.2,2.4-0.6c0.7-0.4,1.2-1,1.6-1.8s0.6-1.7,0.6-2.7s-0.2-1.9-0.6-2.7
			s-0.9-1.4-1.6-1.8c-0.7-0.4-1.5-0.6-2.4-0.6C22.5,36.8,21.7,37,21,37.4z"/>
		<path class="st1" d="M34.1,34.8l4.1,11.7l4.1-11.7h2.5L39.6,49h-2.9l-5.1-14.1h2.5V34.8z"/>
		<path class="st1" d="M48.7,36.7V41h5.2v1.8h-5.2v4.4h5.8V49h-8.1V34.8h8.1v1.8h-5.8V36.7z"/>
		<path class="st1" d="M64.1,49l-3.5-5.6H59V49h-2.3V34.8h5c1.6,0,2.8,0.4,3.7,1.2c0.8,0.8,1.3,1.8,1.3,3.1c0,1.1-0.3,2-0.9,2.7
			C65,42.6,64.1,43,63,43.2l3.7,5.7L64.1,49L64.1,49z M59,41.7h2.5c1.8,0,2.8-0.8,2.8-2.4c0-0.8-0.2-1.4-0.7-1.8s-1.1-0.7-2.1-0.7
			H59V41.7z"/>
		<path class="st1" d="M80.1,49h-2.3l-6.9-10.4V49h-2.3V34.9h2.3l6.9,10.5V34.9h2.3V49z"/>
		<path class="st1" d="M97.5,35v14h-2.3V38.5l-4,10.4h-2l-4-10.4V49h-2.3V35h2.8l4.6,11.1L94.7,35H97.5z"/>
		<path class="st1" d="M102.5,36.7V41h5.2v1.8h-5.2v4.4h5.8V49h-8.1V34.8h8.1v1.8h-5.8V36.7z"/>
		<path class="st1" d="M121.9,49h-2.3l-6.9-10.4V49h-2.3V34.9h2.3l6.9,10.5V34.9h2.3V49z"/>
		<path class="st1" d="M133.8,34.8v1.8h-3.9V49h-2.3V36.7h-3.9v-1.8h10.1V34.8z"/>
		<path class="st1" d="M142.4,36.7V41h5.2v1.8h-5.2v4.4h5.8V49h-8.1V34.8h8.1v1.8h-5.8V36.7z"/>
		<path class="st1" d="M161.9,49h-2.3l-6.9-10.4V49h-2.3V34.9h2.3l6.9,10.5V34.9h2.3V49z"/>
		<path class="st1" d="M175.3,36c1.1,0.8,1.9,2,2.2,3.4h-2.4c-0.3-0.8-0.8-1.4-1.5-1.8c-0.7-0.5-1.5-0.7-2.5-0.7
			c-0.9,0-1.7,0.2-2.4,0.6c-0.7,0.4-1.2,1-1.6,1.8c-0.4,0.8-0.6,1.7-0.6,2.7c0,1.1,0.2,2,0.6,2.8c0.4,0.8,1,1.4,1.7,1.8
			c0.7,0.4,1.6,0.6,2.5,0.6c1.2,0,2.2-0.4,3-1.1c0.8-0.7,1.3-1.7,1.5-3h-5.2v-1.7h7.1v2.2c-0.2,1-0.5,2-1.1,2.8s-1.3,1.5-2.3,2
			s-2,0.8-3.3,0.8c-1.4,0-2.6-0.3-3.6-0.9c-1.1-0.6-1.9-1.5-2.4-2.5s-0.9-2.3-0.9-3.7s0.3-2.6,0.9-3.7s1.4-1.9,2.4-2.5
			s2.3-0.9,3.6-0.9C172.8,34.7,174.2,35.1,175.3,36z"/>
		<path class="st1" d="M182.4,34.8V49h-2.3V34.8H182.4z"/>
		<path class="st1" d="M196.5,49h-2.3l-6.9-10.4V49H185V34.9h2.3l6.9,10.5V34.9h2.3V49z"/>
		<path class="st1" d="M201.6,36.7V41h5.2v1.8h-5.2v4.4h5.8V49h-8.1V34.8h8.1v1.8h-5.8V36.7z"/>
		<path class="st1" d="M211.9,36.7V41h5.2v1.8h-5.2v4.4h5.8V49h-8.1V34.8h8.1v1.8h-5.8V36.7z"/>
		<path class="st1" d="M227.3,49l-3.5-5.6h-1.6V49h-2.3V34.8h5c1.6,0,2.8,0.4,3.7,1.2c0.8,0.8,1.3,1.8,1.3,3.1c0,1.1-0.3,2-0.9,2.7
			c-0.6,0.7-1.5,1.2-2.7,1.4l3.7,5.7L227.3,49L227.3,49z M222.2,41.7h2.5c1.8,0,2.8-0.8,2.8-2.4c0-0.8-0.2-1.4-0.7-1.8
			c-0.4-0.4-1.1-0.7-2.1-0.7h-2.5V41.7z"/>
		<path class="st1" d="M234.1,34.8V49h-2.3V34.8H234.1z"/>
		<path class="st1" d="M248.3,49H246l-6.9-10.4V49h-2.3V34.9h2.3l6.9,10.5V34.9h2.3V49z"/>
		<path class="st1" d="M261.7,36c1.1,0.8,1.9,2,2.2,3.4h-2.4c-0.3-0.8-0.8-1.4-1.5-1.8c-0.7-0.5-1.5-0.7-2.5-0.7
			c-0.9,0-1.7,0.2-2.4,0.6s-1.2,1-1.6,1.8c-0.4,0.8-0.6,1.7-0.6,2.7c0,1.1,0.2,2,0.6,2.8c0.4,0.8,1,1.4,1.7,1.8
			c0.7,0.4,1.6,0.6,2.5,0.6c1.2,0,2.2-0.4,3-1.1c0.8-0.7,1.3-1.7,1.5-3H257v-1.7h7.1v2.2c-0.2,1-0.5,2-1.1,2.8s-1.3,1.5-2.3,2
			s-2,0.8-3.3,0.8c-1.4,0-2.6-0.3-3.6-0.9s-1.9-1.5-2.4-2.5c-0.6-1.1-0.9-2.3-0.9-3.7s0.3-2.6,0.9-3.7c0.6-1.1,1.4-1.9,2.4-2.5
			s2.3-0.9,3.6-0.9C259.2,34.7,260.6,35.1,261.7,36z"/>
		<path class="st1" d="M281.8,36c1.1,0.9,1.9,2.1,2.3,3.6h-2.4c-0.3-0.9-0.9-1.5-1.6-2s-1.6-0.8-2.7-0.8c-0.8,0-1.6,0.2-2.3,0.6
			c-0.7,0.4-1.2,1-1.6,1.8s-0.6,1.7-0.6,2.7s0.2,1.9,0.6,2.7s0.9,1.4,1.6,1.8s1.4,0.6,2.3,0.6c1.1,0,1.9-0.3,2.7-0.8s1.3-1.2,1.6-2
			h2.4c-0.4,1.5-1.2,2.7-2.3,3.6c-1.1,0.9-2.6,1.3-4.3,1.3c-1.3,0-2.5-0.3-3.5-0.9c-1-0.6-1.8-1.5-2.4-2.5c-0.6-1.1-0.8-2.3-0.8-3.7
			s0.3-2.6,0.8-3.7c0.6-1.1,1.4-1.9,2.4-2.5s2.2-0.9,3.5-0.9C279.3,34.7,280.7,35.1,281.8,36z"/>
		<path class="st1" d="M296.5,35.6c1.1,0.6,1.9,1.5,2.5,2.6s0.9,2.3,0.9,3.7s-0.3,2.6-0.9,3.7c-0.6,1.1-1.4,2-2.5,2.6
			s-2.2,0.9-3.5,0.9s-2.5-0.3-3.6-0.9c-1.1-0.6-1.9-1.5-2.5-2.6s-0.9-2.3-0.9-3.7s0.3-2.6,0.9-3.7c0.6-1.1,1.4-2,2.5-2.6
			s2.3-0.9,3.6-0.9C294.3,34.7,295.5,35,296.5,35.6z M290.6,37.4c-0.7,0.4-1.3,1-1.7,1.8c-0.4,0.8-0.6,1.7-0.6,2.7s0.2,1.9,0.6,2.7
			s0.9,1.4,1.7,1.8c0.7,0.4,1.5,0.6,2.4,0.6s1.7-0.2,2.4-0.6s1.2-1,1.6-1.8s0.6-1.7,0.6-2.7s-0.2-1.9-0.6-2.7s-0.9-1.4-1.6-1.8
			s-1.5-0.6-2.4-0.6C292.1,36.8,291.3,37,290.6,37.4z"/>
		<path class="st1" d="M304.5,47.2h4.9V49h-7.2V34.8h2.3L304.5,47.2L304.5,47.2z"/>
		<path class="st1" d="M313.5,47.2h4.9V49h-7.2V34.8h2.3L313.5,47.2L313.5,47.2z"/>
		<path class="st1" d="M322.4,36.7V41h5.2v1.8h-5.2v4.4h5.8V49h-8.1V34.8h8.1v1.8h-5.8V36.7z"/>
		<path class="st1" d="M341.1,36c1.1,0.8,1.9,2,2.2,3.4h-2.4c-0.3-0.8-0.8-1.4-1.5-1.8c-0.7-0.5-1.5-0.7-2.5-0.7
			c-0.9,0-1.7,0.2-2.4,0.6c-0.7,0.4-1.2,1-1.6,1.8s-0.6,1.7-0.6,2.7c0,1.1,0.2,2,0.6,2.8s1,1.4,1.7,1.8c0.7,0.4,1.6,0.6,2.5,0.6
			c1.2,0,2.2-0.4,3-1.1c0.8-0.7,1.3-1.7,1.5-3h-5.2v-1.7h7.1v2.2c-0.2,1-0.5,2-1.1,2.8s-1.3,1.5-2.3,2s-2,0.8-3.3,0.8
			c-1.4,0-2.6-0.3-3.6-0.9c-1.1-0.6-1.9-1.5-2.4-2.5s-0.9-2.3-0.9-3.7s0.3-2.6,0.9-3.7s1.4-1.9,2.4-2.5s2.3-0.9,3.6-0.9
			C338.6,34.7,340,35.1,341.1,36z"/>
		<path class="st1" d="M348.2,36.7V41h5.2v1.8h-5.2v4.4h5.8V49h-8.1V34.8h8.1v1.8h-5.8V36.7z"/>
	</g>
	<g class="st0">
		<path class="st1" d="M366.4,34.6v14.2h-2.3V34.6H366.4z"/>
		<path class="st1" d="M380.4,45.4c-0.6,1.1-1.4,1.9-2.5,2.5s-2.4,0.9-4,0.9h-4.8V34.6h4.7c1.5,0,2.9,0.3,4,0.9s2,1.4,2.5,2.5
			s0.9,2.3,0.9,3.7S381,44.3,380.4,45.4z M377.6,45.4c0.9-0.9,1.4-2.1,1.4-3.7s-0.5-2.8-1.4-3.7s-2.2-1.3-3.9-1.3h-2.3v10h2.3
			C375.4,46.7,376.7,46.3,377.6,45.4z"/>
		<path class="st1" d="M385.7,34.6V43c0,1.3,0.3,2.2,0.8,2.8c0.6,0.6,1.3,0.9,2.3,0.9s1.8-0.3,2.3-0.9c0.6-0.6,0.8-1.5,0.8-2.8v-8.4
			h2.3V43c0,1.9-0.5,3.4-1.5,4.4s-2.3,1.5-4,1.5c-1.6,0-2.9-0.5-3.9-1.5s-1.5-2.5-1.5-4.4v-8.4C383.3,34.5,385.7,34.5,385.7,34.6z"
			/>
		<path class="st1" d="M401.4,41.6l6.2,7.1h-2.8l-5.6-6.5v6.6h-2.3V34.6h2.3v6.5l5.6-6.5h2.8L401.4,41.6z"/>
		<path class="st1" d="M413.7,41.6l6.2,7.1h-2.8l-5.6-6.5v6.6h-2.3V34.6h2.3v6.5l5.6-6.5h2.8L413.7,41.6z"/>
		<path class="st1" d="M423.9,34.6v14.2h-2.3V34.6H423.9z"/>
	</g>
</g>
</svg>
