<svg width="36" height="36" viewBox="0 0 36 36" fill="none" xmlns="http://www.w3.org/2000/svg">
<path d="M18.0598 2.04755V3.82134M18.0598 32.202V33.9758M34.0239 18.0117H32.2501M3.86949 18.0117H2.0957M29.3482 29.3001L28.0941 28.046M8.02548 7.97733L6.77141 6.72326M29.3482 6.72326L28.0941 7.97733M8.02548 28.046L6.77141 29.3001M25.155 18.0117C25.155 19.8934 24.4075 21.6981 23.0769 23.0287C21.7462 24.3593 19.9416 25.1068 18.0598 25.1068C16.1781 25.1068 14.3734 24.3593 13.0428 23.0287C11.7122 21.6981 10.9647 19.8934 10.9647 18.0117C10.9647 16.1299 11.7122 14.3252 13.0428 12.9946C14.3734 11.664 16.1781 10.9165 18.0598 10.9165C19.9416 10.9165 21.7462 11.664 23.0769 12.9946C24.4075 14.3252 25.155 16.1299 25.155 18.0117Z" stroke="#515151" stroke-width="3.54758" stroke-linecap="round" stroke-linejoin="round"/>
</svg>
