<svg width="19" height="14" viewBox="0 0 19 14" fill="none" xmlns="http://www.w3.org/2000/svg">
<path d="M8.0271 13.0895C8.01283 13.1021 7.57552 13.1978 7.05539 13.3022C6.53518 13.4066 6.10395 13.4761 6.097 13.4567C6.09014 13.4372 6.03631 13.1219 5.97746 12.756C5.85923 12.0211 5.57297 11.163 5.26713 10.6264C4.31363 8.95403 2.60301 7.84667 0.528301 7.55885L0 7.48554V6.74675V6.00791L0.478903 5.93776C3.61614 5.47811 5.66148 3.42957 6.0441 0.363917C6.06907 0.163733 6.09893 -9.67768e-10 6.11042 0C6.21623 8.91988e-09 7.96944 0.368982 8.0026 0.398213C8.02657 0.419349 8.00874 0.607014 7.9629 0.815177C7.45558 3.12021 6.00296 4.99587 4.11792 5.78013L3.66567 5.96826L12.9642 5.983L18.8439 5.99235L18.8439 7.48753L12.949 7.4969L3.67254 7.51169L4.24337 7.76428C5.72436 8.41951 6.89687 9.70481 7.58734 11.43C7.78411 11.9215 8.08099 13.042 8.0271 13.0895Z" fill="white"/>
</svg>
