<svg id="Layer_1" data-name="Layer 1" xmlns="http://www.w3.org/2000/svg" viewBox="0 0 473.83 153.66"><defs><style>.cls-1{fill:#fff;}.cls-2{fill:none;stroke:#fff;stroke-miterlimit:10;stroke-width:2px;}</style></defs><path class="cls-1" d="M-419.17,160.17a13.36,13.36,0,0,0-7.75-7.54A21.14,21.14,0,0,0-439,152a14.88,14.88,0,0,0-10.08,7.1,20.91,20.91,0,0,0-2.11,17.52A14.19,14.19,0,0,0-443,186a23.69,23.69,0,0,0,17.56.27,10.83,10.83,0,0,0,6.84-6.54,11.2,11.2,0,0,0,.73-4.61c-2.68,0-5.27,0-7.85,0a.61.61,0,0,0-.47.39,4.85,4.85,0,0,1-3.52,4,11.76,11.76,0,0,1-6.77.33A7.2,7.2,0,0,1-442,172h24.37c.09-.28.15-.49.22-.69v-3.89a4,4,0,0,1-.14-.57A21.2,21.2,0,0,0-419.17,160.17Zm-22.89,5.46a8.19,8.19,0,0,1,6-7,8.48,8.48,0,0,1,5.62.42c2.74,1.28,3.61,3.71,3.88,6.58Z" transform="translate(573.56 -87.91)"/><path class="cls-1" d="M-458.36,162.28a8.89,8.89,0,0,0-4.07-1.31,8,8,0,0,0,6.29-6,13.11,13.11,0,0,0,.21-5.4,11,11,0,0,0-5.29-8.25,15.27,15.27,0,0,0-8.15-2h-23.74c-.24,0-.48,0-.71,0v47.35c.26,0,.48,0,.69,0h23.9a18.65,18.65,0,0,0,6-1c4-1.38,7.06-3.85,8.36-8.05a17.6,17.6,0,0,0-.17-10.93A8.36,8.36,0,0,0-458.36,162.28Zm-24.59-14.52H-470c2.3,0,3.6,1,4,3.25a9.68,9.68,0,0,1-.36,5.14,3,3,0,0,1-2.87,2.14c-4.55.07-9.1,0-13.72,0Zm18.61,26.13a4.79,4.79,0,0,1-5,4.41c-4.5.1-9,0-13.56,0V165.66h13.05c3,0,4.93,1.52,5.44,4.45A12.94,12.94,0,0,1-464.34,173.89Z" transform="translate(573.56 -87.91)"/><path class="cls-1" d="M-424.72,142.19h-19.47v5.75h19.47Z" transform="translate(573.56 -87.91)"/><path class="cls-1" d="M-380.45,142.18a1.45,1.45,0,0,0-.89.27,2.67,2.67,0,0,0-.7.88l-20.87,41.33a1.38,1.38,0,0,0-.19.71,1.37,1.37,0,0,0,.38,1,1.27,1.27,0,0,0,1,.41,1.34,1.34,0,0,0,.81-.24,2.56,2.56,0,0,0,.68-.82l20.87-41.37a2.11,2.11,0,0,0,.2-.86,1.21,1.21,0,0,0-.39-.94A1.21,1.21,0,0,0-380.45,142.18Z" transform="translate(573.56 -87.91)"/><path class="cls-1" d="M-361.74,168.34a22.37,22.37,0,0,0-4.12-1.39,18.48,18.48,0,0,1-4.87-1.83,3.46,3.46,0,0,1-1.76-2.93,3.53,3.53,0,0,1,1.61-3.16A6.84,6.84,0,0,1-367,158a8.74,8.74,0,0,1,3.4.67,7.65,7.65,0,0,1,2.74,2,1.16,1.16,0,0,0,.86.38,1.32,1.32,0,0,0,.87-.28,1.33,1.33,0,0,0,.48-1,1.13,1.13,0,0,0-.44-1,8.77,8.77,0,0,0-3.57-2.52,11.6,11.6,0,0,0-4.15-.79,10.38,10.38,0,0,0-4.3.86,7.44,7.44,0,0,0-3,2.42,6,6,0,0,0-1.1,3.53A5.44,5.44,0,0,0-373,167a19,19,0,0,0,6.24,2.62,15.58,15.58,0,0,1,4.42,1.72,3.36,3.36,0,0,1,1.58,3,3.51,3.51,0,0,1-1.7,3.14,7.33,7.33,0,0,1-4,1.08,9,9,0,0,1-7.53-3.74,1.48,1.48,0,0,0-1.06-.48,1,1,0,0,0-.77.28,1.07,1.07,0,0,0-.62,1,2.2,2.2,0,0,0,.38,1.06,11.27,11.27,0,0,0,9.31,4.37,10.11,10.11,0,0,0,6.19-1.85,5.86,5.86,0,0,0,2.5-5,6,6,0,0,0-1-3.69A6.91,6.91,0,0,0-361.74,168.34Z" transform="translate(573.56 -87.91)"/><path class="cls-1" d="M-331.84,156a1.36,1.36,0,0,0-1,.44,1.47,1.47,0,0,0-.41,1.05v3a9.15,9.15,0,0,0-3.6-3.65,10.3,10.3,0,0,0-5.27-1.39,10.37,10.37,0,0,0-5.69,1.63,11.45,11.45,0,0,0-4.06,4.53,14.21,14.21,0,0,0-1.49,6.56,14.43,14.43,0,0,0,1.47,6.57,11.53,11.53,0,0,0,4,4.61,10.32,10.32,0,0,0,5.78,1.68,9.75,9.75,0,0,0,5.23-1.49,10,10,0,0,0,3.6-3.65v3.22a1.41,1.41,0,0,0,.41,1,1.41,1.41,0,0,0,1,.41,1.43,1.43,0,0,0,1-.41,1.4,1.4,0,0,0,.4-1v-21.6a1.47,1.47,0,0,0-.4-1.05A1.38,1.38,0,0,0-331.84,156Zm-2.37,17.35a8.87,8.87,0,0,1-3.12,3.65,8,8,0,0,1-4.49,1.32,8,8,0,0,1-4.53-1.32,8.75,8.75,0,0,1-3.1-3.65,11.9,11.9,0,0,1-1.1-5.2,11.51,11.51,0,0,1,1.12-5.16,8.94,8.94,0,0,1,3.12-3.58,8.1,8.1,0,0,1,4.49-1.29,8,8,0,0,1,4.49,1.31,9,9,0,0,1,3.12,3.63,11.42,11.42,0,0,1,1.13,5.09A11.77,11.77,0,0,1-334.21,173.35Z" transform="translate(573.56 -87.91)"/><path class="cls-1" d="M-311.3,155.43a9.88,9.88,0,0,0-5,1.37,10.06,10.06,0,0,0-3.72,3.43v-2.64a1.39,1.39,0,0,0-.41-1,1.37,1.37,0,0,0-1-.41,1.36,1.36,0,0,0-1,.41,1.36,1.36,0,0,0-.41,1v21.5a1.37,1.37,0,0,0,.41,1,1.39,1.39,0,0,0,1,.41,1.41,1.41,0,0,0,1-.41,1.41,1.41,0,0,0,.41-1v-14a5.83,5.83,0,0,1,1.15-3.48,8.4,8.4,0,0,1,3-2.56,8.34,8.34,0,0,1,3.91-1,5.79,5.79,0,0,1,4.82,1.94,7.82,7.82,0,0,1,1.56,5.06v14a1.41,1.41,0,0,0,.41,1,1.41,1.41,0,0,0,1,.41,1.43,1.43,0,0,0,1-.41,1.35,1.35,0,0,0,.43-1V165a10.83,10.83,0,0,0-2.08-6.94C-306.14,156.3-308.32,155.43-311.3,155.43Z" transform="translate(573.56 -87.91)"/><path class="cls-1" d="M-293,148.28a2.3,2.3,0,0,0-1.51.45,1.63,1.63,0,0,0-.56,1.32v.48a1.65,1.65,0,0,0,.53,1.32,2.18,2.18,0,0,0,1.49.46,2.06,2.06,0,0,0,1.46-.46,1.67,1.67,0,0,0,.51-1.32v-.48Q-291.09,148.28-293,148.28Z" transform="translate(573.56 -87.91)"/><path class="cls-1" d="M-293.06,156.1a1.39,1.39,0,0,0-1,.41,1.39,1.39,0,0,0-.41,1V182.3a4.55,4.55,0,0,1-1.17,3.29,5.34,5.34,0,0,1-3,1.56,1.56,1.56,0,0,0-.91.46,1.25,1.25,0,0,0-.33.88v.2a1.3,1.3,0,0,0,.38,1,1.34,1.34,0,0,0,1,.38,6.66,6.66,0,0,0,3.24-.89,7.21,7.21,0,0,0,2.64-2.54,7.14,7.14,0,0,0,1-3.86v-25.2a1.39,1.39,0,0,0-.41-1A1.39,1.39,0,0,0-293.06,156.1Z" transform="translate(573.56 -87.91)"/><path class="cls-1" d="M-263.64,156a1.34,1.34,0,0,0-1,.44,1.47,1.47,0,0,0-.41,1.05v3a9.15,9.15,0,0,0-3.6-3.65,10.31,10.31,0,0,0-5.28-1.39,10.4,10.4,0,0,0-5.69,1.63,11.43,11.43,0,0,0-4.05,4.53,14.21,14.21,0,0,0-1.49,6.56,14.43,14.43,0,0,0,1.47,6.57,11.46,11.46,0,0,0,4,4.61,10.32,10.32,0,0,0,5.78,1.68,9.75,9.75,0,0,0,5.23-1.49,10,10,0,0,0,3.6-3.65v3.22a1.41,1.41,0,0,0,.41,1,1.39,1.39,0,0,0,1,.41,1.39,1.39,0,0,0,1-.41,1.41,1.41,0,0,0,.41-1v-21.6a1.47,1.47,0,0,0-.41-1.05A1.34,1.34,0,0,0-263.64,156ZM-266,173.35a9,9,0,0,1-3.12,3.65,8,8,0,0,1-4.49,1.32,8,8,0,0,1-4.54-1.32,8.66,8.66,0,0,1-3.09-3.65,11.91,11.91,0,0,1-1.11-5.2,11.51,11.51,0,0,1,1.13-5.16,8.79,8.79,0,0,1,3.12-3.58,8.07,8.07,0,0,1,4.49-1.29,8,8,0,0,1,4.49,1.31,9.16,9.16,0,0,1,3.12,3.63,11.41,11.41,0,0,1,1.12,5.09A11.77,11.77,0,0,1-266,173.35Z" transform="translate(573.56 -87.91)"/><path class="cls-1" d="M-237,155.57a1.41,1.41,0,0,0-1,.41,1.41,1.41,0,0,0-.41,1v14.3a6,6,0,0,1-1.08,3.43,8.09,8.09,0,0,1-2.87,2.6,7.85,7.85,0,0,1-3.77,1,5.86,5.86,0,0,1-4.73-1.78,7.85,7.85,0,0,1-1.51-5.23V157a1.41,1.41,0,0,0-.41-1,1.41,1.41,0,0,0-1-.41,1.39,1.39,0,0,0-1,.41,1.37,1.37,0,0,0-.41,1v14.73a10,10,0,0,0,2.16,6.77,7.9,7.9,0,0,0,6.33,2.5,10.1,10.1,0,0,0,4.9-1.23,8.71,8.71,0,0,0,3.45-3.24v1.68a9.62,9.62,0,0,1-2.32,6.82,8.24,8.24,0,0,1-6.31,2.49,12.24,12.24,0,0,1-5.86-1.68,1.34,1.34,0,0,0-.58-.14,1.24,1.24,0,0,0-.72.24,1.35,1.35,0,0,0-.48.72,3.23,3.23,0,0,0-.09.48,1.7,1.7,0,0,0,1,1.39,9.64,9.64,0,0,0,2.9,1.15,15.59,15.59,0,0,0,3.77.44,12.53,12.53,0,0,0,6-1.4,9.93,9.93,0,0,0,4.13-4.07,13.26,13.26,0,0,0,1.48-6.48V157a1.4,1.4,0,0,0-.4-1A1.43,1.43,0,0,0-237,155.57Z" transform="translate(573.56 -87.91)"/><path class="cls-1" d="M-210.56,157.42a10.74,10.74,0,0,0-5.76-1.61,10.49,10.49,0,0,0-5.18,1.3,8.92,8.92,0,0,0-3.6,3.55v-3.27a1.49,1.49,0,0,0-.41-1,1.35,1.35,0,0,0-1-.43,1.34,1.34,0,0,0-1,.43,1.45,1.45,0,0,0-.41,1v31.3a1.37,1.37,0,0,0,.41,1,1.39,1.39,0,0,0,1,.41,1.41,1.41,0,0,0,1-.41,1.41,1.41,0,0,0,.41-1V176a10.39,10.39,0,0,0,3.72,3.52,10.16,10.16,0,0,0,5.11,1.32,10.43,10.43,0,0,0,5.73-1.63,11.27,11.27,0,0,0,4-4.49,14,14,0,0,0,1.46-6.45,13.93,13.93,0,0,0-1.46-6.41A11.1,11.1,0,0,0-210.56,157.42Zm1.61,16a8.62,8.62,0,0,1-3.12,3.52,8.17,8.17,0,0,1-4.49,1.28,8.36,8.36,0,0,1-4.56-1.28,8.48,8.48,0,0,1-3.12-3.52,11.53,11.53,0,0,1-1.1-5.09,11.3,11.3,0,0,1,1.1-5.06,8.37,8.37,0,0,1,3.12-3.48,8.51,8.51,0,0,1,4.56-1.25,8.16,8.16,0,0,1,4.49,1.27,8.76,8.76,0,0,1,3.12,3.5,11,11,0,0,1,1.13,5A11.27,11.27,0,0,1-208.95,173.38Z" transform="translate(573.56 -87.91)"/><path class="cls-1" d="M-179.89,155.86a1.49,1.49,0,0,0-.91-.34,1.17,1.17,0,0,0-.84.22,1.76,1.76,0,0,0-.56.7l-8.2,19.43-8.16-19.43a1.74,1.74,0,0,0-.55-.7,1.3,1.3,0,0,0-.8-.26,1.44,1.44,0,0,0-1.1.4,1.38,1.38,0,0,0-.38,1,1,1,0,0,0,.07.38.89.89,0,0,1,.07.29l9.46,22.08a1.43,1.43,0,0,0,.57.72,1.35,1.35,0,0,0,.87.19,1.23,1.23,0,0,0,.74-.27,1.78,1.78,0,0,0,.55-.64l9.41-22.08a1.8,1.8,0,0,0,.19-.82A1,1,0,0,0-179.89,155.86Z" transform="translate(573.56 -87.91)"/><rect class="cls-2" x="1" y="1" width="471.83" height="151.66" rx="24.13"/></svg>