<?xml version="1.0" encoding="utf-8"?>
<!-- Generator: Adobe Illustrator 24.3.0, SVG Export Plug-In . SVG Version: 6.00 Build 0)  -->
<svg version="1.1" id="Layer_1" xmlns="http://www.w3.org/2000/svg" xmlns:xlink="http://www.w3.org/1999/xlink" x="0px" y="0px"
	 viewBox="0 0 473.8 153.7" style="enable-background:new 0 0 473.8 153.7;" xml:space="preserve">
<path d="M154.4,72.3c-1.4-3.5-4.2-6.2-7.8-7.5c-3.9-1.4-8.1-1.6-12.1-0.6c-4.2,0.8-7.9,3.4-10.1,7.1c-3.3,5.2-4,11.7-2.1,17.5
	c1.1,4.2,4.2,7.7,8.2,9.4c5.6,2.3,11.9,2.4,17.6,0.3c3.2-1,5.7-3.4,6.8-6.5c0.6-1.5,0.8-3,0.7-4.6c-2.7,0-5.3,0-7.9,0
	c-0.2,0-0.4,0.2-0.5,0.4c-0.3,1.9-1.7,3.5-3.5,4c-2.2,0.8-4.5,0.9-6.8,0.3c-3.6-0.8-5.9-4.2-5.5-7.8h24.4c0.1-0.3,0.1-0.5,0.2-0.7
	v-3.9c-0.1-0.2-0.1-0.4-0.1-0.6C155.8,76.6,155.3,74.4,154.4,72.3z M131.5,77.7c0.4-3.3,2.8-6.1,6-7c1.9-0.5,3.8-0.4,5.6,0.4
	c2.7,1.3,3.6,3.7,3.9,6.6H131.5z"/>
<path d="M115.2,74.4c-1.2-0.8-2.6-1.2-4.1-1.3c3.1-0.6,5.6-2.9,6.3-6c0.4-1.8,0.5-3.6,0.2-5.4c-0.4-3.4-2.3-6.5-5.3-8.2
	c-2.5-1.4-5.3-2.1-8.1-2H80.5c-0.2,0-0.5,0-0.7,0v47.4c0.3,0,0.5,0,0.7,0h23.9c2,0,4.1-0.3,6-1c4-1.4,7.1-3.9,8.4-8.1
	c1.1-3.6,1-7.4-0.2-10.9C117.9,77,116.8,75.4,115.2,74.4z M90.6,59.8h12.9c2.3,0,3.6,1,4,3.2c0.3,1.7,0.2,3.5-0.4,5.1
	c-0.4,1.3-1.5,2.1-2.9,2.1c-4.5,0.1-9.1,0-13.7,0V59.8z M109.2,86c-0.2,2.6-2.4,4.5-5,4.4c-4.5,0.1-9,0-13.6,0V77.7h13
	c3,0,4.9,1.5,5.4,4.4C109.4,83.4,109.4,84.7,109.2,86L109.2,86z"/>
<path d="M148.8,54.3h-19.5V60h19.5V54.3z"/>
<path d="M193.1,54.3c-0.3,0-0.6,0.1-0.9,0.3c-0.3,0.2-0.5,0.5-0.7,0.9l-20.9,41.3c-0.1,0.2-0.2,0.5-0.2,0.7c0,0.4,0.1,0.7,0.4,1
	c0.3,0.3,0.6,0.4,1,0.4c0.3,0,0.6-0.1,0.8-0.2c0.3-0.2,0.5-0.5,0.7-0.8l20.9-41.4c0.1-0.3,0.2-0.6,0.2-0.9c0-0.4-0.1-0.7-0.4-0.9
	C193.8,54.4,193.4,54.3,193.1,54.3z"/>
<path d="M211.8,80.4c-1.3-0.6-2.7-1.1-4.1-1.4c-1.7-0.4-3.3-1-4.9-1.8c-1.1-0.6-1.7-1.7-1.8-2.9c-0.1-1.3,0.5-2.5,1.6-3.2
	c1.2-0.7,2.5-1.1,3.9-1c1.2,0,2.3,0.2,3.4,0.7c1.1,0.5,2,1.1,2.7,2c0.2,0.2,0.5,0.4,0.9,0.4c0.3,0,0.6-0.1,0.9-0.3
	c0.3-0.2,0.5-0.6,0.5-1c0-0.4-0.1-0.8-0.4-1c-1-1.1-2.2-2-3.6-2.5c-1.3-0.5-2.7-0.8-4.1-0.8c-1.5,0-2.9,0.3-4.3,0.9
	c-1.2,0.5-2.2,1.4-3,2.4c-0.7,1-1.1,2.3-1.1,3.5c-0.1,1.9,0.7,3.6,2.2,4.7c1.9,1.2,4,2.1,6.2,2.6c1.6,0.3,3,0.9,4.4,1.7
	c1,0.6,1.6,1.8,1.6,3c0,1.3-0.6,2.5-1.7,3.1c-1.2,0.7-2.6,1.1-4,1.1c-3,0.1-5.8-1.3-7.5-3.7c-0.3-0.3-0.7-0.5-1.1-0.5
	c-0.3,0-0.6,0.1-0.8,0.3c-0.4,0.2-0.6,0.6-0.6,1c0,0.4,0.2,0.7,0.4,1.1c2.2,2.9,5.7,4.5,9.3,4.4c2.2,0.1,4.4-0.6,6.2-1.9
	c1.6-1.1,2.6-3,2.5-5c0.1-1.3-0.3-2.6-1-3.7C213.8,81.7,212.9,80.9,211.8,80.4z"/>
<path d="M241.7,68.1c-0.4,0-0.7,0.2-1,0.4c-0.3,0.3-0.4,0.7-0.4,1.1v3c-0.8-1.5-2.1-2.8-3.6-3.6c-1.6-0.9-3.4-1.4-5.3-1.4
	c-2,0-4,0.5-5.7,1.6c-1.7,1.1-3.1,2.7-4.1,4.5c-1,2-1.5,4.3-1.5,6.6c0,2.3,0.5,4.5,1.5,6.6c0.9,1.9,2.3,3.5,4,4.6
	c1.7,1.1,3.7,1.7,5.8,1.7c1.8,0,3.7-0.5,5.2-1.5c1.5-0.9,2.7-2.1,3.6-3.6v3.2c0,0.4,0.1,0.7,0.4,1c0.3,0.3,0.6,0.4,1,0.4
	c0.4,0,0.7-0.1,1-0.4c0.3-0.3,0.4-0.6,0.4-1V69.6c0-0.4-0.1-0.8-0.4-1.1C242.4,68.3,242.1,68.1,241.7,68.1z M239.4,85.4
	c-0.7,1.5-1.8,2.7-3.1,3.6c-1.3,0.9-2.9,1.3-4.5,1.3c-1.6,0-3.2-0.4-4.5-1.3c-1.4-0.9-2.4-2.2-3.1-3.6c-0.8-1.6-1.1-3.4-1.1-5.2
	c0-1.8,0.4-3.6,1.1-5.2c0.7-1.5,1.8-2.7,3.1-3.6c1.3-0.9,2.9-1.3,4.5-1.3c1.6,0,3.2,0.4,4.5,1.3c1.3,0.9,2.4,2.2,3.1,3.6
	c0.8,1.6,1.2,3.3,1.1,5.1C240.5,82,240.1,83.8,239.4,85.4z"/>
<path d="M262.3,67.5c-1.8,0-3.5,0.5-5,1.4c-1.5,0.8-2.8,2-3.7,3.4v-2.6c0-0.4-0.1-0.7-0.4-1c-0.3-0.3-0.6-0.4-1-0.4
	c-0.4,0-0.7,0.1-1,0.4c-0.3,0.3-0.4,0.6-0.4,1v21.5c0,0.4,0.1,0.7,0.4,1c0.3,0.3,0.6,0.4,1,0.4c0.4,0,0.7-0.1,1-0.4
	c0.3-0.3,0.4-0.6,0.4-1v-14c0-1.3,0.4-2.5,1.1-3.5c0.8-1.1,1.8-2,3-2.6c1.2-0.6,2.5-1,3.9-1c1.8-0.2,3.6,0.6,4.8,1.9
	c1.1,1.5,1.6,3.2,1.6,5.1v14c0,0.4,0.1,0.7,0.4,1c0.3,0.3,0.6,0.4,1,0.4c0.4,0,0.7-0.1,1-0.4c0.3-0.3,0.4-0.6,0.4-1v-14
	c0.1-2.5-0.6-4.9-2.1-6.9C267.4,68.4,265.2,67.5,262.3,67.5z"/>
<path d="M280.6,60.4c-0.5,0-1.1,0.1-1.5,0.4c-0.4,0.3-0.6,0.8-0.6,1.3v0.5c0,0.5,0.2,1,0.5,1.3c0.4,0.3,1,0.5,1.5,0.5
	c0.5,0,1.1-0.1,1.5-0.5c0.4-0.3,0.5-0.8,0.5-1.3v-0.5C282.5,61,281.8,60.4,280.6,60.4z"/>
<path d="M280.5,68.2c-0.4,0-0.7,0.1-1,0.4c-0.3,0.3-0.4,0.6-0.4,1v24.8c0.1,1.2-0.4,2.4-1.2,3.3c-0.8,0.8-1.9,1.4-3,1.6
	c-0.3,0-0.7,0.2-0.9,0.5c-0.2,0.2-0.3,0.6-0.3,0.9v0.2c0,0.4,0.1,0.7,0.4,1c0.3,0.3,0.6,0.4,1,0.4c1.1,0,2.3-0.3,3.2-0.9
	c1.1-0.6,2-1.5,2.6-2.5c0.7-1.2,1-2.5,1-3.9V69.7c0-0.4-0.1-0.7-0.4-1C281.3,68.4,280.9,68.2,280.5,68.2z"/>
<path d="M309.9,68.1c-0.4,0-0.7,0.2-1,0.4c-0.3,0.3-0.4,0.7-0.4,1.1v3c-0.8-1.5-2.1-2.8-3.6-3.6c-1.6-0.9-3.4-1.4-5.3-1.4
	c-2,0-4,0.5-5.7,1.6c-1.7,1.1-3.1,2.7-4,4.5c-1,2-1.5,4.3-1.5,6.6c0,2.3,0.5,4.5,1.5,6.6c0.9,1.9,2.3,3.5,4,4.6
	c1.7,1.1,3.7,1.7,5.8,1.7c1.8,0,3.7-0.5,5.2-1.5c1.5-0.9,2.7-2.1,3.6-3.6v3.2c0,0.4,0.1,0.7,0.4,1c0.3,0.3,0.6,0.4,1,0.4
	c0.4,0,0.7-0.1,1-0.4c0.3-0.3,0.4-0.6,0.4-1V69.6c0-0.4-0.1-0.8-0.4-1.1C310.6,68.3,310.3,68.1,309.9,68.1z M307.6,85.4
	c-0.7,1.5-1.8,2.7-3.1,3.6c-1.3,0.9-2.9,1.3-4.5,1.3c-1.6,0-3.2-0.4-4.5-1.3c-1.4-0.9-2.4-2.2-3.1-3.6c-0.8-1.6-1.1-3.4-1.1-5.2
	c0-1.8,0.4-3.6,1.1-5.2c0.7-1.5,1.8-2.7,3.1-3.6c1.3-0.9,2.9-1.3,4.5-1.3c1.6,0,3.2,0.4,4.5,1.3c1.3,0.9,2.4,2.2,3.1,3.6
	c0.8,1.6,1.1,3.3,1.1,5.1C308.7,82,308.3,83.8,307.6,85.4z"/>
<path d="M336.6,67.7c-0.4,0-0.7,0.1-1,0.4c-0.3,0.3-0.4,0.6-0.4,1v14.3c0,1.2-0.4,2.4-1.1,3.4c-0.7,1.1-1.7,2-2.9,2.6
	c-1.2,0.6-2.4,1-3.8,1c-1.8,0.2-3.5-0.5-4.7-1.8c-1.1-1.5-1.6-3.4-1.5-5.2V69.1c0-0.4-0.1-0.7-0.4-1c-0.3-0.3-0.6-0.4-1-0.4
	c-0.4,0-0.7,0.1-1,0.4c-0.3,0.3-0.4,0.6-0.4,1v14.7c-0.1,2.4,0.6,4.9,2.2,6.8c1.6,1.7,4,2.7,6.3,2.5c1.7,0,3.4-0.4,4.9-1.2
	c1.4-0.7,2.6-1.9,3.4-3.2v1.7c0.1,2.5-0.7,4.9-2.3,6.8c-1.6,1.7-3.9,2.6-6.3,2.5c-2.1-0.1-4.1-0.6-5.9-1.7c-0.2-0.1-0.4-0.1-0.6-0.1
	c-0.3,0-0.5,0.1-0.7,0.2c-0.2,0.2-0.4,0.4-0.5,0.7c0,0.2-0.1,0.3-0.1,0.5c0.1,0.6,0.4,1.1,1,1.4c0.9,0.5,1.9,0.9,2.9,1.1
	c1.2,0.3,2.5,0.4,3.8,0.4c2.1,0,4.1-0.4,6-1.4c1.8-0.9,3.2-2.3,4.1-4.1c1-2,1.5-4.2,1.5-6.5V69.1c0-0.4-0.1-0.7-0.4-1
	C337.4,67.8,337,67.6,336.6,67.7z"/>
<path d="M363,69.5c-1.7-1.1-3.7-1.6-5.8-1.6c-1.8,0-3.6,0.4-5.2,1.3c-1.5,0.8-2.8,2-3.6,3.6v-3.3c0-0.4-0.2-0.7-0.4-1
	c-0.3-0.3-0.6-0.4-1-0.4c-0.4,0-0.7,0.2-1,0.4c-0.3,0.3-0.4,0.6-0.4,1v31.3c0,0.4,0.1,0.7,0.4,1c0.3,0.3,0.6,0.4,1,0.4
	c0.4,0,0.7-0.1,1-0.4c0.3-0.3,0.4-0.6,0.4-1V88.1c0.9,1.5,2.2,2.7,3.7,3.5c1.6,0.9,3.3,1.3,5.1,1.3c2,0,4-0.5,5.7-1.6
	c1.7-1.1,3.1-2.7,4-4.5c1-2,1.5-4.2,1.5-6.4c0-2.2-0.5-4.4-1.5-6.4C366.1,72.1,364.7,70.6,363,69.5z M364.6,85.5
	c-0.7,1.4-1.8,2.7-3.1,3.5c-1.3,0.9-2.9,1.3-4.5,1.3c-1.6,0-3.2-0.4-4.6-1.3c-1.4-0.9-2.4-2.1-3.1-3.5c-0.8-1.6-1.1-3.3-1.1-5.1
	c0-1.7,0.3-3.5,1.1-5.1c0.7-1.4,1.8-2.6,3.1-3.5c1.4-0.8,3-1.3,4.6-1.2c1.6,0,3.1,0.4,4.5,1.3c1.3,0.9,2.4,2.1,3.1,3.5
	c0.8,1.6,1.2,3.3,1.1,5C365.8,82.2,365.4,83.9,364.6,85.5L364.6,85.5z"/>
<path d="M393.7,67.9c-0.3-0.2-0.6-0.3-0.9-0.3c-0.3,0-0.6,0-0.8,0.2c-0.2,0.2-0.4,0.4-0.6,0.7L383.2,88L375,68.5
	c-0.1-0.3-0.3-0.5-0.5-0.7c-0.2-0.2-0.5-0.3-0.8-0.3c-0.4,0-0.8,0.1-1.1,0.4c-0.3,0.3-0.4,0.6-0.4,1c0,0.1,0,0.3,0.1,0.4
	c0,0.1,0.1,0.2,0.1,0.3l9.5,22.1c0.1,0.3,0.3,0.5,0.6,0.7c0.3,0.2,0.6,0.2,0.9,0.2c0.3,0,0.5-0.1,0.7-0.3c0.2-0.2,0.4-0.4,0.5-0.6
	l9.4-22.1c0.1-0.3,0.2-0.5,0.2-0.8C394.1,68.5,394,68.1,393.7,67.9z"/>
</svg>
