<svg width="16" height="16" viewBox="0 0 16 16" fill="none" xmlns="http://www.w3.org/2000/svg">
<g clip-path="url(#clip0_1292_3167)">
<path fill-rule="evenodd" clip-rule="evenodd" d="M3.37305 11.2051H13.706L15.04 3.20508H4.04005L3.77305 1.20508H0.373047V3.20508H2.04005L3.37305 11.2051ZM4.70605 14.5391C5.05971 14.5392 5.39895 14.3988 5.64912 14.1489C5.89929 13.8989 6.03991 13.5597 6.04005 13.2061C6.04018 12.8524 5.89981 12.5132 5.64983 12.263C5.39984 12.0128 5.06071 11.8722 4.70705 11.8721C4.35338 11.8721 4.0142 12.0126 3.76412 12.2627C3.51404 12.5127 3.37355 12.8519 3.37355 13.2056C3.37355 13.5592 3.51404 13.8984 3.76412 14.1485C4.0142 14.3986 4.35238 14.5391 4.70605 14.5391ZM14.04 13.2051C14.04 13.5587 13.8996 13.8979 13.6495 14.148C13.3994 14.3981 13.0602 14.5386 12.7065 14.5386C12.3529 14.5386 12.0137 14.3981 11.7636 14.148C11.5135 13.8979 11.373 13.5587 11.373 13.2051C11.373 12.8514 11.5135 12.5122 11.7636 12.2622C12.0137 12.0121 12.3529 11.8716 12.7065 11.8716C13.0602 11.8716 13.3994 12.0121 13.6495 12.2622C13.8996 12.5122 14.04 12.8514 14.04 13.2051Z" fill="black"/>
</g>
<defs>
<clipPath id="clip0_1292_3167">
<rect width="16" height="16" fill="white"/>
</clipPath>
</defs>
</svg>
