<?xml version="1.0" encoding="utf-8"?>
<!-- Generator: Adobe Illustrator 24.1.1, SVG Export Plug-In . SVG Version: 6.00 Build 0)  -->
<svg version="1.1" id="Layer_1" xmlns="http://www.w3.org/2000/svg" xmlns:xlink="http://www.w3.org/1999/xlink" x="0px" y="0px"
	 viewBox="0 0 358.8 285" style="enable-background:new 0 0 358.8 285;" xml:space="preserve">
<style type="text/css">
	.st0{fill:#FFFFFF;}
	.st1{fill:#F9A31A;}
</style>
<path class="st0" d="M117.7,127.5c-0.1,0-0.1,0-0.2,0c-0.5-0.1-0.9-0.6-0.7-1.2l21-98.6c0.1-0.5,0.6-0.9,1.2-0.7
	c0.5,0.1,0.9,0.6,0.7,1.2l-21,98.6C118.6,127.1,118.2,127.5,117.7,127.5z"/>
<g>
	<g>
		<path class="st0" d="M162.4,52.2c-2.4,0-3,0-5.4,0.1l-0.1-0.1c0-2.2,0-4.5,0.1-6.7c0-1.4,0-2.8,0-4.3c0-2.2,0-3.8-0.1-6.5l0.1-0.1
			c2.4,0,3,0,5.4-0.1l0.1,0.1c-0.1,2.5-0.1,4-0.1,6.9c0,3.5,0.1,7.1,0.2,10.6L162.4,52.2z"/>
		<path class="st0" d="M171.6,44.9v3.4c1.9,0,3.8-0.1,6.3-0.1l0.1,0.1l-0.2,3.7l-0.2,0.1c-3.4,0-4,0-4.7,0c-2.7,0-4.2,0.1-6.5,0.1
			l-0.1-0.2c0.1-2.9,0.1-4.4,0.1-7.8c0-6,0-7-0.2-9.5l0.1-0.1h11.2l0.1,0.1l-0.2,3.4l-0.1,0.1h-5.8v3.2l5.5-0.1l0.1,0.2l-0.2,3.3
			l-0.2,0.1H171.6z"/>
		<path class="st0" d="M186.1,44.9v3.4c1.9,0,3.8-0.1,6.3-0.1l0.1,0.1l-0.2,3.7l-0.2,0.1c-3.4,0-4,0-4.7,0c-2.7,0-4.2,0.1-6.5,0.1
			l-0.1-0.2c0.1-2.9,0.1-4.4,0.1-7.8c0-6,0-7-0.2-9.5l0.1-0.1H192l0.1,0.1l-0.2,3.4l-0.1,0.1h-5.8v3.2l5.5-0.1l0.1,0.2l-0.2,3.3
			l-0.2,0.1H186.1z"/>
		<path class="st0" d="M200.7,44.9v3.4c1.9,0,3.8-0.1,6.3-0.1l0.2,0.1l-0.2,3.7l-0.2,0.1c-3.4,0-4,0-4.7,0c-2.7,0-4.2,0.1-6.5,0.1
			l-0.1-0.2c0.1-2.9,0.1-4.4,0.1-7.8c0-6,0-7-0.2-9.5l0.1-0.1h11.2l0.1,0.1l-0.2,3.4l-0.1,0.1h-5.8v3.2l5.5-0.1l0.1,0.2l-0.2,3.3
			l-0.2,0.1H200.7z"/>
	</g>
	<g>
		<path class="st0" d="M163.2,66.5c-1.1-0.6-2.2-0.8-3.3-0.8c-1.3,0-2.6,0.3-3.7,1s-2,1.6-2.6,2.7c-0.6,1.1-1,2.4-1,3.8
			c0,1.4,0.3,2.7,1,3.8c0.6,1.2,1.5,2.1,2.6,2.7c1.1,0.7,2.4,1,3.7,1c1.1,0,2.2-0.3,3.3-0.8c1.1-0.5,2.1-1.2,3-2.1l3.2,3.5
			c-1.3,1.3-2.8,2.4-4.5,3.2c-1.7,0.8-3.5,1.2-5.2,1.2c-2.4,0-4.5-0.5-6.4-1.6c-1.9-1.1-3.4-2.6-4.5-4.5s-1.6-4-1.6-6.3
			c0-2.3,0.6-4.4,1.7-6.3c1.1-1.9,2.7-3.3,4.6-4.4s4.1-1.6,6.5-1.6c1.7,0,3.4,0.4,5.1,1.1c1.7,0.7,3.1,1.7,4.3,2.9l-3.2,3.9
			C165.3,67.8,164.4,67,163.2,66.5z"/>
		<path class="st0" d="M190.2,62.5c2,1.1,3.5,2.6,4.6,4.4c1.1,1.9,1.7,4,1.7,6.3c0,2.3-0.6,4.4-1.7,6.3c-1.1,1.9-2.7,3.4-4.6,4.5
			c-2,1.1-4.1,1.6-6.5,1.6c-2.4,0-4.6-0.5-6.5-1.6c-2-1.1-3.5-2.6-4.6-4.5s-1.7-4-1.7-6.3c0-2.3,0.6-4.4,1.7-6.3
			c1.1-1.9,2.7-3.4,4.6-4.4c2-1.1,4.1-1.6,6.6-1.6C186,60.9,188.2,61.4,190.2,62.5z M180,66.6c-1.1,0.7-2,1.6-2.7,2.8
			c-0.7,1.2-1,2.4-1,3.8c0,1.4,0.3,2.7,1,3.9c0.7,1.2,1.6,2.1,2.7,2.8c1.1,0.7,2.4,1,3.7,1c1.3,0,2.5-0.3,3.6-1
			c1.1-0.7,2-1.6,2.6-2.8c0.7-1.2,1-2.5,1-3.9c0-1.4-0.3-2.7-1-3.8c-0.7-1.2-1.5-2.1-2.6-2.8c-1.1-0.7-2.3-1-3.6-1
			C182.4,65.6,181.1,66,180,66.6z"/>
		<path class="st0" d="M200.4,61.3h6l7.5,14.7l7.4-14.7h6v24h-4.9V69.1l-6.8,13.8h-3.5l-6.9-13.8v16.2h-4.9V61.3z"/>
		<path class="st0" d="M250.2,63.5c1.7,1.5,2.5,3.5,2.5,6.1c0,2.8-0.8,5-2.5,6.5c-1.7,1.5-4,2.3-7.1,2.3h-4.8v6.9h-5.4v-24h10.2
			C246.2,61.3,248.6,62,250.2,63.5z M246.4,72.8c0.8-0.7,1.2-1.7,1.2-3.1c0-1.3-0.4-2.3-1.2-3c-0.8-0.7-2-1-3.5-1h-4.5v8.1h4.5
			C244.4,73.9,245.6,73.5,246.4,72.8z"/>
		<path class="st0" d="M263,79.4c1,1,2.3,1.5,3.9,1.5c1.6,0,2.8-0.5,3.8-1.5c0.9-1,1.4-2.3,1.4-4.1V61.3h5.4v14.1
			c0,2.1-0.4,3.9-1.3,5.5c-0.9,1.5-2.1,2.7-3.7,3.6c-1.6,0.8-3.5,1.3-5.7,1.3c-2.2,0-4.1-0.4-5.7-1.3c-1.6-0.8-2.9-2-3.7-3.6
			c-0.9-1.5-1.3-3.4-1.3-5.5V61.3h5.4v14.1C261.5,77.1,262,78.4,263,79.4z"/>
		<path class="st0" d="M280.3,61.3h20v4.6H293v19.4h-5.4V65.9h-7.3V61.3z"/>
		<path class="st0" d="M303.6,61.3h18.3v4.5H309V71h11.5v4.5H309v5.3h13.2v4.5h-18.6V61.3z"/>
		<path class="st0" d="M341.6,85.3l-3.8-6.9h-0.5h-5v6.9h-5.4v-24h10.4c3.1,0,5.6,0.7,7.3,2.2c1.7,1.5,2.6,3.5,2.6,6.1
			c0,1.9-0.4,3.4-1.1,4.7c-0.8,1.3-1.9,2.3-3.3,3l5.1,7.9H341.6z M332.2,73.9h5c1.5,0,2.7-0.3,3.5-1c0.8-0.7,1.2-1.7,1.2-3.1
			c0-1.3-0.4-2.3-1.2-3c-0.8-0.7-2-1-3.5-1h-5V73.9z"/>
		<path class="st0" d="M152.3,100.4c-1.4-0.4-2.6-0.7-3.5-0.7c-0.9,0-1.7,0.2-2.2,0.5c-0.5,0.3-0.8,0.8-0.8,1.5
			c0,0.8,0.4,1.5,1.2,1.9c0.8,0.4,2,0.9,3.6,1.4c1.6,0.5,3,1,4.1,1.4c1.1,0.5,2,1.2,2.7,2.2s1.1,2.2,1.1,3.8c0,1.5-0.4,2.8-1.2,4
			c-0.8,1.1-1.9,1.9-3.3,2.5c-1.4,0.6-3,0.9-4.8,0.9c-1.9,0-3.8-0.3-5.7-1c-1.9-0.7-3.5-1.6-4.9-2.8l2.2-4.4c1.2,1.1,2.6,2,4.2,2.6
			c1.6,0.7,3,1,4.3,1c1.1,0,2-0.2,2.6-0.6c0.6-0.4,0.9-1,0.9-1.8c0-0.6-0.2-1.1-0.6-1.5c-0.4-0.4-1-0.7-1.6-1
			c-0.7-0.3-1.5-0.5-2.7-0.9c-1.6-0.5-3-0.9-4-1.4c-1-0.5-1.9-1.2-2.7-2.1c-0.8-0.9-1.1-2.2-1.1-3.7c0-1.4,0.4-2.7,1.2-3.8
			c0.8-1.1,1.9-1.9,3.3-2.5c1.4-0.6,3-0.9,4.9-0.9c1.6,0,3.3,0.2,4.9,0.7c1.6,0.5,3,1.1,4.2,1.9l-2.1,4.5
			C155,101.5,153.7,100.9,152.3,100.4z"/>
		<path class="st0" d="M180.3,96.8c2,1.1,3.5,2.6,4.6,4.4c1.1,1.9,1.7,4,1.7,6.3c0,2.3-0.6,4.4-1.7,6.3c-1.1,1.9-2.7,3.4-4.6,4.5
			c-2,1.1-4.1,1.6-6.5,1.6c-2.4,0-4.6-0.5-6.5-1.6c-2-1.1-3.5-2.6-4.6-4.5c-1.1-1.9-1.7-4-1.7-6.3c0-2.3,0.6-4.4,1.7-6.3
			c1.1-1.9,2.7-3.4,4.6-4.4c2-1.1,4.1-1.6,6.6-1.6C176.1,95.2,178.3,95.7,180.3,96.8z M170.1,100.9c-1.1,0.7-2,1.6-2.7,2.8
			c-0.7,1.2-1,2.4-1,3.8c0,1.4,0.3,2.7,1,3.9c0.7,1.2,1.6,2.1,2.7,2.8c1.1,0.7,2.4,1,3.7,1c1.3,0,2.5-0.3,3.6-1s2-1.6,2.6-2.8
			c0.7-1.2,1-2.5,1-3.9c0-1.4-0.3-2.7-1-3.8c-0.7-1.2-1.5-2.1-2.6-2.8s-2.3-1-3.6-1C172.5,99.9,171.3,100.2,170.1,100.9z"/>
		<path class="st0" d="M204.4,100.7c-1.1-0.6-2.2-0.8-3.3-0.8c-1.3,0-2.6,0.3-3.7,1c-1.1,0.7-2,1.6-2.6,2.7s-1,2.4-1,3.8
			c0,1.4,0.3,2.7,1,3.8s1.5,2.1,2.6,2.7c1.1,0.7,2.4,1,3.7,1c1.1,0,2.2-0.3,3.3-0.8c1.1-0.5,2.1-1.2,3-2.1l3.2,3.5
			c-1.3,1.3-2.8,2.4-4.5,3.2c-1.7,0.8-3.5,1.2-5.2,1.2c-2.4,0-4.5-0.5-6.4-1.6c-1.9-1.1-3.4-2.6-4.5-4.5c-1.1-1.9-1.6-4-1.6-6.3
			c0-2.3,0.6-4.4,1.7-6.3c1.1-1.9,2.7-3.3,4.6-4.4s4.1-1.6,6.5-1.6c1.7,0,3.4,0.4,5.1,1.1c1.7,0.7,3.1,1.7,4.3,2.9l-3.2,3.9
			C206.5,102.1,205.5,101.3,204.4,100.7z"/>
		<path class="st0" d="M214,95.5h5.4v24H214V95.5z"/>
		<path class="st0" d="M225.1,95.5h18.3v4.5h-12.8v5.2h11.5v4.5h-11.5v5.3h13.2v4.5h-18.6V95.5z"/>
		<path class="st0" d="M246,95.5h20v4.6h-7.3v19.4h-5.4v-19.4H246V95.5z"/>
		<path class="st0" d="M289.5,95.5l-8.7,16.2v7.7h-5.4v-7.6l-8.9-16.4h5.4l6.1,10.8l6-10.8H289.5z"/>
	</g>
</g>
<g>
	<g>
		<g>
			<g>
				<path class="st1" d="M66.2,32.7c-26,0-47,19.3-47,43c0,23.8,21.1,43,47,43c26,0,47-19.3,47-43C113.3,51.9,92.2,32.7,66.2,32.7z
					 M73.4,96.4c0,5.6,0.4,5.8,4.3,6.1l4.1,0.2l0.2,0.1c0.9,0.5,1.1,1.6,1,2.5c-0.1,1-0.7,1.7-1.4,1.9l-0.1,0l-0.1,0
					c-3.2-0.1-8.7-0.2-14.9-0.2c-6.4,0-12,0.1-15.2,0.2l-0.1,0l-0.1,0c-0.8-0.2-1.3-0.9-1.4-1.9c-0.1-0.9,0.2-2,1-2.5l0.2-0.1
					l4.1-0.2c3.9-0.3,4.3-0.5,4.3-6.1C43.7,94.6,34,87.1,34,76.3c0-10.9,8.3-17.9,23.1-19.9c0.1,1.4,0.1,3.3,0.1,5.5
					c-0.9,0.2-1.8,0.5-2.5,0.8l-0.4,0.1c-3.1,1.2-5.2,3.3-6.1,6.3l0,0.1c-0.5,1.3-0.8,3.7-0.8,6.9l0,0.1l0,0.1
					c0,3.1,0.3,5.6,0.8,6.9l0,0.1c0.7,2.3,2.1,4.1,4.2,5.3c2.9,1.9,8.5,2.9,14,2.9c6,0,12.1-1.2,14.8-3.5c1.6-1.2,2.7-2.8,3.3-4.7
					l0-0.1c0.5-1.3,0.8-3.7,0.8-6.9l0-0.1l0-0.1c0-3.1-0.3-5.6-0.8-6.9l0-0.1c-0.9-3-3-5.1-6.1-6.3l-0.4-0.1c-1.4-0.5-2.9-1-4.6-1.3
					v27.5c-2,0.4-4.3,0.6-7,0.6c-2.8,0-5.2-0.3-7.3-0.7v-6.4c0.1-5.9,0.3-15.3,0.1-22l0,0c0-0.2-0.1-4.7-0.1-4.8
					c0-4.4-0.4-4.8-3.7-5.2l-4.6-0.5c-0.7-0.3-1.2-1.1-1.2-2.1c-0.1-1,0.3-1.8,0.9-2.2l0.2-0.1l0.2,0c3.4-0.4,7.6-1.1,12-2.1
					c2.3-0.5,4.4-1.2,6-1.7c1.5-0.5,2.2-0.7,2.6-0.7c0.9,0,1.9,0.5,2.2,1.5l0.1,0.2l0,0.2c-0.2,1.6-0.3,5-0.3,9v4.3
					c16.1,1.6,25.2,8.7,25.2,20.1C98.7,87.1,89,94.6,73.4,96.4z"/>
			</g>
		</g>
	</g>
	<g>
		<path class="st1" d="M93.5,116h4.6v0.9h-1.8v5.1h-1v-5.1h-1.8V116z M99.1,116h1.2l2,4.1l2-4.1h1.2v6h-0.9v-4.6l-1.9,4h-0.7l-1.9-4
			v4.6h-0.9V116z"/>
	</g>
</g>
</svg>
