<svg id="Layer_1" data-name="Layer 1" xmlns="http://www.w3.org/2000/svg" viewBox="0 0 1920 1080"><defs><style>.cls-1{fill:#80cc09;}.cls-2{opacity:0.98;}.cls-3{fill:#eaeaea;}.cls-4{opacity:0.46;}.cls-5{fill:#878787;}</style></defs><path class="cls-1" d="M280.6,506.45q29.46,0,44.38,8.18t14.93,26.18q0,18.81-14.93,26.58t-44.38,7.78q-29,0-44.17-7.78T221.3,540.81q0-18.81,15.13-26.59T280.6,506.45Zm47.45,83.85V711q0,12.69,3.68,18.61t15.95,5.93V813.2H221.3V735.49q13.08,0,17-5.93T242.16,711V692.14q0-13.9-3.89-19.22t-17-5.32V590.3Z"/><g class="cls-2"><path class="cls-3" d="M395.54,488.2H219.22V429.43q8.1,0,12.6-.45c3-.3,5.14-1,6.44-2.1a7.8,7.8,0,0,0,2.4-5.24,86.11,86.11,0,0,0,.45-9.9V375.46a86.11,86.11,0,0,0-.45-9.9,7.89,7.89,0,0,0-2.4-5.24c-1.3-1.1-3.44-1.8-6.44-2.1s-7.2-.45-12.6-.45V299.3H394.34v84.55h-12.6a41.34,41.34,0,0,0-7.64-12.59q-4.65-5.1-13.2-7.95t-22.48-4q-13.95-1.2-35.84-1.5v27.28q16.2-1.18,24.74-3.59a80,80,0,0,0,15.44-6h10.5v33.28h-10.5a59.79,59.79,0,0,0-14.54-6q-8.55-2.4-25.64-3.6v30q22.79-.6,37.18-2.25T362.7,422q8.55-3.3,12.9-8.4A45.16,45.16,0,0,0,382.94,401h12.6Z"/><path class="cls-3" d="M505.88,395.85q3.9,2.1,7.65,4.35c2.5,1.5,4.84,2.84,7.05,4a42.14,42.14,0,0,0,10-8.39q3.45-4.2,3.45-8.1a15.58,15.58,0,0,0-2.55-8.69q-2.55-3.9-10-5.1V325.08h63.86v56.68q-3,1.2-9.14,4.19t-13.49,6.9q-7.37,3.9-15.3,8.55t-14.84,9.14q20.68,10.2,34.33,14.39t19.34,6.3v57H488.19v-48.9a16.09,16.09,0,0,0,9.45-3.3,9.55,9.55,0,0,0,3.75-7.8,9.82,9.82,0,0,0-1.95-6.14,26.58,26.58,0,0,0-5.85-5.25q-3.9-2.7-7.65-4.95t-7.64-4.35a67.5,67.5,0,0,0-12.3,9.3q-4.5,4.5-4.5,9a14.25,14.25,0,0,0,2.7,8.55q2.7,3.75,10.5,4.95V488.2H410.83v-57q3.3-1.2,9.74-4.35t14.25-7.34q7.79-4.2,16.19-9t15.59-9.29q-19.78-9.9-34.63-14.1t-19.94-6V324.78h95.65V374c-3.8.2-6.59,1.2-8.39,3a10.14,10.14,0,0,0-2.7,7.49,9.12,9.12,0,0,0,2.25,6A25.24,25.24,0,0,0,505.88,395.85Z"/><path class="cls-3" d="M695.69,487.6v39h-96V464.51q9.59,0,12.44-4.34T615,446.52V398.85c0-6.6-.9-11.14-2.7-13.65s-6-3.74-12.59-3.74V324.78H663.9v56.08h9q3-31.19,15.29-45.13t38.38-13.94q27.88,0,41.08,18.74t13.2,59.82q0,46.17-11.7,68.51T732.87,491.2q-20.08,0-32.38-9.89t-17.4-31.79H674.4v20.09q0,9.3,4.05,13.65T695.69,487.6Zm-.6-49.17q14.68,0,19.94-6.45t5.25-24.44q0-17.39-6.6-22.34T696,380.26q-11.1,0-16.19,5.09t-5.1,16.2l-.3,34.18a27.75,27.75,0,0,0,9.44,2.25Q689.39,438.43,695.09,438.43Z"/><path class="cls-3" d="M966.75,425.53q0,29.4-17.39,47.53T890.89,491.2q-46.18,0-70.47-20.39t-24.28-65.67q0-43.77,22.64-63.56t66.71-19.79q23.38,0,39.28,5.09T950,341.12a51.77,51.77,0,0,1,13.2,21.44,88.09,88.09,0,0,1,3.89,26.69v12q0,6.28-.3,12.29H858.51q2.09,15.9,11.39,21.44t24.59,5.55q17.09,0,23.09-4.2t5.69-10.8Zm-81.86-56.07q-12,0-18.89,6.6t-8.09,22.19h51.87q-.3-18-7-23.39T884.89,369.46Z"/><path class="cls-3" d="M1105.88,322.08v66a219.36,219.36,0,0,0-25.63,1.2q-9.75,1.2-15,4.35a14.85,14.85,0,0,0-6.89,8.25,41.55,41.55,0,0,0-1.65,12.59v4.8a9.58,9.58,0,0,0,5.4,9.14q5.39,2.86,25.48,2.85v57H982.34v-57q9.6,0,12.45-4.35t2.85-13.64V399.45q0-10.2-2.85-14.1t-12.45-3.89V324.78h64.17v65.37h8.1q1.2-21.58,4.2-35.08t8.84-20.84a27.77,27.77,0,0,1,15.14-9.75Q1092.09,322.09,1105.88,322.08Z"/><path class="cls-3" d="M1188,289.1v35.68h42.58v56.68H1188v34.18q0,9.9,3.3,14.24t10.79,4.35q8.4,0,11.85-8t3.45-29.23h12q.3,4.5.3,9.29v12q0,39.29-11.69,56.07t-37.79,16.79a98.59,98.59,0,0,1-20.84-2.1,39.46,39.46,0,0,1-16.79-7.79q-7-5.7-11.09-16.2t-4-27v-56.6H1114V335.58a56.1,56.1,0,0,0,21.59-4.2,75,75,0,0,0,18.44-10.8,73.18,73.18,0,0,0,14.09-14.84,55.21,55.21,0,0,0,8.25-16.64Z"/><path class="cls-3" d="M1291.19,263.31q21.58,0,32.53,6t11,19.19q0,13.8-11,19.49t-32.53,5.7q-21.3,0-32.39-5.7t-11.09-19.49q0-13.78,11.09-19.49T1291.19,263.31ZM1326,324.78v88.46q0,9.3,2.7,13.64t11.69,4.35v57h-92.65v-57q9.59,0,12.44-4.35t2.85-13.64V399.45q0-10.2-2.85-14.1t-12.44-3.89V324.78Z"/><path class="cls-3" d="M1519.37,446.52a57.32,57.32,0,0,1-2.55,17,36.94,36.94,0,0,1-8.24,14.39,39.23,39.23,0,0,1-15.15,9.74q-9.43,3.6-22.93,3.6a124.42,124.42,0,0,1-24.44-2.1,36.66,36.66,0,0,1-17.24-8.09q-6.91-6-11-16.5t-5.25-27.28h-10.19v51H1353.8V424.63h61.47a14.5,14.5,0,0,0,8.1,9.3q6,2.7,15.59,2.7,7.5,0,11.4-2.7c2.59-1.8,3.89-4.69,3.89-8.7q0-5.69-3.14-8.84t-13.35-3.15q-9,0-18.44.3t-19.34.3q-26.38,0-36-13.64t-9.6-32.24a54.19,54.19,0,0,1,2.7-16.94A40.48,40.48,0,0,1,1380,326q8.84-3.88,21.14-3.9a89.36,89.36,0,0,1,21.74,2.4,34.42,34.42,0,0,1,15.89,8.7q6.45,6.3,10.35,17.24t5.69,27.74H1465V324.78h49v66.27h-61.5q-2.1-8.7-7.64-11.24a31.86,31.86,0,0,0-13.35-2.55q-9.88,0-13.79,3.3a10.49,10.49,0,0,0-3.9,8.39,9.55,9.55,0,0,0,4.35,8.55q4.35,2.85,16.34,2.85,1.2,0,5.4-.15t9.6-.3l11.09-.3q5.7-.15,9.6-.15,15.58,0,25.18,3.45t15,9.59a32,32,0,0,1,7.19,14.84A95.1,95.1,0,0,1,1519.37,446.52Z"/><path class="cls-3" d="M1703.18,425.53q0,29.4-17.39,47.53t-58.48,18.14q-46.17,0-70.46-20.39t-24.29-65.67q0-43.77,22.64-63.56t66.72-19.79q23.38,0,39.28,5.09t25.19,14.24a51.65,51.65,0,0,1,13.19,21.44,88.1,88.1,0,0,1,3.9,26.69v12c0,4.19-.11,8.29-.3,12.29H1594.93q2.1,15.9,11.39,21.44t24.59,5.55q17.1,0,23.09-4.2t5.7-10.8Zm-81.86-56.07q-12,0-18.89,6.6t-8.1,22.19h51.88q-.32-18-7-23.39t-17.89-5.4Z"/><path class="cls-3" d="M489.6,735.49V813.2H366.08V735.49q13.08,0,17-5.93T386.94,711V698.68q0-17.58-4.09-24.33t-16.77-6.75V590.3h87.53v76.89h11.86q2-24.13,7.15-39.88t14.11-24.74a49.54,49.54,0,0,1,22.5-12.68q13.5-3.67,32.31-3.68,38,0,51.74,18.2T607,663.1V711q0,12.69,3.07,18.61t13.29,5.93V813.2H505.14V735.49q11.45,0,15.13-5.93T524,711V698.27q0-18-5.93-23.92t-20.65-5.93q-12.27,0-21.07,5.72t-8.79,21.27V711q0,12.69,5.32,18.61T489.6,735.49Z"/></g><g class="cls-4"><path class="cls-5" d="M686.24,627.77a11.06,11.06,0,0,1-5-1.06,7.6,7.6,0,0,1-3.25-3.05,9.58,9.58,0,0,1-1.15-4.86V602.54h3.85V618.9a5.37,5.37,0,0,0,1.45,4,6.77,6.77,0,0,0,8.27,0,5.34,5.34,0,0,0,1.45-4V602.54h3.82V618.8a9.77,9.77,0,0,1-1.13,4.86,7.48,7.48,0,0,1-3.25,3.05A11,11,0,0,1,686.24,627.77Z"/><path class="cls-5" d="M700.62,627.28V602.54h3.82v24.74Z"/><path class="cls-5" d="M706.73,634.35l10.39-31.81h3.64l-10.39,31.81Z"/><path class="cls-5" d="M732.25,627.77a11.06,11.06,0,0,1-5-1.06,7.6,7.6,0,0,1-3.25-3.05,9.58,9.58,0,0,1-1.15-4.86V602.54h3.85V618.9a5.37,5.37,0,0,0,1.45,4,6.77,6.77,0,0,0,8.27,0,5.34,5.34,0,0,0,1.45-4V602.54h3.82V618.8a9.77,9.77,0,0,1-1.13,4.86,7.48,7.48,0,0,1-3.25,3.05A11,11,0,0,1,732.25,627.77Z"/><path class="cls-5" d="M745,627.28l7.6-12.48-7.49-12.26h4.38l5.59,9.54h.56l5.62-9.54h4.38l-7.49,12.26,7.6,12.48h-4.42l-5.69-9.76h-.56l-5.69,9.76Z"/><path class="cls-5" d="M777.38,627.28v-3.39h3.32v-18h-3.32V602.5h9.89c3.3,0,5.82.84,7.58,2.51s2.63,4.19,2.63,7.56v4.63q0,5.06-2.63,7.55c-1.76,1.66-4.28,2.49-7.58,2.49Zm7.17-3.46h2.76a6.33,6.33,0,0,0,4.77-1.63,6.81,6.81,0,0,0,1.55-4.84v-4.88a6.72,6.72,0,0,0-1.55-4.84,6.41,6.41,0,0,0-4.77-1.59h-2.76Z"/><path class="cls-5" d="M809.89,627.77a9.24,9.24,0,0,1-4.63-1.11,7.9,7.9,0,0,1-3.1-3.15,9.65,9.65,0,0,1-1.11-4.71v-.43a9.82,9.82,0,0,1,1.1-4.75,7.9,7.9,0,0,1,3.05-3.15,9.13,9.13,0,0,1,4.55-1.11,8.54,8.54,0,0,1,4.39,1.11,7.85,7.85,0,0,1,3,3.1,9.78,9.78,0,0,1,1.06,4.63v1.37H804.8a5,5,0,0,0,1.54,3.66,5.21,5.21,0,0,0,3.66,1.36,4.51,4.51,0,0,0,3.09-.92,6.56,6.56,0,0,0,1.61-2.12l3,1.56a10.25,10.25,0,0,1-1.43,2.08,7.43,7.43,0,0,1-2.46,1.84A8.78,8.78,0,0,1,809.89,627.77Zm-5.09-11h9.64a4.25,4.25,0,0,0-1.41-3.09,4.83,4.83,0,0,0-3.32-1.11,4.94,4.94,0,0,0-3.34,1.11,4.83,4.83,0,0,0-1.57,3.1Z"/><path class="cls-5" d="M829.68,627.77a9.61,9.61,0,0,1-5.52-1.48,6.4,6.4,0,0,1-2.68-4.49l3.39-.81a5.45,5.45,0,0,0,1,2.3,3.73,3.73,0,0,0,1.68,1.2,6.72,6.72,0,0,0,2.18.35,4.47,4.47,0,0,0,2.66-.67,2,2,0,0,0,.94-1.73,1.65,1.65,0,0,0-.88-1.56,8.67,8.67,0,0,0-2.62-.81l-1.2-.21a15.78,15.78,0,0,1-3.22-.92,5.64,5.64,0,0,1-2.29-1.66,4.22,4.22,0,0,1-.85-2.72,4.49,4.49,0,0,1,1.84-3.84,8,8,0,0,1,4.87-1.36,8.18,8.18,0,0,1,4.83,1.33,6,6,0,0,1,2.45,3.58l-3.39,1a3.3,3.3,0,0,0-1.34-2.25,4.76,4.76,0,0,0-2.55-.65,4.32,4.32,0,0,0-2.33.55,1.73,1.73,0,0,0-.85,1.54,1.71,1.71,0,0,0,.83,1.55,6.62,6.62,0,0,0,2.25.74l1.23.21a19.21,19.21,0,0,1,3.43.89,5.59,5.59,0,0,1,2.46,1.62,4.25,4.25,0,0,1,.9,2.83,4.8,4.8,0,0,1-1.94,4.06A8.52,8.52,0,0,1,829.68,627.77Z"/><path class="cls-5" d="M842.93,607.49a2.49,2.49,0,0,1-1.79-.69,2.57,2.57,0,0,1,0-3.57,2.68,2.68,0,0,1,3.59,0,2.59,2.59,0,0,1,0,3.57A2.5,2.5,0,0,1,842.93,607.49Zm-1.84,19.79V609.86h3.64v17.42Z"/><path class="cls-5" d="M849.29,618.66v-.53a9.27,9.27,0,0,1,1.11-4.7,7.87,7.87,0,0,1,7-4.07,6.82,6.82,0,0,1,3.91,1,6.58,6.58,0,0,1,2,2h.57v-2.51h3.53v21a3.46,3.46,0,0,1-.93,2.54,3.43,3.43,0,0,1-2.57,1H852.15v-3.18h10.6a.94.94,0,0,0,1-.85,1.48,1.48,0,0,0,0-.21V624.6h-.57a6.84,6.84,0,0,1-1.09,1.31,5.22,5.22,0,0,1-1.86,1.09,8.28,8.28,0,0,1-2.88.42,8.08,8.08,0,0,1-4-1,7.66,7.66,0,0,1-3-3A9.49,9.49,0,0,1,849.29,618.66Zm9.08,5.54a5.37,5.37,0,0,0,3.91-1.5,5.54,5.54,0,0,0,1.53-4.15v-.32a5.55,5.55,0,0,0-1.52-4.19,5.94,5.94,0,0,0-7.79,0,5.52,5.52,0,0,0-1.54,4.19v.32a5.55,5.55,0,0,0,1.54,4.15,5.35,5.35,0,0,0,3.87,1.5Z"/><path class="cls-5" d="M872.75,627.28V609.86h3.57v2.61h.57a5.25,5.25,0,0,1,1.77-2,6.43,6.43,0,0,1,3.78-.92,7,7,0,0,1,3.51.89,6.37,6.37,0,0,1,2.42,2.49,7.89,7.89,0,0,1,.89,3.87v10.46h-3.64V617.1a4.45,4.45,0,0,0-1.13-3.34,4.32,4.32,0,0,0-3.11-1.08,4.69,4.69,0,0,0-3.63,1.49,6.16,6.16,0,0,0-1.36,4.31v8.8Z"/><path class="cls-5" d="M913.07,636V598.79h2.13V636Z"/><path class="cls-5" d="M939.51,627.28V602.54h2.26v22.69h13v2Z"/><path class="cls-5" d="M966.58,627.77a9.13,9.13,0,0,1-4.58-1.11,7.68,7.68,0,0,1-3-3.11,9.61,9.61,0,0,1-1.08-4.65v-.42a9.61,9.61,0,0,1,1.08-4.65,7.68,7.68,0,0,1,3-3.11,10,10,0,0,1,9.15,0,7.68,7.68,0,0,1,3,3.11,9.5,9.5,0,0,1,1.08,4.65v.42a9.5,9.5,0,0,1-1.08,4.65,7.68,7.68,0,0,1-3,3.11A9.12,9.12,0,0,1,966.58,627.77Zm0-1.9a6.2,6.2,0,0,0,4.8-1.93,7.24,7.24,0,0,0,1.77-5.11v-.28a7.24,7.24,0,0,0-1.77-5.11,7,7,0,0,0-9.59,0,7.21,7.21,0,0,0-1.79,5.11v.28a7.21,7.21,0,0,0,1.79,5.11A6.25,6.25,0,0,0,966.58,625.87Z"/><path class="cls-5" d="M979.79,618.76v-.42a9.27,9.27,0,0,1,1.12-4.67,7.86,7.86,0,0,1,3-3,8.32,8.32,0,0,1,4.17-1.06,7.56,7.56,0,0,1,4.4,1.11,7.4,7.4,0,0,1,2.32,2.53h.42V610.1h2v21.56a2.75,2.75,0,0,1-.67,2,2.68,2.68,0,0,1-2,.71H982.73v-1.91H994a1,1,0,0,0,1.09-.9V624h-.42a7.4,7.4,0,0,1-1.29,1.66,6.26,6.26,0,0,1-2.14,1.33,8.8,8.8,0,0,1-3.22.51,8.39,8.39,0,0,1-4.18-1.06,7.72,7.72,0,0,1-3-3A9.4,9.4,0,0,1,979.79,618.76Zm8.77,6.82a6.38,6.38,0,0,0,4.75-1.84,6.84,6.84,0,0,0,1.82-5v-.28a6.82,6.82,0,0,0-1.82-5.07,7.11,7.11,0,0,0-9.49,0,6.83,6.83,0,0,0-1.83,5.07v.28a6.83,6.83,0,0,0,1.83,5A6.39,6.39,0,0,0,988.56,625.58Z"/><path class="cls-5" d="M1011.25,627.77a9.13,9.13,0,0,1-4.58-1.11,7.68,7.68,0,0,1-3-3.11,9.5,9.5,0,0,1-1.08-4.65v-.42a9.5,9.5,0,0,1,1.08-4.65,7.68,7.68,0,0,1,3-3.11,10,10,0,0,1,9.15,0,7.68,7.68,0,0,1,3,3.11,9.5,9.5,0,0,1,1.08,4.65v.42a9.5,9.5,0,0,1-1.08,4.65,7.68,7.68,0,0,1-3,3.11A9.12,9.12,0,0,1,1011.25,627.77Zm0-1.9a6.2,6.2,0,0,0,4.8-1.93,7.24,7.24,0,0,0,1.77-5.11v-.28a7.24,7.24,0,0,0-1.77-5.11,7,7,0,0,0-9.59,0,7.21,7.21,0,0,0-1.79,5.11v.28a7.21,7.21,0,0,0,1.79,5.11A6.21,6.21,0,0,0,1011.25,625.87Z"/><path class="cls-5" d="M1039.69,627.77a8.16,8.16,0,0,1-3.27-.62,5.23,5.23,0,0,1-2.31-1.82,4.88,4.88,0,0,1-.85-2.89,4.68,4.68,0,0,1,.85-2.87,5.09,5.09,0,0,1,2.3-1.69,8.56,8.56,0,0,1,3.21-.57h6.29v-1.38a4.31,4.31,0,0,0-1.2-3.25,4.86,4.86,0,0,0-3.5-1.16,5,5,0,0,0-5.37,4.11l-2-.6a8,8,0,0,1,1.34-2.74,6.44,6.44,0,0,1,2.44-1.95,8.46,8.46,0,0,1,3.64-.72,7,7,0,0,1,5,1.69A6.23,6.23,0,0,1,1048,616v8.34c0,.71.33,1.06,1,1.06h1.66v1.84h-2.26a2.33,2.33,0,0,1-1.73-.66,2.46,2.46,0,0,1-.64-1.78v-.25h-.35a8.26,8.26,0,0,1-1.18,1.52,5.3,5.3,0,0,1-1.89,1.2A7.84,7.84,0,0,1,1039.69,627.77Zm.14-1.9a6,6,0,0,0,4.4-1.65,6.19,6.19,0,0,0,1.68-4.65v-.42h-6.25a5.49,5.49,0,0,0-3.06.8,2.72,2.72,0,0,0-1.22,2.45,3,3,0,0,0,1.26,2.56A5.4,5.4,0,0,0,1039.83,625.87Z"/><path class="cls-5" d="M1054.71,627.28V610.1h2v3.18h.43a6.49,6.49,0,0,1,2.08-2.45,7,7,0,0,1,4.21-1.08,7.49,7.49,0,0,1,3.42.78,5.94,5.94,0,0,1,2.49,2.35,7.53,7.53,0,0,1,.94,3.94v10.46h-2.12V617a5.16,5.16,0,0,0-1.41-4.06,5.52,5.52,0,0,0-3.78-1.24,6,6,0,0,0-4.42,1.75,7.14,7.14,0,0,0-1.77,5.28v8.59Z"/><path class="cls-5" d="M1083.76,627.77a8.23,8.23,0,0,1-4.17-1.07,7.93,7.93,0,0,1-3-3.08,9.48,9.48,0,0,1-1.12-4.72v-.42a9.68,9.68,0,0,1,1.1-4.72,7.7,7.7,0,0,1,3-3.07,8.31,8.31,0,0,1,4.19-1.08,8.8,8.8,0,0,1,3.22.51,6.47,6.47,0,0,1,2.14,1.31,6.19,6.19,0,0,1,1.28,1.68h.43V602.54H1093v24.74h-2v-3.15h-.43a7.1,7.1,0,0,1-2.31,2.53A7.58,7.58,0,0,1,1083.76,627.77Zm.5-1.9A6.33,6.33,0,0,0,1089,624a7.1,7.1,0,0,0,1.82-5.16v-.28a7.1,7.1,0,0,0-1.82-5.16,6.61,6.61,0,0,0-11.33,5.16v.28a7,7,0,0,0,1.84,5.16A6.34,6.34,0,0,0,1084.26,625.87Z"/><path class="cls-5" d="M1106.87,627.28v-2h3.54V604.59h-3.54v-2.05h12.26a8.82,8.82,0,0,1,3.79.78,6.21,6.21,0,0,1,2.59,2.17,5.58,5.58,0,0,1,.94,3.24V609a5.26,5.26,0,0,1-2.3,4.63,7.74,7.74,0,0,1-1.87.92V615a5.71,5.71,0,0,1,1.89.87,5.35,5.35,0,0,1,1.63,1.78,5.7,5.7,0,0,1,.65,2.86v.36a6.08,6.08,0,0,1-1,3.46,6.26,6.26,0,0,1-2.65,2.21,9.19,9.19,0,0,1-3.8.76Zm5.8-13.5H1119a5.64,5.64,0,0,0,3.83-1.22,4,4,0,0,0,1.4-3.2V609a4,4,0,0,0-1.4-3.2,5.64,5.64,0,0,0-3.83-1.22h-6.29Zm0,11.45h6.15a5.78,5.78,0,0,0,4-1.24,4.29,4.29,0,0,0,1.36-3.32v-.28a4.29,4.29,0,0,0-1.36-3.32,5.78,5.78,0,0,0-4-1.24h-6.15Z"/><path class="cls-5" d="M1131.61,627.28V610.1h2.05v2.16h.42a3.35,3.35,0,0,1,1.47-1.7,5.83,5.83,0,0,1,2.7-.53h2v2H1138a4.33,4.33,0,0,0-3.11,1.1,4.5,4.5,0,0,0-1.17,3.43V627.3Z"/><path class="cls-5" d="M1149.24,627.77a8.16,8.16,0,0,1-3.27-.62,5.16,5.16,0,0,1-2.31-1.82,4.88,4.88,0,0,1-.85-2.89,4.68,4.68,0,0,1,.85-2.87,5.09,5.09,0,0,1,2.3-1.69,8.56,8.56,0,0,1,3.21-.57h6.29v-1.38a4.31,4.31,0,0,0-1.2-3.25,4.86,4.86,0,0,0-3.5-1.16,5.36,5.36,0,0,0-3.58,1.11,5.45,5.45,0,0,0-1.79,3l-2.05-.6a8,8,0,0,1,1.34-2.74,6.44,6.44,0,0,1,2.44-1.95,8.43,8.43,0,0,1,3.64-.72,7,7,0,0,1,5,1.69,6.24,6.24,0,0,1,1.78,4.74v8.34c0,.71.33,1.06,1,1.06h1.66v1.84H1158a2.33,2.33,0,0,1-1.73-.66,2.46,2.46,0,0,1-.64-1.78v-.25h-.35a8.26,8.26,0,0,1-1.18,1.52,5.3,5.3,0,0,1-1.89,1.2A7.89,7.89,0,0,1,1149.24,627.77Zm.14-1.9a6,6,0,0,0,4.4-1.65,6.19,6.19,0,0,0,1.68-4.65v-.42h-6.25a5.49,5.49,0,0,0-3.06.8,2.72,2.72,0,0,0-1.22,2.45,3,3,0,0,0,1.26,2.56A5.4,5.4,0,0,0,1149.38,625.87Z"/><path class="cls-5" d="M1164.26,627.28V610.1h2v3.18h.43a6.49,6.49,0,0,1,2.08-2.45,7,7,0,0,1,4.21-1.08,7.49,7.49,0,0,1,3.42.78,6,6,0,0,1,2.5,2.35,7.64,7.64,0,0,1,.93,3.94v10.46h-2.12V617a5.16,5.16,0,0,0-1.41-4.06,5.52,5.52,0,0,0-3.78-1.24,6,6,0,0,0-4.42,1.75,7.14,7.14,0,0,0-1.77,5.28v8.59Z"/><path class="cls-5" d="M1193.31,627.77a8.23,8.23,0,0,1-4.17-1.07,8,8,0,0,1-3-3.08,9.58,9.58,0,0,1-1.11-4.72v-.42a9.68,9.68,0,0,1,1.1-4.72,7.7,7.7,0,0,1,3-3.07,8.31,8.31,0,0,1,4.19-1.08,9,9,0,0,1,3.22.51,6.44,6.44,0,0,1,3.43,3h.42V602.54h2.12v24.74h-2v-3.15H1200a7.31,7.31,0,0,1-2.32,2.53A7.47,7.47,0,0,1,1193.31,627.77Zm.49-1.9a6.33,6.33,0,0,0,4.76-1.88,7.1,7.1,0,0,0,1.82-5.16v-.28a7.1,7.1,0,0,0-1.82-5.16,7,7,0,0,0-9.49,0,7.09,7.09,0,0,0-1.84,5.16v.28a7.09,7.09,0,0,0,1.84,5.16A6.34,6.34,0,0,0,1193.8,625.87Z"/><path class="cls-5" d="M1216.42,627.28v-2H1220V604.59h-3.54v-2.05h9.4c3.23,0,5.74.82,7.55,2.46s2.7,4.18,2.7,7.65v4.56q0,5.19-2.7,7.63c-1.81,1.63-4.32,2.44-7.55,2.44Zm5.8-2h3.6a8.57,8.57,0,0,0,5.94-1.87c1.36-1.25,2-3.27,2-6v-4.77c0-2.8-.69-4.82-2-6.06a8.57,8.57,0,0,0-5.94-1.85h-3.6Z"/><path class="cls-5" d="M1249.14,627.77a9.14,9.14,0,0,1-4.61-1.11,7.73,7.73,0,0,1-3-3.13,9.58,9.58,0,0,1-1.1-4.63v-.42a9.52,9.52,0,0,1,1.1-4.65,7.87,7.87,0,0,1,3-3.11,9.39,9.39,0,0,1,8.66-.1,7.23,7.23,0,0,1,2.91,2.89,9.09,9.09,0,0,1,1.06,4.51v1.13H1242.5a6.86,6.86,0,0,0,2,5,6.58,6.58,0,0,0,4.68,1.75,5.74,5.74,0,0,0,3.73-1.1,7.27,7.27,0,0,0,2-2.69l1.9.85a9.94,9.94,0,0,1-1.46,2.28,7.28,7.28,0,0,1-2.42,1.84A8.66,8.66,0,0,1,1249.14,627.77Zm-6.6-10.46H1255a5.92,5.92,0,0,0-1.81-4.29,6.13,6.13,0,0,0-4.27-1.5,6.22,6.22,0,0,0-4.28,1.5A6.73,6.73,0,0,0,1242.54,617.31Z"/><path class="cls-5" d="M1269.18,627.77a9.35,9.35,0,0,1-5.32-1.48,6.73,6.73,0,0,1-2.7-4.91l2.08-.39a6.18,6.18,0,0,0,1.15,3,4.86,4.86,0,0,0,2.12,1.54,7.85,7.85,0,0,0,2.67.46,6,6,0,0,0,3.41-.87,2.73,2.73,0,0,0,1.29-2.39,2.19,2.19,0,0,0-1.22-2.15,12.23,12.23,0,0,0-3.23-1l-1.63-.28a13,13,0,0,1-2.93-.86,5.36,5.36,0,0,1-2.07-1.58,4,4,0,0,1-.76-2.47,4.12,4.12,0,0,1,1.75-3.5,9.11,9.11,0,0,1,9.37,0,5.92,5.92,0,0,1,2.24,3.84l-2,.42a4,4,0,0,0-1.68-2.9,6.07,6.07,0,0,0-3.3-.84,5.62,5.62,0,0,0-3.11.74,2.43,2.43,0,0,0-1.17,2.19,2.27,2.27,0,0,0,1.06,2.07,8.34,8.34,0,0,0,2.9,1l1.63.28a16.53,16.53,0,0,1,3.18.83,5.47,5.47,0,0,1,2.24,1.54,4,4,0,0,1,.83,2.61,4.36,4.36,0,0,1-1.84,3.77A8.36,8.36,0,0,1,1269.18,627.77Z"/><path class="cls-5" d="M1282.08,607.13a1.86,1.86,0,0,1-1.84-1.88,1.9,1.9,0,0,1,.53-1.28,1.87,1.87,0,0,1,2.64,2.64A1.78,1.78,0,0,1,1282.08,607.13ZM1281,627.28V610.1h2.12v17.18Z"/><path class="cls-5" d="M1288.51,618.76v-.42a9.26,9.26,0,0,1,1.11-4.67,8,8,0,0,1,3-3,8.32,8.32,0,0,1,4.17-1.06,7.56,7.56,0,0,1,4.4,1.11,7.4,7.4,0,0,1,2.32,2.53h.42V610.1h2v21.56a2.75,2.75,0,0,1-.67,2,2.68,2.68,0,0,1-2,.71h-11.73v-1.91h11.3a1,1,0,0,0,1.1-.89V624h-.42a6.77,6.77,0,0,1-1.3,1.66A6.05,6.05,0,0,1,1300,627a9,9,0,0,1-3.22.51,8.4,8.4,0,0,1-4.19-1.06,7.72,7.72,0,0,1-3-3A9.44,9.44,0,0,1,1288.51,618.76Zm8.77,6.82a6.38,6.38,0,0,0,4.75-1.84,6.88,6.88,0,0,0,1.82-5v-.28a6.87,6.87,0,0,0-1.82-5.07,7.11,7.11,0,0,0-9.49,0,6.84,6.84,0,0,0-1.84,5.07v.28a6.84,6.84,0,0,0,1.84,5A6.39,6.39,0,0,0,1297.28,625.58Z"/><path class="cls-5" d="M1312.12,627.28V610.1h2.05v3.18h.42a6.51,6.51,0,0,1,2.09-2.45,6.92,6.92,0,0,1,4.2-1.08,7.56,7.56,0,0,1,3.43.78,5.94,5.94,0,0,1,2.49,2.35,7.53,7.53,0,0,1,.94,3.94v10.46h-2.12V617a5.09,5.09,0,0,0-1.42-4.06,5.52,5.52,0,0,0-3.78-1.24,6,6,0,0,0-4.41,1.75,7.14,7.14,0,0,0-1.77,5.28v8.59Z"/><path class="cls-5" d="M1351.91,636V598.79H1354V636Z"/><path class="cls-5" d="M1383.75,627.28l-8-24.74h2.37L1385.5,626h.43l7.38-23.43h2.37l-8,24.74Z"/><path class="cls-5" d="M1400.89,607.13a1.86,1.86,0,0,1-1.84-1.88,1.9,1.9,0,0,1,.53-1.28,1.82,1.82,0,0,1,1.31-.51,1.86,1.86,0,0,1,1.84,1.88,1.88,1.88,0,0,1-.52,1.27A1.77,1.77,0,0,1,1400.89,607.13Zm-1.06,20.15V610.1H1402v17.18Z"/><path class="cls-5" d="M1415.59,627.77a8.23,8.23,0,0,1-4.17-1.07,8,8,0,0,1-3-3.08,9.58,9.58,0,0,1-1.11-4.72v-.42a9.68,9.68,0,0,1,1.1-4.72,7.7,7.7,0,0,1,3-3.07,8.31,8.31,0,0,1,4.19-1.08,9,9,0,0,1,3.22.51,6.42,6.42,0,0,1,2.13,1.31,6.22,6.22,0,0,1,1.29,1.68h.43V602.54h2.12v24.74h-2v-3.15h-.43a7.1,7.1,0,0,1-2.31,2.53A7.6,7.6,0,0,1,1415.59,627.77Zm.49-1.9a6.33,6.33,0,0,0,4.76-1.88,7.1,7.1,0,0,0,1.82-5.16v-.28a7.1,7.1,0,0,0-1.82-5.16,6.61,6.61,0,0,0-11.33,5.16v.28a7,7,0,0,0,1.84,5.16A6.34,6.34,0,0,0,1416.08,625.87Z"/><path class="cls-5" d="M1438.91,627.77a9.14,9.14,0,0,1-4.61-1.11,7.66,7.66,0,0,1-3-3.13,9.58,9.58,0,0,1-1.1-4.63v-.42a9.52,9.52,0,0,1,1.1-4.65,7.81,7.81,0,0,1,3-3.11,9.39,9.39,0,0,1,8.66-.1,7.29,7.29,0,0,1,2.91,2.89,9.09,9.09,0,0,1,1.06,4.51v1.13H1432.3a6.82,6.82,0,0,0,2,5,6.58,6.58,0,0,0,4.68,1.75,5.72,5.72,0,0,0,3.73-1.1,7.27,7.27,0,0,0,2-2.69l1.91.85a9.94,9.94,0,0,1-1.46,2.28,7.28,7.28,0,0,1-2.42,1.84A8.69,8.69,0,0,1,1438.91,627.77Zm-6.61-10.46h12.44a5.87,5.87,0,0,0-1.8-4.29,6.13,6.13,0,0,0-4.27-1.5,6.22,6.22,0,0,0-4.28,1.5A6.72,6.72,0,0,0,1432.3,617.31Z"/><path class="cls-5" d="M1460,627.77a9.12,9.12,0,0,1-4.57-1.11,7.68,7.68,0,0,1-3-3.11,9.61,9.61,0,0,1-1.08-4.65v-.42a9.61,9.61,0,0,1,1.08-4.65,7.68,7.68,0,0,1,3-3.11,10,10,0,0,1,9.15,0,7.68,7.68,0,0,1,3,3.11,9.5,9.5,0,0,1,1.08,4.65v.42a9.5,9.5,0,0,1-1.08,4.65,7.68,7.68,0,0,1-3,3.11A9.13,9.13,0,0,1,1460,627.77Zm0-1.9a6.22,6.22,0,0,0,4.81-1.93,7.24,7.24,0,0,0,1.77-5.11v-.28a7.24,7.24,0,0,0-1.77-5.11,7,7,0,0,0-9.59,0,7.21,7.21,0,0,0-1.79,5.11v.28a7.21,7.21,0,0,0,1.79,5.11A6.23,6.23,0,0,0,1460,625.87Z"/><path class="cls-5" d="M1483.09,627.28V602.54h15v2.05H1485.4v9.26H1497v2h-11.69v9.33h12.83v2Z"/><path class="cls-5" d="M1510.62,627.77a8.23,8.23,0,0,1-4.17-1.07,7.93,7.93,0,0,1-3-3.08,9.58,9.58,0,0,1-1.11-4.72v-.42a9.69,9.69,0,0,1,1.09-4.72,7.7,7.7,0,0,1,3-3.07,8.31,8.31,0,0,1,4.19-1.08,8.78,8.78,0,0,1,3.21.51,6.47,6.47,0,0,1,2.14,1.31,6.6,6.6,0,0,1,1.29,1.68h.42V602.54h2.12v24.74h-2v-3.15h-.42a7.28,7.28,0,0,1-2.31,2.53A7.57,7.57,0,0,1,1510.62,627.77Zm.49-1.9a6.31,6.31,0,0,0,4.75-1.88,7.1,7.1,0,0,0,1.82-5.16v-.28a7.1,7.1,0,0,0-1.82-5.16,6.6,6.6,0,0,0-11.32,5.16v.28a7,7,0,0,0,1.84,5.16A6.34,6.34,0,0,0,1511.11,625.87Z"/><path class="cls-5" d="M1527.08,607.13a1.86,1.86,0,0,1-1.3-3.16,1.81,1.81,0,0,1,1.3-.51,1.87,1.87,0,0,1,1.33,3.15A1.78,1.78,0,0,1,1527.08,607.13ZM1526,627.28V610.1h2.12v17.18Z"/><path class="cls-5" d="M1540.58,627.28a2.76,2.76,0,0,1-2.07-.71,2.72,2.72,0,0,1-.68-2V612h-5.52v-1.9h5.52v-6.43H1540v6.43h6V612h-6v12.3a.93.93,0,0,0,.78,1.06h4.28v1.91Z"/><path class="cls-5" d="M1551.75,607.13a1.86,1.86,0,0,1-1.31-3.16,1.82,1.82,0,0,1,1.31-.51,1.86,1.86,0,0,1,1.84,1.88,1.88,1.88,0,0,1-.52,1.27A1.77,1.77,0,0,1,1551.75,607.13Zm-1.06,20.15V610.1h2.12v17.18Z"/><path class="cls-5" d="M1559,627.28V610.1h2v3.18h.42a6.51,6.51,0,0,1,2.09-2.45,6.92,6.92,0,0,1,4.2-1.08,7.56,7.56,0,0,1,3.43.78,5.94,5.94,0,0,1,2.49,2.35,7.53,7.53,0,0,1,.94,3.94v10.46h-2.12V617a5.09,5.09,0,0,0-1.42-4.06,5.52,5.52,0,0,0-3.78-1.24,6,6,0,0,0-4.41,1.75,7.14,7.14,0,0,0-1.77,5.28v8.59Z"/><path class="cls-5" d="M1579.81,618.76v-.42a9.26,9.26,0,0,1,1.11-4.67,8,8,0,0,1,3-3,8.22,8.22,0,0,1,4.17-1.06,7.56,7.56,0,0,1,4.4,1.11,7.28,7.28,0,0,1,2.31,2.53h.43V610.1h2v21.56a2.76,2.76,0,0,1-.68,2,2.68,2.68,0,0,1-2,.71h-11.73v-1.91h11.31a1,1,0,0,0,1.09-.9V624h-.42a7.4,7.4,0,0,1-1.29,1.66,6,6,0,0,1-2.14,1.33,8.78,8.78,0,0,1-3.21.51,8.4,8.4,0,0,1-4.19-1.06,7.72,7.72,0,0,1-3-3A9.34,9.34,0,0,1,1579.81,618.76Zm8.76,6.82a6.4,6.4,0,0,0,4.76-1.84,6.89,6.89,0,0,0,1.81-5v-.28a6.86,6.86,0,0,0-1.81-5.07,7.11,7.11,0,0,0-9.49,0,6.79,6.79,0,0,0-1.84,5.07v.28a6.8,6.8,0,0,0,1.84,5,6.37,6.37,0,0,0,4.73,1.84Z"/><path class="cls-5" d="M677.44,686.28V661.54h9.15a9.09,9.09,0,0,1,3.94.83,6.47,6.47,0,0,1,3.8,6.17V669a6.5,6.5,0,0,1-3.83,6.19,9.23,9.23,0,0,1-3.91.81H679.7v10.32Zm2.26-12.37h6.64a6.26,6.26,0,0,0,4.19-1.31,4.53,4.53,0,0,0,1.54-3.67v-.36a4.61,4.61,0,0,0-1.5-3.69,6.31,6.31,0,0,0-4.23-1.29H679.7Z"/><path class="cls-5" d="M705.92,686.77a9.13,9.13,0,0,1-4.58-1.11,7.68,7.68,0,0,1-3-3.11,9.5,9.5,0,0,1-1.08-4.65v-.42a9.5,9.5,0,0,1,1.08-4.65,7.68,7.68,0,0,1,3-3.11,10,10,0,0,1,9.16,0,7.81,7.81,0,0,1,3,3.11,9.77,9.77,0,0,1,1.07,4.65v.42a9.77,9.77,0,0,1-1.07,4.65,7.81,7.81,0,0,1-3,3.11A9.13,9.13,0,0,1,705.92,686.77Zm0-1.9a6.22,6.22,0,0,0,4.81-1.93,7.27,7.27,0,0,0,1.76-5.11v-.28a7.29,7.29,0,0,0-1.76-5.11,7,7,0,0,0-9.6,0,7.24,7.24,0,0,0-1.78,5.11v.28a7.24,7.24,0,0,0,1.78,5.11A6.25,6.25,0,0,0,705.92,684.87Z"/><path class="cls-5" d="M726.81,686.77a9.28,9.28,0,0,1-5.32-1.48,6.69,6.69,0,0,1-2.71-4.91l2.09-.39a6,6,0,0,0,1.15,3,4.72,4.72,0,0,0,2.12,1.54,7.85,7.85,0,0,0,2.67.46,6,6,0,0,0,3.41-.87,2.75,2.75,0,0,0,1.29-2.39,2.19,2.19,0,0,0-1.22-2.15,12.3,12.3,0,0,0-3.24-1l-1.62-.28a13.06,13.06,0,0,1-2.94-.86,5.17,5.17,0,0,1-2.06-1.58,3.9,3.9,0,0,1-.76-2.47,4.08,4.08,0,0,1,1.75-3.5,9.09,9.09,0,0,1,9.36,0,5.93,5.93,0,0,1,2.25,3.84l-2,.42a4.08,4.08,0,0,0-1.68-2.9,6.1,6.1,0,0,0-3.31-.84,5.73,5.73,0,0,0-3.11.74,2.42,2.42,0,0,0-1.16,2.19,2.25,2.25,0,0,0,1.06,2.07,8.34,8.34,0,0,0,2.9,1l1.62.28a15.83,15.83,0,0,1,3.18.83,5.56,5.56,0,0,1,2.25,1.54,4,4,0,0,1,.83,2.61,4.38,4.38,0,0,1-1.84,3.77A8.36,8.36,0,0,1,726.81,686.77Z"/><path class="cls-5" d="M744.44,686.28a2.76,2.76,0,0,1-2.07-.71,2.73,2.73,0,0,1-.69-2V671h-5.51v-1.9h5.51v-6.43h2.12v6.43h6V671h-6v12.3a.94.94,0,0,0,.8,1.06h4.26v1.91Z"/><path class="cls-5" d="M761.83,686.77a9.14,9.14,0,0,1-4.61-1.11,7.75,7.75,0,0,1-3.06-3.13,9.58,9.58,0,0,1-1.1-4.63v-.42a9.41,9.41,0,0,1,1.1-4.65,7.94,7.94,0,0,1,3-3.11,9.39,9.39,0,0,1,8.66-.1,7.23,7.23,0,0,1,2.91,2.89,9.09,9.09,0,0,1,1.06,4.51v1.13H755.18a6.86,6.86,0,0,0,2,5,6.56,6.56,0,0,0,4.69,1.75,5.74,5.74,0,0,0,3.73-1.1,7.27,7.27,0,0,0,2-2.69l1.91.85a10.33,10.33,0,0,1-1.47,2.28,7.28,7.28,0,0,1-2.42,1.84A8.66,8.66,0,0,1,761.83,686.77Zm-6.61-10.46h12.44a6,6,0,0,0-1.8-4.29,6.14,6.14,0,0,0-4.28-1.5,6.22,6.22,0,0,0-4.28,1.5,6.76,6.76,0,0,0-2.08,4.29Z"/><path class="cls-5" d="M775,686.28V669.1h2v2.16h.43a3.33,3.33,0,0,1,1.46-1.7,5.77,5.77,0,0,1,2.71-.53h2v2h-2.26a4.38,4.38,0,0,0-3.11,1.1,4.5,4.5,0,0,0-1.17,3.43V686.3Z"/><path class="cls-5" d="M794.59,686.77a9.28,9.28,0,0,1-5.32-1.48,6.69,6.69,0,0,1-2.71-4.91l2.09-.39a6,6,0,0,0,1.15,3,4.72,4.72,0,0,0,2.12,1.54,7.85,7.85,0,0,0,2.67.46,6,6,0,0,0,3.41-.87,2.75,2.75,0,0,0,1.29-2.39,2.19,2.19,0,0,0-1.22-2.15,12.3,12.3,0,0,0-3.24-1l-1.62-.28a13.06,13.06,0,0,1-2.94-.86,5.17,5.17,0,0,1-2.06-1.58,3.9,3.9,0,0,1-.76-2.47,4.08,4.08,0,0,1,1.75-3.5,9.09,9.09,0,0,1,9.36,0,5.93,5.93,0,0,1,2.25,3.84l-2,.42a4.08,4.08,0,0,0-1.68-2.9,6.1,6.1,0,0,0-3.31-.84,5.73,5.73,0,0,0-3.11.74,2.42,2.42,0,0,0-1.16,2.19,2.25,2.25,0,0,0,1.06,2.07,8.34,8.34,0,0,0,2.9,1l1.62.28a15.83,15.83,0,0,1,3.18.83,5.56,5.56,0,0,1,2.25,1.54,4,4,0,0,1,.83,2.61,4.38,4.38,0,0,1-1.84,3.77A8.36,8.36,0,0,1,794.59,686.77Z"/><path class="cls-5" d="M820.81,686.77a8.16,8.16,0,0,1-3.27-.62,5.19,5.19,0,0,1-2.32-1.82,4.87,4.87,0,0,1-.84-2.89,4.67,4.67,0,0,1,.84-2.87,5.09,5.09,0,0,1,2.3-1.69,8.85,8.85,0,0,1,3.22-.57H827v-1.38a4.31,4.31,0,0,0-1.2-3.25,4.86,4.86,0,0,0-3.5-1.16,5,5,0,0,0-5.37,4.1l-2-.6a8,8,0,0,1,1.34-2.74,6.44,6.44,0,0,1,2.44-1.95,8.43,8.43,0,0,1,3.64-.72,7,7,0,0,1,5,1.69,6.25,6.25,0,0,1,1.79,4.74v8.34c0,.71.33,1.06,1,1.06h1.66v1.84h-2.26a2.33,2.33,0,0,1-1.74-.66,2.44,2.44,0,0,1-.63-1.78v-.25h-.36a7.85,7.85,0,0,1-1.18,1.52,5.21,5.21,0,0,1-1.89,1.2A8.05,8.05,0,0,1,820.81,686.77Zm.14-1.9a6,6,0,0,0,4.4-1.65,6.19,6.19,0,0,0,1.68-4.65v-.42h-6.26a5.45,5.45,0,0,0-3,.8,2.69,2.69,0,0,0-1.22,2.45A3,3,0,0,0,817.8,684a5.34,5.34,0,0,0,3.2.91Z"/><path class="cls-5" d="M835.83,686.28V669.1h2v3.18h.42a6.49,6.49,0,0,1,2.08-2.45,7,7,0,0,1,4.21-1.08,7.56,7.56,0,0,1,3.43.78,5.94,5.94,0,0,1,2.49,2.35,7.63,7.63,0,0,1,.94,3.94v10.46h-2.12V676a5.16,5.16,0,0,0-1.42-4.06,5.52,5.52,0,0,0-3.78-1.24,6,6,0,0,0-4.42,1.75,7.13,7.13,0,0,0-1.76,5.28v8.59Z"/><path class="cls-5" d="M864.88,686.77a8.27,8.27,0,0,1-4.18-1.07,8,8,0,0,1-3-3.08,9.58,9.58,0,0,1-1.11-4.72v-.42a9.69,9.69,0,0,1,1.09-4.72,7.7,7.7,0,0,1,3-3.07,8.31,8.31,0,0,1,4.19-1.08,8.78,8.78,0,0,1,3.21.51,6.47,6.47,0,0,1,2.14,1.31,6.6,6.6,0,0,1,1.29,1.68h.42V661.54h2.12v24.74h-2v-3.15h-.42a7.31,7.31,0,0,1-2.32,2.53A7.51,7.51,0,0,1,864.88,686.77Zm.49-1.9a6.31,6.31,0,0,0,4.75-1.88,7.1,7.1,0,0,0,1.82-5.16v-.28a7.1,7.1,0,0,0-1.82-5.16,6.6,6.6,0,0,0-11.32,5.16v.28a7,7,0,0,0,1.83,5.16A6.38,6.38,0,0,0,865.37,684.87Z"/><path class="cls-5" d="M889.33,686.28V661.54H904v2.05H891.59v9.26H903v2H891.59v11.38Z"/><path class="cls-5" d="M908.55,686.28V661.54h2.12v24.74Z"/><path class="cls-5" d="M919.05,693.35v-1.91h10a1,1,0,0,0,1.07-.93v-7.2h-.43a6,6,0,0,1-1.18,1.61,5.82,5.82,0,0,1-2,1.23,8.38,8.38,0,0,1-3.06.48,7.61,7.61,0,0,1-3.41-.78,5.88,5.88,0,0,1-2.51-2.33,7.55,7.55,0,0,1-.93-3.92V669.1h2.12v10.36a5.12,5.12,0,0,0,1.41,4,5.56,5.56,0,0,0,3.78,1.23,6,6,0,0,0,4.42-1.73,7.09,7.09,0,0,0,1.77-5.26v-8.6h2.12v21.56a2.73,2.73,0,0,1-.69,2,2.76,2.76,0,0,1-2.07.71Z"/><path class="cls-5" d="M946.4,686.77a9.14,9.14,0,0,1-4.61-1.11,7.75,7.75,0,0,1-3.06-3.13,9.57,9.57,0,0,1-1.09-4.63v-.42a9.51,9.51,0,0,1,1.09-4.65,7.94,7.94,0,0,1,3-3.11,9.39,9.39,0,0,1,8.66-.1,7.25,7.25,0,0,1,2.92,2.89,9.2,9.2,0,0,1,1.06,4.51v1.13H939.76a6.82,6.82,0,0,0,2,5,6.58,6.58,0,0,0,4.68,1.75,5.74,5.74,0,0,0,3.73-1.1,7.27,7.27,0,0,0,2-2.69l1.91.85a9.46,9.46,0,0,1-1.47,2.28,7.15,7.15,0,0,1-2.42,1.84A8.66,8.66,0,0,1,946.4,686.77Zm-6.61-10.46h12.44a5.87,5.87,0,0,0-1.8-4.29,6.84,6.84,0,0,0-8.55,0,6.72,6.72,0,0,0-2.09,4.29Z"/><path class="cls-5" d="M959.62,686.28V669.1h2v2.16H962a3.35,3.35,0,0,1,1.47-1.7,5.83,5.83,0,0,1,2.7-.53h2v2H966a4.38,4.38,0,0,0-3.11,1.1,4.5,4.5,0,0,0-1.16,3.43V686.3Z"/><path class="cls-5" d="M979.16,686.77a9.28,9.28,0,0,1-5.32-1.48,6.73,6.73,0,0,1-2.7-4.91l2.08-.39a6,6,0,0,0,1.15,3,4.86,4.86,0,0,0,2.12,1.54,7.85,7.85,0,0,0,2.67.46,6,6,0,0,0,3.41-.87,2.75,2.75,0,0,0,1.29-2.39,2.19,2.19,0,0,0-1.22-2.15,12.23,12.23,0,0,0-3.23-1l-1.63-.28a13,13,0,0,1-2.93-.86,5.36,5.36,0,0,1-2.07-1.58,3.9,3.9,0,0,1-.76-2.47,4.08,4.08,0,0,1,1.75-3.5,9.09,9.09,0,0,1,9.36,0,5.93,5.93,0,0,1,2.25,3.84l-2,.42a4.08,4.08,0,0,0-1.68-2.9,6.07,6.07,0,0,0-3.3-.84,5.62,5.62,0,0,0-3.11.74,2.43,2.43,0,0,0-1.17,2.19,2.27,2.27,0,0,0,1.06,2.07,8.34,8.34,0,0,0,2.9,1l1.62.28a16.63,16.63,0,0,1,3.19.83,5.47,5.47,0,0,1,2.24,1.54,4,4,0,0,1,.83,2.61,4.36,4.36,0,0,1-1.84,3.77A8.36,8.36,0,0,1,979.16,686.77Z"/><path class="cls-5" d="M1009.16,695V657.79h2.12V695Z"/><path class="cls-5" d="M1035.6,686.28V661.54h4.4l7.49,23.4h.43l7.49-23.4h4.42v24.74h-2.19v-23.4h-.43l-7.49,23.4h-4l-7.49-23.4h-.42v23.4Z"/><path class="cls-5" d="M1073.83,686.77a9.12,9.12,0,0,1-4.57-1.11,7.68,7.68,0,0,1-3-3.11,9.61,9.61,0,0,1-1.08-4.65v-.42a9.61,9.61,0,0,1,1.08-4.65,7.68,7.68,0,0,1,3-3.11,10,10,0,0,1,9.15,0,7.81,7.81,0,0,1,3,3.11,9.5,9.5,0,0,1,1.08,4.65v.42a9.5,9.5,0,0,1-1.08,4.65,7.81,7.81,0,0,1-3,3.11A9.13,9.13,0,0,1,1073.83,686.77Zm0-1.9a6.22,6.22,0,0,0,4.81-1.93,7.27,7.27,0,0,0,1.76-5.11v-.28a7.27,7.27,0,0,0-1.76-5.11,7,7,0,0,0-9.6,0,7.24,7.24,0,0,0-1.78,5.11v.28a7.24,7.24,0,0,0,1.78,5.11A6.25,6.25,0,0,0,1073.83,684.87Z"/><path class="cls-5" d="M1093.37,686.28a2.79,2.79,0,0,1-2.06-.71,2.73,2.73,0,0,1-.69-2V671h-5.51v-1.9h5.51v-6.43h2.12v6.43h6V671h-6v12.3a.93.93,0,0,0,.78,1.06h4.28v1.91Z"/><path class="cls-5" d="M1104.54,666.13a1.86,1.86,0,0,1-1.84-1.88,1.9,1.9,0,0,1,.53-1.28,1.87,1.87,0,0,1,2.64,2.64A1.78,1.78,0,0,1,1104.54,666.13Zm-1.06,20.15V669.1h2.12v17.18Z"/><path class="cls-5" d="M1119.67,686.77a9.13,9.13,0,0,1-4.58-1.11,7.68,7.68,0,0,1-3-3.11,9.61,9.61,0,0,1-1.08-4.65v-.42a9.61,9.61,0,0,1,1.08-4.65,7.68,7.68,0,0,1,3-3.11,10,10,0,0,1,9.15,0,7.68,7.68,0,0,1,3,3.11,9.5,9.5,0,0,1,1.08,4.65v.42a9.5,9.5,0,0,1-1.08,4.65,7.68,7.68,0,0,1-3,3.11A9.12,9.12,0,0,1,1119.67,686.77Zm0-1.9a6.23,6.23,0,0,0,4.8-1.93,7.24,7.24,0,0,0,1.77-5.11v-.28a7.24,7.24,0,0,0-1.77-5.11,7,7,0,0,0-9.59,0,7.25,7.25,0,0,0-1.79,5.11v.28a7.21,7.21,0,0,0,1.79,5.11A6.21,6.21,0,0,0,1119.67,684.87Z"/><path class="cls-5" d="M1133.73,686.28V669.1h2v3.18h.43a6.49,6.49,0,0,1,2.08-2.45,7,7,0,0,1,4.2-1.08,7.56,7.56,0,0,1,3.43.78,5.94,5.94,0,0,1,2.49,2.35,7.53,7.53,0,0,1,.94,3.94v10.46h-2.12V676a5.16,5.16,0,0,0-1.41-4.06,5.52,5.52,0,0,0-3.78-1.24,6,6,0,0,0-4.42,1.75,7.14,7.14,0,0,0-1.77,5.28v8.59Z"/><path class="cls-5" d="M1173,686.77a10.21,10.21,0,0,1-5-1.15,7.86,7.86,0,0,1-3.29-3.39,12,12,0,0,1-1.16-5.53v-5.58q0-4.95,2.59-7.51a9.48,9.48,0,0,1,7-2.56q4.3,0,6.52,2.4a9.13,9.13,0,0,1,2.21,6.4V670h-2.27v-.24a8.36,8.36,0,0,0-.67-3.45,5.2,5.2,0,0,0-2.1-2.37,8.1,8.1,0,0,0-9,1.22,8.35,8.35,0,0,0-1.92,5.87v5.72a8.35,8.35,0,0,0,1.92,5.87,6.94,6.94,0,0,0,5.36,2.08,6,6,0,0,0,5-1.94,8,8,0,0,0,1.59-5.23v-.71h-8.17v-2h10.36v11.42h-2.05v-2.79h-.43a5.89,5.89,0,0,1-1.2,1.6,5.42,5.42,0,0,1-2,1.22A9.15,9.15,0,0,1,1173,686.77Z"/><path class="cls-5" d="M1187.76,686.28V669.1h2v2.16h.43a3.33,3.33,0,0,1,1.46-1.7,5.77,5.77,0,0,1,2.71-.53h2v2h-2.26a4.38,4.38,0,0,0-3.11,1.1,4.5,4.5,0,0,0-1.17,3.43V686.3Z"/><path class="cls-5" d="M1205.4,686.77a8.16,8.16,0,0,1-3.27-.62,5.19,5.19,0,0,1-2.32-1.82,4.88,4.88,0,0,1-.85-2.89,4.68,4.68,0,0,1,.85-2.87,5.09,5.09,0,0,1,2.3-1.69,8.85,8.85,0,0,1,3.22-.57h6.29v-1.38a4.31,4.31,0,0,0-1.2-3.25,4.86,4.86,0,0,0-3.5-1.16,5.41,5.41,0,0,0-3.59,1.11,5.57,5.57,0,0,0-1.79,3l-2-.6a8,8,0,0,1,1.34-2.74,6.44,6.44,0,0,1,2.44-1.95,8.43,8.43,0,0,1,3.64-.72,7,7,0,0,1,5,1.69,6.25,6.25,0,0,1,1.79,4.74v8.34c0,.71.33,1.06,1,1.06h1.66v1.84h-2.26a2.33,2.33,0,0,1-1.74-.66,2.44,2.44,0,0,1-.63-1.78v-.25h-.36a7.85,7.85,0,0,1-1.18,1.52,5.21,5.21,0,0,1-1.89,1.2A8,8,0,0,1,1205.4,686.77Zm.14-1.9a6,6,0,0,0,4.4-1.65,6.19,6.19,0,0,0,1.68-4.65v-.42h-6.26a5.49,5.49,0,0,0-3.06.8,2.69,2.69,0,0,0-1.21,2.45,3,3,0,0,0,1.25,2.56A5.34,5.34,0,0,0,1205.54,684.87Z"/><path class="cls-5" d="M1220.42,693.35V669.1h2v3.15h.43a7.31,7.31,0,0,1,2.32-2.53,7.53,7.53,0,0,1,4.39-1.11,8.14,8.14,0,0,1,4.17,1.08,8,8,0,0,1,3,3,9.54,9.54,0,0,1,1.11,4.74v.42a9.69,9.69,0,0,1-1.09,4.72,7.79,7.79,0,0,1-3,3.08,8.38,8.38,0,0,1-4.21,1.07,8.86,8.86,0,0,1-3.19-.51,6.32,6.32,0,0,1-2.16-1.32,7.24,7.24,0,0,1-1.29-1.67h-.42V693.3Zm8.69-8.48a6.31,6.31,0,0,0,4.75-1.88,7.1,7.1,0,0,0,1.82-5.16v-.28a7.1,7.1,0,0,0-1.82-5.16,6.6,6.6,0,0,0-11.32,5.16v.28a7,7,0,0,0,1.83,5.16A6.38,6.38,0,0,0,1229.11,684.87Z"/><path class="cls-5" d="M1243.24,686.28V661.54h2.13v10.57h.42a6,6,0,0,1,1.18-1.61,5.61,5.61,0,0,1,2-1.24,8.59,8.59,0,0,1,3.06-.47,7.55,7.55,0,0,1,3.43.77,6.1,6.1,0,0,1,2.49,2.34,7.55,7.55,0,0,1,.93,3.92v10.46h-2.12V676a5.11,5.11,0,0,0-1.41-4,5.56,5.56,0,0,0-3.78-1.22,6,6,0,0,0-4.42,1.74c-1.18,1.15-1.76,2.9-1.76,5.26v8.59Z"/><path class="cls-5" d="M1265.93,666.13a1.86,1.86,0,0,1-1.84-1.88,1.9,1.9,0,0,1,.53-1.28,1.87,1.87,0,0,1,2.64,2.64A1.78,1.78,0,0,1,1265.93,666.13Zm-1.06,20.15V669.1H1267v17.18Z"/><path class="cls-5" d="M1281.06,686.77a9.16,9.16,0,0,1-4.47-1.07,7.83,7.83,0,0,1-3.1-3.1,9.5,9.5,0,0,1-1.13-4.73v-.36a9.6,9.6,0,0,1,1.13-4.75,7.89,7.89,0,0,1,3.1-3.07,9,9,0,0,1,4.47-1.08,8.53,8.53,0,0,1,4.18.93,7.25,7.25,0,0,1,2.69,2.44,8.09,8.09,0,0,1,1.22,3.17l-2.09.42a6.32,6.32,0,0,0-.88-2.53,5.11,5.11,0,0,0-2-1.83,7.22,7.22,0,0,0-6.5.17,6.26,6.26,0,0,0-2.35,2.44,7.67,7.67,0,0,0-.87,3.73v.28a7.67,7.67,0,0,0,.87,3.73,6.26,6.26,0,0,0,2.35,2.44,6.49,6.49,0,0,0,3.36.87,5.86,5.86,0,0,0,4.31-1.47,6.45,6.45,0,0,0,1.84-3.59l2.08.43a8.47,8.47,0,0,1-1.32,3.16,7.71,7.71,0,0,1-2.73,2.44A8.71,8.71,0,0,1,1281.06,686.77Z"/><path class="cls-5" d="M1301.34,686.77a9.28,9.28,0,0,1-5.32-1.48,6.73,6.73,0,0,1-2.7-4.91l2.08-.39a6,6,0,0,0,1.15,3,4.86,4.86,0,0,0,2.12,1.54,7.85,7.85,0,0,0,2.67.46,6,6,0,0,0,3.41-.87,2.73,2.73,0,0,0,1.29-2.39,2.19,2.19,0,0,0-1.22-2.15,12.23,12.23,0,0,0-3.23-1l-1.63-.28a13,13,0,0,1-2.93-.86,5.36,5.36,0,0,1-2.07-1.58,4,4,0,0,1-.76-2.47,4.12,4.12,0,0,1,1.75-3.5,9.11,9.11,0,0,1,9.37,0,5.92,5.92,0,0,1,2.24,3.84l-2,.42a4,4,0,0,0-1.68-2.9,6.07,6.07,0,0,0-3.3-.84,5.62,5.62,0,0,0-3.11.74,2.43,2.43,0,0,0-1.17,2.19,2.27,2.27,0,0,0,1.06,2.07,8.34,8.34,0,0,0,2.9,1l1.63.28a16.53,16.53,0,0,1,3.18.83,5.47,5.47,0,0,1,2.24,1.54,4,4,0,0,1,.83,2.61,4.36,4.36,0,0,1-1.84,3.77A8.36,8.36,0,0,1,1301.34,686.77Z"/><path class="cls-5" d="M1340.46,695V657.79h2.12V695Z"/><path class="cls-5" d="M1372.3,686.28l-8-24.74h2.37L1374.1,685h.43l7.38-23.43h2.37l-8,24.74Z"/><path class="cls-5" d="M1389.44,666.13a1.86,1.86,0,0,1-1.84-1.88,1.9,1.9,0,0,1,.53-1.28,1.87,1.87,0,0,1,2.64,2.64A1.78,1.78,0,0,1,1389.44,666.13Zm-1.06,20.15V669.1h2.12v17.18Z"/><path class="cls-5" d="M1404.14,686.77a8.23,8.23,0,0,1-4.17-1.07,8,8,0,0,1-3-3.08,9.58,9.58,0,0,1-1.11-4.72v-.42a9.68,9.68,0,0,1,1.1-4.72,7.7,7.7,0,0,1,3-3.07,8.31,8.31,0,0,1,4.19-1.08,9,9,0,0,1,3.22.51,6.44,6.44,0,0,1,3.43,3h.42V661.54h2.12v24.74h-2v-3.15h-.42a7.31,7.31,0,0,1-2.32,2.53A7.51,7.51,0,0,1,1404.14,686.77Zm.49-1.9a6.33,6.33,0,0,0,4.76-1.88,7.1,7.1,0,0,0,1.82-5.16v-.28a7.1,7.1,0,0,0-1.82-5.16,7,7,0,0,0-9.49,0,7.09,7.09,0,0,0-1.84,5.16v.28a7.09,7.09,0,0,0,1.84,5.16A6.34,6.34,0,0,0,1404.63,684.87Z"/><path class="cls-5" d="M1427.46,686.77a9.14,9.14,0,0,1-4.61-1.11,7.73,7.73,0,0,1-3-3.13,9.58,9.58,0,0,1-1.1-4.63v-.42a9.41,9.41,0,0,1,1.1-4.65,7.87,7.87,0,0,1,3-3.11,9.39,9.39,0,0,1,8.66-.1,7.29,7.29,0,0,1,2.91,2.89,9.09,9.09,0,0,1,1.06,4.51v1.13h-14.63a6.82,6.82,0,0,0,2,5,6.58,6.58,0,0,0,4.68,1.75,5.74,5.74,0,0,0,3.73-1.1,7.27,7.27,0,0,0,2-2.69l1.91.85a9.94,9.94,0,0,1-1.46,2.28,7.28,7.28,0,0,1-2.42,1.84A8.69,8.69,0,0,1,1427.46,686.77Zm-6.6-10.46h12.43a5.87,5.87,0,0,0-1.8-4.29,6.13,6.13,0,0,0-4.27-1.5,6.22,6.22,0,0,0-4.28,1.5A6.76,6.76,0,0,0,1420.86,676.31Z"/><path class="cls-5" d="M1448.53,686.77a9.13,9.13,0,0,1-4.58-1.11,7.68,7.68,0,0,1-3-3.11,9.61,9.61,0,0,1-1.08-4.65v-.42a9.61,9.61,0,0,1,1.08-4.65,7.68,7.68,0,0,1,3-3.11,10,10,0,0,1,9.15,0,7.68,7.68,0,0,1,3,3.11,9.5,9.5,0,0,1,1.08,4.65v.42a9.5,9.5,0,0,1-1.08,4.65,7.68,7.68,0,0,1-3,3.11A9.12,9.12,0,0,1,1448.53,686.77Zm0-1.9a6.23,6.23,0,0,0,4.8-1.93,7.24,7.24,0,0,0,1.77-5.11v-.28a7.24,7.24,0,0,0-1.77-5.11,7,7,0,0,0-9.59,0,7.25,7.25,0,0,0-1.79,5.11v.28a7.21,7.21,0,0,0,1.79,5.11A6.21,6.21,0,0,0,1448.53,684.87Z"/><path class="cls-5" d="M1471.64,686.28V661.54h14.95v2.05H1473.9v9.26h11.7v2h-11.7v9.33h12.83v2Z"/><path class="cls-5" d="M1499.17,686.77a8.23,8.23,0,0,1-4.17-1.07,7.93,7.93,0,0,1-3-3.08,9.58,9.58,0,0,1-1.11-4.72v-.42a9.69,9.69,0,0,1,1.09-4.72,7.7,7.7,0,0,1,3-3.07,8.31,8.31,0,0,1,4.19-1.08,8.78,8.78,0,0,1,3.21.51,6.47,6.47,0,0,1,2.14,1.31,6.6,6.6,0,0,1,1.29,1.68h.42V661.54h2.12v24.74h-2v-3.15h-.42a7.28,7.28,0,0,1-2.31,2.53A7.57,7.57,0,0,1,1499.17,686.77Zm.49-1.9a6.31,6.31,0,0,0,4.75-1.88,7.1,7.1,0,0,0,1.82-5.16v-.28a7.1,7.1,0,0,0-1.82-5.16,6.6,6.6,0,0,0-11.32,5.16v.28a7,7,0,0,0,1.84,5.16A6.34,6.34,0,0,0,1499.66,684.87Z"/><path class="cls-5" d="M1515.63,666.13a1.79,1.79,0,0,1-1.83-1.75v-.08a1.75,1.75,0,0,1,.53-1.33,1.83,1.83,0,0,1,2.59,0,1.86,1.86,0,0,1,.55,1.36,1.82,1.82,0,0,1-.51,1.31A1.78,1.78,0,0,1,1515.63,666.13Zm-1.06,20.15V669.1h2.13v17.18Z"/><path class="cls-5" d="M1529.13,686.28a2.45,2.45,0,0,1-2.75-2.71V671h-5.51v-1.9h5.51v-6.43h2.12v6.43h6V671h-6v12.3a.93.93,0,0,0,.78,1.06h4.28v1.91Z"/><path class="cls-5" d="M1540.3,666.13a1.86,1.86,0,0,1-1.8-1.92,1.73,1.73,0,0,1,1.81-1.72,1.86,1.86,0,0,1,1.84,1.88,1.84,1.84,0,0,1-.52,1.27A1.78,1.78,0,0,1,1540.3,666.13Zm-1.06,20.15V669.1h2.12v17.18Z"/><path class="cls-5" d="M1547.58,686.28V669.1h2.05v3.18h.42a6.51,6.51,0,0,1,2.09-2.45,7,7,0,0,1,4.2-1.08,7.56,7.56,0,0,1,3.43.78,5.94,5.94,0,0,1,2.49,2.35,7.53,7.53,0,0,1,.94,3.94v10.46h-2.12V676a5.16,5.16,0,0,0-1.41-4.06,5.56,5.56,0,0,0-3.79-1.24,6,6,0,0,0-4.41,1.75,7.14,7.14,0,0,0-1.77,5.28v8.59Z"/><path class="cls-5" d="M1568.36,677.76v-.42a9.26,9.26,0,0,1,1.11-4.67,8,8,0,0,1,3-3,8.32,8.32,0,0,1,4.17-1.06,7.56,7.56,0,0,1,4.4,1.11,7.28,7.28,0,0,1,2.31,2.53h.43V669.1h2v21.56a2.76,2.76,0,0,1-.68,2,2.68,2.68,0,0,1-2,.71h-11.74v-1.91h11.31a1,1,0,0,0,1.1-.89V683h-.43a6.5,6.5,0,0,1-1.29,1.66,6.07,6.07,0,0,1-2.13,1.33,9,9,0,0,1-3.22.51,8.4,8.4,0,0,1-4.19-1.06,7.72,7.72,0,0,1-3-3A9.33,9.33,0,0,1,1568.36,677.76Zm8.76,6.82a6.4,6.4,0,0,0,4.76-1.84,6.88,6.88,0,0,0,1.82-5v-.28a6.87,6.87,0,0,0-1.82-5.07,7.11,7.11,0,0,0-9.49,0,6.79,6.79,0,0,0-1.84,5.07v.28a6.8,6.8,0,0,0,1.84,5A6.37,6.37,0,0,0,1577.12,684.58Z"/><path class="cls-5" d="M676.09,745.28v-2h3.54V722.59h-3.54v-2.05h9.41c3.22,0,5.74.82,7.54,2.46s2.7,4.18,2.7,7.65v4.56q0,5.19-2.7,7.63c-1.8,1.63-4.32,2.44-7.54,2.44Zm5.8-2h3.61a8.49,8.49,0,0,0,5.93-1.87c1.37-1.25,2.05-3.26,2.05-6v-4.77q0-4.2-2.05-6.06a8.53,8.53,0,0,0-5.93-1.85h-3.61Z"/><path class="cls-5" d="M702,725.13a1.86,1.86,0,0,1-1.84-1.88,1.9,1.9,0,0,1,.53-1.28,1.87,1.87,0,0,1,2.64,2.64A1.78,1.78,0,0,1,702,725.13Zm-1.06,20.15V728.1H703v17.18Z"/><path class="cls-5" d="M708.39,736.76v-.42a9.27,9.27,0,0,1,1.12-4.67,7.86,7.86,0,0,1,3-3,8.32,8.32,0,0,1,4.17-1.06,7.56,7.56,0,0,1,4.4,1.11,7.4,7.4,0,0,1,2.32,2.53h.42V728.1h2v21.56a2.75,2.75,0,0,1-.67,2,2.71,2.71,0,0,1-2,.71H711.33v-1.91h11.31a1,1,0,0,0,1.09-.9V742h-.42a7.4,7.4,0,0,1-1.29,1.66,6.26,6.26,0,0,1-2.14,1.33,8.8,8.8,0,0,1-3.22.51,8.39,8.39,0,0,1-4.18-1.06,7.72,7.72,0,0,1-3-3A9.41,9.41,0,0,1,708.39,736.76Zm8.77,6.82a6.38,6.38,0,0,0,4.75-1.84,6.88,6.88,0,0,0,1.82-5v-.28a6.87,6.87,0,0,0-1.82-5.07,7.11,7.11,0,0,0-9.49,0,6.84,6.84,0,0,0-1.84,5.07v.28a6.84,6.84,0,0,0,1.84,5,6.39,6.39,0,0,0,4.74,1.84Z"/><path class="cls-5" d="M733.06,725.13a1.86,1.86,0,0,1-1.84-1.88,1.9,1.9,0,0,1,.53-1.28,1.87,1.87,0,0,1,2.64,2.64A1.78,1.78,0,0,1,733.06,725.13ZM732,745.28V728.1h2.12v17.18Z"/><path class="cls-5" d="M746.56,745.28a2.76,2.76,0,0,1-2.07-.71,2.73,2.73,0,0,1-.69-2V730h-5.51v-1.9h5.51v-6.43h2.12v6.43h6V730h-6v12.3a.94.94,0,0,0,.8,1.06H751v1.91Z"/><path class="cls-5" d="M761.79,745.77a8.16,8.16,0,0,1-3.27-.62,5.16,5.16,0,0,1-2.31-1.82,4.88,4.88,0,0,1-.85-2.89,4.68,4.68,0,0,1,.85-2.87,5.06,5.06,0,0,1,2.29-1.69,8.85,8.85,0,0,1,3.22-.57H768v-1.38a4.31,4.31,0,0,0-1.2-3.25,4.86,4.86,0,0,0-3.5-1.16,5,5,0,0,0-5.37,4.1l-2-.6a8,8,0,0,1,1.34-2.74,6.44,6.44,0,0,1,2.44-1.95,8.43,8.43,0,0,1,3.64-.72,7,7,0,0,1,5,1.69,6.24,6.24,0,0,1,1.78,4.74v8.34c0,.71.33,1.06,1,1.06h1.66v1.84h-2.26a2.33,2.33,0,0,1-1.73-.66,2.38,2.38,0,0,1-.64-1.78v-.25h-.35a7.9,7.9,0,0,1-1.19,1.52,5.21,5.21,0,0,1-1.89,1.2A7.92,7.92,0,0,1,761.79,745.77Zm.14-1.9a6,6,0,0,0,4.4-1.65,6.19,6.19,0,0,0,1.68-4.65v-.42h-6.26a5.45,5.45,0,0,0-3,.8,2.72,2.72,0,0,0-1.22,2.45,3,3,0,0,0,1.25,2.56A5.42,5.42,0,0,0,761.93,743.87Z"/><path class="cls-5" d="M776.81,745.28V720.54h2.12v24.74Z"/><path class="cls-5" d="M794.2,745.28V720.54h9.15a9.09,9.09,0,0,1,3.94.83,6.4,6.4,0,0,1,3.77,6.17V728a6.52,6.52,0,0,1-3.84,6.19,9.19,9.19,0,0,1-3.9.81h-6.89v10.32Zm2.26-12.37h6.64a6.26,6.26,0,0,0,4.19-1.31,4.54,4.54,0,0,0,1.54-3.67v-.36a4.6,4.6,0,0,0-1.51-3.69,6.27,6.27,0,0,0-4.22-1.29h-6.64Z"/><path class="cls-5" d="M820.31,745.77a8.16,8.16,0,0,1-3.27-.62,5.16,5.16,0,0,1-2.31-1.82,4.88,4.88,0,0,1-.85-2.89,4.68,4.68,0,0,1,.85-2.87,5.06,5.06,0,0,1,2.29-1.69,8.85,8.85,0,0,1,3.22-.57h6.29v-1.38a4.31,4.31,0,0,0-1.2-3.25,4.86,4.86,0,0,0-3.5-1.16,5,5,0,0,0-5.37,4.1l-2.05-.6a8,8,0,0,1,1.34-2.74,6.44,6.44,0,0,1,2.44-1.95,8.43,8.43,0,0,1,3.64-.72,7,7,0,0,1,5,1.69,6.24,6.24,0,0,1,1.78,4.74v8.34c0,.71.33,1.06,1,1.06h1.66v1.84H829a2.33,2.33,0,0,1-1.73-.66,2.38,2.38,0,0,1-.64-1.78v-.25h-.35a7.9,7.9,0,0,1-1.19,1.52,5.21,5.21,0,0,1-1.89,1.2A7.92,7.92,0,0,1,820.31,745.77Zm.14-1.9a6,6,0,0,0,4.4-1.65,6.19,6.19,0,0,0,1.68-4.65v-.42h-6.25a5.49,5.49,0,0,0-3.06.8A2.72,2.72,0,0,0,816,740.4a3,3,0,0,0,1.25,2.56A5.41,5.41,0,0,0,820.45,743.87Z"/><path class="cls-5" d="M836.39,725.13a1.86,1.86,0,0,1-1.84-1.88,1.9,1.9,0,0,1,.53-1.28,1.82,1.82,0,0,1,1.31-.51,1.86,1.86,0,0,1,1.84,1.88,1.84,1.84,0,0,1-.52,1.27A1.77,1.77,0,0,1,836.39,725.13Zm-1.06,20.15V728.1h2.12v17.18Z"/><path class="cls-5" d="M843.67,745.28V728.1h2.05v3.18h.42a6.51,6.51,0,0,1,2.09-2.45,6.92,6.92,0,0,1,4.2-1.08,7.56,7.56,0,0,1,3.43.78,5.94,5.94,0,0,1,2.49,2.35,7.53,7.53,0,0,1,.94,3.94v10.46h-2.12V735a5.16,5.16,0,0,0-1.41-4.06A5.56,5.56,0,0,0,852,729.7a6,6,0,0,0-4.41,1.75,7.14,7.14,0,0,0-1.77,5.28v8.59Z"/><path class="cls-5" d="M871,745.28a2.44,2.44,0,0,1-2.74-2.09,2.41,2.41,0,0,1,0-.6V730h-5.52v-1.9h5.52v-6.43h2.12v6.43h6V730h-6v12.3a.93.93,0,0,0,.78,1.06h4.28v1.91Z"/><path class="cls-5" d="M882.19,725.13a1.86,1.86,0,0,1-1.31-3.16,2,2,0,0,1,2.63,0,1.78,1.78,0,0,1,.52,1.33,1.83,1.83,0,0,1-.52,1.31A1.77,1.77,0,0,1,882.19,725.13Zm-1.06,20.15V728.1h2.12v17.18Z"/><path class="cls-5" d="M889.47,745.28V728.1h2v3.18h.42a6.51,6.51,0,0,1,2.09-2.45,6.92,6.92,0,0,1,4.2-1.08,7.56,7.56,0,0,1,3.43.78,5.94,5.94,0,0,1,2.49,2.35,7.53,7.53,0,0,1,.94,3.94v10.46h-2V735a5.09,5.09,0,0,0-1.42-4.06,5.52,5.52,0,0,0-3.78-1.24,6,6,0,0,0-4.41,1.75,7.14,7.14,0,0,0-1.77,5.28v8.59Z"/><path class="cls-5" d="M910.25,736.76v-.42a9.26,9.26,0,0,1,1.11-4.67,8,8,0,0,1,3-3,8.32,8.32,0,0,1,4.17-1.06,7.56,7.56,0,0,1,4.4,1.11,7.37,7.37,0,0,1,2.31,2.53h.43V728.1h2v21.56a2.75,2.75,0,0,1-.67,2,2.71,2.71,0,0,1-2,.71H913.18v-1.91h11.31a1,1,0,0,0,1.09-.9V742h-.42a7.4,7.4,0,0,1-1.29,1.66,6,6,0,0,1-2.14,1.33,8.78,8.78,0,0,1-3.21.51,8.4,8.4,0,0,1-4.19-1.06,7.72,7.72,0,0,1-3-3A9.4,9.4,0,0,1,910.25,736.76Zm8.76,6.82a6.34,6.34,0,0,0,4.75-1.84,6.84,6.84,0,0,0,1.82-5v-.28a6.82,6.82,0,0,0-1.82-5.07,7.08,7.08,0,0,0-9.48,0,6.79,6.79,0,0,0-1.84,5.07v.28a6.8,6.8,0,0,0,1.84,5,6.35,6.35,0,0,0,4.72,1.84Z"/><path class="cls-5" d="M948.24,745.77a8.16,8.16,0,0,1-3.27-.62,5.19,5.19,0,0,1-2.32-1.82,4.87,4.87,0,0,1-.84-2.89,4.67,4.67,0,0,1,.84-2.87,5.09,5.09,0,0,1,2.3-1.69,8.85,8.85,0,0,1,3.22-.57h6.29v-1.38a4.29,4.29,0,0,0-1.21-3.25,4.84,4.84,0,0,0-3.49-1.16,5.41,5.41,0,0,0-3.59,1.11,5.51,5.51,0,0,0-1.79,3l-2-.6a8.07,8.07,0,0,1,1.35-2.74,6.44,6.44,0,0,1,2.44-1.95,8.43,8.43,0,0,1,3.64-.72,7,7,0,0,1,5,1.69,6.25,6.25,0,0,1,1.79,4.74v8.34c0,.71.33,1.06,1,1.06h1.66v1.84H957a2.33,2.33,0,0,1-1.74-.66,2.44,2.44,0,0,1-.63-1.78v-.25h-.36a7.85,7.85,0,0,1-1.18,1.52,5.21,5.21,0,0,1-1.89,1.2A7.84,7.84,0,0,1,948.24,745.77Zm.14-1.9a6,6,0,0,0,4.4-1.65,6.19,6.19,0,0,0,1.68-4.65v-.42H948.2a5.49,5.49,0,0,0-3.06.8,2.69,2.69,0,0,0-1.21,2.45,3,3,0,0,0,1.25,2.56A5.34,5.34,0,0,0,948.38,743.87Z"/><path class="cls-5" d="M963.26,745.28V728.1h2v3.18h.43a6.49,6.49,0,0,1,2.08-2.45,7,7,0,0,1,4.21-1.08,7.56,7.56,0,0,1,3.43.78,5.94,5.94,0,0,1,2.49,2.35,7.63,7.63,0,0,1,.94,3.94v10.46h-2.13V735a5.16,5.16,0,0,0-1.41-4.06,5.52,5.52,0,0,0-3.78-1.24,6,6,0,0,0-4.42,1.75c-1.18,1.16-1.76,2.92-1.76,5.28v8.59Z"/><path class="cls-5" d="M992.3,745.77a8.23,8.23,0,0,1-4.17-1.07,7.93,7.93,0,0,1-3-3.08A9.49,9.49,0,0,1,984,736.9v-.42a9.69,9.69,0,0,1,1.09-4.72,7.7,7.7,0,0,1,3-3.07,8.28,8.28,0,0,1,4.18-1.08,8.8,8.8,0,0,1,3.22.51,6.47,6.47,0,0,1,2.14,1.31,6.6,6.6,0,0,1,1.29,1.68h.42V720.54h2.12v24.74h-2v-3.15H999a7.31,7.31,0,0,1-2.32,2.53A7.5,7.5,0,0,1,992.3,745.77Zm.5-1.9a6.31,6.31,0,0,0,4.75-1.88,7.1,7.1,0,0,0,1.82-5.16v-.28a7.1,7.1,0,0,0-1.82-5.16,6.6,6.6,0,0,0-11.32,5.16v.28a7,7,0,0,0,1.83,5.16A6.38,6.38,0,0,0,992.8,743.87Z"/><path class="cls-5" d="M1021.49,745.28l-6.43-17.18h2.26l5.66,15.55h.42l5.66-15.55h2.26l-6.43,17.18Z"/><path class="cls-5" d="M1042.87,745.77a9.14,9.14,0,0,1-4.61-1.11,7.73,7.73,0,0,1-3-3.13,9.34,9.34,0,0,1-1.1-4.63v-.42a9.41,9.41,0,0,1,1.1-4.65,7.87,7.87,0,0,1,3-3.11,9.37,9.37,0,0,1,8.65-.1,7.25,7.25,0,0,1,2.92,2.89,9.09,9.09,0,0,1,1.06,4.51v1.13h-14.63a6.86,6.86,0,0,0,2,5,6.58,6.58,0,0,0,4.68,1.75,5.74,5.74,0,0,0,3.73-1.1,7.27,7.27,0,0,0,2-2.69l1.91.85a9.94,9.94,0,0,1-1.46,2.28,7.32,7.32,0,0,1-2.43,1.84A8.62,8.62,0,0,1,1042.87,745.77Zm-6.6-10.46h12.44a5.92,5.92,0,0,0-1.81-4.29,6.13,6.13,0,0,0-4.27-1.5,6.22,6.22,0,0,0-4.28,1.5A6.76,6.76,0,0,0,1036.27,735.31Z"/><path class="cls-5" d="M1063.94,745.77a9.2,9.2,0,0,1-4.48-1.07,7.94,7.94,0,0,1-3.09-3.1,9.5,9.5,0,0,1-1.13-4.73v-.36a9.6,9.6,0,0,1,1.13-4.75,7.86,7.86,0,0,1,3.09-3.07,9.1,9.1,0,0,1,4.48-1.08,8.76,8.76,0,0,1,4.18.93,7.25,7.25,0,0,1,2.69,2.44,8.09,8.09,0,0,1,1.22,3.17l-2.09.42a6.32,6.32,0,0,0-.88-2.53,5.11,5.11,0,0,0-2-1.83,7.22,7.22,0,0,0-6.5.17,6.2,6.2,0,0,0-2.35,2.44,7.67,7.67,0,0,0-.87,3.73v.28a7.67,7.67,0,0,0,.87,3.73,6.2,6.2,0,0,0,2.35,2.44,6.49,6.49,0,0,0,3.36.87,5.86,5.86,0,0,0,4.31-1.47,6.43,6.43,0,0,0,1.83-3.59l2.09.43a8.33,8.33,0,0,1-1.33,3.16,7.6,7.6,0,0,1-2.72,2.44A8.71,8.71,0,0,1,1063.94,745.77Z"/><path class="cls-5" d="M1082.88,745.28a2.76,2.76,0,0,1-2.07-.71,2.73,2.73,0,0,1-.69-2V730h-5.51v-1.9h5.51v-6.43h2.12v6.43h6V730h-6v12.3a.93.93,0,0,0,.78,1.06h4.28v1.91Z"/><path class="cls-5" d="M1100.19,745.77a9.12,9.12,0,0,1-4.57-1.11,7.68,7.68,0,0,1-3-3.11,9.61,9.61,0,0,1-1.08-4.65v-.42a9.61,9.61,0,0,1,1.08-4.65,7.68,7.68,0,0,1,3-3.11,10,10,0,0,1,9.15,0,7.68,7.68,0,0,1,3,3.11,9.5,9.5,0,0,1,1.08,4.65v.42a9.5,9.5,0,0,1-1.08,4.65,7.68,7.68,0,0,1-3,3.11A9.13,9.13,0,0,1,1100.19,745.77Zm0-1.9a6.22,6.22,0,0,0,4.81-1.93,7.24,7.24,0,0,0,1.77-5.11v-.28a7.24,7.24,0,0,0-1.77-5.11,7,7,0,0,0-9.6,0,7.24,7.24,0,0,0-1.78,5.11v.28a7.24,7.24,0,0,0,1.78,5.11A6.25,6.25,0,0,0,1100.19,743.87Z"/><path class="cls-5" d="M1114.26,745.28V728.1h2v2.16h.42a3.35,3.35,0,0,1,1.47-1.7,5.83,5.83,0,0,1,2.7-.53h2v2h-2.27a4.38,4.38,0,0,0-3.11,1.1,4.5,4.5,0,0,0-1.16,3.43V745.3Z"/><path class="cls-5" d="M1141.68,745.77a8.16,8.16,0,0,1-3.27-.62,5.16,5.16,0,0,1-2.31-1.82,4.88,4.88,0,0,1-.85-2.89,4.68,4.68,0,0,1,.85-2.87,5.06,5.06,0,0,1,2.29-1.69,8.85,8.85,0,0,1,3.22-.57h6.29v-1.38a4.31,4.31,0,0,0-1.2-3.25,4.86,4.86,0,0,0-3.5-1.16,5,5,0,0,0-5.37,4.1l-2-.6a8,8,0,0,1,1.34-2.74,6.44,6.44,0,0,1,2.44-1.95,8.43,8.43,0,0,1,3.64-.72,7,7,0,0,1,5,1.69A6.26,6.26,0,0,1,1150,734v8.34c0,.71.33,1.06,1,1.06h1.66v1.84h-2.26a2.33,2.33,0,0,1-1.73-.66,2.38,2.38,0,0,1-.64-1.78v-.25h-.35a7.9,7.9,0,0,1-1.19,1.52,5.21,5.21,0,0,1-1.89,1.2A7.84,7.84,0,0,1,1141.68,745.77Zm.14-1.9a6,6,0,0,0,4.4-1.65,6.19,6.19,0,0,0,1.68-4.65v-.42h-6.26a5.47,5.47,0,0,0-3.05.8,2.72,2.72,0,0,0-1.22,2.45,3,3,0,0,0,1.25,2.56,5.41,5.41,0,0,0,3.2.91Z"/><path class="cls-5" d="M1156.7,745.28V728.1h2v2.16h.42a3.35,3.35,0,0,1,1.47-1.7,5.83,5.83,0,0,1,2.7-.53h2v2H1163a4.33,4.33,0,0,0-3.11,1.1,4.5,4.5,0,0,0-1.17,3.43V745.3Z"/><path class="cls-5" d="M1176,745.28a2.76,2.76,0,0,1-2.07-.71,2.73,2.73,0,0,1-.69-2V730h-5.51v-1.9h5.51v-6.43h2.12v6.43h6V730h-6v12.3a.94.94,0,0,0,.8,1.06h4.26v1.91Z"/><path class="cls-5" d="M1204.23,754V716.79h2.12V754Z"/><path class="cls-5" d="M1238.33,745.77a10.36,10.36,0,0,1-4.61-1,7.38,7.38,0,0,1-3.18-2.88,8.62,8.62,0,0,1-1.15-4.57v-.67h2.19v.7a6.11,6.11,0,0,0,1.87,4.72,7,7,0,0,0,4.88,1.71,6.58,6.58,0,0,0,4.74-1.62,5.47,5.47,0,0,0,1.69-4.1v-.21a4.79,4.79,0,0,0-.86-3,5.19,5.19,0,0,0-2.34-1.68,8.89,8.89,0,0,0-3.23-.55h-3.64v-3l10-6.82v-.35H1230v-2h17v3.18l-9.93,6.75v.35H1239a10.13,10.13,0,0,1,4.1.8,6.3,6.3,0,0,1,3.92,6.17v.35a7.5,7.5,0,0,1-1.06,4,7.23,7.23,0,0,1-3,2.67A10.21,10.21,0,0,1,1238.33,745.77Z"/><path class="cls-5" d="M1250.63,745.28v-2h3.53V722.59h-3.53v-2.05h9.4c3.23,0,5.75.82,7.54,2.46s2.7,4.19,2.71,7.65v4.56q0,5.19-2.71,7.63t-7.54,2.44Zm5.79-2H1260a8.49,8.49,0,0,0,5.93-1.87c1.37-1.25,2-3.26,2.06-6v-4.77q0-4.2-2.06-6.06a8.53,8.53,0,0,0-5.93-1.85h-3.61Z"/><path class="cls-5" d="M1284.48,745.28V720.54h4.42l7.49,23.4h.43l7.49-23.4h4.41v24.74h-2.18v-23.4h-.43l-7.49,23.4h-4l-7.49-23.4h-.43v23.4Z"/><path class="cls-5" d="M1322.72,745.77a9.13,9.13,0,0,1-4.58-1.11,7.81,7.81,0,0,1-3-3.11,9.63,9.63,0,0,1-1.07-4.65v-.42a9.63,9.63,0,0,1,1.07-4.65,7.81,7.81,0,0,1,3-3.11,10,10,0,0,1,9.15,0,7.68,7.68,0,0,1,3,3.11,9.5,9.5,0,0,1,1.08,4.65v.42a9.5,9.5,0,0,1-1.08,4.65,7.68,7.68,0,0,1-3,3.11A9.12,9.12,0,0,1,1322.72,745.77Zm0-1.9a6.22,6.22,0,0,0,4.81-1.93,7.27,7.27,0,0,0,1.76-5.11v-.28a7.29,7.29,0,0,0-1.76-5.11,7,7,0,0,0-9.6,0,7.24,7.24,0,0,0-1.78,5.11v.28a7.24,7.24,0,0,0,1.78,5.11A6.25,6.25,0,0,0,1322.72,743.87Z"/><path class="cls-5" d="M1344.21,745.77a8.23,8.23,0,0,1-4.17-1.07,7.93,7.93,0,0,1-3-3.08,9.58,9.58,0,0,1-1.11-4.72v-.42a9.69,9.69,0,0,1,1.09-4.72,7.7,7.7,0,0,1,3-3.07,8.31,8.31,0,0,1,4.19-1.08,8.78,8.78,0,0,1,3.21.51,6.47,6.47,0,0,1,2.14,1.31,6.6,6.6,0,0,1,1.29,1.68h.42V720.54h2.12v24.74h-2.05v-3.15h-.42a7.28,7.28,0,0,1-2.31,2.53A7.56,7.56,0,0,1,1344.21,745.77Zm.49-1.9a6.31,6.31,0,0,0,4.75-1.88,7.1,7.1,0,0,0,1.82-5.16v-.28a7.1,7.1,0,0,0-1.82-5.16,6.6,6.6,0,0,0-11.32,5.16v.28A7,7,0,0,0,1340,742,6.35,6.35,0,0,0,1344.7,743.87Z"/><path class="cls-5" d="M1367.53,745.77a9.14,9.14,0,0,1-4.61-1.11,7.75,7.75,0,0,1-3.06-3.13,9.58,9.58,0,0,1-1.1-4.63v-.42a9.41,9.41,0,0,1,1.1-4.65,7.94,7.94,0,0,1,3-3.11,9.39,9.39,0,0,1,8.66-.1,7.25,7.25,0,0,1,2.92,2.89,9.2,9.2,0,0,1,1.06,4.51v1.13h-14.64a6.88,6.88,0,0,0,2,5,6.54,6.54,0,0,0,4.68,1.75,5.74,5.74,0,0,0,3.73-1.1,7.27,7.27,0,0,0,2-2.69l1.91.85a10.33,10.33,0,0,1-1.47,2.28,7.15,7.15,0,0,1-2.42,1.84A8.67,8.67,0,0,1,1367.53,745.77Zm-6.61-10.46h12.44a5.91,5.91,0,0,0-1.8-4.29,6.14,6.14,0,0,0-4.28-1.5A6.25,6.25,0,0,0,1363,731,6.71,6.71,0,0,0,1360.92,735.31Z"/><path class="cls-5" d="M1380.74,745.28V720.54h2.13v24.74Z"/><path class="cls-5" d="M1390.14,725.13a1.79,1.79,0,0,1-1.83-1.75v-.08a1.75,1.75,0,0,1,.53-1.33,1.83,1.83,0,0,1,2.59,0,1.86,1.86,0,0,1,.55,1.36,1.82,1.82,0,0,1-.51,1.31A1.78,1.78,0,0,1,1390.14,725.13Zm-1.06,20.15V728.1h2.13v17.18Z"/><path class="cls-5" d="M1397.42,745.28V728.1h2v3.18h.43a6.49,6.49,0,0,1,2.08-2.45,7,7,0,0,1,4.21-1.08,7.56,7.56,0,0,1,3.43.78,5.94,5.94,0,0,1,2.49,2.35,7.64,7.64,0,0,1,.93,3.94v10.46h-2.12V735a5.16,5.16,0,0,0-1.41-4.06,5.52,5.52,0,0,0-3.78-1.24,6,6,0,0,0-4.42,1.75,7.14,7.14,0,0,0-1.77,5.28v8.59Z"/><path class="cls-5" d="M1418.2,736.76v-.42a9.16,9.16,0,0,1,1.12-4.67,7.86,7.86,0,0,1,3-3,8.32,8.32,0,0,1,4.17-1.06,7.56,7.56,0,0,1,4.4,1.11,7.4,7.4,0,0,1,2.32,2.53h.42V728.1h2v21.56a2.75,2.75,0,0,1-.67,2,2.71,2.71,0,0,1-2,.71h-11.73v-1.91h11.31a1,1,0,0,0,1.09-.9V742h-.42a7.4,7.4,0,0,1-1.29,1.66,6.26,6.26,0,0,1-2.14,1.33,8.8,8.8,0,0,1-3.22.51,8.39,8.39,0,0,1-4.18-1.06,7.72,7.72,0,0,1-3-3A9.34,9.34,0,0,1,1418.2,736.76Zm8.77,6.82a6.38,6.38,0,0,0,4.75-1.84,6.88,6.88,0,0,0,1.82-5v-.28a6.87,6.87,0,0,0-1.82-5.07,7.11,7.11,0,0,0-9.49,0,6.84,6.84,0,0,0-1.84,5.07v.28a6.84,6.84,0,0,0,1.84,5,6.42,6.42,0,0,0,4.77,1.84Z"/><path class="cls-5" d="M680.16,804.28l-4.35-24.74h2.3l4,23.4h.42l5.13-23.4h4.17l5.12,23.4h.42l4-23.4h2.3l-4.35,24.74H695l-5.13-23.4h-.42l-5.13,23.4Z"/><path class="cls-5" d="M715.43,804.77a9.14,9.14,0,0,1-4.61-1.11,7.75,7.75,0,0,1-3.06-3.13,9.58,9.58,0,0,1-1.1-4.63v-.42a9.41,9.41,0,0,1,1.1-4.65,7.94,7.94,0,0,1,3-3.11,9.39,9.39,0,0,1,8.66-.1,7.23,7.23,0,0,1,2.91,2.89,9.09,9.09,0,0,1,1.06,4.51v1.13H708.78a6.86,6.86,0,0,0,2,5,6.56,6.56,0,0,0,4.69,1.75,5.74,5.74,0,0,0,3.73-1.1,7.27,7.27,0,0,0,2-2.69l1.91.85a10.33,10.33,0,0,1-1.47,2.28,7.28,7.28,0,0,1-2.42,1.84A8.66,8.66,0,0,1,715.43,804.77Zm-6.61-10.46h12.44a6,6,0,0,0-1.8-4.29,6.14,6.14,0,0,0-4.28-1.5,6.22,6.22,0,0,0-4.28,1.5A6.76,6.76,0,0,0,708.82,794.31Z"/><path class="cls-5" d="M737.83,804.77a7.56,7.56,0,0,1-4.4-1.11,7.1,7.1,0,0,1-2.31-2.53h-.43v3.15h-2.05V779.54h2.12v10.57h.43a6.32,6.32,0,0,1,3.44-3,8.94,8.94,0,0,1,3.2-.51,8.28,8.28,0,0,1,4.21,1.08,7.77,7.77,0,0,1,3,3.07,9.69,9.69,0,0,1,1.09,4.72v.42a9.58,9.58,0,0,1-1.11,4.72,7.93,7.93,0,0,1-3,3.08A8.3,8.3,0,0,1,737.83,804.77Zm-.49-1.9a6.31,6.31,0,0,0,4.75-1.88,7.1,7.1,0,0,0,1.82-5.16v-.28a7.1,7.1,0,0,0-1.82-5.16,7,7,0,0,0-9.49,0,7.09,7.09,0,0,0-1.84,5.16v.28A7.09,7.09,0,0,0,732.6,801,6.33,6.33,0,0,0,737.34,802.87Z"/><path class="cls-5" d="M759.18,804.28v-2h3.53V781.59h-3.53v-2.05h9.4c3.22,0,5.74.82,7.54,2.46s2.7,4.18,2.7,7.65v4.56q0,5.19-2.7,7.63c-1.8,1.63-4.32,2.44-7.54,2.44Zm5.79-2h3.61a8.49,8.49,0,0,0,5.93-1.87c1.37-1.25,2-3.26,2-6v-4.77q0-4.2-2-6.06a8.53,8.53,0,0,0-5.93-1.85H765Z"/><path class="cls-5" d="M791.9,804.77a9.14,9.14,0,0,1-4.61-1.11,7.75,7.75,0,0,1-3.06-3.13,9.57,9.57,0,0,1-1.09-4.63v-.42a9.51,9.51,0,0,1,1.09-4.65,7.94,7.94,0,0,1,3-3.11,9.39,9.39,0,0,1,8.66-.1,7.25,7.25,0,0,1,2.92,2.89,9.2,9.2,0,0,1,1.06,4.51v1.13H785.26a6.82,6.82,0,0,0,2,5,6.54,6.54,0,0,0,4.68,1.75,5.74,5.74,0,0,0,3.73-1.1,7.27,7.27,0,0,0,2-2.69l1.91.85a10,10,0,0,1-1.47,2.28,7.15,7.15,0,0,1-2.42,1.84A8.66,8.66,0,0,1,791.9,804.77Zm-6.61-10.46h12.44a5.87,5.87,0,0,0-1.8-4.29,6.84,6.84,0,0,0-8.55,0,6.72,6.72,0,0,0-2.09,4.29Z"/><path class="cls-5" d="M811.94,804.77a9.28,9.28,0,0,1-5.32-1.48,6.76,6.76,0,0,1-2.71-4.91L806,798a6,6,0,0,0,1.15,3,4.8,4.8,0,0,0,2.12,1.54,7.85,7.85,0,0,0,2.67.46,6,6,0,0,0,3.41-.87,2.75,2.75,0,0,0,1.29-2.39,2.19,2.19,0,0,0-1.22-2.15,12.3,12.3,0,0,0-3.24-1l-1.62-.28a13,13,0,0,1-2.93-.86,5.11,5.11,0,0,1-2.07-1.58,3.9,3.9,0,0,1-.76-2.47,4.08,4.08,0,0,1,1.75-3.5,9.09,9.09,0,0,1,9.36,0,5.93,5.93,0,0,1,2.25,3.84l-2,.42a4.08,4.08,0,0,0-1.68-2.9,6.1,6.1,0,0,0-3.31-.84,5.73,5.73,0,0,0-3.11.74,2.42,2.42,0,0,0-1.16,2.19,2.25,2.25,0,0,0,1.06,2.07,8.34,8.34,0,0,0,2.9,1l1.62.28a15.83,15.83,0,0,1,3.18.83,5.56,5.56,0,0,1,2.25,1.54,4,4,0,0,1,.83,2.61,4.38,4.38,0,0,1-1.84,3.77A8.37,8.37,0,0,1,811.94,804.77Z"/><path class="cls-5" d="M824.83,784.13a1.79,1.79,0,0,1-1.83-1.75v-.08a1.75,1.75,0,0,1,.53-1.33,1.83,1.83,0,0,1,2.59,0,1.86,1.86,0,0,1,.55,1.36,1.82,1.82,0,0,1-.51,1.31A1.78,1.78,0,0,1,824.83,784.13Zm-1.06,20.15V787.1h2.13v17.18Z"/><path class="cls-5" d="M831.27,795.76v-.42a9.26,9.26,0,0,1,1.11-4.67,8,8,0,0,1,3-3,8.22,8.22,0,0,1,4.17-1.06,7.56,7.56,0,0,1,4.4,1.11,7.37,7.37,0,0,1,2.31,2.53h.42V787.1h2v21.56a2.75,2.75,0,0,1-.67,2,2.71,2.71,0,0,1-2,.71H834.2v-1.91h11.31a1,1,0,0,0,1.09-.9V801h-.42a7.4,7.4,0,0,1-1.29,1.66,6,6,0,0,1-2.14,1.33,8.78,8.78,0,0,1-3.21.51,8.4,8.4,0,0,1-4.19-1.06,7.72,7.72,0,0,1-3-3A9.4,9.4,0,0,1,831.27,795.76Zm8.76,6.82a6.34,6.34,0,0,0,4.75-1.84,6.84,6.84,0,0,0,1.82-5v-.28a6.82,6.82,0,0,0-1.82-5.07,7.08,7.08,0,0,0-9.48,0,6.79,6.79,0,0,0-1.84,5.07v.28a6.8,6.8,0,0,0,1.84,5,6.4,6.4,0,0,0,4.7,1.84Z"/><path class="cls-5" d="M854.87,804.28V787.1h2v3.18h.43a6.49,6.49,0,0,1,2.08-2.45,7,7,0,0,1,4.21-1.08,7.49,7.49,0,0,1,3.42.78,6,6,0,0,1,2.5,2.35,7.64,7.64,0,0,1,.93,3.94v10.46h-2.12V794a5.15,5.15,0,0,0-1.32-4.1,5.52,5.52,0,0,0-3.78-1.24,6,6,0,0,0-4.42,1.75,7.14,7.14,0,0,0-1.77,5.28v8.59Z"/><path class="cls-5" d="M890.88,804.77a8.16,8.16,0,0,1-3.27-.62,5.23,5.23,0,0,1-2.31-1.82,4.88,4.88,0,0,1-.85-2.89,4.68,4.68,0,0,1,.85-2.87,5.09,5.09,0,0,1,2.3-1.69,8.56,8.56,0,0,1,3.21-.57h6.29v-1.38a4.31,4.31,0,0,0-1.2-3.25,4.86,4.86,0,0,0-3.5-1.16,5.36,5.36,0,0,0-3.58,1.11,5.45,5.45,0,0,0-1.79,3l-2-.6a8,8,0,0,1,1.34-2.74,6.52,6.52,0,0,1,2.44-1.95,8.46,8.46,0,0,1,3.64-.72,7,7,0,0,1,5,1.69,6.24,6.24,0,0,1,1.78,4.74v8.34c0,.71.33,1.06,1,1.06h1.66v1.84h-2.26a2.33,2.33,0,0,1-1.73-.66,2.46,2.46,0,0,1-.64-1.78v-.25h-.35a8.26,8.26,0,0,1-1.18,1.52,5.3,5.3,0,0,1-1.89,1.2A7.84,7.84,0,0,1,890.88,804.77Zm.14-1.9a6,6,0,0,0,4.4-1.65,6.19,6.19,0,0,0,1.68-4.65v-.42h-6.25a5.49,5.49,0,0,0-3.06.8,2.72,2.72,0,0,0-1.22,2.45,3,3,0,0,0,1.26,2.56,5.32,5.32,0,0,0,3.17.91Z"/><path class="cls-5" d="M905.9,804.28V787.1H908v3.18h.43a6.49,6.49,0,0,1,2.08-2.45,7,7,0,0,1,4.21-1.08,7.49,7.49,0,0,1,3.42.78,5.94,5.94,0,0,1,2.49,2.35,7.53,7.53,0,0,1,.94,3.94v10.46H919.4V794a5.13,5.13,0,0,0-1.4-4.1,5.52,5.52,0,0,0-3.78-1.24,6,6,0,0,0-4.42,1.75,7.14,7.14,0,0,0-1.77,5.28v8.59Z"/><path class="cls-5" d="M935,804.77a8.23,8.23,0,0,1-4.17-1.07,8,8,0,0,1-3-3.08,9.58,9.58,0,0,1-1.11-4.72v-.42a9.68,9.68,0,0,1,1.1-4.72,7.7,7.7,0,0,1,3-3.07,8.31,8.31,0,0,1,4.19-1.08,9,9,0,0,1,3.22.51,6.42,6.42,0,0,1,2.13,1.31,6.22,6.22,0,0,1,1.29,1.68H942V779.54h2.12v24.74h-2v-3.15h-.42a7.31,7.31,0,0,1-2.32,2.53A7.5,7.5,0,0,1,935,804.77Zm.5-1.9a6.32,6.32,0,0,0,4.7-1.87,7.1,7.1,0,0,0,1.82-5.16v-.28a7.1,7.1,0,0,0-1.82-5.16,6.61,6.61,0,0,0-11.33,5.16v.28a7,7,0,0,0,1.84,5.16,6.33,6.33,0,0,0,4.74,1.87Z"/><path class="cls-5" d="M958.06,804.28v-2h3.54V781.59h-3.54v-2.05h9.4q4.85,0,7.55,2.46t2.7,7.65v4.56q0,5.19-2.7,7.63t-7.55,2.44Zm5.8-2h3.6a8.58,8.58,0,0,0,5.94-1.87c1.37-1.25,2.05-3.26,2.05-6v-4.77q0-4.2-2.05-6.06a8.57,8.57,0,0,0-5.94-1.85h-3.6Z"/><path class="cls-5" d="M990.79,804.77a9.2,9.2,0,0,1-4.62-1.11,7.73,7.73,0,0,1-3-3.13,9.58,9.58,0,0,1-1.1-4.63v-.42a9.41,9.41,0,0,1,1.1-4.65,7.87,7.87,0,0,1,3-3.11,9.39,9.39,0,0,1,8.66-.1,7.29,7.29,0,0,1,2.91,2.89A9.09,9.09,0,0,1,998.8,795v1.13H984.14a6.86,6.86,0,0,0,2,5,6.56,6.56,0,0,0,4.69,1.75,5.69,5.69,0,0,0,3.72-1.1,7.27,7.27,0,0,0,2-2.69l1.91.85a9.94,9.94,0,0,1-1.46,2.28,7.28,7.28,0,0,1-2.42,1.84A8.66,8.66,0,0,1,990.79,804.77Zm-6.61-10.46h12.44a5.92,5.92,0,0,0-1.81-4.29,6.13,6.13,0,0,0-4.27-1.5,6.22,6.22,0,0,0-4.28,1.5A6.76,6.76,0,0,0,984.18,794.31Z"/><path class="cls-5" d="M1007.85,804.28l-6.43-17.18h2.26l5.66,15.55h.42l5.66-15.55h2.26l-6.43,17.18Z"/><path class="cls-5" d="M1029.23,804.77a9.14,9.14,0,0,1-4.61-1.11,7.66,7.66,0,0,1-3-3.13,9.58,9.58,0,0,1-1.1-4.63v-.42a9.41,9.41,0,0,1,1.1-4.65,7.81,7.81,0,0,1,3-3.11,9.39,9.39,0,0,1,8.66-.1,7.29,7.29,0,0,1,2.91,2.89,9.09,9.09,0,0,1,1.06,4.51v1.13h-14.63a6.82,6.82,0,0,0,2,5,6.58,6.58,0,0,0,4.68,1.75,5.74,5.74,0,0,0,3.73-1.1,7.27,7.27,0,0,0,2-2.69l1.91.85a9.94,9.94,0,0,1-1.46,2.28,7.28,7.28,0,0,1-2.42,1.84A8.69,8.69,0,0,1,1029.23,804.77Zm-6.61-10.46h12.44a5.87,5.87,0,0,0-1.8-4.29,6.13,6.13,0,0,0-4.27-1.5,6.22,6.22,0,0,0-4.28,1.5A6.72,6.72,0,0,0,1022.62,794.31Z"/><path class="cls-5" d="M1042.45,804.28V779.54h2.12v24.74Z"/><path class="cls-5" d="M1058.63,804.77a9.12,9.12,0,0,1-4.57-1.11,7.68,7.68,0,0,1-3-3.11,9.61,9.61,0,0,1-1.08-4.65v-.42a9.61,9.61,0,0,1,1.08-4.65,7.68,7.68,0,0,1,3-3.11,10,10,0,0,1,9.15,0,7.68,7.68,0,0,1,3,3.11,9.5,9.5,0,0,1,1.08,4.65v.42a9.5,9.5,0,0,1-1.08,4.65,7.68,7.68,0,0,1-3,3.11A9.13,9.13,0,0,1,1058.63,804.77Zm0-1.9a6.22,6.22,0,0,0,4.81-1.93,7.24,7.24,0,0,0,1.77-5.11v-.28a7.24,7.24,0,0,0-1.77-5.11,7,7,0,0,0-9.59,0,7.21,7.21,0,0,0-1.79,5.11v.28a7.21,7.21,0,0,0,1.79,5.11A6.23,6.23,0,0,0,1058.63,802.87Z"/><path class="cls-5" d="M1072.7,811.35V787.1h2v3.15h.42a7.4,7.4,0,0,1,2.32-2.53,7.56,7.56,0,0,1,4.4-1.11,8.14,8.14,0,0,1,4.17,1.08,7.86,7.86,0,0,1,3,3,9.42,9.42,0,0,1,1.12,4.74v.42a9.68,9.68,0,0,1-1.1,4.72,7.79,7.79,0,0,1-3,3.08,8.34,8.34,0,0,1-4.2,1.07,8.94,8.94,0,0,1-3.2-.51,6.28,6.28,0,0,1-2.15-1.32,7.28,7.28,0,0,1-1.3-1.67h-.42V811.3Zm8.69-8.48a6.33,6.33,0,0,0,4.76-1.88,7.1,7.1,0,0,0,1.82-5.16v-.28a7.1,7.1,0,0,0-1.82-5.16,6.61,6.61,0,0,0-11.33,5.16v.28a7,7,0,0,0,1.84,5.16,6.34,6.34,0,0,0,4.73,1.88Z"/><path class="cls-5" d="M1095.53,804.28V787.1h2v2.27h.42a5.6,5.6,0,0,1,1.7-1.79,5.7,5.7,0,0,1,3.32-.83,5.57,5.57,0,0,1,3.38,1,5.48,5.48,0,0,1,1.85,2.3h.43a5.38,5.38,0,0,1,5.44-3.25,6.2,6.2,0,0,1,3.07.72,5.19,5.19,0,0,1,2,2,5.93,5.93,0,0,1,.74,3v11.77h-2.12V792.72a4,4,0,0,0-1.11-3,4.25,4.25,0,0,0-3.13-1.11,4.74,4.74,0,0,0-3.42,1.32,5.12,5.12,0,0,0-1.38,3.87v10.43h-2.12V792.72a4,4,0,0,0-1.12-3,4.22,4.22,0,0,0-3.12-1.11A4.75,4.75,0,0,0,1099,790a5.12,5.12,0,0,0-1.38,3.87V804.3Z"/><path class="cls-5" d="M1133.91,804.77a9.2,9.2,0,0,1-4.62-1.11,7.73,7.73,0,0,1-3-3.13,9.58,9.58,0,0,1-1.1-4.63v-.42a9.52,9.52,0,0,1,1.1-4.65,7.94,7.94,0,0,1,3-3.11,9.39,9.39,0,0,1,8.66-.1,7.23,7.23,0,0,1,2.91,2.89,9.09,9.09,0,0,1,1.06,4.51v1.13h-14.63a6.86,6.86,0,0,0,2,5,6.56,6.56,0,0,0,4.69,1.75,5.69,5.69,0,0,0,3.72-1.1,7.27,7.27,0,0,0,2-2.69l1.91.85a10.33,10.33,0,0,1-1.47,2.28,7.28,7.28,0,0,1-2.42,1.84A8.72,8.72,0,0,1,1133.91,804.77Zm-6.61-10.46h12.44a6,6,0,0,0-1.8-4.29,6.14,6.14,0,0,0-4.28-1.5,6.22,6.22,0,0,0-4.28,1.5A6.76,6.76,0,0,0,1127.3,794.31Z"/><path class="cls-5" d="M1147.12,804.28V787.1h2.05v3.18h.43a6.49,6.49,0,0,1,2.08-2.45,7,7,0,0,1,4.21-1.08,7.56,7.56,0,0,1,3.43.78,5.94,5.94,0,0,1,2.49,2.35,7.64,7.64,0,0,1,.93,3.94v10.46h-2.12V794a5.16,5.16,0,0,0-1.41-4.06,5.52,5.52,0,0,0-3.78-1.24,6,6,0,0,0-4.42,1.75,7.14,7.14,0,0,0-1.77,5.28v8.59Z"/><path class="cls-5" d="M1174.48,804.28a2.76,2.76,0,0,1-2.07-.71,2.73,2.73,0,0,1-.69-2V789h-5.51v-1.9h5.51v-6.43h2.12v6.43h6V789h-6v12.3a.93.93,0,0,0,.78,1.06h4.28v1.91Z"/><path class="cls-5" d="M1202.75,813V775.79h2.12V813Z"/><path class="cls-5" d="M1231.62,804.28l-4.35-24.74h2.3l4,23.4h.42l5.12-23.4h4.17l5.13,23.4h.42l4-23.4h2.3l-4.35,24.74h-4.2l-5.13-23.4H1241l-5.13,23.4Z"/><path class="cls-5" d="M1266.89,804.77a9.14,9.14,0,0,1-4.61-1.11,7.75,7.75,0,0,1-3.06-3.13,9.58,9.58,0,0,1-1.1-4.63v-.42a9.41,9.41,0,0,1,1.1-4.65,7.94,7.94,0,0,1,3-3.11,9.39,9.39,0,0,1,8.66-.1,7.23,7.23,0,0,1,2.91,2.89,9.09,9.09,0,0,1,1.06,4.51v1.13h-14.63a6.86,6.86,0,0,0,2,5,6.54,6.54,0,0,0,4.68,1.75,5.74,5.74,0,0,0,3.73-1.1,7.27,7.27,0,0,0,2-2.69l1.9.85a9.94,9.94,0,0,1-1.46,2.28,7.28,7.28,0,0,1-2.42,1.84A8.67,8.67,0,0,1,1266.89,804.77Zm-6.61-10.46h12.44a6,6,0,0,0-1.8-4.29,6.14,6.14,0,0,0-4.28-1.5,6.22,6.22,0,0,0-4.28,1.5A6.76,6.76,0,0,0,1260.28,794.31Z"/><path class="cls-5" d="M1289.29,804.77a7.56,7.56,0,0,1-4.4-1.11,7.1,7.1,0,0,1-2.31-2.53h-.43v3.15h-2.05V779.54h2.12v10.57h.43a6.32,6.32,0,0,1,3.44-3,8.94,8.94,0,0,1,3.2-.51,8.28,8.28,0,0,1,4.21,1.08,7.77,7.77,0,0,1,3,3.07,9.57,9.57,0,0,1,1.1,4.72v.42a9.58,9.58,0,0,1-1.11,4.72,7.93,7.93,0,0,1-3,3.08A8.34,8.34,0,0,1,1289.29,804.77Zm-.5-1.9a6.33,6.33,0,0,0,4.76-1.88,7.1,7.1,0,0,0,1.82-5.16v-.28a7.1,7.1,0,0,0-1.82-5.16,7,7,0,0,0-9.49,0,7.09,7.09,0,0,0-1.84,5.16v.28a7.09,7.09,0,0,0,1.84,5.16A6.34,6.34,0,0,0,1288.79,802.87Z"/><path class="cls-5" d="M1309.43,804.28l8.1-24.74h4l8.1,24.74h-2.37l-2.12-6.57H1313.9l-2.12,6.57Zm5.13-8.62h10l-4.77-14.78h-.42Z"/><path class="cls-5" d="M1333.75,811.35V787.1h2v3.15h.42a7.31,7.31,0,0,1,2.32-2.53,7.56,7.56,0,0,1,4.4-1.11,8.14,8.14,0,0,1,4.17,1.08,8,8,0,0,1,3,3,9.55,9.55,0,0,1,1.12,4.74v.42a9.68,9.68,0,0,1-1.1,4.72,7.79,7.79,0,0,1-3,3.08,8.34,8.34,0,0,1-4.2,1.07,8.94,8.94,0,0,1-3.2-.51,6.32,6.32,0,0,1-2.16-1.32,7.24,7.24,0,0,1-1.29-1.67h-.42V811.3Zm8.69-8.48a6.31,6.31,0,0,0,4.75-1.88,7.1,7.1,0,0,0,1.82-5.16v-.28a7.1,7.1,0,0,0-1.82-5.16,6.6,6.6,0,0,0-11.32,5.16v.28a7,7,0,0,0,1.84,5.16A6.34,6.34,0,0,0,1342.44,802.87Z"/><path class="cls-5" d="M1356.58,811.35V787.1h2v3.15h.43a7.31,7.31,0,0,1,2.32-2.53,7.53,7.53,0,0,1,4.39-1.11,8.14,8.14,0,0,1,4.17,1.08,8,8,0,0,1,3,3,9.54,9.54,0,0,1,1.11,4.74v.42a9.69,9.69,0,0,1-1.09,4.72,7.79,7.79,0,0,1-3,3.08,8.38,8.38,0,0,1-4.21,1.07,8.86,8.86,0,0,1-3.19-.51,6.32,6.32,0,0,1-2.16-1.32,7.24,7.24,0,0,1-1.29-1.67h-.42V811.3Zm8.69-8.48A6.31,6.31,0,0,0,1370,801a7.1,7.1,0,0,0,1.82-5.16v-.28a7.1,7.1,0,0,0-1.82-5.16,6.6,6.6,0,0,0-11.32,5.16v.28a7,7,0,0,0,1.83,5.16,6.37,6.37,0,0,0,4.76,1.87Z"/><path class="cls-5" d="M1387.11,804.28v-2h3.53V781.59h-3.53v-2.05h9.4c3.23,0,5.75.82,7.54,2.46s2.7,4.19,2.71,7.65v4.56q0,5.19-2.71,7.63t-7.54,2.44Zm5.79-2h3.61a8.57,8.57,0,0,0,5.94-1.87c1.36-1.25,2-3.27,2-6v-4.77c0-2.8-.69-4.82-2-6.06a8.57,8.57,0,0,0-5.94-1.85h-3.61Z"/><path class="cls-5" d="M1419.83,804.77a9.14,9.14,0,0,1-4.61-1.11,7.75,7.75,0,0,1-3.06-3.13,9.57,9.57,0,0,1-1.09-4.63v-.42a9.51,9.51,0,0,1,1.09-4.65,7.87,7.87,0,0,1,3-3.11,9.37,9.37,0,0,1,8.65-.1,7.25,7.25,0,0,1,2.92,2.89,9.2,9.2,0,0,1,1.06,4.51v1.13h-14.63a6.82,6.82,0,0,0,2,5,6.58,6.58,0,0,0,4.68,1.75,5.74,5.74,0,0,0,3.73-1.1,7.27,7.27,0,0,0,2-2.69l1.91.85a9.46,9.46,0,0,1-1.47,2.28,7.15,7.15,0,0,1-2.42,1.84A8.67,8.67,0,0,1,1419.83,804.77Zm-6.61-10.46h12.44a5.87,5.87,0,0,0-1.8-4.29,6.14,6.14,0,0,0-4.28-1.5,6.23,6.23,0,0,0-4.27,1.5A6.72,6.72,0,0,0,1413.22,794.31Z"/><path class="cls-5" d="M1436.9,804.28l-6.43-17.18h2.26l5.65,15.55h.43l5.65-15.55h2.26l-6.43,17.18Z"/><path class="cls-5" d="M1458.28,804.77a9.14,9.14,0,0,1-4.61-1.11,7.75,7.75,0,0,1-3.06-3.13,9.57,9.57,0,0,1-1.09-4.63v-.42a9.51,9.51,0,0,1,1.09-4.65,7.94,7.94,0,0,1,3-3.11,9.39,9.39,0,0,1,8.66-.1,7.25,7.25,0,0,1,2.92,2.89,9.2,9.2,0,0,1,1.06,4.51v1.13h-14.63a6.82,6.82,0,0,0,2,5,6.58,6.58,0,0,0,4.68,1.75,5.74,5.74,0,0,0,3.73-1.1,7.27,7.27,0,0,0,2-2.69l1.91.85a9.46,9.46,0,0,1-1.47,2.28,7.15,7.15,0,0,1-2.42,1.84A8.71,8.71,0,0,1,1458.28,804.77Zm-6.61-10.46h12.44a5.87,5.87,0,0,0-1.8-4.29,6.84,6.84,0,0,0-8.55,0A6.72,6.72,0,0,0,1451.67,794.31Z"/><path class="cls-5" d="M1471.5,804.28V779.54h2.12v24.74Z"/><path class="cls-5" d="M1487.68,804.77a9.12,9.12,0,0,1-4.57-1.11,7.68,7.68,0,0,1-3-3.11,9.61,9.61,0,0,1-1.08-4.65v-.42a9.61,9.61,0,0,1,1.08-4.65,7.68,7.68,0,0,1,3-3.11,10,10,0,0,1,9.15,0,7.68,7.68,0,0,1,3,3.11,9.5,9.5,0,0,1,1.08,4.65v.42a9.5,9.5,0,0,1-1.08,4.65,7.68,7.68,0,0,1-3,3.11A9.13,9.13,0,0,1,1487.68,804.77Zm0-1.9a6.22,6.22,0,0,0,4.81-1.93,7.24,7.24,0,0,0,1.77-5.11v-.28a7.24,7.24,0,0,0-1.77-5.11,7,7,0,0,0-9.6,0,7.24,7.24,0,0,0-1.78,5.11v.28a7.24,7.24,0,0,0,1.78,5.11A6.25,6.25,0,0,0,1487.68,802.87Z"/><path class="cls-5" d="M1501.75,811.35V787.1h2v3.15h.42a7.31,7.31,0,0,1,2.32-2.53,7.56,7.56,0,0,1,4.4-1.11,8.14,8.14,0,0,1,4.17,1.08,8,8,0,0,1,3,3,9.55,9.55,0,0,1,1.12,4.74v.42a9.68,9.68,0,0,1-1.1,4.72,7.79,7.79,0,0,1-3,3.08,8.34,8.34,0,0,1-4.2,1.07,8.94,8.94,0,0,1-3.2-.51,6.32,6.32,0,0,1-2.16-1.32,7.24,7.24,0,0,1-1.29-1.67h-.42V811.3Zm8.69-8.48a6.31,6.31,0,0,0,4.75-1.88,7.1,7.1,0,0,0,1.82-5.16v-.28a7.1,7.1,0,0,0-1.82-5.16,6.6,6.6,0,0,0-11.32,5.16v.28a7,7,0,0,0,1.84,5.16A6.34,6.34,0,0,0,1510.44,802.87Z"/><path class="cls-5" d="M1524.58,804.28V787.1h2v2.27h.43a5.39,5.39,0,0,1,1.7-1.79,5.68,5.68,0,0,1,3.32-.83,5.33,5.33,0,0,1,5.23,3.25h.42a5.43,5.43,0,0,1,5.44-3.25,6.24,6.24,0,0,1,3.08.72,5.48,5.48,0,0,1,2,2,6,6,0,0,1,.74,3v11.77h-2.12V792.72a4,4,0,0,0-1.11-3,4.25,4.25,0,0,0-3.13-1.11,4.76,4.76,0,0,0-3.43,1.32,5.12,5.12,0,0,0-1.38,3.87v10.43h-2.12V792.72a4,4,0,0,0-1.11-3,4.25,4.25,0,0,0-3.13-1.11,4.8,4.8,0,0,0-3.43,1.32,5.17,5.17,0,0,0-1.37,3.87v10.43Z"/><path class="cls-5" d="M1563,804.77a9.14,9.14,0,0,1-4.61-1.11,7.73,7.73,0,0,1-3-3.13,9.34,9.34,0,0,1-1.1-4.63v-.42a9.41,9.41,0,0,1,1.1-4.65,7.87,7.87,0,0,1,3-3.11,9.37,9.37,0,0,1,8.65-.1,7.25,7.25,0,0,1,2.92,2.89A9.09,9.09,0,0,1,1571,795v1.13h-14.63a6.86,6.86,0,0,0,2,5,6.58,6.58,0,0,0,4.68,1.75,5.74,5.74,0,0,0,3.73-1.1,7.27,7.27,0,0,0,2-2.69l1.91.85a9.94,9.94,0,0,1-1.46,2.28,7.32,7.32,0,0,1-2.43,1.84A8.62,8.62,0,0,1,1563,804.77Zm-6.6-10.46h12.44A5.94,5.94,0,0,0,1567,790a6.09,6.09,0,0,0-4.27-1.5,6.22,6.22,0,0,0-4.28,1.5,6.76,6.76,0,0,0-2.1,4.31Z"/><path class="cls-5" d="M1576.17,804.28V787.1h2v3.18h.42a6.51,6.51,0,0,1,2.09-2.45,7,7,0,0,1,4.21-1.08,7.49,7.49,0,0,1,3.42.78,5.94,5.94,0,0,1,2.49,2.35,7.53,7.53,0,0,1,.94,3.94v10.46h-2.12V794a5.16,5.16,0,0,0-1.41-4.06,5.56,5.56,0,0,0-3.79-1.24,6,6,0,0,0-4.41,1.75,7.14,7.14,0,0,0-1.77,5.28v8.59Z"/><path class="cls-5" d="M1603.52,804.28a2.79,2.79,0,0,1-2.06-.71,2.73,2.73,0,0,1-.69-2V789h-5.52v-1.9h5.52v-6.43h2.12v6.43h6V789h-6v12.3a.93.93,0,0,0,.78,1.06H1608v1.91Z"/></g></svg>