<svg id="Layer_1" data-name="Layer 1" xmlns="http://www.w3.org/2000/svg" viewBox="0 0 1080 1170.07"><defs><style>.cls-1{font-size:286.06px;font-family:SuisseIntl, Suisse Intl;}.cls-2{letter-spacing:0em;}.cls-3{font-family:SuisseIntl-Thin, Suisse Intl;font-weight:200;}.cls-4{font-size:40px;font-family:Raleway-Regular, Raleway;}.cls-5{letter-spacing:-0.01em;}.cls-6{letter-spacing:0em;}.cls-7{letter-spacing:-0.02em;}.cls-8{letter-spacing:-0.01em;}.cls-9{letter-spacing:0em;}.cls-10{letter-spacing:-0.01em;}.cls-11{letter-spacing:-0.01em;}.cls-12{letter-spacing:0em;}.cls-13{letter-spacing:-0.03em;}.cls-14{letter-spacing:-0.01em;}.cls-15{letter-spacing:0em;}.cls-16{letter-spacing:-0.03em;}.cls-17{letter-spacing:-0.02em;}.cls-18{letter-spacing:-0.01em;}.cls-19{letter-spacing:0em;}.cls-20{letter-spacing:-0.02em;}.cls-21{letter-spacing:-0.03em;}.cls-22{letter-spacing:-0.07em;}.cls-23{letter-spacing:-0.01em;}.cls-24{letter-spacing:-0.02em;}.cls-25{letter-spacing:0em;}</style></defs><text class="cls-1" transform="translate(67.3 415.1)">Pl<tspan class="cls-2" x="249.04" y="0">a</tspan><tspan x="407.43" y="0">y</tspan><tspan class="cls-3"><tspan x="0" y="238">Ground</tspan></tspan></text><text class="cls-4" transform="translate(251.64 773.96)">UI/U<tspan class="cls-5" x="94.48" y="0">X</tspan><tspan x="119.32" y="0" xml:space="preserve"> Design | </tspan><tspan class="cls-5" x="287.31" y="0">L</tspan><tspan x="310.2" y="0">ogo and B</tspan><tspan class="cls-6" x="499.55" y="0">r</tspan><tspan x="513.51" y="0">and Design </tspan><tspan x="0" y="53">Video </tspan><tspan class="cls-7" x="118.24" y="53">E</tspan><tspan x="142" y="53">diting | </tspan><tspan class="cls-8" x="275.39" y="53">P</tspan><tspan class="cls-9" x="299.87" y="53">os</tspan><tspan class="cls-10" x="342.99" y="53">t</tspan><tspan x="356.03" y="53">ers | </tspan><tspan class="cls-11" x="442.51" y="53">Mo</tspan><tspan x="500.75" y="53">tion G</tspan><tspan class="cls-12" x="608.83" y="53">r</tspan><tspan x="622.79" y="53">aphics </tspan><tspan x="0" y="106">Video </tspan><tspan class="cls-7" x="118.24" y="106">E</tspan><tspan x="142" y="106">diting | Digita</tspan><tspan class="cls-13" x="381.35" y="106">l</tspan><tspan x="391.03" y="106"> </tspan><tspan class="cls-14" x="401.23" y="106">P</tspan><tspan x="425.87" y="106">ai</tspan><tspan class="cls-15" x="456.39" y="106">n</tspan><tspan x="479.51" y="106">ting and</tspan><tspan class="cls-16" x="629.87" y="106"> </tspan><tspan class="cls-17" x="638.99" y="106">v</tspan><tspan x="659.59" y="106">ec</tspan><tspan class="cls-18" x="705.03" y="106">t</tspan><tspan class="cls-19" x="718.07" y="106">o</tspan><tspan class="cls-20" x="741.87" y="106">r</tspan><tspan x="754.99" y="106"> </tspan><tspan x="0" y="159">art |</tspan><tspan class="cls-21" x="68.68" y="159"> </tspan><tspan class="cls-22" x="77.48" y="159">W</tspan><tspan x="116.64" y="159">eb Design and D</tspan><tspan class="cls-23" x="422.15" y="159">e</tspan><tspan class="cls-24" x="445.07" y="159">v</tspan><tspan x="465.67" y="159">elopme</tspan><tspan class="cls-25" x="608.75" y="159">n</tspan><tspan class="cls-19" x="631.87" y="159">t</tspan><tspan x="0" y="212" xml:space="preserve"> 3D </tspan><tspan class="cls-11" x="70.36" y="212">M</tspan><tspan x="105.12" y="212">odeling</tspan></text></svg>