<svg id="Layer_1" data-name="Layer 1" xmlns="http://www.w3.org/2000/svg" viewBox="0 0 1080 1396.74"><defs><style>.cls-1,.cls-4{fill:#eaeaea;}.cls-1{opacity:0.71;}.cls-2{fill:#80cc09;}.cls-3{opacity:0.15;}</style></defs><path class="cls-1" d="M245.69,417.15H56.77v-63q8.67,0,13.49-.48t6.91-2.25a8.4,8.4,0,0,0,2.57-5.62,90.8,90.8,0,0,0,.48-10.61V296.34a90.8,90.8,0,0,0-.48-10.61,8.42,8.42,0,0,0-2.57-5.62c-1.4-1.17-3.7-1.93-6.91-2.25s-7.71-.48-13.49-.48V214.73H244.41v90.6h-13.5a44.07,44.07,0,0,0-8.19-13.49q-5-5.46-14.14-8.52T184.48,279q-14.94-1.29-38.39-1.61v29.24q17.35-1.29,26.51-3.86a85.79,85.79,0,0,0,16.54-6.42h11.25V332H189.14a63.47,63.47,0,0,0-15.58-6.42q-9.15-2.58-27.47-3.86v32.13q24.42-.64,39.84-2.41t24.58-5.3q9.17-3.54,13.82-9a48.54,48.54,0,0,0,7.87-13.49h13.49Z"/><path class="cls-1" d="M363.93,318.18q4.17,2.26,8.2,4.66t7.55,4.34a45.09,45.09,0,0,0,10.76-9q3.69-4.49,3.7-8.67a16.71,16.71,0,0,0-2.74-9.32q-2.73-4.17-10.76-5.46V242.36h68.44v60.72q-3.21,1.29-9.8,4.5T424.82,315q-7.87,4.18-16.39,9.16t-15.9,9.8q22.17,10.92,36.79,15.42T450,356.1v61H345V364.77a17.21,17.21,0,0,0,10.12-3.53,10.21,10.21,0,0,0,4-8.35A10.54,10.54,0,0,0,357,346.3a27.81,27.81,0,0,0-6.27-5.62q-4.18-2.9-8.19-5.31t-8.2-4.65a72,72,0,0,0-13.17,10q-4.81,4.81-4.82,9.64a15.24,15.24,0,0,0,2.89,9.15c1.93,2.68,5.67,4.45,11.25,5.3v52.38H262.08v-61q3.53-1.28,10.44-4.66t15.26-7.87q8.36-4.5,17.35-9.64t16.71-10q-21.21-10.61-37.11-15.1t-21.37-6.43V242h102.5v52.69q-6.11.33-9,3.21c-1.92,1.93-2.89,4.61-2.89,8a9.83,9.83,0,0,0,2.41,6.42A26.91,26.91,0,0,0,363.93,318.18Z"/><path class="cls-1" d="M619.69,350.32q-20.57,0-36.63-5.79t-25.38-14.14h-3.86v12.86a43.18,43.18,0,0,0,1,10.44,8.56,8.56,0,0,0,4.82,5.62q3.85,1.94,11.56,2.25t21.21.32v55.27H467.07v-63q17,0,20.24-2.73t3.22-16.23V299.55q0-15.74-3.22-19t-20.24-3.21V214.73H591.74q45.3,0,65.38,14.77t20.08,55.59q0,19.92-5,32.61t-13,19.92a43.78,43.78,0,0,1-18.31,10A81.93,81.93,0,0,1,619.69,350.32ZM584,277.38h-30.2v42.09H582.1q17.34,0,23.93-5t6.59-15.9q0-12.54-6.26-16.87T584,277.38Z"/><path class="cls-1" d="M236.7,557.19q0,31.48-18.64,50.93t-62.65,19.44q-49.48,0-75.51-21.85t-26-70.37q0-46.91,24.26-68.12T149.62,446q25.07,0,42.09,5.46t27,15.26a55.33,55.33,0,0,1,14.14,23A94.25,94.25,0,0,1,237,518.31v12.85q0,6.75-.32,13.18h-116q2.24,17,12.21,23t26.34,6q18.31,0,24.74-4.5t6.11-11.57ZM149,497.11q-12.85,0-20.24,7.06T120.06,528h55.59q-.33-19.28-7.55-25.06T149,497.11Z"/><path class="cls-1" d="M385.78,446.34V517a236,236,0,0,0-27.47,1.28q-10.44,1.29-16.07,4.66a16,16,0,0,0-7.39,8.84,44.29,44.29,0,0,0-1.76,13.49v5.14a10.28,10.28,0,0,0,5.78,9.8q5.79,3.06,27.31,3v61.05H253.4V563.29q10.29,0,13.34-4.65T269.79,544V529.24q0-10.92-3.05-15.1T253.4,510V449.23h68.76v70h8.68q1.28-23.14,4.5-37.6t9.47-22.33A29.73,29.73,0,0,1,361,448.91Q371,446.35,385.78,446.34Z"/><path class="cls-1" d="M621.61,449.23V544q0,10,2.89,14.62T637,563.29v61.05H537.75V563.29q10.28,0,13.34-4.65t3-14.62V529.24q0-10.92-3-15.1T537.75,510V449.23Z"/><path class="cls-1" d="M828.85,579.68a61,61,0,0,1-2.73,18.15,39.5,39.5,0,0,1-8.84,15.43,42.14,42.14,0,0,1-16.22,10.44q-10.12,3.85-24.58,3.86a134,134,0,0,1-26.19-2.25,39.44,39.44,0,0,1-18.47-8.68q-7.4-6.42-11.73-17.67t-5.63-29.24H703.54v54.62h-52V556.23h65.87a15.5,15.5,0,0,0,8.67,10q6.42,2.88,16.71,2.89,8,0,12.21-2.89t4.18-9.32q0-6.11-3.38-9.48T741.46,544q-9.65,0-19.77.32t-20.72.32q-28.28,0-38.56-14.62T652.13,495.5A58.21,58.21,0,0,1,655,477.35a43.32,43.32,0,0,1,24.58-26.83q9.48-4.17,22.66-4.18a95.24,95.24,0,0,1,23.29,2.57,36.88,36.88,0,0,1,17,9.32q6.9,6.75,11.08,18.47t6.11,29.72h10.92V449.23h52.38v71H757.2q-2.25-9.32-8.2-12.05a34,34,0,0,0-14.29-2.73q-10.61,0-14.78,3.53a11.27,11.27,0,0,0-4.18,9q0,6.1,4.66,9.16t17.51,3.05c.85,0,2.78-.05,5.78-.16s6.43-.21,10.29-.32l11.88-.32q6.11-.17,10.28-.16,16.71,0,27,3.69t16.06,10.28a34.06,34.06,0,0,1,7.71,15.91A101.33,101.33,0,0,1,828.85,579.68Z"/><path class="cls-1" d="M1025.8,557.19q0,31.48-18.63,50.93t-62.66,19.44q-49.47,0-75.5-21.85t-26-70.37q0-46.91,24.26-68.12T938.73,446q25.07,0,42.09,5.46t27,15.26a55.33,55.33,0,0,1,14.14,23,94.25,94.25,0,0,1,4.18,28.59v12.85q0,6.75-.33,13.18h-116q2.25,17,12.21,23t26.35,6q18.32,0,24.74-4.5t6.11-11.57Zm-87.71-60.08q-12.86,0-20.24,7.06T909.17,528h55.59q-.33-19.28-7.55-25.06T938.09,497.11Z"/><path class="cls-2" d="M139.34,656.43v94.78q0,10,2.89,14.62t12.53,4.66v61H55.48v-61q10.27,0,13.34-4.66t3.05-14.62V736.43q0-10.92-3.05-15.1t-13.34-4.18V656.43Z"/><path class="cls-1" d="M266.25,770.49v61h-97v-61q10.28,0,13.33-4.66t3-14.62v-9.64q0-13.8-3.21-19.12t-13.17-5.3V656.43H238v60.4h9.32q1.59-18.95,5.62-31.32T264,666.07a38.91,38.91,0,0,1,17.67-10,97.31,97.31,0,0,1,25.39-2.9q29.88,0,40.64,14.3t10.77,46.11v37.59q0,10,2.41,14.62t10.44,4.66v61H278.46v-61q9,0,11.89-4.66t2.89-14.62v-10q0-14.13-4.66-18.8t-16.22-4.65a29.71,29.71,0,0,0-16.55,4.49q-6.92,4.51-6.91,16.71v12.21q0,10,4.18,14.62T266.25,770.49Z"/><g class="cls-3"><path class="cls-4" d="M72,940.58a15.28,15.28,0,0,1-6.9-1.45,10.47,10.47,0,0,1-4.45-4.19,13.12,13.12,0,0,1-1.57-6.65V906h5.27v22.4a7.37,7.37,0,0,0,2,5.52A7.79,7.79,0,0,0,72,935.88,7.78,7.78,0,0,0,77.68,934a7.37,7.37,0,0,0,2-5.52V906h5.23v22.26a13.32,13.32,0,0,1-1.55,6.65,10.31,10.31,0,0,1-4.45,4.19A15.32,15.32,0,0,1,72,940.58Z"/><path class="cls-4" d="M91.71,939.9V906h5.23V939.9Z"/><path class="cls-4" d="M100.08,949.58,114.31,906h5l-14.23,43.55Z"/><path class="cls-4" d="M135,940.58a15.28,15.28,0,0,1-6.9-1.45,10.47,10.47,0,0,1-4.45-4.19,13.12,13.12,0,0,1-1.57-6.65V906h5.27v22.4a7.33,7.33,0,0,0,2,5.52,9.26,9.26,0,0,0,11.32,0,7.37,7.37,0,0,0,2-5.52V906h5.23v22.26a13.32,13.32,0,0,1-1.55,6.65,10.31,10.31,0,0,1-4.45,4.19A15.32,15.32,0,0,1,135,940.58Z"/><path class="cls-4" d="M152.48,939.9l10.41-17.08L152.63,906h6l7.64,13.06h.78L174.74,906h6l-10.26,16.79,10.41,17.08h-6l-7.79-13.35h-.78l-7.79,13.35Z"/><path class="cls-4" d="M196.81,939.9v-4.64h4.55V910.68h-4.55V906h13.55q6.76,0,10.38,3.44t3.6,10.35v6.34q0,6.92-3.6,10.33t-10.38,3.41Zm9.82-4.74h3.77q4.41,0,6.54-2.23t2.13-6.63v-6.67q0-4.46-2.13-6.63t-6.54-2.18h-3.77Z"/><path class="cls-4" d="M241.32,940.58a12.73,12.73,0,0,1-6.33-1.52,10.85,10.85,0,0,1-4.24-4.31,13.32,13.32,0,0,1-1.52-6.46v-.58a13.49,13.49,0,0,1,1.5-6.51,10.65,10.65,0,0,1,4.18-4.31,12.46,12.46,0,0,1,6.22-1.52,11.74,11.74,0,0,1,6,1.52,10.71,10.71,0,0,1,4,4.24,13.3,13.3,0,0,1,1.45,6.34v1.88H234.31a6.78,6.78,0,0,0,2.1,5,7.09,7.09,0,0,0,5,1.86,6.31,6.31,0,0,0,4.24-1.25,9,9,0,0,0,2.2-2.91l4.11,2.13a14.35,14.35,0,0,1-2,2.86,10.42,10.42,0,0,1-3.36,2.51A12.11,12.11,0,0,1,241.32,940.58Zm-7-15.05h13.21a5.91,5.91,0,0,0-1.94-4.23,6.64,6.64,0,0,0-4.55-1.53,6.73,6.73,0,0,0-4.57,1.53A6.51,6.51,0,0,0,234.36,925.53Z"/><path class="cls-4" d="M268.42,940.58a13.22,13.22,0,0,1-7.55-2,8.76,8.76,0,0,1-3.67-6.15l4.64-1.11a7.15,7.15,0,0,0,1.31,3.14,4.92,4.92,0,0,0,2.3,1.65,9,9,0,0,0,3,.48,6.13,6.13,0,0,0,3.65-.92,2.79,2.79,0,0,0,1.29-2.37,2.29,2.29,0,0,0-1.21-2.13,12.14,12.14,0,0,0-3.58-1.11l-1.65-.29a21.21,21.21,0,0,1-4.4-1.26,7.7,7.7,0,0,1-3.15-2.27,5.81,5.81,0,0,1-1.16-3.73,6.14,6.14,0,0,1,2.52-5.25,11,11,0,0,1,6.68-1.86,11.25,11.25,0,0,1,6.6,1.81,8.21,8.21,0,0,1,3.36,4.91l-4.64,1.31a4.49,4.49,0,0,0-1.84-3.07,6.34,6.34,0,0,0-3.48-.9,5.87,5.87,0,0,0-3.2.75,2.39,2.39,0,0,0-1.16,2.11,2.3,2.3,0,0,0,1.14,2.13,9,9,0,0,0,3.07,1l1.69.29a27.53,27.53,0,0,1,4.7,1.21,7.79,7.79,0,0,1,3.36,2.23,5.79,5.79,0,0,1,1.23,3.87,6.54,6.54,0,0,1-2.66,5.57A11.72,11.72,0,0,1,268.42,940.58Z"/><path class="cls-4" d="M286.57,912.8a3.41,3.41,0,0,1-2.45-.94,3.51,3.51,0,0,1,0-4.89,3.41,3.41,0,0,1,2.45-.94A3.36,3.36,0,0,1,289,907a3.57,3.57,0,0,1,0,4.89A3.36,3.36,0,0,1,286.57,912.8Zm-2.52,27.1V916.05h5V939.9Z"/><path class="cls-4" d="M295.28,928.09v-.72a12.73,12.73,0,0,1,1.52-6.44,10.81,10.81,0,0,1,9.56-5.56,9.16,9.16,0,0,1,5.34,1.31,9,9,0,0,1,2.74,2.8h.77v-3.43h4.84v28.74a4.77,4.77,0,0,1-1.28,3.48,4.71,4.71,0,0,1-3.51,1.31H299.2v-4.36h14.51a1.26,1.26,0,0,0,1.41-1.45v-7.59h-.78a8.89,8.89,0,0,1-1.5,1.79,7.34,7.34,0,0,1-2.54,1.5,11.66,11.66,0,0,1-3.94.58,11.13,11.13,0,0,1-5.54-1.43,10.38,10.38,0,0,1-4-4.11A13,13,0,0,1,295.28,928.09Zm12.43,7.6a7.34,7.34,0,0,0,5.35-2.05,7.62,7.62,0,0,0,2.1-5.69v-.44a7.59,7.59,0,0,0-2.08-5.73,8.08,8.08,0,0,0-10.67,0,7.56,7.56,0,0,0-2.1,5.73V928a7.62,7.62,0,0,0,2.1,5.69A7.29,7.29,0,0,0,307.71,935.69Z"/><path class="cls-4" d="M327.41,939.9V916.05h4.88v3.58h.78a7.22,7.22,0,0,1,2.42-2.71,8.78,8.78,0,0,1,5.17-1.26,9.45,9.45,0,0,1,4.82,1.21,8.62,8.62,0,0,1,3.31,3.41,10.81,10.81,0,0,1,1.21,5.3V939.9h-5V926a6.08,6.08,0,0,0-1.55-4.58,5.93,5.93,0,0,0-4.26-1.47,6.39,6.39,0,0,0-5,2,8.44,8.44,0,0,0-1.86,5.9v12Z"/><path class="cls-4" d="M370.13,951.81V900.9H373v50.91Z"/><path class="cls-4" d="M393.84,939.9V906h3.1v31.06h17.81v2.81Z"/><path class="cls-4" d="M430.91,940.58a12.55,12.55,0,0,1-6.27-1.52,10.59,10.59,0,0,1-4.16-4.26,13.28,13.28,0,0,1-1.48-6.37v-.58a13.22,13.22,0,0,1,1.48-6.36,10.59,10.59,0,0,1,4.16-4.26,13.67,13.67,0,0,1,12.53,0,10.68,10.68,0,0,1,4.17,4.26,13.21,13.21,0,0,1,1.47,6.36v.58a13.28,13.28,0,0,1-1.47,6.37,10.68,10.68,0,0,1-4.17,4.26A12.51,12.51,0,0,1,430.91,940.58Zm0-2.61a8.49,8.49,0,0,0,6.58-2.64,10,10,0,0,0,2.42-7V928a10,10,0,0,0-2.42-7,9.5,9.5,0,0,0-13.14,0,9.88,9.88,0,0,0-2.44,7v.39a9.88,9.88,0,0,0,2.44,7A8.51,8.51,0,0,0,430.91,938Z"/><path class="cls-4" d="M449,928.24v-.58a12.64,12.64,0,0,1,1.52-6.39,10.84,10.84,0,0,1,4.09-4.11,11.36,11.36,0,0,1,5.71-1.45,10.32,10.32,0,0,1,6,1.52,10,10,0,0,1,3.17,3.46h.58v-4.31h2.71V945.9a3.74,3.74,0,0,1-.92,2.71,3.68,3.68,0,0,1-2.8,1H453V947h15.49a1.31,1.31,0,0,0,1.5-1.46V935.4h-.58a9.71,9.71,0,0,1-1.77,2.28,8.74,8.74,0,0,1-2.93,1.81,12,12,0,0,1-4.4.7,11.52,11.52,0,0,1-5.74-1.45,10.48,10.48,0,0,1-4.08-4.14A12.84,12.84,0,0,1,449,928.24Zm12,9.34a8.74,8.74,0,0,0,6.5-2.52,9.39,9.39,0,0,0,2.5-6.92v-.38a9.4,9.4,0,0,0-2.5-7,9.72,9.72,0,0,0-13,0,9.33,9.33,0,0,0-2.51,7v.38a9.32,9.32,0,0,0,2.51,6.92A8.78,8.78,0,0,0,461,937.58Z"/><path class="cls-4" d="M492.07,940.58a12.55,12.55,0,0,1-6.27-1.52,10.66,10.66,0,0,1-4.16-4.26,13.28,13.28,0,0,1-1.47-6.37v-.58a13.21,13.21,0,0,1,1.47-6.36,10.66,10.66,0,0,1,4.16-4.26,13.69,13.69,0,0,1,12.54,0,10.66,10.66,0,0,1,4.16,4.26,13.21,13.21,0,0,1,1.47,6.36v.58a13.28,13.28,0,0,1-1.47,6.37,10.66,10.66,0,0,1-4.16,4.26A12.55,12.55,0,0,1,492.07,940.58Zm0-2.61a8.49,8.49,0,0,0,6.58-2.64,10,10,0,0,0,2.42-7V928a10,10,0,0,0-2.42-7,9.5,9.5,0,0,0-13.14,0,9.92,9.92,0,0,0-2.44,7v.39a9.92,9.92,0,0,0,2.44,7A8.51,8.51,0,0,0,492.07,938Z"/><path class="cls-4" d="M531,940.58a11.27,11.27,0,0,1-4.47-.85,7.12,7.12,0,0,1-3.17-2.49,6.67,6.67,0,0,1-1.16-4,6.33,6.33,0,0,1,1.16-3.92,7,7,0,0,1,3.14-2.32,11.94,11.94,0,0,1,4.41-.77h8.61v-1.89a5.9,5.9,0,0,0-1.65-4.45,6.57,6.57,0,0,0-4.79-1.6,7.43,7.43,0,0,0-4.91,1.52,7.51,7.51,0,0,0-2.44,4.09l-2.81-.82a11.13,11.13,0,0,1,1.84-3.75,8.87,8.87,0,0,1,3.34-2.66,11.52,11.52,0,0,1,5-1A9.62,9.62,0,0,1,540,918a8.51,8.51,0,0,1,2.44,6.48v11.42c0,1,.45,1.46,1.36,1.46h2.27v2.51H543a3.17,3.17,0,0,1-2.37-.89,3.37,3.37,0,0,1-.87-2.45v-.34h-.48a10.86,10.86,0,0,1-1.62,2.08A7.3,7.3,0,0,1,535,940,11,11,0,0,1,531,940.58Zm.2-2.61a8.24,8.24,0,0,0,6-2.25,8.51,8.51,0,0,0,2.3-6.37v-.58H531a7.47,7.47,0,0,0-4.18,1.09,3.75,3.75,0,0,0-1.67,3.36,4,4,0,0,0,1.72,3.51A7.32,7.32,0,0,0,531.22,938Z"/><path class="cls-4" d="M551.59,939.9V916.38h2.8v4.36H555a8.75,8.75,0,0,1,2.86-3.36,9.49,9.49,0,0,1,5.76-1.48,10.33,10.33,0,0,1,4.69,1.07,8.16,8.16,0,0,1,3.41,3.21,10.38,10.38,0,0,1,1.28,5.4V939.9h-2.9V925.77c0-2.58-.64-4.43-1.94-5.56a7.56,7.56,0,0,0-5.17-1.7,8.24,8.24,0,0,0-6.05,2.4q-2.42,2.4-2.42,7.23V939.9Z"/><path class="cls-4" d="M591.36,940.58a11.18,11.18,0,0,1-5.71-1.48,10.76,10.76,0,0,1-4.09-4.21,13.1,13.1,0,0,1-1.52-6.46v-.58a13.26,13.26,0,0,1,1.5-6.46,10.63,10.63,0,0,1,4.09-4.21,11.37,11.37,0,0,1,5.73-1.47,12,12,0,0,1,4.4.7,8.69,8.69,0,0,1,4.7,4.09H601V906h2.9V939.9h-2.8v-4.31h-.58a10,10,0,0,1-3.17,3.47A10.38,10.38,0,0,1,591.36,940.58ZM592,938a8.67,8.67,0,0,0,6.51-2.57,9.7,9.7,0,0,0,2.49-7.06V928a9.69,9.69,0,0,0-2.49-7.06,9.5,9.5,0,0,0-13,0A9.65,9.65,0,0,0,583,928v.39a9.67,9.67,0,0,0,2.51,7.06A8.7,8.7,0,0,0,592,938Z"/><path class="cls-4" d="M623,939.9v-2.81h4.84V908.84H623V906H639.8a12,12,0,0,1,5.17,1.06,8.52,8.52,0,0,1,3.56,3,7.73,7.73,0,0,1,1.28,4.43v.39a7.47,7.47,0,0,1-.92,3.91,7.24,7.24,0,0,1-2.22,2.42,10,10,0,0,1-2.57,1.26v.58a7.94,7.94,0,0,1,2.59,1.19,7.31,7.31,0,0,1,2.23,2.44,7.81,7.81,0,0,1,.89,3.92v.48a8.12,8.12,0,0,1-5,7.77,12.51,12.51,0,0,1-5.2,1Zm7.93-18.48h8.61a7.76,7.76,0,0,0,5.26-1.67,5.55,5.55,0,0,0,1.91-4.38v-.48a5.54,5.54,0,0,0-1.91-4.38,7.71,7.71,0,0,0-5.26-1.67h-8.61Zm0,15.67h8.42a7.9,7.9,0,0,0,5.49-1.69,5.85,5.85,0,0,0,1.87-4.55v-.38a5.85,5.85,0,0,0-1.87-4.55,7.9,7.9,0,0,0-5.49-1.7h-8.42Z"/><path class="cls-4" d="M656.88,939.9V916.38h2.8v3h.58a4.65,4.65,0,0,1,2-2.33,7.86,7.86,0,0,1,3.7-.72h2.76V919h-3.09a6,6,0,0,0-4.26,1.5,6.13,6.13,0,0,0-1.6,4.69V939.9Z"/><path class="cls-4" d="M681,940.58a11.31,11.31,0,0,1-4.47-.85,7.12,7.12,0,0,1-3.17-2.49,6.67,6.67,0,0,1-1.16-4,6.33,6.33,0,0,1,1.16-3.92,7,7,0,0,1,3.14-2.32,12,12,0,0,1,4.41-.77h8.61v-1.89a5.9,5.9,0,0,0-1.65-4.45,6.57,6.57,0,0,0-4.79-1.6,7.43,7.43,0,0,0-4.91,1.52,7.51,7.51,0,0,0-2.44,4.09l-2.81-.82a11.13,11.13,0,0,1,1.84-3.75,8.87,8.87,0,0,1,3.34-2.66,11.52,11.52,0,0,1,5-1A9.62,9.62,0,0,1,690,918a8.51,8.51,0,0,1,2.44,6.48v11.42c0,1,.45,1.46,1.36,1.46h2.27v2.51H693a3.18,3.18,0,0,1-2.38-.89,3.37,3.37,0,0,1-.87-2.45v-.34h-.48a10.86,10.86,0,0,1-1.62,2.08A7.3,7.3,0,0,1,685,940,11,11,0,0,1,681,940.58Zm.2-2.61a8.24,8.24,0,0,0,6-2.25,8.51,8.51,0,0,0,2.3-6.37v-.58H681a7.47,7.47,0,0,0-4.18,1.09,3.75,3.75,0,0,0-1.67,3.36,4,4,0,0,0,1.72,3.51A7.32,7.32,0,0,0,681.22,938Z"/><path class="cls-4" d="M701.59,939.9V916.38h2.8v4.36H705a8.92,8.92,0,0,1,2.86-3.36,9.49,9.49,0,0,1,5.76-1.48,10.33,10.33,0,0,1,4.69,1.07,8.16,8.16,0,0,1,3.41,3.21,10.38,10.38,0,0,1,1.28,5.4V939.9h-2.9V925.77q0-3.87-1.93-5.56a7.61,7.61,0,0,0-5.18-1.7,8.24,8.24,0,0,0-6.05,2.4q-2.42,2.4-2.42,7.23V939.9Z"/><path class="cls-4" d="M741.36,940.58a11.2,11.2,0,0,1-5.71-1.48,10.76,10.76,0,0,1-4.09-4.21,13.1,13.1,0,0,1-1.52-6.46v-.58a13.26,13.26,0,0,1,1.5-6.46,10.63,10.63,0,0,1,4.09-4.21,11.4,11.4,0,0,1,5.73-1.47,12.14,12.14,0,0,1,4.41.7,8.82,8.82,0,0,1,2.92,1.79,8.71,8.71,0,0,1,1.77,2.3H751V906h2.9V939.9h-2.8v-4.31h-.58a10,10,0,0,1-3.17,3.47A10.38,10.38,0,0,1,741.36,940.58ZM742,938a8.67,8.67,0,0,0,6.51-2.57,9.7,9.7,0,0,0,2.49-7.06V928a9.69,9.69,0,0,0-2.49-7.06,9.49,9.49,0,0,0-13,0A9.62,9.62,0,0,0,733,928v.39a9.63,9.63,0,0,0,2.52,7.06A8.66,8.66,0,0,0,742,938Z"/><path class="cls-4" d="M773,939.9v-2.81h4.84V908.84H773V906h12.87q6.63,0,10.33,3.36t3.7,10.48v6.24q0,7.11-3.7,10.45t-10.33,3.34Zm7.93-2.81h4.94q5.32,0,8.13-2.56t2.8-8.27v-6.54c0-3.84-.93-6.6-2.8-8.3s-4.58-2.54-8.13-2.54h-4.94Z"/><path class="cls-4" d="M817.81,940.58a12.62,12.62,0,0,1-6.31-1.52,10.75,10.75,0,0,1-4.19-4.29,13.06,13.06,0,0,1-1.5-6.34v-.58a13,13,0,0,1,1.5-6.36,10.87,10.87,0,0,1,4.14-4.26,11.89,11.89,0,0,1,6-1.52,12.06,12.06,0,0,1,5.84,1.38,10,10,0,0,1,4,4,12.54,12.54,0,0,1,1.45,6.17v1.55h-20a9.33,9.33,0,0,0,2.68,6.8,9,9,0,0,0,6.41,2.4,7.8,7.8,0,0,0,5.11-1.5,10,10,0,0,0,2.78-3.68l2.61,1.16a13.79,13.79,0,0,1-2,3.12,9.93,9.93,0,0,1-3.32,2.52A11.81,11.81,0,0,1,817.81,940.58Zm-9-14.32h17a8.09,8.09,0,0,0-2.47-5.88,8.42,8.42,0,0,0-5.86-2.06,8.51,8.51,0,0,0-5.85,2.06A9.25,9.25,0,0,0,808.76,926.26Z"/><path class="cls-4" d="M845.25,940.58a12.76,12.76,0,0,1-7.28-2c-2-1.36-3.25-3.6-3.71-6.73l2.86-.53a8.34,8.34,0,0,0,1.57,4,6.61,6.61,0,0,0,2.9,2.1,10.58,10.58,0,0,0,3.66.63,8.27,8.27,0,0,0,4.67-1.18,3.74,3.74,0,0,0,1.76-3.27,3,3,0,0,0-1.67-3,16.83,16.83,0,0,0-4.42-1.31l-2.23-.38a17.13,17.13,0,0,1-4-1.19,7.19,7.19,0,0,1-2.84-2.15,5.45,5.45,0,0,1-1-3.39,5.6,5.6,0,0,1,2.4-4.79,12.46,12.46,0,0,1,12.82.07,8.05,8.05,0,0,1,3.08,5.25l-2.71.58a5.58,5.58,0,0,0-2.3-4,8.28,8.28,0,0,0-4.53-1.16,7.85,7.85,0,0,0-4.26,1,3.34,3.34,0,0,0-1.59,3,3.08,3.08,0,0,0,1.45,2.83,11.23,11.23,0,0,0,4,1.33l2.22.39a21.47,21.47,0,0,1,4.36,1.14,7.43,7.43,0,0,1,3.07,2.1,5.38,5.38,0,0,1,1.14,3.58,6,6,0,0,1-2.52,5.15A11.44,11.44,0,0,1,845.25,940.58Z"/><path class="cls-4" d="M862.91,912.32a2.41,2.41,0,0,1-1.79-.73,2.51,2.51,0,1,1,3.6,0A2.37,2.37,0,0,1,862.91,912.32Zm-1.45,27.58V916.38h2.9V939.9Z"/><path class="cls-4" d="M871.72,928.24v-.58a12.64,12.64,0,0,1,1.52-6.39,10.84,10.84,0,0,1,4.09-4.11,11.36,11.36,0,0,1,5.71-1.45,10.32,10.32,0,0,1,6,1.52,9.9,9.9,0,0,1,3.17,3.46h.58v-4.31h2.71V945.9a3.74,3.74,0,0,1-.92,2.71,3.66,3.66,0,0,1-2.8,1H875.73V947h15.49a1.31,1.31,0,0,0,1.5-1.46V935.4h-.58a9.71,9.71,0,0,1-1.77,2.28,8.64,8.64,0,0,1-2.93,1.81,12,12,0,0,1-4.4.7,11.46,11.46,0,0,1-5.73-1.45,10.51,10.51,0,0,1-4.09-4.14A12.84,12.84,0,0,1,871.72,928.24Zm12,9.34a8.78,8.78,0,0,0,6.51-2.52,9.39,9.39,0,0,0,2.49-6.92v-.38a9.4,9.4,0,0,0-2.49-7,9.73,9.73,0,0,0-13,0,9.37,9.37,0,0,0-2.51,7v.38a9.36,9.36,0,0,0,2.51,6.92A8.78,8.78,0,0,0,883.72,937.58Z"/><path class="cls-4" d="M904,939.9V916.38h2.81v4.36h.58a8.8,8.8,0,0,1,2.85-3.36A9.49,9.49,0,0,1,916,915.9a10.33,10.33,0,0,1,4.69,1.07,8.16,8.16,0,0,1,3.41,3.21,10.38,10.38,0,0,1,1.29,5.4V939.9h-2.91V925.77q0-3.87-1.93-5.56a7.59,7.59,0,0,0-5.18-1.7,8.25,8.25,0,0,0-6,2.4q-2.42,2.4-2.42,7.23V939.9Z"/><path class="cls-4" d="M946,951.81V900.9h2.9v50.91Z"/><path class="cls-4" d="M68.05,1015.17,57.16,981.3H60.4l10.12,32.08h.58L81.21,981.3h3.24l-10.89,33.87Z"/><path class="cls-4" d="M91.52,987.59a2.55,2.55,0,0,1-1.79-4.33,2.55,2.55,0,0,1,3.6,3.6A2.39,2.39,0,0,1,91.52,987.59Zm-1.46,27.58V991.66H93v23.51Z"/><path class="cls-4" d="M111.65,1015.85a11.18,11.18,0,0,1-5.71-1.48,10.7,10.7,0,0,1-4.09-4.21,13,13,0,0,1-1.53-6.46v-.58a13.26,13.26,0,0,1,1.5-6.46,10.69,10.69,0,0,1,4.09-4.21,11.43,11.43,0,0,1,5.74-1.47,12.08,12.08,0,0,1,4.4.7,8.87,8.87,0,0,1,2.93,1.79,9,9,0,0,1,1.76,2.3h.58V981.3h2.91v33.87h-2.81v-4.3h-.58a10,10,0,0,1-3.17,3.46A10.34,10.34,0,0,1,111.65,1015.85Zm.67-2.61a8.67,8.67,0,0,0,6.51-2.57,9.7,9.7,0,0,0,2.49-7.06v-.39a9.7,9.7,0,0,0-2.49-7.06,9.49,9.49,0,0,0-13,0,9.63,9.63,0,0,0-2.52,7.06v.39a9.63,9.63,0,0,0,2.52,7.06A8.69,8.69,0,0,0,112.32,1013.24Z"/><path class="cls-4" d="M143.58,1015.85a12.62,12.62,0,0,1-6.31-1.52,10.75,10.75,0,0,1-4.19-4.29,13.06,13.06,0,0,1-1.5-6.34v-.58a13,13,0,0,1,1.5-6.36,10.87,10.87,0,0,1,4.14-4.26,11.86,11.86,0,0,1,6-1.52,12,12,0,0,1,5.83,1.38,9.92,9.92,0,0,1,4,4,12.47,12.47,0,0,1,1.45,6.16V1004h-20a9.37,9.37,0,0,0,2.69,6.8,9,9,0,0,0,6.41,2.4,7.82,7.82,0,0,0,5.11-1.5,10,10,0,0,0,2.78-3.68l2.61,1.16a13.3,13.3,0,0,1-2,3.12,9.89,9.89,0,0,1-3.31,2.52A11.84,11.84,0,0,1,143.58,1015.85Zm-9.05-14.32h17a8.13,8.13,0,0,0-2.47-5.88,8.42,8.42,0,0,0-5.86-2.06,8.51,8.51,0,0,0-5.85,2.06A9.25,9.25,0,0,0,134.53,1001.53Z"/><path class="cls-4" d="M172.42,1015.85a12.55,12.55,0,0,1-6.27-1.52,10.66,10.66,0,0,1-4.16-4.26,13.28,13.28,0,0,1-1.47-6.37v-.58a13.21,13.21,0,0,1,1.47-6.36,10.66,10.66,0,0,1,4.16-4.26,13.69,13.69,0,0,1,12.54,0,10.66,10.66,0,0,1,4.16,4.26,13.21,13.21,0,0,1,1.47,6.36v.58a13.28,13.28,0,0,1-1.47,6.37,10.66,10.66,0,0,1-4.16,4.26A12.55,12.55,0,0,1,172.42,1015.85Zm0-2.61a8.49,8.49,0,0,0,6.58-2.64,10,10,0,0,0,2.42-7v-.39a10,10,0,0,0-2.42-7,9.5,9.5,0,0,0-13.14,0,9.92,9.92,0,0,0-2.44,7v.39a9.92,9.92,0,0,0,2.44,7A8.51,8.51,0,0,0,172.42,1013.24Z"/><path class="cls-4" d="M204.07,1015.17V981.3h20.46v2.81H207.16v12.67h16v2.81h-16v12.78h17.57v2.8Z"/><path class="cls-4" d="M241.76,1015.85a11.18,11.18,0,0,1-5.71-1.48,10.76,10.76,0,0,1-4.09-4.21,13.1,13.1,0,0,1-1.52-6.46v-.58a13.26,13.26,0,0,1,1.5-6.46,10.63,10.63,0,0,1,4.09-4.21,11.37,11.37,0,0,1,5.73-1.47,12,12,0,0,1,4.4.7,8.77,8.77,0,0,1,2.93,1.79,8.87,8.87,0,0,1,1.77,2.3h.58V981.3h2.9v33.87h-2.81v-4.3H251a9.9,9.9,0,0,1-3.17,3.46A10.32,10.32,0,0,1,241.76,1015.85Zm.68-2.61a8.7,8.7,0,0,0,6.51-2.57,9.7,9.7,0,0,0,2.49-7.06v-.39a9.7,9.7,0,0,0-2.49-7.06,9.5,9.5,0,0,0-13,0,9.67,9.67,0,0,0-2.51,7.06v.39a9.67,9.67,0,0,0,2.51,7.06A8.7,8.7,0,0,0,242.44,1013.24Z"/><path class="cls-4" d="M264.31,987.59a2.55,2.55,0,0,1-1.79-4.33,2.46,2.46,0,0,1,1.79-.7,2.4,2.4,0,0,1,2.51,2.51,2.46,2.46,0,0,1-.7,1.79A2.37,2.37,0,0,1,264.31,987.59Zm-1.45,27.58V991.66h2.9v23.51Z"/><path class="cls-4" d="M282.79,1015.17a3.76,3.76,0,0,1-2.83-1,3.69,3.69,0,0,1-.94-2.71V994.27h-7.55v-2.61H279v-8.81h2.9v8.81h8.23v2.61h-8.23v16.84a1.28,1.28,0,0,0,1.45,1.45h5.52v2.61Z"/><path class="cls-4" d="M298.08,987.59a2.55,2.55,0,0,1-1.79-4.33,2.51,2.51,0,0,1,4.31,1.81,2.5,2.5,0,0,1-.7,1.79A2.41,2.41,0,0,1,298.08,987.59Zm-1.45,27.58V991.66h2.9v23.51Z"/><path class="cls-4" d="M308.05,1015.17V991.66h2.81V996h.58a8.8,8.8,0,0,1,2.85-3.36,9.49,9.49,0,0,1,5.76-1.48,10.33,10.33,0,0,1,4.69,1.07,8.24,8.24,0,0,1,3.42,3.21,10.48,10.48,0,0,1,1.28,5.4v14.32h-2.91V1001q0-3.87-1.93-5.56a7.59,7.59,0,0,0-5.18-1.7,8.25,8.25,0,0,0-6.05,2.4q-2.42,2.4-2.42,7.23v11.76Z"/><path class="cls-4" d="M336.5,1003.51v-.58a12.65,12.65,0,0,1,1.53-6.39,10.77,10.77,0,0,1,4.09-4.11,11.36,11.36,0,0,1,5.71-1.45,10.34,10.34,0,0,1,6,1.52A10,10,0,0,1,357,996h.58v-4.3h2.71v29.51a3.78,3.78,0,0,1-.92,2.71,3.69,3.69,0,0,1-2.81,1H340.52v-2.61H356a1.31,1.31,0,0,0,1.5-1.46v-10.11h-.58a9.92,9.92,0,0,1-1.76,2.28,8.74,8.74,0,0,1-2.93,1.81,12,12,0,0,1-4.4.7,11.52,11.52,0,0,1-5.74-1.45,10.57,10.57,0,0,1-4.09-4.14A12.84,12.84,0,0,1,336.5,1003.51Zm12,9.34a8.75,8.75,0,0,0,6.51-2.52,9.39,9.39,0,0,0,2.49-6.92V1003a9.4,9.4,0,0,0-2.49-6.95,9.72,9.72,0,0,0-13,0,9.34,9.34,0,0,0-2.52,6.95v.38a9.33,9.33,0,0,0,2.52,6.92A8.77,8.77,0,0,0,348.5,1012.85Z"/><path class="cls-4" d="M381.21,1027.08V976.17h2.91v50.91Z"/><path class="cls-4" d="M404.92,1015.17V981.3h12.54a12.39,12.39,0,0,1,5.39,1.14,8.81,8.81,0,0,1,5.2,8.44v.58a9.2,9.2,0,0,1-1.42,5.2,9.1,9.1,0,0,1-3.83,3.27,12.54,12.54,0,0,1-5.34,1.11H408v14.13Zm3.1-16.93h9.1a8.57,8.57,0,0,0,5.73-1.79,6.26,6.26,0,0,0,2.11-5v-.48a6.32,6.32,0,0,0-2.06-5.06,8.64,8.64,0,0,0-5.78-1.76H408Z"/><path class="cls-4" d="M443.92,1015.85a12.53,12.53,0,0,1-6.26-1.52,10.59,10.59,0,0,1-4.16-4.26,13.17,13.17,0,0,1-1.48-6.37v-.58a13.1,13.1,0,0,1,1.48-6.36,10.59,10.59,0,0,1,4.16-4.26,13.67,13.67,0,0,1,12.53,0,10.59,10.59,0,0,1,4.16,4.26,13.1,13.1,0,0,1,1.48,6.36v.58a13.17,13.17,0,0,1-1.48,6.37,10.59,10.59,0,0,1-4.16,4.26A12.55,12.55,0,0,1,443.92,1015.85Zm0-2.61a8.51,8.51,0,0,0,6.59-2.64,10,10,0,0,0,2.41-7v-.39a10,10,0,0,0-2.41-7,9.5,9.5,0,0,0-13.14,0,9.88,9.88,0,0,0-2.45,7v.39a9.88,9.88,0,0,0,2.45,7A8.49,8.49,0,0,0,443.92,1013.24Z"/><path class="cls-4" d="M472.52,1015.85a12.78,12.78,0,0,1-7.28-2q-3-2-3.7-6.73l2.85-.53a8.25,8.25,0,0,0,1.58,4,6.48,6.48,0,0,0,2.9,2.1,10.49,10.49,0,0,0,3.65.63,8.25,8.25,0,0,0,4.67-1.18,3.73,3.73,0,0,0,1.77-3.27,3,3,0,0,0-1.67-3,16.92,16.92,0,0,0-4.43-1.31l-2.22-.38a17.07,17.07,0,0,1-4-1.19,7.08,7.08,0,0,1-2.83-2.15,5.35,5.35,0,0,1-1-3.39,5.61,5.61,0,0,1,2.39-4.79,12.48,12.48,0,0,1,12.83.07A8.08,8.08,0,0,1,481,998l-2.71.58a5.5,5.5,0,0,0-2.3-4,8.19,8.19,0,0,0-4.52-1.17,7.81,7.81,0,0,0-4.26,1,3.33,3.33,0,0,0-1.6,3,3.08,3.08,0,0,0,1.45,2.83,11.23,11.23,0,0,0,4,1.33l2.23.39a21.54,21.54,0,0,1,4.35,1.14,7.37,7.37,0,0,1,3.07,2.1,5.38,5.38,0,0,1,1.14,3.58,6,6,0,0,1-2.51,5.15A11.48,11.48,0,0,1,472.52,1015.85Z"/><path class="cls-4" d="M496.67,1015.17a3.76,3.76,0,0,1-2.83-1,3.7,3.7,0,0,1-.95-2.71V994.27h-7.54v-2.61h7.54v-8.81h2.91v8.81H504v2.61H495.8v16.84a1.28,1.28,0,0,0,1.45,1.45h5.51v2.61Z"/><path class="cls-4" d="M520.48,1015.85a12.66,12.66,0,0,1-6.32-1.52A10.66,10.66,0,0,1,510,1010a13,13,0,0,1-1.51-6.34v-.58a12.89,12.89,0,0,1,1.51-6.36,10.78,10.78,0,0,1,4.13-4.26,11.9,11.9,0,0,1,6-1.52,12,12,0,0,1,5.83,1.38,10,10,0,0,1,4,4,12.36,12.36,0,0,1,1.45,6.16V1004h-20a9.33,9.33,0,0,0,2.68,6.8,9,9,0,0,0,6.42,2.4,7.79,7.79,0,0,0,5.1-1.5,9.9,9.9,0,0,0,2.78-3.68l2.61,1.16a13.58,13.58,0,0,1-2,3.12,9.93,9.93,0,0,1-3.32,2.52A11.79,11.79,0,0,1,520.48,1015.85Zm-9.05-14.32h17a8.09,8.09,0,0,0-2.47-5.88,8.41,8.41,0,0,0-5.85-2.06,8.52,8.52,0,0,0-5.86,2.06A9.19,9.19,0,0,0,511.43,1001.53Z"/><path class="cls-4" d="M538.57,1015.17V991.66h2.81v3H542a4.56,4.56,0,0,1,2-2.33,7.84,7.84,0,0,1,3.7-.72h2.76v2.71h-3.1a6,6,0,0,0-4.26,1.5,6.17,6.17,0,0,0-1.6,4.69v14.71Z"/><path class="cls-4" d="M565.33,1015.85a12.76,12.76,0,0,1-7.28-2q-3-2-3.7-6.73l2.85-.53a8.34,8.34,0,0,0,1.57,4,6.51,6.51,0,0,0,2.91,2.1,10.49,10.49,0,0,0,3.65.63,8.25,8.25,0,0,0,4.67-1.18,3.73,3.73,0,0,0,1.77-3.27,3,3,0,0,0-1.67-3,17,17,0,0,0-4.43-1.31l-2.23-.38a17.13,17.13,0,0,1-4-1.19,7.08,7.08,0,0,1-2.83-2.15,5.35,5.35,0,0,1-1-3.39,5.59,5.59,0,0,1,2.39-4.79,12.46,12.46,0,0,1,12.82.07,8.05,8.05,0,0,1,3.08,5.25l-2.71.58a5.53,5.53,0,0,0-2.3-4,8.2,8.2,0,0,0-4.53-1.17,7.79,7.79,0,0,0-4.25,1,3.33,3.33,0,0,0-1.6,3,3.08,3.08,0,0,0,1.45,2.83,11.23,11.23,0,0,0,4,1.33l2.22.39a21.47,21.47,0,0,1,4.36,1.14,7.43,7.43,0,0,1,3.07,2.1,5.38,5.38,0,0,1,1.14,3.58,6,6,0,0,1-2.52,5.15A11.42,11.42,0,0,1,565.33,1015.85Z"/><path class="cls-4" d="M601.23,1015.85a11.31,11.31,0,0,1-4.47-.85,7.12,7.12,0,0,1-3.17-2.49,6.67,6.67,0,0,1-1.16-4,6.33,6.33,0,0,1,1.16-3.92,7,7,0,0,1,3.14-2.32,12.19,12.19,0,0,1,4.41-.77h8.61v-1.89a5.9,5.9,0,0,0-1.65-4.45,6.57,6.57,0,0,0-4.79-1.6A6.93,6.93,0,0,0,596,999.2l-2.81-.82a11.22,11.22,0,0,1,1.84-3.75,8.87,8.87,0,0,1,3.34-2.66,11.52,11.52,0,0,1,5-1,9.62,9.62,0,0,1,6.9,2.32,8.52,8.52,0,0,1,2.44,6.49v11.41c0,1,.45,1.46,1.36,1.46h2.27v2.51h-3.09a3.21,3.21,0,0,1-2.38-.89,3.37,3.37,0,0,1-.87-2.45v-.34h-.48a10.86,10.86,0,0,1-1.62,2.08,7.3,7.3,0,0,1-2.59,1.65A11,11,0,0,1,601.23,1015.85Zm.2-2.61a8.24,8.24,0,0,0,6-2.25,8.51,8.51,0,0,0,2.3-6.37V1004h-8.56a7.56,7.56,0,0,0-4.19,1.09,3.75,3.75,0,0,0-1.67,3.36,4,4,0,0,0,1.72,3.51A7.25,7.25,0,0,0,601.43,1013.24Z"/><path class="cls-4" d="M621.8,1015.17V991.66h2.8V996h.59a8.8,8.8,0,0,1,2.85-3.36,9.49,9.49,0,0,1,5.76-1.48,10.33,10.33,0,0,1,4.69,1.07,8.16,8.16,0,0,1,3.41,3.21,10.38,10.38,0,0,1,1.28,5.4v14.32h-2.9V1001q0-3.87-1.93-5.56a7.59,7.59,0,0,0-5.18-1.7,8.24,8.24,0,0,0-6,2.4q-2.42,2.4-2.42,7.23v11.76Z"/><path class="cls-4" d="M661.57,1015.85a11.2,11.2,0,0,1-5.71-1.48,10.76,10.76,0,0,1-4.09-4.21,13.1,13.1,0,0,1-1.52-6.46v-.58a13.26,13.26,0,0,1,1.5-6.46,10.63,10.63,0,0,1,4.09-4.21,11.4,11.4,0,0,1,5.73-1.47,12.1,12.1,0,0,1,4.41.7,8.72,8.72,0,0,1,2.92,1.79,8.87,8.87,0,0,1,1.77,2.3h.58V981.3h2.9v33.87h-2.8v-4.3h-.58a10.1,10.1,0,0,1-3.17,3.46A10.38,10.38,0,0,1,661.57,1015.85Zm.68-2.61a8.67,8.67,0,0,0,6.51-2.57,9.7,9.7,0,0,0,2.49-7.06v-.39a9.7,9.7,0,0,0-2.49-7.06,9.49,9.49,0,0,0-13,0,9.63,9.63,0,0,0-2.52,7.06v.39a9.63,9.63,0,0,0,2.52,7.06A8.68,8.68,0,0,0,662.25,1013.24Z"/><path class="cls-4" d="M695.06,1015.17V981.3h20.13v2.81h-17v12.67h15.63v2.81H698.15v15.58Z"/><path class="cls-4" d="M721.38,1015.17V981.3h2.9v33.87Z"/><path class="cls-4" d="M735.75,1024.85v-2.61h13.74a1.29,1.29,0,0,0,1.46-1.46v-9.67h-.59a8.2,8.2,0,0,1-1.62,2.2A7.65,7.65,0,0,1,746,1015a11.41,11.41,0,0,1-4.18.66,10.37,10.37,0,0,1-4.67-1.07,8.19,8.19,0,0,1-3.44-3.19,10.31,10.31,0,0,1-1.28-5.37V991.66h2.9v14.17q0,3.82,1.94,5.52a7.59,7.59,0,0,0,5.18,1.69,8.31,8.31,0,0,0,6-2.37q2.41-2.37,2.42-7.21v-11.8h2.9v29.51a3.71,3.71,0,0,1-1,2.71,3.75,3.75,0,0,1-2.83,1Z"/><path class="cls-4" d="M773.2,1015.85a12.62,12.62,0,0,1-6.31-1.52,10.75,10.75,0,0,1-4.19-4.29,13.06,13.06,0,0,1-1.5-6.34v-.58a13,13,0,0,1,1.5-6.36,10.87,10.87,0,0,1,4.14-4.26,11.9,11.9,0,0,1,6-1.52,12,12,0,0,1,5.83,1.38,10,10,0,0,1,4,4,12.36,12.36,0,0,1,1.45,6.16V1004h-20a9.33,9.33,0,0,0,2.68,6.8,9,9,0,0,0,6.41,2.4,7.8,7.8,0,0,0,5.11-1.5,9.9,9.9,0,0,0,2.78-3.68l2.61,1.16a13.58,13.58,0,0,1-2,3.12,9.93,9.93,0,0,1-3.32,2.52A11.81,11.81,0,0,1,773.2,1015.85Zm-9-14.32h17a8.09,8.09,0,0,0-2.47-5.88,8.41,8.41,0,0,0-5.85-2.06,8.52,8.52,0,0,0-5.86,2.06A9.19,9.19,0,0,0,764.16,1001.53Z"/><path class="cls-4" d="M791.3,1015.17V991.66h2.81v3h.58a4.56,4.56,0,0,1,2-2.33,7.84,7.84,0,0,1,3.7-.72h2.76v2.71h-3.1a6,6,0,0,0-4.26,1.5,6.17,6.17,0,0,0-1.6,4.69v14.71Z"/><path class="cls-4" d="M818.06,1015.85a12.76,12.76,0,0,1-7.28-2q-3-2-3.7-6.73l2.85-.53a8.34,8.34,0,0,0,1.57,4,6.51,6.51,0,0,0,2.91,2.1,10.49,10.49,0,0,0,3.65.63,8.25,8.25,0,0,0,4.67-1.18,3.73,3.73,0,0,0,1.77-3.27,3,3,0,0,0-1.67-3,17,17,0,0,0-4.43-1.31l-2.23-.38a17.13,17.13,0,0,1-4-1.19,7.08,7.08,0,0,1-2.83-2.15,5.36,5.36,0,0,1-1.05-3.39,5.6,5.6,0,0,1,2.4-4.79,12.46,12.46,0,0,1,12.82.07,8.05,8.05,0,0,1,3.08,5.25l-2.71.58a5.53,5.53,0,0,0-2.3-4,8.2,8.2,0,0,0-4.53-1.17,7.79,7.79,0,0,0-4.25,1,3.33,3.33,0,0,0-1.6,3,3.08,3.08,0,0,0,1.45,2.83,11.23,11.23,0,0,0,4,1.33l2.22.39a21.47,21.47,0,0,1,4.36,1.14,7.43,7.43,0,0,1,3.07,2.1,5.38,5.38,0,0,1,1.14,3.58,6,6,0,0,1-2.52,5.15A11.44,11.44,0,0,1,818.06,1015.85Z"/><path class="cls-4" d="M846.66,1027.08V976.17h2.9v50.91Z"/><path class="cls-4" d="M870.37,1015.17V981.3h6l10.26,32h.58l10.26-32h6v33.87h-3v-32H900l-10.26,32H884.2l-10.25-32h-.58v32Z"/><path class="cls-4" d="M922.72,1015.85a12.55,12.55,0,0,1-6.27-1.52,10.66,10.66,0,0,1-4.16-4.26,13.28,13.28,0,0,1-1.47-6.37v-.58a13.21,13.21,0,0,1,1.47-6.36,10.66,10.66,0,0,1,4.16-4.26,13.69,13.69,0,0,1,12.54,0,10.66,10.66,0,0,1,4.16,4.26,13.21,13.21,0,0,1,1.47,6.36v.58a13.28,13.28,0,0,1-1.47,6.37,10.66,10.66,0,0,1-4.16,4.26A12.55,12.55,0,0,1,922.72,1015.85Zm0-2.61a8.49,8.49,0,0,0,6.58-2.64,10,10,0,0,0,2.42-7v-.39a10,10,0,0,0-2.42-7,9.5,9.5,0,0,0-13.14,0,9.88,9.88,0,0,0-2.44,7v.39a9.88,9.88,0,0,0,2.44,7A8.51,8.51,0,0,0,922.72,1013.24Z"/><path class="cls-4" d="M949.48,1015.17a3.76,3.76,0,0,1-2.83-1,3.69,3.69,0,0,1-.94-2.71V994.27h-7.55v-2.61h7.55v-8.81h2.9v8.81h8.22v2.61h-8.22v16.84a1.28,1.28,0,0,0,1.45,1.45h5.52v2.61Z"/><path class="cls-4" d="M964.77,987.59a2.41,2.41,0,0,1-1.79-.73,2.51,2.51,0,1,1,3.6,0A2.37,2.37,0,0,1,964.77,987.59Zm-1.45,27.58V991.66h2.9v23.51Z"/><path class="cls-4" d="M985.48,1015.85a12.55,12.55,0,0,1-6.27-1.52,10.66,10.66,0,0,1-4.16-4.26,13.28,13.28,0,0,1-1.47-6.37v-.58a13.21,13.21,0,0,1,1.47-6.36,10.66,10.66,0,0,1,4.16-4.26,13.69,13.69,0,0,1,12.54,0,10.66,10.66,0,0,1,4.16,4.26,13.21,13.21,0,0,1,1.47,6.36v.58a13.28,13.28,0,0,1-1.47,6.37,10.66,10.66,0,0,1-4.16,4.26A12.55,12.55,0,0,1,985.48,1015.85Zm0-2.61a8.49,8.49,0,0,0,6.58-2.64,10,10,0,0,0,2.42-7v-.39a10,10,0,0,0-2.42-7,9.5,9.5,0,0,0-13.14,0,9.88,9.88,0,0,0-2.44,7v.39a9.88,9.88,0,0,0,2.44,7A8.51,8.51,0,0,0,985.48,1013.24Z"/><path class="cls-4" d="M1004.74,1015.17V991.66h2.81V996h.58a8.8,8.8,0,0,1,2.85-3.36,9.49,9.49,0,0,1,5.76-1.48,10.33,10.33,0,0,1,4.69,1.07,8.16,8.16,0,0,1,3.41,3.21,10.38,10.38,0,0,1,1.29,5.4v14.32h-2.91V1001q0-3.87-1.93-5.56a7.59,7.59,0,0,0-5.18-1.7,8.24,8.24,0,0,0-6.05,2.4q-2.41,2.4-2.42,7.23v11.76Z"/><path class="cls-4" d="M71.77,1091.12a14,14,0,0,1-6.77-1.57,10.76,10.76,0,0,1-4.5-4.65,16.33,16.33,0,0,1-1.6-7.57v-7.65q0-6.77,3.56-10.28a12.94,12.94,0,0,1,9.51-3.51q5.9,0,8.93,3.29a12.49,12.49,0,0,1,3,8.76v.24h-3.1v-.33a11.33,11.33,0,0,0-.92-4.72,7.06,7.06,0,0,0-2.88-3.24,9.63,9.63,0,0,0-5-1.19,9.48,9.48,0,0,0-7.33,2.85q-2.64,2.87-2.64,8v7.84q0,5.17,2.64,8a9.48,9.48,0,0,0,7.33,2.85c3.06,0,5.32-.88,6.77-2.66a11,11,0,0,0,2.18-7.16v-1H69.74v-2.71H83.92v15.63H81.11v-3.82h-.58a8.08,8.08,0,0,1-1.64,2.2,7.63,7.63,0,0,1-2.79,1.67A12.66,12.66,0,0,1,71.77,1091.12Z"/><path class="cls-4" d="M92,1090.44v-23.51h2.81v3h.58a4.56,4.56,0,0,1,2-2.33,7.84,7.84,0,0,1,3.7-.72h2.76v2.71h-3.1a6,6,0,0,0-4.26,1.5,6.17,6.17,0,0,0-1.59,4.69v14.71Z"/><path class="cls-4" d="M116.1,1091.12a11.32,11.32,0,0,1-4.48-.85,7.17,7.17,0,0,1-3.17-2.49,6.72,6.72,0,0,1-1.16-4,6.4,6.4,0,0,1,1.16-3.92,7.06,7.06,0,0,1,3.15-2.32,12.13,12.13,0,0,1,4.4-.77h8.61v-1.89a5.93,5.93,0,0,0-1.64-4.45,6.6,6.6,0,0,0-4.79-1.6,7.36,7.36,0,0,0-4.91,1.53,7.49,7.49,0,0,0-2.45,4.09l-2.8-.83a11.29,11.29,0,0,1,1.83-3.75,9,9,0,0,1,3.34-2.66,11.54,11.54,0,0,1,5-1,9.59,9.59,0,0,1,6.89,2.32,8.53,8.53,0,0,1,2.45,6.49v11.41c0,1,.45,1.46,1.35,1.46h2.28v2.51h-3.1a3.17,3.17,0,0,1-2.37-.89,3.37,3.37,0,0,1-.87-2.45v-.33h-.49a11.18,11.18,0,0,1-1.62,2.08,7.34,7.34,0,0,1-2.59,1.64A11,11,0,0,1,116.1,1091.12Zm.19-2.61a8.24,8.24,0,0,0,6-2.25,8.47,8.47,0,0,0,2.3-6.37v-.58h-8.56a7.59,7.59,0,0,0-4.19,1.09,3.75,3.75,0,0,0-1.67,3.37,4.07,4.07,0,0,0,1.72,3.5A7.3,7.3,0,0,0,116.29,1088.51Z"/><path class="cls-4" d="M136.66,1100.12v-33.19h2.81v4.3h.58a10,10,0,0,1,3.17-3.46,10.32,10.32,0,0,1,6-1.52,11.27,11.27,0,0,1,5.71,1.47,10.84,10.84,0,0,1,4.09,4.19,13,13,0,0,1,1.53,6.48v.58a13.21,13.21,0,0,1-1.5,6.46,10.58,10.58,0,0,1-4.07,4.21,11.28,11.28,0,0,1-5.76,1.48,12.12,12.12,0,0,1-4.38-.7,8.51,8.51,0,0,1-3-1.82,9.36,9.36,0,0,1-1.76-2.27h-.58v13.79Zm11.9-11.61a8.67,8.67,0,0,0,6.51-2.57,9.71,9.71,0,0,0,2.5-7.06v-.39a9.71,9.71,0,0,0-2.5-7.06,9.49,9.49,0,0,0-13,0,9.63,9.63,0,0,0-2.51,7.06v.39a9.63,9.63,0,0,0,2.51,7.06A8.69,8.69,0,0,0,148.56,1088.51Z"/><path class="cls-4" d="M167.92,1090.44v-33.87h2.9V1071h.58a8.47,8.47,0,0,1,1.63-2.2,7.67,7.67,0,0,1,2.71-1.7,11.65,11.65,0,0,1,4.18-.65,10.46,10.46,0,0,1,4.69,1.06,8.28,8.28,0,0,1,3.42,3.2,10.31,10.31,0,0,1,1.28,5.37v14.32H186.4v-14.13c0-2.58-.64-4.42-1.93-5.54a7.68,7.68,0,0,0-5.18-1.67,8.31,8.31,0,0,0-6,2.37q-2.42,2.38-2.42,7.21v11.76Z"/><path class="cls-4" d="M199,1062.86a2.48,2.48,0,0,1-2.52-2.51,2.4,2.4,0,0,1,.73-1.82,2.5,2.5,0,0,1,4.3,1.82,2.49,2.49,0,0,1-.7,1.79A2.42,2.42,0,0,1,199,1062.86Zm-1.46,27.58v-23.51h2.91v23.51Z"/><path class="cls-4" d="M219.7,1091.12a12.44,12.44,0,0,1-6.13-1.48,10.63,10.63,0,0,1-4.23-4.23,13.05,13.05,0,0,1-1.55-6.48v-.49a13.06,13.06,0,0,1,1.55-6.51,10.77,10.77,0,0,1,4.23-4.21,12.55,12.55,0,0,1,6.13-1.47,11.89,11.89,0,0,1,5.73,1.28,10.09,10.09,0,0,1,3.68,3.34,11,11,0,0,1,1.67,4.33l-2.86.58a8.52,8.52,0,0,0-1.21-3.46,6.92,6.92,0,0,0-2.71-2.51,9.82,9.82,0,0,0-8.9.24,8.49,8.49,0,0,0-3.22,3.34,10.39,10.39,0,0,0-1.18,5.1v.39a10.39,10.39,0,0,0,1.18,5.1,8.49,8.49,0,0,0,3.22,3.34,9,9,0,0,0,4.6,1.19,8,8,0,0,0,5.9-2,8.77,8.77,0,0,0,2.51-4.91l2.86.58a11.77,11.77,0,0,1-1.81,4.33,10.5,10.5,0,0,1-3.73,3.34A11.89,11.89,0,0,1,219.7,1091.12Z"/><path class="cls-4" d="M247.47,1091.12a12.76,12.76,0,0,1-7.28-2q-3-2-3.7-6.73l2.85-.53a8.34,8.34,0,0,0,1.57,4,6.6,6.6,0,0,0,2.91,2.11,10.48,10.48,0,0,0,3.65.62,8.25,8.25,0,0,0,4.67-1.18,3.73,3.73,0,0,0,1.77-3.27,3,3,0,0,0-1.67-3,17,17,0,0,0-4.43-1.31l-2.23-.38a17.13,17.13,0,0,1-4-1.19,7.08,7.08,0,0,1-2.83-2.15,5.35,5.35,0,0,1-1-3.39,5.59,5.59,0,0,1,2.39-4.79,12.46,12.46,0,0,1,12.82.07,8.05,8.05,0,0,1,3.08,5.25l-2.71.58a5.53,5.53,0,0,0-2.3-4,8.2,8.2,0,0,0-4.53-1.17,7.79,7.79,0,0,0-4.25,1,3.33,3.33,0,0,0-1.6,3,3.08,3.08,0,0,0,1.45,2.83,11.23,11.23,0,0,0,4,1.33l2.22.39a21.47,21.47,0,0,1,4.36,1.14,7.43,7.43,0,0,1,3.07,2.1,5.39,5.39,0,0,1,1.14,3.58,6,6,0,0,1-2.52,5.16A11.42,11.42,0,0,1,247.47,1091.12Z"/><path class="cls-4" d="M288.55,1102.35v-50.91h2.9v50.91Z"/><path class="cls-4" d="M319.67,1090.44l-10.89-33.87H312l10.11,32.08h.58l10.12-32.08h3.24l-10.89,33.87Z"/><path class="cls-4" d="M343.13,1062.86a2.46,2.46,0,0,1-2.51-2.51,2.43,2.43,0,0,1,.72-1.82,2.47,2.47,0,0,1,1.79-.7,2.4,2.4,0,0,1,2.52,2.52,2.49,2.49,0,0,1-.7,1.79A2.43,2.43,0,0,1,343.13,1062.86Zm-1.45,27.58v-23.51h2.91v23.51Z"/><path class="cls-4" d="M363.26,1091.12a11.2,11.2,0,0,1-5.71-1.48,10.76,10.76,0,0,1-4.09-4.21,13.1,13.1,0,0,1-1.52-6.46v-.58a13.26,13.26,0,0,1,1.5-6.46,10.63,10.63,0,0,1,4.09-4.21,11.4,11.4,0,0,1,5.73-1.47,12.14,12.14,0,0,1,4.41.7,8.72,8.72,0,0,1,2.92,1.79,8.87,8.87,0,0,1,1.77,2.3h.58v-14.47h2.9v33.87H373v-4.3h-.58a10.1,10.1,0,0,1-3.17,3.46A10.38,10.38,0,0,1,363.26,1091.12Zm.68-2.61a8.67,8.67,0,0,0,6.51-2.57,9.7,9.7,0,0,0,2.49-7.06v-.39a9.7,9.7,0,0,0-2.49-7.06,9.49,9.49,0,0,0-13,0,9.63,9.63,0,0,0-2.52,7.06v.39a9.63,9.63,0,0,0,2.52,7.06A8.66,8.66,0,0,0,363.94,1088.51Z"/><path class="cls-4" d="M395.2,1091.12a12.66,12.66,0,0,1-6.32-1.52,10.72,10.72,0,0,1-4.18-4.29,13.06,13.06,0,0,1-1.5-6.34v-.58a13,13,0,0,1,1.5-6.36,10.87,10.87,0,0,1,4.14-4.26,11.84,11.84,0,0,1,6-1.52,12,12,0,0,1,5.83,1.38,9.9,9.9,0,0,1,4,4,12.38,12.38,0,0,1,1.45,6.17v1.54h-20a9.32,9.32,0,0,0,2.69,6.8,9,9,0,0,0,6.41,2.4,7.79,7.79,0,0,0,5.1-1.5,10,10,0,0,0,2.79-3.68l2.61,1.16a13.1,13.1,0,0,1-2,3.12,9.89,9.89,0,0,1-3.31,2.52A11.84,11.84,0,0,1,395.2,1091.12Zm-9.05-14.32h17a8.13,8.13,0,0,0-2.46-5.88,8.42,8.42,0,0,0-5.86-2.06,8.52,8.52,0,0,0-5.86,2.06A9.24,9.24,0,0,0,386.15,1076.8Z"/><path class="cls-4" d="M424,1091.12a12.55,12.55,0,0,1-6.27-1.52,10.59,10.59,0,0,1-4.16-4.26,13.26,13.26,0,0,1-1.48-6.37v-.58a13.22,13.22,0,0,1,1.48-6.36,10.59,10.59,0,0,1,4.16-4.26,13.67,13.67,0,0,1,12.53,0,10.68,10.68,0,0,1,4.17,4.26,13.21,13.21,0,0,1,1.47,6.36v.58a13.25,13.25,0,0,1-1.47,6.37,10.68,10.68,0,0,1-4.17,4.26A12.51,12.51,0,0,1,424,1091.12Zm0-2.61a8.49,8.49,0,0,0,6.58-2.64,10,10,0,0,0,2.42-7v-.39a10,10,0,0,0-2.42-7,9.5,9.5,0,0,0-13.14,0,9.88,9.88,0,0,0-2.44,7v.39a9.88,9.88,0,0,0,2.44,7A8.51,8.51,0,0,0,424,1088.51Z"/><path class="cls-4" d="M455.68,1090.44v-33.87h20.47v2.81H458.78v12.68h16v2.8h-16v12.78h17.57v2.8Z"/><path class="cls-4" d="M493.38,1091.12a11.18,11.18,0,0,1-5.71-1.48,10.7,10.7,0,0,1-4.09-4.21,13,13,0,0,1-1.53-6.46v-.58a13.26,13.26,0,0,1,1.5-6.46,10.69,10.69,0,0,1,4.09-4.21,11.43,11.43,0,0,1,5.74-1.47,12,12,0,0,1,4.4.7,8.62,8.62,0,0,1,4.69,4.09h.59v-14.47H506v33.87h-2.81v-4.3h-.58a10,10,0,0,1-3.17,3.46A10.32,10.32,0,0,1,493.38,1091.12Zm.67-2.61a8.67,8.67,0,0,0,6.51-2.57,9.71,9.71,0,0,0,2.5-7.06v-.39a9.71,9.71,0,0,0-2.5-7.06,9.49,9.49,0,0,0-13,0,9.63,9.63,0,0,0-2.52,7.06v.39a9.63,9.63,0,0,0,2.52,7.06A8.69,8.69,0,0,0,494.05,1088.51Z"/><path class="cls-4" d="M515.93,1062.86a2.46,2.46,0,0,1-2.52-2.51,2.43,2.43,0,0,1,.72-1.82,2.5,2.5,0,0,1,1.8-.7,2.4,2.4,0,0,1,2.51,2.52,2.49,2.49,0,0,1-.7,1.79A2.42,2.42,0,0,1,515.93,1062.86Zm-1.46,27.58v-23.51h2.91v23.51Z"/><path class="cls-4" d="M534.41,1090.44a3.76,3.76,0,0,1-2.83-1,3.68,3.68,0,0,1-.94-2.7v-17.23h-7.55v-2.61h7.55v-8.81h2.9v8.81h8.22v2.61h-8.22v16.84a1.28,1.28,0,0,0,1.45,1.45h5.52v2.61Z"/><path class="cls-4" d="M549.7,1062.86a2.44,2.44,0,0,1-1.79-.72,2.48,2.48,0,0,1-.73-1.79,2.43,2.43,0,0,1,.73-1.82,2.46,2.46,0,0,1,1.79-.7,2.43,2.43,0,0,1,1.81.7,2.46,2.46,0,0,1,.71,1.82,2.5,2.5,0,0,1-.71,1.79A2.4,2.4,0,0,1,549.7,1062.86Zm-1.45,27.58v-23.51h2.9v23.51Z"/><path class="cls-4" d="M559.67,1090.44v-23.51h2.81v4.35h.58a8.8,8.8,0,0,1,2.85-3.36,9.49,9.49,0,0,1,5.76-1.48,10.33,10.33,0,0,1,4.69,1.07,8.16,8.16,0,0,1,3.41,3.21,10.38,10.38,0,0,1,1.29,5.4v14.32h-2.91v-14.13q0-3.87-1.93-5.56a7.59,7.59,0,0,0-5.18-1.69,8.23,8.23,0,0,0-6,2.39q-2.41,2.4-2.42,7.23v11.76Z"/><path class="cls-4" d="M588.12,1078.78v-.58a12.65,12.65,0,0,1,1.53-6.39,10.74,10.74,0,0,1,4.08-4.11,11.38,11.38,0,0,1,5.71-1.45,10.38,10.38,0,0,1,6,1.52,10.1,10.1,0,0,1,3.17,3.46h.58v-4.3h2.71v29.51a3.78,3.78,0,0,1-.92,2.71,3.69,3.69,0,0,1-2.81,1H592.14v-2.61h15.48a1.31,1.31,0,0,0,1.5-1.45v-10.12h-.58a9.51,9.51,0,0,1-1.77,2.28,8.59,8.59,0,0,1-2.92,1.81,12.1,12.1,0,0,1-4.41.7,11.48,11.48,0,0,1-5.73-1.45,10.51,10.51,0,0,1-4.09-4.14A12.84,12.84,0,0,1,588.12,1078.78Zm12,9.34a8.75,8.75,0,0,0,6.51-2.52,9.39,9.39,0,0,0,2.49-6.92v-.38a9.42,9.42,0,0,0-2.49-7,9.72,9.72,0,0,0-13,0,9.35,9.35,0,0,0-2.52,7v.38a9.33,9.33,0,0,0,2.52,6.92A8.76,8.76,0,0,0,600.12,1088.12Z"/><path class="cls-4" d="M632.83,1102.35v-50.91h2.9v50.91Z"/><path class="cls-4" d="M654.7,1090.44v-2.8h4.84v-28.26H654.7v-2.81h12.87q6.63,0,10.33,3.36t3.7,10.48v6.24q0,7.11-3.7,10.45t-10.33,3.34Zm7.94-2.8h4.93q5.32,0,8.13-2.57t2.81-8.27v-6.53q0-5.76-2.81-8.3c-1.87-1.7-4.58-2.54-8.13-2.54h-4.93Z"/><path class="cls-4" d="M690.12,1062.86a2.44,2.44,0,0,1-1.79-.72,2.48,2.48,0,0,1-.73-1.79,2.43,2.43,0,0,1,.73-1.82,2.46,2.46,0,0,1,1.79-.7,2.43,2.43,0,0,1,1.81.7,2.46,2.46,0,0,1,.71,1.82,2.5,2.5,0,0,1-.71,1.79A2.4,2.4,0,0,1,690.12,1062.86Zm-1.45,27.58v-23.51h2.9v23.51Z"/><path class="cls-4" d="M698.93,1078.78v-.58a12.75,12.75,0,0,1,1.52-6.39,10.84,10.84,0,0,1,4.09-4.11,11.36,11.36,0,0,1,5.71-1.45,10.32,10.32,0,0,1,6,1.52,9.9,9.9,0,0,1,3.17,3.46H720v-4.3h2.71v29.51a3.74,3.74,0,0,1-.92,2.71,3.66,3.66,0,0,1-2.8,1H702.94v-2.61h15.49a1.31,1.31,0,0,0,1.5-1.45v-10.12h-.58a9.51,9.51,0,0,1-1.77,2.28,8.64,8.64,0,0,1-2.93,1.81,12,12,0,0,1-4.4.7,11.46,11.46,0,0,1-5.73-1.45,10.51,10.51,0,0,1-4.09-4.14A12.84,12.84,0,0,1,698.93,1078.78Zm12,9.34a8.78,8.78,0,0,0,6.51-2.52,9.39,9.39,0,0,0,2.49-6.92v-.38a9.42,9.42,0,0,0-2.49-7,9.73,9.73,0,0,0-13,0,9.39,9.39,0,0,0-2.51,7v.38a9.36,9.36,0,0,0,2.51,6.92A8.78,8.78,0,0,0,710.93,1088.12Z"/><path class="cls-4" d="M732.7,1062.86a2.44,2.44,0,0,1-1.79-.72,2.47,2.47,0,0,1-.72-1.79,2.43,2.43,0,0,1,.72-1.82,2.68,2.68,0,0,1,3.61,0,2.49,2.49,0,0,1,.7,1.82,2.53,2.53,0,0,1-.7,1.79A2.44,2.44,0,0,1,732.7,1062.86Zm-1.45,27.58v-23.51h2.9v23.51Z"/><path class="cls-4" d="M751.19,1090.44a3.79,3.79,0,0,1-2.84-1,3.72,3.72,0,0,1-.94-2.7v-17.23h-7.55v-2.61h7.55v-8.81h2.91v8.81h8.22v2.61h-8.22v16.84a1.28,1.28,0,0,0,1.45,1.45h5.51v2.61Z"/><path class="cls-4" d="M772,1091.12a11.27,11.27,0,0,1-4.47-.85,7.12,7.12,0,0,1-3.17-2.49,6.66,6.66,0,0,1-1.17-4,6.34,6.34,0,0,1,1.17-3.92,7,7,0,0,1,3.14-2.32,12.15,12.15,0,0,1,4.41-.77h8.61v-1.89a5.9,5.9,0,0,0-1.65-4.45,6.57,6.57,0,0,0-4.79-1.6,7.38,7.38,0,0,0-4.91,1.53,7.48,7.48,0,0,0-2.44,4.09l-2.81-.83a11.31,11.31,0,0,1,1.84-3.75,8.87,8.87,0,0,1,3.34-2.66,11.52,11.52,0,0,1,5-1,9.62,9.62,0,0,1,6.9,2.32,8.52,8.52,0,0,1,2.44,6.49v11.41c0,1,.45,1.46,1.36,1.46h2.27v2.51H784a3.17,3.17,0,0,1-2.37-.89,3.37,3.37,0,0,1-.87-2.45v-.33h-.48a11.18,11.18,0,0,1-1.62,2.08,7.43,7.43,0,0,1-2.59,1.64A11.08,11.08,0,0,1,772,1091.12Zm.2-2.61a8.24,8.24,0,0,0,6-2.25,8.51,8.51,0,0,0,2.3-6.37v-.58H772a7.55,7.55,0,0,0-4.18,1.09,3.73,3.73,0,0,0-1.67,3.37,4,4,0,0,0,1.72,3.5A7.25,7.25,0,0,0,772.24,1088.51Z"/><path class="cls-4" d="M792.61,1090.44v-33.87h2.9v33.87Z"/><path class="cls-4" d="M816.41,1090.44v-33.87H829a12.42,12.42,0,0,1,5.39,1.14,8.81,8.81,0,0,1,5.2,8.44v.58a9.12,9.12,0,0,1-1.43,5.2,9,9,0,0,1-3.82,3.27,12.54,12.54,0,0,1-5.34,1.11h-9.44v14.13Zm3.1-16.93h9.1a8.57,8.57,0,0,0,5.73-1.79,6.27,6.27,0,0,0,2.11-5v-.48a6.32,6.32,0,0,0-2.06-5.06,8.64,8.64,0,0,0-5.78-1.76h-9.1Z"/><path class="cls-4" d="M852.17,1091.12a11.27,11.27,0,0,1-4.47-.85,7.12,7.12,0,0,1-3.17-2.49,6.66,6.66,0,0,1-1.17-4,6.34,6.34,0,0,1,1.17-3.92,7,7,0,0,1,3.14-2.32,12.13,12.13,0,0,1,4.4-.77h8.62v-1.89a5.9,5.9,0,0,0-1.65-4.45,6.57,6.57,0,0,0-4.79-1.6,7.38,7.38,0,0,0-4.91,1.53,7.48,7.48,0,0,0-2.44,4.09l-2.81-.83a11.31,11.31,0,0,1,1.84-3.75,8.87,8.87,0,0,1,3.34-2.66,11.49,11.49,0,0,1,5-1,9.62,9.62,0,0,1,6.9,2.32,8.52,8.52,0,0,1,2.44,6.49v11.41c0,1,.45,1.46,1.36,1.46h2.27v2.51h-3.1a3.17,3.17,0,0,1-2.37-.89,3.37,3.37,0,0,1-.87-2.45v-.33h-.48a11.18,11.18,0,0,1-1.62,2.08,7.52,7.52,0,0,1-2.59,1.64A11.08,11.08,0,0,1,852.17,1091.12Zm.19-2.61a8.24,8.24,0,0,0,6-2.25,8.51,8.51,0,0,0,2.3-6.37v-.58h-8.57a7.53,7.53,0,0,0-4.18,1.09,3.73,3.73,0,0,0-1.67,3.37,4,4,0,0,0,1.72,3.5A7.24,7.24,0,0,0,852.36,1088.51Z"/><path class="cls-4" d="M874.19,1062.86a2.48,2.48,0,0,1-2.52-2.51,2.4,2.4,0,0,1,.73-1.82,2.5,2.5,0,0,1,4.3,1.82,2.49,2.49,0,0,1-.7,1.79A2.42,2.42,0,0,1,874.19,1062.86Zm-1.45,27.58v-23.51h2.9v23.51Z"/><path class="cls-4" d="M884.16,1090.44v-23.51H887v4.35h.58a8.75,8.75,0,0,1,2.86-3.36,9.49,9.49,0,0,1,5.76-1.48,10.33,10.33,0,0,1,4.69,1.07,8.16,8.16,0,0,1,3.41,3.21,10.48,10.48,0,0,1,1.28,5.4v14.32h-2.9v-14.13q0-3.87-1.94-5.56a7.56,7.56,0,0,0-5.17-1.69,8.23,8.23,0,0,0-6,2.39c-1.62,1.6-2.42,4-2.42,7.23v11.76Z"/><path class="cls-4" d="M921.61,1090.44a3.76,3.76,0,0,1-2.83-1,3.69,3.69,0,0,1-.95-2.7v-17.23h-7.55v-2.61h7.55v-8.81h2.91v8.81H929v2.61h-8.22v16.84a1.28,1.28,0,0,0,1.45,1.45h5.51v2.61Z"/><path class="cls-4" d="M936.9,1062.86a2.48,2.48,0,0,1-2.52-2.51,2.4,2.4,0,0,1,.73-1.82,2.46,2.46,0,0,1,1.79-.7,2.43,2.43,0,0,1,1.81.7,2.46,2.46,0,0,1,.71,1.82,2.5,2.5,0,0,1-.71,1.79A2.4,2.4,0,0,1,936.9,1062.86Zm-1.45,27.58v-23.51h2.9v23.51Z"/><path class="cls-4" d="M946.87,1090.44v-23.51h2.8v4.35h.58a8.83,8.83,0,0,1,2.86-3.36,9.49,9.49,0,0,1,5.76-1.48,10.33,10.33,0,0,1,4.69,1.07,8.16,8.16,0,0,1,3.41,3.21,10.38,10.38,0,0,1,1.28,5.4v14.32h-2.9v-14.13q0-3.87-1.93-5.56a7.6,7.6,0,0,0-5.18-1.69,8.23,8.23,0,0,0-6,2.39q-2.41,2.4-2.42,7.23v11.76Z"/><path class="cls-4" d="M975.32,1078.78v-.58a12.75,12.75,0,0,1,1.52-6.39,10.84,10.84,0,0,1,4.09-4.11,11.38,11.38,0,0,1,5.71-1.45,10.38,10.38,0,0,1,6,1.52,10.1,10.1,0,0,1,3.17,3.46h.58v-4.3h2.71v29.51a3.78,3.78,0,0,1-.92,2.71,3.7,3.7,0,0,1-2.81,1H979.34v-2.61h15.48a1.31,1.31,0,0,0,1.5-1.45v-10.12h-.58a9.51,9.51,0,0,1-1.77,2.28,8.69,8.69,0,0,1-2.92,1.81,12.14,12.14,0,0,1-4.41.7,11.48,11.48,0,0,1-5.73-1.45,10.51,10.51,0,0,1-4.09-4.14A12.84,12.84,0,0,1,975.32,1078.78Zm12,9.34a8.75,8.75,0,0,0,6.51-2.52,9.39,9.39,0,0,0,2.49-6.92v-.38a9.42,9.42,0,0,0-2.49-7,9.72,9.72,0,0,0-13,0,9.35,9.35,0,0,0-2.52,7v.38a9.33,9.33,0,0,0,2.52,6.92A8.74,8.74,0,0,0,987.32,1088.12Z"/><path class="cls-4" d="M67.27,1166.39a11.31,11.31,0,0,1-4.47-.85,7.12,7.12,0,0,1-3.17-2.49,6.65,6.65,0,0,1-1.16-4,6.28,6.28,0,0,1,1.16-3.91,7,7,0,0,1,3.14-2.33,12.19,12.19,0,0,1,4.41-.77h8.61v-1.89a5.93,5.93,0,0,0-1.64-4.45,6.61,6.61,0,0,0-4.8-1.6,7.38,7.38,0,0,0-4.91,1.53,7.48,7.48,0,0,0-2.44,4.09l-2.81-.83a11.31,11.31,0,0,1,1.84-3.75,8.87,8.87,0,0,1,3.34-2.66,11.52,11.52,0,0,1,5-1,9.62,9.62,0,0,1,6.9,2.32,8.52,8.52,0,0,1,2.44,6.49v11.42c0,1,.45,1.45,1.36,1.45h2.27v2.51H79.23a3.14,3.14,0,0,1-2.37-.89,3.33,3.33,0,0,1-.88-2.45V1162H75.5a11.18,11.18,0,0,1-1.62,2.08,7.43,7.43,0,0,1-2.59,1.64A11,11,0,0,1,67.27,1166.39Zm.2-2.61a8.24,8.24,0,0,0,6-2.25,8.51,8.51,0,0,0,2.3-6.36v-.59H67.23a7.56,7.56,0,0,0-4.19,1.09,3.75,3.75,0,0,0-1.67,3.37,4,4,0,0,0,1.72,3.5A7.25,7.25,0,0,0,67.47,1163.78Z"/><path class="cls-4" d="M87.84,1165.71V1142.2h2.8v4.35h.59a8.8,8.8,0,0,1,2.85-3.36,9.56,9.56,0,0,1,5.76-1.48,10.33,10.33,0,0,1,4.69,1.07,8.16,8.16,0,0,1,3.41,3.21,10.38,10.38,0,0,1,1.29,5.4v14.32h-2.91v-14.13q0-3.87-1.93-5.56a7.59,7.59,0,0,0-5.18-1.69,8.23,8.23,0,0,0-6,2.39q-2.41,2.4-2.42,7.24v11.75Z"/><path class="cls-4" d="M127.61,1166.39a11.3,11.3,0,0,1-5.71-1.47,10.81,10.81,0,0,1-4.08-4.21,13,13,0,0,1-1.53-6.46v-.59a13.26,13.26,0,0,1,1.5-6.46,10.63,10.63,0,0,1,4.09-4.21,11.42,11.42,0,0,1,5.73-1.47,12.1,12.1,0,0,1,4.41.7,8.72,8.72,0,0,1,4.69,4.09h.58v-14.47h2.9v33.87h-2.8v-4.3h-.58a10.1,10.1,0,0,1-3.17,3.46A10.38,10.38,0,0,1,127.61,1166.39Zm.68-2.61a8.67,8.67,0,0,0,6.51-2.57,9.7,9.7,0,0,0,2.49-7.06v-.39a9.7,9.7,0,0,0-2.49-7.06,9.49,9.49,0,0,0-13,0,9.63,9.63,0,0,0-2.52,7.06v.39a9.63,9.63,0,0,0,2.52,7.06A8.68,8.68,0,0,0,128.29,1163.78Z"/><path class="cls-4" d="M167.58,1165.71l-8.8-23.51h3.09l7.74,21.29h.59l7.74-21.29H181l-8.8,23.51Z"/><path class="cls-4" d="M196.86,1166.39a12.66,12.66,0,0,1-6.32-1.52,10.72,10.72,0,0,1-4.18-4.29,13,13,0,0,1-1.5-6.33v-.59a13,13,0,0,1,1.5-6.36,10.92,10.92,0,0,1,4.13-4.26,12.86,12.86,0,0,1,11.86-.14,10,10,0,0,1,4,4,12.38,12.38,0,0,1,1.45,6.17v1.54h-20a9.32,9.32,0,0,0,2.69,6.8,9,9,0,0,0,6.41,2.4,7.79,7.79,0,0,0,5.1-1.5,9.9,9.9,0,0,0,2.78-3.68l2.62,1.16a13.75,13.75,0,0,1-2,3.12,9.93,9.93,0,0,1-3.32,2.52A11.79,11.79,0,0,1,196.86,1166.39Zm-9.05-14.32h17a8.09,8.09,0,0,0-2.47-5.88,8.37,8.37,0,0,0-5.85-2.06,8.52,8.52,0,0,0-5.86,2.06A9.19,9.19,0,0,0,187.81,1152.07Z"/><path class="cls-4" d="M225.7,1166.39a12.6,12.6,0,0,1-6.13-1.47,10.72,10.72,0,0,1-4.23-4.24,13.05,13.05,0,0,1-1.55-6.48v-.49a13.06,13.06,0,0,1,1.55-6.51,10.77,10.77,0,0,1,4.23-4.21,12.6,12.6,0,0,1,6.13-1.47,11.86,11.86,0,0,1,5.73,1.28,10.09,10.09,0,0,1,3.68,3.34,11.05,11.05,0,0,1,1.67,4.33l-2.86.58a8.52,8.52,0,0,0-1.21-3.46,7,7,0,0,0-2.71-2.51,9.82,9.82,0,0,0-8.9.24,8.49,8.49,0,0,0-3.22,3.34,10.39,10.39,0,0,0-1.18,5.1v.39a10.39,10.39,0,0,0,1.18,5.1,8.49,8.49,0,0,0,3.22,3.34,9,9,0,0,0,4.6,1.19,8,8,0,0,0,5.9-2,8.85,8.85,0,0,0,2.52-4.91l2.85.58a11.6,11.6,0,0,1-1.81,4.33,10.5,10.5,0,0,1-3.73,3.34A11.86,11.86,0,0,1,225.7,1166.39Z"/><path class="cls-4" d="M251.63,1165.71a3.8,3.8,0,0,1-2.83-1,3.72,3.72,0,0,1-.94-2.71v-17.23h-7.55v-2.61h7.55v-8.81h2.9v8.81H259v2.61h-8.23v16.84a1.28,1.28,0,0,0,1.45,1.45h5.52v2.61Z"/><path class="cls-4" d="M275.34,1166.39a12.51,12.51,0,0,1-6.26-1.52,10.68,10.68,0,0,1-4.17-4.26,13.24,13.24,0,0,1-1.47-6.36v-.59a13.24,13.24,0,0,1,1.47-6.36,10.68,10.68,0,0,1,4.17-4.26,13.67,13.67,0,0,1,12.53,0,10.59,10.59,0,0,1,4.16,4.26,13.24,13.24,0,0,1,1.48,6.36v.59a13.24,13.24,0,0,1-1.48,6.36,10.59,10.59,0,0,1-4.16,4.26A12.55,12.55,0,0,1,275.34,1166.39Zm0-2.61a8.47,8.47,0,0,0,6.58-2.64,9.91,9.91,0,0,0,2.42-7v-.39a9.91,9.91,0,0,0-2.42-7,9.48,9.48,0,0,0-13.13,0,9.88,9.88,0,0,0-2.45,7v.39a9.88,9.88,0,0,0,2.45,7A8.48,8.48,0,0,0,275.34,1163.78Z"/><path class="cls-4" d="M294.6,1165.71V1142.2h2.81v3H298a4.5,4.5,0,0,1,2-2.32,7.71,7.71,0,0,1,3.7-.73h2.76v2.71h-3.1a6,6,0,0,0-4.26,1.5,6.17,6.17,0,0,0-1.6,4.69v14.71Z"/><path class="cls-4" d="M332.15,1166.39a11.32,11.32,0,0,1-4.48-.85,7.17,7.17,0,0,1-3.17-2.49,6.72,6.72,0,0,1-1.16-4,6.35,6.35,0,0,1,1.16-3.91,7.06,7.06,0,0,1,3.15-2.33,12.13,12.13,0,0,1,4.4-.77h8.62v-1.89a5.9,5.9,0,0,0-1.65-4.45,6.59,6.59,0,0,0-4.79-1.6,6.93,6.93,0,0,0-7.35,5.62l-2.81-.83a11.31,11.31,0,0,1,1.84-3.75,8.87,8.87,0,0,1,3.34-2.66,11.46,11.46,0,0,1,5-1,9.62,9.62,0,0,1,6.9,2.32,8.56,8.56,0,0,1,2.44,6.49v11.42c0,1,.45,1.45,1.35,1.45h2.28v2.51h-3.1a3.14,3.14,0,0,1-2.37-.89,3.37,3.37,0,0,1-.87-2.45V1162h-.48a10.84,10.84,0,0,1-1.63,2.08,7.38,7.38,0,0,1-2.58,1.64A11.08,11.08,0,0,1,332.15,1166.39Zm.19-2.61a8.24,8.24,0,0,0,6-2.25,8.51,8.51,0,0,0,2.3-6.36v-.59H332.1a7.53,7.53,0,0,0-4.18,1.09,3.73,3.73,0,0,0-1.67,3.37,4.06,4.06,0,0,0,1.71,3.5A7.3,7.3,0,0,0,332.34,1163.78Z"/><path class="cls-4" d="M352.71,1165.71V1142.2h2.81v3h.58a4.5,4.5,0,0,1,2-2.32,7.73,7.73,0,0,1,3.7-.73h2.76v2.71h-3.1a6,6,0,0,0-4.26,1.5,6.17,6.17,0,0,0-1.59,4.69v14.71Z"/><path class="cls-4" d="M379.09,1165.71a3.83,3.83,0,0,1-2.84-1,3.77,3.77,0,0,1-.94-2.71v-17.23h-7.55v-2.61h7.55v-8.81h2.9v8.81h8.23v2.61h-8.23v16.84a1.29,1.29,0,0,0,1.46,1.45h5.51v2.61Z"/><path class="cls-4" d="M405.31,1177.62v-50.91h2.9v50.91Z"/><path class="cls-4" d="M432.36,1165.71l-5.95-33.87h3.14l5.42,32h.58l7-32h5.71l7,32h.58l5.42-32h3.14l-5.95,33.87h-5.76l-7-32h-.59l-7,32Z"/><path class="cls-4" d="M480.65,1166.39a12.62,12.62,0,0,1-6.31-1.52,10.75,10.75,0,0,1-4.19-4.29,13,13,0,0,1-1.5-6.33v-.59a13,13,0,0,1,1.5-6.36,10.87,10.87,0,0,1,4.14-4.26,11.86,11.86,0,0,1,6-1.52,12,12,0,0,1,5.83,1.38,9.92,9.92,0,0,1,4,4,12.48,12.48,0,0,1,1.45,6.17v1.54h-20a9.36,9.36,0,0,0,2.69,6.8,9,9,0,0,0,6.41,2.4,7.82,7.82,0,0,0,5.11-1.5,10,10,0,0,0,2.78-3.68l2.61,1.16a13.1,13.1,0,0,1-2,3.12,9.89,9.89,0,0,1-3.31,2.52A11.84,11.84,0,0,1,480.65,1166.39Zm-9-14.32h17a8.13,8.13,0,0,0-2.47-5.88,8.42,8.42,0,0,0-5.86-2.06,8.51,8.51,0,0,0-5.85,2.06A9.25,9.25,0,0,0,471.6,1152.07Z"/><path class="cls-4" d="M511.33,1166.39a10.38,10.38,0,0,1-6-1.52,10,10,0,0,1-3.16-3.46h-.59v4.3h-2.8v-33.87h2.9v14.47h.58a8.65,8.65,0,0,1,4.72-4.09,12.12,12.12,0,0,1,4.38-.7,11.37,11.37,0,0,1,5.76,1.47,10.69,10.69,0,0,1,4.06,4.21,13.26,13.26,0,0,1,1.5,6.46v.59a13.15,13.15,0,0,1-1.52,6.46,10.9,10.9,0,0,1-4.09,4.21A11.3,11.3,0,0,1,511.33,1166.39Zm-.68-2.61a8.67,8.67,0,0,0,6.51-2.57,9.7,9.7,0,0,0,2.49-7.06v-.39a9.7,9.7,0,0,0-2.49-7.06,9.49,9.49,0,0,0-13,0,9.63,9.63,0,0,0-2.52,7.06v.39a9.63,9.63,0,0,0,2.52,7.06A8.68,8.68,0,0,0,510.65,1163.78Z"/><path class="cls-4" d="M540.55,1165.71v-2.8h4.84v-28.26h-4.84v-2.81h12.88q6.63,0,10.33,3.37t3.7,10.47v6.24q0,7.11-3.7,10.45t-10.33,3.34Zm7.94-2.8h4.94q5.31,0,8.13-2.57c1.87-1.71,2.8-4.46,2.8-8.27v-6.53q0-5.76-2.8-8.3c-1.88-1.7-4.59-2.54-8.13-2.54h-4.94Z"/><path class="cls-4" d="M585.36,1166.39a12.62,12.62,0,0,1-6.31-1.52,10.75,10.75,0,0,1-4.19-4.29,13,13,0,0,1-1.5-6.33v-.59a13,13,0,0,1,1.5-6.36A10.87,10.87,0,0,1,579,1143a11.86,11.86,0,0,1,6-1.52,12,12,0,0,1,5.83,1.38,9.92,9.92,0,0,1,4,4,12.48,12.48,0,0,1,1.45,6.17v1.54h-20a9.36,9.36,0,0,0,2.69,6.8,9,9,0,0,0,6.41,2.4,7.8,7.8,0,0,0,5.11-1.5,10,10,0,0,0,2.78-3.68l2.61,1.16a13.1,13.1,0,0,1-2,3.12,9.89,9.89,0,0,1-3.31,2.52A11.84,11.84,0,0,1,585.36,1166.39Zm-9.05-14.32h17a8.13,8.13,0,0,0-2.47-5.88,8.42,8.42,0,0,0-5.86-2.06,8.51,8.51,0,0,0-5.85,2.06A9.25,9.25,0,0,0,576.31,1152.07Z"/><path class="cls-4" d="M612.8,1166.39a12.82,12.82,0,0,1-7.29-2c-2-1.36-3.25-3.6-3.7-6.73l2.86-.53a8.34,8.34,0,0,0,1.57,4,6.55,6.55,0,0,0,2.9,2.11,10.58,10.58,0,0,0,3.66.62,8.27,8.27,0,0,0,4.67-1.18,3.74,3.74,0,0,0,1.76-3.27,3,3,0,0,0-1.67-3,16.6,16.6,0,0,0-4.42-1.3l-2.23-.39a17.36,17.36,0,0,1-4-1.19,7.23,7.23,0,0,1-2.83-2.15,5.41,5.41,0,0,1-1-3.39,5.6,5.6,0,0,1,2.4-4.79,12.46,12.46,0,0,1,12.82.07,8,8,0,0,1,3.07,5.25l-2.71.59a5.5,5.5,0,0,0-2.3-4,8.16,8.16,0,0,0-4.52-1.16,7.86,7.86,0,0,0-4.26,1,3.34,3.34,0,0,0-1.59,3,3.07,3.07,0,0,0,1.45,2.83,11.17,11.17,0,0,0,4,1.33l2.23.39a21.64,21.64,0,0,1,4.36,1.14,7.43,7.43,0,0,1,3.07,2.1,5.39,5.39,0,0,1,1.14,3.58,6,6,0,0,1-2.52,5.16A11.44,11.44,0,0,1,612.8,1166.39Z"/><path class="cls-4" d="M630.46,1138.13a2.48,2.48,0,0,1-2.52-2.51,2.4,2.4,0,0,1,.73-1.82,2.55,2.55,0,0,1,3.6,3.61A2.42,2.42,0,0,1,630.46,1138.13ZM629,1165.71V1142.2h2.9v23.51Z"/><path class="cls-4" d="M639.26,1154.05v-.58a12.65,12.65,0,0,1,1.53-6.39,10.84,10.84,0,0,1,4.09-4.11,11.36,11.36,0,0,1,5.71-1.45,10.32,10.32,0,0,1,6,1.52,10,10,0,0,1,3.17,3.46h.58v-4.3h2.71v29.51a3.77,3.77,0,0,1-.92,2.71,3.68,3.68,0,0,1-2.8,1H643.28v-2.61h15.49a1.31,1.31,0,0,0,1.5-1.45v-10.12h-.59a9.45,9.45,0,0,1-1.76,2.28,8.74,8.74,0,0,1-2.93,1.81,12,12,0,0,1-4.4.7,11.52,11.52,0,0,1-5.74-1.45,10.42,10.42,0,0,1-4.08-4.14A12.73,12.73,0,0,1,639.26,1154.05Zm12,9.34a8.74,8.74,0,0,0,6.5-2.52,9.35,9.35,0,0,0,2.5-6.91v-.39a9.38,9.38,0,0,0-2.5-7,9.72,9.72,0,0,0-13,0,9.35,9.35,0,0,0-2.52,7v.39a9.32,9.32,0,0,0,2.52,6.91A8.78,8.78,0,0,0,651.27,1163.39Z"/><path class="cls-4" d="M671.59,1165.71V1142.2h2.8v4.35H675a8.8,8.8,0,0,1,2.85-3.36,9.56,9.56,0,0,1,5.76-1.48,10.33,10.33,0,0,1,4.69,1.07,8.16,8.16,0,0,1,3.41,3.21,10.38,10.38,0,0,1,1.29,5.4v14.32h-2.91v-14.13q0-3.87-1.93-5.56a7.59,7.59,0,0,0-5.18-1.69,8.23,8.23,0,0,0-6.05,2.39q-2.42,2.4-2.42,7.24v11.75Z"/><path class="cls-4" d="M720.89,1166.39a11.31,11.31,0,0,1-4.47-.85,7.12,7.12,0,0,1-3.17-2.49,6.72,6.72,0,0,1-1.16-4,6.35,6.35,0,0,1,1.16-3.91,7,7,0,0,1,3.15-2.33,12.09,12.09,0,0,1,4.4-.77h8.61v-1.89a5.93,5.93,0,0,0-1.64-4.45,6.6,6.6,0,0,0-4.79-1.6,7.39,7.39,0,0,0-4.92,1.53,7.48,7.48,0,0,0-2.44,4.09l-2.81-.83a11.31,11.31,0,0,1,1.84-3.75,8.87,8.87,0,0,1,3.34-2.66,11.54,11.54,0,0,1,5-1,9.61,9.61,0,0,1,6.89,2.32,8.52,8.52,0,0,1,2.44,6.49v11.42c0,1,.46,1.45,1.36,1.45h2.27v2.51h-3.09a3.14,3.14,0,0,1-2.37-.89,3.37,3.37,0,0,1-.88-2.45V1162h-.48a11.18,11.18,0,0,1-1.62,2.08,7.34,7.34,0,0,1-2.59,1.64A11,11,0,0,1,720.89,1166.39Zm.2-2.61a8.24,8.24,0,0,0,6-2.25,8.51,8.51,0,0,0,2.3-6.36v-.59h-8.56a7.56,7.56,0,0,0-4.19,1.09A3.75,3.75,0,0,0,715,1159a4,4,0,0,0,1.72,3.5A7.25,7.25,0,0,0,721.09,1163.78Z"/><path class="cls-4" d="M741.46,1165.71V1142.2h2.81v4.35h.58a8.8,8.8,0,0,1,2.85-3.36,9.56,9.56,0,0,1,5.76-1.48,10.33,10.33,0,0,1,4.69,1.07,8.16,8.16,0,0,1,3.41,3.21,10.38,10.38,0,0,1,1.29,5.4v14.32h-2.91v-14.13q0-3.87-1.93-5.56a7.59,7.59,0,0,0-5.18-1.69,8.23,8.23,0,0,0-6.05,2.39q-2.41,2.4-2.42,7.24v11.75Z"/><path class="cls-4" d="M781.23,1166.39a11.3,11.3,0,0,1-5.71-1.47,10.81,10.81,0,0,1-4.08-4.21,13,13,0,0,1-1.53-6.46v-.59a13.26,13.26,0,0,1,1.5-6.46,10.63,10.63,0,0,1,4.09-4.21,11.42,11.42,0,0,1,5.73-1.47,12.1,12.1,0,0,1,4.41.7,8.62,8.62,0,0,1,4.69,4.09h.58v-14.47h2.91v33.87H791v-4.3h-.58a10.1,10.1,0,0,1-3.17,3.46A10.38,10.38,0,0,1,781.23,1166.39Zm.68-2.61a8.67,8.67,0,0,0,6.51-2.57,9.7,9.7,0,0,0,2.49-7.06v-.39a9.7,9.7,0,0,0-2.49-7.06,9.49,9.49,0,0,0-13,0,9.63,9.63,0,0,0-2.52,7.06v.39a9.63,9.63,0,0,0,2.52,7.06A8.68,8.68,0,0,0,781.91,1163.78Z"/><path class="cls-4" d="M812.88,1165.71v-2.8h4.84v-28.26h-4.84v-2.81h12.87q6.63,0,10.33,3.37t3.7,10.47v6.24q0,7.11-3.7,10.45t-10.33,3.34Zm7.94-2.8h4.93q5.32,0,8.13-2.57c1.87-1.71,2.81-4.46,2.81-8.27v-6.53q0-5.76-2.81-8.3c-1.87-1.7-4.58-2.54-8.13-2.54h-4.93Z"/><path class="cls-4" d="M857.69,1166.39a12.66,12.66,0,0,1-6.32-1.52,10.72,10.72,0,0,1-4.18-4.29,13,13,0,0,1-1.5-6.33v-.59a13,13,0,0,1,1.5-6.36,10.85,10.85,0,0,1,4.13-4.26,11.9,11.9,0,0,1,6-1.52,12,12,0,0,1,5.83,1.38,10,10,0,0,1,4,4,12.38,12.38,0,0,1,1.45,6.17v1.54h-20a9.35,9.35,0,0,0,2.68,6.8,9,9,0,0,0,6.42,2.4,7.79,7.79,0,0,0,5.1-1.5,9.9,9.9,0,0,0,2.78-3.68l2.62,1.16a13.75,13.75,0,0,1-2,3.12,9.93,9.93,0,0,1-3.32,2.52A11.79,11.79,0,0,1,857.69,1166.39Zm-9.05-14.32h17a8.09,8.09,0,0,0-2.47-5.88,8.39,8.39,0,0,0-5.85-2.06,8.52,8.52,0,0,0-5.86,2.06A9.19,9.19,0,0,0,848.64,1152.07Z"/><path class="cls-4" d="M881.06,1165.71l-8.81-23.51h3.1l7.74,21.29h.58l7.74-21.29h3.1l-8.81,23.51Z"/><path class="cls-4" d="M910.33,1166.39a12.62,12.62,0,0,1-6.31-1.52,10.75,10.75,0,0,1-4.19-4.29,13,13,0,0,1-1.5-6.33v-.59a13,13,0,0,1,1.5-6.36A10.87,10.87,0,0,1,904,1143a12.84,12.84,0,0,1,11.85-.14,9.92,9.92,0,0,1,4,4,12.48,12.48,0,0,1,1.45,6.17v1.54h-20a9.31,9.31,0,0,0,2.68,6.8,9,9,0,0,0,6.41,2.4,7.8,7.8,0,0,0,5.11-1.5,10,10,0,0,0,2.78-3.68l2.61,1.16a13.1,13.1,0,0,1-2,3.12,9.79,9.79,0,0,1-3.31,2.52A11.81,11.81,0,0,1,910.33,1166.39Zm-9.05-14.32h17a8.09,8.09,0,0,0-2.47-5.88,8.42,8.42,0,0,0-5.86-2.06,8.51,8.51,0,0,0-5.85,2.06A9.25,9.25,0,0,0,901.28,1152.07Z"/><path class="cls-4" d="M928.43,1165.71v-33.87h2.9v33.87Z"/><path class="cls-4" d="M950.59,1166.39a12.55,12.55,0,0,1-6.27-1.52,10.66,10.66,0,0,1-4.16-4.26,13.24,13.24,0,0,1-1.47-6.36v-.59a13.24,13.24,0,0,1,1.47-6.36,10.66,10.66,0,0,1,4.16-4.26,13.69,13.69,0,0,1,12.54,0,10.66,10.66,0,0,1,4.16,4.26,13.24,13.24,0,0,1,1.47,6.36v.59a13.24,13.24,0,0,1-1.47,6.36,10.66,10.66,0,0,1-4.16,4.26A12.55,12.55,0,0,1,950.59,1166.39Zm0-2.61a8.49,8.49,0,0,0,6.58-2.64,10,10,0,0,0,2.42-7v-.39a10,10,0,0,0-2.42-7,9.5,9.5,0,0,0-13.14,0,9.88,9.88,0,0,0-2.44,7v.39a9.88,9.88,0,0,0,2.44,7A8.51,8.51,0,0,0,950.59,1163.78Z"/><path class="cls-4" d="M969.85,1175.39V1142.2h2.81v4.3h.58a9.9,9.9,0,0,1,3.17-3.46,10.32,10.32,0,0,1,6-1.52,11.27,11.27,0,0,1,5.71,1.47,10.91,10.91,0,0,1,4.09,4.19,13,13,0,0,1,1.52,6.48v.59a13.26,13.26,0,0,1-1.5,6.46,10.69,10.69,0,0,1-4.06,4.21,11.37,11.37,0,0,1-5.76,1.47,12.12,12.12,0,0,1-4.38-.7,8.51,8.51,0,0,1-2.95-1.82,9.67,9.67,0,0,1-1.77-2.27h-.58v13.79Zm11.9-11.61a8.67,8.67,0,0,0,6.51-2.57,9.7,9.7,0,0,0,2.49-7.06v-.39a9.7,9.7,0,0,0-2.49-7.06,9.49,9.49,0,0,0-13,0,9.63,9.63,0,0,0-2.52,7.06v.39a9.63,9.63,0,0,0,2.52,7.06A8.69,8.69,0,0,0,981.75,1163.78Z"/><path class="cls-4" d="M1000.91,1154.58v-2.71h14.33v2.71Z"/><path class="cls-4" d="M60.06,1241v-23.51h2.81v3.09h.58a7.23,7.23,0,0,1,6.87-3.58,7.56,7.56,0,0,1,4.62,1.31,7.44,7.44,0,0,1,2.54,3.15h.58a7.43,7.43,0,0,1,7.46-4.46,8.59,8.59,0,0,1,4.21,1,7.19,7.19,0,0,1,2.8,2.75,8.15,8.15,0,0,1,1,4.14V1241h-2.9v-15.82a5.45,5.45,0,0,0-1.53-4,5.76,5.76,0,0,0-4.28-1.52,6.48,6.48,0,0,0-4.69,1.81,7,7,0,0,0-1.89,5.3V1241h-2.9v-15.82a5.45,5.45,0,0,0-1.53-4,5.77,5.77,0,0,0-4.28-1.52,6.52,6.52,0,0,0-4.7,1.81,7.05,7.05,0,0,0-1.88,5.3V1241Z"/><path class="cls-4" d="M112.61,1241.66a12.62,12.62,0,0,1-6.31-1.52,10.78,10.78,0,0,1-4.19-4.28,13.08,13.08,0,0,1-1.5-6.34v-.58a13,13,0,0,1,1.5-6.37,10.87,10.87,0,0,1,4.14-4.26,11.9,11.9,0,0,1,6-1.52,12,12,0,0,1,5.83,1.38,10,10,0,0,1,4,4,12.38,12.38,0,0,1,1.45,6.17v1.55h-20a9.3,9.3,0,0,0,2.68,6.79,9,9,0,0,0,6.41,2.4,7.8,7.8,0,0,0,5.11-1.5,9.9,9.9,0,0,0,2.78-3.68l2.61,1.16a13.37,13.37,0,0,1-2,3.12,9.93,9.93,0,0,1-3.32,2.52A11.81,11.81,0,0,1,112.61,1241.66Zm-9-14.32h17a8.09,8.09,0,0,0-2.47-5.88,8.41,8.41,0,0,0-5.85-2.06,8.52,8.52,0,0,0-5.86,2.06A9.19,9.19,0,0,0,103.57,1227.34Z"/><path class="cls-4" d="M130.71,1241v-23.51h2.81v4.35h.58a8.8,8.8,0,0,1,2.85-3.36,9.58,9.58,0,0,1,5.76-1.48,10.33,10.33,0,0,1,4.69,1.07,8.2,8.2,0,0,1,3.42,3.22,10.41,10.41,0,0,1,1.28,5.39V1241h-2.9v-14.12c0-2.59-.65-4.44-1.94-5.57a7.59,7.59,0,0,0-5.18-1.69A8.29,8.29,0,0,0,136,1222q-2.42,2.4-2.42,7.24V1241Z"/><path class="cls-4" d="M168.16,1241a3.82,3.82,0,0,1-2.83-1,3.72,3.72,0,0,1-.94-2.71v-17.23h-7.55v-2.61h7.55v-8.81h2.9v8.81h8.23v2.61h-8.23v16.84a1.28,1.28,0,0,0,1.45,1.45h5.52V1241Z"/><path class="cls-4" d="M194.39,1252.89V1202h2.9v50.91Z"/><path class="cls-4" d="M228.6,1241.66a14.23,14.23,0,0,1-6.31-1.35,10.23,10.23,0,0,1-4.36-4,11.8,11.8,0,0,1-1.57-6.26v-.92h3v1a8.33,8.33,0,0,0,2.56,6.46,9.53,9.53,0,0,0,6.68,2.34,9,9,0,0,0,6.48-2.22,7.47,7.47,0,0,0,2.33-5.62v-.29a6.51,6.51,0,0,0-1.19-4.06,7,7,0,0,0-3.19-2.3,12.6,12.6,0,0,0-4.43-.75h-5v-4.06l13.74-9.34v-.49H217.13v-2.71h23.23v4.36l-13.6,9.24v.48h2.66a13.91,13.91,0,0,1,5.62,1.09,8.69,8.69,0,0,1,5.37,8.45v.48a10.18,10.18,0,0,1-1.46,5.49,9.71,9.71,0,0,1-4.11,3.66A14,14,0,0,1,228.6,1241.66Z"/><path class="cls-4" d="M245.44,1241v-2.8h4.84v-28.26h-4.84v-2.81h12.87q6.63,0,10.33,3.37t3.7,10.47v6.24q0,7.13-3.7,10.45T258.31,1241Zm7.93-2.8h4.94q5.32,0,8.13-2.57c1.87-1.71,2.81-4.46,2.81-8.27v-6.53q0-5.76-2.81-8.3c-1.87-1.7-4.58-2.54-8.13-2.54h-4.94Z"/><path class="cls-4" d="M291.79,1241v-33.87h6l10.26,32h.58l10.26-32H325V1241h-3v-32h-.58l-10.26,32h-5.52l-10.26-32h-.58v32Z"/><path class="cls-4" d="M344.15,1241.66a12.55,12.55,0,0,1-6.27-1.52,10.66,10.66,0,0,1-4.16-4.26,13.21,13.21,0,0,1-1.47-6.36v-.58a13.25,13.25,0,0,1,1.47-6.37,10.66,10.66,0,0,1,4.16-4.26,13.69,13.69,0,0,1,12.54,0,10.66,10.66,0,0,1,4.16,4.26,13.25,13.25,0,0,1,1.47,6.37v.58a13.21,13.21,0,0,1-1.47,6.36,10.66,10.66,0,0,1-4.16,4.26A12.55,12.55,0,0,1,344.15,1241.66Zm0-2.61a8.49,8.49,0,0,0,6.58-2.64,10,10,0,0,0,2.42-7V1229a10,10,0,0,0-2.42-7,9.5,9.5,0,0,0-13.14,0,9.88,9.88,0,0,0-2.44,7v.39a9.88,9.88,0,0,0,2.44,7A8.51,8.51,0,0,0,344.15,1239.05Z"/><path class="cls-4" d="M373.57,1241.66a11.27,11.27,0,0,1-5.71-1.47,10.9,10.9,0,0,1-4.09-4.21,13,13,0,0,1-1.52-6.46v-.58a13.21,13.21,0,0,1,1.5-6.46,10.5,10.5,0,0,1,4.09-4.21,11.28,11.28,0,0,1,5.73-1.48,12,12,0,0,1,4.4.7,8.69,8.69,0,0,1,4.7,4.09h.58v-14.47h2.9V1241h-2.81v-4.3h-.58a9.9,9.9,0,0,1-3.17,3.46A10.32,10.32,0,0,1,373.57,1241.66Zm.68-2.61a8.66,8.66,0,0,0,6.5-2.57,9.65,9.65,0,0,0,2.5-7.06V1229a9.66,9.66,0,0,0-2.5-7.06,9.49,9.49,0,0,0-13,0,9.67,9.67,0,0,0-2.51,7.06v.39a9.65,9.65,0,0,0,2.51,7.06A8.7,8.7,0,0,0,374.25,1239.05Z"/><path class="cls-4" d="M405.51,1241.66a12.66,12.66,0,0,1-6.32-1.52,10.69,10.69,0,0,1-4.18-4.28,13,13,0,0,1-1.5-6.34v-.58a12.93,12.93,0,0,1,1.5-6.37,10.78,10.78,0,0,1,4.13-4.26,11.9,11.9,0,0,1,6-1.52,12,12,0,0,1,5.83,1.38,10,10,0,0,1,4,4,12.38,12.38,0,0,1,1.45,6.17v1.55h-20a9.34,9.34,0,0,0,2.68,6.79,9,9,0,0,0,6.42,2.4,7.79,7.79,0,0,0,5.1-1.5,9.9,9.9,0,0,0,2.78-3.68L416,1235a13.75,13.75,0,0,1-2,3.12,9.93,9.93,0,0,1-3.32,2.52A11.79,11.79,0,0,1,405.51,1241.66Zm-9.05-14.32h17a8.09,8.09,0,0,0-2.47-5.88,8.39,8.39,0,0,0-5.85-2.06,8.52,8.52,0,0,0-5.86,2.06A9.19,9.19,0,0,0,396.46,1227.34Z"/><path class="cls-4" d="M423.6,1241v-33.87h2.91V1241Z"/><path class="cls-4" d="M436.47,1213.4a2.43,2.43,0,1,1,1.82-.72A2.43,2.43,0,0,1,436.47,1213.4ZM435,1241v-23.51h2.91V1241Z"/><path class="cls-4" d="M446.44,1241v-23.51h2.81v4.35h.58a8.8,8.8,0,0,1,2.85-3.36,9.58,9.58,0,0,1,5.76-1.48,10.33,10.33,0,0,1,4.69,1.07,8.2,8.2,0,0,1,3.42,3.22,10.41,10.41,0,0,1,1.28,5.39V1241h-2.9v-14.12c0-2.59-.65-4.44-1.94-5.57a7.59,7.59,0,0,0-5.18-1.69,8.29,8.29,0,0,0-6.05,2.39q-2.42,2.4-2.42,7.24V1241Z"/><path class="cls-4" d="M474.89,1229.32v-.58a12.65,12.65,0,0,1,1.53-6.39,10.77,10.77,0,0,1,4.09-4.11,11.36,11.36,0,0,1,5.71-1.45,10.32,10.32,0,0,1,6,1.52,10.1,10.1,0,0,1,3.17,3.46H496v-4.3h2.71V1247a3.77,3.77,0,0,1-.92,2.71,3.69,3.69,0,0,1-2.81,1H478.91v-2.61h15.48c1,0,1.5-.48,1.5-1.45v-10.12h-.58a9.72,9.72,0,0,1-1.76,2.28,8.59,8.59,0,0,1-2.93,1.81,12,12,0,0,1-4.4.7,11.52,11.52,0,0,1-5.74-1.45,10.55,10.55,0,0,1-4.09-4.13A12.88,12.88,0,0,1,474.89,1229.32Zm12,9.34a8.78,8.78,0,0,0,6.51-2.51,9.42,9.42,0,0,0,2.49-6.92v-.39a9.42,9.42,0,0,0-2.49-6.95,9.72,9.72,0,0,0-13,0,9.35,9.35,0,0,0-2.52,6.95v.39a9.36,9.36,0,0,0,2.52,6.92A8.8,8.8,0,0,0,486.89,1238.66Z"/></g><path class="cls-1" d="M431.09,449.23a82.28,82.28,0,0,1-13.5,7.07,60.2,60.2,0,0,1-23.14,4.5V510h14.46v60.72q0,17.69,4.34,28.92T425.14,617a42.29,42.29,0,0,0,18,8.36,106.5,106.5,0,0,0,22.33,2.25q28,0,40.48-18t12.54-60.08V536.63c0-3.43-.12-6.75-.33-10H505.3q0,22.82-3.69,31.32t-12.7,8.52q-8,0-11.56-4.66t-3.54-15.26V510h45.63V449.23H431.09Z"/></svg>