<svg id="Layer_1" data-name="Layer 1" xmlns="http://www.w3.org/2000/svg" viewBox="0 0 1920 1080"><defs><style>.cls-1{fill:#1c1c1c;}</style></defs><path class="cls-1" d="M395.54,488.2H219.22V429.43q8.1,0,12.6-.45c3-.3,5.14-1,6.44-2.1a7.81,7.81,0,0,0,2.4-5.24,84.34,84.34,0,0,0,.45-9.9V375.46a84.34,84.34,0,0,0-.45-9.9,7.86,7.86,0,0,0-2.4-5.24c-1.3-1.1-3.44-1.8-6.44-2.1s-7.2-.45-12.6-.45V299.3H394.34v84.55h-12.6a41.42,41.42,0,0,0-7.64-12.59q-4.65-5.1-13.2-7.95t-22.48-4q-13.95-1.2-35.84-1.5v27.28q16.2-1.19,24.74-3.59a80.07,80.07,0,0,0,15.44-6h10.5v33.28h-10.5a59.47,59.47,0,0,0-14.54-6q-8.55-2.4-25.64-3.6v30q22.79-.6,37.18-2.25t22.94-4.94q8.55-3.3,12.9-8.4A45.15,45.15,0,0,0,382.94,401h12.6Z"/><path class="cls-1" d="M505.88,395.85q3.9,2.1,7.65,4.35c2.5,1.5,4.84,2.84,7.05,4a42.24,42.24,0,0,0,10-8.39q3.45-4.2,3.45-8.1a15.55,15.55,0,0,0-2.55-8.69q-2.55-3.9-10-5.1V325.08h63.86v56.68q-3,1.2-9.14,4.19t-13.49,6.9q-7.37,3.9-15.3,8.55t-14.84,9.14q20.68,10.2,34.33,14.39t19.34,6.3v57H488.19V439.33a16.06,16.06,0,0,0,9.45-3.3,9.55,9.55,0,0,0,3.75-7.8,9.86,9.86,0,0,0-1.95-6.14,26.29,26.29,0,0,0-5.85-5.25q-3.9-2.7-7.65-4.95t-7.64-4.35a67.56,67.56,0,0,0-12.3,9.3q-4.5,4.5-4.5,9a14.26,14.26,0,0,0,2.7,8.55q2.7,3.75,10.5,4.95V488.2H410.83v-57q3.3-1.2,9.74-4.35t14.25-7.34q7.79-4.2,16.19-9t15.59-9.29q-19.78-9.9-34.63-14.1t-19.94-6V324.78h95.65V374c-3.8.2-6.59,1.2-8.39,3a10.13,10.13,0,0,0-2.7,7.49,9.13,9.13,0,0,0,2.25,6A25.23,25.23,0,0,0,505.88,395.85Z"/><path class="cls-1" d="M695.69,487.6v39h-96V464.51q9.59,0,12.44-4.34T615,446.52V398.85c0-6.6-.9-11.14-2.7-13.65s-6-3.74-12.59-3.74V324.78H663.9v56.08h9q3-31.19,15.29-45.13t38.38-13.94q27.88,0,41.08,18.74t13.2,59.82q0,46.17-11.7,68.51T732.87,491.2q-20.08,0-32.38-9.89t-17.4-31.79H674.4v20.09q0,9.3,4.05,13.65T695.69,487.6Zm-.6-49.17q14.68,0,19.94-6.45t5.25-24.44q0-17.39-6.6-22.34T696,380.26q-11.1,0-16.19,5.09t-5.1,16.2l-.3,34.18a27.8,27.8,0,0,0,9.44,2.25Q689.39,438.43,695.09,438.43Z"/><path class="cls-1" d="M966.75,425.53q0,29.4-17.39,47.53T890.89,491.2q-46.18,0-70.47-20.39t-24.28-65.67q0-43.77,22.64-63.56t66.71-19.79q23.38,0,39.28,5.09T950,341.12a51.83,51.83,0,0,1,13.2,21.44,88.2,88.2,0,0,1,3.89,26.69v12q0,6.28-.3,12.29H858.51q2.09,15.9,11.39,21.44t24.59,5.55q17.09,0,23.09-4.2t5.69-10.8Zm-81.86-56.07q-12,0-18.89,6.6t-8.09,22.19h51.87q-.3-18-7-23.39T884.89,369.46Z"/><path class="cls-1" d="M1105.88,322.08v66a220.76,220.76,0,0,0-25.63,1.2q-9.75,1.2-15,4.35a14.84,14.84,0,0,0-6.89,8.25,41.38,41.38,0,0,0-1.65,12.59v4.8a9.59,9.59,0,0,0,5.4,9.14q5.39,2.87,25.48,2.85v57H982.34v-57q9.6,0,12.45-4.35t2.85-13.64V399.45q0-10.2-2.85-14.1t-12.45-3.89V324.78h64.17v65.37h8.1q1.2-21.58,4.2-35.08t8.84-20.84a27.73,27.73,0,0,1,15.14-9.75Q1092.09,322.09,1105.88,322.08Z"/><path class="cls-1" d="M1188,289.1v35.68h42.58v56.68H1188v34.18q0,9.9,3.3,14.24t10.79,4.35q8.4,0,11.85-8t3.45-29.23h12q.3,4.5.3,9.29v12q0,39.29-11.69,56.07t-37.79,16.79a98.87,98.87,0,0,1-20.84-2.1,39.38,39.38,0,0,1-16.79-7.79q-7-5.7-11.09-16.2t-4-27V381.46H1114V335.58a56.16,56.16,0,0,0,21.59-4.2,75.27,75.27,0,0,0,18.44-10.8,73.15,73.15,0,0,0,14.09-14.84,55.06,55.06,0,0,0,8.25-16.64Z"/><path class="cls-1" d="M1291.19,263.31q21.58,0,32.53,6t11,19.19q0,13.8-11,19.49t-32.53,5.7q-21.3,0-32.39-5.7t-11.09-19.49q0-13.78,11.09-19.49T1291.19,263.31ZM1326,324.78v88.46q0,9.3,2.7,13.64t11.69,4.35v57h-92.65v-57q9.58,0,12.44-4.35t2.85-13.64V399.45q0-10.2-2.85-14.1t-12.44-3.89V324.78Z"/><path class="cls-1" d="M1519.37,446.52a57.07,57.07,0,0,1-2.55,17,37,37,0,0,1-8.24,14.39,39.18,39.18,0,0,1-15.15,9.74q-9.43,3.6-22.93,3.6a124.25,124.25,0,0,1-24.44-2.1,36.72,36.72,0,0,1-17.24-8.09q-6.91-6-11-16.5t-5.25-27.28h-10.19v51h-48.58V424.63h61.47a14.51,14.51,0,0,0,8.1,9.3q6,2.7,15.59,2.7,7.5,0,11.4-2.7c2.59-1.8,3.89-4.69,3.89-8.7q0-5.69-3.14-8.84t-13.35-3.15q-9,0-18.44.3t-19.34.3q-26.38,0-36-13.64t-9.6-32.24a54.14,54.14,0,0,1,2.7-16.94,40.49,40.49,0,0,1,22.94-25q8.84-3.89,21.14-3.9a89.23,89.23,0,0,1,21.74,2.4,34.44,34.44,0,0,1,15.89,8.7q6.45,6.3,10.35,17.24t5.69,27.74h10.2V324.78H1514v66.27H1452.5q-2.1-8.7-7.64-11.24a31.8,31.8,0,0,0-13.35-2.55q-9.88,0-13.79,3.3a10.52,10.52,0,0,0-3.9,8.39,9.54,9.54,0,0,0,4.35,8.55q4.35,2.85,16.34,2.85,1.2,0,5.4-.15t9.6-.3l11.09-.3q5.7-.15,9.6-.15,15.58,0,25.18,3.45t15,9.59a31.92,31.92,0,0,1,7.19,14.84A94.91,94.91,0,0,1,1519.37,446.52Z"/><path class="cls-1" d="M1703.18,425.53q0,29.4-17.39,47.53t-58.48,18.14q-46.17,0-70.46-20.39t-24.29-65.67q0-43.77,22.64-63.56t66.72-19.79q23.38,0,39.28,5.09t25.19,14.24a51.7,51.7,0,0,1,13.19,21.44,88.2,88.2,0,0,1,3.9,26.69v12c0,4.19-.11,8.29-.3,12.29H1594.93q2.1,15.9,11.39,21.44t24.59,5.55q17.1,0,23.09-4.2t5.7-10.8Zm-81.86-56.07q-12,0-18.89,6.6t-8.1,22.19h51.88q-.32-18-7-23.39T1621.32,369.46Z"/><path class="cls-1" d="M280.6,506.45q29.46,0,44.38,8.18t14.93,26.18q0,18.81-14.93,26.58t-44.38,7.78q-29,0-44.17-7.78T221.3,540.81q0-18.81,15.13-26.59T280.6,506.45Zm47.45,83.85V711q0,12.69,3.68,18.61t15.95,5.93V813.2H221.3V735.49q13.08,0,17-5.93T242.16,711V692.14q0-13.9-3.89-19.22t-17-5.32V590.3Z"/><path class="cls-1" d="M489.6,735.49V813.2H366.08V735.49q13.08,0,17-5.93T386.94,711V698.68q0-17.58-4.09-24.33t-16.77-6.75V590.3h87.53v76.89h11.86q2-24.13,7.15-39.88t14.11-24.74a49.53,49.53,0,0,1,22.5-12.68q13.5-3.67,32.31-3.68,38,0,51.74,18.2T607,663.1V711q0,12.69,3.07,18.61t13.29,5.93V813.2H505.14V735.49q11.45,0,15.13-5.93T524,711V698.27q0-18-5.93-23.92t-20.65-5.93q-12.27,0-21.07,5.72t-8.79,21.27V711q0,12.69,5.32,18.61T489.6,735.49Z"/><path d="M664.94,632.12a12.43,12.43,0,0,1-5.31-1.07,8.1,8.1,0,0,1-3.58-3.25,10.62,10.62,0,0,1-1.29-5.49v-19h2.59v19q0,3.8,2,5.63a9.43,9.43,0,0,0,11.19,0q2-1.83,2-5.63v-19h2.58v19a10.72,10.72,0,0,1-1.27,5.49,7.92,7.92,0,0,1-3.57,3.25A12.58,12.58,0,0,1,664.94,632.12Z"/><path d="M681.81,631.56V603.29h2.59v28.27Z"/><path d="M688.11,639.63,700,603.29h2.46l-11.87,36.34Z"/><path d="M715.93,632.12a12.43,12.43,0,0,1-5.31-1.07A8.1,8.1,0,0,1,707,627.8a10.62,10.62,0,0,1-1.29-5.49v-19h2.59v19q0,3.8,2,5.63a9.43,9.43,0,0,0,11.19,0q2-1.83,2-5.63v-19h2.58v19a10.72,10.72,0,0,1-1.27,5.49,7.92,7.92,0,0,1-3.57,3.25A12.58,12.58,0,0,1,715.93,632.12Z"/><path d="M730.78,631.56l9.45-14.26-9.29-14h3.11l7.84,12.24h.48l7.87-12.24h3.11l-9.28,14,9.44,14.26H750.4l-8-12.48h-.48l-8,12.48Z"/><path d="M767.32,631.56v-2.35h4V605.64h-4v-2.35h10.74q5.54,0,8.62,2.81c2.06,1.87,3.09,4.79,3.09,8.74v5.21c0,4-1,6.86-3.09,8.72s-4.93,2.79-8.62,2.79Zm6.62-2.35h4.12q4.44,0,6.78-2.13c1.56-1.43,2.35-3.73,2.35-6.91v-5.45c0-3.2-.79-5.51-2.35-6.92s-3.82-2.12-6.78-2.12h-4.12Z"/><path d="M804.71,632.12a10.46,10.46,0,0,1-5.27-1.27,8.88,8.88,0,0,1-3.49-3.57,10.86,10.86,0,0,1-1.26-5.29v-.49a10.86,10.86,0,0,1,1.26-5.31,9,9,0,0,1,3.45-3.55,9.81,9.81,0,0,1,5-1.27,10,10,0,0,1,4.87,1.15,8.35,8.35,0,0,1,3.33,3.31,10.35,10.35,0,0,1,1.21,5.15v1.29H797.12a7.75,7.75,0,0,0,2.24,5.67,7.44,7.44,0,0,0,5.35,2,6.54,6.54,0,0,0,4.26-1.25,8.28,8.28,0,0,0,2.32-3.07l2.18,1a11.49,11.49,0,0,1-1.68,2.6,8.21,8.21,0,0,1-2.76,2.1A9.73,9.73,0,0,1,804.71,632.12Zm-7.55-12h14.21a6.79,6.79,0,0,0-2.06-4.9,7,7,0,0,0-4.89-1.72,7.06,7.06,0,0,0-4.88,1.72A7.67,7.67,0,0,0,797.16,620.17Z"/><path d="M827.6,632.12a10.64,10.64,0,0,1-6.08-1.69,7.69,7.69,0,0,1-3.09-5.62l2.38-.44a7,7,0,0,0,1.32,3.37,5.47,5.47,0,0,0,2.42,1.76,8.76,8.76,0,0,0,3.05.52,6.86,6.86,0,0,0,3.89-1,3.09,3.09,0,0,0,1.48-2.72,2.49,2.49,0,0,0-1.4-2.46,13.79,13.79,0,0,0-3.69-1.1l-1.86-.32a13.81,13.81,0,0,1-3.35-1,6,6,0,0,1-2.36-1.79,4.52,4.52,0,0,1-.87-2.83,4.68,4.68,0,0,1,2-4,10.41,10.41,0,0,1,10.7.06,6.71,6.71,0,0,1,2.56,4.38l-2.26.49a4.61,4.61,0,0,0-1.92-3.31,6.79,6.79,0,0,0-3.77-1,6.5,6.5,0,0,0-3.55.85,2.77,2.77,0,0,0-1.34,2.5,2.57,2.57,0,0,0,1.22,2.36,9.27,9.27,0,0,0,3.31,1.11l1.85.33a18.06,18.06,0,0,1,3.64.94,6.26,6.26,0,0,1,2.56,1.76,4.5,4.5,0,0,1,.95,3,5,5,0,0,1-2.1,4.3A9.55,9.55,0,0,1,827.6,632.12Z"/><path d="M842.33,608.54a2,2,0,0,1-1.49-.6,2.06,2.06,0,0,1-.61-1.5,2,2,0,0,1,.61-1.51,2.13,2.13,0,0,1,3,3A2,2,0,0,1,842.33,608.54Zm-1.21,23V611.94h2.42v19.62Z"/><path d="M849.68,621.83v-.49A10.64,10.64,0,0,1,851,616a9.06,9.06,0,0,1,3.41-3.43,9.5,9.5,0,0,1,4.77-1.21,8.6,8.6,0,0,1,5,1.27,8.43,8.43,0,0,1,2.64,2.89h.48v-3.59h2.27v24.62a3.14,3.14,0,0,1-.77,2.26,3.08,3.08,0,0,1-2.34.81H853v-2.18H866c.84,0,1.25-.4,1.25-1.21V627.8h-.48a8,8,0,0,1-1.47,1.9,7.23,7.23,0,0,1-2.45,1.51,10.08,10.08,0,0,1-3.67.59,9.61,9.61,0,0,1-4.79-1.21,8.84,8.84,0,0,1-3.41-3.45A10.8,10.8,0,0,1,849.68,621.83Zm10,7.79a7.29,7.29,0,0,0,5.43-2.1,7.82,7.82,0,0,0,2.08-5.77v-.33a7.82,7.82,0,0,0-2.08-5.79,8.1,8.1,0,0,0-10.84,0,7.79,7.79,0,0,0-2.1,5.79v.33a7.79,7.79,0,0,0,2.1,5.77A7.33,7.33,0,0,0,859.69,629.62Z"/><path d="M876.65,631.56V611.94H879v3.63h.49a7.37,7.37,0,0,1,2.38-2.81,8,8,0,0,1,4.8-1.23,8.65,8.65,0,0,1,3.92.89,6.92,6.92,0,0,1,2.85,2.68,8.73,8.73,0,0,1,1.07,4.51v11.95h-2.43V619.77c0-2.16-.53-3.7-1.61-4.65a6.35,6.35,0,0,0-4.32-1.41,6.91,6.91,0,0,0-5,2c-1.34,1.33-2,3.34-2,6v9.81Z"/><path d="M922.11,641.49V599h2.42v42.47Z"/><path d="M952.31,631.56V603.29h2.58v25.92h14.86v2.35Z"/><path d="M983.24,632.12a10.36,10.36,0,0,1-5.23-1.27,8.78,8.78,0,0,1-3.47-3.55A10.91,10.91,0,0,1,973.3,622v-.49a11,11,0,0,1,1.24-5.31,8.78,8.78,0,0,1,3.47-3.55,11.38,11.38,0,0,1,10.45,0,8.81,8.81,0,0,1,3.48,3.55,11.07,11.07,0,0,1,1.23,5.31V622a11,11,0,0,1-1.23,5.31,8.81,8.81,0,0,1-3.48,3.55A10.35,10.35,0,0,1,983.24,632.12Zm0-2.18a7.08,7.08,0,0,0,5.49-2.2,8.32,8.32,0,0,0,2-5.83v-.33a8.32,8.32,0,0,0-2-5.83,7.93,7.93,0,0,0-11,0,8.24,8.24,0,0,0-2,5.83v.33a8.24,8.24,0,0,0,2,5.83A7.07,7.07,0,0,0,983.24,629.94Z"/><path d="M998.34,621.83v-.49a10.54,10.54,0,0,1,1.27-5.33,9,9,0,0,1,3.41-3.43,9.47,9.47,0,0,1,4.76-1.21,8.58,8.58,0,0,1,5,1.27,8.23,8.23,0,0,1,2.64,2.89h.49v-3.59h2.26v24.62a3.14,3.14,0,0,1-.77,2.26,3.08,3.08,0,0,1-2.34.81h-13.4v-2.18h12.92a1.09,1.09,0,0,0,1.25-1.21V627.8h-.49a8,8,0,0,1-1.47,1.9,7.18,7.18,0,0,1-2.44,1.51,10.14,10.14,0,0,1-3.68.59,9.57,9.57,0,0,1-4.78-1.21,8.77,8.77,0,0,1-3.41-3.45A10.69,10.69,0,0,1,998.34,621.83Zm10,7.79a7.32,7.32,0,0,0,5.43-2.1,7.82,7.82,0,0,0,2.08-5.77v-.33a7.82,7.82,0,0,0-2.08-5.79,8.1,8.1,0,0,0-10.84,0,7.79,7.79,0,0,0-2.1,5.79v.33a7.79,7.79,0,0,0,2.1,5.77A7.32,7.32,0,0,0,1008.35,629.62Z"/><path d="M1034.27,632.12a10.39,10.39,0,0,1-5.23-1.27,8.85,8.85,0,0,1-3.47-3.55,11,11,0,0,1-1.23-5.31v-.49a11.07,11.07,0,0,1,1.23-5.31,8.85,8.85,0,0,1,3.47-3.55,11.4,11.4,0,0,1,10.46,0,8.85,8.85,0,0,1,3.47,3.55,11.07,11.07,0,0,1,1.23,5.31V622a11,11,0,0,1-1.23,5.31,8.85,8.85,0,0,1-3.47,3.55A10.42,10.42,0,0,1,1034.27,632.12Zm0-2.18a7.08,7.08,0,0,0,5.49-2.2,8.32,8.32,0,0,0,2-5.83v-.33a8.32,8.32,0,0,0-2-5.83,7.93,7.93,0,0,0-11,0,8.24,8.24,0,0,0-2,5.83v.33a8.24,8.24,0,0,0,2,5.83A7.08,7.08,0,0,0,1034.27,629.94Z"/><path d="M1066.77,632.12a9.59,9.59,0,0,1-3.74-.7,6.16,6.16,0,0,1-2.64-2.08,5.58,5.58,0,0,1-1-3.31,5.32,5.32,0,0,1,1-3.28,5.87,5.87,0,0,1,2.62-1.93,10.08,10.08,0,0,1,3.68-.65h7.18V618.6a4.93,4.93,0,0,0-1.37-3.72,5.52,5.52,0,0,0-4-1.33,6.14,6.14,0,0,0-4.09,1.27,6.28,6.28,0,0,0-2,3.41l-2.34-.68a9.23,9.23,0,0,1,1.53-3.13,7.36,7.36,0,0,1,2.79-2.22,9.57,9.57,0,0,1,4.15-.83,8,8,0,0,1,5.76,1.94,7.09,7.09,0,0,1,2,5.41v9.53c0,.8.37,1.21,1.13,1.21h1.89v2.1h-2.58a2.65,2.65,0,0,1-2-.75,2.82,2.82,0,0,1-.72-2v-.28h-.41a9.14,9.14,0,0,1-1.35,1.73,6,6,0,0,1-2.16,1.38A9.24,9.24,0,0,1,1066.77,632.12Zm.16-2.18a6.86,6.86,0,0,0,5-1.88,7.12,7.12,0,0,0,1.91-5.31v-.48h-7.14a6.2,6.2,0,0,0-3.49.91,3.12,3.12,0,0,0-1.4,2.81,3.37,3.37,0,0,0,1.44,2.92A6.06,6.06,0,0,0,1066.93,629.94Z"/><path d="M1083.93,631.56V611.94h2.34v3.63h.48a7.46,7.46,0,0,1,2.38-2.81,8,8,0,0,1,4.81-1.23,8.61,8.61,0,0,1,3.91.89,6.8,6.8,0,0,1,2.85,2.68,8.73,8.73,0,0,1,1.07,4.51v11.95h-2.42V619.77c0-2.16-.54-3.7-1.62-4.65a6.31,6.31,0,0,0-4.32-1.41,6.87,6.87,0,0,0-5,2q-2,2-2,6v9.81Z"/><path d="M1117.11,632.12a9.38,9.38,0,0,1-4.76-1.23,9,9,0,0,1-3.41-3.51,10.88,10.88,0,0,1-1.27-5.39v-.49a11,11,0,0,1,1.25-5.39,8.8,8.8,0,0,1,3.41-3.51,9.48,9.48,0,0,1,4.78-1.23,10.14,10.14,0,0,1,3.68.59,7.31,7.31,0,0,1,2.44,1.49,7.24,7.24,0,0,1,1.47,1.92h.49V603.29h2.42v28.27h-2.34V628h-.49a8.23,8.23,0,0,1-2.64,2.89A8.58,8.58,0,0,1,1117.11,632.12Zm.57-2.18a7.23,7.23,0,0,0,5.43-2.14,8.07,8.07,0,0,0,2.08-5.89v-.33a8.08,8.08,0,0,0-2.08-5.89,7.93,7.93,0,0,0-10.84,0,8.05,8.05,0,0,0-2.1,5.89v.33a8,8,0,0,0,2.1,5.89A7.23,7.23,0,0,0,1117.68,629.94Z"/><path d="M1143.52,631.56v-2.35h4V605.64h-4v-2.35h14a10.14,10.14,0,0,1,4.32.89,7.12,7.12,0,0,1,3,2.49,6.4,6.4,0,0,1,1.07,3.69v.32a6.33,6.33,0,0,1-.76,3.27,6,6,0,0,1-1.86,2,8,8,0,0,1-2.14,1v.49a6.47,6.47,0,0,1,2.16,1,5.94,5.94,0,0,1,1.86,2,6.52,6.52,0,0,1,.74,3.26v.41a7,7,0,0,1-1.11,4,7.12,7.12,0,0,1-3,2.52,10.41,10.41,0,0,1-4.34.87Zm6.62-15.43h7.19a6.45,6.45,0,0,0,4.38-1.39,4.63,4.63,0,0,0,1.59-3.65v-.41a4.63,4.63,0,0,0-1.59-3.65,6.45,6.45,0,0,0-4.38-1.39h-7.19Zm0,13.08h7a6.64,6.64,0,0,0,4.59-1.41,4.88,4.88,0,0,0,1.55-3.79v-.33a4.89,4.89,0,0,0-1.55-3.79,6.64,6.64,0,0,0-4.59-1.41h-7Z"/><path d="M1171.78,631.56V611.94h2.34v2.46h.48a3.81,3.81,0,0,1,1.68-1.94,6.56,6.56,0,0,1,3.09-.61h2.3v2.27h-2.59a5,5,0,0,0-3.55,1.25,5.12,5.12,0,0,0-1.33,3.91v12.28Z"/><path d="M1191.92,632.12a9.54,9.54,0,0,1-3.73-.7,6.13,6.13,0,0,1-2.65-2.08,5.64,5.64,0,0,1-1-3.31,5.38,5.38,0,0,1,1-3.28,5.9,5.9,0,0,1,2.63-1.93,10,10,0,0,1,3.67-.65H1199V618.6a5,5,0,0,0-1.37-3.72,5.52,5.52,0,0,0-4-1.33,6.17,6.17,0,0,0-4.1,1.27,6.28,6.28,0,0,0-2,3.41l-2.34-.68a9.25,9.25,0,0,1,1.54-3.13,7.33,7.33,0,0,1,2.78-2.22,9.61,9.61,0,0,1,4.16-.83,8,8,0,0,1,5.75,1.94,7.09,7.09,0,0,1,2,5.41v9.53c0,.8.38,1.21,1.13,1.21h1.9v2.1h-2.58a2.62,2.62,0,0,1-2-.75,2.79,2.79,0,0,1-.73-2v-.28h-.4a8.81,8.81,0,0,1-1.36,1.73,6,6,0,0,1-2.15,1.38A9.26,9.26,0,0,1,1191.92,632.12Zm.17-2.18a6.84,6.84,0,0,0,5-1.88,7.08,7.08,0,0,0,1.92-5.31v-.48h-7.15a6.23,6.23,0,0,0-3.49.91A3.12,3.12,0,0,0,1187,626a3.39,3.39,0,0,0,1.43,2.92A6.09,6.09,0,0,0,1192.09,629.94Z"/><path d="M1209.08,631.56V611.94h2.34v3.63h.49a7.37,7.37,0,0,1,2.38-2.81,8,8,0,0,1,4.8-1.23,8.65,8.65,0,0,1,3.92.89,6.86,6.86,0,0,1,2.85,2.68,8.73,8.73,0,0,1,1.07,4.51v11.95h-2.43V619.77c0-2.16-.53-3.7-1.61-4.65a6.35,6.35,0,0,0-4.32-1.41,6.91,6.91,0,0,0-5,2c-1.34,1.33-2,3.34-2,6v9.81Z"/><path d="M1242.27,632.12a9.35,9.35,0,0,1-4.76-1.23,9,9,0,0,1-3.42-3.51,11,11,0,0,1-1.27-5.39v-.49a11.09,11.09,0,0,1,1.25-5.39,8.82,8.82,0,0,1,3.42-3.51,9.45,9.45,0,0,1,4.78-1.23,10.08,10.08,0,0,1,3.67.59,7.36,7.36,0,0,1,2.45,1.49,7.24,7.24,0,0,1,1.47,1.92h.48V603.29h2.43v28.27h-2.35V628h-.48a8.33,8.33,0,0,1-2.64,2.89A8.6,8.6,0,0,1,1242.27,632.12Zm.56-2.18a7.2,7.2,0,0,0,5.43-2.14,8.07,8.07,0,0,0,2.08-5.89v-.33a8.08,8.08,0,0,0-2.08-5.89,7.93,7.93,0,0,0-10.84,0,8.09,8.09,0,0,0-2.09,5.89v.33a8.07,8.07,0,0,0,2.09,5.89A7.25,7.25,0,0,0,1242.83,629.94Z"/><path d="M1268.67,631.56v-2.35h4V605.64h-4v-2.35h10.74q5.53,0,8.62,2.81c2.06,1.87,3.09,4.79,3.09,8.74v5.21c0,4-1,6.86-3.09,8.72s-4.93,2.79-8.62,2.79Zm6.62-2.35h4.12q4.44,0,6.79-2.13t2.34-6.91v-5.45q0-4.8-2.34-6.92c-1.57-1.42-3.83-2.12-6.79-2.12h-4.12Z"/><path d="M1306.06,632.12a10.46,10.46,0,0,1-5.27-1.27,9,9,0,0,1-3.49-3.57,10.85,10.85,0,0,1-1.25-5.29v-.49a10.85,10.85,0,0,1,1.25-5.31,9,9,0,0,1,3.45-3.55,9.84,9.84,0,0,1,5-1.27,10,10,0,0,1,4.86,1.15,8.35,8.35,0,0,1,3.33,3.31,10.35,10.35,0,0,1,1.21,5.15v1.29h-16.71a7.79,7.79,0,0,0,2.24,5.67,7.44,7.44,0,0,0,5.35,2,6.54,6.54,0,0,0,4.26-1.25,8.28,8.28,0,0,0,2.32-3.07l2.18,1a10.84,10.84,0,0,1-1.68,2.6,8.21,8.21,0,0,1-2.76,2.1A9.73,9.73,0,0,1,1306.06,632.12Zm-7.55-12h14.21a6.75,6.75,0,0,0-2.06-4.9,7,7,0,0,0-4.88-1.72,7.07,7.07,0,0,0-4.89,1.72A7.67,7.67,0,0,0,1298.51,620.17Z"/><path d="M1329,632.12a10.64,10.64,0,0,1-6.08-1.69,7.69,7.69,0,0,1-3.09-5.62l2.39-.44a6.88,6.88,0,0,0,1.31,3.37,5.52,5.52,0,0,0,2.42,1.76,8.8,8.8,0,0,0,3,.52,6.92,6.92,0,0,0,3.9-1,3.1,3.1,0,0,0,1.47-2.72,2.5,2.5,0,0,0-1.39-2.46,13.87,13.87,0,0,0-3.7-1.1l-1.85-.32a13.76,13.76,0,0,1-3.36-1,6,6,0,0,1-2.36-1.79,4.52,4.52,0,0,1-.87-2.83,4.68,4.68,0,0,1,2-4,10.41,10.41,0,0,1,10.7.06,6.67,6.67,0,0,1,2.56,4.38l-2.26.49a4.6,4.6,0,0,0-1.91-3.31,6.85,6.85,0,0,0-3.78-1,6.5,6.5,0,0,0-3.55.85,2.77,2.77,0,0,0-1.33,2.5,2.56,2.56,0,0,0,1.21,2.36,9.34,9.34,0,0,0,3.31,1.11l1.86.33a18.13,18.13,0,0,1,3.63.94,6.19,6.19,0,0,1,2.56,1.76,4.5,4.5,0,0,1,1,3,5,5,0,0,1-2.1,4.3A9.55,9.55,0,0,1,1329,632.12Z"/><path d="M1343.69,608.54a2.05,2.05,0,0,1-2.1-2.1,2,2,0,0,1,.6-1.51,2.08,2.08,0,0,1,1.5-.59,2,2,0,0,1,2.1,2.1,2.08,2.08,0,0,1-.59,1.5A2,2,0,0,1,1343.69,608.54Zm-1.22,23V611.94h2.43v19.62Z"/><path d="M1351,621.83v-.49a10.64,10.64,0,0,1,1.27-5.33,9,9,0,0,1,3.42-3.43,9.44,9.44,0,0,1,4.76-1.21,8.6,8.6,0,0,1,5,1.27,8.33,8.33,0,0,1,2.64,2.89h.49v-3.59h2.26v24.62a3.14,3.14,0,0,1-.77,2.26,3.08,3.08,0,0,1-2.34.81h-13.41v-2.18h12.92c.84,0,1.26-.4,1.26-1.21V627.8h-.49a8,8,0,0,1-1.47,1.9,7.23,7.23,0,0,1-2.45,1.51,10.08,10.08,0,0,1-3.67.59,9.57,9.57,0,0,1-4.78-1.21,8.77,8.77,0,0,1-3.41-3.45A10.69,10.69,0,0,1,1351,621.83Zm10,7.79a7.32,7.32,0,0,0,5.43-2.1,7.86,7.86,0,0,0,2.08-5.77v-.33a7.86,7.86,0,0,0-2.08-5.79,8.1,8.1,0,0,0-10.84,0,7.79,7.79,0,0,0-2.1,5.79v.33a7.79,7.79,0,0,0,2.1,5.77A7.32,7.32,0,0,0,1361.05,629.62Z"/><path d="M1378,631.56V611.94h2.34v3.63h.49a7.37,7.37,0,0,1,2.38-2.81,8,8,0,0,1,4.81-1.23,8.64,8.64,0,0,1,3.91.89,6.86,6.86,0,0,1,2.85,2.68,8.73,8.73,0,0,1,1.07,4.51v11.95h-2.42V619.77c0-2.16-.54-3.7-1.62-4.65a6.35,6.35,0,0,0-4.32-1.41,6.91,6.91,0,0,0-5,2q-2,2-2,6v9.81Z"/><path d="M1423.46,641.49V599h2.42v42.47Z"/><path d="M1459.84,631.56l-9.09-28.27h2.71l8.44,26.77h.48l8.44-26.77h2.71l-9.09,28.27Z"/><path d="M1479.42,608.54a2.07,2.07,0,0,1-2.1-2.1,2,2,0,0,1,.61-1.51,2.09,2.09,0,0,1,3.59,1.51,2.08,2.08,0,0,1-.59,1.5A2,2,0,0,1,1479.42,608.54Zm-1.21,23V611.94h2.42v19.62Z"/><path d="M1496.21,632.12a9.38,9.38,0,0,1-4.76-1.23,9,9,0,0,1-3.41-3.51,10.88,10.88,0,0,1-1.27-5.39v-.49a11,11,0,0,1,1.25-5.39,8.8,8.8,0,0,1,3.41-3.51,9.48,9.48,0,0,1,4.78-1.23,10.14,10.14,0,0,1,3.68.59,7.31,7.31,0,0,1,2.44,1.49,7,7,0,0,1,1.47,1.92h.49V603.29h2.42v28.27h-2.34V628h-.48a8.37,8.37,0,0,1-2.65,2.89A8.58,8.58,0,0,1,1496.21,632.12Zm.57-2.18a7.23,7.23,0,0,0,5.43-2.14,8.07,8.07,0,0,0,2.08-5.89v-.33a8.08,8.08,0,0,0-2.08-5.89,7.93,7.93,0,0,0-10.84,0,8.05,8.05,0,0,0-2.1,5.89v.33a8,8,0,0,0,2.1,5.89A7.23,7.23,0,0,0,1496.78,629.94Z"/><path d="M1522.86,632.12a10.49,10.49,0,0,1-5.27-1.27,9,9,0,0,1-3.49-3.57,11,11,0,0,1-1.25-5.29v-.49a11,11,0,0,1,1.25-5.31,9,9,0,0,1,3.45-3.55,9.84,9.84,0,0,1,5-1.27,10,10,0,0,1,4.86,1.15,8.23,8.23,0,0,1,3.33,3.31A10.35,10.35,0,0,1,1532,621v1.29h-16.72a7.79,7.79,0,0,0,2.24,5.67,7.46,7.46,0,0,0,5.35,2,6.54,6.54,0,0,0,4.26-1.25,8.28,8.28,0,0,0,2.32-3.07l2.18,1a11.1,11.1,0,0,1-1.67,2.6,8.36,8.36,0,0,1-2.77,2.1A9.73,9.73,0,0,1,1522.86,632.12Zm-7.55-12h14.21a6.71,6.71,0,0,0-2.06-4.9,7,7,0,0,0-4.88-1.72,7.09,7.09,0,0,0-4.89,1.72A7.72,7.72,0,0,0,1515.31,620.17Z"/><path d="M1546.92,632.12a10.42,10.42,0,0,1-5.23-1.27,8.85,8.85,0,0,1-3.47-3.55A11,11,0,0,1,1537,622v-.49a11.07,11.07,0,0,1,1.23-5.31,8.85,8.85,0,0,1,3.47-3.55,11.4,11.4,0,0,1,10.46,0,8.78,8.78,0,0,1,3.47,3.55,11.07,11.07,0,0,1,1.23,5.31V622a11,11,0,0,1-1.23,5.31,8.78,8.78,0,0,1-3.47,3.55A10.39,10.39,0,0,1,1546.92,632.12Zm0-2.18a7.05,7.05,0,0,0,5.49-2.2,8.27,8.27,0,0,0,2-5.83v-.33a8.27,8.27,0,0,0-2-5.83,7.93,7.93,0,0,0-11,0,8.24,8.24,0,0,0-2,5.83v.33a8.24,8.24,0,0,0,2,5.83A7.08,7.08,0,0,0,1546.92,629.94Z"/><path d="M1573.33,631.56V603.29h17.08v2.35h-14.5v10.57h13.37v2.35h-13.37v10.65h14.66v2.35Z"/><path d="M1604.78,632.12a9.42,9.42,0,0,1-4.77-1.23,9.07,9.07,0,0,1-3.41-3.51,10.88,10.88,0,0,1-1.27-5.39v-.49a11.09,11.09,0,0,1,1.25-5.39,8.87,8.87,0,0,1,3.41-3.51,9.52,9.52,0,0,1,4.79-1.23,10.08,10.08,0,0,1,3.67.59,7.21,7.21,0,0,1,2.44,1.49,7.08,7.08,0,0,1,1.48,1.92h.48V603.29h2.42v28.27h-2.34V628h-.48a8.37,8.37,0,0,1-2.65,2.89A8.55,8.55,0,0,1,1604.78,632.12Zm.56-2.18a7.2,7.2,0,0,0,5.43-2.14,8.07,8.07,0,0,0,2.08-5.89v-.33a8.08,8.08,0,0,0-2.08-5.89,7.93,7.93,0,0,0-10.84,0,8.05,8.05,0,0,0-2.1,5.89v.33a8,8,0,0,0,2.1,5.89A7.25,7.25,0,0,0,1605.34,629.94Z"/><path d="M1623.59,608.54a2.07,2.07,0,0,1-2.1-2.1,2,2,0,0,1,.61-1.51,2.06,2.06,0,0,1,1.49-.59,2.08,2.08,0,0,1,1.52.59,2.05,2.05,0,0,1,.58,1.51,2.07,2.07,0,0,1-.58,1.5A2,2,0,0,1,1623.59,608.54Zm-1.21,23V611.94h2.42v19.62Z"/><path d="M1639,631.56a3.16,3.16,0,0,1-2.36-.81,3.12,3.12,0,0,1-.78-2.26V614.12h-6.3v-2.18h6.3v-7.35h2.42v7.35h6.86v2.18h-6.86v14a1.07,1.07,0,0,0,1.21,1.21h4.6v2.18Z"/><path d="M1651.77,608.54a2.07,2.07,0,0,1-2.1-2.1,2,2,0,0,1,.61-1.51,2.06,2.06,0,0,1,1.49-.59,2,2,0,0,1,2.1,2.1,2.12,2.12,0,0,1-.58,1.5A2,2,0,0,1,1651.77,608.54Zm-1.21,23V611.94H1653v19.62Z"/><path d="M1660.09,631.56V611.94h2.34v3.63h.48a7.4,7.4,0,0,1,2.39-2.81,8,8,0,0,1,4.8-1.23,8.68,8.68,0,0,1,3.92.89,6.84,6.84,0,0,1,2.84,2.68,8.63,8.63,0,0,1,1.07,4.51v11.95h-2.42V619.77c0-2.16-.54-3.7-1.61-4.65a6.35,6.35,0,0,0-4.32-1.41,6.91,6.91,0,0,0-5,2q-2,2-2,6v9.81Z"/><path d="M1683.83,621.83v-.49a10.54,10.54,0,0,1,1.27-5.33,9,9,0,0,1,3.41-3.43,9.47,9.47,0,0,1,4.76-1.21,8.58,8.58,0,0,1,5,1.27,8.37,8.37,0,0,1,2.65,2.89h.48v-3.59h2.26v24.62a3.14,3.14,0,0,1-.77,2.26,3.08,3.08,0,0,1-2.34.81h-13.4v-2.18h12.92a1.09,1.09,0,0,0,1.25-1.21V627.8h-.49a8,8,0,0,1-1.47,1.9,7.18,7.18,0,0,1-2.44,1.51,10.14,10.14,0,0,1-3.68.59,9.57,9.57,0,0,1-4.78-1.21,8.77,8.77,0,0,1-3.41-3.45A10.69,10.69,0,0,1,1683.83,621.83Zm10,7.79a7.32,7.32,0,0,0,5.43-2.1,7.82,7.82,0,0,0,2.08-5.77v-.33a7.82,7.82,0,0,0-2.08-5.79,8.1,8.1,0,0,0-10.84,0,7.79,7.79,0,0,0-2.1,5.79v.33a7.79,7.79,0,0,0,2.1,5.77A7.32,7.32,0,0,0,1693.84,629.62Z"/><path d="M1731.55,641.49V599H1734v42.47Z"/><path d="M655,685.94V657.67h10.46a10.39,10.39,0,0,1,4.5,1,7.38,7.38,0,0,1,4.34,7v.48a7.42,7.42,0,0,1-4.38,7.07,10.44,10.44,0,0,1-4.46.93h-7.87v11.79Zm2.59-14.14h7.59a7.11,7.11,0,0,0,4.78-1.49,5.2,5.2,0,0,0,1.76-4.2v-.4a5.24,5.24,0,0,0-1.72-4.22,7.18,7.18,0,0,0-4.82-1.47h-7.59Z"/><path d="M687.55,686.5a10.36,10.36,0,0,1-5.23-1.27,8.78,8.78,0,0,1-3.47-3.55,10.91,10.91,0,0,1-1.24-5.31v-.49a10.91,10.91,0,0,1,1.24-5.31,8.78,8.78,0,0,1,3.47-3.55,11.38,11.38,0,0,1,10.45,0,8.87,8.87,0,0,1,3.48,3.55,11,11,0,0,1,1.23,5.31v.49a11,11,0,0,1-1.23,5.31,8.87,8.87,0,0,1-3.48,3.55A10.35,10.35,0,0,1,687.55,686.5Zm0-2.18a7.08,7.08,0,0,0,5.49-2.2,8.32,8.32,0,0,0,2-5.83V676a8.32,8.32,0,0,0-2-5.83,7.94,7.94,0,0,0-11,0,8.28,8.28,0,0,0-2,5.83v.33a8.28,8.28,0,0,0,2,5.83A7.11,7.11,0,0,0,687.55,684.32Z"/><path d="M711.41,686.5a10.57,10.57,0,0,1-6.08-1.7,7.69,7.69,0,0,1-3.09-5.61l2.38-.44a7,7,0,0,0,1.32,3.37,5.41,5.41,0,0,0,2.42,1.76,8.76,8.76,0,0,0,3,.52,6.86,6.86,0,0,0,3.89-1,3.12,3.12,0,0,0,1.48-2.72,2.51,2.51,0,0,0-1.4-2.47,14.32,14.32,0,0,0-3.69-1.09l-1.86-.32a13.68,13.68,0,0,1-3.35-1,5.93,5.93,0,0,1-2.36-1.79,4.52,4.52,0,0,1-.87-2.83,4.68,4.68,0,0,1,2-4,10.41,10.41,0,0,1,10.7.06,6.71,6.71,0,0,1,2.56,4.38l-2.26.49a4.61,4.61,0,0,0-1.92-3.31,6.82,6.82,0,0,0-3.77-1,6.48,6.48,0,0,0-3.55.85,2.77,2.77,0,0,0-1.34,2.5,2.58,2.58,0,0,0,1.21,2.36,9.34,9.34,0,0,0,3.31,1.11l1.86.32a18.73,18.73,0,0,1,3.64,1,6.26,6.26,0,0,1,2.56,1.76,4.5,4.5,0,0,1,1,3,5,5,0,0,1-2.1,4.3A9.55,9.55,0,0,1,711.41,686.5Z"/><path d="M731.55,685.94a3.16,3.16,0,0,1-2.36-.81,3.12,3.12,0,0,1-.79-2.26V668.49h-6.29v-2.18h6.29V659h2.43v7.34h6.86v2.18h-6.86v14a1.07,1.07,0,0,0,1.21,1.22h4.6v2.18Z"/><path d="M751.42,686.5a10.46,10.46,0,0,1-5.27-1.27,8.88,8.88,0,0,1-3.49-3.57,10.86,10.86,0,0,1-1.26-5.29v-.49a10.8,10.8,0,0,1,1.26-5.31,9,9,0,0,1,3.45-3.55,9.81,9.81,0,0,1,5-1.27A10,10,0,0,1,756,666.9a8.35,8.35,0,0,1,3.33,3.31,10.35,10.35,0,0,1,1.21,5.15v1.29H743.83a7.75,7.75,0,0,0,2.24,5.67,7.49,7.49,0,0,0,5.35,2,6.54,6.54,0,0,0,4.26-1.25A8.28,8.28,0,0,0,758,680l2.18,1a11.49,11.49,0,0,1-1.68,2.6,8.21,8.21,0,0,1-2.76,2.1A9.87,9.87,0,0,1,751.42,686.5Zm-7.55-12h14.21a6.81,6.81,0,0,0-2.06-4.91,7,7,0,0,0-4.89-1.71,7.1,7.1,0,0,0-4.88,1.71A7.7,7.7,0,0,0,743.87,674.55Z"/><path d="M766.52,685.94V666.31h2.34v2.47h.48a3.81,3.81,0,0,1,1.68-1.94,6.56,6.56,0,0,1,3.09-.61h2.3v2.26h-2.59a5,5,0,0,0-3.55,1.26,5.12,5.12,0,0,0-1.33,3.91v12.28Z"/><path d="M788.84,686.5a10.54,10.54,0,0,1-6.07-1.7,7.62,7.62,0,0,1-3.09-5.61l2.38-.44a6.88,6.88,0,0,0,1.31,3.37,5.52,5.52,0,0,0,2.42,1.76,8.85,8.85,0,0,0,3.05.52,6.87,6.87,0,0,0,3.9-1,3.11,3.11,0,0,0,1.47-2.72,2.51,2.51,0,0,0-1.39-2.47,14.28,14.28,0,0,0-3.7-1.09l-1.85-.32a13.55,13.55,0,0,1-3.35-1,6,6,0,0,1-2.37-1.79,4.58,4.58,0,0,1-.86-2.83,4.66,4.66,0,0,1,2-4,10.39,10.39,0,0,1,10.69.06,6.72,6.72,0,0,1,2.57,4.38l-2.26.49a4.61,4.61,0,0,0-1.92-3.31,6.85,6.85,0,0,0-3.78-1,6.5,6.5,0,0,0-3.55.85,2.77,2.77,0,0,0-1.33,2.5,2.56,2.56,0,0,0,1.21,2.36,9.34,9.34,0,0,0,3.31,1.11l1.86.32a18.82,18.82,0,0,1,3.63,1,6.3,6.3,0,0,1,2.57,1.76,4.5,4.5,0,0,1,.94,3,5,5,0,0,1-2.1,4.3A9.53,9.53,0,0,1,788.84,686.5Z"/><path d="M818.8,686.5a9.59,9.59,0,0,1-3.74-.71,6,6,0,0,1-2.64-2.08,5.54,5.54,0,0,1-1-3.31,5.31,5.31,0,0,1,1-3.27A5.87,5.87,0,0,1,815,675.2a10.08,10.08,0,0,1,3.68-.65h7.18V673a4.93,4.93,0,0,0-1.37-3.72,5.49,5.49,0,0,0-4-1.33,6.15,6.15,0,0,0-4.1,1.27,6.28,6.28,0,0,0-2,3.41l-2.34-.68a9.23,9.23,0,0,1,1.53-3.13,7.36,7.36,0,0,1,2.79-2.22,9.58,9.58,0,0,1,4.16-.83,8,8,0,0,1,5.75,1.94,7.09,7.09,0,0,1,2,5.41v9.52c0,.81.37,1.22,1.13,1.22h1.89v2.1h-2.58a2.65,2.65,0,0,1-2-.75,2.82,2.82,0,0,1-.72-2v-.28h-.41a9.14,9.14,0,0,1-1.35,1.73,6,6,0,0,1-2.16,1.38A9.24,9.24,0,0,1,818.8,686.5Zm.16-2.18a6.9,6.9,0,0,0,5-1.88,7.08,7.08,0,0,0,1.91-5.31v-.48h-7.14a6.2,6.2,0,0,0-3.49.91,3.11,3.11,0,0,0-1.4,2.8,3.39,3.39,0,0,0,1.44,2.93A6.06,6.06,0,0,0,819,684.32Z"/><path d="M836,685.94V666.31h2.34V670h.48a7.4,7.4,0,0,1,2.39-2.81,8,8,0,0,1,4.8-1.23,8.68,8.68,0,0,1,3.92.89,6.84,6.84,0,0,1,2.84,2.68A8.63,8.63,0,0,1,853.8,674v12h-2.42V674.15c0-2.16-.54-3.7-1.62-4.65a6.31,6.31,0,0,0-4.32-1.41,6.88,6.88,0,0,0-5,2q-2,2-2,6v9.82Z"/><path d="M869.14,686.5a9.38,9.38,0,0,1-4.76-1.23,9,9,0,0,1-3.41-3.51,10.88,10.88,0,0,1-1.27-5.39v-.49a11,11,0,0,1,1.25-5.39,8.8,8.8,0,0,1,3.41-3.51,9.48,9.48,0,0,1,4.78-1.23,10.15,10.15,0,0,1,3.68.58,7.33,7.33,0,0,1,2.44,1.5,7.24,7.24,0,0,1,1.47,1.92h.49V657.67h2.42v28.27H877.3v-3.6h-.49a8.23,8.23,0,0,1-2.64,2.89A8.58,8.58,0,0,1,869.14,686.5Zm.57-2.18a7.23,7.23,0,0,0,5.43-2.14,8.08,8.08,0,0,0,2.08-5.89V676a8.08,8.08,0,0,0-2.08-5.89,7.93,7.93,0,0,0-10.84,0,8.05,8.05,0,0,0-2.1,5.89v.33a8.05,8.05,0,0,0,2.1,5.89A7.23,7.23,0,0,0,869.71,684.32Z"/><path d="M897.08,685.94V657.67h16.8V660H899.67v10.57h13v2.35h-13v13Z"/><path d="M919,685.94V657.67h2.43v28.27Z"/><path d="M931,694v-2.18H942.5a1.07,1.07,0,0,0,1.21-1.21v-8.08h-.48a7.18,7.18,0,0,1-1.35,1.84,6.51,6.51,0,0,1-2.26,1.41,9.56,9.56,0,0,1-3.5.55,8.65,8.65,0,0,1-3.89-.89,6.81,6.81,0,0,1-2.87-2.66,8.63,8.63,0,0,1-1.07-4.49v-12h2.42v11.83c0,2.13.54,3.66,1.62,4.61a6.31,6.31,0,0,0,4.32,1.41,6.89,6.89,0,0,0,5-2q2-2,2-6v-9.86h2.43v24.63a3.12,3.12,0,0,1-.79,2.26A3.16,3.16,0,0,1,943,694Z"/><path d="M962.29,686.5a10.46,10.46,0,0,1-5.27-1.27,9,9,0,0,1-3.5-3.57,11,11,0,0,1-1.25-5.29v-.49a10.91,10.91,0,0,1,1.25-5.31A9.09,9.09,0,0,1,957,667a9.81,9.81,0,0,1,5-1.27,10,10,0,0,1,4.87,1.15,8.35,8.35,0,0,1,3.33,3.31,10.35,10.35,0,0,1,1.21,5.15v1.29H954.69a7.76,7.76,0,0,0,2.25,5.67,7.49,7.49,0,0,0,5.35,2,6.49,6.49,0,0,0,4.25-1.25,8.31,8.31,0,0,0,2.33-3.07l2.17,1a11.1,11.1,0,0,1-1.67,2.6,8.26,8.26,0,0,1-2.77,2.1A9.85,9.85,0,0,1,962.29,686.5Zm-7.56-12H969a6.81,6.81,0,0,0-2.06-4.91,7.83,7.83,0,0,0-9.77,0A7.71,7.71,0,0,0,954.73,674.55Z"/><path d="M977.38,685.94V666.31h2.35v2.47h.48a3.76,3.76,0,0,1,1.68-1.94,6.54,6.54,0,0,1,3.08-.61h2.31v2.26h-2.59a5,5,0,0,0-3.55,1.26,5.12,5.12,0,0,0-1.33,3.91v12.28Z"/><path d="M999.71,686.5a10.59,10.59,0,0,1-6.08-1.7,7.69,7.69,0,0,1-3.09-5.61l2.39-.44a6.88,6.88,0,0,0,1.31,3.37,5.52,5.52,0,0,0,2.42,1.76,8.8,8.8,0,0,0,3.05.52,6.89,6.89,0,0,0,3.9-1,3.11,3.11,0,0,0,1.47-2.72,2.51,2.51,0,0,0-1.39-2.47,14.28,14.28,0,0,0-3.7-1.09l-1.85-.32a13.76,13.76,0,0,1-3.36-1,6,6,0,0,1-2.36-1.79,4.52,4.52,0,0,1-.87-2.83,4.68,4.68,0,0,1,2-4,10.41,10.41,0,0,1,10.7.06,6.72,6.72,0,0,1,2.57,4.38l-2.27.49a4.57,4.57,0,0,0-1.91-3.31,6.85,6.85,0,0,0-3.78-1,6.5,6.5,0,0,0-3.55.85,2.77,2.77,0,0,0-1.33,2.5,2.56,2.56,0,0,0,1.21,2.36,9.34,9.34,0,0,0,3.31,1.11l1.86.32a18.82,18.82,0,0,1,3.63,1,6.19,6.19,0,0,1,2.56,1.76,4.45,4.45,0,0,1,1,3,5,5,0,0,1-2.1,4.3A9.53,9.53,0,0,1,999.71,686.5Z"/><path d="M1034,695.87V653.39h2.42v42.48Z"/><path d="M1064.18,685.94V657.67h5l8.56,26.73h.49l8.55-26.73h5.05v28.27h-2.5V659.21h-.49l-8.56,26.73h-4.6l-8.56-26.73h-.48v26.73Z"/><path d="M1107.87,686.5a10.39,10.39,0,0,1-5.23-1.27,8.85,8.85,0,0,1-3.47-3.55,11,11,0,0,1-1.23-5.31v-.49a11,11,0,0,1,1.23-5.31,8.85,8.85,0,0,1,3.47-3.55,11.4,11.4,0,0,1,10.46,0,8.85,8.85,0,0,1,3.47,3.55,11,11,0,0,1,1.23,5.31v.49a11,11,0,0,1-1.23,5.31,8.85,8.85,0,0,1-3.47,3.55A10.42,10.42,0,0,1,1107.87,686.5Zm0-2.18a7.08,7.08,0,0,0,5.49-2.2,8.27,8.27,0,0,0,2-5.83V676a8.27,8.27,0,0,0-2-5.83,7.93,7.93,0,0,0-11,0,8.24,8.24,0,0,0-2,5.83v.33a8.24,8.24,0,0,0,2,5.83A7.08,7.08,0,0,0,1107.87,684.32Z"/><path d="M1130.2,685.94a3.18,3.18,0,0,1-2.37-.81,3.12,3.12,0,0,1-.78-2.26V668.49h-6.3v-2.18h6.3V659h2.42v7.34h6.86v2.18h-6.86v14a1.07,1.07,0,0,0,1.21,1.22h4.6v2.18Z"/><path d="M1143,662.92a2,2,0,0,1-1.49-.6,2.06,2.06,0,0,1-.61-1.5,2,2,0,0,1,.61-1.51,2.21,2.21,0,0,1,3,0,2,2,0,0,1,.58,1.51,2.07,2.07,0,0,1-.58,1.5A2,2,0,0,1,1143,662.92Zm-1.21,23V666.31h2.43v19.63Z"/><path d="M1160.23,686.5a10.42,10.42,0,0,1-5.23-1.27,8.85,8.85,0,0,1-3.47-3.55,11,11,0,0,1-1.23-5.31v-.49a11,11,0,0,1,1.23-5.31A8.85,8.85,0,0,1,1155,667a11.4,11.4,0,0,1,10.46,0,8.78,8.78,0,0,1,3.47,3.55,11,11,0,0,1,1.23,5.31v.49a11,11,0,0,1-1.23,5.31,8.78,8.78,0,0,1-3.47,3.55A10.39,10.39,0,0,1,1160.23,686.5Zm0-2.18a7.05,7.05,0,0,0,5.49-2.2,8.27,8.27,0,0,0,2-5.83V676a8.27,8.27,0,0,0-2-5.83,7.93,7.93,0,0,0-11,0,8.24,8.24,0,0,0-2,5.83v.33a8.24,8.24,0,0,0,2,5.83A7.08,7.08,0,0,0,1160.23,684.32Z"/><path d="M1176.3,685.94V666.31h2.34V670h.49a7.37,7.37,0,0,1,2.38-2.81,8,8,0,0,1,4.8-1.23,8.68,8.68,0,0,1,3.92.89,6.92,6.92,0,0,1,2.85,2.68,8.73,8.73,0,0,1,1.07,4.51v12h-2.43V674.15c0-2.16-.54-3.7-1.61-4.65a6.35,6.35,0,0,0-4.32-1.41,6.91,6.91,0,0,0-5,2c-1.34,1.33-2,3.34-2,6v9.82Z"/><path d="M1221.2,686.5a11.77,11.77,0,0,1-5.66-1.31,9.07,9.07,0,0,1-3.75-3.88,13.56,13.56,0,0,1-1.33-6.32v-6.37q0-5.65,3-8.58a10.79,10.79,0,0,1,7.94-2.93q4.92,0,7.45,2.74a10.39,10.39,0,0,1,2.52,7.31v.2h-2.58v-.28a9.62,9.62,0,0,0-.77-3.94,5.92,5.92,0,0,0-2.4-2.7,8.06,8.06,0,0,0-4.22-1,8,8,0,0,0-6.12,2.38,9.51,9.51,0,0,0-2.2,6.7v6.55a9.49,9.49,0,0,0,2.2,6.7,7.92,7.92,0,0,0,6.12,2.38c2.55,0,4.44-.74,5.65-2.22a9.16,9.16,0,0,0,1.82-6v-.8h-9.33v-2.27h11.83v13.05H1229v-3.19h-.49a7,7,0,0,1-1.37,1.83,6.45,6.45,0,0,1-2.32,1.4A10.65,10.65,0,0,1,1221.2,686.5Z"/><path d="M1238,685.94V666.31h2.34v2.47h.49a3.75,3.75,0,0,1,1.67-1.94,6.56,6.56,0,0,1,3.09-.61h2.3v2.26h-2.58a4.94,4.94,0,0,0-3.55,1.26,5.13,5.13,0,0,0-1.34,3.91v12.28Z"/><path d="M1258.18,686.5a9.59,9.59,0,0,1-3.74-.71,6,6,0,0,1-2.64-2.08,5.54,5.54,0,0,1-1-3.31,5.31,5.31,0,0,1,1-3.27,5.87,5.87,0,0,1,2.62-1.93,10.08,10.08,0,0,1,3.68-.65h7.18V673a4.93,4.93,0,0,0-1.37-3.72,5.5,5.5,0,0,0-4-1.33,6.14,6.14,0,0,0-4.09,1.27,6.28,6.28,0,0,0-2,3.41l-2.34-.68a9.23,9.23,0,0,1,1.53-3.13,7.36,7.36,0,0,1,2.79-2.22,9.57,9.57,0,0,1,4.15-.83,8,8,0,0,1,5.76,1.94,7.09,7.09,0,0,1,2,5.41v9.52c0,.81.37,1.22,1.13,1.22h1.89v2.1h-2.58a2.65,2.65,0,0,1-2-.75,2.82,2.82,0,0,1-.72-2v-.28H1265a9.14,9.14,0,0,1-1.35,1.73,6,6,0,0,1-2.16,1.38A9.24,9.24,0,0,1,1258.18,686.5Zm.16-2.18a6.9,6.9,0,0,0,5-1.88,7.12,7.12,0,0,0,1.91-5.31v-.48h-7.14a6.2,6.2,0,0,0-3.49.91,3.11,3.11,0,0,0-1.4,2.8,3.39,3.39,0,0,0,1.44,2.93A6.06,6.06,0,0,0,1258.34,684.32Z"/><path d="M1275.34,694v-27.7h2.34v3.6h.48a8.37,8.37,0,0,1,2.65-2.89,8.55,8.55,0,0,1,5-1.27,9.42,9.42,0,0,1,4.77,1.23,9.15,9.15,0,0,1,3.41,3.49,10.85,10.85,0,0,1,1.27,5.41v.49a11.09,11.09,0,0,1-1.25,5.39,9,9,0,0,1-3.39,3.51,9.49,9.49,0,0,1-4.81,1.23,10.16,10.16,0,0,1-3.65-.58,7.1,7.1,0,0,1-2.46-1.52,7.85,7.85,0,0,1-1.48-1.9h-.48V694Zm9.93-9.69a7.23,7.23,0,0,0,5.43-2.14,8.13,8.13,0,0,0,2.08-5.89V676a8.13,8.13,0,0,0-2.08-5.89,7.93,7.93,0,0,0-10.84,0,8.05,8.05,0,0,0-2.1,5.89v.33a8.05,8.05,0,0,0,2.1,5.89A7.23,7.23,0,0,0,1285.27,684.32Z"/><path d="M1301.42,685.94V657.67h2.42v12.08h.48a7.23,7.23,0,0,1,1.36-1.84,6.32,6.32,0,0,1,2.26-1.41,9.5,9.5,0,0,1,3.49-.55,8.68,8.68,0,0,1,3.92.89,6.85,6.85,0,0,1,2.84,2.66,8.53,8.53,0,0,1,1.07,4.49v12h-2.42V674.15q0-3.24-1.62-4.63a6.34,6.34,0,0,0-4.31-1.39,6.91,6.91,0,0,0-5.05,2q-2,2-2,6v9.82Z"/><path d="M1327.34,662.92a2.05,2.05,0,0,1-2.1-2.1,2,2,0,0,1,.6-1.51,2.08,2.08,0,0,1,1.5-.59,2,2,0,0,1,2.1,2.1,2.08,2.08,0,0,1-.59,1.5A2,2,0,0,1,1327.34,662.92Zm-1.22,23V666.31h2.43v19.63Z"/><path d="M1344.62,686.5a10.44,10.44,0,0,1-5.11-1.23,8.94,8.94,0,0,1-3.53-3.53,10.8,10.8,0,0,1-1.3-5.41v-.41a10.75,10.75,0,0,1,1.3-5.43,9,9,0,0,1,3.53-3.51,10.44,10.44,0,0,1,5.11-1.23,9.9,9.9,0,0,1,4.78,1.07,8.28,8.28,0,0,1,3.07,2.78,9.11,9.11,0,0,1,1.39,3.62l-2.38.48a7.19,7.19,0,0,0-1-2.88,5.8,5.8,0,0,0-2.26-2.1,8.22,8.22,0,0,0-7.43.2,7.1,7.1,0,0,0-2.68,2.78,8.71,8.71,0,0,0-1,4.26v.33a8.71,8.71,0,0,0,1,4.26,7.1,7.1,0,0,0,2.68,2.78,7.47,7.47,0,0,0,3.84,1,6.74,6.74,0,0,0,4.92-1.67,7.34,7.34,0,0,0,2.1-4.1l2.38.48a9.68,9.68,0,0,1-1.51,3.62,8.65,8.65,0,0,1-3.11,2.78A9.9,9.9,0,0,1,1344.62,686.5Z"/><path d="M1367.79,686.5a10.59,10.59,0,0,1-6.08-1.7,7.69,7.69,0,0,1-3.09-5.61l2.39-.44a6.88,6.88,0,0,0,1.31,3.37,5.52,5.52,0,0,0,2.42,1.76,8.8,8.8,0,0,0,3,.52,6.89,6.89,0,0,0,3.9-1,3.11,3.11,0,0,0,1.47-2.72,2.51,2.51,0,0,0-1.39-2.47,14.28,14.28,0,0,0-3.7-1.09l-1.85-.32a13.76,13.76,0,0,1-3.36-1,6,6,0,0,1-2.36-1.79,4.52,4.52,0,0,1-.87-2.83,4.68,4.68,0,0,1,2-4,10.41,10.41,0,0,1,10.7.06,6.72,6.72,0,0,1,2.57,4.38l-2.27.49a4.57,4.57,0,0,0-1.91-3.31,6.85,6.85,0,0,0-3.78-1,6.5,6.5,0,0,0-3.55.85,2.77,2.77,0,0,0-1.33,2.5,2.56,2.56,0,0,0,1.21,2.36,9.34,9.34,0,0,0,3.31,1.11l1.86.32a18.82,18.82,0,0,1,3.63,1,6.19,6.19,0,0,1,2.56,1.76,4.45,4.45,0,0,1,.95,3,5,5,0,0,1-2.1,4.3A9.53,9.53,0,0,1,1367.79,686.5Z"/><path d="M1412.48,695.87V653.39h2.43v42.48Z"/><path d="M1448.86,685.94l-9.08-28.27h2.7l8.44,26.77h.48l8.44-26.77h2.71l-9.09,28.27Z"/><path d="M1468.44,662.92a2.07,2.07,0,0,1-2.1-2.1,2,2,0,0,1,.61-1.51,2.09,2.09,0,0,1,3.59,1.51,2.08,2.08,0,0,1-.59,1.5A2,2,0,0,1,1468.44,662.92Zm-1.21,23V666.31h2.42v19.63Z"/><path d="M1485.24,686.5a9.42,9.42,0,0,1-4.77-1.23,9,9,0,0,1-3.41-3.51,10.88,10.88,0,0,1-1.27-5.39v-.49a11.09,11.09,0,0,1,1.25-5.39,8.8,8.8,0,0,1,3.41-3.51,9.52,9.52,0,0,1,4.79-1.23,10.13,10.13,0,0,1,3.67.58,7.33,7.33,0,0,1,3.92,3.42h.48V657.67h2.42v28.27h-2.34v-3.6h-.48a8.37,8.37,0,0,1-2.65,2.89A8.57,8.57,0,0,1,1485.24,686.5Zm.56-2.18a7.23,7.23,0,0,0,5.43-2.14,8.08,8.08,0,0,0,2.08-5.89V676a8.08,8.08,0,0,0-2.08-5.89,7.93,7.93,0,0,0-10.84,0,8.05,8.05,0,0,0-2.1,5.89v.33a8.05,8.05,0,0,0,2.1,5.89A7.23,7.23,0,0,0,1485.8,684.32Z"/><path d="M1511.88,686.5a10.49,10.49,0,0,1-5.27-1.27,9,9,0,0,1-3.49-3.57,11,11,0,0,1-1.25-5.29v-.49a10.91,10.91,0,0,1,1.25-5.31,9.13,9.13,0,0,1,3.45-3.55,9.84,9.84,0,0,1,5-1.27,10,10,0,0,1,4.86,1.15,8.23,8.23,0,0,1,3.33,3.31,10.35,10.35,0,0,1,1.22,5.15v1.29h-16.72a7.79,7.79,0,0,0,2.24,5.67,7.52,7.52,0,0,0,5.35,2,6.54,6.54,0,0,0,4.26-1.25,8.28,8.28,0,0,0,2.32-3.07l2.18,1a11.1,11.1,0,0,1-1.67,2.6,8.36,8.36,0,0,1-2.77,2.1A9.87,9.87,0,0,1,1511.88,686.5Zm-7.55-12h14.21a6.73,6.73,0,0,0-2.06-4.91,7,7,0,0,0-4.88-1.71,7.13,7.13,0,0,0-4.89,1.71A7.75,7.75,0,0,0,1504.33,674.55Z"/><path d="M1535.94,686.5a10.42,10.42,0,0,1-5.23-1.27,8.85,8.85,0,0,1-3.47-3.55,11,11,0,0,1-1.23-5.31v-.49a11,11,0,0,1,1.23-5.31,8.85,8.85,0,0,1,3.47-3.55,11.4,11.4,0,0,1,10.46,0,8.78,8.78,0,0,1,3.47,3.55,11,11,0,0,1,1.24,5.31v.49a11,11,0,0,1-1.24,5.31,8.78,8.78,0,0,1-3.47,3.55A10.39,10.39,0,0,1,1535.94,686.5Zm0-2.18a7.05,7.05,0,0,0,5.49-2.2,8.27,8.27,0,0,0,2-5.83V676a8.27,8.27,0,0,0-2-5.83,7.93,7.93,0,0,0-11,0,8.24,8.24,0,0,0-2,5.83v.33a8.24,8.24,0,0,0,2,5.83A7.1,7.1,0,0,0,1535.94,684.32Z"/><path d="M1562.35,685.94V657.67h17.07V660h-14.49v10.57h13.36v2.35h-13.36v10.65h14.66v2.35Z"/><path d="M1593.8,686.5a9.42,9.42,0,0,1-4.77-1.23,9.07,9.07,0,0,1-3.41-3.51,10.88,10.88,0,0,1-1.27-5.39v-.49a11.09,11.09,0,0,1,1.25-5.39A8.87,8.87,0,0,1,1589,667a9.52,9.52,0,0,1,4.79-1.23,10.09,10.09,0,0,1,3.67.58,7.23,7.23,0,0,1,2.44,1.5,7.08,7.08,0,0,1,1.48,1.92h.48V657.67h2.42v28.27H1602v-3.6h-.48a8.37,8.37,0,0,1-2.65,2.89A8.55,8.55,0,0,1,1593.8,686.5Zm.56-2.18a7.2,7.2,0,0,0,5.43-2.14,8.08,8.08,0,0,0,2.08-5.89V676a8.08,8.08,0,0,0-2.08-5.89,7.93,7.93,0,0,0-10.84,0,8.05,8.05,0,0,0-2.1,5.89v.33a8.05,8.05,0,0,0,2.1,5.89A7.25,7.25,0,0,0,1594.36,684.32Z"/><path d="M1612.61,662.92a2.07,2.07,0,0,1-2.1-2.1,2,2,0,0,1,.61-1.51,2.21,2.21,0,0,1,3,0,2,2,0,0,1,.58,1.51,2.07,2.07,0,0,1-.58,1.5A2,2,0,0,1,1612.61,662.92Zm-1.21,23V666.31h2.42v19.63Z"/><path d="M1628,685.94a3.16,3.16,0,0,1-2.36-.81,3.12,3.12,0,0,1-.79-2.26V668.49h-6.29v-2.18h6.29V659h2.43v7.34h6.86v2.18h-6.86v14a1.07,1.07,0,0,0,1.21,1.22h4.6v2.18Z"/><path d="M1640.79,662.92a2.07,2.07,0,0,1-2.1-2.1,2,2,0,0,1,.61-1.51,2.21,2.21,0,0,1,3,0,2,2,0,0,1,.58,1.51,2.07,2.07,0,0,1-.58,1.5A2,2,0,0,1,1640.79,662.92Zm-1.21,23V666.31H1642v19.63Z"/><path d="M1649.11,685.94V666.31h2.34V670h.48a7.4,7.4,0,0,1,2.39-2.81,8,8,0,0,1,4.8-1.23,8.68,8.68,0,0,1,3.92.89,6.84,6.84,0,0,1,2.84,2.68A8.63,8.63,0,0,1,1667,674v12h-2.42V674.15c0-2.16-.54-3.7-1.61-4.65a6.35,6.35,0,0,0-4.32-1.41,6.91,6.91,0,0,0-5,2q-2,2-2,6v9.82Z"/><path d="M1672.85,676.21v-.49a10.54,10.54,0,0,1,1.27-5.33,9,9,0,0,1,3.41-3.43,9.47,9.47,0,0,1,4.76-1.21,8.58,8.58,0,0,1,5,1.27,8.37,8.37,0,0,1,2.65,2.89h.48v-3.6h2.26v24.63a3.11,3.11,0,0,1-.77,2.26,3.08,3.08,0,0,1-2.34.81h-13.4v-2.18h12.92a1.09,1.09,0,0,0,1.25-1.21v-8.44h-.49a7.79,7.79,0,0,1-1.47,1.9,7.18,7.18,0,0,1-2.44,1.51,10.14,10.14,0,0,1-3.68.59,9.67,9.67,0,0,1-4.78-1.21,8.73,8.73,0,0,1-3.41-3.46A10.63,10.63,0,0,1,1672.85,676.21Zm10,7.79a7.32,7.32,0,0,0,5.43-2.1,7.85,7.85,0,0,0,2.08-5.78v-.32a7.81,7.81,0,0,0-2.08-5.79,8.1,8.1,0,0,0-10.84,0,7.78,7.78,0,0,0-2.1,5.79v.32a7.82,7.82,0,0,0,2.1,5.78A7.32,7.32,0,0,0,1682.86,684Z"/><path d="M1720.57,695.87V653.39H1723v42.48Z"/><path d="M653.47,740.31V738h4V714.39h-4v-2.34h10.74q5.53,0,8.62,2.81t3.09,8.74v5.21q0,5.93-3.09,8.72t-8.62,2.78Zm6.62-2.34h4.12q4.44,0,6.78-2.14c1.56-1.42,2.34-3.73,2.34-6.9v-5.45q0-4.8-2.34-6.93t-6.78-2.12h-4.12Z"/><path d="M683,717.3a2,2,0,0,1-1.49-.6,2.08,2.08,0,0,1-.61-1.5,2,2,0,0,1,.61-1.51,2.21,2.21,0,0,1,3,0,2,2,0,0,1,.58,1.51,2.09,2.09,0,0,1-.58,1.5A2,2,0,0,1,683,717.3Zm-1.21,23V720.69h2.42v19.62Z"/><path d="M690.37,730.58v-.48a10.54,10.54,0,0,1,1.27-5.33,9.06,9.06,0,0,1,3.41-3.43,9.5,9.5,0,0,1,4.77-1.21,8.55,8.55,0,0,1,5,1.27,8.37,8.37,0,0,1,2.65,2.89H708v-3.6h2.26v24.63a3.15,3.15,0,0,1-.76,2.26,3.08,3.08,0,0,1-2.34.81H693.72v-2.18h12.92a1.09,1.09,0,0,0,1.25-1.21v-8.44h-.48a7.85,7.85,0,0,1-1.48,1.9,7.09,7.09,0,0,1-2.44,1.51,10.08,10.08,0,0,1-3.67.59,9.61,9.61,0,0,1-4.79-1.22,8.71,8.71,0,0,1-3.41-3.45A10.75,10.75,0,0,1,690.37,730.58Zm10,7.8a7.29,7.29,0,0,0,5.43-2.1,7.85,7.85,0,0,0,2.08-5.78v-.32a7.79,7.79,0,0,0-2.08-5.79,8.1,8.1,0,0,0-10.84,0,7.76,7.76,0,0,0-2.1,5.79v.32a7.82,7.82,0,0,0,2.1,5.78A7.33,7.33,0,0,0,700.38,738.38Z"/><path d="M718.55,717.3a2.07,2.07,0,0,1-2.1-2.1,2,2,0,0,1,.61-1.51,2.2,2.2,0,0,1,3,0,2,2,0,0,1,.59,1.51,2.06,2.06,0,0,1-.59,1.5A2,2,0,0,1,718.55,717.3Zm-1.21,23V720.69h2.42v19.62Z"/><path d="M734,740.31a3.19,3.19,0,0,1-2.36-.8,3.14,3.14,0,0,1-.79-2.26V722.87h-6.29v-2.18h6.29v-7.35h2.43v7.35h6.86v2.18h-6.86v14a1.07,1.07,0,0,0,1.21,1.21h4.6v2.18Z"/><path d="M751.37,740.88a9.54,9.54,0,0,1-3.73-.71,5.91,5.91,0,0,1-2.64-2.08,5.56,5.56,0,0,1-1-3.31,5.27,5.27,0,0,1,1-3.27,5.83,5.83,0,0,1,2.62-1.94,10,10,0,0,1,3.67-.64h7.19v-1.58a5,5,0,0,0-1.37-3.71,5.52,5.52,0,0,0-4-1.33,6.17,6.17,0,0,0-4.1,1.27,6.25,6.25,0,0,0-2,3.41l-2.34-.69a9.34,9.34,0,0,1,1.54-3.13A7.52,7.52,0,0,1,749,721a9.65,9.65,0,0,1,4.16-.82,8,8,0,0,1,5.75,1.93,7.12,7.12,0,0,1,2,5.41V737c0,.81.38,1.21,1.13,1.21h1.9v2.1h-2.58a2.65,2.65,0,0,1-2-.74,2.79,2.79,0,0,1-.73-2v-.28h-.4a9.14,9.14,0,0,1-1.35,1.73,6.16,6.16,0,0,1-2.16,1.37A9.25,9.25,0,0,1,751.37,740.88Zm.17-2.18a6.88,6.88,0,0,0,5-1.88,7.08,7.08,0,0,0,1.92-5.31V731h-7.15a6.23,6.23,0,0,0-3.49.91,3.1,3.1,0,0,0-1.39,2.8,3.4,3.4,0,0,0,1.43,2.93A6.11,6.11,0,0,0,751.54,738.7Z"/><path d="M768.53,740.31V712.05H771v28.26Z"/><path d="M788.4,740.31V712.05h10.45a10.39,10.39,0,0,1,4.5,1,7.53,7.53,0,0,1,3.17,2.73,7.66,7.66,0,0,1,1.17,4.32v.48a7.62,7.62,0,0,1-1.19,4.34,7.51,7.51,0,0,1-3.19,2.73,10.59,10.59,0,0,1-4.46.92H791v11.79ZM791,726.18h7.59a7.16,7.16,0,0,0,4.78-1.49,5.23,5.23,0,0,0,1.76-4.2v-.4a5.24,5.24,0,0,0-1.72-4.22,7.13,7.13,0,0,0-4.82-1.48H791Z"/><path d="M818.23,740.88a9.5,9.5,0,0,1-3.73-.71,6,6,0,0,1-2.65-2.08,5.63,5.63,0,0,1-1-3.31,5.33,5.33,0,0,1,1-3.27,5.86,5.86,0,0,1,2.63-1.94,10,10,0,0,1,3.67-.64h7.19v-1.58a4.93,4.93,0,0,0-1.38-3.71,5.48,5.48,0,0,0-4-1.33,6.15,6.15,0,0,0-4.1,1.27,6.25,6.25,0,0,0-2,3.41l-2.34-.69a9.32,9.32,0,0,1,1.53-3.13,7.56,7.56,0,0,1,2.79-2.22,9.62,9.62,0,0,1,4.16-.82,8,8,0,0,1,5.75,1.93,7.12,7.12,0,0,1,2,5.41V737c0,.81.38,1.21,1.13,1.21h1.9v2.1H828.2a2.64,2.64,0,0,1-2-.74,2.79,2.79,0,0,1-.73-2v-.28h-.4a9.21,9.21,0,0,1-1.36,1.73,6,6,0,0,1-2.16,1.37A9.19,9.19,0,0,1,818.23,740.88Zm.16-2.18a6.88,6.88,0,0,0,5-1.88,7.08,7.08,0,0,0,1.92-5.31V731h-7.15a6.23,6.23,0,0,0-3.49.91,3.1,3.1,0,0,0-1.39,2.8,3.38,3.38,0,0,0,1.43,2.93A6.06,6.06,0,0,0,818.39,738.7Z"/><path d="M836.6,717.3a2.07,2.07,0,0,1-2.1-2.1,2,2,0,0,1,.61-1.51,2.09,2.09,0,0,1,3.59,1.51,2.1,2.1,0,0,1-.59,1.5A2,2,0,0,1,836.6,717.3Zm-1.21,23V720.69h2.42v19.62Z"/><path d="M844.92,740.31V720.69h2.34v3.64h.48a7.4,7.4,0,0,1,2.39-2.81,8,8,0,0,1,4.8-1.23,8.56,8.56,0,0,1,3.92.89,6.78,6.78,0,0,1,2.84,2.68,8.62,8.62,0,0,1,1.07,4.5v11.95h-2.42V728.52q0-3.22-1.61-4.64a6.35,6.35,0,0,0-4.32-1.41,6.85,6.85,0,0,0-5,2q-2,2-2,6v9.81Z"/><path d="M876.17,740.31a3.18,3.18,0,0,1-2.36-.8,3.1,3.1,0,0,1-.79-2.26V722.87h-6.3v-2.18H873v-7.35h2.42v7.35h6.86v2.18h-6.86v14a1.07,1.07,0,0,0,1.21,1.21h4.6v2.18Z"/><path d="M888.92,717.3a2,2,0,0,1-1.49-.6,2.07,2.07,0,0,1-.6-1.5,2,2,0,0,1,.6-1.51,2.21,2.21,0,0,1,3,0,2,2,0,0,1,.58,1.51,2.09,2.09,0,0,1-.58,1.5A2,2,0,0,1,888.92,717.3Zm-1.21,23V720.69h2.43v19.62Z"/><path d="M897.24,740.31V720.69h2.34v3.64h.49a7.37,7.37,0,0,1,2.38-2.81,8,8,0,0,1,4.8-1.23,8.53,8.53,0,0,1,3.92.89,6.86,6.86,0,0,1,2.85,2.68,8.71,8.71,0,0,1,1.07,4.5v11.95h-2.43V728.52c0-2.15-.53-3.7-1.61-4.64a6.35,6.35,0,0,0-4.32-1.41,6.87,6.87,0,0,0-5.05,2c-1.34,1.33-2,3.34-2,6v9.81Z"/><path d="M921,730.58v-.48a10.54,10.54,0,0,1,1.27-5.33,9.06,9.06,0,0,1,3.41-3.43,9.5,9.5,0,0,1,4.77-1.21,8.55,8.55,0,0,1,5,1.27,8.37,8.37,0,0,1,2.65,2.89h.48v-3.6h2.26v24.63a3.15,3.15,0,0,1-.76,2.26,3.08,3.08,0,0,1-2.34.81H924.33v-2.18h12.92A1.09,1.09,0,0,0,938.5,745v-8.44H938a7.85,7.85,0,0,1-1.48,1.9A7.09,7.09,0,0,1,934.1,740a10.08,10.08,0,0,1-3.67.59,9.61,9.61,0,0,1-4.79-1.22,8.71,8.71,0,0,1-3.41-3.45A10.75,10.75,0,0,1,921,730.58Zm10,7.8a7.29,7.29,0,0,0,5.43-2.1,7.85,7.85,0,0,0,2.08-5.78v-.32a7.79,7.79,0,0,0-2.08-5.79,8.1,8.1,0,0,0-10.84,0,7.76,7.76,0,0,0-2.1,5.79v.32a7.82,7.82,0,0,0,2.1,5.78A7.33,7.33,0,0,0,931,738.38Z"/><path d="M964.38,740.88a9.5,9.5,0,0,1-3.73-.71,6,6,0,0,1-2.65-2.08,5.63,5.63,0,0,1-1-3.31,5.33,5.33,0,0,1,1-3.27,5.86,5.86,0,0,1,2.63-1.94,10,10,0,0,1,3.67-.64h7.19v-1.58a5,5,0,0,0-1.37-3.71,5.52,5.52,0,0,0-4-1.33,6.17,6.17,0,0,0-4.1,1.27,6.25,6.25,0,0,0-2,3.41l-2.34-.69a9.32,9.32,0,0,1,1.53-3.13A7.56,7.56,0,0,1,962,721a9.62,9.62,0,0,1,4.16-.82,8,8,0,0,1,5.75,1.93,7.12,7.12,0,0,1,2,5.41V737c0,.81.38,1.21,1.13,1.21h1.9v2.1h-2.59a2.64,2.64,0,0,1-2-.74,2.79,2.79,0,0,1-.73-2v-.28h-.4a9.21,9.21,0,0,1-1.36,1.73,6,6,0,0,1-2.16,1.37A9.19,9.19,0,0,1,964.38,740.88Zm.16-2.18a6.88,6.88,0,0,0,5-1.88,7.08,7.08,0,0,0,1.92-5.31V731h-7.15a6.23,6.23,0,0,0-3.49.91,3.1,3.1,0,0,0-1.39,2.8,3.38,3.38,0,0,0,1.43,2.93A6.06,6.06,0,0,0,964.54,738.7Z"/><path d="M981.54,740.31V720.69h2.34v3.64h.49a7.28,7.28,0,0,1,2.38-2.81,8,8,0,0,1,4.8-1.23,8.56,8.56,0,0,1,3.92.89,6.86,6.86,0,0,1,2.85,2.68,8.71,8.71,0,0,1,1.06,4.5v11.95H997V728.52q0-3.22-1.61-4.64a6.35,6.35,0,0,0-4.32-1.41,6.87,6.87,0,0,0-5,2q-2,2-2,6v9.81Z"/><path d="M1014.73,740.88a9.42,9.42,0,0,1-4.77-1.23,9,9,0,0,1-3.41-3.52,10.84,10.84,0,0,1-1.27-5.38v-.49a11.09,11.09,0,0,1,1.25-5.39,8.87,8.87,0,0,1,3.41-3.51,9.52,9.52,0,0,1,4.79-1.23,10.13,10.13,0,0,1,3.67.58,7.37,7.37,0,0,1,3.92,3.41h.48V712.05h2.42v28.26h-2.34v-3.59h-.48a8.37,8.37,0,0,1-2.65,2.89A8.57,8.57,0,0,1,1014.73,740.88Zm.56-2.18a7.2,7.2,0,0,0,5.43-2.14,8.09,8.09,0,0,0,2.08-5.9v-.32a8.07,8.07,0,0,0-2.08-5.89,7.93,7.93,0,0,0-10.84,0,8,8,0,0,0-2.1,5.89v.32a8.06,8.06,0,0,0,2.1,5.9A7.23,7.23,0,0,0,1015.29,738.7Z"/><path d="M1048.08,740.31l-7.35-19.62h2.58l6.46,17.77h.49l6.46-17.77h2.58L1052,740.31Z"/><path d="M1072.5,740.88a10.49,10.49,0,0,1-5.27-1.27,8.91,8.91,0,0,1-3.49-3.58,10.9,10.9,0,0,1-1.25-5.28v-.49a10.91,10.91,0,0,1,1.25-5.31,9,9,0,0,1,3.45-3.55,9.84,9.84,0,0,1,5-1.27,10,10,0,0,1,4.86,1.15,8.16,8.16,0,0,1,3.33,3.31,10.32,10.32,0,0,1,1.21,5.15V731h-16.71a7.79,7.79,0,0,0,2.24,5.67,7.5,7.5,0,0,0,5.35,2,6.54,6.54,0,0,0,4.26-1.25,8.37,8.37,0,0,0,2.32-3.07l2.18,1a11.31,11.31,0,0,1-1.67,2.6,8.36,8.36,0,0,1-2.77,2.1A9.87,9.87,0,0,1,1072.5,740.88Zm-7.55-12h14.21a6.77,6.77,0,0,0-2.06-4.91,7,7,0,0,0-4.88-1.71,7.11,7.11,0,0,0-4.89,1.71A7.75,7.75,0,0,0,1065,728.93Z"/><path d="M1096.56,740.88a10.4,10.4,0,0,1-5.1-1.23,8.93,8.93,0,0,1-3.54-3.54,10.84,10.84,0,0,1-1.29-5.4v-.41a10.85,10.85,0,0,1,1.29-5.43,9,9,0,0,1,3.54-3.51,10.4,10.4,0,0,1,5.1-1.23,9.8,9.8,0,0,1,4.79,1.07,8.36,8.36,0,0,1,3.07,2.78,9.11,9.11,0,0,1,1.39,3.62l-2.38.48a7.28,7.28,0,0,0-1-2.89,6,6,0,0,0-2.26-2.1,7.55,7.55,0,0,0-3.6-.78,7.46,7.46,0,0,0-3.83,1,7.13,7.13,0,0,0-2.69,2.78,8.71,8.71,0,0,0-1,4.26v.32a8.65,8.65,0,0,0,1,4.26,7.15,7.15,0,0,0,2.69,2.79,7.46,7.46,0,0,0,3.83,1,6.71,6.71,0,0,0,4.93-1.68,7.27,7.27,0,0,0,2.1-4.1l2.38.49a9.8,9.8,0,0,1-1.51,3.61,8.66,8.66,0,0,1-3.11,2.79A9.92,9.92,0,0,1,1096.56,740.88Z"/><path d="M1118.2,740.31a3.19,3.19,0,0,1-2.36-.8,3.14,3.14,0,0,1-.79-2.26V722.87h-6.29v-2.18h6.29v-7.35h2.43v7.35h6.86v2.18h-6.86v14a1.07,1.07,0,0,0,1.21,1.21h4.6v2.18Z"/><path d="M1138,740.88a10.36,10.36,0,0,1-5.23-1.27,8.75,8.75,0,0,1-3.47-3.56,10.89,10.89,0,0,1-1.24-5.3v-.49a10.91,10.91,0,0,1,1.24-5.31,8.78,8.78,0,0,1,3.47-3.55,11.38,11.38,0,0,1,10.45,0,8.81,8.81,0,0,1,3.48,3.55,11,11,0,0,1,1.23,5.31v.49a11,11,0,0,1-1.23,5.3,8.77,8.77,0,0,1-3.48,3.56A10.35,10.35,0,0,1,1138,740.88Zm0-2.18a7.08,7.08,0,0,0,5.49-2.2,8.33,8.33,0,0,0,2-5.84v-.32a8.3,8.3,0,0,0-2-5.83,7.93,7.93,0,0,0-11,0,8.22,8.22,0,0,0-2,5.83v.32a8.25,8.25,0,0,0,2,5.84A7.08,7.08,0,0,0,1138,738.7Z"/><path d="M1154.05,740.31V720.69h2.35v2.46h.48a3.83,3.83,0,0,1,1.68-1.93,6.42,6.42,0,0,1,3.08-.61H1164v2.26h-2.59a5,5,0,0,0-3.55,1.25,5.15,5.15,0,0,0-1.33,3.92v12.27Z"/><path d="M1185.38,740.88a9.54,9.54,0,0,1-3.73-.71,6,6,0,0,1-2.65-2.08,5.62,5.62,0,0,1-1-3.31,5.33,5.33,0,0,1,1-3.27,5.92,5.92,0,0,1,2.63-1.94,10,10,0,0,1,3.67-.64h7.19v-1.58a5,5,0,0,0-1.37-3.71,5.52,5.52,0,0,0-4-1.33,6.17,6.17,0,0,0-4.1,1.27,6.25,6.25,0,0,0-2,3.41l-2.34-.69a9.34,9.34,0,0,1,1.54-3.13A7.52,7.52,0,0,1,1183,721a9.62,9.62,0,0,1,4.16-.82,8,8,0,0,1,5.75,1.93,7.12,7.12,0,0,1,2,5.41V737c0,.81.38,1.21,1.13,1.21h1.9v2.1h-2.58a2.65,2.65,0,0,1-2-.74,2.79,2.79,0,0,1-.73-2v-.28h-.4a8.81,8.81,0,0,1-1.36,1.73,6,6,0,0,1-2.15,1.37A9.25,9.25,0,0,1,1185.38,740.88Zm.17-2.18a6.88,6.88,0,0,0,5-1.88,7.08,7.08,0,0,0,1.92-5.31V731h-7.15a6.23,6.23,0,0,0-3.49.91,3.1,3.1,0,0,0-1.39,2.8,3.4,3.4,0,0,0,1.43,2.93A6.09,6.09,0,0,0,1185.55,738.7Z"/><path d="M1202.54,740.31V720.69h2.34v2.46h.49a3.81,3.81,0,0,1,1.67-1.93,6.44,6.44,0,0,1,3.09-.61h2.3v2.26h-2.58a5,5,0,0,0-3.55,1.25A5.15,5.15,0,0,0,1205,728v12.27Z"/><path d="M1224.54,740.31a3.21,3.21,0,0,1-2.36-.8,3.13,3.13,0,0,1-.78-2.26V722.87h-6.3v-2.18h6.3v-7.35h2.42v7.35h6.86v2.18h-6.86v14a1.07,1.07,0,0,0,1.21,1.21h4.6v2.18Z"/><path d="M1256.84,750.25V707.77h2.43v42.48Z"/><path d="M1295.8,740.88a11.88,11.88,0,0,1-5.26-1.13,8.53,8.53,0,0,1-3.64-3.29,9.93,9.93,0,0,1-1.31-5.23v-.77h2.5v.81a6.93,6.93,0,0,0,2.14,5.39,7.93,7.93,0,0,0,5.57,2,7.48,7.48,0,0,0,5.41-1.86,6.19,6.19,0,0,0,1.94-4.68v-.25a5.46,5.46,0,0,0-1-3.39,5.81,5.81,0,0,0-2.66-1.91,10.45,10.45,0,0,0-3.7-.63h-4.16v-3.39l11.47-7.79v-.41h-16.87v-2.26h19.37v3.64l-11.34,7.71v.4h2.22a11.39,11.39,0,0,1,4.68.91,7.2,7.2,0,0,1,4.48,7v.41a8.49,8.49,0,0,1-1.21,4.58,8.1,8.1,0,0,1-3.43,3A11.66,11.66,0,0,1,1295.8,740.88Z"/><path d="M1309.85,740.31V738h4V714.39h-4v-2.34h10.74q5.54,0,8.62,2.81t3.09,8.74v5.21q0,5.93-3.09,8.72t-8.62,2.78Zm6.62-2.34h4.12q4.44,0,6.79-2.14c1.56-1.42,2.34-3.73,2.34-6.9v-5.45q0-4.8-2.34-6.93t-6.79-2.12h-4.12Z"/><path d="M1348.53,740.31V712.05h5l8.56,26.73h.48l8.56-26.73h5v28.26h-2.51V713.59h-.48l-8.56,26.72h-4.6l-8.56-26.72H1351v26.72Z"/><path d="M1392.21,740.88a10.42,10.42,0,0,1-5.23-1.27,8.81,8.81,0,0,1-3.47-3.56,11,11,0,0,1-1.23-5.3v-.49a11,11,0,0,1,1.23-5.31,8.85,8.85,0,0,1,3.47-3.55,11.4,11.4,0,0,1,10.46,0,8.78,8.78,0,0,1,3.47,3.55,11,11,0,0,1,1.23,5.31v.49a11,11,0,0,1-1.23,5.3,8.75,8.75,0,0,1-3.47,3.56A10.39,10.39,0,0,1,1392.21,740.88Zm0-2.18a7.05,7.05,0,0,0,5.49-2.2,8.28,8.28,0,0,0,2-5.84v-.32a8.26,8.26,0,0,0-2-5.83,7.93,7.93,0,0,0-11,0,8.22,8.22,0,0,0-2,5.83v.32a8.25,8.25,0,0,0,2,5.84A7.08,7.08,0,0,0,1392.21,738.7Z"/><path d="M1416.76,740.88a9.35,9.35,0,0,1-4.76-1.23,9,9,0,0,1-3.42-3.52,11,11,0,0,1-1.27-5.38v-.49a11.09,11.09,0,0,1,1.25-5.39,8.89,8.89,0,0,1,3.42-3.51,9.48,9.48,0,0,1,4.78-1.23,10.09,10.09,0,0,1,3.67.58,7.27,7.27,0,0,1,3.92,3.41h.48V712.05h2.43v28.26h-2.34v-3.59h-.49a8.33,8.33,0,0,1-2.64,2.89A8.6,8.6,0,0,1,1416.76,740.88Zm.57-2.18a7.19,7.19,0,0,0,5.42-2.14,8.09,8.09,0,0,0,2.08-5.9v-.32a8.07,8.07,0,0,0-2.08-5.89,7.92,7.92,0,0,0-10.83,0,8,8,0,0,0-2.1,5.89v.32a8.06,8.06,0,0,0,2.1,5.9A7.22,7.22,0,0,0,1417.33,738.7Z"/><path d="M1443.41,740.88a10.46,10.46,0,0,1-5.27-1.27,8.85,8.85,0,0,1-3.49-3.58,10.79,10.79,0,0,1-1.26-5.28v-.49a10.8,10.8,0,0,1,1.26-5.31,9,9,0,0,1,3.45-3.55,9.81,9.81,0,0,1,5-1.27,10,10,0,0,1,4.87,1.15,8.29,8.29,0,0,1,3.33,3.31,10.32,10.32,0,0,1,1.21,5.15V731h-16.71a7.75,7.75,0,0,0,2.24,5.67,7.49,7.49,0,0,0,5.35,2,6.54,6.54,0,0,0,4.26-1.25,8.48,8.48,0,0,0,2.32-3.07l2.18,1a11.71,11.71,0,0,1-1.68,2.6,8.21,8.21,0,0,1-2.76,2.1A9.87,9.87,0,0,1,1443.41,740.88Zm-7.55-12h14.21A6.81,6.81,0,0,0,1448,724a7,7,0,0,0-4.89-1.71,7.1,7.1,0,0,0-4.88,1.71A7.7,7.7,0,0,0,1435.86,728.93Z"/><path d="M1458.51,740.31V712.05h2.42v28.26Z"/><path d="M1469.24,717.3a2,2,0,0,1-1.49-.6,2.07,2.07,0,0,1-.6-1.5,2,2,0,0,1,.6-1.51,2.21,2.21,0,0,1,3,0,2,2,0,0,1,.58,1.51,2.09,2.09,0,0,1-.58,1.5A2,2,0,0,1,1469.24,717.3Zm-1.21,23V720.69h2.43v19.62Z"/><path d="M1477.56,740.31V720.69h2.34v3.64h.49a7.37,7.37,0,0,1,2.38-2.81,8,8,0,0,1,4.8-1.23,8.53,8.53,0,0,1,3.92.89,6.86,6.86,0,0,1,2.85,2.68,8.71,8.71,0,0,1,1.07,4.5v11.95H1493V728.52c0-2.15-.53-3.7-1.61-4.64a6.35,6.35,0,0,0-4.32-1.41,6.87,6.87,0,0,0-5,2c-1.34,1.33-2,3.34-2,6v9.81Z"/><path d="M1501.3,730.58v-.48a10.54,10.54,0,0,1,1.27-5.33,9.06,9.06,0,0,1,3.41-3.43,9.5,9.5,0,0,1,4.77-1.21,8.55,8.55,0,0,1,5,1.27,8.37,8.37,0,0,1,2.65,2.89h.48v-3.6h2.26v24.63a3.15,3.15,0,0,1-.76,2.26,3.08,3.08,0,0,1-2.34.81h-13.41v-2.18h12.92a1.09,1.09,0,0,0,1.25-1.21v-8.44h-.48a7.85,7.85,0,0,1-1.48,1.9,7.09,7.09,0,0,1-2.44,1.51,10.08,10.08,0,0,1-3.67.59,9.61,9.61,0,0,1-4.79-1.22,8.71,8.71,0,0,1-3.41-3.45A10.75,10.75,0,0,1,1501.3,730.58Zm10,7.8a7.29,7.29,0,0,0,5.43-2.1,7.85,7.85,0,0,0,2.08-5.78v-.32a7.79,7.79,0,0,0-2.08-5.79,8.1,8.1,0,0,0-10.84,0,7.76,7.76,0,0,0-2.1,5.79v.32a7.82,7.82,0,0,0,2.1,5.78A7.33,7.33,0,0,0,1511.31,738.38Z"/><path d="M1549,750.25V707.77h2.42v42.48Z"/><path d="M658.11,794.69l-5-28.26h2.62l4.52,26.73h.49l5.85-26.73h4.77l5.85,26.73h.48l4.53-26.73h2.62l-5,28.26h-4.8L669.26,768h-.49l-5.85,26.73Z"/><path d="M698.41,795.26a10.57,10.57,0,0,1-5.27-1.27,8.93,8.93,0,0,1-3.5-3.58,10.91,10.91,0,0,1-1.25-5.29v-.48a10.91,10.91,0,0,1,1.25-5.31,9,9,0,0,1,3.46-3.55,9.81,9.81,0,0,1,5-1.27,10,10,0,0,1,4.87,1.15,8.29,8.29,0,0,1,3.33,3.31,10.31,10.31,0,0,1,1.21,5.14v1.3H690.82a7.75,7.75,0,0,0,2.24,5.67,7.49,7.49,0,0,0,5.35,2,6.54,6.54,0,0,0,4.26-1.25,8.48,8.48,0,0,0,2.32-3.07l2.18,1a11.94,11.94,0,0,1-1.68,2.6,8.21,8.21,0,0,1-2.76,2.1A9.9,9.9,0,0,1,698.41,795.26Zm-7.55-12h14.21A6.81,6.81,0,0,0,703,778.4a7.83,7.83,0,0,0-9.77,0A7.7,7.7,0,0,0,690.86,783.31Z"/><path d="M724,795.26a8.62,8.62,0,0,1-5-1.27,8.37,8.37,0,0,1-2.65-2.89h-.48v3.59H713.5V766.43h2.43V778.5h.48a7.21,7.21,0,0,1,3.94-3.41,10.16,10.16,0,0,1,3.65-.58,9.49,9.49,0,0,1,4.81,1.23,9,9,0,0,1,3.39,3.51,11.09,11.09,0,0,1,1.25,5.39v.48a10.85,10.85,0,0,1-1.27,5.39,9,9,0,0,1-3.41,3.52A9.42,9.42,0,0,1,724,795.26Zm-.56-2.18a7.27,7.27,0,0,0,5.43-2.14A8.13,8.13,0,0,0,731,785v-.32a8.11,8.11,0,0,0-2.08-5.89,7.93,7.93,0,0,0-10.84,0,8,8,0,0,0-2.1,5.89V785a8.06,8.06,0,0,0,2.1,5.9A7.27,7.27,0,0,0,723.44,793.08Z"/><path d="M748.39,794.69v-2.34h4V768.77h-4v-2.34h10.74c3.68,0,6.56.94,8.62,2.81s3.08,4.78,3.08,8.74v5.21c0,3.95-1,6.86-3.08,8.72s-4.94,2.78-8.62,2.78Zm6.62-2.34h4.12q4.44,0,6.78-2.14t2.34-6.9v-5.45c0-3.21-.78-5.51-2.34-6.93s-3.82-2.12-6.78-2.12H755Z"/><path d="M785.77,795.26A10.6,10.6,0,0,1,780.5,794a9,9,0,0,1-3.49-3.58,10.91,10.91,0,0,1-1.25-5.29v-.48a10.91,10.91,0,0,1,1.25-5.31,9.06,9.06,0,0,1,3.45-3.55,9.87,9.87,0,0,1,5-1.27,10,10,0,0,1,4.86,1.15,8.25,8.25,0,0,1,3.34,3.31,10.42,10.42,0,0,1,1.21,5.14v1.3H778.18a7.79,7.79,0,0,0,2.24,5.67,7.52,7.52,0,0,0,5.35,2,6.54,6.54,0,0,0,4.26-1.25,8.37,8.37,0,0,0,2.32-3.07l2.18,1a11.53,11.53,0,0,1-1.67,2.6,8.26,8.26,0,0,1-2.77,2.1A9.87,9.87,0,0,1,785.77,795.26Zm-7.55-12h14.21a6.76,6.76,0,0,0-2-4.91,7,7,0,0,0-4.89-1.71,7.13,7.13,0,0,0-4.89,1.71A7.75,7.75,0,0,0,778.22,783.31Z"/><path d="M808.66,795.26a10.62,10.62,0,0,1-6.07-1.7A7.69,7.69,0,0,1,799.5,788l2.38-.44a7,7,0,0,0,1.31,3.37,5.47,5.47,0,0,0,2.43,1.75,8.75,8.75,0,0,0,3,.53,6.87,6.87,0,0,0,3.9-1,3.12,3.12,0,0,0,1.47-2.73,2.5,2.5,0,0,0-1.39-2.46,13.93,13.93,0,0,0-3.69-1.09l-1.86-.32a14.46,14.46,0,0,1-3.35-1,6,6,0,0,1-2.36-1.8,4.47,4.47,0,0,1-.87-2.82,4.66,4.66,0,0,1,2-4,10.41,10.41,0,0,1,10.7.06,6.75,6.75,0,0,1,2.56,4.38l-2.26.48a4.63,4.63,0,0,0-1.92-3.31,6.92,6.92,0,0,0-3.77-1,6.63,6.63,0,0,0-3.56.84,2.8,2.8,0,0,0-1.33,2.51,2.57,2.57,0,0,0,1.21,2.36,9.34,9.34,0,0,0,3.31,1.11l1.86.32a17.77,17.77,0,0,1,3.63,1,6.2,6.2,0,0,1,2.57,1.76,4.49,4.49,0,0,1,1,3,5,5,0,0,1-2.1,4.3A9.56,9.56,0,0,1,808.66,795.26Z"/><path d="M823.4,771.68a2.12,2.12,0,0,1-1.49-3.61,2.12,2.12,0,0,1,3,3A2,2,0,0,1,823.4,771.68Zm-1.21,23V775.07h2.42v19.62Z"/><path d="M830.75,785v-.48a10.54,10.54,0,0,1,1.27-5.33,8.92,8.92,0,0,1,3.41-3.43,9.5,9.5,0,0,1,4.77-1.21,8.57,8.57,0,0,1,5,1.27,8.34,8.34,0,0,1,2.65,2.88h.48v-3.59h2.26V799.7a3.11,3.11,0,0,1-.77,2.26,3.08,3.08,0,0,1-2.34.81H834.1v-2.18H847a1.09,1.09,0,0,0,1.25-1.21v-8.44h-.48a8.07,8.07,0,0,1-1.48,1.89,7,7,0,0,1-2.44,1.52,10.13,10.13,0,0,1-3.67.58,9.61,9.61,0,0,1-4.79-1.21,8.64,8.64,0,0,1-3.41-3.45A10.75,10.75,0,0,1,830.75,785Zm10,7.79a7.35,7.35,0,0,0,5.43-2.09,7.85,7.85,0,0,0,2.08-5.78v-.32a7.83,7.83,0,0,0-2.08-5.8,8.13,8.13,0,0,0-10.84,0,7.8,7.8,0,0,0-2.1,5.8v.32a7.82,7.82,0,0,0,2.1,5.78A7.35,7.35,0,0,0,840.76,792.75Z"/><path d="M857.72,794.69V775.07h2.34v3.63h.48a7.45,7.45,0,0,1,2.39-2.8,8,8,0,0,1,4.8-1.23,8.56,8.56,0,0,1,3.92.89,6.78,6.78,0,0,1,2.84,2.68,8.62,8.62,0,0,1,1.07,4.5v12h-2.42V782.9q0-3.23-1.62-4.64a6.3,6.3,0,0,0-4.31-1.41,6.85,6.85,0,0,0-5.05,2q-2,2-2,6v9.81Z"/><path d="M898.86,795.26a9.55,9.55,0,0,1-3.74-.71,6,6,0,0,1-2.64-2.08,5.56,5.56,0,0,1-1-3.31,5.27,5.27,0,0,1,1-3.27A5.83,5.83,0,0,1,895.1,784a10.08,10.08,0,0,1,3.68-.64H906v-1.58a4.91,4.91,0,0,0-1.37-3.71,5.5,5.5,0,0,0-4-1.33A6.12,6.12,0,0,0,896.5,778a6.25,6.25,0,0,0-2,3.41l-2.34-.69a9.32,9.32,0,0,1,1.53-3.13,7.46,7.46,0,0,1,2.79-2.22,9.57,9.57,0,0,1,4.15-.82,8,8,0,0,1,5.76,1.93,7.12,7.12,0,0,1,2,5.41v9.53c0,.81.37,1.21,1.13,1.21h1.89v2.1h-2.58a2.68,2.68,0,0,1-2-.74,2.83,2.83,0,0,1-.73-2v-.29h-.4a9.19,9.19,0,0,1-1.35,1.74,6.12,6.12,0,0,1-2.16,1.37A9.23,9.23,0,0,1,898.86,795.26Zm.16-2.18a6.9,6.9,0,0,0,5-1.88,7.12,7.12,0,0,0,1.91-5.31v-.48h-7.14a6.34,6.34,0,0,0-3.5.9,3.15,3.15,0,0,0-1.39,2.81,3.39,3.39,0,0,0,1.44,2.93A6.13,6.13,0,0,0,899,793.08Z"/><path d="M916,794.69V775.07h2.34v3.63h.48a7.51,7.51,0,0,1,2.38-2.8,8,8,0,0,1,4.81-1.23,8.51,8.51,0,0,1,3.91.89,6.74,6.74,0,0,1,2.85,2.68,8.71,8.71,0,0,1,1.07,4.5v12h-2.42V782.9q0-3.23-1.62-4.64a6.31,6.31,0,0,0-4.32-1.41,6.83,6.83,0,0,0-5,2q-2,2-2,6v9.81Z"/><path d="M949.2,795.26a9.35,9.35,0,0,1-4.76-1.23,9,9,0,0,1-3.41-3.52,10.85,10.85,0,0,1-1.27-5.39v-.48a11,11,0,0,1,1.25-5.39,8.8,8.8,0,0,1,3.41-3.51,9.48,9.48,0,0,1,4.78-1.23,10.15,10.15,0,0,1,3.68.58,7.48,7.48,0,0,1,2.44,1.49,7.57,7.57,0,0,1,1.47,1.92h.49V766.43h2.42v28.26h-2.34V791.1h-.49a8.23,8.23,0,0,1-2.64,2.89A8.66,8.66,0,0,1,949.2,795.26Zm.57-2.18a7.27,7.27,0,0,0,5.43-2.14,8.13,8.13,0,0,0,2.08-5.9v-.32a8.11,8.11,0,0,0-2.08-5.89,7.93,7.93,0,0,0-10.84,0,8,8,0,0,0-2.1,5.89V785a8.06,8.06,0,0,0,2.1,5.9A7.27,7.27,0,0,0,949.77,793.08Z"/><path d="M975.61,794.69v-2.34h4V768.77h-4v-2.34h10.74c3.68,0,6.56.94,8.62,2.81s3.08,4.78,3.08,8.74v5.21c0,3.95-1,6.86-3.08,8.72s-4.94,2.78-8.62,2.78Zm6.62-2.34h4.12q4.44,0,6.78-2.14t2.34-6.9v-5.45c0-3.21-.78-5.51-2.34-6.93s-3.82-2.12-6.78-2.12h-4.12Z"/><path d="M1013,795.26a10.6,10.6,0,0,1-5.27-1.27,9,9,0,0,1-3.49-3.58,10.91,10.91,0,0,1-1.25-5.29v-.48a10.91,10.91,0,0,1,1.25-5.31,9.06,9.06,0,0,1,3.45-3.55,9.87,9.87,0,0,1,5-1.27,10,10,0,0,1,4.86,1.15,8.25,8.25,0,0,1,3.34,3.31,10.42,10.42,0,0,1,1.21,5.14v1.3H1005.4a7.79,7.79,0,0,0,2.24,5.67,7.52,7.52,0,0,0,5.35,2,6.54,6.54,0,0,0,4.26-1.25,8.37,8.37,0,0,0,2.32-3.07l2.18,1a11.53,11.53,0,0,1-1.67,2.6,8.36,8.36,0,0,1-2.77,2.1A9.87,9.87,0,0,1,1013,795.26Zm-7.55-12h14.21a6.73,6.73,0,0,0-2.06-4.91,7,7,0,0,0-4.88-1.71,7.13,7.13,0,0,0-4.89,1.71A7.75,7.75,0,0,0,1005.44,783.31Z"/><path d="M1032.49,794.69l-7.35-19.62h2.59l6.46,17.76h.48l6.46-17.76h2.59l-7.35,19.62Z"/><path d="M1056.92,795.26a10.57,10.57,0,0,1-5.27-1.27,8.91,8.91,0,0,1-3.49-3.58,10.8,10.8,0,0,1-1.25-5.29v-.48a10.8,10.8,0,0,1,1.25-5.31,8.93,8.93,0,0,1,3.45-3.55,9.83,9.83,0,0,1,5-1.27,10,10,0,0,1,4.87,1.15,8.29,8.29,0,0,1,3.33,3.31,10.31,10.31,0,0,1,1.21,5.14v1.3h-16.71a7.79,7.79,0,0,0,2.24,5.67,7.49,7.49,0,0,0,5.35,2,6.54,6.54,0,0,0,4.26-1.25,8.37,8.37,0,0,0,2.32-3.07l2.18,1a11.24,11.24,0,0,1-1.68,2.6,8.21,8.21,0,0,1-2.76,2.1A9.87,9.87,0,0,1,1056.92,795.26Zm-7.55-12h14.21a6.77,6.77,0,0,0-2.06-4.91,7,7,0,0,0-4.89-1.71,7.1,7.1,0,0,0-4.88,1.71A7.7,7.7,0,0,0,1049.37,783.31Z"/><path d="M1072,794.69V766.43h2.42v28.26Z"/><path d="M1090.51,795.26a10.49,10.49,0,0,1-5.23-1.27,8.87,8.87,0,0,1-3.47-3.56,11,11,0,0,1-1.23-5.31v-.48a11,11,0,0,1,1.23-5.31,8.79,8.79,0,0,1,3.47-3.55,11.4,11.4,0,0,1,10.46,0,8.79,8.79,0,0,1,3.47,3.55,11,11,0,0,1,1.23,5.31v.48a11,11,0,0,1-1.23,5.31,8.87,8.87,0,0,1-3.47,3.56A10.52,10.52,0,0,1,1090.51,795.26Zm0-2.18a7.12,7.12,0,0,0,5.49-2.2,8.33,8.33,0,0,0,2-5.84v-.32a8.3,8.3,0,0,0-2-5.83,7.93,7.93,0,0,0-11,0,8.22,8.22,0,0,0-2,5.83V785a8.25,8.25,0,0,0,2,5.84A7.12,7.12,0,0,0,1090.51,793.08Z"/><path d="M1106.58,802.77v-27.7h2.34v3.59h.48a8.34,8.34,0,0,1,2.65-2.88,8.55,8.55,0,0,1,5-1.27,9.42,9.42,0,0,1,4.77,1.23,9.08,9.08,0,0,1,3.41,3.49,10.85,10.85,0,0,1,1.27,5.41v.48a11.06,11.06,0,0,1-1.25,5.39,8.91,8.91,0,0,1-3.39,3.52,9.49,9.49,0,0,1-4.81,1.23,10.15,10.15,0,0,1-3.65-.59,7.09,7.09,0,0,1-2.46-1.51,7.85,7.85,0,0,1-1.48-1.9H1109v11.51Zm9.93-9.69a7.27,7.27,0,0,0,5.43-2.14A8.13,8.13,0,0,0,1124,785v-.32a8.11,8.11,0,0,0-2.08-5.89,7.93,7.93,0,0,0-10.84,0,8,8,0,0,0-2.1,5.89V785a8.06,8.06,0,0,0,2.1,5.9A7.27,7.27,0,0,0,1116.51,793.08Z"/><path d="M1132.66,794.69V775.07H1135v2.59h.48a6,6,0,0,1,5.74-3,6.09,6.09,0,0,1,6,3.71h.49a6.55,6.55,0,0,1,2.14-2.62,6.63,6.63,0,0,1,4.07-1.09,7.08,7.08,0,0,1,3.52.83,6,6,0,0,1,2.34,2.3,6.84,6.84,0,0,1,.85,3.45v13.44h-2.43v-13.2a4.55,4.55,0,0,0-1.27-3.37,4.82,4.82,0,0,0-3.57-1.27,5.43,5.43,0,0,0-3.92,1.51,5.85,5.85,0,0,0-1.57,4.42v11.91h-2.42v-13.2a4.55,4.55,0,0,0-1.28-3.37,4.81,4.81,0,0,0-3.57-1.27,5.43,5.43,0,0,0-3.92,1.51,5.85,5.85,0,0,0-1.57,4.42v11.91Z"/><path d="M1176.5,795.26a10.6,10.6,0,0,1-5.27-1.27,9,9,0,0,1-3.49-3.58,10.91,10.91,0,0,1-1.25-5.29v-.48a10.91,10.91,0,0,1,1.25-5.31,9.06,9.06,0,0,1,3.45-3.55,9.87,9.87,0,0,1,5-1.27,10,10,0,0,1,4.86,1.15,8.25,8.25,0,0,1,3.34,3.31,10.42,10.42,0,0,1,1.21,5.14v1.3h-16.72a7.79,7.79,0,0,0,2.24,5.67,7.52,7.52,0,0,0,5.35,2,6.54,6.54,0,0,0,4.26-1.25,8.37,8.37,0,0,0,2.32-3.07l2.18,1a11.53,11.53,0,0,1-1.67,2.6,8.26,8.26,0,0,1-2.77,2.1A9.87,9.87,0,0,1,1176.5,795.26Zm-7.55-12h14.21a6.76,6.76,0,0,0-2.05-4.91,7,7,0,0,0-4.89-1.71,7.13,7.13,0,0,0-4.89,1.71A7.75,7.75,0,0,0,1169,783.31Z"/><path d="M1191.6,794.69V775.07h2.34v3.63h.49a7.42,7.42,0,0,1,2.38-2.8,8,8,0,0,1,4.81-1.23,8.51,8.51,0,0,1,3.91.89,6.8,6.8,0,0,1,2.85,2.68,8.71,8.71,0,0,1,1.07,4.5v12H1207V782.9q0-3.23-1.62-4.64a6.35,6.35,0,0,0-4.32-1.41,6.87,6.87,0,0,0-5,2q-2,2-2,6v9.81Z"/><path d="M1222.85,794.69a3.14,3.14,0,0,1-2.36-.81,3.07,3.07,0,0,1-.79-2.26V777.25h-6.3v-2.18h6.3v-7.35h2.42v7.35H1229v2.18h-6.87v14a1.07,1.07,0,0,0,1.22,1.21h4.6v2.18Z"/><path d="M1255.15,804.62V762.15h2.42v42.47Z"/><path d="M1288.13,794.69l-5-28.26h2.62l4.52,26.73h.49l5.85-26.73h4.77l5.85,26.73h.49l4.52-26.73h2.62l-5,28.26h-4.81L1299.28,768h-.49l-5.85,26.73Z"/><path d="M1328.43,795.26a10.57,10.57,0,0,1-5.27-1.27,8.85,8.85,0,0,1-3.49-3.58,10.8,10.8,0,0,1-1.26-5.29v-.48a10.8,10.8,0,0,1,1.26-5.31,8.93,8.93,0,0,1,3.45-3.55,9.81,9.81,0,0,1,5-1.27,10,10,0,0,1,4.87,1.15,8.29,8.29,0,0,1,3.33,3.31,10.31,10.31,0,0,1,1.21,5.14v1.3h-16.71a7.75,7.75,0,0,0,2.24,5.67,7.49,7.49,0,0,0,5.35,2,6.54,6.54,0,0,0,4.26-1.25,8.37,8.37,0,0,0,2.32-3.07l2.18,1a11.94,11.94,0,0,1-1.68,2.6,8.21,8.21,0,0,1-2.76,2.1A9.87,9.87,0,0,1,1328.43,795.26Zm-7.55-12h14.21a6.81,6.81,0,0,0-2.06-4.91,7,7,0,0,0-4.89-1.71,7.1,7.1,0,0,0-4.88,1.71A7.7,7.7,0,0,0,1320.88,783.31Z"/><path d="M1354,795.26a8.62,8.62,0,0,1-5-1.27,8.37,8.37,0,0,1-2.65-2.89h-.48v3.59h-2.34V766.43H1346V778.5h.48a7.21,7.21,0,0,1,3.94-3.41,10.16,10.16,0,0,1,3.65-.58,9.49,9.49,0,0,1,4.81,1.23,9,9,0,0,1,3.39,3.51,11.09,11.09,0,0,1,1.25,5.39v.48a10.85,10.85,0,0,1-1.27,5.39,9,9,0,0,1-3.41,3.52A9.42,9.42,0,0,1,1354,795.26Zm-.56-2.18a7.27,7.27,0,0,0,5.43-2.14A8.13,8.13,0,0,0,1361,785v-.32a8.11,8.11,0,0,0-2.08-5.89,7.93,7.93,0,0,0-10.84,0,8,8,0,0,0-2.1,5.89V785a8.06,8.06,0,0,0,2.1,5.9A7.27,7.27,0,0,0,1353.46,793.08Z"/><path d="M1377,794.69l9.24-28.26h4.6l9.25,28.26h-2.71l-2.42-7.51h-12.84l-2.42,7.51Zm5.85-9.85h11.39L1388.83,768h-.49Z"/><path d="M1404.81,802.77v-27.7h2.34v3.59h.49a8.21,8.21,0,0,1,2.64-2.88,8.6,8.6,0,0,1,5-1.27,9.35,9.35,0,0,1,4.76,1.23,9,9,0,0,1,3.42,3.49,11,11,0,0,1,1.27,5.41v.48a11.06,11.06,0,0,1-1.25,5.39,8.87,8.87,0,0,1-3.4,3.52,9.42,9.42,0,0,1-4.8,1.23,10.12,10.12,0,0,1-3.65-.59,7.23,7.23,0,0,1-2.47-1.51,8,8,0,0,1-1.47-1.9h-.48v11.51Zm9.93-9.69a7.24,7.24,0,0,0,5.43-2.14,8.09,8.09,0,0,0,2.08-5.9v-.32a8.07,8.07,0,0,0-2.08-5.89,7.93,7.93,0,0,0-10.84,0,8,8,0,0,0-2.09,5.89V785a8.06,8.06,0,0,0,2.09,5.9A7.28,7.28,0,0,0,1414.74,793.08Z"/><path d="M1430.89,802.77v-27.7h2.35v3.59h.48a8.4,8.4,0,0,1,2.64-2.88,8.6,8.6,0,0,1,5-1.27,9.42,9.42,0,0,1,4.77,1.23,9.08,9.08,0,0,1,3.41,3.49,11,11,0,0,1,1.27,5.41v.48a11.06,11.06,0,0,1-1.25,5.39,8.91,8.91,0,0,1-3.39,3.52,9.49,9.49,0,0,1-4.81,1.23,10.12,10.12,0,0,1-3.65-.59,7.23,7.23,0,0,1-2.47-1.51,8,8,0,0,1-1.47-1.9h-.48v11.51Zm9.94-9.69a7.27,7.27,0,0,0,5.43-2.14,8.13,8.13,0,0,0,2.07-5.9v-.32a8.1,8.1,0,0,0-2.07-5.89,7.93,7.93,0,0,0-10.84,0,8,8,0,0,0-2.1,5.89V785a8.06,8.06,0,0,0,2.1,5.9A7.25,7.25,0,0,0,1440.83,793.08Z"/><path d="M1465.78,794.69v-2.34h4V768.77h-4v-2.34h10.74c3.68,0,6.56.94,8.61,2.81s3.09,4.78,3.09,8.74v5.21q0,5.92-3.09,8.72c-2.05,1.85-4.93,2.78-8.61,2.78Zm6.62-2.34h4.12q4.44,0,6.78-2.14t2.34-6.9v-5.45c0-3.21-.78-5.51-2.34-6.93s-3.82-2.12-6.78-2.12h-4.12Z"/><path d="M1503.16,795.26a10.6,10.6,0,0,1-5.27-1.27,8.91,8.91,0,0,1-3.49-3.58,10.91,10.91,0,0,1-1.25-5.29v-.48a10.91,10.91,0,0,1,1.25-5.31,8.93,8.93,0,0,1,3.45-3.55,9.84,9.84,0,0,1,5-1.27,10,10,0,0,1,4.86,1.15,8.16,8.16,0,0,1,3.33,3.31,10.31,10.31,0,0,1,1.22,5.14v1.3h-16.72a7.79,7.79,0,0,0,2.24,5.67,7.5,7.5,0,0,0,5.35,2,6.54,6.54,0,0,0,4.26-1.25,8.37,8.37,0,0,0,2.32-3.07l2.18,1a11.53,11.53,0,0,1-1.67,2.6,8.36,8.36,0,0,1-2.77,2.1A9.87,9.87,0,0,1,1503.16,795.26Zm-7.55-12h14.21a6.77,6.77,0,0,0-2.06-4.91,7,7,0,0,0-4.88-1.71,7.13,7.13,0,0,0-4.89,1.71A7.75,7.75,0,0,0,1495.61,783.31Z"/><path d="M1522.66,794.69l-7.35-19.62h2.59l6.46,17.76h.48l6.46-17.76h2.59l-7.35,19.62Z"/><path d="M1547.09,795.26a10.57,10.57,0,0,1-5.27-1.27,8.91,8.91,0,0,1-3.49-3.58,10.8,10.8,0,0,1-1.25-5.29v-.48a10.8,10.8,0,0,1,1.25-5.31,8.93,8.93,0,0,1,3.45-3.55,9.83,9.83,0,0,1,5-1.27,10,10,0,0,1,4.87,1.15A8.29,8.29,0,0,1,1555,779a10.31,10.31,0,0,1,1.21,5.14v1.3H1539.5a7.79,7.79,0,0,0,2.24,5.67,7.49,7.49,0,0,0,5.35,2,6.54,6.54,0,0,0,4.26-1.25,8.37,8.37,0,0,0,2.32-3.07l2.18,1a11.24,11.24,0,0,1-1.68,2.6,8.21,8.21,0,0,1-2.76,2.1A9.87,9.87,0,0,1,1547.09,795.26Zm-7.55-12h14.21a6.77,6.77,0,0,0-2.06-4.91,7,7,0,0,0-4.89-1.71,7.1,7.1,0,0,0-4.88,1.71A7.7,7.7,0,0,0,1539.54,783.31Z"/><path d="M1562.19,794.69V766.43h2.42v28.26Z"/><path d="M1580.68,795.26a10.49,10.49,0,0,1-5.23-1.27,8.87,8.87,0,0,1-3.47-3.56,11,11,0,0,1-1.23-5.31v-.48a11,11,0,0,1,1.23-5.31,8.79,8.79,0,0,1,3.47-3.55,11.4,11.4,0,0,1,10.46,0,8.79,8.79,0,0,1,3.47,3.55,11,11,0,0,1,1.23,5.31v.48a11,11,0,0,1-1.23,5.31,8.87,8.87,0,0,1-3.47,3.56A10.52,10.52,0,0,1,1580.68,795.26Zm0-2.18a7.12,7.12,0,0,0,5.49-2.2,8.33,8.33,0,0,0,2-5.84v-.32a8.3,8.3,0,0,0-2-5.83,7.93,7.93,0,0,0-11,0,8.22,8.22,0,0,0-2,5.83V785a8.25,8.25,0,0,0,2,5.84A7.12,7.12,0,0,0,1580.68,793.08Z"/><path d="M1596.75,802.77v-27.7h2.34v3.59h.48a8.34,8.34,0,0,1,2.65-2.88,8.55,8.55,0,0,1,5-1.27,9.42,9.42,0,0,1,4.77,1.23,9.08,9.08,0,0,1,3.41,3.49,10.85,10.85,0,0,1,1.27,5.41v.48a11.06,11.06,0,0,1-1.25,5.39,8.91,8.91,0,0,1-3.39,3.52,9.49,9.49,0,0,1-4.81,1.23,10.15,10.15,0,0,1-3.65-.59,7.09,7.09,0,0,1-2.46-1.51,7.85,7.85,0,0,1-1.48-1.9h-.48v11.51Zm9.93-9.69a7.27,7.27,0,0,0,5.43-2.14,8.13,8.13,0,0,0,2.08-5.9v-.32a8.11,8.11,0,0,0-2.08-5.89,7.93,7.93,0,0,0-10.84,0,8,8,0,0,0-2.1,5.89V785a8.06,8.06,0,0,0,2.1,5.9A7.27,7.27,0,0,0,1606.68,793.08Z"/><path d="M1622.83,794.69V775.07h2.34v2.59h.48a6,6,0,0,1,5.74-3,6.09,6.09,0,0,1,6,3.71h.49a6.55,6.55,0,0,1,2.14-2.62,6.63,6.63,0,0,1,4.07-1.09,7.08,7.08,0,0,1,3.52.83,6,6,0,0,1,2.34,2.3,6.84,6.84,0,0,1,.85,3.45v13.44h-2.43v-13.2a4.55,4.55,0,0,0-1.27-3.37,4.82,4.82,0,0,0-3.57-1.27,5.43,5.43,0,0,0-3.92,1.51,5.85,5.85,0,0,0-1.57,4.42v11.91h-2.43v-13.2a4.55,4.55,0,0,0-1.27-3.37,4.81,4.81,0,0,0-3.57-1.27,5.43,5.43,0,0,0-3.92,1.51,5.85,5.85,0,0,0-1.57,4.42v11.91Z"/><path d="M1666.67,795.26a10.6,10.6,0,0,1-5.27-1.27,9,9,0,0,1-3.49-3.58,10.91,10.91,0,0,1-1.25-5.29v-.48a10.91,10.91,0,0,1,1.25-5.31,9.06,9.06,0,0,1,3.45-3.55,9.87,9.87,0,0,1,5-1.27,10,10,0,0,1,4.86,1.15,8.25,8.25,0,0,1,3.34,3.31,10.42,10.42,0,0,1,1.21,5.14v1.3h-16.72a7.79,7.79,0,0,0,2.24,5.67,7.52,7.52,0,0,0,5.35,2,6.54,6.54,0,0,0,4.26-1.25,8.37,8.37,0,0,0,2.32-3.07l2.18,1a11.53,11.53,0,0,1-1.67,2.6,8.36,8.36,0,0,1-2.77,2.1A9.87,9.87,0,0,1,1666.67,795.26Zm-7.55-12h14.21a6.76,6.76,0,0,0-2-4.91,7,7,0,0,0-4.89-1.71,7.13,7.13,0,0,0-4.89,1.71A7.75,7.75,0,0,0,1659.12,783.31Z"/><path d="M1681.77,794.69V775.07h2.34v3.63h.49a7.42,7.42,0,0,1,2.38-2.8,8,8,0,0,1,4.8-1.23,8.53,8.53,0,0,1,3.92.89,6.86,6.86,0,0,1,2.85,2.68,8.71,8.71,0,0,1,1.07,4.5v12h-2.43V782.9c0-2.15-.53-3.7-1.61-4.64a6.35,6.35,0,0,0-4.32-1.41,6.87,6.87,0,0,0-5,2c-1.34,1.33-2,3.34-2,6v9.81Z"/><path d="M1713,794.69a3.14,3.14,0,0,1-2.36-.81,3.07,3.07,0,0,1-.79-2.26V777.25h-6.3v-2.18h6.3v-7.35h2.42v7.35h6.87v2.18h-6.87v14a1.07,1.07,0,0,0,1.21,1.21h4.61v2.18Z"/></svg>