<svg id="Layer_1" data-name="Layer 1" xmlns="http://www.w3.org/2000/svg" viewBox="0 0 1920 1080"><defs><style>.cls-1,.cls-2{fill:#1e1e1e;}.cls-2{opacity:0.46;font-size:30px;font-family:Raleway-Thin, Raleway;font-weight:200;}.cls-3{letter-spacing:-0.01em;}.cls-4{letter-spacing:-0.02em;}.cls-5{letter-spacing:-0.01em;}.cls-6{letter-spacing:-0.03em;}.cls-7{letter-spacing:-0.02em;}.cls-8{letter-spacing:-0.01em;}.cls-9{letter-spacing:-0.01em;}.cls-10{letter-spacing:-0.03em;}.cls-11{letter-spacing:-0.03em;}.cls-12{letter-spacing:-0.01em;}.cls-13{letter-spacing:0em;}.cls-14{letter-spacing:-0.03em;}.cls-15{letter-spacing:-0.02em;}.cls-16{letter-spacing:-0.02em;}.cls-17{letter-spacing:-0.06em;}.cls-18{letter-spacing:-0.01em;}.cls-19{letter-spacing:-0.02em;}</style></defs><path class="cls-1" d="M358.18,303c50.58,0,85.87,12.65,85.87,61.46s-35.29,60.88-85.87,60.88H307.31v90.87H295.25V303Zm-50.87,10.88V414.46h52.05c40,0,72.05-7.65,72.05-50,0-42.64-32.06-50.58-72.05-50.58Z"/><path class="cls-1" d="M481.7,516.21H470.23V303H481.7Z"/><path class="cls-1" d="M633.44,485.63c-10,22.93-31.76,34.4-61.17,34.4-27.93,0-52.93-15.58-52.93-42,0-37.35,37.64-47.35,113.52-56.46V412.4c0-41.17-23.53-47.64-47.94-47.64-31.47,0-46.46,17.94-48.52,39.11H524c3-28.52,25.88-49.7,61.17-49.7s59.11,13.24,59.11,58.23c0,15.29-.29,36.17-.29,49.41,0,19.7.59,36.46,1.77,54.4H634.62Zm0-53.53c-76.16,8.83-101.75,18.53-101.75,45.29,0,20,18.82,32.06,43.23,32.06,29.12,0,58.52-15.3,58.52-61.47Z"/><path class="cls-1" d="M680.5,567.67V557.38h9.12c17.93,0,22-1.17,32.34-27l5.59-14.41L664.91,358h12.94l55.29,142.63L787.54,358h12.94L732.55,531.8c-11.76,29.7-17.06,35.87-43.23,35.87Z"/><path class="cls-1" d="M466.11,623.49H453.46c-8.52-38.53-39.4-55.88-75.28-55.88-49.41,0-82.93,38.23-82.93,98.81,0,60,32.35,99.11,81.75,99.11,36.76,0,77.35-17.65,77.35-72.64v-9.7H393.18V672h72.93V773.18H454.94l-.3-38.53C442.88,759.35,419.35,777,376.71,777c-61.17,0-94.4-47.35-94.4-110.58S317,556.14,378.47,556.14C423.17,556.14,457.29,579.08,466.11,623.49Z"/><path class="cls-1" d="M575.22,626.13h-5.59c-37.06,0-46.17,30.29-46.17,74.41v72.64H512.28V615h10.59v34.11c6.17-19.7,22.64-35,48.23-35h4.12Z"/><path class="cls-1" d="M660.2,612.31c39.12,0,70.88,26.76,70.88,82.35,0,55.87-31.76,82.34-70.88,82.34-38.81,0-70.58-26.47-70.58-82.34C589.62,639.07,621.39,612.31,660.2,612.31Zm0,154.1c33.82,0,58.53-23.52,58.53-71.75,0-47.94-24.71-71.76-58.53-71.76s-58.52,23.82-58.52,71.76C601.68,742.89,626.38,766.41,660.2,766.41Z"/><path class="cls-1" d="M869.3,737.89C862.83,756.41,847.83,777,815.48,777,779.31,777,764,754.65,764,717.59V615h11.47v98.81c0,30.29,8.82,52.64,42.35,52.64,32.64,0,51.46-28.82,51.46-72.64V615h11.47V773.18H869.3Z"/><path class="cls-1" d="M940.47,651.43c6.47-18.53,22.64-39.12,55.87-39.12,37.65,0,52.94,22.35,52.94,59.41V773.18h-11.47V675.54c0-30.29-8.82-52.64-43.82-52.64-33.53,0-53.52,28.82-53.52,72.64v77.64H929V615h11.47Z"/><path class="cls-1" d="M1206.32,560h11.47V773.18h-11.47V739.36c-9.7,23.23-30.58,37.64-57,37.64-37.35,0-67-29.7-67-82.34,0-52.35,29.7-82.35,67-82.35,26.47,0,47.35,14.41,57,37.65Zm-55.58,62.93c-31.17,0-56.46,25.29-56.46,71.76s25.29,71.75,56.46,71.75c27.35,0,56.76-20,56.76-71.75C1207.5,643.19,1178.09,622.9,1150.74,622.9Z"/><text class="cls-2" transform="translate(880.77 363.46)">UI/U<tspan class="cls-3" x="67.98" y="0">X</tspan><tspan x="86.25" y="0" xml:space="preserve"> Design | </tspan><tspan class="cls-4" x="209.46" y="0">L</tspan><tspan x="226.2" y="0">ogo and B</tspan><tspan class="cls-5" x="365.54" y="0">r</tspan><tspan x="375.02" y="0">and Design</tspan><tspan class="cls-6" x="527.06" y="0"> </tspan><tspan x="533.87" y="0">Video </tspan><tspan class="cls-7" x="620.66" y="0">E</tspan><tspan x="638.45" y="0">diting | </tspan><tspan class="cls-8" x="0" y="53">P</tspan><tspan x="18.3" y="53">os</tspan><tspan class="cls-9" x="50.01" y="53">t</tspan><tspan x="58.47" y="53">ers | </tspan><tspan class="cls-5" x="121.53" y="53">Mo</tspan><tspan x="165.21" y="53">tion G</tspan><tspan class="cls-5" x="243.66" y="53">r</tspan><tspan x="253.14" y="53">aphics</tspan><tspan class="cls-10" x="339.81" y="53"> </tspan><tspan x="346.62" y="53">Video </tspan><tspan class="cls-7" x="433.4" y="53">E</tspan><tspan x="451.19" y="53">diting | Digita</tspan><tspan class="cls-11" x="621.71" y="53">l</tspan><tspan x="627.92" y="53"> </tspan><tspan class="cls-12" x="635.75" y="53">P</tspan><tspan x="654.17" y="53">ai</tspan><tspan class="cls-13" x="675.53" y="53">n</tspan><tspan x="692.33" y="53">ting </tspan><tspan x="0" y="106">and</tspan><tspan class="cls-14" x="50.79" y="106"> </tspan><tspan class="cls-15" x="57.81" y="106">v</tspan><tspan x="72.87" y="106">ec</tspan><tspan class="cls-9" x="106.29" y="106">t</tspan><tspan x="114.75" y="106">o</tspan><tspan class="cls-16" x="132.33" y="106">r</tspan><tspan x="141.3" y="106" xml:space="preserve"> art |</tspan><tspan class="cls-10" x="197.52" y="106"> </tspan><tspan class="cls-17" x="204.33" y="106">W</tspan><tspan x="233.55" y="106">eb Design and D</tspan><tspan class="cls-18" x="457.94" y="106">e</tspan><tspan class="cls-19" x="474.8" y="106">v</tspan><tspan x="489.86" y="106">elopme</tspan><tspan class="cls-12" x="594.47" y="106">n</tspan><tspan x="611.27" y="106">t | </tspan><tspan x="0" y="159">3D </tspan><tspan class="cls-5" x="44.79" y="159">M</tspan><tspan x="71.1" y="159">odeling</tspan></text></svg>