<?xml version="1.0" encoding="utf-8"?>
<!-- Generator: Adobe Illustrator 24.3.0, SVG Export Plug-In . SVG Version: 6.00 Build 0)  -->
<svg version="1.1" id="Layer_1" xmlns="http://www.w3.org/2000/svg" xmlns:xlink="http://www.w3.org/1999/xlink" x="0px" y="0px"
	 viewBox="0 0 1080 1994" style="enable-background:new 0 0 1080 1994;" xml:space="preserve">
<style type="text/css">
	.st0{fill:#191919;}
	.st1{fill:#FFFFFF;}
	.st2{fill:none;}
	.st3{fill:#545353;}
	.st4{font-family:'Gilroy-Regular';}
	.st5{font-size:37px;}
	.st6{font-family:'Gilroy-ExtraBold';}
	.st7{font-size:250.4418px;}
</style>
<rect class="st0" width="1080" height="1994"/>
<path class="st1" d="M153.8,167.1c16.8,0,30.9,5.7,42.4,17c11.5,11.3,17.2,25.2,17.2,41.7c0,16.5-5.7,30.3-17.2,41.7
	c-11.5,11.3-25.6,17-42.4,17h-30.7v57.3H88.7V167.1H153.8z M153.8,252.1c6.9,0.2,13.5-2.6,18.2-7.6c4.8-5.1,7.4-11.8,7.2-18.8
	c0-7.6-2.4-14-7.2-19c-4.7-5-11.4-7.7-18.2-7.5h-30.7v52.9L153.8,252.1z"/>
<path class="st1" d="M234.4,341.7V159.6h32.2v182.1H234.4z"/>
<path class="st1" d="M390.8,217H423v124.7h-32.2V327c-9.6,12.1-23.2,18.2-40.7,18.2c-16.6,0-30.9-6.4-42.8-19.1
	s-17.8-28.3-17.8-46.8c0-18.5,5.9-34.1,17.8-46.8c11.9-12.7,26.2-19.1,42.8-19.1c17.5,0,31,6.1,40.7,18.2L390.8,217z M331.4,304.7
	c6.5,6.6,14.7,9.9,24.7,9.9c10,0,18.3-3.3,24.9-9.9c6.6-6.6,9.9-15,9.9-25.3s-3.3-18.8-9.9-25.3c-6.6-6.6-14.8-9.8-24.8-9.9
	c-10,0-18.2,3.3-24.7,9.9c-6.5,6.6-9.7,15-9.7,25.3C321.7,289.6,325,298.1,331.4,304.7L331.4,304.7z"/>
<path class="st1" d="M533.5,217h34.4l-45.5,124.9c-6.5,17.8-15.1,30.8-25.8,38.8c-10.7,8.1-24,11.7-40,10.9v-29.9
	c8.7,0.2,15.5-1.7,20.6-5.5c5.1-3.8,9.1-10,12.1-18.5L438.2,217h35.2l32.5,83.8L533.5,217z"/>
<path class="st1" d="M260.1,434.8v13.5c0,24.9-8,45.1-24,60.6s-36.6,23.2-61.9,23.2c-27,0-49.3-8.8-67-26.3
	c-17.7-17.5-26.5-39-26.5-64.2c0-25.4,8.8-47,26.3-64.6s39.3-26.4,65.2-26.4c15.6-0.2,31,3.6,44.7,11.1
	c12.9,6.9,23.8,17.1,31.4,29.6l-29.4,17c-4.2-7.1-10.4-13-18.8-17.5c-8.6-4.5-18.3-6.9-28.1-6.7c-16.6,0-30.3,5.4-41,16.3
	C120.4,411.2,115,425,115,441.6c0,16.5,5.4,30.1,16.3,40.8c10.9,10.7,25.3,16.1,43.3,16.1c13.3,0,24.4-3,33.1-8.9
	c8.6-5.8,14.9-14.4,17.8-24.3h-53v-30.5H260.1z"/>
<path class="st1" d="M315.2,425.4c2.6-7.6,7.9-14,14.8-18c7-4,15-6.1,23.1-6v35.9c-9.8-1.2-18.6,0.8-26.3,6S315.2,457,315.2,469
	v59.6h-32.2V403.9h32.2V425.4z"/>
<path class="st1" d="M473.4,513c-12.8,12.7-28.4,19.1-46.9,19.1c-18.5,0-34.1-6.4-46.8-19.1c-12.7-12.7-19.1-28.2-19.1-46.7
	s6.4-34.1,19.1-46.8c12.7-12.7,28.3-19.1,46.8-19.1s34.1,6.4,46.9,19.1c12.8,12.7,19.2,28.3,19.2,46.8
	C492.6,484.7,486.2,500.3,473.4,513z M402.4,490.9c6.4,6.5,14.4,9.7,24.1,9.7s17.7-3.2,24.2-9.7c6.5-6.5,9.7-14.7,9.7-24.7
	s-3.2-18.2-9.7-24.7c-6.5-6.5-14.5-9.7-24.2-9.7s-17.7,3.2-24.1,9.7c-6.4,6.5-9.6,14.7-9.6,24.7C392.8,476.3,396,484.5,402.4,490.9
	L402.4,490.9z"/>
<path class="st1" d="M597.6,403.9h32.2v124.7h-32.2v-14c-7.8,11.7-20.2,17.5-37.2,17.5c-13.6,0-24.9-4.6-33.8-13.7
	c-8.9-9.1-13.4-21.8-13.3-37.9v-76.6h32.2v72.6c0,8.3,2.2,14.7,6.7,19.1c4.5,4.4,10.5,6.6,18,6.6c8.3,0,15-2.6,20-7.7
	c5-5.2,7.5-12.9,7.5-23.2L597.6,403.9z"/>
<path class="st1" d="M728.6,400.4c13.6,0,24.9,4.6,33.8,13.7c8.9,9.1,13.3,21.8,13.3,37.9v76.6h-32.2V456c0-8.3-2.2-14.7-6.7-19.1
	c-4.5-4.4-10.5-6.6-18-6.6c-8.3,0-15,2.6-20,7.7c-5,5.2-7.5,12.9-7.5,23.2v67.3h-32.1V403.9h32.2v14
	C699.2,406.2,711.6,400.4,728.6,400.4z"/>
<path class="st1" d="M897.7,354h32.2v174.6h-32.2v-14.7c-9.5,12.2-22.9,18.2-40.4,18.2c-16.8,0-31.1-6.4-43-19.1
	c-11.9-12.7-17.8-28.3-17.8-46.8c0-18.5,5.9-34.1,17.8-46.8c11.9-12.7,26.2-19.1,43-19.1c17.5,0,30.9,6.1,40.4,18.2V354z
	 M838.5,491.6c6.6,6.6,14.8,9.9,24.8,9.9c10,0,18.2-3.3,24.7-9.9c6.5-6.6,9.7-15,9.7-25.3c0-10.3-3.2-18.8-9.7-25.3
	c-6.5-6.6-14.7-9.9-24.7-9.9c-10,0-18.2,3.3-24.8,9.9c-6.6,6.6-9.9,15-9.9,25.3C828.6,476.6,831.9,485,838.5,491.6z"/>
<path class="st1" d="M993,525.6c-8.3,8.2-21.6,8.2-29.8-0.1s-8.2-21.6,0.1-29.8s21.6-8.2,29.8,0.1c3.9,3.9,6.1,9.3,6.1,14.8
	C999.3,516.3,997.1,521.7,993,525.6z"/>
<rect x="80.7" y="624.6" class="st2" width="927.7" height="206.3"/>
<text transform="matrix(1 0 0 1 80.7498 650.5368)"><tspan x="0" y="0" class="st3 st4 st5">UI/UX Design | Logo and Brand Design | Video Editing  </tspan><tspan x="0" y="55" class="st3 st4 st5">Posters and Flyers Motion Graphics | Video Editing </tspan><tspan x="0" y="110" class="st3 st4 st5">Digital Painting and vector art | Web Design and </tspan><tspan x="0" y="165" class="st3 st4 st5">Development | 3D Modeling</tspan></text>
<text transform="matrix(1 0 0 1 70.0669 1107.1973)" class="st1 st6 st7">Play</text>
</svg>
