<?xml version="1.0" encoding="utf-8"?>
<!-- Generator: Adobe Illustrator 24.3.0, SVG Export Plug-In . SVG Version: 6.00 Build 0)  -->
<svg version="1.1" id="Layer_1" xmlns="http://www.w3.org/2000/svg" xmlns:xlink="http://www.w3.org/1999/xlink" x="0px" y="0px"
	 viewBox="0 0 1080 885.9" style="enable-background:new 0 0 1080 885.9;" xml:space="preserve">
<style type="text/css">
	.st0{fill:#191919;}
</style>
<path class="st0" d="M153.8,167.1c16.8,0,30.9,5.7,42.4,17c11.5,11.3,17.2,25.2,17.2,41.7c0,16.5-5.7,30.3-17.2,41.7
	c-11.5,11.3-25.6,17-42.4,17h-30.7v57.3H88.7V167.1H153.8z M153.8,252.1c6.9,0.2,13.5-2.6,18.2-7.6c4.8-5.1,7.4-11.8,7.2-18.8
	c0-7.6-2.4-14-7.2-19c-4.7-5-11.4-7.7-18.2-7.5h-30.7v52.9L153.8,252.1z"/>
<path class="st0" d="M234.4,341.7V159.6h32.2v182.1H234.4z"/>
<path class="st0" d="M390.8,217H423v124.7h-32.2V327c-9.6,12.1-23.2,18.2-40.7,18.2c-16.6,0-30.9-6.4-42.8-19.1
	s-17.8-28.3-17.8-46.8c0-18.5,5.9-34.1,17.8-46.8c11.9-12.7,26.2-19.1,42.8-19.1c17.5,0,31,6.1,40.7,18.2L390.8,217z M331.4,304.7
	c6.5,6.6,14.7,9.9,24.7,9.9c10,0,18.3-3.3,24.9-9.9c6.6-6.6,9.9-15,9.9-25.3s-3.3-18.8-9.9-25.3c-6.6-6.6-14.8-9.8-24.8-9.9
	c-10,0-18.2,3.3-24.7,9.9c-6.5,6.6-9.7,15-9.7,25.3C321.7,289.6,325,298.1,331.4,304.7L331.4,304.7z"/>
<path class="st0" d="M533.5,217h34.4l-45.5,124.9c-6.5,17.8-15.1,30.8-25.8,38.8c-10.7,8.1-24,11.7-40,10.9v-29.9
	c8.7,0.2,15.5-1.7,20.6-5.5c5.1-3.8,9.1-10,12.1-18.5L438.2,217h35.2l32.5,83.8L533.5,217z"/>
<path class="st0" d="M260.1,434.8v13.5c0,24.9-8,45.1-24,60.6s-36.6,23.2-61.9,23.2c-27,0-49.3-8.8-67-26.3
	c-17.7-17.5-26.5-39-26.5-64.2c0-25.4,8.8-47,26.3-64.6s39.3-26.4,65.2-26.4c15.6-0.2,31,3.6,44.7,11.1
	c12.9,6.9,23.8,17.1,31.4,29.6l-29.4,17c-4.2-7.1-10.4-13-18.8-17.5c-8.6-4.5-18.3-6.9-28.1-6.7c-16.6,0-30.3,5.4-41,16.3
	C120.4,411.2,115,425,115,441.6c0,16.5,5.4,30.1,16.3,40.8c10.9,10.7,25.3,16.1,43.3,16.1c13.3,0,24.4-3,33.1-8.9
	c8.6-5.8,14.9-14.4,17.8-24.3h-53v-30.5H260.1z"/>
<path class="st0" d="M315.2,425.4c2.6-7.6,7.9-14,14.8-18c7-4,15-6.1,23.1-6v35.9c-9.8-1.2-18.6,0.8-26.3,6S315.2,457,315.2,469
	v59.6h-32.2V403.9h32.2V425.4z"/>
<path class="st0" d="M473.4,513c-12.8,12.7-28.4,19.1-46.9,19.1c-18.5,0-34.1-6.4-46.8-19.1c-12.7-12.7-19.1-28.2-19.1-46.7
	s6.4-34.1,19.1-46.8c12.7-12.7,28.3-19.1,46.8-19.1s34.1,6.4,46.9,19.1c12.8,12.7,19.2,28.3,19.2,46.8
	C492.6,484.7,486.2,500.3,473.4,513z M402.4,490.9c6.4,6.5,14.4,9.7,24.1,9.7s17.7-3.2,24.2-9.7c6.5-6.5,9.7-14.7,9.7-24.7
	s-3.2-18.2-9.7-24.7c-6.5-6.5-14.5-9.7-24.2-9.7s-17.7,3.2-24.1,9.7c-6.4,6.5-9.6,14.7-9.6,24.7C392.8,476.3,396,484.5,402.4,490.9
	L402.4,490.9z"/>
<path class="st0" d="M597.6,403.9h32.2v124.7h-32.2v-14c-7.8,11.7-20.2,17.5-37.2,17.5c-13.6,0-24.9-4.6-33.8-13.7
	c-8.9-9.1-13.4-21.8-13.3-37.9v-76.6h32.2v72.6c0,8.3,2.2,14.7,6.7,19.1c4.5,4.4,10.5,6.6,18,6.6c8.3,0,15-2.6,20-7.7
	c5-5.2,7.5-12.9,7.5-23.2L597.6,403.9z"/>
<path class="st0" d="M728.6,400.4c13.6,0,24.9,4.6,33.8,13.7c8.9,9.1,13.3,21.8,13.3,37.9v76.6h-32.2V456c0-8.3-2.2-14.7-6.7-19.1
	c-4.5-4.4-10.5-6.6-18-6.6c-8.3,0-15,2.6-20,7.7c-5,5.2-7.5,12.9-7.5,23.2v67.3h-32.1V403.9h32.2v14
	C699.2,406.2,711.6,400.4,728.6,400.4z"/>
<path class="st0" d="M897.7,354h32.2v174.6h-32.2v-14.7c-9.5,12.2-22.9,18.2-40.4,18.2c-16.8,0-31.1-6.4-43-19.1
	c-11.9-12.7-17.8-28.3-17.8-46.8c0-18.5,5.9-34.1,17.8-46.8c11.9-12.7,26.2-19.1,43-19.1c17.5,0,30.9,6.1,40.4,18.2V354z
	 M838.5,491.6c6.6,6.6,14.8,9.9,24.8,9.9c10,0,18.2-3.3,24.7-9.9c6.5-6.6,9.7-15,9.7-25.3c0-10.3-3.2-18.8-9.7-25.3
	c-6.5-6.6-14.7-9.9-24.7-9.9c-10,0-18.2,3.3-24.8,9.9c-6.6,6.6-9.9,15-9.9,25.3C828.6,476.6,831.9,485,838.5,491.6z"/>
<path class="st0" d="M993,525.6c-8.3,8.2-21.6,8.2-29.8-0.1s-8.2-21.6,0.1-29.8s21.6-8.2,29.8,0.1c3.9,3.9,6.1,9.3,6.1,14.8
	C999.3,516.3,997.1,521.7,993,525.6z"/>
<g>
	<path d="M107.9,647.9c-1.8,1.7-4.1,2.5-7,2.5c-2.9,0-5.2-0.8-7-2.5c-1.8-1.7-2.7-3.9-2.7-6.7V624h2.6v17.1c0,2.1,0.6,3.7,1.8,4.9
		c1.2,1.2,3,1.8,5.2,1.8c2.2,0,3.9-0.6,5.2-1.8c1.2-1.2,1.9-2.8,1.9-4.9V624h2.6v17.1C110.6,643.9,109.7,646.2,107.9,647.9z"/>
	<path d="M116.1,624h2.6v25.9h-2.6V624z"/>
	<path d="M125,653.6l-1.9,0.1l14.8-33.2l1.9-0.1L125,653.6z"/>
	<path d="M160.4,647.9c-1.8,1.7-4.1,2.5-7,2.5c-2.9,0-5.2-0.8-7-2.5c-1.8-1.7-2.7-3.9-2.7-6.7V624h2.6v17.1c0,2.1,0.6,3.7,1.8,4.9
		c1.2,1.2,3,1.8,5.2,1.8c2.2,0,3.9-0.6,5.2-1.8c1.2-1.2,1.9-2.8,1.9-4.9V624h2.6v17.1C163.1,643.9,162.2,646.2,160.4,647.9z"/>
	<path d="M186,649.9h-3l-7-11.1l-7,11.1h-3l8.5-13.4l-8-12.5h2.9l6.5,10.2l6.5-10.2h2.9l-8,12.5L186,649.9z"/>
	<path d="M209,624c3.5,0,6.4,1.3,8.8,3.8c2.3,2.5,3.5,5.6,3.5,9.2s-1.2,6.7-3.5,9.2c-2.3,2.5-5.2,3.8-8.8,3.8h-10V624H209z
		 M209,647.5c2.8,0,5.2-1,7-3c1.8-2,2.7-4.5,2.7-7.5s-0.9-5.5-2.7-7.5s-4.1-3-7-3h-7.4v21H209z"/>
	<path d="M233.8,631c2.7,0,5,1,6.6,2.9c1.7,1.9,2.5,4.2,2.5,6.9c0,0.3,0,0.7-0.1,1.1h-16.2c0.2,1.9,1,3.4,2.4,4.5
		c1.3,1.1,3,1.6,5,1.6c1.4,0,2.6-0.3,3.6-0.9c1-0.6,1.8-1.3,2.3-2.3l2.1,1.3c-0.8,1.3-1.9,2.3-3.3,3.1c-1.4,0.8-3,1.1-4.8,1.1
		c-2.9,0-5.3-0.9-7.1-2.7c-1.8-1.8-2.7-4.1-2.7-7c0-2.8,0.9-5.1,2.7-6.9C228.6,631.9,231,631,233.8,631z M233.8,633.4
		c-1.9,0-3.5,0.6-4.8,1.7c-1.3,1.1-2.1,2.6-2.3,4.5h13.8c-0.2-1.9-1-3.5-2.3-4.6C237,633.9,235.5,633.4,233.8,633.4z"/>
	<path d="M248.1,636.2c0,0.8,0.4,1.5,1.1,2c0.7,0.5,1.7,0.9,2.7,1.2c1.1,0.3,2.1,0.6,3.2,0.9c1.1,0.3,2,0.9,2.7,1.6
		c0.7,0.8,1.1,1.8,1.1,3.1c0,1.6-0.6,2.9-1.9,3.8c-1.2,1-2.9,1.5-4.8,1.5c-1.8,0-3.3-0.4-4.5-1.2s-2.1-1.8-2.6-3.1l2.1-1.2
		c0.3,1,1,1.7,1.9,2.3s2,0.8,3.2,0.8c1.2,0,2.2-0.2,3-0.7c0.8-0.5,1.2-1.2,1.2-2.2c0-0.8-0.4-1.5-1.1-2c-0.7-0.5-1.6-0.9-2.7-1.2
		c-1.1-0.3-2.1-0.6-3.2-0.9c-1.1-0.3-2-0.8-2.7-1.6c-0.7-0.8-1.1-1.8-1.1-3.1c0-1.5,0.6-2.8,1.8-3.8c1.2-1,2.7-1.5,4.5-1.5
		c1.5,0,2.8,0.3,4,1c1.1,0.7,2,1.6,2.5,2.8l-2,1.2c-0.7-1.7-2.2-2.6-4.4-2.6c-1.1,0-2,0.2-2.7,0.7
		C248.4,634.6,248.1,635.3,248.1,636.2z"/>
	<path d="M265.2,627c-0.3,0.3-0.8,0.5-1.3,0.5c-0.5,0-0.9-0.2-1.3-0.5c-0.3-0.3-0.5-0.8-0.5-1.3c0-0.5,0.2-0.9,0.5-1.3
		c0.3-0.3,0.8-0.5,1.3-0.5c0.5,0,0.9,0.2,1.3,0.5c0.3,0.3,0.5,0.8,0.5,1.3C265.7,626.2,265.6,626.6,265.2,627z M262.7,649.9v-18.5
		h2.4v18.5H262.7z"/>
	<path d="M286.3,631.4h2.4v17.8c0,2.7-0.9,4.8-2.7,6.3c-1.8,1.5-4,2.3-6.5,2.3c-4.3,0-7.3-1.5-8.8-4.5l2.1-1.2
		c1.1,2.2,3.3,3.4,6.6,3.4c2.1,0,3.8-0.6,5-1.7s1.8-2.6,1.8-4.5v-2.9c-1.7,2.7-4.2,4.1-7.5,4.1c-2.6,0-4.9-0.9-6.8-2.8
		c-1.9-1.9-2.8-4.2-2.8-6.9s0.9-5,2.8-6.9c1.9-1.9,4.1-2.8,6.8-2.8c3.3,0,5.8,1.4,7.5,4.1V631.4z M273.8,645.9
		c1.4,1.4,3.1,2.1,5.2,2.1c2,0,3.8-0.7,5.2-2.1c1.4-1.4,2.1-3.2,2.1-5.2s-0.7-3.8-2.1-5.2c-1.4-1.4-3.1-2.1-5.2-2.1
		c-2,0-3.8,0.7-5.2,2.1c-1.4,1.4-2.1,3.2-2.1,5.2S272.4,644.5,273.8,645.9z"/>
	<path d="M302.6,631c2.2,0,4,0.7,5.3,2.1s1.9,3.2,1.9,5.5v11.4h-2.4v-11.4c0-1.7-0.4-2.9-1.3-3.8c-0.9-0.9-2.1-1.4-3.7-1.4
		c-1.8,0-3.2,0.6-4.3,1.7c-1.1,1.1-1.7,2.9-1.7,5.2v9.7h-2.4v-18.5h2.4v2.9C297.7,632.1,299.8,631,302.6,631z"/>
	<path d="M324.2,657.3v-34h2.4v34H324.2z"/>
	<path d="M344.4,647.5h11.8v2.4h-14.4V624h2.6V647.5z"/>
	<path d="M374.1,647.6c-1.9,1.9-4.2,2.8-6.9,2.8c-2.7,0-5-0.9-6.9-2.8c-1.9-1.9-2.8-4.2-2.8-6.9c0-2.7,0.9-5,2.8-6.9
		c1.9-1.9,4.2-2.8,6.9-2.8c2.7,0,5,0.9,6.9,2.8c1.9,1.9,2.8,4.2,2.8,6.9C377,643.4,376,645.7,374.1,647.6z M362,645.9
		c1.4,1.4,3.1,2.1,5.2,2.1c2,0,3.8-0.7,5.2-2.1c1.4-1.4,2.1-3.2,2.1-5.2s-0.7-3.8-2.1-5.2c-1.4-1.4-3.1-2.1-5.2-2.1
		c-2,0-3.8,0.7-5.2,2.1c-1.4,1.4-2.1,3.2-2.1,5.2S360.6,644.5,362,645.9z"/>
	<path d="M396.9,631.4h2.4v17.8c0,2.7-0.9,4.8-2.7,6.3c-1.8,1.5-4,2.3-6.5,2.3c-4.3,0-7.3-1.5-8.8-4.5l2.1-1.2
		c1.1,2.2,3.3,3.4,6.6,3.4c2.1,0,3.8-0.6,5-1.7s1.8-2.6,1.8-4.5v-2.9c-1.7,2.7-4.2,4.1-7.5,4.1c-2.6,0-4.9-0.9-6.8-2.8
		c-1.9-1.9-2.8-4.2-2.8-6.9s0.9-5,2.8-6.9c1.9-1.9,4.1-2.8,6.8-2.8c3.3,0,5.8,1.4,7.5,4.1V631.4z M384.5,645.9
		c1.4,1.4,3.1,2.1,5.2,2.1c2,0,3.8-0.7,5.2-2.1c1.4-1.4,2.1-3.2,2.1-5.2s-0.7-3.8-2.1-5.2c-1.4-1.4-3.1-2.1-5.2-2.1
		c-2,0-3.8,0.7-5.2,2.1c-1.4,1.4-2.1,3.2-2.1,5.2S383.1,644.5,384.5,645.9z"/>
	<path d="M420.1,647.6c-1.9,1.9-4.2,2.8-6.9,2.8c-2.7,0-5-0.9-6.9-2.8c-1.9-1.9-2.8-4.2-2.8-6.9c0-2.7,0.9-5,2.8-6.9
		c1.9-1.9,4.2-2.8,6.9-2.8c2.7,0,5,0.9,6.9,2.8c1.9,1.9,2.8,4.2,2.8,6.9C422.9,643.4,422,645.7,420.1,647.6z M408,645.9
		c1.4,1.4,3.1,2.1,5.2,2.1c2,0,3.8-0.7,5.2-2.1c1.4-1.4,2.1-3.2,2.1-5.2s-0.7-3.8-2.1-5.2c-1.4-1.4-3.1-2.1-5.2-2.1
		c-2,0-3.8,0.7-5.2,2.1c-1.4,1.4-2.1,3.2-2.1,5.2S406.6,644.5,408,645.9z"/>
	<path d="M452.1,631.4h2.4v18.5h-2.4v-3.6c-1.7,2.7-4.2,4.1-7.5,4.1c-2.6,0-4.9-0.9-6.8-2.8c-1.9-1.9-2.8-4.2-2.8-6.9s0.9-5,2.8-6.9
		c1.9-1.9,4.1-2.8,6.8-2.8c3.3,0,5.8,1.4,7.5,4.1V631.4z M439.7,645.9c1.4,1.4,3.1,2.1,5.2,2.1c2,0,3.8-0.7,5.2-2.1
		c1.4-1.4,2.1-3.2,2.1-5.2s-0.7-3.8-2.1-5.2c-1.4-1.4-3.1-2.1-5.2-2.1c-2,0-3.8,0.7-5.2,2.1c-1.4,1.4-2.1,3.2-2.1,5.2
		S438.3,644.5,439.7,645.9z"/>
	<path d="M468.4,631c2.2,0,4,0.7,5.3,2.1s1.9,3.2,1.9,5.5v11.4h-2.4v-11.4c0-1.7-0.4-2.9-1.3-3.8c-0.9-0.9-2.1-1.4-3.7-1.4
		c-1.8,0-3.2,0.6-4.3,1.7c-1.1,1.1-1.7,2.9-1.7,5.2v9.7h-2.4v-18.5h2.4v2.9C463.6,632.1,465.7,631,468.4,631z"/>
	<path d="M496.3,624h2.4v25.9h-2.4v-3.6c-1.7,2.7-4.2,4.1-7.5,4.1c-2.6,0-4.9-0.9-6.8-2.8c-1.9-1.9-2.8-4.2-2.8-6.9s0.9-5,2.8-6.9
		c1.9-1.9,4.1-2.8,6.8-2.8c3.3,0,5.8,1.4,7.5,4.1V624z M483.8,645.9c1.4,1.4,3.1,2.1,5.2,2.1c2,0,3.8-0.7,5.2-2.1
		c1.4-1.4,2.1-3.2,2.1-5.2s-0.7-3.8-2.1-5.2c-1.4-1.4-3.1-2.1-5.2-2.1c-2,0-3.8,0.7-5.2,2.1c-1.4,1.4-2.1,3.2-2.1,5.2
		S482.4,644.5,483.8,645.9z"/>
	<path d="M527.9,636.5c1.3,0.5,2.3,1.4,3,2.5c0.8,1.1,1.1,2.3,1.1,3.8c0,2-0.7,3.7-2.1,5.1c-1.4,1.4-3.1,2.1-5.1,2.1h-11.3V624H524
		c1.9,0,3.6,0.7,4.9,2.1c1.4,1.4,2,3,2,4.9C530.9,633.4,529.9,635.2,527.9,636.5z M524,626.5h-7.8v9h7.8c1.2,0,2.2-0.4,3.1-1.3
		c0.9-0.9,1.3-1.9,1.3-3.2c0-1.2-0.4-2.3-1.3-3.2C526.2,626.9,525.2,626.5,524,626.5z M524.8,647.5c1.3,0,2.4-0.5,3.3-1.4
		c0.9-0.9,1.4-2.1,1.4-3.4c0-1.3-0.5-2.4-1.4-3.4c-0.9-0.9-2-1.4-3.3-1.4h-8.7v9.5H524.8z"/>
	<path d="M538.6,634.5c1.1-2.2,3.1-3.4,5.8-3.4v2.4c-1.7,0-3.1,0.5-4.2,1.5c-1.1,1-1.7,2.5-1.7,4.7v10.3h-2.4v-18.5h2.4V634.5z"/>
	<path d="M562.5,631.4h2.4v18.5h-2.4v-3.6c-1.7,2.7-4.2,4.1-7.5,4.1c-2.6,0-4.9-0.9-6.8-2.8c-1.9-1.9-2.8-4.2-2.8-6.9s0.9-5,2.8-6.9
		c1.9-1.9,4.1-2.8,6.8-2.8c3.3,0,5.8,1.4,7.5,4.1V631.4z M550.1,645.9c1.4,1.4,3.1,2.1,5.2,2.1c2,0,3.8-0.7,5.2-2.1
		c1.4-1.4,2.1-3.2,2.1-5.2s-0.7-3.8-2.1-5.2c-1.4-1.4-3.1-2.1-5.2-2.1c-2,0-3.8,0.7-5.2,2.1c-1.4,1.4-2.1,3.2-2.1,5.2
		S548.7,644.5,550.1,645.9z"/>
	<path d="M578.8,631c2.2,0,4,0.7,5.3,2.1s1.9,3.2,1.9,5.5v11.4h-2.4v-11.4c0-1.7-0.4-2.9-1.3-3.8c-0.9-0.9-2.1-1.4-3.7-1.4
		c-1.8,0-3.2,0.6-4.3,1.7c-1.1,1.1-1.7,2.9-1.7,5.2v9.7h-2.4v-18.5h2.4v2.9C574,632.1,576.1,631,578.8,631z"/>
	<path d="M606.7,624h2.4v25.9h-2.4v-3.6c-1.7,2.7-4.2,4.1-7.5,4.1c-2.6,0-4.9-0.9-6.8-2.8c-1.9-1.9-2.8-4.2-2.8-6.9s0.9-5,2.8-6.9
		c1.9-1.9,4.1-2.8,6.8-2.8c3.3,0,5.8,1.4,7.5,4.1V624z M594.3,645.9c1.4,1.4,3.1,2.1,5.2,2.1c2,0,3.8-0.7,5.2-2.1
		c1.4-1.4,2.1-3.2,2.1-5.2s-0.7-3.8-2.1-5.2c-1.4-1.4-3.1-2.1-5.2-2.1c-2,0-3.8,0.7-5.2,2.1c-1.4,1.4-2.1,3.2-2.1,5.2
		S592.8,644.5,594.3,645.9z"/>
	<path d="M634,624c3.5,0,6.4,1.3,8.8,3.8s3.5,5.6,3.5,9.2s-1.2,6.7-3.5,9.2c-2.3,2.5-5.2,3.8-8.8,3.8h-10V624H634z M634,647.5
		c2.8,0,5.2-1,7-3c1.8-2,2.7-4.5,2.7-7.5s-0.9-5.5-2.7-7.5c-1.8-2-4.1-3-7-3h-7.4v21H634z"/>
	<path d="M658.8,631c2.7,0,5,1,6.6,2.9c1.7,1.9,2.5,4.2,2.5,6.9c0,0.3,0,0.7-0.1,1.1h-16.2c0.2,1.9,1,3.4,2.4,4.5
		c1.3,1.1,3,1.6,5,1.6c1.4,0,2.6-0.3,3.6-0.9c1-0.6,1.8-1.3,2.3-2.3l2.1,1.3c-0.8,1.3-1.9,2.3-3.3,3.1s-3,1.1-4.8,1.1
		c-2.9,0-5.3-0.9-7.1-2.7s-2.7-4.1-2.7-7c0-2.8,0.9-5.1,2.7-6.9C653.6,631.9,655.9,631,658.8,631z M658.8,633.4
		c-1.9,0-3.5,0.6-4.8,1.7c-1.3,1.1-2.1,2.6-2.3,4.5h13.8c-0.2-1.9-1-3.5-2.3-4.6C661.9,633.9,660.5,633.4,658.8,633.4z"/>
	<path d="M673,636.2c0,0.8,0.4,1.5,1.1,2c0.8,0.5,1.7,0.9,2.7,1.2c1.1,0.3,2.1,0.6,3.2,0.9c1.1,0.3,2,0.9,2.7,1.6
		c0.7,0.8,1.1,1.8,1.1,3.1c0,1.6-0.6,2.9-1.9,3.8s-2.9,1.5-4.8,1.5c-1.8,0-3.3-0.4-4.5-1.2c-1.2-0.8-2.1-1.8-2.6-3.1l2.1-1.2
		c0.3,1,1,1.7,1.9,2.3c0.9,0.6,2,0.8,3.2,0.8c1.2,0,2.2-0.2,3-0.7c0.8-0.5,1.2-1.2,1.2-2.2c0-0.8-0.4-1.5-1.1-2
		c-0.7-0.5-1.6-0.9-2.7-1.2s-2.1-0.6-3.2-0.9c-1.1-0.3-2-0.8-2.7-1.6c-0.7-0.8-1.1-1.8-1.1-3.1c0-1.5,0.6-2.8,1.8-3.8
		s2.7-1.5,4.5-1.5c1.5,0,2.8,0.3,4,1c1.1,0.7,2,1.6,2.5,2.8l-2,1.2c-0.7-1.7-2.2-2.6-4.4-2.6c-1.1,0-2,0.2-2.7,0.7
		C673.4,634.6,673,635.3,673,636.2z"/>
	<path d="M690.2,627c-0.3,0.3-0.8,0.5-1.3,0.5s-0.9-0.2-1.3-0.5c-0.3-0.3-0.5-0.8-0.5-1.3c0-0.5,0.2-0.9,0.5-1.3s0.8-0.5,1.3-0.5
		s0.9,0.2,1.3,0.5c0.3,0.3,0.5,0.8,0.5,1.3C690.7,626.2,690.5,626.6,690.2,627z M687.7,649.9v-18.5h2.4v18.5H687.7z"/>
	<path d="M711.2,631.4h2.4v17.8c0,2.7-0.9,4.8-2.7,6.3c-1.8,1.5-4,2.3-6.5,2.3c-4.3,0-7.3-1.5-8.8-4.5l2.1-1.2
		c1.1,2.2,3.3,3.4,6.6,3.4c2.1,0,3.8-0.6,5-1.7c1.2-1.1,1.8-2.6,1.8-4.5v-2.9c-1.7,2.7-4.2,4.1-7.5,4.1c-2.6,0-4.9-0.9-6.8-2.8
		c-1.9-1.9-2.8-4.2-2.8-6.9s0.9-5,2.8-6.9c1.9-1.9,4.1-2.8,6.8-2.8c3.3,0,5.8,1.4,7.5,4.1V631.4z M698.8,645.9
		c1.4,1.4,3.1,2.1,5.2,2.1c2,0,3.8-0.7,5.2-2.1c1.4-1.4,2.1-3.2,2.1-5.2s-0.7-3.8-2.1-5.2c-1.4-1.4-3.1-2.1-5.2-2.1
		c-2,0-3.8,0.7-5.2,2.1c-1.4,1.4-2.1,3.2-2.1,5.2S697.4,644.5,698.8,645.9z"/>
	<path d="M727.5,631c2.2,0,4,0.7,5.3,2.1s1.9,3.2,1.9,5.5v11.4h-2.4v-11.4c0-1.7-0.4-2.9-1.3-3.8c-0.9-0.9-2.1-1.4-3.7-1.4
		c-1.8,0-3.2,0.6-4.3,1.7c-1.1,1.1-1.7,2.9-1.7,5.2v9.7h-2.4v-18.5h2.4v2.9C722.7,632.1,724.8,631,727.5,631z"/>
	<path d="M749.1,657.3v-34h2.4v34H749.1z"/>
	<path d="M773.7,649.9l-9.5-25.9h2.8l8.1,22.4l8.1-22.4h2.8l-9.5,25.9H773.7z"/>
	<path d="M790.6,627c-0.3,0.3-0.8,0.5-1.3,0.5s-0.9-0.2-1.3-0.5c-0.3-0.3-0.5-0.8-0.5-1.3c0-0.5,0.2-0.9,0.5-1.3s0.8-0.5,1.3-0.5
		s0.9,0.2,1.3,0.5c0.3,0.3,0.5,0.8,0.5,1.3C791.1,626.2,791,626.6,790.6,627z M788.1,649.9v-18.5h2.4v18.5H788.1z"/>
	<path d="M811.7,624h2.4v25.9h-2.4v-3.6c-1.7,2.7-4.2,4.1-7.5,4.1c-2.6,0-4.9-0.9-6.8-2.8c-1.9-1.9-2.8-4.2-2.8-6.9s0.9-5,2.8-6.9
		c1.9-1.9,4.1-2.8,6.8-2.8c3.3,0,5.8,1.4,7.5,4.1V624z M799.2,645.9c1.4,1.4,3.1,2.1,5.2,2.1c2,0,3.8-0.7,5.2-2.1
		c1.4-1.4,2.1-3.2,2.1-5.2s-0.7-3.8-2.1-5.2c-1.4-1.4-3.1-2.1-5.2-2.1c-2,0-3.8,0.7-5.2,2.1c-1.4,1.4-2.1,3.2-2.1,5.2
		S797.8,644.5,799.2,645.9z"/>
	<path d="M827.8,631c2.7,0,5,1,6.6,2.9c1.7,1.9,2.5,4.2,2.5,6.9c0,0.3,0,0.7-0.1,1.1h-16.2c0.2,1.9,1,3.4,2.4,4.5
		c1.3,1.1,3,1.6,5,1.6c1.4,0,2.6-0.3,3.6-0.9c1-0.6,1.8-1.3,2.3-2.3l2.1,1.3c-0.8,1.3-1.9,2.3-3.3,3.1s-3,1.1-4.8,1.1
		c-2.9,0-5.3-0.9-7.1-2.7s-2.7-4.1-2.7-7c0-2.8,0.9-5.1,2.7-6.9C822.7,631.9,825,631,827.8,631z M827.8,633.4
		c-1.9,0-3.5,0.6-4.8,1.7c-1.3,1.1-2.1,2.6-2.3,4.5h13.8c-0.2-1.9-1-3.5-2.3-4.6C831,633.9,829.5,633.4,827.8,633.4z"/>
	<path d="M856.4,647.6c-1.9,1.9-4.2,2.8-6.9,2.8c-2.7,0-5-0.9-6.9-2.8s-2.8-4.2-2.8-6.9c0-2.7,0.9-5,2.8-6.9s4.2-2.8,6.9-2.8
		c2.7,0,5,0.9,6.9,2.8s2.8,4.2,2.8,6.9C859.2,643.4,858.3,645.7,856.4,647.6z M844.3,645.9c1.4,1.4,3.1,2.1,5.2,2.1
		c2,0,3.8-0.7,5.2-2.1c1.4-1.4,2.1-3.2,2.1-5.2s-0.7-3.8-2.1-5.2c-1.4-1.4-3.1-2.1-5.2-2.1c-2,0-3.8,0.7-5.2,2.1
		c-1.4,1.4-2.1,3.2-2.1,5.2S842.9,644.5,844.3,645.9z"/>
	<path d="M875.5,647.5h12.6v2.4h-15.2V624h15v2.4h-12.4v9.2H887v2.4h-11.5V647.5z"/>
	<path d="M907.7,624h2.4v25.9h-2.4v-3.6c-1.7,2.7-4.2,4.1-7.5,4.1c-2.6,0-4.9-0.9-6.8-2.8c-1.9-1.9-2.8-4.2-2.8-6.9s0.9-5,2.8-6.9
		c1.9-1.9,4.1-2.8,6.8-2.8c3.3,0,5.8,1.4,7.5,4.1V624z M895.2,645.9c1.4,1.4,3.1,2.1,5.2,2.1c2,0,3.8-0.7,5.2-2.1
		c1.4-1.4,2.1-3.2,2.1-5.2s-0.7-3.8-2.1-5.2c-1.4-1.4-3.1-2.1-5.2-2.1c-2,0-3.8,0.7-5.2,2.1c-1.4,1.4-2.1,3.2-2.1,5.2
		S893.8,644.5,895.2,645.9z"/>
	<path d="M917.8,627c-0.3,0.3-0.8,0.5-1.3,0.5s-0.9-0.2-1.3-0.5c-0.3-0.3-0.5-0.8-0.5-1.3c0-0.5,0.2-0.9,0.5-1.3s0.8-0.5,1.3-0.5
		s0.9,0.2,1.3,0.5c0.3,0.3,0.5,0.8,0.5,1.3C918.3,626.2,918.2,626.6,917.8,627z M915.3,649.9v-18.5h2.4v18.5H915.3z"/>
	<path d="M932.8,633.8h-5.3V645c0,1,0.2,1.7,0.6,2.2c0.4,0.4,1,0.7,1.8,0.7c0.8,0,1.8,0,3-0.1v2.1c-2.6,0.4-4.5,0.2-5.8-0.6
		c-1.3-0.8-1.9-2.2-1.9-4.4v-11.2h-3.9v-2.4h3.9V627l2.4-0.7v5.2h5.3V633.8z"/>
	<path d="M939.3,627c-0.3,0.3-0.8,0.5-1.3,0.5s-0.9-0.2-1.3-0.5c-0.3-0.3-0.5-0.8-0.5-1.3c0-0.5,0.2-0.9,0.5-1.3s0.8-0.5,1.3-0.5
		s0.9,0.2,1.3,0.5c0.3,0.3,0.5,0.8,0.5,1.3C939.8,626.2,939.7,626.6,939.3,627z M936.8,649.9v-18.5h2.4v18.5H936.8z"/>
	<path d="M953.1,631c2.2,0,4,0.7,5.3,2.1s1.9,3.2,1.9,5.5v11.4h-2.4v-11.4c0-1.7-0.4-2.9-1.3-3.8c-0.9-0.9-2.1-1.4-3.7-1.4
		c-1.8,0-3.2,0.6-4.3,1.7c-1.1,1.1-1.7,2.9-1.7,5.2v9.7h-2.4v-18.5h2.4v2.9C948.3,632.1,950.4,631,953.1,631z"/>
	<path d="M981,631.4h2.4v17.8c0,2.7-0.9,4.8-2.7,6.3c-1.8,1.5-4,2.3-6.5,2.3c-4.3,0-7.3-1.5-8.8-4.5l2.1-1.2
		c1.1,2.2,3.3,3.4,6.6,3.4c2.1,0,3.8-0.6,5-1.7c1.2-1.1,1.8-2.6,1.8-4.5v-2.9c-1.7,2.7-4.2,4.1-7.5,4.1c-2.6,0-4.9-0.9-6.8-2.8
		c-1.9-1.9-2.8-4.2-2.8-6.9s0.9-5,2.8-6.9c1.9-1.9,4.1-2.8,6.8-2.8c3.3,0,5.8,1.4,7.5,4.1V631.4z M968.5,645.9
		c1.4,1.4,3.1,2.1,5.2,2.1c2,0,3.8-0.7,5.2-2.1c1.4-1.4,2.1-3.2,2.1-5.2s-0.7-3.8-2.1-5.2c-1.4-1.4-3.1-2.1-5.2-2.1
		c-2,0-3.8,0.7-5.2,2.1c-1.4,1.4-2.1,3.2-2.1,5.2S967.1,644.5,968.5,645.9z"/>
	<path d="M100.9,679c2.3,0,4.3,0.8,5.8,2.3s2.3,3.5,2.3,5.8s-0.8,4.3-2.3,5.8s-3.5,2.3-5.8,2.3h-6.7v9.6h-2.6V679H100.9z
		 M100.9,692.9c1.6,0,2.9-0.5,4-1.6c1-1.1,1.6-2.4,1.6-4.1s-0.5-3-1.6-4.1c-1-1.1-2.4-1.6-4-1.6h-6.7v11.4H100.9z"/>
	<path d="M127.2,702.6c-1.9,1.9-4.2,2.8-6.9,2.8c-2.7,0-5-0.9-6.9-2.8c-1.9-1.9-2.8-4.2-2.8-6.9c0-2.7,0.9-5,2.8-6.9
		c1.9-1.9,4.2-2.8,6.9-2.8c2.7,0,5,0.9,6.9,2.8c1.9,1.9,2.8,4.2,2.8,6.9C130,698.4,129.1,700.7,127.2,702.6z M115.1,700.9
		c1.4,1.4,3.1,2.1,5.2,2.1c2,0,3.8-0.7,5.2-2.1c1.4-1.4,2.1-3.2,2.1-5.2s-0.7-3.8-2.1-5.2c-1.4-1.4-3.1-2.1-5.2-2.1
		c-2,0-3.8,0.7-5.2,2.1c-1.4,1.4-2.1,3.2-2.1,5.2S113.7,699.5,115.1,700.9z"/>
	<path d="M135.6,691.2c0,0.8,0.4,1.5,1.1,2c0.7,0.5,1.7,0.9,2.7,1.2c1.1,0.3,2.1,0.6,3.2,0.9c1.1,0.3,2,0.9,2.7,1.6
		c0.7,0.8,1.1,1.8,1.1,3.1c0,1.6-0.6,2.9-1.9,3.8c-1.2,1-2.9,1.5-4.8,1.5c-1.8,0-3.3-0.4-4.5-1.2s-2.1-1.8-2.6-3.1l2.1-1.2
		c0.3,1,1,1.7,1.9,2.3s2,0.8,3.2,0.8c1.2,0,2.2-0.2,3-0.7c0.8-0.5,1.2-1.2,1.2-2.2c0-0.8-0.4-1.5-1.1-2c-0.7-0.5-1.6-0.9-2.7-1.2
		c-1.1-0.3-2.1-0.6-3.2-0.9c-1.1-0.3-2-0.8-2.7-1.6c-0.7-0.8-1.1-1.8-1.1-3.1c0-1.5,0.6-2.8,1.8-3.8c1.2-1,2.7-1.5,4.5-1.5
		c1.5,0,2.8,0.3,4,1c1.1,0.7,2,1.6,2.5,2.8l-2,1.2c-0.7-1.7-2.2-2.6-4.4-2.6c-1.1,0-2,0.2-2.7,0.7
		C136,689.6,135.6,690.3,135.6,691.2z"/>
	<path d="M159.6,688.8h-5.3V700c0,1,0.2,1.7,0.6,2.2c0.4,0.4,1,0.7,1.8,0.7c0.8,0,1.8,0,3-0.1v2.1c-2.6,0.4-4.5,0.2-5.8-0.6
		c-1.3-0.8-1.9-2.2-1.9-4.4v-11.2h-3.9v-2.4h3.9V682l2.4-0.7v5.2h5.3V688.8z"/>
	<path d="M171.1,686c2.7,0,5,1,6.6,2.9c1.7,1.9,2.5,4.2,2.5,6.9c0,0.3,0,0.7-0.1,1.1H164c0.2,1.9,1,3.4,2.4,4.5c1.3,1.1,3,1.6,5,1.6
		c1.4,0,2.6-0.3,3.6-0.9c1-0.6,1.8-1.3,2.3-2.3l2.1,1.3c-0.8,1.3-1.9,2.3-3.3,3.1c-1.4,0.8-3,1.1-4.8,1.1c-2.9,0-5.3-0.9-7.1-2.7
		c-1.8-1.8-2.7-4.1-2.7-7c0-2.8,0.9-5.1,2.7-6.9C165.9,686.9,168.3,686,171.1,686z M171.1,688.4c-1.9,0-3.5,0.6-4.8,1.7
		c-1.3,1.1-2.1,2.6-2.3,4.5h13.8c-0.2-1.9-1-3.5-2.3-4.6C174.2,688.9,172.8,688.4,171.1,688.4z"/>
	<path d="M186.6,689.5c1.1-2.2,3.1-3.4,5.8-3.4v2.4c-1.7,0-3.1,0.5-4.2,1.5c-1.1,1-1.7,2.5-1.7,4.7v10.3h-2.4v-18.5h2.4V689.5z"/>
	<path d="M197,691.2c0,0.8,0.4,1.5,1.1,2c0.7,0.5,1.7,0.9,2.7,1.2c1.1,0.3,2.1,0.6,3.2,0.9c1.1,0.3,2,0.9,2.7,1.6
		c0.7,0.8,1.1,1.8,1.1,3.1c0,1.6-0.6,2.9-1.9,3.8c-1.2,1-2.9,1.5-4.8,1.5c-1.8,0-3.3-0.4-4.5-1.2s-2.1-1.8-2.6-3.1l2.1-1.2
		c0.3,1,1,1.7,1.9,2.3s2,0.8,3.2,0.8c1.2,0,2.2-0.2,3-0.7c0.8-0.5,1.2-1.2,1.2-2.2c0-0.8-0.4-1.5-1.1-2c-0.7-0.5-1.6-0.9-2.7-1.2
		c-1.1-0.3-2.1-0.6-3.2-0.9c-1.1-0.3-2-0.8-2.7-1.6c-0.7-0.8-1.1-1.8-1.1-3.1c0-1.5,0.6-2.8,1.8-3.8c1.2-1,2.7-1.5,4.5-1.5
		c1.5,0,2.8,0.3,4,1c1.1,0.7,2,1.6,2.5,2.8l-2,1.2c-0.7-1.7-2.2-2.6-4.4-2.6c-1.1,0-2,0.2-2.7,0.7C197.3,689.6,197,690.3,197,691.2z
		"/>
	<path d="M237,686.4h2.4v18.5H237v-3.6c-1.7,2.7-4.2,4.1-7.5,4.1c-2.6,0-4.9-0.9-6.8-2.8c-1.9-1.9-2.8-4.2-2.8-6.9s0.9-5,2.8-6.9
		c1.9-1.9,4.1-2.8,6.8-2.8c3.3,0,5.8,1.4,7.5,4.1V686.4z M224.5,700.9c1.4,1.4,3.1,2.1,5.2,2.1c2,0,3.8-0.7,5.2-2.1
		c1.4-1.4,2.1-3.2,2.1-5.2s-0.7-3.8-2.1-5.2c-1.4-1.4-3.1-2.1-5.2-2.1c-2,0-3.8,0.7-5.2,2.1c-1.4,1.4-2.1,3.2-2.1,5.2
		S223.1,699.5,224.5,700.9z"/>
	<path d="M253.3,686c2.2,0,4,0.7,5.3,2.1s1.9,3.2,1.9,5.5v11.4h-2.4v-11.4c0-1.7-0.4-2.9-1.3-3.8c-0.9-0.9-2.1-1.4-3.7-1.4
		c-1.8,0-3.2,0.6-4.3,1.7c-1.1,1.1-1.7,2.9-1.7,5.2v9.7h-2.4v-18.5h2.4v2.9C248.4,687.1,250.5,686,253.3,686z"/>
	<path d="M281.2,679h2.4v25.9h-2.4v-3.6c-1.7,2.7-4.2,4.1-7.5,4.1c-2.6,0-4.9-0.9-6.8-2.8c-1.9-1.9-2.8-4.2-2.8-6.9s0.9-5,2.8-6.9
		c1.9-1.9,4.1-2.8,6.8-2.8c3.3,0,5.8,1.4,7.5,4.1V679z M268.7,700.9c1.4,1.4,3.1,2.1,5.2,2.1c2,0,3.8-0.7,5.2-2.1
		c1.4-1.4,2.1-3.2,2.1-5.2s-0.7-3.8-2.1-5.2c-1.4-1.4-3.1-2.1-5.2-2.1c-2,0-3.8,0.7-5.2,2.1c-1.4,1.4-2.1,3.2-2.1,5.2
		S267.3,699.5,268.7,700.9z"/>
	<path d="M313,681.5h-12v9.5h11.5v2.4H301v11.5h-2.6V679H313V681.5z"/>
	<path d="M317.1,704.9v-27h2.4v27H317.1z"/>
	<path d="M338,686.4h2.6l-7.9,20.2c-0.7,1.8-1.7,3.3-3.1,4.3c-1.3,1-2.8,1.5-4.4,1.4V710c2.2,0.2,3.9-1,5.1-3.9l0.5-1.2l-8.3-18.6
		h2.6l6.9,15.4L338,686.4z"/>
	<path d="M351.4,686c2.7,0,5,1,6.6,2.9c1.7,1.9,2.5,4.2,2.5,6.9c0,0.3,0,0.7-0.1,1.1h-16.2c0.2,1.9,1,3.4,2.4,4.5
		c1.3,1.1,3,1.6,5,1.6c1.4,0,2.6-0.3,3.6-0.9c1-0.6,1.8-1.3,2.3-2.3l2.1,1.3c-0.8,1.3-1.9,2.3-3.3,3.1c-1.4,0.8-3,1.1-4.8,1.1
		c-2.9,0-5.3-0.9-7.1-2.7c-1.8-1.8-2.7-4.1-2.7-7c0-2.8,0.9-5.1,2.7-6.9C346.2,686.9,348.6,686,351.4,686z M351.4,688.4
		c-1.9,0-3.5,0.6-4.8,1.7c-1.3,1.1-2.1,2.6-2.3,4.5h13.8c-0.2-1.9-1-3.5-2.3-4.6C354.5,688.9,353.1,688.4,351.4,688.4z"/>
	<path d="M366.9,689.5c1.1-2.2,3.1-3.4,5.8-3.4v2.4c-1.7,0-3.1,0.5-4.2,1.5c-1.1,1-1.7,2.5-1.7,4.7v10.3h-2.4v-18.5h2.4V689.5z"/>
	<path d="M377.3,691.2c0,0.8,0.4,1.5,1.1,2c0.7,0.5,1.7,0.9,2.7,1.2c1.1,0.3,2.1,0.6,3.2,0.9c1.1,0.3,2,0.9,2.7,1.6
		c0.7,0.8,1.1,1.8,1.1,3.1c0,1.6-0.6,2.9-1.9,3.8c-1.2,1-2.9,1.5-4.8,1.5c-1.8,0-3.3-0.4-4.5-1.2s-2.1-1.8-2.6-3.1l2.1-1.2
		c0.3,1,1,1.7,1.9,2.3s2,0.8,3.2,0.8c1.2,0,2.2-0.2,3-0.7c0.8-0.5,1.2-1.2,1.2-2.2c0-0.8-0.4-1.5-1.1-2c-0.7-0.5-1.6-0.9-2.7-1.2
		c-1.1-0.3-2.1-0.6-3.2-0.9c-1.1-0.3-2-0.8-2.7-1.6c-0.7-0.8-1.1-1.8-1.1-3.1c0-1.5,0.6-2.8,1.8-3.8c1.2-1,2.7-1.5,4.5-1.5
		c1.5,0,2.8,0.3,4,1c1.1,0.7,2,1.6,2.5,2.8l-2,1.2c-0.7-1.7-2.2-2.6-4.4-2.6c-1.1,0-2,0.2-2.7,0.7
		C377.6,689.6,377.3,690.3,377.3,691.2z"/>
	<path d="M425.4,679v25.9h-2.6v-22l-9.1,15.2h-0.4l-9.1-15.2v22h-2.6V679h3.2l8.7,14.5l8.7-14.5H425.4z"/>
	<path d="M446.5,702.6c-1.9,1.9-4.2,2.8-6.9,2.8c-2.7,0-5-0.9-6.9-2.8c-1.9-1.9-2.8-4.2-2.8-6.9c0-2.7,0.9-5,2.8-6.9
		c1.9-1.9,4.2-2.8,6.9-2.8c2.7,0,5,0.9,6.9,2.8c1.9,1.9,2.8,4.2,2.8,6.9C449.3,698.4,448.4,700.7,446.5,702.6z M434.4,700.9
		c1.4,1.4,3.1,2.1,5.2,2.1c2,0,3.8-0.7,5.2-2.1c1.4-1.4,2.1-3.2,2.1-5.2s-0.7-3.8-2.1-5.2c-1.4-1.4-3.1-2.1-5.2-2.1
		c-2,0-3.8,0.7-5.2,2.1c-1.4,1.4-2.1,3.2-2.1,5.2S433,699.5,434.4,700.9z"/>
	<path d="M462.8,688.8h-5.3V700c0,1,0.2,1.7,0.6,2.2c0.4,0.4,1,0.7,1.8,0.7c0.8,0,1.8,0,3-0.1v2.1c-2.6,0.4-4.5,0.2-5.8-0.6
		c-1.3-0.8-1.9-2.2-1.9-4.4v-11.2h-3.9v-2.4h3.9V682l2.4-0.7v5.2h5.3V688.8z"/>
	<path d="M469.4,682c-0.3,0.3-0.8,0.5-1.3,0.5c-0.5,0-0.9-0.2-1.3-0.5c-0.3-0.3-0.5-0.8-0.5-1.3c0-0.5,0.2-0.9,0.5-1.3
		c0.3-0.3,0.8-0.5,1.3-0.5c0.5,0,0.9,0.2,1.3,0.5c0.3,0.3,0.5,0.8,0.5,1.3C469.9,681.2,469.7,681.6,469.4,682z M466.9,704.9v-18.5
		h2.4v18.5H466.9z"/>
	<path d="M490,702.6c-1.9,1.9-4.2,2.8-6.9,2.8c-2.7,0-5-0.9-6.9-2.8c-1.9-1.9-2.8-4.2-2.8-6.9c0-2.7,0.9-5,2.8-6.9
		c1.9-1.9,4.2-2.8,6.9-2.8c2.7,0,5,0.9,6.9,2.8c1.9,1.9,2.8,4.2,2.8,6.9C492.9,698.4,491.9,700.7,490,702.6z M478,700.9
		c1.4,1.4,3.1,2.1,5.2,2.1c2,0,3.8-0.7,5.2-2.1c1.4-1.4,2.1-3.2,2.1-5.2s-0.7-3.8-2.1-5.2c-1.4-1.4-3.1-2.1-5.2-2.1
		c-2,0-3.8,0.7-5.2,2.1c-1.4,1.4-2.1,3.2-2.1,5.2S476.6,699.5,478,700.9z"/>
	<path d="M505.6,686c2.2,0,4,0.7,5.3,2.1s1.9,3.2,1.9,5.5v11.4h-2.4v-11.4c0-1.7-0.4-2.9-1.3-3.8c-0.9-0.9-2.1-1.4-3.7-1.4
		c-1.8,0-3.2,0.6-4.3,1.7c-1.1,1.1-1.7,2.9-1.7,5.2v9.7h-2.4v-18.5h2.4v2.9C500.8,687.1,502.8,686,505.6,686z"/>
	<path d="M552,692.6v1.3c0,3.2-1.1,5.9-3.4,8.1c-2.3,2.2-5.4,3.3-9.2,3.3c-3.9,0-7.2-1.3-9.7-3.9c-2.6-2.6-3.8-5.8-3.8-9.5
		c0-3.7,1.3-6.9,3.8-9.5c2.6-2.6,5.8-3.9,9.7-3.9c2.4,0,4.6,0.6,6.6,1.7c2,1.2,3.5,2.7,4.6,4.6l-2.3,1.3c-0.8-1.6-2-2.8-3.6-3.8
		s-3.4-1.4-5.3-1.4c-3.2,0-5.9,1-7.9,3.1c-2,2.1-3.1,4.7-3.1,7.7s1,5.6,3.1,7.7c2,2.1,4.7,3.1,7.9,3.1c2.9,0,5.2-0.7,7-2.2
		c1.8-1.5,2.8-3.3,3-5.6H539v-2.4H552z"/>
	<path d="M558.5,689.5c1.1-2.2,3.1-3.4,5.8-3.4v2.4c-1.7,0-3.1,0.5-4.2,1.5c-1.1,1-1.7,2.5-1.7,4.7v10.3H556v-18.5h2.4V689.5z"/>
	<path d="M582.5,686.4h2.4v18.5h-2.4v-3.6c-1.7,2.7-4.2,4.1-7.5,4.1c-2.6,0-4.9-0.9-6.8-2.8c-1.9-1.9-2.8-4.2-2.8-6.9s0.9-5,2.8-6.9
		c1.9-1.9,4.1-2.8,6.8-2.8c3.3,0,5.8,1.4,7.5,4.1V686.4z M570,700.9c1.4,1.4,3.1,2.1,5.2,2.1c2,0,3.8-0.7,5.2-2.1
		c1.4-1.4,2.1-3.2,2.1-5.2s-0.7-3.8-2.1-5.2c-1.4-1.4-3.1-2.1-5.2-2.1c-2,0-3.8,0.7-5.2,2.1c-1.4,1.4-2.1,3.2-2.1,5.2
		S568.6,699.5,570,700.9z"/>
	<path d="M600,686c2.6,0,4.9,0.9,6.8,2.8c1.9,1.9,2.8,4.2,2.8,6.9s-0.9,5-2.8,6.9c-1.9,1.9-4.1,2.8-6.8,2.8c-3.3,0-5.8-1.4-7.5-4.1
		v11h-2.4v-25.9h2.4v3.6C594.2,687.3,596.7,686,600,686z M594.6,700.9c1.4,1.4,3.1,2.1,5.2,2.1c2,0,3.8-0.7,5.2-2.1
		c1.4-1.4,2.1-3.2,2.1-5.2s-0.7-3.8-2.1-5.2c-1.4-1.4-3.1-2.1-5.2-2.1c-2,0-3.8,0.7-5.2,2.1c-1.4,1.4-2.1,3.2-2.1,5.2
		S593.2,699.5,594.6,700.9z"/>
	<path d="M622.3,686c2.2,0,4,0.7,5.3,2.1s1.9,3.2,1.9,5.5v11.4h-2.4v-11.4c0-1.7-0.4-2.9-1.3-3.8c-0.9-0.9-2.1-1.4-3.7-1.4
		c-1.8,0-3.2,0.6-4.3,1.7c-1.1,1.1-1.7,2.9-1.7,5.2v9.7h-2.4V679h2.4v10.3C617.4,687.1,619.5,686,622.3,686z"/>
	<path d="M636.7,682c-0.3,0.3-0.8,0.5-1.3,0.5s-0.9-0.2-1.3-0.5c-0.3-0.3-0.5-0.8-0.5-1.3c0-0.5,0.2-0.9,0.5-1.3s0.8-0.5,1.3-0.5
		s0.9,0.2,1.3,0.5c0.3,0.3,0.5,0.8,0.5,1.3C637.2,681.2,637.1,681.6,636.7,682z M634.3,704.9v-18.5h2.4v18.5H634.3z"/>
	<path d="M650.5,705.4c-2.8,0-5.1-0.9-7-2.8c-1.8-1.9-2.8-4.2-2.8-6.9c0-2.7,0.9-5,2.8-6.9c1.9-1.9,4.2-2.8,7-2.8
		c1.8,0,3.5,0.4,4.9,1.3c1.5,0.9,2.5,2.1,3.2,3.5l-2,1.1c-0.5-1.1-1.3-2-2.4-2.6c-1.1-0.7-2.3-1-3.7-1c-2,0-3.8,0.7-5.2,2.1
		c-1.4,1.4-2.1,3.2-2.1,5.2s0.7,3.8,2.1,5.2c1.4,1.4,3.1,2.1,5.2,2.1c1.4,0,2.6-0.3,3.7-1c1.1-0.7,1.9-1.5,2.6-2.6l2,1.2
		c-0.8,1.5-1.9,2.7-3.4,3.5C653.9,704.9,652.3,705.4,650.5,705.4z"/>
	<path d="M664,691.2c0,0.8,0.4,1.5,1.1,2c0.8,0.5,1.7,0.9,2.7,1.2c1.1,0.3,2.1,0.6,3.2,0.9c1.1,0.3,2,0.9,2.7,1.6
		c0.7,0.8,1.1,1.8,1.1,3.1c0,1.6-0.6,2.9-1.9,3.8s-2.9,1.5-4.8,1.5c-1.8,0-3.3-0.4-4.5-1.2c-1.2-0.8-2.1-1.8-2.6-3.1l2.1-1.2
		c0.3,1,1,1.7,1.9,2.3c0.9,0.6,2,0.8,3.2,0.8c1.2,0,2.2-0.2,3-0.7c0.8-0.5,1.2-1.2,1.2-2.2c0-0.8-0.4-1.5-1.1-2
		c-0.7-0.5-1.6-0.9-2.7-1.2s-2.1-0.6-3.2-0.9c-1.1-0.3-2-0.8-2.7-1.6c-0.7-0.8-1.1-1.8-1.1-3.1c0-1.5,0.6-2.8,1.8-3.8
		s2.7-1.5,4.5-1.5c1.5,0,2.8,0.3,4,1c1.1,0.7,2,1.6,2.5,2.8l-2,1.2c-0.7-1.7-2.2-2.6-4.4-2.6c-1.1,0-2,0.2-2.7,0.7
		C664.4,689.6,664,690.3,664,691.2z"/>
	<path d="M688.5,712.3v-34h2.4v34H688.5z"/>
	<path d="M713.1,704.9l-9.5-25.9h2.8l8.1,22.4l8.1-22.4h2.8l-9.5,25.9H713.1z"/>
	<path d="M730,682c-0.3,0.3-0.8,0.5-1.3,0.5s-0.9-0.2-1.3-0.5c-0.3-0.3-0.5-0.8-0.5-1.3c0-0.5,0.2-0.9,0.5-1.3s0.8-0.5,1.3-0.5
		s0.9,0.2,1.3,0.5c0.3,0.3,0.5,0.8,0.5,1.3C730.5,681.2,730.4,681.6,730,682z M727.5,704.9v-18.5h2.4v18.5H727.5z"/>
	<path d="M751.1,679h2.4v25.9h-2.4v-3.6c-1.7,2.7-4.2,4.1-7.5,4.1c-2.6,0-4.9-0.9-6.8-2.8c-1.9-1.9-2.8-4.2-2.8-6.9s0.9-5,2.8-6.9
		c1.9-1.9,4.1-2.8,6.8-2.8c3.3,0,5.8,1.4,7.5,4.1V679z M738.6,700.9c1.4,1.4,3.1,2.1,5.2,2.1c2,0,3.8-0.7,5.2-2.1
		c1.4-1.4,2.1-3.2,2.1-5.2s-0.7-3.8-2.1-5.2c-1.4-1.4-3.1-2.1-5.2-2.1c-2,0-3.8,0.7-5.2,2.1c-1.4,1.4-2.1,3.2-2.1,5.2
		S737.2,699.5,738.6,700.9z"/>
	<path d="M767.2,686c2.7,0,5,1,6.6,2.9c1.7,1.9,2.5,4.2,2.5,6.9c0,0.3,0,0.7-0.1,1.1h-16.2c0.2,1.9,1,3.4,2.4,4.5
		c1.3,1.1,3,1.6,5,1.6c1.4,0,2.6-0.3,3.6-0.9c1-0.6,1.8-1.3,2.3-2.3l2.1,1.3c-0.8,1.3-1.9,2.3-3.3,3.1s-3,1.1-4.8,1.1
		c-2.9,0-5.3-0.9-7.1-2.7s-2.7-4.1-2.7-7c0-2.8,0.9-5.1,2.7-6.9C762.1,686.9,764.4,686,767.2,686z M767.2,688.4
		c-1.9,0-3.5,0.6-4.8,1.7c-1.3,1.1-2.1,2.6-2.3,4.5h13.8c-0.2-1.9-1-3.5-2.3-4.6C770.4,688.9,768.9,688.4,767.2,688.4z"/>
	<path d="M795.8,702.6c-1.9,1.9-4.2,2.8-6.9,2.8c-2.7,0-5-0.9-6.9-2.8s-2.8-4.2-2.8-6.9c0-2.7,0.9-5,2.8-6.9s4.2-2.8,6.9-2.8
		c2.7,0,5,0.9,6.9,2.8s2.8,4.2,2.8,6.9C798.6,698.4,797.7,700.7,795.8,702.6z M783.7,700.9c1.4,1.4,3.1,2.1,5.2,2.1
		c2,0,3.8-0.7,5.2-2.1c1.4-1.4,2.1-3.2,2.1-5.2s-0.7-3.8-2.1-5.2c-1.4-1.4-3.1-2.1-5.2-2.1c-2,0-3.8,0.7-5.2,2.1
		c-1.4,1.4-2.1,3.2-2.1,5.2S782.3,699.5,783.7,700.9z"/>
	<path d="M814.9,702.5h12.6v2.4h-15.2V679h15v2.4h-12.4v9.2h11.5v2.4h-11.5V702.5z"/>
	<path d="M847.1,679h2.4v25.9h-2.4v-3.6c-1.7,2.7-4.2,4.1-7.5,4.1c-2.6,0-4.9-0.9-6.8-2.8c-1.9-1.9-2.8-4.2-2.8-6.9s0.9-5,2.8-6.9
		c1.9-1.9,4.1-2.8,6.8-2.8c3.3,0,5.8,1.4,7.5,4.1V679z M834.6,700.9c1.4,1.4,3.1,2.1,5.2,2.1c2,0,3.8-0.7,5.2-2.1
		c1.4-1.4,2.1-3.2,2.1-5.2s-0.7-3.8-2.1-5.2c-1.4-1.4-3.1-2.1-5.2-2.1c-2,0-3.8,0.7-5.2,2.1c-1.4,1.4-2.1,3.2-2.1,5.2
		S833.2,699.5,834.6,700.9z"/>
	<path d="M857.2,682c-0.3,0.3-0.8,0.5-1.3,0.5s-0.9-0.2-1.3-0.5c-0.3-0.3-0.5-0.8-0.5-1.3c0-0.5,0.2-0.9,0.5-1.3s0.8-0.5,1.3-0.5
		s0.9,0.2,1.3,0.5c0.3,0.3,0.5,0.8,0.5,1.3C857.7,681.2,857.6,681.6,857.2,682z M854.7,704.9v-18.5h2.4v18.5H854.7z"/>
	<path d="M872.2,688.8h-5.3V700c0,1,0.2,1.7,0.6,2.2c0.4,0.4,1,0.7,1.8,0.7c0.8,0,1.8,0,3-0.1v2.1c-2.6,0.4-4.5,0.2-5.8-0.6
		c-1.3-0.8-1.9-2.2-1.9-4.4v-11.2h-3.9v-2.4h3.9V682l2.4-0.7v5.2h5.3V688.8z"/>
	<path d="M878.7,682c-0.3,0.3-0.8,0.5-1.3,0.5s-0.9-0.2-1.3-0.5c-0.3-0.3-0.5-0.8-0.5-1.3c0-0.5,0.2-0.9,0.5-1.3s0.8-0.5,1.3-0.5
		s0.9,0.2,1.3,0.5c0.3,0.3,0.5,0.8,0.5,1.3C879.2,681.2,879.1,681.6,878.7,682z M876.2,704.9v-18.5h2.4v18.5H876.2z"/>
	<path d="M892.5,686c2.2,0,4,0.7,5.3,2.1s1.9,3.2,1.9,5.5v11.4h-2.4v-11.4c0-1.7-0.4-2.9-1.3-3.8c-0.9-0.9-2.1-1.4-3.7-1.4
		c-1.8,0-3.2,0.6-4.3,1.7c-1.1,1.1-1.7,2.9-1.7,5.2v9.7h-2.4v-18.5h2.4v2.9C887.7,687.1,889.8,686,892.5,686z"/>
	<path d="M920.4,686.4h2.4v17.8c0,2.7-0.9,4.8-2.7,6.3c-1.8,1.5-4,2.3-6.5,2.3c-4.3,0-7.3-1.5-8.8-4.5l2.1-1.2
		c1.1,2.2,3.3,3.4,6.6,3.4c2.1,0,3.8-0.6,5-1.7c1.2-1.1,1.8-2.6,1.8-4.5v-2.9c-1.7,2.7-4.2,4.1-7.5,4.1c-2.6,0-4.9-0.9-6.8-2.8
		c-1.9-1.9-2.8-4.2-2.8-6.9s0.9-5,2.8-6.9c1.9-1.9,4.1-2.8,6.8-2.8c3.3,0,5.8,1.4,7.5,4.1V686.4z M907.9,700.9
		c1.4,1.4,3.1,2.1,5.2,2.1c2,0,3.8-0.7,5.2-2.1c1.4-1.4,2.1-3.2,2.1-5.2s-0.7-3.8-2.1-5.2c-1.4-1.4-3.1-2.1-5.2-2.1
		c-2,0-3.8,0.7-5.2,2.1c-1.4,1.4-2.1,3.2-2.1,5.2S906.5,699.5,907.9,700.9z"/>
	<path d="M101.7,734c3.5,0,6.4,1.3,8.8,3.8c2.3,2.5,3.5,5.6,3.5,9.2s-1.2,6.7-3.5,9.2c-2.3,2.5-5.2,3.8-8.8,3.8h-10V734H101.7z
		 M101.7,757.5c2.8,0,5.2-1,7-3c1.8-2,2.7-4.5,2.7-7.5s-0.9-5.5-2.7-7.5s-4.1-3-7-3h-7.4v21H101.7z"/>
	<path d="M120.4,737c-0.3,0.3-0.8,0.5-1.3,0.5c-0.5,0-0.9-0.2-1.3-0.5c-0.3-0.3-0.5-0.8-0.5-1.3c0-0.5,0.2-0.9,0.5-1.3
		c0.3-0.3,0.8-0.5,1.3-0.5c0.5,0,0.9,0.2,1.3,0.5c0.3,0.3,0.5,0.8,0.5,1.3C121,736.2,120.8,736.6,120.4,737z M118,759.9v-18.5h2.4
		v18.5H118z"/>
	<path d="M141.5,741.4h2.4v17.8c0,2.7-0.9,4.8-2.7,6.3c-1.8,1.5-4,2.3-6.5,2.3c-4.3,0-7.3-1.5-8.8-4.5l2.1-1.2
		c1.1,2.2,3.3,3.4,6.6,3.4c2.1,0,3.8-0.6,5-1.7s1.8-2.6,1.8-4.5v-2.9c-1.7,2.7-4.2,4.1-7.5,4.1c-2.6,0-4.9-0.9-6.8-2.8
		c-1.9-1.9-2.8-4.2-2.8-6.9s0.9-5,2.8-6.9c1.9-1.9,4.1-2.8,6.8-2.8c3.3,0,5.8,1.4,7.5,4.1V741.4z M129,755.9
		c1.4,1.4,3.1,2.1,5.2,2.1c2,0,3.8-0.7,5.2-2.1c1.4-1.4,2.1-3.2,2.1-5.2s-0.7-3.8-2.1-5.2c-1.4-1.4-3.1-2.1-5.2-2.1
		c-2,0-3.8,0.7-5.2,2.1c-1.4,1.4-2.1,3.2-2.1,5.2S127.6,754.5,129,755.9z"/>
	<path d="M151.6,737c-0.3,0.3-0.8,0.5-1.3,0.5c-0.5,0-0.9-0.2-1.3-0.5c-0.3-0.3-0.5-0.8-0.5-1.3c0-0.5,0.2-0.9,0.5-1.3
		c0.3-0.3,0.8-0.5,1.3-0.5c0.5,0,0.9,0.2,1.3,0.5c0.3,0.3,0.5,0.8,0.5,1.3C152.1,736.2,151.9,736.6,151.6,737z M149.1,759.9v-18.5
		h2.4v18.5H149.1z"/>
	<path d="M166.5,743.8h-5.3V755c0,1,0.2,1.7,0.6,2.2c0.4,0.4,1,0.7,1.8,0.7c0.8,0,1.8,0,3-0.1v2.1c-2.6,0.4-4.5,0.2-5.8-0.6
		c-1.3-0.8-1.9-2.2-1.9-4.4v-11.2h-3.9v-2.4h3.9V737l2.4-0.7v5.2h5.3V743.8z"/>
	<path d="M185.4,741.4h2.4v18.5h-2.4v-3.6c-1.7,2.7-4.2,4.1-7.5,4.1c-2.6,0-4.9-0.9-6.8-2.8c-1.9-1.9-2.8-4.2-2.8-6.9s0.9-5,2.8-6.9
		c1.9-1.9,4.1-2.8,6.8-2.8c3.3,0,5.8,1.4,7.5,4.1V741.4z M172.9,755.9c1.4,1.4,3.1,2.1,5.2,2.1c2,0,3.8-0.7,5.2-2.1
		c1.4-1.4,2.1-3.2,2.1-5.2s-0.7-3.8-2.1-5.2c-1.4-1.4-3.1-2.1-5.2-2.1c-2,0-3.8,0.7-5.2,2.1c-1.4,1.4-2.1,3.2-2.1,5.2
		S171.5,754.5,172.9,755.9z"/>
	<path d="M193,759.9v-27h2.4v27H193z"/>
	<path d="M219.5,734c2.3,0,4.3,0.8,5.8,2.3s2.3,3.5,2.3,5.8s-0.8,4.3-2.3,5.8s-3.5,2.3-5.8,2.3h-6.7v9.6h-2.6V734H219.5z
		 M219.5,747.9c1.6,0,2.9-0.5,4-1.6c1-1.1,1.6-2.4,1.6-4.1s-0.5-3-1.6-4.1c-1-1.1-2.4-1.6-4-1.6h-6.7v11.4H219.5z"/>
	<path d="M246.2,741.4h2.4v18.5h-2.4v-3.6c-1.7,2.7-4.2,4.1-7.5,4.1c-2.6,0-4.9-0.9-6.8-2.8c-1.9-1.9-2.8-4.2-2.8-6.9s0.9-5,2.8-6.9
		c1.9-1.9,4.1-2.8,6.8-2.8c3.3,0,5.8,1.4,7.5,4.1V741.4z M233.7,755.9c1.4,1.4,3.1,2.1,5.2,2.1c2,0,3.8-0.7,5.2-2.1
		c1.4-1.4,2.1-3.2,2.1-5.2s-0.7-3.8-2.1-5.2c-1.4-1.4-3.1-2.1-5.2-2.1c-2,0-3.8,0.7-5.2,2.1c-1.4,1.4-2.1,3.2-2.1,5.2
		S232.3,754.5,233.7,755.9z"/>
	<path d="M256.3,737c-0.3,0.3-0.8,0.5-1.3,0.5c-0.5,0-0.9-0.2-1.3-0.5c-0.3-0.3-0.5-0.8-0.5-1.3c0-0.5,0.2-0.9,0.5-1.3
		c0.3-0.3,0.8-0.5,1.3-0.5c0.5,0,0.9,0.2,1.3,0.5c0.3,0.3,0.5,0.8,0.5,1.3C256.8,736.2,256.6,736.6,256.3,737z M253.8,759.9v-18.5
		h2.4v18.5H253.8z"/>
	<path d="M270.1,741c2.2,0,4,0.7,5.3,2.1s1.9,3.2,1.9,5.5v11.4h-2.4v-11.4c0-1.7-0.4-2.9-1.3-3.8c-0.9-0.9-2.1-1.4-3.7-1.4
		c-1.8,0-3.2,0.6-4.3,1.7c-1.1,1.1-1.7,2.9-1.7,5.2v9.7h-2.4v-18.5h2.4v2.9C265.2,742.1,267.3,741,270.1,741z"/>
	<path d="M291.9,743.8h-5.3V755c0,1,0.2,1.7,0.6,2.2c0.4,0.4,1,0.7,1.8,0.7c0.8,0,1.8,0,3-0.1v2.1c-2.6,0.4-4.5,0.2-5.8-0.6
		c-1.3-0.8-1.9-2.2-1.9-4.4v-11.2h-3.9v-2.4h3.9V737l2.4-0.7v5.2h5.3V743.8z"/>
	<path d="M298.4,737c-0.3,0.3-0.8,0.5-1.3,0.5c-0.5,0-0.9-0.2-1.3-0.5c-0.3-0.3-0.5-0.8-0.5-1.3c0-0.5,0.2-0.9,0.5-1.3
		c0.3-0.3,0.8-0.5,1.3-0.5c0.5,0,0.9,0.2,1.3,0.5c0.3,0.3,0.5,0.8,0.5,1.3C298.9,736.2,298.8,736.6,298.4,737z M295.9,759.9v-18.5
		h2.4v18.5H295.9z"/>
	<path d="M312.2,741c2.2,0,4,0.7,5.3,2.1s1.9,3.2,1.9,5.5v11.4H317v-11.4c0-1.7-0.4-2.9-1.3-3.8c-0.9-0.9-2.1-1.4-3.7-1.4
		c-1.8,0-3.2,0.6-4.3,1.7c-1.1,1.1-1.7,2.9-1.7,5.2v9.7h-2.4v-18.5h2.4v2.9C307.4,742.1,309.4,741,312.2,741z"/>
	<path d="M340.1,741.4h2.4v17.8c0,2.7-0.9,4.8-2.7,6.3c-1.8,1.5-4,2.3-6.5,2.3c-4.3,0-7.3-1.5-8.8-4.5l2.1-1.2
		c1.1,2.2,3.3,3.4,6.6,3.4c2.1,0,3.8-0.6,5-1.7s1.8-2.6,1.8-4.5v-2.9c-1.7,2.7-4.2,4.1-7.5,4.1c-2.6,0-4.9-0.9-6.8-2.8
		c-1.9-1.9-2.8-4.2-2.8-6.9s0.9-5,2.8-6.9c1.9-1.9,4.1-2.8,6.8-2.8c3.3,0,5.8,1.4,7.5,4.1V741.4z M327.6,755.9
		c1.4,1.4,3.1,2.1,5.2,2.1c2,0,3.8-0.7,5.2-2.1c1.4-1.4,2.1-3.2,2.1-5.2s-0.7-3.8-2.1-5.2c-1.4-1.4-3.1-2.1-5.2-2.1
		c-2,0-3.8,0.7-5.2,2.1c-1.4,1.4-2.1,3.2-2.1,5.2S326.2,754.5,327.6,755.9z"/>
	<path d="M372.9,741.4h2.4v18.5h-2.4v-3.6c-1.7,2.7-4.2,4.1-7.5,4.1c-2.6,0-4.9-0.9-6.8-2.8c-1.9-1.9-2.8-4.2-2.8-6.9s0.9-5,2.8-6.9
		c1.9-1.9,4.1-2.8,6.8-2.8c3.3,0,5.8,1.4,7.5,4.1V741.4z M360.4,755.9c1.4,1.4,3.1,2.1,5.2,2.1c2,0,3.8-0.7,5.2-2.1
		c1.4-1.4,2.1-3.2,2.1-5.2s-0.7-3.8-2.1-5.2c-1.4-1.4-3.1-2.1-5.2-2.1c-2,0-3.8,0.7-5.2,2.1c-1.4,1.4-2.1,3.2-2.1,5.2
		S359,754.5,360.4,755.9z"/>
	<path d="M389.2,741c2.2,0,4,0.7,5.3,2.1s1.9,3.2,1.9,5.5v11.4H394v-11.4c0-1.7-0.4-2.9-1.3-3.8c-0.9-0.9-2.1-1.4-3.7-1.4
		c-1.8,0-3.2,0.6-4.3,1.7c-1.1,1.1-1.7,2.9-1.7,5.2v9.7h-2.4v-18.5h2.4v2.9C384.3,742.1,386.4,741,389.2,741z"/>
	<path d="M417.1,734h2.4v25.9h-2.4v-3.6c-1.7,2.7-4.2,4.1-7.5,4.1c-2.6,0-4.9-0.9-6.8-2.8c-1.9-1.9-2.8-4.2-2.8-6.9s0.9-5,2.8-6.9
		c1.9-1.9,4.1-2.8,6.8-2.8c3.3,0,5.8,1.4,7.5,4.1V734z M404.6,755.9c1.4,1.4,3.1,2.1,5.2,2.1c2,0,3.8-0.7,5.2-2.1
		c1.4-1.4,2.1-3.2,2.1-5.2s-0.7-3.8-2.1-5.2c-1.4-1.4-3.1-2.1-5.2-2.1c-2,0-3.8,0.7-5.2,2.1c-1.4,1.4-2.1,3.2-2.1,5.2
		S403.2,754.5,404.6,755.9z"/>
	<path d="M447.3,741.4h2.6l-7.6,18.5h-3l-7.6-18.5h2.6l6.5,15.9L447.3,741.4z"/>
	<path d="M460.6,741c2.7,0,5,1,6.6,2.9c1.7,1.9,2.5,4.2,2.5,6.9c0,0.3,0,0.7-0.1,1.1h-16.2c0.2,1.9,1,3.4,2.4,4.5
		c1.3,1.1,3,1.6,5,1.6c1.4,0,2.6-0.3,3.6-0.9c1-0.6,1.8-1.3,2.3-2.3l2.1,1.3c-0.8,1.3-1.9,2.3-3.3,3.1c-1.4,0.8-3,1.1-4.8,1.1
		c-2.9,0-5.3-0.9-7.1-2.7c-1.8-1.8-2.7-4.1-2.7-7c0-2.8,0.9-5.1,2.7-6.9C455.5,741.9,457.8,741,460.6,741z M460.6,743.4
		c-1.9,0-3.5,0.6-4.8,1.7c-1.3,1.1-2.1,2.6-2.3,4.5h13.8c-0.2-1.9-1-3.5-2.3-4.6C463.8,743.9,462.3,743.4,460.6,743.4z"/>
	<path d="M482.3,760.4c-2.8,0-5.1-0.9-7-2.8s-2.8-4.2-2.8-6.9c0-2.7,0.9-5,2.8-6.9s4.2-2.8,7-2.8c1.8,0,3.5,0.4,4.9,1.3
		c1.5,0.9,2.5,2.1,3.2,3.5l-2,1.1c-0.5-1.1-1.3-2-2.4-2.6c-1.1-0.7-2.3-1-3.7-1c-2,0-3.8,0.7-5.2,2.1c-1.4,1.4-2.1,3.2-2.1,5.2
		s0.7,3.8,2.1,5.2c1.4,1.4,3.1,2.1,5.2,2.1c1.4,0,2.6-0.3,3.7-1c1.1-0.7,1.9-1.5,2.6-2.6l2,1.2c-0.8,1.5-1.9,2.7-3.4,3.5
		S484.1,760.4,482.3,760.4z"/>
	<path d="M503.9,743.8h-5.3V755c0,1,0.2,1.7,0.6,2.2c0.4,0.4,1,0.7,1.8,0.7c0.8,0,1.8,0,3-0.1v2.1c-2.6,0.4-4.5,0.2-5.8-0.6
		c-1.3-0.8-1.9-2.2-1.9-4.4v-11.2h-3.9v-2.4h3.9V737l2.4-0.7v5.2h5.3V743.8z"/>
	<path d="M522.4,757.6c-1.9,1.9-4.2,2.8-6.9,2.8c-2.7,0-5-0.9-6.9-2.8c-1.9-1.9-2.8-4.2-2.8-6.9c0-2.7,0.9-5,2.8-6.9
		c1.9-1.9,4.2-2.8,6.9-2.8c2.7,0,5,0.9,6.9,2.8c1.9,1.9,2.8,4.2,2.8,6.9C525.2,753.4,524.3,755.7,522.4,757.6z M510.3,755.9
		c1.4,1.4,3.1,2.1,5.2,2.1c2,0,3.8-0.7,5.2-2.1c1.4-1.4,2.1-3.2,2.1-5.2s-0.7-3.8-2.1-5.2c-1.4-1.4-3.1-2.1-5.2-2.1
		c-2,0-3.8,0.7-5.2,2.1c-1.4,1.4-2.1,3.2-2.1,5.2S508.9,754.5,510.3,755.9z"/>
	<path d="M531.7,744.5c1.1-2.2,3.1-3.4,5.8-3.4v2.4c-1.7,0-3.1,0.5-4.2,1.5c-1.1,1-1.7,2.5-1.7,4.7v10.3h-2.4v-18.5h2.4V744.5z"/>
	<path d="M566.1,741.4h2.4v18.5h-2.4v-3.6c-1.7,2.7-4.2,4.1-7.5,4.1c-2.6,0-4.9-0.9-6.8-2.8c-1.9-1.9-2.8-4.2-2.8-6.9s0.9-5,2.8-6.9
		c1.9-1.9,4.1-2.8,6.8-2.8c3.3,0,5.8,1.4,7.5,4.1V741.4z M553.6,755.9c1.4,1.4,3.1,2.1,5.2,2.1c2,0,3.8-0.7,5.2-2.1
		c1.4-1.4,2.1-3.2,2.1-5.2s-0.7-3.8-2.1-5.2c-1.4-1.4-3.1-2.1-5.2-2.1c-2,0-3.8,0.7-5.2,2.1c-1.4,1.4-2.1,3.2-2.1,5.2
		S552.2,754.5,553.6,755.9z"/>
	<path d="M576.1,744.5c1.1-2.2,3.1-3.4,5.8-3.4v2.4c-1.7,0-3.1,0.5-4.2,1.5c-1.1,1-1.7,2.5-1.7,4.7v10.3h-2.4v-18.5h2.4V744.5z"/>
	<path d="M595.5,743.8h-5.3V755c0,1,0.2,1.7,0.6,2.2c0.4,0.4,1,0.7,1.8,0.7c0.8,0,1.8,0,3-0.1v2.1c-2.6,0.4-4.5,0.2-5.8-0.6
		c-1.3-0.8-1.9-2.2-1.9-4.4v-11.2h-3.9v-2.4h3.9V737l2.4-0.7v5.2h5.3V743.8z"/>
	<path d="M609.2,767.3v-34h2.4v34H609.2z"/>
	<path d="M632.4,759.9l-7.4-25.9h2.7l6.4,22.4l6.7-22.4h3l6.7,22.4L657,734h2.6l-7.4,25.9h-3.1l-6.8-22.5l-6.8,22.5H632.4z"/>
	<path d="M669.7,741c2.7,0,5,1,6.6,2.9c1.7,1.9,2.5,4.2,2.5,6.9c0,0.3,0,0.7-0.1,1.1h-16.2c0.2,1.9,1,3.4,2.4,4.5
		c1.3,1.1,3,1.6,5,1.6c1.4,0,2.6-0.3,3.6-0.9c1-0.6,1.8-1.3,2.3-2.3l2.1,1.3c-0.8,1.3-1.9,2.3-3.3,3.1s-3,1.1-4.8,1.1
		c-2.9,0-5.3-0.9-7.1-2.7s-2.7-4.1-2.7-7c0-2.8,0.9-5.1,2.7-6.9C664.6,741.9,666.9,741,669.7,741z M669.7,743.4
		c-1.9,0-3.5,0.6-4.8,1.7c-1.3,1.1-2.1,2.6-2.3,4.5h13.8c-0.2-1.9-1-3.5-2.3-4.6C672.9,743.9,671.4,743.4,669.7,743.4z"/>
	<path d="M692.7,741c2.6,0,4.9,0.9,6.8,2.8c1.9,1.9,2.8,4.2,2.8,6.9s-0.9,5-2.8,6.9c-1.9,1.9-4.1,2.8-6.8,2.8
		c-3.3,0-5.8-1.4-7.5-4.1v3.6h-2.4V734h2.4v11C686.9,742.3,689.4,741,692.7,741z M687.3,755.9c1.4,1.4,3.1,2.1,5.2,2.1
		c2,0,3.8-0.7,5.2-2.1c1.4-1.4,2.1-3.2,2.1-5.2s-0.7-3.8-2.1-5.2c-1.4-1.4-3.1-2.1-5.2-2.1c-2,0-3.8,0.7-5.2,2.1
		c-1.4,1.4-2.1,3.2-2.1,5.2S685.9,754.5,687.3,755.9z"/>
	<path d="M725.9,734c3.5,0,6.4,1.3,8.8,3.8s3.5,5.6,3.5,9.2s-1.2,6.7-3.5,9.2c-2.3,2.5-5.2,3.8-8.8,3.8h-10V734H725.9z M725.9,757.5
		c2.8,0,5.2-1,7-3c1.8-2,2.7-4.5,2.7-7.5s-0.9-5.5-2.7-7.5c-1.8-2-4.1-3-7-3h-7.4v21H725.9z"/>
	<path d="M750.8,741c2.7,0,5,1,6.6,2.9c1.7,1.9,2.5,4.2,2.5,6.9c0,0.3,0,0.7-0.1,1.1h-16.2c0.2,1.9,1,3.4,2.4,4.5
		c1.3,1.1,3,1.6,5,1.6c1.4,0,2.6-0.3,3.6-0.9c1-0.6,1.8-1.3,2.3-2.3l2.1,1.3c-0.8,1.3-1.9,2.3-3.3,3.1s-3,1.1-4.8,1.1
		c-2.9,0-5.3-0.9-7.1-2.7s-2.7-4.1-2.7-7c0-2.8,0.9-5.1,2.7-6.9C745.6,741.9,747.9,741,750.8,741z M750.8,743.4
		c-1.9,0-3.5,0.6-4.8,1.7c-1.3,1.1-2.1,2.6-2.3,4.5h13.8c-0.2-1.9-1-3.5-2.3-4.6C753.9,743.9,752.4,743.4,750.8,743.4z"/>
	<path d="M765,746.2c0,0.8,0.4,1.5,1.1,2c0.8,0.5,1.7,0.9,2.7,1.2c1.1,0.3,2.1,0.6,3.2,0.9c1.1,0.3,2,0.9,2.7,1.6
		c0.7,0.8,1.1,1.8,1.1,3.1c0,1.6-0.6,2.9-1.9,3.8s-2.9,1.5-4.8,1.5c-1.8,0-3.3-0.4-4.5-1.2c-1.2-0.8-2.1-1.8-2.6-3.1l2.1-1.2
		c0.3,1,1,1.7,1.9,2.3c0.9,0.6,2,0.8,3.2,0.8c1.2,0,2.2-0.2,3-0.7c0.8-0.5,1.2-1.2,1.2-2.2c0-0.8-0.4-1.5-1.1-2
		c-0.7-0.5-1.6-0.9-2.7-1.2s-2.1-0.6-3.2-0.9c-1.1-0.3-2-0.8-2.7-1.6c-0.7-0.8-1.1-1.8-1.1-3.1c0-1.5,0.6-2.8,1.8-3.8
		s2.7-1.5,4.5-1.5c1.5,0,2.8,0.3,4,1c1.1,0.7,2,1.6,2.5,2.8l-2,1.2c-0.7-1.7-2.2-2.6-4.4-2.6c-1.1,0-2,0.2-2.7,0.7
		C765.4,744.6,765,745.3,765,746.2z"/>
	<path d="M782.2,737c-0.3,0.3-0.8,0.5-1.3,0.5s-0.9-0.2-1.3-0.5c-0.3-0.3-0.5-0.8-0.5-1.3c0-0.5,0.2-0.9,0.5-1.3s0.8-0.5,1.3-0.5
		s0.9,0.2,1.3,0.5c0.3,0.3,0.5,0.8,0.5,1.3C782.7,736.2,782.5,736.6,782.2,737z M779.7,759.9v-18.5h2.4v18.5H779.7z"/>
	<path d="M803.2,741.4h2.4v17.8c0,2.7-0.9,4.8-2.7,6.3c-1.8,1.5-4,2.3-6.5,2.3c-4.3,0-7.3-1.5-8.8-4.5l2.1-1.2
		c1.1,2.2,3.3,3.4,6.6,3.4c2.1,0,3.8-0.6,5-1.7c1.2-1.1,1.8-2.6,1.8-4.5v-2.9c-1.7,2.7-4.2,4.1-7.5,4.1c-2.6,0-4.9-0.9-6.8-2.8
		c-1.9-1.9-2.8-4.2-2.8-6.9s0.9-5,2.8-6.9c1.9-1.9,4.1-2.8,6.8-2.8c3.3,0,5.8,1.4,7.5,4.1V741.4z M790.8,755.9
		c1.4,1.4,3.1,2.1,5.2,2.1c2,0,3.8-0.7,5.2-2.1c1.4-1.4,2.1-3.2,2.1-5.2s-0.7-3.8-2.1-5.2c-1.4-1.4-3.1-2.1-5.2-2.1
		c-2,0-3.8,0.7-5.2,2.1c-1.4,1.4-2.1,3.2-2.1,5.2S789.4,754.5,790.8,755.9z"/>
	<path d="M819.5,741c2.2,0,4,0.7,5.3,2.1s1.9,3.2,1.9,5.5v11.4h-2.4v-11.4c0-1.7-0.4-2.9-1.3-3.8c-0.9-0.9-2.1-1.4-3.7-1.4
		c-1.8,0-3.2,0.6-4.3,1.7c-1.1,1.1-1.7,2.9-1.7,5.2v9.7h-2.4v-18.5h2.4v2.9C814.7,742.1,816.7,741,819.5,741z"/>
	<path d="M856.7,741.4h2.4v18.5h-2.4v-3.6c-1.7,2.7-4.2,4.1-7.5,4.1c-2.6,0-4.9-0.9-6.8-2.8c-1.9-1.9-2.8-4.2-2.8-6.9s0.9-5,2.8-6.9
		c1.9-1.9,4.1-2.8,6.8-2.8c3.3,0,5.8,1.4,7.5,4.1V741.4z M844.2,755.9c1.4,1.4,3.1,2.1,5.2,2.1c2,0,3.8-0.7,5.2-2.1
		c1.4-1.4,2.1-3.2,2.1-5.2s-0.7-3.8-2.1-5.2c-1.4-1.4-3.1-2.1-5.2-2.1c-2,0-3.8,0.7-5.2,2.1c-1.4,1.4-2.1,3.2-2.1,5.2
		S842.8,754.5,844.2,755.9z"/>
	<path d="M872.9,741c2.2,0,4,0.7,5.3,2.1s1.9,3.2,1.9,5.5v11.4h-2.4v-11.4c0-1.7-0.4-2.9-1.3-3.8c-0.9-0.9-2.1-1.4-3.7-1.4
		c-1.8,0-3.2,0.6-4.3,1.7c-1.1,1.1-1.7,2.9-1.7,5.2v9.7h-2.4v-18.5h2.4v2.9C868.1,742.1,870.2,741,872.9,741z"/>
	<path d="M900.8,734h2.4v25.9h-2.4v-3.6c-1.7,2.7-4.2,4.1-7.5,4.1c-2.6,0-4.9-0.9-6.8-2.8c-1.9-1.9-2.8-4.2-2.8-6.9s0.9-5,2.8-6.9
		c1.9-1.9,4.1-2.8,6.8-2.8c3.3,0,5.8,1.4,7.5,4.1V734z M888.4,755.9c1.4,1.4,3.1,2.1,5.2,2.1c2,0,3.8-0.7,5.2-2.1
		c1.4-1.4,2.1-3.2,2.1-5.2s-0.7-3.8-2.1-5.2c-1.4-1.4-3.1-2.1-5.2-2.1c-2,0-3.8,0.7-5.2,2.1c-1.4,1.4-2.1,3.2-2.1,5.2
		S887,754.5,888.4,755.9z"/>
	<path d="M101.7,789c3.5,0,6.4,1.3,8.8,3.8c2.3,2.5,3.5,5.6,3.5,9.2s-1.2,6.7-3.5,9.2c-2.3,2.5-5.2,3.8-8.8,3.8h-10V789H101.7z
		 M101.7,812.5c2.8,0,5.2-1,7-3c1.8-2,2.7-4.5,2.7-7.5s-0.9-5.5-2.7-7.5s-4.1-3-7-3h-7.4v21H101.7z"/>
	<path d="M126.5,796c2.7,0,5,1,6.6,2.9c1.7,1.9,2.5,4.2,2.5,6.9c0,0.3,0,0.7-0.1,1.1h-16.2c0.2,1.9,1,3.4,2.4,4.5
		c1.3,1.1,3,1.6,5,1.6c1.4,0,2.6-0.3,3.6-0.9c1-0.6,1.8-1.3,2.3-2.3l2.1,1.3c-0.8,1.3-1.9,2.3-3.3,3.1c-1.4,0.8-3,1.1-4.8,1.1
		c-2.9,0-5.3-0.9-7.1-2.7c-1.8-1.8-2.7-4.1-2.7-7c0-2.8,0.9-5.1,2.7-6.9C121.4,796.9,123.7,796,126.5,796z M126.5,798.4
		c-1.9,0-3.5,0.6-4.8,1.7c-1.3,1.1-2.1,2.6-2.3,4.5h13.8c-0.2-1.9-1-3.5-2.3-4.6C129.7,798.9,128.2,798.4,126.5,798.4z"/>
	<path d="M152.1,796.4h2.6l-7.6,18.5h-3l-7.6-18.5h2.6l6.5,15.9L152.1,796.4z"/>
	<path d="M165.5,796c2.7,0,5,1,6.6,2.9c1.7,1.9,2.5,4.2,2.5,6.9c0,0.3,0,0.7-0.1,1.1h-16.2c0.2,1.9,1,3.4,2.4,4.5
		c1.3,1.1,3,1.6,5,1.6c1.4,0,2.6-0.3,3.6-0.9c1-0.6,1.8-1.3,2.3-2.3l2.1,1.3c-0.8,1.3-1.9,2.3-3.3,3.1c-1.4,0.8-3,1.1-4.8,1.1
		c-2.9,0-5.3-0.9-7.1-2.7c-1.8-1.8-2.7-4.1-2.7-7c0-2.8,0.9-5.1,2.7-6.9C160.3,796.9,162.7,796,165.5,796z M165.5,798.4
		c-1.9,0-3.5,0.6-4.8,1.7c-1.3,1.1-2.1,2.6-2.3,4.5h13.8c-0.2-1.9-1-3.5-2.3-4.6C168.7,798.9,167.2,798.4,165.5,798.4z"/>
	<path d="M178.6,814.9v-27h2.4v27H178.6z"/>
	<path d="M201.7,812.6c-1.9,1.9-4.2,2.8-6.9,2.8c-2.7,0-5-0.9-6.9-2.8c-1.9-1.9-2.8-4.2-2.8-6.9c0-2.7,0.9-5,2.8-6.9
		c1.9-1.9,4.2-2.8,6.9-2.8c2.7,0,5,0.9,6.9,2.8c1.9,1.9,2.8,4.2,2.8,6.9C204.5,808.4,203.6,810.7,201.7,812.6z M189.6,810.9
		c1.4,1.4,3.1,2.1,5.2,2.1c2,0,3.8-0.7,5.2-2.1c1.4-1.4,2.1-3.2,2.1-5.2s-0.7-3.8-2.1-5.2c-1.4-1.4-3.1-2.1-5.2-2.1
		c-2,0-3.8,0.7-5.2,2.1c-1.4,1.4-2.1,3.2-2.1,5.2S188.2,809.5,189.6,810.9z"/>
	<path d="M218.5,796c2.6,0,4.9,0.9,6.8,2.8c1.9,1.9,2.8,4.2,2.8,6.9s-0.9,5-2.8,6.9c-1.9,1.9-4.1,2.8-6.8,2.8
		c-3.3,0-5.8-1.4-7.5-4.1v11h-2.4v-25.9h2.4v3.6C212.8,797.3,215.2,796,218.5,796z M213.2,810.9c1.4,1.4,3.1,2.1,5.2,2.1
		s3.8-0.7,5.2-2.1c1.4-1.4,2.1-3.2,2.1-5.2s-0.7-3.8-2.1-5.2c-1.4-1.4-3.1-2.1-5.2-2.1s-3.8,0.7-5.2,2.1c-1.4,1.4-2.1,3.2-2.1,5.2
		S211.8,809.5,213.2,810.9z"/>
	<path d="M251.9,796c2.1,0,3.7,0.7,5,2c1.3,1.3,1.9,3.1,1.9,5.4v11.5h-2.4v-11.5c0-1.6-0.4-2.8-1.2-3.7c-0.8-0.9-1.9-1.3-3.3-1.3
		c-1.5,0-2.8,0.5-3.7,1.5c-1,1-1.4,2.6-1.4,4.8v10.2h-2.4v-11.5c0-1.6-0.4-2.9-1.2-3.7s-1.8-1.3-3.2-1.3c-1.5,0-2.7,0.5-3.8,1.6
		s-1.6,2.6-1.6,4.8v10.2h-2.4v-18.5h2.4v2.7c1.3-2.1,3.2-3.1,5.7-3.1c2.7,0,4.5,1.1,5.6,3.4C247.2,797.1,249.2,796,251.9,796z"/>
	<path d="M272.1,796c2.7,0,5,1,6.6,2.9c1.7,1.9,2.5,4.2,2.5,6.9c0,0.3,0,0.7-0.1,1.1h-16.2c0.2,1.9,1,3.4,2.4,4.5
		c1.3,1.1,3,1.6,5,1.6c1.4,0,2.6-0.3,3.6-0.9c1-0.6,1.8-1.3,2.3-2.3l2.1,1.3c-0.8,1.3-1.9,2.3-3.3,3.1c-1.4,0.8-3,1.1-4.8,1.1
		c-2.9,0-5.3-0.9-7.1-2.7c-1.8-1.8-2.7-4.1-2.7-7c0-2.8,0.9-5.1,2.7-6.9C266.9,796.9,269.2,796,272.1,796z M272.1,798.4
		c-1.9,0-3.5,0.6-4.8,1.7c-1.3,1.1-2.1,2.6-2.3,4.5h13.8c-0.2-1.9-1-3.5-2.3-4.6C275.2,798.9,273.7,798.4,272.1,798.4z"/>
	<path d="M293.8,796c2.2,0,4,0.7,5.3,2.1s1.9,3.2,1.9,5.5v11.4h-2.4v-11.4c0-1.7-0.4-2.9-1.3-3.8c-0.9-0.9-2.1-1.4-3.7-1.4
		c-1.8,0-3.2,0.6-4.3,1.7c-1.1,1.1-1.7,2.9-1.7,5.2v9.7h-2.4v-18.5h2.4v2.9C288.9,797.1,291,796,293.8,796z"/>
	<path d="M315.6,798.8h-5.3V810c0,1,0.2,1.7,0.6,2.2c0.4,0.4,1,0.7,1.8,0.7c0.8,0,1.8,0,3-0.1v2.1c-2.6,0.4-4.5,0.2-5.8-0.6
		c-1.3-0.8-1.9-2.2-1.9-4.4v-11.2h-3.9v-2.4h3.9V792l2.4-0.7v5.2h5.3V798.8z"/>
	<path d="M329.3,822.3v-34h2.4v34H329.3z"/>
	<path d="M354.9,799.8c2.1,0.3,3.8,1.1,5.1,2.4c1.3,1.3,2,3.1,2,5.2c0,2.5-0.8,4.4-2.5,5.8c-1.7,1.4-3.7,2.1-6.2,2.1
		c-1.9,0-3.6-0.4-5.1-1.3c-1.5-0.9-2.6-2.2-3.2-3.8l2.1-1.3c0.4,1.3,1.2,2.3,2.3,2.9c1.1,0.7,2.4,1,3.9,1c1.8,0,3.2-0.5,4.4-1.4
		c1.1-0.9,1.7-2.3,1.7-4c0-1.7-0.6-3.1-1.7-4c-1.1-0.9-2.6-1.4-4.4-1.4v0l0,0.1h-0.7l-1.1-1.7l6.4-8.8h-12.2V789h15.2l0,2.5
		L354.9,799.8z"/>
	<path d="M376.5,789c3.5,0,6.4,1.3,8.8,3.8c2.3,2.5,3.5,5.6,3.5,9.2s-1.2,6.7-3.5,9.2c-2.3,2.5-5.2,3.8-8.8,3.8h-10V789H376.5z
		 M376.5,812.5c2.8,0,5.2-1,7-3c1.8-2,2.7-4.5,2.7-7.5s-0.9-5.5-2.7-7.5s-4.1-3-7-3h-7.4v21H376.5z"/>
	<path d="M426.1,789v25.9h-2.6v-22l-9.1,15.2H414L405,793v22h-2.6V789h3.2l8.7,14.5l8.7-14.5H426.1z"/>
	<path d="M447.1,812.6c-1.9,1.9-4.2,2.8-6.9,2.8c-2.7,0-5-0.9-6.9-2.8c-1.9-1.9-2.8-4.2-2.8-6.9c0-2.7,0.9-5,2.8-6.9
		c1.9-1.9,4.2-2.8,6.9-2.8c2.7,0,5,0.9,6.9,2.8c1.9,1.9,2.8,4.2,2.8,6.9C450,808.4,449,810.7,447.1,812.6z M435,810.9
		c1.4,1.4,3.1,2.1,5.2,2.1c2,0,3.8-0.7,5.2-2.1c1.4-1.4,2.1-3.2,2.1-5.2s-0.7-3.8-2.1-5.2c-1.4-1.4-3.1-2.1-5.2-2.1
		c-2,0-3.8,0.7-5.2,2.1c-1.4,1.4-2.1,3.2-2.1,5.2S433.6,809.5,435,810.9z"/>
	<path d="M469.9,789h2.4v25.9h-2.4v-3.6c-1.7,2.7-4.2,4.1-7.5,4.1c-2.6,0-4.9-0.9-6.8-2.8c-1.9-1.9-2.8-4.2-2.8-6.9s0.9-5,2.8-6.9
		c1.9-1.9,4.1-2.8,6.8-2.8c3.3,0,5.8,1.4,7.5,4.1V789z M457.5,810.9c1.4,1.4,3.1,2.1,5.2,2.1c2,0,3.8-0.7,5.2-2.1
		c1.4-1.4,2.1-3.2,2.1-5.2s-0.7-3.8-2.1-5.2c-1.4-1.4-3.1-2.1-5.2-2.1c-2,0-3.8,0.7-5.2,2.1c-1.4,1.4-2.1,3.2-2.1,5.2
		S456.1,809.5,457.5,810.9z"/>
	<path d="M486.1,796c2.7,0,5,1,6.6,2.9c1.7,1.9,2.5,4.2,2.5,6.9c0,0.3,0,0.7-0.1,1.1H479c0.2,1.9,1,3.4,2.4,4.5c1.3,1.1,3,1.6,5,1.6
		c1.4,0,2.6-0.3,3.6-0.9c1-0.6,1.8-1.3,2.3-2.3l2.1,1.3c-0.8,1.3-1.9,2.3-3.3,3.1c-1.4,0.8-3,1.1-4.8,1.1c-2.9,0-5.3-0.9-7.1-2.7
		c-1.8-1.8-2.7-4.1-2.7-7c0-2.8,0.9-5.1,2.7-6.9C480.9,796.9,483.3,796,486.1,796z M486.1,798.4c-1.9,0-3.5,0.6-4.8,1.7
		c-1.3,1.1-2.1,2.6-2.3,4.5h13.8c-0.2-1.9-1-3.5-2.3-4.6C489.3,798.9,487.8,798.4,486.1,798.4z"/>
	<path d="M499.2,814.9v-27h2.4v27H499.2z"/>
	<path d="M509.3,792c-0.3,0.3-0.8,0.5-1.3,0.5c-0.5,0-0.9-0.2-1.3-0.5c-0.3-0.3-0.5-0.8-0.5-1.3c0-0.5,0.2-0.9,0.5-1.3
		c0.3-0.3,0.8-0.5,1.3-0.5c0.5,0,0.9,0.2,1.3,0.5c0.3,0.3,0.5,0.8,0.5,1.3C509.8,791.2,509.6,791.6,509.3,792z M506.8,814.9v-18.5
		h2.4v18.5H506.8z"/>
	<path d="M523.1,796c2.2,0,4,0.7,5.3,2.1s1.9,3.2,1.9,5.5v11.4h-2.4v-11.4c0-1.7-0.4-2.9-1.3-3.8c-0.9-0.9-2.1-1.4-3.7-1.4
		c-1.8,0-3.2,0.6-4.3,1.7c-1.1,1.1-1.7,2.9-1.7,5.2v9.7h-2.4v-18.5h2.4v2.9C518.2,797.1,520.3,796,523.1,796z"/>
	<path d="M551,796.4h2.4v17.8c0,2.7-0.9,4.8-2.7,6.3c-1.8,1.5-4,2.3-6.5,2.3c-4.3,0-7.3-1.5-8.8-4.5l2.1-1.2
		c1.1,2.2,3.3,3.4,6.6,3.4c2.1,0,3.8-0.6,5-1.7c1.2-1.1,1.8-2.6,1.8-4.5v-2.9c-1.7,2.7-4.2,4.1-7.5,4.1c-2.6,0-4.9-0.9-6.8-2.8
		c-1.9-1.9-2.8-4.2-2.8-6.9s0.9-5,2.8-6.9c1.9-1.9,4.1-2.8,6.8-2.8c3.3,0,5.8,1.4,7.5,4.1V796.4z M538.5,810.9
		c1.4,1.4,3.1,2.1,5.2,2.1s3.8-0.7,5.2-2.1c1.4-1.4,2.1-3.2,2.1-5.2s-0.7-3.8-2.1-5.2c-1.4-1.4-3.1-2.1-5.2-2.1s-3.8,0.7-5.2,2.1
		c-1.4,1.4-2.1,3.2-2.1,5.2S537.1,809.5,538.5,810.9z"/>
</g>
</svg>
