<svg id="Layer_1" data-name="Layer 1" xmlns="http://www.w3.org/2000/svg" viewBox="0 0 1920 1080"><defs><style>.cls-1,.cls-10,.cls-11,.cls-12,.cls-2,.cls-3,.cls-4,.cls-5,.cls-6,.cls-7,.cls-8,.cls-9{isolation:isolate;}.cls-1,.cls-10,.cls-11,.cls-12,.cls-2,.cls-4,.cls-5,.cls-6,.cls-7,.cls-8,.cls-9{font-size:30px;fill:gray;font-family:Raleway-ExtraLight, Raleway;font-weight:200;}.cls-2{letter-spacing:-0.03em;}.cls-4{letter-spacing:-0.08em;}.cls-5{letter-spacing:-0.05em;}.cls-6{letter-spacing:-0.02em;}.cls-7{letter-spacing:-0.07em;}.cls-8{letter-spacing:-0.01em;}.cls-9{letter-spacing:-0.09em;}.cls-10{letter-spacing:-0.08em;}.cls-11{letter-spacing:-0.06em;}.cls-12{letter-spacing:-0.12em;}.cls-13{fill:#fff;}</style></defs><text class="cls-1" transform="translate(971.95 351.65)">UI/U</text><text class="cls-2" transform="translate(1039.93 351.65)">X</text><g class="cls-3"><text class="cls-1" transform="translate(1058.2 351.65)"><tspan xml:space="preserve"> Design | </tspan></text></g><text class="cls-4" transform="translate(1181.41 351.65)">L</text><text class="cls-1" transform="translate(1198.15 351.65)">ogo and B</text><text class="cls-5" transform="translate(1337.49 351.65)">r</text><text class="cls-1" transform="translate(1346.97 351.65)">and Design</text><text class="cls-1" transform="translate(1505.82 351.65)">Video</text><text class="cls-6" transform="translate(1592.61 351.65)">E</text><text class="cls-1" transform="translate(1610.4 351.65)">diting |</text><text class="cls-7" transform="translate(971.95 404.65)">P</text><text class="cls-1" transform="translate(990.25 404.65)">os</text><text class="cls-8" transform="translate(1021.96 404.65)">t</text><text class="cls-1" transform="translate(1030.42 404.65)">ers |</text><g class="cls-3"><text class="cls-6" transform="translate(1093.48 404.65)">M</text><text class="cls-8" transform="translate(1119.46 404.65)">o</text></g><text class="cls-1" transform="translate(1137.16 404.65)">tion G</text><text class="cls-5" transform="translate(1215.61 404.65)">r</text><text class="cls-1" transform="translate(1225.09 404.65)">aphics</text><text class="cls-1" transform="translate(1318.57 404.65)">Video</text><text class="cls-6" transform="translate(1405.35 404.65)">E</text><text class="cls-1" transform="translate(1423.14 404.65)">diting | Digita</text><text class="cls-9" transform="translate(1593.66 404.65)">l</text><text class="cls-7" transform="translate(1607.7 404.65)">P</text><text class="cls-1" transform="translate(1626.12 404.65)">ai</text><text class="cls-1" transform="translate(1647.48 404.65)">n</text><text class="cls-1" transform="translate(1664.28 404.65)">ting</text><text class="cls-1" transform="translate(971.95 457.65)">and</text><text class="cls-10" transform="translate(1029.76 457.65)">v</text><text class="cls-1" transform="translate(1044.82 457.65)">ec</text><text class="cls-8" transform="translate(1078.24 457.65)">t</text><text class="cls-1" transform="translate(1086.7 457.65)">o</text><text class="cls-11" transform="translate(1104.28 457.65)">r</text><g class="cls-3"><text class="cls-1" transform="translate(1113.25 457.65)"><tspan xml:space="preserve"> art |</tspan></text></g><text class="cls-12" transform="translate(1176.28 457.65)">W</text><text class="cls-1" transform="translate(1205.5 457.65)">eb Design and D</text><text class="cls-8" transform="translate(1429.89 457.65)">e</text><text class="cls-10" transform="translate(1446.75 457.65)">v</text><text class="cls-1" transform="translate(1461.81 457.65)">elopme</text><text class="cls-8" transform="translate(1566.42 457.65)">n</text><text class="cls-1" transform="translate(1583.22 457.65)">t |</text><text class="cls-1" transform="translate(971.95 510.65)">3D</text><text class="cls-8" transform="translate(1016.74 510.65)">M</text><text class="cls-1" transform="translate(1043.05 510.65)">odeling</text><path class="cls-13" d="M323.2,257.46q36.53,0,61.49,24.6t24.95,60.4q0,35.81-24.95,60.4t-61.49,24.6H278.71v83.19H228.8V257.46Zm0,123.34q15.92,0,26.4-11t10.49-27.31q0-16.63-10.49-27.49t-26.4-10.85H278.71V380.8Z"/><path class="cls-13" d="M440,510.65v-264h46.66v264Z"/><path class="cls-13" d="M666.8,329.8h46.66V510.65H666.8V489.31q-21,26.4-59,26.4-36.17,0-62-27.67T520,420.22q0-40.14,25.86-67.81t62-27.67q38,0,59,26.4ZM580.72,456.93q14.1,14.29,35.81,14.29t36-14.29q14.29-14.28,14.29-36.71t-14.29-36.71q-14.29-14.28-36-14.28t-35.81,14.28q-14.12,14.3-14.11,36.71T580.72,456.93Z"/><path class="cls-13" d="M873.68,329.8h49.91L857.66,510.94q-14.1,38.73-37.4,56.29t-58,15.75v-43.4q18.81.36,29.84-8t17.54-26.76L735.52,329.8h51l47.16,121.55Z"/><path class="cls-13" d="M477.28,645.67V665.2q0,54.25-34.72,87.89t-89.7,33.63q-58.59,0-97.11-38.15t-38.52-93.14q0-55.33,38.15-93.67T350,523.42q35.43,0,64.74,16.09t45.57,42.86L417.6,607q-9-15.56-27.31-25.32t-40.69-9.77q-36.17,0-59.49,23.69t-23.33,59.86q0,35.8,23.69,59.14t62.75,23.33q28.93,0,47.92-12.84A63.83,63.83,0,0,0,427,689.79H350.33V645.67Z"/><path class="cls-13" d="M557.21,631.92q6.51-17.35,21.52-26a65.56,65.56,0,0,1,33.45-8.68v52.08Q590.84,646.76,574,658t-16.82,37.26v86.44H510.55V600.82h46.66Z"/><path class="cls-13" d="M786.51,759.06q-27.85,27.66-68,27.66T650.7,759.06Q623,731.39,623,691.24t27.67-67.82q27.67-27.66,67.82-27.67t68,27.67q27.86,27.68,27.85,67.82T786.51,759.06Zm-102.9-32q13.92,14.1,34.91,14.1t35.08-14.1q14.1-14.12,14.11-35.81T753.6,655.43q-14.1-14.1-35.08-14.1t-34.91,14.1q-13.92,14.12-13.92,35.81T683.61,727.05Z"/><path class="cls-13" d="M966.63,600.82h46.66V781.66H966.63V761.41q-17,25.32-53.89,25.31-29.65,0-49-19.89t-19.35-55v-111H891V706.07q0,18.09,9.76,27.67t26.05,9.58q18.07,0,28.93-11.21t10.85-33.64Z"/><path class="cls-13" d="M1156.52,595.75q29.64,0,49,19.9t19.35,55v111h-46.65V676.41q0-18.07-9.77-27.67t-26-9.58q-18.09,0-28.94,11.21T1102.62,684v97.65H1056V600.82h46.65v20.25Q1119.63,595.77,1156.52,595.75Z"/><path class="cls-13" d="M1401.74,528.48h46.65V781.66h-46.65V760.32q-20.62,26.41-58.6,26.4-36.53,0-62.39-27.66t-25.86-67.82q0-40.15,25.86-67.82t62.39-27.67q38,0,58.6,26.41ZM1315.84,728q14.28,14.29,36,14.29T1387.63,728q14.11-14.28,14.11-36.71t-14.11-36.71q-14.1-14.28-35.81-14.29t-36,14.29q-14.29,14.29-14.29,36.71T1315.84,728Z"/><path class="cls-13" d="M1539.9,777.32a30.56,30.56,0,1,1,9-21.7A29.6,29.6,0,0,1,1539.9,777.32Z"/></svg>