<svg width="18" height="18" viewBox="0 0 18 18" fill="none" xmlns="http://www.w3.org/2000/svg">
<path d="M9.06489 1.06488V1.94656M9.06489 16.0535V16.9351M17 9.00001H16.1183M2.01144 9.00001H1.12976M14.6759 14.611L14.0526 13.9877M4.07722 4.01234L3.45387 3.38899M14.6759 3.38899L14.0526 4.01234M4.07722 13.9877L3.45387 14.611M12.5916 9.00001C12.5916 9.93535 12.22 10.8324 11.5587 11.4938C10.8973 12.1552 10.0002 12.5267 9.06489 12.5267C8.12954 12.5267 7.23251 12.1552 6.57112 11.4938C5.90973 10.8324 5.53816 9.93535 5.53816 9.00001C5.53816 8.06466 5.90973 7.16763 6.57112 6.50624C7.23251 5.84485 8.12954 5.47328 9.06489 5.47328C10.0002 5.47328 10.8973 5.84485 11.5587 6.50624C12.22 7.16763 12.5916 8.06466 12.5916 9.00001Z" stroke="#515151" stroke-width="1.76336" stroke-linecap="round" stroke-linejoin="round"/>
</svg>
