<svg width="20" height="20" viewBox="0 0 20 20" fill="none" xmlns="http://www.w3.org/2000/svg">
<path d="M5.96158 17.9168C5.78449 17.9168 5.63609 17.8569 5.51637 17.737C5.39678 17.6173 5.33699 17.4689 5.33699 17.2918V10.5462C4.58699 10.3531 3.99616 9.9887 3.56449 9.45287C3.13283 8.91704 2.91699 8.29016 2.91699 7.57225V2.7085C2.91699 2.53141 2.97692 2.38301 3.09678 2.26329C3.21665 2.14343 3.36512 2.0835 3.5422 2.0835C3.71942 2.0835 3.86783 2.14343 3.98741 2.26329C4.10713 2.38301 4.16699 2.53141 4.16699 2.7085V6.94725H5.33699V2.7085C5.33699 2.53141 5.39685 2.38301 5.51658 2.26329C5.63644 2.14343 5.78498 2.0835 5.9622 2.0835C6.13928 2.0835 6.28769 2.14343 6.40741 2.26329C6.52699 2.38301 6.58678 2.53141 6.58678 2.7085V6.94725H7.75678V2.7085C7.75678 2.53141 7.81671 2.38301 7.93658 2.26329C8.05644 2.14343 8.20491 2.0835 8.38199 2.0835C8.55921 2.0835 8.70762 2.14343 8.8272 2.26329C8.94692 2.38301 9.00678 2.53141 9.00678 2.7085V7.57225C9.00678 8.29016 8.79095 8.91704 8.35928 9.45287C7.92762 9.9887 7.33678 10.3531 6.58678 10.5462V17.2918C6.58678 17.4689 6.52685 17.6173 6.40699 17.737C6.28727 17.8569 6.1388 17.9168 5.96158 17.9168ZM14.0305 17.9168C13.8533 17.9168 13.7049 17.8569 13.5853 17.737C13.4656 17.6173 13.4057 17.4689 13.4057 17.2918V10.2518C12.6557 9.99641 12.065 9.50412 11.6335 8.77495C11.2018 8.04579 10.986 7.19301 10.986 6.21662C10.986 5.0712 11.2841 4.096 11.8803 3.291C12.4766 2.486 13.1934 2.0835 14.0307 2.0835C14.8703 2.0835 15.589 2.48815 16.1868 3.29745C16.7847 4.10676 17.0837 5.08405 17.0837 6.22933C17.0837 7.21113 16.8665 8.06447 16.4322 8.78933C15.9979 9.51433 15.4057 10.0007 14.6557 10.2485V17.2918C14.6557 17.4689 14.5958 17.6173 14.476 17.737C14.3561 17.8569 14.2076 17.9168 14.0305 17.9168Z" fill="black"/>
</svg>
