<svg id="Layer_1" data-name="Layer 1" xmlns="http://www.w3.org/2000/svg" viewBox="0 0 207.47 207.47"><defs><style>.cls-1{fill:#fff;}</style></defs><rect class="cls-1" width="207.47" height="207.47"/><path d="M72.65,102c.11-1,.19-2,.33-2.94A30.81,30.81,0,0,1,85.44,78.12a31.83,31.83,0,0,1,10.28-5.06,2.14,2.14,0,0,1,2.43.76A2,2,0,0,1,98,76.34a22,22,0,0,0-4.17,8.21,23.13,23.13,0,0,0,1.33,16,23.33,23.33,0,0,0,24.61,13.33,23.1,23.1,0,0,0,11.29-5,2.51,2.51,0,0,1,2.16-.72,1.89,1.89,0,0,1,1.52,2.36,31.37,31.37,0,0,1-2.94,7.74,30.88,30.88,0,0,1-9.74,10.89,30.35,30.35,0,0,1-11.92,5c-10.36,1.87-19.54-.67-27.36-7.75a30.44,30.44,0,0,1-9.48-16.71c-.28-1.3-.38-2.64-.56-4,0-.2-.08-.39-.11-.59Z"/></svg>