<svg id="Layer_1" data-name="Layer 1" xmlns="http://www.w3.org/2000/svg" viewBox="0 0 1631.83 710.33"><defs><style>.cls-1,.cls-3{fill:#191919;}.cls-17,.cls-2{fill:none;stroke:#a5a5a5;stroke-miterlimit:10;}.cls-2{stroke-width:1.23px;}.cls-3{font-size:31px;font-family:Gilroy-Regular;}.cls-4{letter-spacing:-0.01em;}.cls-5{letter-spacing:-0.02em;}.cls-6{letter-spacing:0em;}.cls-7{letter-spacing:-0.02em;}.cls-8{letter-spacing:-0.03em;}.cls-9{letter-spacing:0em;}.cls-10{letter-spacing:-0.01em;}.cls-11{letter-spacing:-0.04em;}.cls-12{letter-spacing:-0.03em;}.cls-13{letter-spacing:-0.02em;}.cls-14{letter-spacing:0em;}.cls-15{letter-spacing:0.01em;}.cls-16{letter-spacing:-0.06em;}</style></defs><path class="cls-1" d="M227.37,168q28.38,0,47.76,19.1T294.51,234q0,27.81-19.38,46.91T227.37,300H192.81v64.62H154.05V168Zm0,95.8a27.16,27.16,0,0,0,20.51-8.54Q256,246.7,256,234q0-12.92-8.14-21.35a27.34,27.34,0,0,0-20.51-8.43H192.81v59.54Z" transform="translate(-154.05 -159.59)"/><path class="cls-1" d="M318.09,364.65V159.59h36.25V364.65Z" transform="translate(-154.05 -159.59)"/><path class="cls-1" d="M494.26,224.18H530.5V364.65H494.26V348.07q-16.32,20.51-45.83,20.51-28.1,0-48.16-21.49t-20-52.68q0-31.18,20.09-52.67t48.16-21.49q29.5,0,45.82,20.5ZM427.4,322.92q11,11.1,27.81,11.1t28-11.1q11.1-11.09,11.1-28.51t-11.1-28.52q-11.1-11.08-28-11.09T427.4,265.89q-11,11.12-11,28.52T427.4,322.92Z" transform="translate(-154.05 -159.59)"/><path class="cls-1" d="M655,224.18h38.77L642.51,364.87q-11,30.09-29,43.73T568.4,420.83V387.12q14.61.28,23.18-6.21t13.63-20.79L547.63,224.18h39.62l36.63,94.41Z" transform="translate(-154.05 -159.59)"/><path class="cls-1" d="M356,469.52v15.17q0,42.15-27,68.27T259.4,579.08q-45.51,0-75.43-29.63T154.05,477.1q0-43,29.63-72.75t73.49-29.78q27.52,0,50.29,12.5t35.4,33.29l-33.18,19.13q-7-12.09-21.21-19.67a66.3,66.3,0,0,0-31.61-7.59q-28.1,0-46.2,18.4t-18.13,46.5q0,27.81,18.4,45.93t48.75,18.13q22.47,0,37.22-10A49.59,49.59,0,0,0,317,503.79H257.43V469.52Z" transform="translate(-154.05 -159.59)"/><path class="cls-1" d="M418.12,458.84q5.06-13.47,16.72-20.19a50.88,50.88,0,0,1,26-6.74v40.45q-16.57-2-29.66,6.74T418.1,508v67.14H381.88V434.69h36.24Z" transform="translate(-154.05 -159.59)"/><path class="cls-1" d="M596.23,557.6q-21.63,21.48-52.82,21.48T490.74,557.6q-21.53-21.5-21.52-52.68t21.5-52.68q21.48-21.48,52.67-21.49t52.82,21.49q21.64,21.5,21.63,52.68T596.23,557.6ZM516.3,532.74q10.82,10.95,27.12,11t27.24-11q11-11,11-27.81t-11-27.83q-10.95-11-27.24-11t-27.12,11q-10.81,11-10.81,27.82t10.81,27.81Z" transform="translate(-154.05 -159.59)"/><path class="cls-1" d="M736.13,434.69h36.25V575.15H736.13V559.42q-13.2,19.67-41.86,19.66-23,0-38.06-15.45t-15-42.72V434.69h36.21v81.75q0,14.05,7.58,21.49t20.23,7.44q14,0,22.47-8.71t8.43-26.12Z" transform="translate(-154.05 -159.59)"/><path class="cls-1" d="M883.63,430.75q23,0,38.06,15.46t15,42.72v86.21H900.48V493.4q0-14-7.59-21.49t-20.19-7.44q-14.06,0-22.48,8.7t-8.46,26.13v75.84H805.55V434.69h36.23v15.73Q855,430.76,883.63,430.75Z" transform="translate(-154.05 -159.59)"/><path class="cls-1" d="M1074.1,378.5h36.23V575.15H1074.1V558.58q-16,20.5-45.52,20.5-28.37,0-48.46-21.48T960,504.92q0-31.18,20.09-52.68t48.46-21.49q29.52,0,45.52,20.51Zm-66.72,155q11.08,11.1,28,11.1t27.8-11.1q11-11.09,11-28.51t-11-28.52q-11-11.08-27.82-11.1t-28,11.1q-11.1,11.1-11.1,28.52T1007.38,533.47Z" transform="translate(-154.05 -159.59)"/><path class="cls-1" d="M1181.41,571.78a23.74,23.74,0,1,1,7-16.85A22.94,22.94,0,0,1,1181.41,571.78Z" transform="translate(-154.05 -159.59)"/><path class="cls-1" d="M297.14,662.88v36.68H244.63V857.38H206.28V699.56H154.05V662.88Z" transform="translate(-154.05 -159.59)"/><path class="cls-1" d="M410,840q-21.39,21.26-52.23,21.25T305.62,840q-21.25-21.25-21.26-52.1t21.26-52.1q21.25-21.26,52.1-21.25T410,735.82q21.39,21.25,21.4,52.1T410,840ZM330.9,815.43q10.69,10.83,26.82,10.83t26.95-10.83q10.83-10.84,10.83-27.51t-10.83-27.51q-10.85-10.83-26.95-10.83T330.9,760.41q-10.69,10.85-10.69,27.51T330.9,815.43Z" transform="translate(-154.05 -159.59)"/><path class="cls-1" d="M575,840q-21.4,21.26-52.24,21.25T470.66,840q-21.26-21.25-21.25-52.1t21.25-52.1q21.25-21.26,52.1-21.25T575,735.82q21.39,21.25,21.39,52.1T575,840ZM496,815.43q10.69,10.83,26.81,10.83t27-10.83q10.85-10.84,10.84-27.51t-10.84-27.51q-10.83-10.83-27-10.83T496,760.41q-10.71,10.85-10.7,27.51T496,815.43Z" transform="translate(-154.05 -159.59)"/><path class="cls-1" d="M621.67,857.38V654.55h35.85V857.38Z" transform="translate(-154.05 -159.59)"/><path class="cls-1" d="M722.26,757.91q0,5.57,7.36,9a97.11,97.11,0,0,0,17.92,6.11,188.58,188.58,0,0,1,21.12,6.67,41,41,0,0,1,17.92,13.48q7.36,9.45,7.36,23.62,0,21.39-16,32.92T738.1,861.27q-42.79,0-58.35-33.06l31.12-17.51q6.11,18.07,27.23,18.06,19.17,0,19.17-11.94,0-5.57-7.37-9A105.31,105.31,0,0,0,732,801.53a185.8,185.8,0,0,1-21.11-6.94,43.34,43.34,0,0,1-17.93-13.2q-7.37-9-7.36-22.65,0-20.55,15.14-32.37t37.65-11.8a62.85,62.85,0,0,1,30.84,7.64,55.82,55.82,0,0,1,22,21.81L760.6,760.69q-6.66-14.18-22.23-14.17a20.35,20.35,0,0,0-11.53,3.06A9.53,9.53,0,0,0,722.26,757.91Z" transform="translate(-154.05 -159.59)"/><path class="cls-1" d="M873.41,834.64a5.19,5.19,0,1,1,0,10.37h-4.24v6.13h-1.65v-16.5Zm0,8.81a3.41,3.41,0,0,0,2.54-1,3.89,3.89,0,0,0,0-5.21,3.38,3.38,0,0,0-2.54-1h-4.24v7.26Z" transform="translate(-154.05 -159.59)"/><path class="cls-1" d="M882.51,841.31a3.85,3.85,0,0,1,3.73-2.15v1.51a3.92,3.92,0,0,0-2.67.94,3.82,3.82,0,0,0-1.06,3v6.55H881V839.35h1.55Z" transform="translate(-154.05 -159.59)"/><path class="cls-1" d="M897.54,849.64a6.32,6.32,0,0,1-8.79,0,6.27,6.27,0,0,1,0-8.79,6.32,6.32,0,0,1,8.79,0,6.24,6.24,0,0,1,0,8.79Zm-7.69-1.08a4.71,4.71,0,0,0,6.6,0,4.77,4.77,0,0,0,0-6.63,4.68,4.68,0,0,0-6.6,6.63Z" transform="translate(-154.05 -159.59)"/><path class="cls-1" d="M907.43,851.42a6.18,6.18,0,1,1,3.14-11.51,4.89,4.89,0,0,1,2,2.25l-1.27.73a3.65,3.65,0,0,0-1.52-1.69,4.6,4.6,0,0,0-2.37-.62,4.67,4.67,0,1,0,0,9.33,4.54,4.54,0,0,0,2.36-.62,4.46,4.46,0,0,0,1.62-1.69l1.3.76a5.49,5.49,0,0,1-2.14,2.24A6.13,6.13,0,0,1,907.43,851.42Z" transform="translate(-154.05 -159.59)"/><path class="cls-1" d="M916.51,841.31a3.83,3.83,0,0,1,3.72-2.15v1.51a3.88,3.88,0,0,0-2.66.94,3.78,3.78,0,0,0-1.06,3v6.55H915V839.35h1.56Z" transform="translate(-154.05 -159.59)"/><path class="cls-1" d="M927.09,839.07a5.37,5.37,0,0,1,4.23,1.85,6.41,6.41,0,0,1,1.62,4.37c0,.18,0,.42-.05.73H922.54a4.21,4.21,0,0,0,1.52,2.84,4.85,4.85,0,0,0,3.17,1,4.6,4.6,0,0,0,2.32-.55,3.69,3.69,0,0,0,1.48-1.45l1.36.8a5.55,5.55,0,0,1-2.12,2,6.24,6.24,0,0,1-3.06.73,6.13,6.13,0,0,1-4.53-1.74,6.51,6.51,0,0,1,0-8.84A5.91,5.91,0,0,1,927.09,839.07Zm0,1.51a4.4,4.4,0,0,0-4.55,3.93h8.79a4.39,4.39,0,0,0-1.43-2.9A4.19,4.19,0,0,0,927.09,840.58Z" transform="translate(-154.05 -159.59)"/><path class="cls-1" d="M945.55,839.35h1.55v11.79h-1.55v-2.31a5.27,5.27,0,0,1-4.76,2.59,5.87,5.87,0,0,1-4.31-1.79,6.29,6.29,0,0,1,0-8.77,5.87,5.87,0,0,1,4.31-1.79,5.27,5.27,0,0,1,4.76,2.59Zm-7.95,9.21a4.67,4.67,0,1,0,0-6.63,4.77,4.77,0,0,0,0,6.63Z" transform="translate(-154.05 -159.59)"/><path class="cls-1" d="M956.65,840.86h-3.39V848a2,2,0,0,0,.37,1.38,1.48,1.48,0,0,0,1.13.43c.51,0,1.14,0,1.89,0v1.37a5.7,5.7,0,0,1-3.71-.36A2.93,2.93,0,0,1,951.7,848v-7.14h-2.47v-1.51h2.47v-2.83l1.56-.47v3.3h3.39Z" transform="translate(-154.05 -159.59)"/><path class="cls-1" d="M964,839.07a5.34,5.34,0,0,1,4.23,1.85,6.41,6.41,0,0,1,1.62,4.37c0,.18,0,.42-.05.73H959.43a4.25,4.25,0,0,0,1.52,2.84,4.86,4.86,0,0,0,3.17,1,4.67,4.67,0,0,0,2.33-.55,3.73,3.73,0,0,0,1.47-1.45l1.37.8a5.65,5.65,0,0,1-2.13,2,6.24,6.24,0,0,1-3.06.73,6.16,6.16,0,0,1-4.53-1.74,6.51,6.51,0,0,1,0-8.84A5.91,5.91,0,0,1,964,839.07Zm0,1.51a4.41,4.41,0,0,0-4.55,3.93h8.8a4.44,4.44,0,0,0-1.44-2.9A4.17,4.17,0,0,0,964,840.58Z" transform="translate(-154.05 -159.59)"/><path class="cls-1" d="M1033.22,833.27h1.65v16.5h-1.65v-7.71h-9v7.71h-1.65v-16.5h1.65v7.24h9Z" transform="translate(-154.05 -159.59)"/><path class="cls-1" d="M1049,833.27v1.56H1044v14.94h-1.65V834.83h-5.07v-1.56Z" transform="translate(-154.05 -159.59)"/><path class="cls-1" d="M1066.46,833.27v16.5h-1.65v-14l-5.77,9.66h-.24l-5.77-9.66v14h-1.65v-16.5h2l5.52,9.24,5.52-9.24Z" transform="translate(-154.05 -159.59)"/><path class="cls-1" d="M1071.88,848.22h7.55v1.55h-9.2v-16.5h1.65Z" transform="translate(-154.05 -159.59)"/><path class="cls-1" d="M1084.85,847.77l-1.42,5.3H1082l.94-5.3Z" transform="translate(-154.05 -159.59)"/><path class="cls-1" d="M1094.68,850.05a8.35,8.35,0,0,1-6.2-2.47,8.72,8.72,0,0,1,0-12.12,8.35,8.35,0,0,1,6.2-2.47,8.26,8.26,0,0,1,4.19,1.09,7.63,7.63,0,0,1,3,3l-1.46.85a5.8,5.8,0,0,0-2.31-2.4,6.54,6.54,0,0,0-3.37-.9,6.93,6.93,0,1,0,0,13.86,6.54,6.54,0,0,0,3.37-.9,5.8,5.8,0,0,0,2.31-2.4l1.46.83a7.53,7.53,0,0,1-2.93,3A8.27,8.27,0,0,1,1094.68,850.05Z" transform="translate(-154.05 -159.59)"/><path class="cls-1" d="M1109.72,850.05a6.82,6.82,0,0,1-3.88-1.07,5.53,5.53,0,0,1-2.25-3l1.41-.82a4.34,4.34,0,0,0,1.65,2.39,5.22,5.22,0,0,0,3.09.86,4.54,4.54,0,0,0,2.87-.81,2.62,2.62,0,0,0,1-2.16,2.24,2.24,0,0,0-.94-2,12.63,12.63,0,0,0-3.11-1.36,18.16,18.16,0,0,1-3.4-1.37,3.63,3.63,0,0,1-1.88-3.28,4.05,4.05,0,0,1,1.46-3.31,5.42,5.42,0,0,1,3.6-1.21,5.62,5.62,0,0,1,3.35,1,6.07,6.07,0,0,1,2.1,2.56l-1.39.77a4.07,4.07,0,0,0-4.06-2.73,3.85,3.85,0,0,0-2.47.75,2.55,2.55,0,0,0-.94,2.1,2.11,2.11,0,0,0,.85,1.84,10.48,10.48,0,0,0,2.8,1.25l1.29.44c.25.08.63.22,1.13.42a7.1,7.1,0,0,1,1.09.52,9.76,9.76,0,0,1,.86.61,2.75,2.75,0,0,1,.73.78,4.9,4.9,0,0,1,.41.94,4.41,4.41,0,0,1-1.36,4.55A6.15,6.15,0,0,1,1109.72,850.05Z" transform="translate(-154.05 -159.59)"/><path class="cls-1" d="M1122.71,850.05a6.82,6.82,0,0,1-3.88-1.07,5.53,5.53,0,0,1-2.25-3l1.41-.82a4.34,4.34,0,0,0,1.65,2.39,5.2,5.2,0,0,0,3.09.86,4.49,4.49,0,0,0,2.86-.81,2.6,2.6,0,0,0,1-2.16,2.24,2.24,0,0,0-.94-2,12.63,12.63,0,0,0-3.11-1.36,18.16,18.16,0,0,1-3.4-1.37,3.61,3.61,0,0,1-1.88-3.28,4.05,4.05,0,0,1,1.46-3.31,5.42,5.42,0,0,1,3.6-1.21,5.62,5.62,0,0,1,3.35,1,6.15,6.15,0,0,1,2.1,2.56l-1.39.77a4.08,4.08,0,0,0-4.06-2.73,3.85,3.85,0,0,0-2.47.75,2.55,2.55,0,0,0-.94,2.1,2.13,2.13,0,0,0,.84,1.84,10.57,10.57,0,0,0,2.81,1.25l1.28.44q.39.12,1.14.42a7.1,7.1,0,0,1,1.09.52c.24.15.52.35.86.61a2.75,2.75,0,0,1,.73.78,4.35,4.35,0,0,1,.4.94,3.85,3.85,0,0,1,.18,1.19,4.13,4.13,0,0,1-1.53,3.36A6.15,6.15,0,0,1,1122.71,850.05Z" transform="translate(-154.05 -159.59)"/><path class="cls-1" d="M1192.62,832.41a5.19,5.19,0,1,1,0,10.38h-4.25v6.13h-1.65V832.41Zm0,8.82a3.4,3.4,0,0,0,2.53-1,3.59,3.59,0,0,0,1-2.61,3.55,3.55,0,0,0-1-2.6,3.37,3.37,0,0,0-2.53-1h-4.25v7.26Z" transform="translate(-154.05 -159.59)"/><path class="cls-1" d="M1208.88,837.13h1.65l-5,12.87a6.49,6.49,0,0,1-2,2.75,3.94,3.94,0,0,1-2.82.88v-1.46c1.42.16,2.49-.66,3.23-2.46l.3-.76L1199,837.13h1.65l4.41,9.79Z" transform="translate(-154.05 -159.59)"/><path class="cls-1" d="M1218.66,838.64h-3.39v7.14a2,2,0,0,0,.38,1.38,1.43,1.43,0,0,0,1.13.42c.5,0,1.13,0,1.88,0v1.37a5.71,5.71,0,0,1-3.71-.36,3,3,0,0,1-1.24-2.78v-7.14h-2.47v-1.51h2.47V834.3l1.56-.47v3.3h3.39Z" transform="translate(-154.05 -159.59)"/><path class="cls-1" d="M1226.77,836.85a4.46,4.46,0,0,1,3.39,1.3,5,5,0,0,1,1.23,3.53v7.24h-1.55v-7.24a3.39,3.39,0,0,0-.84-2.45,3.15,3.15,0,0,0-2.37-.88,3.71,3.71,0,0,0-2.76,1.08,4.57,4.57,0,0,0-1.06,3.31v6.18h-1.55V832.41h1.55V839A4.35,4.35,0,0,1,1226.77,836.85Z" transform="translate(-154.05 -159.59)"/><path class="cls-1" d="M1244.3,847.42a6.32,6.32,0,0,1-8.79,0,6.24,6.24,0,0,1,0-8.79,6.32,6.32,0,0,1,8.79,0,6.27,6.27,0,0,1,0,8.79Zm-7.7-1.09a4.65,4.65,0,0,0,8-3.31,4.51,4.51,0,0,0-1.35-3.31,4.68,4.68,0,0,0-6.6,0,4.76,4.76,0,0,0,0,6.62Z" transform="translate(-154.05 -159.59)"/><path class="cls-1" d="M1254.21,836.85a4.42,4.42,0,0,1,3.38,1.3,4.92,4.92,0,0,1,1.24,3.53v7.24h-1.55v-7.24a3.39,3.39,0,0,0-.84-2.45,3.15,3.15,0,0,0-2.37-.88,3.71,3.71,0,0,0-2.76,1.08,4.57,4.57,0,0,0-1.06,3.31v6.18h-1.55V837.13h1.55V839A4.35,4.35,0,0,1,1254.21,836.85Z" transform="translate(-154.05 -159.59)"/><rect class="cls-2" x="695.63" y="657.16" width="136.93" height="52.56" rx="24.74"/><rect class="cls-2" x="846.67" y="657.16" width="148.52" height="52.56" rx="24.74"/><rect class="cls-2" x="1009.6" y="657.16" width="117.74" height="52.56" rx="24.74"/><path class="cls-1" d="M886.37,698h-7.66v6.09H886v1.55h-7.31v7.31h-1.65v-16.5h9.31Z" transform="translate(-154.05 -159.59)"/><path class="cls-1" d="M890.55,698.32a1.15,1.15,0,0,1-1.61,0,1.08,1.08,0,0,1-.33-.8,1.14,1.14,0,0,1,2.27,0A1.08,1.08,0,0,1,890.55,698.32ZM889,712.94V701.15h1.55v11.79Z" transform="translate(-154.05 -159.59)"/><path class="cls-1" d="M904,701.15h1.56v11.32a5,5,0,0,1-1.75,4,6.29,6.29,0,0,1-4.17,1.46q-4.15,0-5.59-2.88l1.37-.78c.71,1.43,2.11,2.15,4.22,2.15a4.56,4.56,0,0,0,3.19-1.07,3.74,3.74,0,0,0,1.17-2.89v-1.84a5.26,5.26,0,0,1-4.76,2.59,5.81,5.81,0,0,1-4.3-1.79,6.29,6.29,0,0,1,0-8.77,5.84,5.84,0,0,1,4.3-1.79,5.26,5.26,0,0,1,4.76,2.59ZM896,710.36a4.71,4.71,0,0,0,6.6,0,4.77,4.77,0,0,0,0-6.63,4.68,4.68,0,0,0-6.6,6.63Z" transform="translate(-154.05 -159.59)"/><path class="cls-1" d="M921.38,700.87a4.2,4.2,0,0,1,3.19,1.27,4.79,4.79,0,0,1,1.22,3.44v7.36h-1.56v-7.36a3.27,3.27,0,0,0-.79-2.36,2.71,2.71,0,0,0-2.08-.84,3.08,3.08,0,0,0-2.37,1,4.35,4.35,0,0,0-.91,3v6.53h-1.56v-7.36a3.43,3.43,0,0,0-.74-2.38,2.57,2.57,0,0,0-2-.82,3.27,3.27,0,0,0-2.41,1,4.13,4.13,0,0,0-1,3v6.53h-1.55V701.15h1.55v1.72a4,4,0,0,1,3.61-2,3.66,3.66,0,0,1,3.58,2.15A4.16,4.16,0,0,1,921.38,700.87Z" transform="translate(-154.05 -159.59)"/><path class="cls-1" d="M938.94,701.15h1.56v11.79h-1.56v-2.31a5.26,5.26,0,0,1-4.76,2.59,5.81,5.81,0,0,1-4.3-1.79,6.29,6.29,0,0,1,0-8.77,5.84,5.84,0,0,1,4.3-1.79,5.26,5.26,0,0,1,4.76,2.59ZM931,710.36a4.71,4.71,0,0,0,6.6,0,4.77,4.77,0,0,0,0-6.63,4.68,4.68,0,0,0-6.6,6.63Z" transform="translate(-154.05 -159.59)"/><path class="cls-1" d="M1686.69,851.16h-2.17l-7.73-8v8h-1.65v-16.5h1.65v7.55l7.5-7.55h2.17l-7.92,8Z" transform="translate(-154.05 -159.59)"/><path class="cls-1" d="M1690.13,841.33a3.84,3.84,0,0,1,3.73-2.14v1.51a3.87,3.87,0,0,0-2.67.94,3.81,3.81,0,0,0-1.06,3v6.55h-1.55V839.37h1.55Z" transform="translate(-154.05 -159.59)"/><path class="cls-1" d="M1697.56,836.55a1.09,1.09,0,0,1-.8.33,1.14,1.14,0,0,1,0-2.27,1.14,1.14,0,0,1,.8,1.94ZM1696,851.16V839.37h1.55v11.79Z" transform="translate(-154.05 -159.59)"/><path class="cls-1" d="M1707.08,840.88h-3.39V848a2.05,2.05,0,0,0,.37,1.38,1.52,1.52,0,0,0,1.14.42c.5,0,1.13,0,1.88,0v1.37a5.78,5.78,0,0,1-3.71-.35,3,3,0,0,1-1.24-2.78v-7.15h-2.47v-1.51h2.47v-2.82l1.56-.48v3.3h3.39Z" transform="translate(-154.05 -159.59)"/><path class="cls-1" d="M1719.1,839.37h1.56v11.79h-1.56v-2.31a5.26,5.26,0,0,1-4.76,2.59,5.82,5.82,0,0,1-4.3-1.79,6.29,6.29,0,0,1,0-8.77,5.86,5.86,0,0,1,4.3-1.79,5.27,5.27,0,0,1,4.76,2.6Zm-7.94,9.21a4.76,4.76,0,1,0-1.34-3.31A4.5,4.5,0,0,0,1711.16,848.58Z" transform="translate(-154.05 -159.59)"/><path class="cls-1" d="M1016.07,715.27l-1.53-4h-7.84l-1.53,4h-1.74l6.34-16.5h1.7l6.34,16.5Zm-8.78-5.61H1014l-3.33-8.82Z" transform="translate(-154.05 -159.59)"/><path class="cls-1" d="M1029.6,698.77h1.55v16.5h-1.55V713a5.3,5.3,0,0,1-4.77,2.6,5.86,5.86,0,0,1-4.3-1.79,6.29,6.29,0,0,1,0-8.77,5.83,5.83,0,0,1,4.3-1.8,5.3,5.3,0,0,1,4.77,2.6Zm-7.95,13.92a4.68,4.68,0,0,0,6.6,0,4.73,4.73,0,0,0,0-6.62,4.68,4.68,0,0,0-6.6,0,4.76,4.76,0,0,0,0,6.62Z" transform="translate(-154.05 -159.59)"/><path class="cls-1" d="M1044.34,713.78a6.32,6.32,0,0,1-8.79,0,6.25,6.25,0,0,1,0-8.8,6.32,6.32,0,0,1,8.79,0,6.28,6.28,0,0,1,0,8.8Zm-7.7-1.09a4.68,4.68,0,0,0,6.6,0,4.73,4.73,0,0,0,0-6.62,4.68,4.68,0,0,0-6.6,0,4.76,4.76,0,0,0,0,6.62Z" transform="translate(-154.05 -159.59)"/><path class="cls-1" d="M1055.05,703.2a5.84,5.84,0,0,1,4.31,1.8,6.29,6.29,0,0,1,0,8.77,5.87,5.87,0,0,1-4.31,1.79,5.28,5.28,0,0,1-4.76-2.6v2.31h-1.55v-16.5h1.55v7A5.28,5.28,0,0,1,1055.05,703.2Zm-3.41,9.49a4.68,4.68,0,0,0,6.6,0,4.67,4.67,0,0,0-3.3-8,4.47,4.47,0,0,0-3.3,1.36,4.73,4.73,0,0,0,0,6.62Z" transform="translate(-154.05 -159.59)"/><path class="cls-1" d="M1069.17,703.2a5.37,5.37,0,0,1,4.24,1.85,6.5,6.5,0,0,1,1.61,4.38c0,.17,0,.41,0,.73h-10.34a4.19,4.19,0,0,0,1.52,2.84,4.83,4.83,0,0,0,3.17,1,4.63,4.63,0,0,0,2.32-.56,3.73,3.73,0,0,0,1.47-1.45l1.37.81a5.69,5.69,0,0,1-2.12,2,6.42,6.42,0,0,1-3.07.73,6.09,6.09,0,0,1-4.52-1.75,6,6,0,0,1-1.75-4.43,6.1,6.1,0,0,1,1.72-4.41A5.92,5.92,0,0,1,1069.17,703.2Zm0,1.51a4.46,4.46,0,0,0-3.07,1.1,4.4,4.4,0,0,0-1.47,2.84h8.79a4.42,4.42,0,0,0-1.44-2.9A4.18,4.18,0,0,0,1069.17,704.71Z" transform="translate(-154.05 -159.59)"/><path class="cls-1" d="M1094.94,715.27h-1.89l-4.47-7-4.48,7h-1.89l5.43-8.52-5.08-8h1.87l4.15,6.51,4.14-6.51h1.87l-5.08,8Z" transform="translate(-154.05 -159.59)"/><path class="cls-1" d="M1103.66,698.77a7.28,7.28,0,0,1,5.58,2.39,8.9,8.9,0,0,1,0,11.72,7.24,7.24,0,0,1-5.58,2.39h-6.36v-16.5Zm0,15a5.72,5.72,0,0,0,4.45-1.94,7.41,7.41,0,0,0,0-9.52,5.71,5.71,0,0,0-4.45-1.93H1099v13.39Z" transform="translate(-154.05 -159.59)"/><path class="cls-1" d="M1661.56,711.76a6.93,6.93,0,0,1-8.86,0,5.64,5.64,0,0,1-1.7-4.3V696.57h1.65v10.89a4.18,4.18,0,0,0,1.18,3.14,5.27,5.27,0,0,0,6.6,0,4.18,4.18,0,0,0,1.18-3.14V696.57h1.65v10.89A5.64,5.64,0,0,1,1661.56,711.76Z" transform="translate(-154.05 -159.59)"/><path class="cls-1" d="M1672.08,701a4.44,4.44,0,0,1,3.38,1.3,5,5,0,0,1,1.24,3.53v7.24h-1.56v-7.24a3.39,3.39,0,0,0-.84-2.45,3.08,3.08,0,0,0-2.37-.88,3.67,3.67,0,0,0-2.75,1.08,4.52,4.52,0,0,0-1.06,3.31v6.18h-1.56V701.29h1.56v1.84A4.35,4.35,0,0,1,1672.08,701Z" transform="translate(-154.05 -159.59)"/><path class="cls-1" d="M1681.29,698.46a1.08,1.08,0,0,1-.8.33,1.13,1.13,0,0,1-1.13-1.13,1.08,1.08,0,0,1,.33-.8,1.09,1.09,0,0,1,.8-.33,1.13,1.13,0,0,1,1.13,1.13A1.09,1.09,0,0,1,1681.29,698.46Zm-1.58,14.62V701.29h1.56v11.79Z" transform="translate(-154.05 -159.59)"/><path class="cls-1" d="M1690.82,702.8h-3.4v7.14a2.05,2.05,0,0,0,.38,1.38,1.48,1.48,0,0,0,1.13.42q.75,0,1.89,0v1.37a5.74,5.74,0,0,1-3.72-.36,3,3,0,0,1-1.23-2.78V702.8h-2.48v-1.51h2.48v-2.83l1.55-.47v3.3h3.4Z" transform="translate(-154.05 -159.59)"/><path class="cls-1" d="M1702.13,701.29h1.65l-5,12.87a6.49,6.49,0,0,1-2,2.75,3.94,3.94,0,0,1-2.82.88v-1.46c1.42.16,2.49-.66,3.23-2.46l.3-.76-5.27-11.82h1.65l4.41,9.79Z" transform="translate(-154.05 -159.59)"/><path class="cls-1" d="M1177.57,713.06,1176,709h-7.83l-1.53,4.06h-1.74l6.34-16.5h1.7l6.34,16.5Zm-8.77-5.61h6.66l-3.33-8.83Z" transform="translate(-154.05 -159.59)"/><path class="cls-1" d="M1191.1,696.56h1.56v16.5h-1.56v-2.31a5.26,5.26,0,0,1-4.76,2.59,5.86,5.86,0,0,1-4.3-1.79,6.29,6.29,0,0,1,0-8.77,5.86,5.86,0,0,1,4.3-1.79,5.26,5.26,0,0,1,4.76,2.59Zm-7.94,13.92a4.77,4.77,0,1,0-1.34-3.32A4.49,4.49,0,0,0,1183.16,710.48Z" transform="translate(-154.05 -159.59)"/><path class="cls-1" d="M1205.85,711.56a6.32,6.32,0,0,1-8.79,0,6.24,6.24,0,0,1,0-8.79,6.32,6.32,0,0,1,8.79,0,6.27,6.27,0,0,1,0,8.79Zm-7.7-1.08a4.67,4.67,0,1,0,0-6.63,4.77,4.77,0,0,0,0,6.63Z" transform="translate(-154.05 -159.59)"/><path class="cls-1" d="M1216.56,701a5.87,5.87,0,0,1,4.31,1.79,6.29,6.29,0,0,1,0,8.77,5.87,5.87,0,0,1-4.31,1.79,5.27,5.27,0,0,1-4.76-2.59v2.31h-1.55v-16.5h1.55v7A5.27,5.27,0,0,1,1216.56,701Zm-3.41,9.49a4.71,4.71,0,0,0,6.6,0,4.77,4.77,0,0,0,0-6.63,4.68,4.68,0,0,0-6.6,6.63Z" transform="translate(-154.05 -159.59)"/><path class="cls-1" d="M1230.68,701a5.34,5.34,0,0,1,4.23,1.85,6.41,6.41,0,0,1,1.62,4.37c0,.17,0,.42,0,.73h-10.35a4.25,4.25,0,0,0,1.52,2.84,4.86,4.86,0,0,0,3.17,1.05,4.67,4.67,0,0,0,2.33-.55,3.73,3.73,0,0,0,1.47-1.45l1.37.8a5.69,5.69,0,0,1-2.12,2,6.3,6.3,0,0,1-3.07.73,6.16,6.16,0,0,1-4.53-1.74,6.51,6.51,0,0,1,0-8.84A5.92,5.92,0,0,1,1230.68,701Zm0,1.51a4.41,4.41,0,0,0-4.55,3.93h8.8a4.44,4.44,0,0,0-1.44-2.9A4.17,4.17,0,0,0,1230.68,702.5Z" transform="translate(-154.05 -159.59)"/><path class="cls-1" d="M1251.22,701a5.86,5.86,0,0,1,4.3,1.79,6.29,6.29,0,0,1,0,8.77,5.86,5.86,0,0,1-4.3,1.79,5.28,5.28,0,0,1-4.77-2.59v7h-1.55v-16.5h1.55v2.31A5.28,5.28,0,0,1,1251.22,701Zm-3.42,9.49a4.71,4.71,0,0,0,6.6,0,4.77,4.77,0,0,0,0-6.63,4.68,4.68,0,0,0-6.6,6.63Z" transform="translate(-154.05 -159.59)"/><path class="cls-1" d="M1265.41,701a4.41,4.41,0,0,1,3.38,1.31,4.92,4.92,0,0,1,1.24,3.52v7.24h-1.56v-7.24a3.39,3.39,0,0,0-.84-2.45,3.11,3.11,0,0,0-2.37-.87,3.66,3.66,0,0,0-2.75,1.07,4.52,4.52,0,0,0-1.06,3.31v6.18h-1.56v-16.5h1.56v6.55A4.37,4.37,0,0,1,1265.41,701Z" transform="translate(-154.05 -159.59)"/><path class="cls-1" d="M1282.93,711.56a6.2,6.2,0,0,1-10.59-4.4,5.92,5.92,0,0,1,1.8-4.39,6.32,6.32,0,0,1,8.79,0,6.24,6.24,0,0,1,0,8.79Zm-7.69-1.08a4.71,4.71,0,0,0,6.6,0,4.77,4.77,0,0,0,0-6.63,4.68,4.68,0,0,0-6.6,6.63Z" transform="translate(-154.05 -159.59)"/><path class="cls-1" d="M1293.34,702.78H1290v7.14a2,2,0,0,0,.37,1.38,1.49,1.49,0,0,0,1.14.43c.5,0,1.13,0,1.88,0v1.37a5.7,5.7,0,0,1-3.71-.36,2.93,2.93,0,0,1-1.24-2.78v-7.14h-2.47v-1.51h2.47v-2.83L1290,698v3.3h3.39Z" transform="translate(-154.05 -159.59)"/><path class="cls-1" d="M1305.12,711.56a6.33,6.33,0,0,1-8.8,0,6.27,6.27,0,0,1,0-8.79,6.33,6.33,0,0,1,8.8,0,6.27,6.27,0,0,1,0,8.79Zm-7.7-1.08a4.71,4.71,0,0,0,6.6,0,4.67,4.67,0,0,0-3.3-8,4.46,4.46,0,0,0-3.3,1.35,4.77,4.77,0,0,0,0,6.63Z" transform="translate(-154.05 -159.59)"/><path class="cls-1" d="M1310.5,704.33a1.43,1.43,0,0,0,.72,1.25,6.27,6.27,0,0,0,1.73.75l2,.58a3.71,3.71,0,0,1,1.71,1.05,2.86,2.86,0,0,1,.7,2,3,3,0,0,1-1.2,2.45,4.77,4.77,0,0,1-3.07.94,5.31,5.31,0,0,1-2.89-.75,4.07,4.07,0,0,1-1.66-2l1.32-.78a2.77,2.77,0,0,0,1.19,1.45,4.23,4.23,0,0,0,4,.07,1.53,1.53,0,0,0,.78-1.42,1.45,1.45,0,0,0-.71-1.27,5.8,5.8,0,0,0-1.72-.76l-2-.58a3.81,3.81,0,0,1-1.72-1,2.69,2.69,0,0,1-.7-1.94,3,3,0,0,1,1.14-2.41,4.33,4.33,0,0,1,2.89-1,4.73,4.73,0,0,1,2.52.65,3.92,3.92,0,0,1,1.6,1.75l-1.29.76a2.75,2.75,0,0,0-2.83-1.65,3.2,3.2,0,0,0-1.75.47A1.55,1.55,0,0,0,1310.5,704.33Z" transform="translate(-154.05 -159.59)"/><path class="cls-1" d="M1325.38,701a4.41,4.41,0,0,1,3.38,1.31,4.92,4.92,0,0,1,1.24,3.52v7.24h-1.56v-7.24a3.39,3.39,0,0,0-.84-2.45,3.1,3.1,0,0,0-2.36-.87,3.67,3.67,0,0,0-2.76,1.07,4.52,4.52,0,0,0-1.06,3.31v6.18h-1.56v-16.5h1.56v6.55A4.37,4.37,0,0,1,1325.38,701Z" transform="translate(-154.05 -159.59)"/><path class="cls-1" d="M1342.9,711.56a6.2,6.2,0,0,1-10.59-4.4,5.92,5.92,0,0,1,1.8-4.39,6.32,6.32,0,0,1,8.79,0,6.24,6.24,0,0,1,0,8.79Zm-7.69-1.08a4.71,4.71,0,0,0,6.6,0,4.77,4.77,0,0,0,0-6.63,4.68,4.68,0,0,0-6.6,6.63Z" transform="translate(-154.05 -159.59)"/><path class="cls-1" d="M1353.62,701a5.86,5.86,0,0,1,4.3,1.79,6.29,6.29,0,0,1,0,8.77,5.86,5.86,0,0,1-4.3,1.79,5.26,5.26,0,0,1-4.76-2.59v7h-1.56v-16.5h1.56v2.31A5.26,5.26,0,0,1,1353.62,701Zm-3.42,9.49a4.71,4.71,0,0,0,6.6,0,4.67,4.67,0,0,0-3.3-8,4.46,4.46,0,0,0-3.3,1.35,4.77,4.77,0,0,0,0,6.63Z" transform="translate(-154.05 -159.59)"/><path class="cls-1" d="M1425.9,715.63l-1.53-4.06h-7.83l-1.54,4.06h-1.74l6.34-16.5h1.7l6.34,16.5Zm-8.78-5.61h6.66l-3.33-8.83Z" transform="translate(-154.05 -159.59)"/><path class="cls-1" d="M1439.43,699.13H1441v16.5h-1.55v-2.31a5.28,5.28,0,0,1-4.77,2.59,5.86,5.86,0,0,1-4.3-1.79,6.29,6.29,0,0,1,0-8.77,5.86,5.86,0,0,1,4.3-1.79,5.28,5.28,0,0,1,4.77,2.59Zm-8,13.92a4.67,4.67,0,1,0,0-6.63,4.77,4.77,0,0,0,0,6.63Z" transform="translate(-154.05 -159.59)"/><path class="cls-1" d="M1454.17,714.13a6.32,6.32,0,0,1-8.79,0,6.27,6.27,0,0,1,0-8.79,6.32,6.32,0,0,1,8.79,0,6.24,6.24,0,0,1,0,8.79Zm-7.7-1.08a4.72,4.72,0,0,0,6.61,0,4.77,4.77,0,0,0,0-6.63,4.72,4.72,0,0,0-6.61,0,4.77,4.77,0,0,0,0,6.63Z" transform="translate(-154.05 -159.59)"/><path class="cls-1" d="M1464.89,703.56a5.86,5.86,0,0,1,4.3,1.79,6.29,6.29,0,0,1,0,8.77,5.86,5.86,0,0,1-4.3,1.79,5.29,5.29,0,0,1-4.77-2.59v2.31h-1.55v-16.5h1.55v7A5.29,5.29,0,0,1,1464.89,703.56Zm-3.42,9.49a4.71,4.71,0,0,0,6.6,0,4.77,4.77,0,0,0,0-6.63,4.68,4.68,0,0,0-6.6,6.63Z" transform="translate(-154.05 -159.59)"/><path class="cls-1" d="M1479,703.56a5.37,5.37,0,0,1,4.23,1.85,6.45,6.45,0,0,1,1.61,4.37,5.76,5.76,0,0,1,0,.73h-10.34a4.17,4.17,0,0,0,1.52,2.84,4.83,4.83,0,0,0,3.17,1,4.63,4.63,0,0,0,2.32-.55,3.73,3.73,0,0,0,1.47-1.45l1.37.8a5.69,5.69,0,0,1-2.12,2,6.3,6.3,0,0,1-3.07.73,6.12,6.12,0,0,1-4.52-1.74,6,6,0,0,1-1.75-4.44,6.06,6.06,0,0,1,1.72-4.4A5.93,5.93,0,0,1,1479,703.56Zm0,1.51a4.46,4.46,0,0,0-3.08,1.09,4.4,4.4,0,0,0-1.47,2.84h8.79a4.44,4.44,0,0,0-1.44-2.9A4.16,4.16,0,0,0,1479,705.07Z" transform="translate(-154.05 -159.59)"/><path class="cls-1" d="M1493.46,699.13h1.65v16.5h-1.65Z" transform="translate(-154.05 -159.59)"/><path class="cls-1" d="M1498.64,715.63V698.42h1.56v17.21Z" transform="translate(-154.05 -159.59)"/><path class="cls-1" d="M1503.5,715.63V698.42h1.55v17.21Z" transform="translate(-154.05 -159.59)"/><path class="cls-1" d="M1516.65,703.84h1.56v11.79h-1.56v-1.84a4.37,4.37,0,0,1-4,2.12,4.43,4.43,0,0,1-3.38-1.31,4.88,4.88,0,0,1-1.24-3.52v-7.24h1.56v7.24a3.43,3.43,0,0,0,.83,2.45,3.14,3.14,0,0,0,2.37.87,3.74,3.74,0,0,0,2.76-1.07,4.54,4.54,0,0,0,1.06-3.31Z" transform="translate(-154.05 -159.59)"/><path class="cls-1" d="M1522.73,706.9a1.43,1.43,0,0,0,.72,1.25,6.27,6.27,0,0,0,1.73.75l2,.58a3.63,3.63,0,0,1,1.71,1,2.86,2.86,0,0,1,.7,2,3,3,0,0,1-1.19,2.45,4.81,4.81,0,0,1-3.08.94,5.34,5.34,0,0,1-2.89-.75,4.07,4.07,0,0,1-1.66-2l1.32-.78a2.77,2.77,0,0,0,1.19,1.45,3.82,3.82,0,0,0,2,.53,3.7,3.7,0,0,0,1.93-.46,1.53,1.53,0,0,0,.78-1.42,1.43,1.43,0,0,0-.71-1.27,6.08,6.08,0,0,0-1.72-.77l-2-.57a3.84,3.84,0,0,1-1.73-1,2.69,2.69,0,0,1-.7-1.94,3,3,0,0,1,1.14-2.41,4.34,4.34,0,0,1,2.89-1,4.73,4.73,0,0,1,2.52.65,3.92,3.92,0,0,1,1.6,1.75l-1.29.76a2.75,2.75,0,0,0-2.83-1.65,3.12,3.12,0,0,0-1.75.47A1.55,1.55,0,0,0,1522.73,706.9Z" transform="translate(-154.05 -159.59)"/><path class="cls-1" d="M1538,705.35h-3.4v7.14a2,2,0,0,0,.38,1.38,1.48,1.48,0,0,0,1.13.43c.5,0,1.13,0,1.89,0v1.37a5.74,5.74,0,0,1-3.72-.36,3,3,0,0,1-1.23-2.78v-7.14h-2.48v-1.51H1533V701l1.55-.47v3.3h3.4Z" transform="translate(-154.05 -159.59)"/><path class="cls-1" d="M1542.13,705.8a3.85,3.85,0,0,1,3.73-2.15v1.51a3.88,3.88,0,0,0-2.66.94,3.78,3.78,0,0,0-1.07,3v6.56h-1.55V703.84h1.55Z" transform="translate(-154.05 -159.59)"/><path class="cls-1" d="M1557.41,703.84H1559v11.79h-1.56v-2.31a5.26,5.26,0,0,1-4.76,2.59,5.84,5.84,0,0,1-4.3-1.79,6.29,6.29,0,0,1,0-8.77,5.84,5.84,0,0,1,4.3-1.79,5.26,5.26,0,0,1,4.76,2.59Zm-7.94,9.21a4.71,4.71,0,0,0,6.6,0,4.77,4.77,0,0,0,0-6.63,4.68,4.68,0,0,0-6.6,6.63Z" transform="translate(-154.05 -159.59)"/><path class="cls-1" d="M1568.51,705.35h-3.39v7.14a2,2,0,0,0,.38,1.38,1.47,1.47,0,0,0,1.13.43c.5,0,1.13,0,1.88,0v1.37a5.7,5.7,0,0,1-3.71-.36,2.93,2.93,0,0,1-1.24-2.78v-7.14h-2.47v-1.51h2.47V701l1.56-.47v3.3h3.39Z" transform="translate(-154.05 -159.59)"/><path class="cls-1" d="M1580.29,714.13a6.33,6.33,0,0,1-8.8,0,6.27,6.27,0,0,1,0-8.79,6.33,6.33,0,0,1,8.8,0,6.27,6.27,0,0,1,0,8.79Zm-7.7-1.08a4.77,4.77,0,1,0-1.34-3.32A4.49,4.49,0,0,0,1572.59,713.05Z" transform="translate(-154.05 -159.59)"/><path class="cls-1" d="M1586.24,705.8a3.83,3.83,0,0,1,3.72-2.15v1.51a3.89,3.89,0,0,0-2.66.94,3.77,3.77,0,0,0-1.06,3v6.56h-1.56V703.84h1.56Z" transform="translate(-154.05 -159.59)"/><path class="cls-1" d="M1326.14,848.8l-1.53-4h-7.83l-1.53,4h-1.75l6.34-16.5h1.7l6.34,16.5Zm-8.78-5.61H1324l-3.33-8.82Z" transform="translate(-154.05 -159.59)"/><path class="cls-1" d="M1339.67,832.3h1.55v16.5h-1.55v-2.31a5.28,5.28,0,0,1-4.76,2.6,5.84,5.84,0,0,1-4.3-1.79,6.29,6.29,0,0,1,0-8.77,5.82,5.82,0,0,1,4.3-1.8,5.28,5.28,0,0,1,4.76,2.6Zm-7.94,13.92a4.68,4.68,0,0,0,6.6,0,4.67,4.67,0,0,0-3.31-8,4.46,4.46,0,0,0-3.29,1.36,4.73,4.73,0,0,0,0,6.62Z" transform="translate(-154.05 -159.59)"/><path class="cls-1" d="M1354.41,847.31a6.32,6.32,0,0,1-8.79,0,6.28,6.28,0,0,1,0-8.8,6.32,6.32,0,0,1,8.79,0,6.25,6.25,0,0,1,0,8.8Zm-7.69-1.09a4.68,4.68,0,0,0,6.6,0,4.67,4.67,0,0,0-3.3-8,4.47,4.47,0,0,0-3.3,1.36,4.73,4.73,0,0,0,0,6.62Z" transform="translate(-154.05 -159.59)"/><path class="cls-1" d="M1365.13,836.73a5.83,5.83,0,0,1,4.3,1.8,6.29,6.29,0,0,1,0,8.77,5.86,5.86,0,0,1-4.3,1.79,5.27,5.27,0,0,1-4.76-2.6v2.31h-1.56V832.3h1.56v7A5.27,5.27,0,0,1,1365.13,836.73Zm-3.42,9.49a4.76,4.76,0,1,0-1.34-3.31A4.46,4.46,0,0,0,1361.71,846.22Z" transform="translate(-154.05 -159.59)"/><path class="cls-1" d="M1379.25,836.73a5.34,5.34,0,0,1,4.23,1.86,6.4,6.4,0,0,1,1.61,4.37c0,.17,0,.41,0,.73H1374.7a4.23,4.23,0,0,0,1.52,2.84,4.85,4.85,0,0,0,3.17,1.05,4.61,4.61,0,0,0,2.32-.56,3.76,3.76,0,0,0,1.48-1.45l1.36.81a5.62,5.62,0,0,1-2.12,2,6.41,6.41,0,0,1-3.06.73,6.1,6.1,0,0,1-4.53-1.75,6.51,6.51,0,0,1,0-8.84A5.89,5.89,0,0,1,1379.25,836.73Zm0,1.51a4.41,4.41,0,0,0-4.55,3.94h8.79a4.42,4.42,0,0,0-1.44-2.9A4.15,4.15,0,0,0,1379.25,838.24Z" transform="translate(-154.05 -159.59)"/><path class="cls-1" d="M1393.7,832.3h1.65v16.5h-1.65Z" transform="translate(-154.05 -159.59)"/><path class="cls-1" d="M1404.4,836.73a4.43,4.43,0,0,1,3.38,1.31,4.92,4.92,0,0,1,1.24,3.53v7.23h-1.56v-7.23a3.37,3.37,0,0,0-.83-2.45,3.11,3.11,0,0,0-2.37-.88,3.71,3.71,0,0,0-2.76,1.08,4.52,4.52,0,0,0-1.06,3.31v6.17h-1.56V837h1.56v1.84A4.35,4.35,0,0,1,1404.4,836.73Z" transform="translate(-154.05 -159.59)"/><path class="cls-1" d="M1422.17,832.3h1.56v16.5h-1.56v-2.31a5.27,5.27,0,0,1-4.76,2.6,5.86,5.86,0,0,1-4.3-1.79,6.29,6.29,0,0,1,0-8.77,5.83,5.83,0,0,1,4.3-1.8,5.27,5.27,0,0,1,4.76,2.6Zm-7.94,13.92a4.76,4.76,0,1,0-1.34-3.31A4.46,4.46,0,0,0,1414.23,846.22Z" transform="translate(-154.05 -159.59)"/><path class="cls-1" d="M1432.48,836.73a5.34,5.34,0,0,1,4.23,1.86,6.45,6.45,0,0,1,1.61,4.37c0,.17,0,.41,0,.73h-10.35a4.19,4.19,0,0,0,1.52,2.84,4.83,4.83,0,0,0,3.17,1.05,4.63,4.63,0,0,0,2.32-.56,3.67,3.67,0,0,0,1.47-1.45l1.37.81a5.69,5.69,0,0,1-2.12,2,6.42,6.42,0,0,1-3.07.73,6.09,6.09,0,0,1-4.52-1.75,6,6,0,0,1-1.75-4.43,6.1,6.1,0,0,1,1.72-4.41A5.93,5.93,0,0,1,1432.48,836.73Zm0,1.51a4.47,4.47,0,0,0-3.08,1.1,4.4,4.4,0,0,0-1.47,2.84h8.79a4.42,4.42,0,0,0-1.44-2.9A4.17,4.17,0,0,0,1432.48,838.24Z" transform="translate(-154.05 -159.59)"/><path class="cls-1" d="M1441.55,840.08a1.43,1.43,0,0,0,.72,1.25,6.27,6.27,0,0,0,1.73.75l2,.58a3.63,3.63,0,0,1,1.71,1.05,2.81,2.81,0,0,1,.7,2,3,3,0,0,1-1.2,2.45,4.77,4.77,0,0,1-3.07,1,5.23,5.23,0,0,1-2.89-.76,4,4,0,0,1-1.66-2l1.32-.78a2.81,2.81,0,0,0,1.19,1.45,3.82,3.82,0,0,0,2,.53,3.7,3.7,0,0,0,1.93-.46,1.54,1.54,0,0,0,.78-1.43,1.47,1.47,0,0,0-.71-1.27,6.07,6.07,0,0,0-1.72-.76l-2-.58a3.7,3.7,0,0,1-1.72-1,2.69,2.69,0,0,1-.7-1.94,3,3,0,0,1,1.14-2.41,4.33,4.33,0,0,1,2.89-1,4.82,4.82,0,0,1,2.52.65,4,4,0,0,1,1.6,1.76l-1.29.75a2.75,2.75,0,0,0-2.83-1.65,3.12,3.12,0,0,0-1.75.48A1.55,1.55,0,0,0,1441.55,840.08Z" transform="translate(-154.05 -159.59)"/><path class="cls-1" d="M1452.49,834.19a1.09,1.09,0,0,1-.8.33,1.08,1.08,0,0,1-.8-.33,1.09,1.09,0,0,1-.33-.8,1.13,1.13,0,0,1,1.13-1.13,1.09,1.09,0,0,1,.8.33,1.08,1.08,0,0,1,.33.8A1.09,1.09,0,0,1,1452.49,834.19Zm-1.58,14.61V837h1.56V848.8Z" transform="translate(-154.05 -159.59)"/><path class="cls-1" d="M1465.9,837h1.56v11.31a4.93,4.93,0,0,1-1.75,4,6.29,6.29,0,0,1-4.17,1.46c-2.76,0-4.63-1-5.58-2.87l1.36-.78q1.07,2.15,4.22,2.14a4.54,4.54,0,0,0,3.2-1.07,3.75,3.75,0,0,0,1.16-2.89v-1.84a5.27,5.27,0,0,1-4.76,2.6,5.86,5.86,0,0,1-4.3-1.79,6.29,6.29,0,0,1,0-8.77,5.83,5.83,0,0,1,4.3-1.8,5.27,5.27,0,0,1,4.76,2.6Zm-7.94,9.2a4.68,4.68,0,0,0,6.6,0,4.64,4.64,0,1,0-6.6,0Z" transform="translate(-154.05 -159.59)"/><path class="cls-1" d="M1476.27,836.73a4.47,4.47,0,0,1,3.39,1.31,5,5,0,0,1,1.24,3.53v7.23h-1.56v-7.23a3.37,3.37,0,0,0-.84-2.45,3.11,3.11,0,0,0-2.37-.88,3.67,3.67,0,0,0-2.75,1.08,4.53,4.53,0,0,0-1.07,3.31v6.17h-1.55V837h1.55v1.84A4.35,4.35,0,0,1,1476.27,836.73Z" transform="translate(-154.05 -159.59)"/><rect class="cls-2" x="695.63" y="521.29" width="117.97" height="52.56" rx="24.74"/><rect class="cls-2" x="1499.12" y="657.16" width="89.24" height="52.56" rx="24.74"/><rect class="cls-2" x="828.02" y="521.29" width="151.45" height="52.56" rx="24.74"/><rect class="cls-2" x="1476.69" y="521.29" width="91.9" height="52.56" rx="24.74"/><rect class="cls-2" x="993.38" y="521.29" width="230.48" height="52.56" rx="24.74"/><rect class="cls-2" x="1237.78" y="521.29" width="226.26" height="52.56" rx="24.74"/><rect class="cls-2" x="1141.83" y="657.16" width="208.87" height="52.56" rx="24.74"/><path class="cls-1" d="M1548.55,842.93a4.42,4.42,0,0,1,1.92,1.57,4.14,4.14,0,0,1,.72,2.4,4.59,4.59,0,0,1-4.6,4.59h-7.19V835h6.65a4.46,4.46,0,0,1,4.43,4.43A3.9,3.9,0,0,1,1548.55,842.93Zm-2.5-6.38h-5v5.75h5a2.62,2.62,0,0,0,2-.84,2.92,2.92,0,0,0,0-4.06A2.59,2.59,0,0,0,1546.05,836.55Zm.54,13.39a2.78,2.78,0,0,0,2.08-.89,3.09,3.09,0,0,0,0-4.3,2.76,2.76,0,0,0-2.08-.9h-5.54v6.09Z" transform="translate(-154.05 -159.59)"/><path class="cls-1" d="M1553.78,851.49V834.28h1.55v17.21Z" transform="translate(-154.05 -159.59)"/><path class="cls-1" d="M1564.08,839.42a5.37,5.37,0,0,1,4.23,1.85,6.44,6.44,0,0,1,1.62,4.38c0,.17,0,.41,0,.73h-10.35a4.23,4.23,0,0,0,1.52,2.84,4.85,4.85,0,0,0,3.17,1,4.61,4.61,0,0,0,2.32-.56,3.69,3.69,0,0,0,1.48-1.45l1.36.8a5.4,5.4,0,0,1-2.12,2,6.24,6.24,0,0,1-3.06.73,6.13,6.13,0,0,1-4.53-1.74,6.51,6.51,0,0,1,0-8.84A5.89,5.89,0,0,1,1564.08,839.42Zm0,1.51a4.41,4.41,0,0,0-4.55,3.94h8.79a4.36,4.36,0,0,0-1.43-2.9A4.2,4.2,0,0,0,1564.08,840.93Z" transform="translate(-154.05 -159.59)"/><path class="cls-1" d="M1577.92,839.42a4.43,4.43,0,0,1,3.38,1.31,4.9,4.9,0,0,1,1.24,3.52v7.24H1581v-7.24a3.43,3.43,0,0,0-.83-2.45,3.14,3.14,0,0,0-2.37-.87A3.72,3.72,0,0,0,1575,842a4.55,4.55,0,0,0-1.06,3.32v6.17h-1.56V839.7H1574v1.84A4.37,4.37,0,0,1,1577.92,839.42Z" transform="translate(-154.05 -159.59)"/><path class="cls-1" d="M1595.69,835h1.56v16.5h-1.56v-2.31a5.26,5.26,0,0,1-4.76,2.59,5.81,5.81,0,0,1-4.3-1.79,6.29,6.29,0,0,1,0-8.77,5.84,5.84,0,0,1,4.3-1.79,5.27,5.27,0,0,1,4.76,2.6Zm-7.94,13.92a4.68,4.68,0,0,0,6.6,0,4.76,4.76,0,0,0,0-6.62,4.65,4.65,0,0,0-7.95,3.31A4.51,4.51,0,0,0,1587.75,848.91Z" transform="translate(-154.05 -159.59)"/><path class="cls-1" d="M1606,839.42a5.34,5.34,0,0,1,4.23,1.85,6.44,6.44,0,0,1,1.62,4.38c0,.17,0,.41,0,.73h-10.35a4.27,4.27,0,0,0,1.52,2.84,4.86,4.86,0,0,0,3.17,1,4.67,4.67,0,0,0,2.33-.56,3.73,3.73,0,0,0,1.47-1.45l1.37.8a5.49,5.49,0,0,1-2.13,2,6.24,6.24,0,0,1-3.06.73,6.16,6.16,0,0,1-4.53-1.74,6.51,6.51,0,0,1,0-8.84A5.92,5.92,0,0,1,1606,839.42Zm0,1.51a4.43,4.43,0,0,0-4.55,3.94h8.8a4.42,4.42,0,0,0-1.44-2.9A4.18,4.18,0,0,0,1606,840.93Z" transform="translate(-154.05 -159.59)"/><path class="cls-1" d="M1615.87,841.66a3.82,3.82,0,0,1,3.72-2.14V841a3.86,3.86,0,0,0-2.66.94,3.77,3.77,0,0,0-1.06,3v6.55h-1.56V839.7h1.56Z" transform="translate(-154.05 -159.59)"/><path class="cls-1" d="M1154.18,780.17l-1.53-4.06h-7.84l-1.53,4.06h-1.74l6.34-16.51h1.7l6.34,16.51Zm-8.78-5.61h6.66l-3.33-8.83Z" transform="translate(-154.05 -159.59)"/><path class="cls-1" d="M1167.71,763.66h1.55v16.51h-1.55v-2.31a5.31,5.31,0,0,1-4.77,2.59,5.86,5.86,0,0,1-4.3-1.79,6.29,6.29,0,0,1,0-8.77,5.82,5.82,0,0,1,4.3-1.79,5.29,5.29,0,0,1,4.77,2.59Zm-8,13.92a4.65,4.65,0,0,0,8-3.31,4.51,4.51,0,0,0-1.35-3.31,4.68,4.68,0,0,0-6.6,0,4.76,4.76,0,0,0,0,6.62Z" transform="translate(-154.05 -159.59)"/><path class="cls-1" d="M1182.45,778.67a6.32,6.32,0,0,1-8.79,0,6.18,6.18,0,0,1,4.39-10.57,6,6,0,0,1,4.4,1.78,6.27,6.27,0,0,1,0,8.79Zm-7.7-1.09a4.65,4.65,0,0,0,8-3.31,4.51,4.51,0,0,0-1.35-3.31,4.68,4.68,0,0,0-6.6,0,4.76,4.76,0,0,0,0,6.62Z" transform="translate(-154.05 -159.59)"/><path class="cls-1" d="M1193.17,768.1a5.82,5.82,0,0,1,4.3,1.79,6.29,6.29,0,0,1,0,8.77,5.86,5.86,0,0,1-4.3,1.79,5.3,5.3,0,0,1-4.77-2.59v2.31h-1.55V763.66h1.55v7A5.28,5.28,0,0,1,1193.17,768.1Zm-3.42,9.48a4.68,4.68,0,0,0,6.6,0,4.67,4.67,0,0,0-3.3-8,4.47,4.47,0,0,0-3.3,1.36,4.73,4.73,0,0,0,0,6.62Z" transform="translate(-154.05 -159.59)"/><path class="cls-1" d="M1207.28,768.1a5.34,5.34,0,0,1,4.24,1.85,6.45,6.45,0,0,1,1.61,4.37,5.76,5.76,0,0,1-.05.73h-10.34a4.19,4.19,0,0,0,1.52,2.84,4.83,4.83,0,0,0,3.17,1.05,4.63,4.63,0,0,0,2.32-.55,3.8,3.8,0,0,0,1.47-1.45l1.37.8a5.69,5.69,0,0,1-2.12,2,6.42,6.42,0,0,1-3.07.73,6.09,6.09,0,0,1-4.52-1.75,6,6,0,0,1-1.75-4.43,6.1,6.1,0,0,1,1.72-4.41A6,6,0,0,1,1207.28,768.1Zm0,1.5a4.46,4.46,0,0,0-3.07,1.1,4.4,4.4,0,0,0-1.47,2.84h8.79a4.42,4.42,0,0,0-1.44-2.9A4.18,4.18,0,0,0,1207.28,769.6Z" transform="translate(-154.05 -159.59)"/><path class="cls-1" d="M1227.63,763.66a5.19,5.19,0,1,1,0,10.38h-4.24v6.13h-1.66V763.66Zm0,8.82a3.4,3.4,0,0,0,2.53-1,3.59,3.59,0,0,0,1-2.61,3.55,3.55,0,0,0-1-2.6,3.37,3.37,0,0,0-2.53-1h-4.24v7.26Z" transform="translate(-154.05 -159.59)"/><path class="cls-1" d="M1236.73,770.34a3.83,3.83,0,0,1,3.72-2.15v1.51a3.85,3.85,0,0,0-2.66.94,3.77,3.77,0,0,0-1.06,3v6.56h-1.56V768.38h1.56Z" transform="translate(-154.05 -159.59)"/><path class="cls-1" d="M1247.31,768.1a5.31,5.31,0,0,1,4.23,1.85,6.41,6.41,0,0,1,1.62,4.37c0,.17,0,.42-.05.73h-10.35a4.27,4.27,0,0,0,1.52,2.84,4.86,4.86,0,0,0,3.17,1.05,4.67,4.67,0,0,0,2.33-.55,3.8,3.8,0,0,0,1.47-1.45l1.37.8a5.65,5.65,0,0,1-2.13,2,6.35,6.35,0,0,1-3.06.73,6.13,6.13,0,0,1-4.53-1.75,6.17,6.17,0,0,1,4.41-10.6Zm0,1.5a4.43,4.43,0,0,0-4.55,3.94h8.8a4.42,4.42,0,0,0-1.44-2.9A4.18,4.18,0,0,0,1247.31,769.6Z" transform="translate(-154.05 -159.59)"/><path class="cls-1" d="M1268.2,768.1a4.2,4.2,0,0,1,3.19,1.27,4.79,4.79,0,0,1,1.22,3.44v7.36h-1.56v-7.36a3.31,3.31,0,0,0-.79-2.37,2.73,2.73,0,0,0-2.09-.84,3.07,3.07,0,0,0-2.36,1,4.37,4.37,0,0,0-.91,3.06v6.53h-1.56v-7.36a3.46,3.46,0,0,0-.74-2.38,2.59,2.59,0,0,0-2-.83,3.27,3.27,0,0,0-2.4,1,4.16,4.16,0,0,0-1,3v6.53h-1.56V768.38h1.56v1.72a4,4,0,0,1,3.61-2,3.66,3.66,0,0,1,3.58,2.14A4.15,4.15,0,0,1,1268.2,768.1Z" transform="translate(-154.05 -159.59)"/><path class="cls-1" d="M1277.2,765.55a1.08,1.08,0,0,1-.8.33,1.13,1.13,0,0,1-1.13-1.13,1.08,1.08,0,0,1,.33-.8,1.09,1.09,0,0,1,.8-.33,1.13,1.13,0,0,1,1.13,1.13A1.09,1.09,0,0,1,1277.2,765.55Zm-1.58,14.62V768.38h1.56v11.79Z" transform="translate(-154.05 -159.59)"/><path class="cls-1" d="M1285.92,768.1a5.34,5.34,0,0,1,4.24,1.85,6.45,6.45,0,0,1,1.61,4.37,5.76,5.76,0,0,1,0,.73h-10.34a4.19,4.19,0,0,0,1.52,2.84,4.83,4.83,0,0,0,3.17,1.05,4.63,4.63,0,0,0,2.32-.55,3.8,3.8,0,0,0,1.47-1.45l1.37.8a5.69,5.69,0,0,1-2.12,2,6.42,6.42,0,0,1-3.07.73,6.09,6.09,0,0,1-4.52-1.75,6,6,0,0,1-1.75-4.43,6.1,6.1,0,0,1,1.72-4.41A6,6,0,0,1,1285.92,768.1Zm0,1.5a4.46,4.46,0,0,0-3.07,1.1,4.4,4.4,0,0,0-1.47,2.84h8.79a4.42,4.42,0,0,0-1.44-2.9A4.18,4.18,0,0,0,1285.92,769.6Z" transform="translate(-154.05 -159.59)"/><path class="cls-1" d="M1295.8,770.34a3.85,3.85,0,0,1,3.73-2.15v1.51a3.87,3.87,0,0,0-2.67.94,3.81,3.81,0,0,0-1.06,3v6.56h-1.55V768.38h1.55Z" transform="translate(-154.05 -159.59)"/><path class="cls-1" d="M1313.86,768.1a5.82,5.82,0,0,1,4.3,1.79,6.29,6.29,0,0,1,0,8.77,5.86,5.86,0,0,1-4.3,1.79,5.28,5.28,0,0,1-4.76-2.59v7h-1.56v-16.5h1.56v2.31A5.26,5.26,0,0,1,1313.86,768.1Zm-3.42,9.48a4.65,4.65,0,0,0,8-3.31A4.51,4.51,0,0,0,1317,771a4.68,4.68,0,0,0-6.6,0,4.76,4.76,0,0,0,0,6.62Z" transform="translate(-154.05 -159.59)"/><path class="cls-1" d="M1324.09,770.34a3.83,3.83,0,0,1,3.72-2.15v1.51a3.86,3.86,0,0,0-2.66.94,3.77,3.77,0,0,0-1.06,3v6.56h-1.56V768.38h1.56Z" transform="translate(-154.05 -159.59)"/><path class="cls-1" d="M1339.12,778.67a6.33,6.33,0,0,1-8.8,0,6.27,6.27,0,0,1,0-8.79,6.33,6.33,0,0,1,8.8,0,6.27,6.27,0,0,1,0,8.79Zm-7.7-1.09a4.65,4.65,0,0,0,7.95-3.31A4.51,4.51,0,0,0,1338,771a4.68,4.68,0,0,0-6.6,0,4.76,4.76,0,0,0,0,6.62Z" transform="translate(-154.05 -159.59)"/><path class="cls-1" d="M888.32,782.63l-1.53-4.06H879l-1.53,4.06h-1.74l6.34-16.5h1.7l6.34,16.5ZM879.55,777h6.66l-3.33-8.83Z" transform="translate(-154.05 -159.59)"/><path class="cls-1" d="M901.85,766.13h1.56v16.5h-1.56v-2.31a5.26,5.26,0,0,1-4.76,2.59,5.84,5.84,0,0,1-4.3-1.79,6.29,6.29,0,0,1,0-8.77,5.84,5.84,0,0,1,4.3-1.79,5.26,5.26,0,0,1,4.76,2.59Zm-7.94,13.92a4.71,4.71,0,0,0,6.6,0,4.77,4.77,0,0,0,0-6.63,4.68,4.68,0,0,0-6.6,6.63Z" transform="translate(-154.05 -159.59)"/><path class="cls-1" d="M916.6,781.13a6.33,6.33,0,0,1-8.8,0,6.27,6.27,0,0,1,0-8.79,6.33,6.33,0,0,1,8.8,0,6.27,6.27,0,0,1,0,8.79Zm-7.7-1.08a4.77,4.77,0,1,0-1.34-3.32A4.49,4.49,0,0,0,908.9,780.05Z" transform="translate(-154.05 -159.59)"/><path class="cls-1" d="M927.31,770.56a5.84,5.84,0,0,1,4.3,1.79,6.29,6.29,0,0,1,0,8.77,5.84,5.84,0,0,1-4.3,1.79,5.26,5.26,0,0,1-4.76-2.59v2.31H921v-16.5h1.56v7A5.26,5.26,0,0,1,927.31,770.56Zm-3.42,9.49a4.67,4.67,0,1,0,0-6.63,4.77,4.77,0,0,0,0,6.63Z" transform="translate(-154.05 -159.59)"/><path class="cls-1" d="M941.43,770.56a5.34,5.34,0,0,1,4.23,1.85,6.41,6.41,0,0,1,1.62,4.37c0,.17,0,.42,0,.73H936.88a4.25,4.25,0,0,0,1.52,2.84,4.86,4.86,0,0,0,3.17,1,4.6,4.6,0,0,0,2.32-.55,3.69,3.69,0,0,0,1.48-1.45l1.37.8a5.65,5.65,0,0,1-2.13,2,6.24,6.24,0,0,1-3.06.73,6.14,6.14,0,0,1-4.53-1.74,6.51,6.51,0,0,1,0-8.84A5.91,5.91,0,0,1,941.43,770.56Zm0,1.51a4.4,4.4,0,0,0-4.55,3.93h8.79a4.39,4.39,0,0,0-1.43-2.9A4.19,4.19,0,0,0,941.43,772.07Z" transform="translate(-154.05 -159.59)"/><path class="cls-1" d="M966.87,782.63l-1.53-4.06h-7.83L956,782.63h-1.75l6.34-16.5h1.7l6.34,16.5ZM958.09,777h6.66l-3.33-8.83Z" transform="translate(-154.05 -159.59)"/><path class="cls-1" d="M976,767.35a3.38,3.38,0,0,0-2.56.59,3.08,3.08,0,0,0-.84,2.43v.47H976v1.51h-3.4v10.28h-1.55V772.35h-2v-1.51h2v-.47a4.52,4.52,0,0,1,1.28-3.5,4.72,4.72,0,0,1,3.67-1Z" transform="translate(-154.05 -159.59)"/><path class="cls-1" d="M984.4,772.35H981v7.14a2,2,0,0,0,.38,1.38,1.48,1.48,0,0,0,1.13.43c.5,0,1.13,0,1.88,0v1.37a5.71,5.71,0,0,1-3.71-.36,3,3,0,0,1-1.24-2.78v-7.14H977v-1.51h2.47V768l1.56-.47v3.3h3.39Z" transform="translate(-154.05 -159.59)"/><path class="cls-1" d="M991.74,770.56a5.37,5.37,0,0,1,4.23,1.85,6.45,6.45,0,0,1,1.61,4.37,5.76,5.76,0,0,1-.05.73H987.19a4.17,4.17,0,0,0,1.52,2.84,4.83,4.83,0,0,0,3.17,1,4.63,4.63,0,0,0,2.32-.55,3.73,3.73,0,0,0,1.47-1.45l1.37.8a5.69,5.69,0,0,1-2.12,2,6.3,6.3,0,0,1-3.07.73,6.12,6.12,0,0,1-4.52-1.74,6,6,0,0,1-1.75-4.44,6.06,6.06,0,0,1,1.72-4.4A5.93,5.93,0,0,1,991.74,770.56Zm0,1.51a4.46,4.46,0,0,0-3.08,1.09,4.4,4.4,0,0,0-1.47,2.84H996a4.44,4.44,0,0,0-1.44-2.9A4.16,4.16,0,0,0,991.74,772.07Z" transform="translate(-154.05 -159.59)"/><path class="cls-1" d="M1001.61,772.8a3.85,3.85,0,0,1,3.73-2.15v1.51a3.92,3.92,0,0,0-2.67.94,3.81,3.81,0,0,0-1.06,3v6.56h-1.55V770.84h1.55Z" transform="translate(-154.05 -159.59)"/><path class="cls-1" d="M1015.24,781.07h8v1.56h-9.66v-16.5h9.55v1.55h-7.9v5.85h7.31v1.55h-7.31Z" transform="translate(-154.05 -159.59)"/><path class="cls-1" d="M1038.1,767.12a3.31,3.31,0,0,0-2.55.59,3,3,0,0,0-.84,2.42v.71h3.39v1.51h-3.39v10.28h-1.56V772.35h-4.81v10.28h-1.55V772.35h-2v-1.51h2v-.47a4.55,4.55,0,0,1,1.28-3.5,4.72,4.72,0,0,1,3.67-1v1.51a3.38,3.38,0,0,0-2.56.59,3.08,3.08,0,0,0-.84,2.43v.47h4.81v-.71a4.54,4.54,0,0,1,1.29-3.5,4.7,4.7,0,0,1,3.66-1Z" transform="translate(-154.05 -159.59)"/><path class="cls-1" d="M1044.49,770.56a5.34,5.34,0,0,1,4.23,1.85,6.41,6.41,0,0,1,1.62,4.37c0,.17,0,.42,0,.73h-10.35a4.25,4.25,0,0,0,1.52,2.84,4.86,4.86,0,0,0,3.17,1,4.67,4.67,0,0,0,2.33-.55,3.73,3.73,0,0,0,1.47-1.45l1.37.8a5.69,5.69,0,0,1-2.12,2,6.3,6.3,0,0,1-3.07.73,6.16,6.16,0,0,1-4.53-1.74,6.51,6.51,0,0,1,0-8.84A5.92,5.92,0,0,1,1044.49,770.56Zm0,1.51a4.41,4.41,0,0,0-4.55,3.93h8.8a4.44,4.44,0,0,0-1.44-2.9A4.17,4.17,0,0,0,1044.49,772.07Z" transform="translate(-154.05 -159.59)"/><path class="cls-1" d="M1058.31,782.91a6.18,6.18,0,1,1,3.13-11.52,5,5,0,0,1,2,2.26l-1.27.73a3.76,3.76,0,0,0-1.52-1.69,4.6,4.6,0,0,0-2.37-.62,4.46,4.46,0,0,0-3.3,1.35,4.75,4.75,0,0,0,0,6.63,4.46,4.46,0,0,0,3.3,1.35,4.51,4.51,0,0,0,2.35-.62,4.41,4.41,0,0,0,1.63-1.69l1.3.76a5.51,5.51,0,0,1-2.15,2.24A6.1,6.1,0,0,1,1058.31,782.91Z" transform="translate(-154.05 -159.59)"/><path class="cls-1" d="M1072.07,772.35h-3.39v7.14a2,2,0,0,0,.38,1.38,1.47,1.47,0,0,0,1.13.43c.5,0,1.13,0,1.88,0v1.37a5.71,5.71,0,0,1-3.71-.36,3,3,0,0,1-1.24-2.78v-7.14h-2.47v-1.51h2.47V768l1.56-.47v3.3h3.39Z" transform="translate(-154.05 -159.59)"/><path class="cls-1" d="M1075.18,773.9a1.43,1.43,0,0,0,.72,1.25,6.4,6.4,0,0,0,1.73.75l2,.58a3.63,3.63,0,0,1,1.71,1,2.81,2.81,0,0,1,.7,2,3,3,0,0,1-1.19,2.45,4.81,4.81,0,0,1-3.08.94,5.34,5.34,0,0,1-2.89-.75,4.13,4.13,0,0,1-1.66-2l1.32-.78a2.77,2.77,0,0,0,1.19,1.45,3.78,3.78,0,0,0,2,.53,3.68,3.68,0,0,0,1.93-.46,1.53,1.53,0,0,0,.78-1.42,1.43,1.43,0,0,0-.71-1.27,5.8,5.8,0,0,0-1.72-.76l-2-.58a3.75,3.75,0,0,1-1.72-1,2.65,2.65,0,0,1-.71-1.94,3,3,0,0,1,1.14-2.41,4.34,4.34,0,0,1,2.89-1,4.73,4.73,0,0,1,2.52.65,4,4,0,0,1,1.61,1.75l-1.3.76a2.75,2.75,0,0,0-2.83-1.65,3.06,3.06,0,0,0-1.74.47A1.53,1.53,0,0,0,1075.18,773.9Z" transform="translate(-154.05 -159.59)"/><path class="cls-1" d="M1410.76,782.5l-1.53-4h-7.83l-1.53,4h-1.74l6.34-16.5h1.69l6.34,16.5Zm-8.77-5.61h6.65l-3.32-8.82Z" transform="translate(-154.05 -159.59)"/><path class="cls-1" d="M1422.57,770.71h1.56V782.5h-1.56v-1.84a4.35,4.35,0,0,1-4,2.12,4.39,4.39,0,0,1-3.38-1.31A4.88,4.88,0,0,1,1414,778v-7.24h1.56V778a3.38,3.38,0,0,0,.83,2.45,3.14,3.14,0,0,0,2.37.87,3.7,3.7,0,0,0,2.76-1.07,4.52,4.52,0,0,0,1.06-3.31Z" transform="translate(-154.05 -159.59)"/><path class="cls-1" d="M1433.67,772.22h-3.39v7.14a2,2,0,0,0,.38,1.38,1.47,1.47,0,0,0,1.13.43c.5,0,1.13,0,1.88,0v1.37a5.79,5.79,0,0,1-3.71-.35,3,3,0,0,1-1.24-2.79v-7.14h-2.47v-1.51h2.47v-2.83l1.56-.47v3.3h3.39Z" transform="translate(-154.05 -159.59)"/><path class="cls-1" d="M1445.45,781a6.32,6.32,0,0,1-8.79,0,6.24,6.24,0,0,1,0-8.79,6.2,6.2,0,0,1,10.59,4.4A5.92,5.92,0,0,1,1445.45,781Zm-7.7-1.08a4.67,4.67,0,1,0,0-6.63,4.77,4.77,0,0,0,0,6.63Z" transform="translate(-154.05 -159.59)"/><path class="cls-1" d="M1460,766h1.56v16.5H1460v-2.31a5.26,5.26,0,0,1-4.76,2.59,5.81,5.81,0,0,1-4.3-1.79,6.29,6.29,0,0,1,0-8.77,5.84,5.84,0,0,1,4.3-1.79A5.26,5.26,0,0,1,1460,773ZM1452,779.92a4.71,4.71,0,0,0,6.6,0,4.77,4.77,0,0,0,0-6.63,4.68,4.68,0,0,0-6.6,6.63Z" transform="translate(-154.05 -159.59)"/><path class="cls-1" d="M1470.28,770.43a5.34,5.34,0,0,1,4.23,1.85,6.41,6.41,0,0,1,1.62,4.37c0,.18,0,.42-.05.73h-10.35a4.23,4.23,0,0,0,1.52,2.84,4.86,4.86,0,0,0,3.17,1,4.67,4.67,0,0,0,2.33-.55,3.73,3.73,0,0,0,1.47-1.45l1.37.8a5.65,5.65,0,0,1-2.13,2,6.24,6.24,0,0,1-3.06.73,6.16,6.16,0,0,1-4.53-1.74,6.51,6.51,0,0,1,0-8.84A5.91,5.91,0,0,1,1470.28,770.43Zm0,1.51a4.43,4.43,0,0,0-4.55,3.94h8.8a4.39,4.39,0,0,0-1.44-2.9A4.13,4.13,0,0,0,1470.28,771.94Z" transform="translate(-154.05 -159.59)"/><path class="cls-1" d="M1479.36,773.77a1.43,1.43,0,0,0,.71,1.25,6.66,6.66,0,0,0,1.74.76l2,.57a3.69,3.69,0,0,1,1.71,1,2.81,2.81,0,0,1,.7,2,3,3,0,0,1-1.19,2.45,4.79,4.79,0,0,1-3.08.94,5.28,5.28,0,0,1-2.88-.75,4,4,0,0,1-1.66-2l1.32-.78a2.65,2.65,0,0,0,1.19,1.45,4.23,4.23,0,0,0,4,.07,1.53,1.53,0,0,0,.78-1.42,1.46,1.46,0,0,0-.71-1.27,5.92,5.92,0,0,0-1.72-.76l-2-.58a3.82,3.82,0,0,1-1.72-1,2.73,2.73,0,0,1-.71-2,3,3,0,0,1,1.15-2.4,4.27,4.27,0,0,1,2.88-1,4.89,4.89,0,0,1,2.53.65,4,4,0,0,1,1.6,1.75l-1.3.76a2.74,2.74,0,0,0-2.83-1.65,3.19,3.19,0,0,0-1.74.47A1.52,1.52,0,0,0,1479.36,773.77Z" transform="translate(-154.05 -159.59)"/><path class="cls-1" d="M1498.24,782.5h-2.07l-5.9-5.68v5.68h-1.55V766h1.55v9.93l5.61-5.22H1498l-6.08,5.66Z" transform="translate(-154.05 -159.59)"/><path class="cls-1" d="M1511.62,772.87a5.59,5.59,0,0,1,3.26,1.52,4.47,4.47,0,0,1,1.28,3.32,4.59,4.59,0,0,1-1.62,3.72,5.91,5.91,0,0,1-3.92,1.35,6.29,6.29,0,0,1-3.28-.85,4.57,4.57,0,0,1-2-2.42l1.37-.81a3.25,3.25,0,0,0,1.44,1.85,4.71,4.71,0,0,0,2.5.63,4.2,4.2,0,0,0,2.79-.91,3.53,3.53,0,0,0,0-5.11,4.19,4.19,0,0,0-2.78-.91v0l0,0h-.46l-.72-1.11,4.1-5.61h-7.76V766h9.67v1.56Z" transform="translate(-154.05 -159.59)"/><path class="cls-1" d="M1528.89,766h1.55v16.5h-1.55v-2.31a5.29,5.29,0,0,1-4.77,2.59,5.82,5.82,0,0,1-4.3-1.79,6.29,6.29,0,0,1,0-8.77,5.86,5.86,0,0,1,4.3-1.79,5.29,5.29,0,0,1,4.77,2.59Zm-8,13.92a4.67,4.67,0,1,0,0-6.63,4.77,4.77,0,0,0,0,6.63Z" transform="translate(-154.05 -159.59)"/><path class="cls-1" d="M1545.06,782.78a6.8,6.8,0,0,1-3.88-1.07,5.57,5.57,0,0,1-2.25-3l1.41-.82a4.34,4.34,0,0,0,1.65,2.39,5.2,5.2,0,0,0,3.09.86,4.49,4.49,0,0,0,2.86-.81,2.61,2.61,0,0,0,1-2.16,2.24,2.24,0,0,0-.94-2,12.56,12.56,0,0,0-3.12-1.36,19,19,0,0,1-3.39-1.37,3.62,3.62,0,0,1-1.89-3.28,4.06,4.06,0,0,1,1.47-3.31,5.42,5.42,0,0,1,3.6-1.21,5.62,5.62,0,0,1,3.35,1,6.15,6.15,0,0,1,2.1,2.56l-1.39.77a4.08,4.08,0,0,0-4.06-2.73,3.85,3.85,0,0,0-2.47.75,2.56,2.56,0,0,0-1,2.1,2.14,2.14,0,0,0,.85,1.84,10.91,10.91,0,0,0,2.81,1.25l1.28.44c.26.08.64.22,1.13.42a6.86,6.86,0,0,1,1.1.52c.24.15.52.35.86.61a2.75,2.75,0,0,1,.73.78,4.91,4.91,0,0,1,.4.94,3.85,3.85,0,0,1,.18,1.19,4.13,4.13,0,0,1-1.53,3.36A6.15,6.15,0,0,1,1545.06,782.78Z" transform="translate(-154.05 -159.59)"/><path class="cls-1" d="M1559.11,772.22h-3.4v7.14a2,2,0,0,0,.38,1.38,1.48,1.48,0,0,0,1.13.43c.5,0,1.13,0,1.89,0v1.37a5.82,5.82,0,0,1-3.72-.35,3,3,0,0,1-1.23-2.79v-7.14h-2.48v-1.51h2.48v-2.83l1.55-.47v3.3h3.4Z" transform="translate(-154.05 -159.59)"/><path class="cls-1" d="M1570,770.71h1.55V782.5H1570v-1.84a4.35,4.35,0,0,1-4,2.12,4.43,4.43,0,0,1-3.39-1.31,4.92,4.92,0,0,1-1.23-3.52v-7.24H1563V778a3.39,3.39,0,0,0,.84,2.45,3.14,3.14,0,0,0,2.37.87,3.7,3.7,0,0,0,2.76-1.07,4.57,4.57,0,0,0,1.06-3.31Z" transform="translate(-154.05 -159.59)"/><path class="cls-1" d="M1585,766h1.56v16.5H1585v-2.31a5.27,5.27,0,0,1-4.76,2.59,5.81,5.81,0,0,1-4.3-1.79,6.29,6.29,0,0,1,0-8.77,5.84,5.84,0,0,1,4.3-1.79A5.27,5.27,0,0,1,1585,773Zm-8,13.92a4.72,4.72,0,0,0,6.61,0,4.77,4.77,0,0,0,0-6.63,4.72,4.72,0,0,0-6.61,0,4.77,4.77,0,0,0,0,6.63Z" transform="translate(-154.05 -159.59)"/><path class="cls-1" d="M1591.42,767.88a1.08,1.08,0,0,1-.8.33,1.09,1.09,0,0,1-.8-.33,1.08,1.08,0,0,1-.33-.8,1.13,1.13,0,0,1,1.13-1.13,1.08,1.08,0,0,1,.8.33,1.09,1.09,0,0,1,.33.8A1.08,1.08,0,0,1,1591.42,767.88Zm-1.58,14.62V770.71h1.56V782.5Z" transform="translate(-154.05 -159.59)"/><path class="cls-1" d="M1604.59,781a6.32,6.32,0,0,1-8.79,0,6.24,6.24,0,0,1,0-8.79,6.2,6.2,0,0,1,10.59,4.4A5.92,5.92,0,0,1,1604.59,781Zm-7.7-1.08a4.67,4.67,0,1,0,0-6.63,4.77,4.77,0,0,0,0,6.63Z" transform="translate(-154.05 -159.59)"/><path class="cls-1" d="M1630.2,766v16.5h-1.65v-14l-5.77,9.66h-.24l-5.77-9.66v14h-1.65V766h2l5.52,9.23,5.52-9.23Z" transform="translate(-154.05 -159.59)"/><path class="cls-1" d="M1643.87,770.71h1.56V782.5h-1.56v-2.31a5.26,5.26,0,0,1-4.76,2.59,5.82,5.82,0,0,1-4.3-1.79,6.29,6.29,0,0,1,0-8.77,5.86,5.86,0,0,1,4.3-1.79,5.26,5.26,0,0,1,4.76,2.59Zm-7.94,9.21a4.77,4.77,0,1,0-1.34-3.31A4.49,4.49,0,0,0,1635.93,779.92Z" transform="translate(-154.05 -159.59)"/><path class="cls-1" d="M1658.63,782.5h-1.86l-3.68-4.86-3.68,4.86h-1.86l4.61-6.1-4.3-5.69h1.86l3.37,4.46,3.37-4.46h1.86l-4.3,5.69Z" transform="translate(-154.05 -159.59)"/><rect class="cls-2" x="1365.19" y="657.16" width="119.1" height="52.56" rx="24.74"/><rect class="cls-2" x="968.61" y="588.38" width="237.85" height="52.56" rx="24.74"/><rect class="cls-2" x="695.63" y="588.38" width="259.1" height="52.56" rx="24.74"/><rect class="cls-2" x="1221.26" y="588.38" width="306.38" height="52.56" rx="24.74"/><text class="cls-3" transform="translate(581.24 92.91)">U/<tspan class="cls-4" x="36.89" y="0">U</tspan><tspan x="57.04" y="0">X D</tspan><tspan class="cls-5" x="105.09" y="0">e</tspan><tspan class="cls-6" x="122.57" y="0">s</tspan><tspan x="136.49" y="0">ign | </tspan><tspan class="cls-7" x="202.4" y="0">L</tspan><tspan x="216.81" y="0">ogo and B</tspan><tspan class="cls-8" x="365.55" y="0">r</tspan><tspan x="374.35" y="0">and D</tspan><tspan class="cls-5" x="461.15" y="0">e</tspan><tspan class="cls-9" x="478.63" y="0">s</tspan><tspan x="492.55" y="0">ign | </tspan><tspan class="cls-5" x="558.46" y="0">V</tspan><tspan x="576.69" y="0">ideo </tspan><tspan class="cls-10" x="647.43" y="0">E</tspan><tspan x="663.55" y="0">diting | </tspan><tspan class="cls-11" x="767.18" y="0">P</tspan><tspan class="cls-4" x="784.23" y="0">o</tspan><tspan class="cls-5" x="802.7" y="0">s</tspan><tspan class="cls-12" x="816.16" y="0">t</tspan><tspan x="826.85" y="0">e</tspan><tspan class="cls-13" x="844.96" y="0">r</tspan><tspan class="cls-14" x="854.07" y="0">s and </tspan><tspan x="0" y="52">Fl</tspan><tspan class="cls-5" x="22.35" y="52">y</tspan><tspan x="37.54" y="52">e</tspan><tspan class="cls-5" x="55.65" y="52">r</tspan><tspan x="64.76" y="52">s | M</tspan><tspan class="cls-4" x="126.14" y="52">o</tspan><tspan x="144.61" y="52">tion G</tspan><tspan class="cls-12" x="230.92" y="52">r</tspan><tspan x="239.72" y="52">aphi</tspan><tspan class="cls-9" x="302.84" y="52">c</tspan><tspan x="319.79" y="52">s | </tspan><tspan class="cls-5" x="356.37" y="52">V</tspan><tspan x="374.6" y="52">ideo </tspan><tspan class="cls-4" x="445.34" y="52">E</tspan><tspan x="461.46" y="52">diting | Digi</tspan><tspan class="cls-12" x="619.9" y="52">t</tspan><tspan x="630.6" y="52">al </tspan><tspan class="cls-11" x="664.45" y="52">P</tspan><tspan x="681.5" y="52">ainting and </tspan><tspan class="cls-5" x="852.15" y="52">v</tspan><tspan x="867.34" y="52">ec</tspan><tspan class="cls-8" x="902.56" y="52">t</tspan><tspan x="913.25" y="52">or a</tspan><tspan class="cls-15" x="969.24" y="52">r</tspan><tspan x="979.28" y="52" xml:space="preserve">t  </tspan><tspan class="cls-16" x="0" y="104">W</tspan><tspan x="29.14" y="104">eb D</tspan><tspan class="cls-5" x="97.03" y="104">e</tspan><tspan class="cls-9" x="114.51" y="104">s</tspan><tspan x="128.43" y="104">ign and D</tspan><tspan class="cls-5" x="266.38" y="104">ev</tspan><tspan x="299.06" y="104">elopment | 3D Modeling</tspan></text><line class="cls-17" y1="462.62" x2="1631.83" y2="462.62"/></svg>