<svg id="Layer_1" data-name="Layer 1" xmlns="http://www.w3.org/2000/svg" xmlns:xlink="http://www.w3.org/1999/xlink" viewBox="0 0 661.92 331.54"><defs><style>.cls-1{fill:#0c0c0c;}</style></defs><path class="cls-1" d="M413,232.24V133.08h18.7V174h36.83V133.08h18.7v99.16h-18.7V191H431.73v41.22Z" transform="translate(-175.18 -40.83)"/><path class="cls-1" d="M538.54,234.23a37.23,37.23,0,0,1-18.48-4.47,31.31,31.31,0,0,1-12.47-12.6q-4.47-8.15-4.46-19.2v-1.7a39.88,39.88,0,0,1,4.39-19.2,31,31,0,0,1,12.32-12.61A37,37,0,0,1,538.26,160a34.22,34.22,0,0,1,18,4.61,31.62,31.62,0,0,1,11.9,12.75,40.22,40.22,0,0,1,4.25,18.91v6.09H521.26a15.88,15.88,0,0,0,5.38,11.76,18.11,18.11,0,0,0,12.47,4.53q7.51,0,11-3.26a22.71,22.71,0,0,0,5.38-7.22l14.6,7.65a45.64,45.64,0,0,1-5.74,8,31,31,0,0,1-10,7.37Q548.17,234.23,538.54,234.23ZM521.4,189h32.87a14,14,0,0,0-4.89-9.77q-4.32-3.69-11.26-3.68-7.23,0-11.48,3.68A15.84,15.84,0,0,0,521.4,189Z" transform="translate(-175.18 -40.83)"/><path class="cls-1" d="M588.27,232.24V133.08h17.85v99.16Z" transform="translate(-175.18 -40.83)"/><path class="cls-1" d="M626,232.24V133.08H643.8v99.16Z" transform="translate(-175.18 -40.83)"/><path class="cls-1" d="M697.07,234.23A41,41,0,0,1,678.23,230a31.91,31.91,0,0,1-13.18-12.33q-4.81-8.07-4.82-19.41V196q0-11.34,4.82-19.41a31.84,31.84,0,0,1,13.18-12.33,43.88,43.88,0,0,1,37.68,0,32,32,0,0,1,13.18,12.33q4.81,8.07,4.81,19.41v2.26q0,11.34-4.81,19.41A32,32,0,0,1,715.91,230,41,41,0,0,1,697.07,234.23Zm0-15.87a18.57,18.57,0,0,0,13.6-5.31q5.39-5.31,5.38-15.23V196.4q0-9.92-5.31-15.23a20.16,20.16,0,0,0-27.27,0q-5.38,5.31-5.38,15.23v1.42q0,9.92,5.38,15.23A18.57,18.57,0,0,0,697.07,218.36Z" transform="translate(-175.18 -40.83)"/><path class="cls-1" d="M428.25,338.71A15.24,15.24,0,0,1,417,334.39q-4.32-4.32-4.32-11.55V283.18H395.1V268.44h17.57V246.63h17.85v21.81h19.27v14.74H430.52v36.55q0,4.25,4,4.25h13.6v14.73Z" transform="translate(-175.18 -40.83)"/><path class="cls-1" d="M465.94,338.71V239.54h17.85v37.55h2.55a16.34,16.34,0,0,1,3.54-4.54,18.61,18.61,0,0,1,6.45-3.75,30.1,30.1,0,0,1,10.27-1.49A27.14,27.14,0,0,1,521,271.06a25.68,25.68,0,0,1,9.56,10.35,33,33,0,0,1,3.4,15.37v41.93H516.09V298.19q0-7.92-3.9-11.9t-11.12-4q-8.22,0-12.75,5.45T483.79,303v35.7Z" transform="translate(-175.18 -40.83)"/><path class="cls-1" d="M585.22,340.7a37.3,37.3,0,0,1-18.49-4.47,31.32,31.32,0,0,1-12.46-12.61,39.29,39.29,0,0,1-4.46-19.19v-1.7a39.85,39.85,0,0,1,4.39-19.2,31,31,0,0,1,12.32-12.61,37,37,0,0,1,18.42-4.46,34.31,34.31,0,0,1,18,4.6,31.58,31.58,0,0,1,11.9,12.76,40.22,40.22,0,0,1,4.25,18.91v6.09H567.94a15.88,15.88,0,0,0,5.38,11.76,18.11,18.11,0,0,0,12.47,4.53q7.5,0,11.05-3.26a23,23,0,0,0,5.38-7.22l14.6,7.65a45.64,45.64,0,0,1-5.74,8,31.23,31.23,0,0,1-10,7.37Q594.85,340.7,585.22,340.7Zm-17.14-45.2H601a14,14,0,0,0-4.89-9.77Q591.74,282,584.8,282q-7.23,0-11.48,3.69A15.82,15.82,0,0,0,568.08,295.5Z" transform="translate(-175.18 -40.83)"/><path class="cls-1" d="M635,338.71V268.44h17.57v7.94h2.55a11.18,11.18,0,0,1,5.17-6.24,17.22,17.22,0,0,1,8.43-2h8.5V284h-8.79a17,17,0,0,0-11.19,3.61q-4.4,3.62-4.39,11.12v39.95Z" transform="translate(-175.18 -40.83)"/><path class="cls-1" d="M720.52,340.7A37.27,37.27,0,0,1,702,336.23a31.34,31.34,0,0,1-12.47-12.61,39.4,39.4,0,0,1-4.46-19.19v-1.7a39.85,39.85,0,0,1,4.39-19.2,31.13,31.13,0,0,1,12.33-12.61,37,37,0,0,1,18.41-4.46,34.32,34.32,0,0,1,18,4.6,31.65,31.65,0,0,1,11.9,12.76,40.34,40.34,0,0,1,4.25,18.91v6.09H703.23a15.89,15.89,0,0,0,5.39,11.76,18.09,18.09,0,0,0,12.46,4.53q7.51,0,11-3.26a23,23,0,0,0,5.39-7.22l14.59,7.65a45.12,45.12,0,0,1-5.74,8,31,31,0,0,1-10,7.37Q730.16,340.7,720.52,340.7Zm-17.14-45.2h32.86a14,14,0,0,0-4.88-9.77Q727,282,720.09,282q-7.22,0-11.47,3.69A15.77,15.77,0,0,0,703.38,295.5Z" transform="translate(-175.18 -40.83)"/><path class="cls-1" d="M781.44,340.7a13.29,13.29,0,0,1-9.57-3.76,14.05,14.05,0,0,1,0-19.41,14.16,14.16,0,0,1,19.2,0,14.24,14.24,0,0,1,0,19.41A13.2,13.2,0,0,1,781.44,340.7Zm-9.07-34.57V239.54H790.5v66.59Z" transform="translate(-175.18 -40.83)"/><path class="cls-1" d="M823.65,340.7a13.25,13.25,0,0,1-9.56-3.76,14,14,0,0,1,0-19.41,14.15,14.15,0,0,1,19.19,0,14.21,14.21,0,0,1,0,19.41A13.2,13.2,0,0,1,823.65,340.7Zm-9.07-34.57V239.54h18.14v66.59Z" transform="translate(-175.18 -40.83)"/><image width="731" height="1019" transform="scale(0.33)" xlink:href="sanju.png"/></svg>