<svg id="Layer_1" data-name="Layer 1" xmlns="http://www.w3.org/2000/svg" xmlns:xlink="http://www.w3.org/1999/xlink" viewBox="0 0 1920 1080"><defs><style>.cls-1{fill:#0c0c0c;}</style></defs><path class="cls-1" d="M621.14,564.52V328h42.73V564.52Zm98.86,0V463.61q0-14-6.23-21.61T696,434.44q-32.16,0-32.16,44l-9.78-50.77H668q2.37-16.87,11.52-25.15t27.75-8.28q26.47,0,41,16.08t14.51,45.41v108.8Z"/><path class="cls-1" d="M896,567.67q-43.37,0-67-22.47T805.3,480.63q0-41,20.1-63.7t56.68-22.7q35.79,0,55.35,21t19.55,61q0,11.36-1,21.6H833.36V468.18H915q0-16.87-8.6-25.86t-24-9q-16.71,0-25.94,11.91t-9.22,33.82q0,23.64,13.64,35.95t38.86,12.3a209.61,209.61,0,0,0,22.39-1.19q11-1.18,22.55-3.23l4.1,40.36a257.74,257.74,0,0,1-29.33,3.63Q906.21,567.67,896,567.67Z"/><path class="cls-1" d="M988.51,367.27V328h50.14v39.26Zm106.75,200.4q-31.54,0-45.49-17.34t-14-55.51V328h42.58V493.25q0,10.41,2.2,17a16.3,16.3,0,0,0,8.52,9.77q6.3,3.16,18.76,3.16,13.88,0,35-6l4.89,43.84a207,207,0,0,1-25.86,5A212.57,212.57,0,0,1,1095.26,567.67Z"/><path class="cls-1" d="M1177.72,367.27V328h50.14v39.26Zm106.74,200.4q-31.53,0-45.48-17.34t-14-55.51V328h42.57V493.25q0,10.41,2.21,17a16.32,16.32,0,0,0,8.51,9.77q6.32,3.16,18.77,3.16,13.88,0,35-6l4.89,43.84a207.73,207.73,0,0,1-25.86,5A212.73,212.73,0,0,1,1284.46,567.67Z"/><path class="cls-1" d="M1448.76,567.67q-36.1,0-56-22.71t-19.86-64q0-41.47,19.86-64.09t56-22.63q36.1,0,56,22.63T1524.6,481q0,41.31-19.87,64T1448.76,567.67Zm.16-40.52q14.49,0,22.46-12.06t8-34.14q0-22.23-8-34.22t-22.62-12q-14.51,0-22.55,12t-8,34.22q0,22.08,8,34.14T1448.92,527.15Z"/><path class="cls-1" d="M579.4,676.41V637.94H733v38.47Zm39.24,45.42V588.51h41.71V721.83Zm80,82.95q-42.33,0-61.17-17t-18.85-54.38V712.09h41.71v17.3q0,18.71,9.65,27.19t31.75,8.5a145.41,145.41,0,0,0,15.21-.85q8.12-.86,18.46-2.24l3.71,39.08q-10.2,1.86-19.85,2.78T698.66,804.78Z"/><path class="cls-1" d="M779.91,801.69V570h41.86V801.69Zm96.86,0V702.82q0-13.74-6.1-21.16t-17.38-7.41q-31.51,0-31.52,43.09L812.2,667.6h13.59q2.33-16.51,11.28-24.64t27.19-8.1q25.95,0,40.16,15.75t14.21,44.49V801.69Z"/><path class="cls-1" d="M1049.16,804.78q-42.48,0-65.65-22t-23.17-63.26q0-40.17,19.7-62.41t55.53-22.24q35.07,0,54.22,20.54T1109,715.18q0,11.13-.93,21.17H987.84V707.3h80q0-16.51-8.41-25.33t-23.56-8.8q-16.38,0-25.41,11.66t-9,33.13q0,23.17,13.36,35.22t38.08,12.05a203.49,203.49,0,0,0,21.93-1.16q10.82-1.16,22.09-3.16l4,39.54a253,253,0,0,1-28.73,3.56Q1059.21,804.78,1049.16,804.78Z"/><path class="cls-1" d="M1137.06,801.69V765.85h114.62v35.84Zm6.18-127.91V637.94H1205l3.09,35.84Zm28.42,127.91V637.94h35.53l6.18,47V801.69Zm41.71-70.44-9.58-56.39h14.06q2.48-40,41.86-40,23.32,0,35.76,17.14t12.44,49.43h-41.56q0-14.52-5.32-20.85t-17.23-6.33q-15.29,0-22.86,14.83T1213.37,731.25Z"/><path class="cls-1" d="M1419.9,804.78q-42.48,0-65.65-22t-23.17-63.26q0-40.17,19.7-62.41t55.53-22.24q35.07,0,54.22,20.54t19.16,59.78q0,11.13-.93,21.17H1358.58V707.3h80q0-16.51-8.41-25.33t-23.56-8.8q-16.38,0-25.41,11.66t-9,33.13q0,23.17,13.36,35.22t38.08,12.05a203.82,203.82,0,0,0,21.94-1.16q10.8-1.16,22.09-3.16l4,39.54a253,253,0,0,1-28.73,3.56Q1429.95,804.78,1419.9,804.78Z"/><path class="cls-1" d="M1612.38,804.78a28.08,28.08,0,1,1,19.93-8.27A27,27,0,0,1,1612.38,804.78Zm-20.24-89-3.55-135h47.58l-4.17,135Zm162.36,89a28.1,28.1,0,1,1,19.92-8.27A27,27,0,0,1,1754.5,804.78Zm-20.24-89-3.55-135h47.58l-4.17,135Z"/><path class="cls-1" d="M1560.26,372.91V333.54h41.5l38.3,6.92,2.66-6.92-31.92-21.81-29.26-29.8,27.67-27.66L1639,283.53l21.81,31.92,6.92-2.66-6.92-38.3V233h39.37v41.5l-6.91,38.3,6.91,2.66L1722,283.53l29.79-29.26,27.66,27.66-29.26,29.8-31.92,21.81,2.66,6.92,38.31-6.92h41.49v39.37h-41.49L1720.93,366l-2.66,6.92,31.92,21.81,29.26,29.8-27.66,27.66L1722,422.92,1700.18,391l-6.91,2.66,6.91,38.3v41.5h-39.37V432l6.92-38.3-6.92-2.66L1639,422.92l-29.79,29.26-27.67-27.66,29.26-29.8,31.92-21.81-2.66-6.92-38.3,6.92Z"/><image width="2352" height="3936" transform="translate(102.93 117.47) scale(0.21)" xlink:href="sanju.png"/></svg>