<svg id="Layer_1" data-name="Layer 1" xmlns="http://www.w3.org/2000/svg" viewBox="0 0 104.68 56.57"><defs><style>.cls-1{fill:#af2323;stroke:#000;stroke-miterlimit:10;}</style></defs><rect class="cls-1" x="-2.32" y="-2.49" width="110.3" height="66.04"/><path d="M103.41,17.41c-2.44.84-4.88,1.68-7.27,2.64a18.55,18.55,0,0,1-12.42.77c-1.82-.54-2.73-.14-3.66,1.53-1,1.86-1.89,3.82-2.84,5.73-.62,1.24-1.21,1.42-2.28.58a12.8,12.8,0,0,1-1.82-1.86c-1.33-1.58-2.39-1.45-3.22.44a10.43,10.43,0,0,0-.48,1.53c-.39,1.5-.68,3-1.16,4.5-.39,1.18-1,1.27-1.73.26a22.24,22.24,0,0,1-1.88-3.28c-.64-1.32-1.32-2.5-3.08-2.45-.35-4.48-.65-8.83-1-13.18s-.86-8.89-1.36-13.33C59.15.82,58.67.41,58.38,0a4.65,4.65,0,0,0-.62,1.47c-.06,1.5,0,3,0,4.52.26,7.91.55,15.82.76,23.73A14.33,14.33,0,0,1,58,33.43c-.37,1.45-1.41,1.89-2.68,1.1a8.61,8.61,0,0,1-2.3-2.12c-1-1.37-1.79-2.89-2.7-4.33s-1.94-1.36-2.7,0a9.58,9.58,0,0,0-1,2.85c-.4,1.86-.64,3.76-1,5.64a.93.93,0,0,1-.27-.69c0-1.8.07-3.6,0-5.39,0-.39-.46-.76-.71-1.14-.35.34-.89.61-1,1-.33,1.07-.39,2.2-.69,3.28-.45,1.59-1,3.16-1.52,4.74l-.7-.09c-.07-1.51-.1-3-.23-4.52a14.28,14.28,0,0,0-.46-2.06,19.87,19.87,0,0,0-.79,1.92c-.64,2.13-1.18,4.28-1.9,6.38a1.65,1.65,0,0,1-1.34.82,1.67,1.67,0,0,1-1.11-1.14c-.51-3.19,1.07-5.81,2.16-8.56l.55.1v2.5l.63.07a32.58,32.58,0,0,0,.47-3.27A4.5,4.5,0,0,0,38.26,29c-.48.25-1.13.39-1.41.78a17.15,17.15,0,0,0-3.17,9.08,2,2,0,0,0,.22,1.27c.59.69,1.28,1.68,2,1.77a3.56,3.56,0,0,0,2.35-1.27,8.2,8.2,0,0,0,1.16-2.33C41.35,40.19,42,40,43,37.3c.34-.92.65-1.86,1.12-3.19A13.3,13.3,0,0,0,44.35,37a8.07,8.07,0,0,0,1.24,1.81c.41-.59,1-1.13,1.19-1.78.36-1.65.42-3.37.76-5a35.54,35.54,0,0,1,1.14-3.77,51.77,51.77,0,0,1,3.63,5.06c1.75,2.54,3.67,3.13,6.36,2-.12,1-.29,1.86-.32,2.77A1.44,1.44,0,0,1,57,39.64h0q-12,2.86-24,5.82-5.31,1.32-10.59,2.76c-.38.1-.65.57-1,.87a4,4,0,0,0,1.38.24c.71-.12,1.37-.5,2.07-.68l24.8-6.11,8.55-2.13c0,2.79-.12,5.36,0,7.91s.63,5,2.56,6.79c.44.41,1.3.89,1.71.72a2.72,2.72,0,0,0,1.38-1.63A9.45,9.45,0,0,0,64.06,51c-.32-3.38-.69-6.76-1.16-10.13-.17-1.19,0-1.8,1.31-2a33,33,0,0,0,3.4-.81c10.42-2.54,20.89-4.82,31-8.67a15.73,15.73,0,0,0,1.53-.78l-.24-.6c-4.14.9-8,2.78-12.11,3.82S79.48,34,75.33,35.08s-8.36,2-12.69,3.11c-.28-2.74-.56-5.24-.77-7.75a4,4,0,0,1,.35-1.32,4.77,4.77,0,0,1,1.1,1c.9,1.44,1.6,3,2.6,4.37s2.59,1.25,3.23-.47.94-3.36,1.42-5c.21-.71.5-1.39.84-2.33,1,1,1.62,1.87,2.41,2.56,2,1.8,3.52,1.46,4.66-1,.69-1.5,1.32-3,2.08-4.48,1.09-2.06,1.49-2.25,3.73-1.66a14.08,14.08,0,0,0,7.64.32c4-1.19,8-2.63,12-4,.32-.11.52-.57.77-.87A3.52,3.52,0,0,0,103.41,17.41Zm-43.82.48c.85,3.69,1,11.33,0,12.84Zm.84,14.52h.44c.18,1.76.42,3.52.53,5.29.08,1.43-1.16.85-2.19,1.34ZM62,55c-.64-1.07-1.7-2.08-1.85-3.22A102.64,102.64,0,0,1,59.3,41c0-.49,1.25-1,2-1.6C62.72,43.12,63.38,53.07,62,55Z"/><path d="M24.67,50.72c-1.41,1-2.75,2-4.18,2.93-6,3.86-17,1.83-18.85-8a25.54,25.54,0,0,1-.19-8.09A40.17,40.17,0,0,1,12.5,15.31a39.37,39.37,0,0,1,8.3-6.58c4.13-2.49,8.09-.52,9.22,4.18a10.26,10.26,0,0,1,.39,2.58c-.15,4.22-.19,8.44-.64,12.63a33.09,33.09,0,0,1-1.91,6.39c-.25.77-.89,1.35-1.63.68-2.88-2.6-6.35-4.1-9.89-5.49-3-1.19-3.51-2.95-1.43-5.48a20.37,20.37,0,0,1,8.73-6.13c1-.4,2.29-.8,3.07.37a3.3,3.3,0,0,1,.16,3.72,3.51,3.51,0,0,0-.19,1.2,3.87,3.87,0,0,0,1.12-.71,4.53,4.53,0,0,0-.11-4.82,2.92,2.92,0,0,0-3.65-1,20.49,20.49,0,0,0-10.62,7.56,4.35,4.35,0,0,0-.59,1.32,3.38,3.38,0,0,0,1.82,4.42l.24.09c1.55.7,3.15,1.3,4.68,2A47.25,47.25,0,0,1,24,34.73c2.52,1.64,2.69,3.87.43,5.89a8.75,8.75,0,0,1-2.93,1.86,61.26,61.26,0,0,1-6.93,1.66c-1.36.25-2.6,0-2.54-1.88,0-.17-.25-.36-.5-.69a3.35,3.35,0,0,0-.52.92,2.27,2.27,0,0,0,1.76,2.67,2.55,2.55,0,0,0,.55,0,18,18,0,0,0,10.94-3c1.91-1.3,3.17-3,2.83-5a16.76,16.76,0,0,0,1.94-2.64,35.94,35.94,0,0,0,2.59-14.82,37.9,37.9,0,0,0-1-8.35c-.78-3.28-3.61-5-7-4.7-2.55.18-4.58,1.54-6.52,3A43.85,43.85,0,0,0,1.26,32.93a25.67,25.67,0,0,0-.6,13.66,13.24,13.24,0,0,0,10.82,9.82c5.61,1,9.91-1.5,13.93-4.89.2-.16.2-.56.29-.85A2,2,0,0,0,24.67,50.72Z"/></svg>