<svg id="Layer_1" data-name="Layer 1" xmlns="http://www.w3.org/2000/svg" viewBox="0 0 104.68 64.93"><path d="M103.54,36.66c-2.49.29-5,.59-7.44,1a18.1,18.1,0,0,1-11.95-1.83c-1.61-.89-2.56-.7-3.78.7-1.34,1.56-2.59,3.23-3.88,4.85-.84,1-1.44,1.1-2.28.08a12.46,12.46,0,0,1-1.35-2.14c-.93-1.77-2-1.87-3.14-.24a10.07,10.07,0,0,0-.78,1.35c-.67,1.34-1.26,2.71-2,4-.62,1-1.21,1-1.7-.11a22.26,22.26,0,0,1-1.11-3.5c-.33-1.38-.73-2.64-2.42-3,.59-4.32,1.21-8.51,1.77-12.71s1-8.62,1.45-12.93c0-.46-.33-.95-.51-1.43a4.48,4.48,0,0,0-.89,1.27c-.37,1.41-.62,2.85-.93,4.29C61.19,24,59.84,31.52,58.41,39.07a14.06,14.06,0,0,1-1.23,3.45,1.57,1.57,0,0,1-2.77.49,8,8,0,0,1-1.75-2.49C52,39,51.56,37.41,51,35.86s-1.56-1.69-2.56-.56a9.47,9.47,0,0,0-1.54,2.5c-.76,1.68-1.38,3.44-2.11,5.15a.89.89,0,0,1-.12-.71c.38-1.71.81-3.41,1.11-5.12.09-.37-.28-.81-.43-1.23-.41.25-1,.4-1.16.75-.53.94-.82,2-1.33,3-.75,1.41-1.6,2.79-2.42,4.18l-.64-.23c.24-1.44.52-2.86.71-4.33a15.57,15.57,0,0,0,0-2,17.49,17.49,0,0,0-1.15,1.66c-1.05,1.89-2,3.81-3.12,5.66a1.58,1.58,0,0,1-1.44.5A1.65,1.65,0,0,1,34,43.69c.18-3.13,2.22-5.29,3.82-7.68l.5.21-.52,2.37.59.2c.42-1,.79-2,1.12-3a4.44,4.44,0,0,0-.15-1.54c-.5.14-1.15.14-1.49.45a16.6,16.6,0,0,0-4.88,8,1.92,1.92,0,0,0-.06,1.25c.42.77.87,1.85,1.54,2.09a3.49,3.49,0,0,0,2.49-.72,8,8,0,0,0,1.58-2c1.45,2.2,2.12,2.16,3.65-.2.51-.8,1-1.63,1.72-2.79a13.72,13.72,0,0,0-.41,2.78,7.48,7.48,0,0,0,.8,2c.51-.47,1.23-.86,1.5-1.44.68-1.5,1.09-3.12,1.75-4.59a35.26,35.26,0,0,1,1.86-3.35,51.33,51.33,0,0,1,2.4,5.55C52.91,44,54.61,45,57.39,44.44c-.32.93-.65,1.71-.87,2.56A1.39,1.39,0,0,1,55,48.2h0q-12,.25-24,.58-5.31.16-10.62.44c-.38,0-.73.41-1.13.62a3.93,3.93,0,0,0,1.26.51c.7,0,1.41-.19,2.11-.21l24.79-.7,8.56-.26c-.58,2.65-1.22,5.06-1.63,7.51s-.43,4.87,1,7c.33.48,1.05,1.11,1.48,1a2.65,2.65,0,0,0,1.64-1.27,9.32,9.32,0,0,0,.83-3c.39-3.27.73-6.56,1-9.85.08-1.17.37-1.71,1.66-1.63a29.51,29.51,0,0,0,3.39-.07c10.41-.26,20.82-.27,31.19-1.85a15.24,15.24,0,0,0,1.61-.42L98,46c-4.12,0-8.17,1-12.28,1.13s-8.32.36-12.48.5-8.34.18-12.68.34c.3-2.65.55-5.09.87-7.51a3.76,3.76,0,0,1,.6-1.18,4.82,4.82,0,0,1,.84,1.17c.56,1.56.9,3.18,1.57,4.69s2.2,1.72,3.16.22,1.58-3,2.37-4.46c.35-.63.77-1.21,1.28-2C72,40,72.41,41,73,41.8c1.53,2.12,3,2.11,4.63,0,1-1.28,1.87-2.57,2.9-3.82,1.46-1.73,1.87-1.83,3.88-.81a13.61,13.61,0,0,0,7.18,1.88c4-.31,8.14-.85,12.22-1.33.32,0,.61-.43.91-.67A3.21,3.21,0,0,0,103.54,36.66ZM61.86,28.09c0,3.68-1.39,11-2.65,12.19Zm-2.2,14,.42.09c-.19,1.71-.33,3.43-.59,5.13-.21,1.38-1.27.57-2.35.82C58.05,45.9,58.86,44,59.66,42ZM56.46,63.8c-.38-1.15-1.18-2.33-1.09-3.44a98.91,98.91,0,0,1,1.46-10.42c.1-.46,1.39-.69,2.22-1.1C59.63,52.68,58.21,62.26,56.46,63.8Z"/><path d="M22,52.06c-1.53.61-3,1.33-4.57,1.92C10.89,56.4.87,52.21,1.14,42.5a24.48,24.48,0,0,1,1.49-7.71A39,39,0,0,1,17.69,15.94a37.94,37.94,0,0,1,9.24-4.53c4.43-1.52,7.78,1.17,7.89,5.86a10.2,10.2,0,0,1-.16,2.53c-1,4-1.92,8-3.21,11.86a32.29,32.29,0,0,1-3.13,5.67c-.4.68-1.12,1.1-1.69.31-2.2-3.06-5.18-5.2-8.25-7.25-2.61-1.75-2.73-3.52-.23-5.49a19.73,19.73,0,0,1,9.55-4c1-.18,2.33-.29,2.83,1a3.2,3.2,0,0,1-.61,3.56,3.36,3.36,0,0,0-.43,1.1,3.45,3.45,0,0,0,1.21-.44,4.39,4.39,0,0,0,.89-4.6,2.83,2.83,0,0,0-3.26-1.7,19.89,19.89,0,0,0-11.64,5,4.64,4.64,0,0,0-.83,1.13,3.29,3.29,0,0,0,.82,4.57l.21.14c1.33,1,2.72,1.88,4,2.86a46,46,0,0,1,3.71,3.28c2.05,2.07,1.76,4.22-.81,5.68a8.49,8.49,0,0,1-3.16,1.16,61.43,61.43,0,0,1-6.92.15c-1.34-.05-2.47-.54-2-2.31,0-.16-.16-.39-.33-.76a3.37,3.37,0,0,0-.69.77,2.19,2.19,0,0,0,1.13,2.89,2.15,2.15,0,0,0,.51.15,17.42,17.42,0,0,0,11-.59c2.08-.84,3.62-2.19,3.71-4.16a15.5,15.5,0,0,0,2.39-2.11A34.87,34.87,0,0,0,35,24.09,37,37,0,0,0,35.72,16c-.07-3.28-2.4-5.47-5.72-5.91-2.46-.36-4.67.51-6.81,1.5A42.58,42.58,0,0,0,3.4,30.35,24.87,24.87,0,0,0,0,43.19,12.86,12.86,0,0,0,8.26,54.74c5.12,2.1,9.72.62,14.23-1.77.22-.11.31-.49.45-.75A1.89,1.89,0,0,0,22,52.06Z"/></svg>