<svg id="Layer_1" data-name="Layer 1" xmlns="http://www.w3.org/2000/svg" viewBox="0 0 104.68 56.57"><path d="M113.82,20c-2.44.84-4.88,1.68-7.27,2.64a18.55,18.55,0,0,1-12.42.77c-1.82-.54-2.73-.14-3.66,1.53-1,1.86-1.89,3.82-2.84,5.73-.62,1.24-1.21,1.42-2.28.58a12.81,12.81,0,0,1-1.82-1.86c-1.33-1.58-2.39-1.45-3.22.44a10.06,10.06,0,0,0-.48,1.53c-.39,1.5-.68,3-1.16,4.5-.39,1.18-1,1.27-1.73.26a22.63,22.63,0,0,1-1.88-3.28c-.64-1.32-1.32-2.5-3.08-2.45-.35-4.48-.65-8.83-1-13.18s-.86-8.89-1.36-13.33c-.06-.47-.54-.88-.83-1.32a4.54,4.54,0,0,0-.62,1.47c-.06,1.5,0,3,0,4.52.26,7.91.55,15.82.76,23.73a14.39,14.39,0,0,1-.49,3.74c-.37,1.45-1.41,1.89-2.68,1.1A8.45,8.45,0,0,1,63.46,35c-1-1.37-1.79-2.89-2.7-4.33s-1.94-1.36-2.7,0a9.84,9.84,0,0,0-1,2.85c-.4,1.86-.64,3.76-1,5.64a.91.91,0,0,1-.27-.69c0-1.8.07-3.6,0-5.39,0-.39-.46-.76-.71-1.14-.35.34-.89.61-1,1-.33,1.07-.39,2.2-.69,3.28-.45,1.59-1,3.16-1.52,4.74l-.7-.09c-.07-1.51-.1-3-.23-4.52a14.59,14.59,0,0,0-.46-2.06,19.87,19.87,0,0,0-.79,1.92c-.64,2.13-1.18,4.28-1.9,6.38a1.65,1.65,0,0,1-1.34.82,1.67,1.67,0,0,1-1.11-1.14c-.51-3.19,1.07-5.81,2.16-8.56l.55.1v2.5l.63.07a33,33,0,0,0,.47-3.27,4.61,4.61,0,0,0-.48-1.52c-.48.25-1.13.39-1.41.78a17.18,17.18,0,0,0-3.17,9.08,2,2,0,0,0,.22,1.27c.59.69,1.28,1.68,2,1.77a3.58,3.58,0,0,0,2.35-1.27,8.33,8.33,0,0,0,1.16-2.33c1.94,1.89,2.6,1.71,3.63-1,.34-.92.65-1.86,1.12-3.19a13.68,13.68,0,0,0,.19,2.89A8.07,8.07,0,0,0,56,41.4c.41-.59,1.05-1.13,1.19-1.78.36-1.65.42-3.37.76-5a36.26,36.26,0,0,1,1.14-3.77,52.07,52.07,0,0,1,3.63,5.06c1.75,2.54,3.67,3.13,6.36,2-.12,1-.29,1.86-.32,2.77a1.44,1.44,0,0,1-1.33,1.55q-12,2.87-24,5.82-5.31,1.32-10.59,2.76c-.38.1-.65.57-1,.87a4.05,4.05,0,0,0,1.38.24c.71-.12,1.37-.5,2.07-.68l24.8-6.11L68.64,43c0,2.79-.12,5.36,0,7.91s.63,5,2.56,6.79c.44.41,1.3.89,1.71.72a2.73,2.73,0,0,0,1.38-1.63,9.42,9.42,0,0,0,.18-3.18c-.32-3.38-.69-6.76-1.16-10.13-.17-1.19,0-1.8,1.31-2a31.09,31.09,0,0,0,3.4-.81C88.44,38.13,98.91,35.85,109,32a15.73,15.73,0,0,0,1.53-.78l-.24-.6c-4.14.9-8,2.78-12.11,3.82s-8.29,2.18-12.44,3.23-8.36,2-12.69,3.11c-.28-2.74-.56-5.24-.77-7.75a4.11,4.11,0,0,1,.35-1.32,4.9,4.9,0,0,1,1.1,1c.9,1.44,1.6,3,2.6,4.37s2.59,1.25,3.23-.47.94-3.36,1.42-5c.21-.71.5-1.39.84-2.33,1,1,1.62,1.87,2.41,2.56,2,1.8,3.52,1.46,4.66-1,.69-1.5,1.32-3,2.08-4.48,1.09-2.06,1.49-2.25,3.73-1.66a14,14,0,0,0,7.64.32c4-1.19,8-2.63,12-4,.32-.11.52-.57.77-.87A3.39,3.39,0,0,0,113.82,20ZM70,20.48c.85,3.69,1,11.33,0,12.84ZM70.84,35l.44,0c.18,1.76.42,3.52.53,5.29.08,1.43-1.16.85-2.19,1.34C70.06,39.23,70.45,37.12,70.84,35Zm1.53,22.59c-.64-1.07-1.7-2.08-1.85-3.22a102.64,102.64,0,0,1-.81-10.8c0-.49,1.25-1,2-1.6C73.13,45.71,73.79,55.66,72.37,57.59Z" transform="translate(-10.41 -2.59)"/><path d="M35.08,53.31c-1.41.95-2.75,2-4.18,2.93-6,3.86-17,1.83-18.85-8a25.54,25.54,0,0,1-.19-8.09A40.15,40.15,0,0,1,22.91,17.9a39.18,39.18,0,0,1,8.3-6.58c4.13-2.49,8.09-.52,9.22,4.18a10.4,10.4,0,0,1,.39,2.58c-.15,4.22-.19,8.44-.64,12.63a32.46,32.46,0,0,1-1.91,6.39c-.25.77-.89,1.35-1.63.68-2.88-2.6-6.35-4.1-9.89-5.49-3-1.19-3.51-2.95-1.43-5.48a20.4,20.4,0,0,1,8.73-6.13c1-.4,2.29-.8,3.07.37a3.31,3.31,0,0,1,.16,3.72,3.51,3.51,0,0,0-.19,1.2,3.83,3.83,0,0,0,1.12-.71,4.52,4.52,0,0,0-.11-4.82,2.92,2.92,0,0,0-3.65-1A20.47,20.47,0,0,0,23.83,27a4.49,4.49,0,0,0-.59,1.32,3.38,3.38,0,0,0,2.06,4.51c1.55.7,3.15,1.3,4.68,2a47.25,47.25,0,0,1,4.45,2.49c2.52,1.64,2.69,3.87.43,5.89a8.68,8.68,0,0,1-2.93,1.86A60.64,60.64,0,0,1,25,46.73c-1.36.25-2.6,0-2.54-1.88,0-.17-.25-.36-.5-.69a3.43,3.43,0,0,0-.52.92,2.26,2.26,0,0,0,2.31,2.71,18,18,0,0,0,10.94-3c1.91-1.3,3.17-3,2.83-5a16.52,16.52,0,0,0,1.94-2.64,36,36,0,0,0,2.59-14.82,37.79,37.79,0,0,0-1-8.35C40.27,10.7,37.44,9,34,9.28c-2.55.18-4.58,1.54-6.52,3A43.84,43.84,0,0,0,11.67,35.52a25.66,25.66,0,0,0-.6,13.66A13.25,13.25,0,0,0,21.89,59c5.61,1,9.91-1.5,13.93-4.89.2-.16.2-.56.29-.85C35.76,53.24,35.34,53.15,35.08,53.31Z" transform="translate(-10.41 -2.59)"/></svg>