<svg id="Layer_1" data-name="Layer 1" xmlns="http://www.w3.org/2000/svg" xmlns:xlink="http://www.w3.org/1999/xlink" viewBox="0 0 303.93 33.32"><defs><style>.cls-1{stroke:#fff;stroke-miterlimit:10;stroke-width:0.75px;}</style></defs><path class="cls-1" d="M367.6,51.47h1.48a.47.47,0,0,0,.17,0,11.13,11.13,0,0,1,5,1.58A11.66,11.66,0,0,1,379.9,61a16.25,16.25,0,0,1,.22,3.62A5.19,5.19,0,0,1,380,65.7,4.26,4.26,0,0,1,377,69a4.19,4.19,0,0,1-4.31-1l-.32-.32,0,0-.27.22a5.79,5.79,0,0,1-3.39,1.32,5.88,5.88,0,1,1,3-10.7,1.88,1.88,0,0,0,1.32.4c.41,0,.82,0,1.25,0v5.82a1.49,1.49,0,0,0,1.35,1.54,1.41,1.41,0,0,0,1.55-1.29,11.55,11.55,0,0,0-.09-3.16,8.83,8.83,0,1,0-5.67,9.81c.47-.18.92-.4,1.41-.61l1.45,2.51-.11.07a11.71,11.71,0,0,1-7.71,1.35,11.47,11.47,0,0,1-5.84-2.77,11.59,11.59,0,0,1-3.83-6.8c-.08-.43-.13-.88-.19-1.32V62.52c0-.29.07-.58.11-.86a11.82,11.82,0,0,1,9.65-10Zm-2.21,11.77a3,3,0,1,0,3-2.93A2.95,2.95,0,0,0,365.39,63.24Z" transform="translate(-76.57 -46.6)"/><image width="512" height="512" transform="translate(189.19 4.85) scale(0.05)" xlink:href="../../../Downloads/dribble.png"/><image width="512" height="512" transform="translate(146.98 4.53) scale(0.05)" xlink:href="../../../Downloads/linkedin.png"/><image width="512" height="512" transform="translate(97.53 0.91) scale(0.06)" xlink:href="../../../Downloads/5815959.png"/><image width="512" height="512" transform="translate(46.17) scale(0.07)" xlink:href="../../../Downloads/behance.png"/><image width="512" height="512" transform="translate(0 4.06) scale(0.05)" xlink:href="../../../Downloads/instagram%20(1).png"/><image width="512" height="512" transform="translate(233.15 4.06) scale(0.05)" xlink:href="../../../Downloads/telephone.png"/></svg>