<svg id="Layer_1" data-name="Layer 1" xmlns="http://www.w3.org/2000/svg" viewBox="0 0 303.93 25.54"><defs><style>.cls-1{stroke:#fff;stroke-miterlimit:10;stroke-width:0.75px;}</style></defs><path class="cls-1" d="M367.6,51.47h1.48a.47.47,0,0,0,.17,0,11.13,11.13,0,0,1,5,1.58A11.66,11.66,0,0,1,379.9,61a16.25,16.25,0,0,1,.22,3.62A5.19,5.19,0,0,1,380,65.7,4.26,4.26,0,0,1,377,69a4.19,4.19,0,0,1-4.31-1l-.32-.32,0,0-.27.22a5.79,5.79,0,0,1-3.39,1.32,5.88,5.88,0,1,1,3-10.7,1.88,1.88,0,0,0,1.32.4c.41,0,.82,0,1.25,0v5.82a1.49,1.49,0,0,0,1.35,1.54,1.41,1.41,0,0,0,1.55-1.29,11.55,11.55,0,0,0-.09-3.16,8.83,8.83,0,1,0-5.67,9.81c.47-.18.92-.4,1.41-.61l1.45,2.51-.11.07a11.71,11.71,0,0,1-7.71,1.35,11.47,11.47,0,0,1-5.84-2.77,11.59,11.59,0,0,1-3.83-6.8c-.08-.43-.13-.88-.19-1.32V62.52c0-.29.07-.58.11-.86a11.82,11.82,0,0,1,9.65-10Zm-2.21,11.77a3,3,0,1,0,3-2.93A2.95,2.95,0,0,0,365.39,63.24Z" transform="translate(-76.57 -50.51)"/><path d="M278.33,75.07h-1.47l-.2,0c-.5-.08-1-.12-1.5-.22a11.84,11.84,0,0,1-9.24-13.11A11.32,11.32,0,0,1,269.2,55a11.78,11.78,0,0,1,20,6.24c.08.42.12.85.18,1.27V64s0,.11,0,.17c-.09.61-.15,1.22-.28,1.81a11.84,11.84,0,0,1-9.43,8.89C279.2,75,278.76,75,278.33,75.07Zm-7.88-4.23c.27-.47.5-.93.78-1.35a11.78,11.78,0,0,1,1-1.24,16.29,16.29,0,0,1,5.3-3.77c.52-.24,1-.44,1.6-.68L277.89,61a26.86,26.86,0,0,1-10.67,1.41A10.44,10.44,0,0,0,270.45,70.84Zm9.1-5.71a16,16,0,0,0-6.36,4.07,7,7,0,0,0-1.52,2.41c0,.13,0,.21.09.28.51.28,1,.6,1.51.84a10.27,10.27,0,0,0,7.55.45c.12,0,.18-.09.17-.24a32.45,32.45,0,0,0-1-6C279.88,66.31,279.71,65.74,279.55,65.13Zm-2.32-5.4A28.81,28.81,0,0,0,273,53.94,10.39,10.39,0,0,0,268.63,58a10,10,0,0,0-1.18,3A25.14,25.14,0,0,0,277.23,59.73Zm3.68,5c.31,1.3.66,2.57.91,3.86s.39,2.61.58,3.93a10.46,10.46,0,0,0,4.1-3.85,10.12,10.12,0,0,0,1.42-4.13A13.34,13.34,0,0,0,280.91,64.72Zm-2.32-5.46c.46-.19,1-.38,1.43-.6a15.36,15.36,0,0,0,4-2.37c.23-.2.43-.43.65-.66a10.28,10.28,0,0,0-6-2.7,10,10,0,0,0-4.22.43c.74,1,1.5,1.87,2.18,2.85S277.93,58.21,278.59,59.26Zm1.83,4.14a15.6,15.6,0,0,1,7.56-.3,10.28,10.28,0,0,0-2.39-6.45,17.48,17.48,0,0,1-6.39,3.86Z" transform="translate(-76.57 -50.51)"/><path d="M232.16,75.39V59.23H237v2.25a1.87,1.87,0,0,0,.14-.18,5.07,5.07,0,0,1,3.79-2.41,7.52,7.52,0,0,1,3,.16,4.6,4.6,0,0,1,3.47,3.39,10.71,10.71,0,0,1,.43,2.58c0,.13,0,.26.05.39v10h-5q0-4.23,0-8.44a11.74,11.74,0,0,0-.14-1.57,2.22,2.22,0,0,0-2.11-2.12,2.63,2.63,0,0,0-3.18,2.24,10.64,10.64,0,0,0-.18,2c0,2.64,0,5.29,0,7.94Z" transform="translate(-76.57 -50.51)"/><path d="M224,75.39c0-.11,0-.22,0-.33V59.23h5V75.06c0,.11,0,.22,0,.33Z" transform="translate(-76.57 -50.51)"/><path d="M226.42,57a2.92,2.92,0,1,1,3-2.78A2.94,2.94,0,0,1,226.42,57Z" transform="translate(-76.57 -50.51)"/><path d="M189.85,76.06h-7a5.69,5.69,0,0,1-5.68-4.69,4.09,4.09,0,0,1-.09-.85c0-4.82,0-9.64,0-14.46a5.68,5.68,0,0,1,5.57-5.54,1,1,0,1,1,0,2,3.73,3.73,0,0,0-3.65,3.72q0,7.09,0,14.18a3.72,3.72,0,0,0,3.69,3.71H197a3.72,3.72,0,0,0,3.68-3.69q0-7.11,0-14.21A3.72,3.72,0,0,0,197,52.48h-9.33a1,1,0,0,1-1.09-.93,1,1,0,0,1,.95-1c.2,0,.41,0,.61,0,2.93,0,5.86,0,8.78,0a5.68,5.68,0,0,1,5.67,4.66,5.77,5.77,0,0,1,.09,1.1q0,7,0,14a5.68,5.68,0,0,1-5.74,5.75Z" transform="translate(-76.57 -50.51)"/><path d="M191.85,66.24c0,.84,0,1.65,0,2.47.06,1.08-.37,1.5-1.47,1.46-1.42,0-2.84,0-4.26,0A1,1,0,0,1,185,69V57.55a1,1,0,0,1,1.13-1.14h5.71a4.91,4.91,0,0,1,.34,9.82Zm-2,1.94v-.35c0-.85,0-1.7,0-2.55a1,1,0,0,1,1-1c.35,0,.7,0,1,0a4.19,4.19,0,0,0,1.16-.28,2.93,2.93,0,0,0-1.18-5.6c-1.59,0-3.19,0-4.79,0l-.17,0v9.78Z" transform="translate(-76.57 -50.51)"/><path d="M122.74,52.84c3.26,0,6.52,0,9.78,0a8.22,8.22,0,0,1,3.81.77,4.56,4.56,0,0,1,2.57,3.84,7.32,7.32,0,0,1-.09,1.87,3.71,3.71,0,0,1-2,2.7l-.28.16-.06,0c.33.18.67.34,1,.54a4.47,4.47,0,0,1,2.1,3.68,6,6,0,0,1-1.36,4.44,5.54,5.54,0,0,1-3.69,2,19.1,19.1,0,0,1-2.39.2c-3.13,0-6.26,0-9.39,0Zm4.11,16.76c1,0,1.94,0,2.89,0s2,0,3.08-.07a2.37,2.37,0,0,0,2.36-2,5.32,5.32,0,0,0,0-1.38,1.9,1.9,0,0,0-1-1.52,3.83,3.83,0,0,0-1.81-.43c-1.77,0-3.53,0-5.29,0l-.22,0Zm0-8.78H127c1.64,0,3.27,0,4.9,0a6.12,6.12,0,0,0,1.53-.25,1.65,1.65,0,0,0,1.18-1,2.9,2.9,0,0,0,.16-1.54,1.66,1.66,0,0,0-1.34-1.45,5.35,5.35,0,0,0-1.11-.18c-1.79,0-3.57-.05-5.36-.07a.83.83,0,0,0-.15,0Z" transform="translate(-76.57 -50.51)"/><path d="M156,66.73H145a3.36,3.36,0,0,0,2.79,3.62,3.75,3.75,0,0,0,3-.51,7.07,7.07,0,0,0,.82-.9.64.64,0,0,1,.33-.2h3.7l.14,0a3.25,3.25,0,0,1-.52,1.46,6.81,6.81,0,0,1-5.14,3.29,8.85,8.85,0,0,1-6-1.1,6.08,6.08,0,0,1-3-4.21,10.82,10.82,0,0,1,.4-6.17A6.49,6.49,0,0,1,146.41,58a8.61,8.61,0,0,1,6,.67,6.45,6.45,0,0,1,3.07,3.62A12,12,0,0,1,156,66.73Zm-4.17-2.61A3.05,3.05,0,0,0,148.88,61a3.29,3.29,0,0,0-3.83,3.14Z" transform="translate(-76.57 -50.51)"/><path d="M144,56.28V53.81h8.78v2.47Z" transform="translate(-76.57 -50.51)"/><path d="M76.57,69.47V57c.05-.27.07-.54.13-.8a6.72,6.72,0,0,1,5.06-5.33c.37-.1.76-.14,1.15-.21H95.38a1,1,0,0,0,.24,0,5.75,5.75,0,0,1,2,.52,6.64,6.64,0,0,1,4.13,6.31c0,3.8,0,7.61,0,11.42a6.45,6.45,0,0,1-.87,3.35,6.68,6.68,0,0,1-6.07,3.5c-3.76,0-7.51,0-11.27,0a6.86,6.86,0,0,1-6.73-5.18C76.68,70.25,76.64,69.85,76.57,69.47Zm23.67-6.24c0-1.87,0-3.74,0-5.62a5.39,5.39,0,0,0-5.42-5.47H83.47a4.93,4.93,0,0,0-1.21.13,5.29,5.29,0,0,0-4.21,5.29V68.9a5.36,5.36,0,0,0,5.38,5.43c3.81,0,7.62,0,11.44,0a5,5,0,0,0,2.21-.47,5.23,5.23,0,0,0,3.16-5C100.26,67,100.24,65.12,100.24,63.23Z" transform="translate(-76.57 -50.51)"/><path d="M96,63.23a6.88,6.88,0,1,1-6.88-6.87A6.9,6.9,0,0,1,96,63.23Zm-6.89,5.4a5.4,5.4,0,1,0-5.38-5.42A5.42,5.42,0,0,0,89.13,68.63Z" transform="translate(-76.57 -50.51)"/><path d="M96.19,58a2,2,0,1,1,2-2A2,2,0,0,1,96.19,58Zm0-1.48a.56.56,0,0,0,.56-.54.56.56,0,1,0-.56.54Z" transform="translate(-76.57 -50.51)"/><path d="M334.92,58.91c-.05.2-.09.4-.14.59a2.06,2.06,0,0,1-2.13,1.69c-1,0-2,0-3,0a2.07,2.07,0,0,1-2-2.72c0-.13.07-.27.11-.42A11.86,11.86,0,0,0,317,58c0,.16.07.31.11.47a2,2,0,0,1-1.82,2.64,35.64,35.64,0,0,1-3.58,0,2,2,0,0,1-1.79-1.57,4.33,4.33,0,0,1,.89-3.87,9.25,9.25,0,0,1,3.31-2.64,17.91,17.91,0,0,1,9.81-1.86,17.51,17.51,0,0,1,6.64,1.87,9.88,9.88,0,0,1,3.23,2.55A4.76,4.76,0,0,1,334.88,58a.18.18,0,0,0,0,.09Z" transform="translate(-76.57 -50.51)"/><path d="M319.64,61.71v-1a.76.76,0,0,1,.74-.81.75.75,0,0,1,.76.79c0,.16,0,.33,0,.49v.48h2.4c0-.32,0-.64,0-1a.75.75,0,1,1,1.49-.08c0,.34,0,.68,0,1.05h.81c1.14,0,.94-.1,1.73.74s1.49,1.54,2.2,2.35a9.6,9.6,0,0,1,2.42,5.52c.11,1.11.07,2.24.09,3.36,0,.29,0,.57,0,.86a.76.76,0,0,1-.83.82H313.22a.74.74,0,0,1-.82-.76,29.75,29.75,0,0,1,.17-4.9,10,10,0,0,1,1.54-3.86,17.61,17.61,0,0,1,2.1-2.46c.42-.43.85-.87,1.25-1.32a1,1,0,0,1,.83-.35Zm2.7,10.9a3.93,3.93,0,1,0-3.92-3.92A3.93,3.93,0,0,0,322.34,72.61Z" transform="translate(-76.57 -50.51)"/><path d="M324.76,68.69a2.42,2.42,0,1,1-2.41-2.42A2.43,2.43,0,0,1,324.76,68.69Z" transform="translate(-76.57 -50.51)"/></svg>