<svg id="Layer_1" data-name="Layer 1" xmlns="http://www.w3.org/2000/svg" viewBox="0 0 207.47 207.47"><defs><style>.cls-1{fill:#0f0f0f;}.cls-2{fill:#fff;}</style></defs><rect class="cls-1" width="207.47" height="207.47"/><path class="cls-2" d="M104.22,70.24l.34.16a3.2,3.2,0,0,1,2.24,3.07c0,1.73,0,3.45,0,5.18a3.23,3.23,0,1,1-6.45,0c0-1.71,0-3.41,0-5.11a3.23,3.23,0,0,1,2.31-3.16c.1,0,.19-.1.28-.14Z"/><path class="cls-2" d="M70.46,102.7c.05-.11.12-.22.16-.33a3.22,3.22,0,0,1,3.08-2.25c1.72,0,3.45,0,5.17,0a3.23,3.23,0,1,1,0,6.45c-1.72,0-3.45,0-5.17,0a3.22,3.22,0,0,1-3.08-2.25c0-.11-.11-.22-.16-.33Z"/><path class="cls-2" d="M103.59,119.92a16.57,16.57,0,1,1,16.56-16.57A16.58,16.58,0,0,1,103.59,119.92Z"/><path class="cls-2" d="M82.5,127.86a3.58,3.58,0,0,1-3-2,2.88,2.88,0,0,1,.37-3.33c1.35-1.48,2.76-2.91,4.25-4.25a3.19,3.19,0,0,1,4.48,4.48A58.62,58.62,0,0,1,84.39,127,7,7,0,0,1,82.5,127.86Z"/><path class="cls-2" d="M79.22,82.21a3.11,3.11,0,0,1,1.84-2.89,2.91,2.91,0,0,1,3.38.41c1.45,1.32,2.85,2.7,4.16,4.15a3.19,3.19,0,0,1-4.49,4.5c-1.45-1.31-2.83-2.71-4.15-4.16a7.29,7.29,0,0,1-.9-1.93Z"/><path class="cls-2" d="M127.92,82.24a3.2,3.2,0,0,1-1,2.36c-1.15,1.17-2.3,2.34-3.47,3.48a3.23,3.23,0,1,1-4.57-4.57q1.73-1.8,3.52-3.52a3.23,3.23,0,0,1,5.55,2.25Z"/><path class="cls-2" d="M127.92,124.49a3.1,3.1,0,0,1-1.83,2.89,2.88,2.88,0,0,1-3.33-.37,56.67,56.67,0,0,1-4.25-4.24,3.19,3.19,0,0,1,4.52-4.45,56.16,56.16,0,0,1,4.15,4.16,7.46,7.46,0,0,1,.91,1.93Z"/><path class="cls-2" d="M130.87,106.58c-.84,0-1.68,0-2.52,0a3.23,3.23,0,1,1,0-6.46q2.52,0,5,0a3.23,3.23,0,1,1,0,6.46C132.55,106.6,131.71,106.58,130.87,106.58Z"/><path class="cls-2" d="M100.34,130.62c0-.84,0-1.68,0-2.52a3.23,3.23,0,1,1,6.46,0c0,1.7,0,3.4,0,5.11a3.23,3.23,0,1,1-6.46,0C100.33,132.3,100.34,131.46,100.34,130.62Z"/></svg>