<svg id="Layer_1" data-name="Layer 1" xmlns="http://www.w3.org/2000/svg" viewBox="0 0 1920 1080"><defs><style>.cls-1{fill:#f4f4f4;}.cls-2{fill:#191919;}.cls-3{fill:none;stroke:#a5a5a5;stroke-miterlimit:10;stroke-width:1.47px;}</style></defs><rect class="cls-1" width="1920" height="1080"/><path class="cls-2" d="M421.2,281.17v47.22H353.59V531.57H304.23V328.39H237V281.17Z"/><path class="cls-2" d="M566.44,509.22q-27.56,27.36-67.25,27.36t-67.08-27.36q-27.36-27.37-27.36-67.08t27.36-67.07q27.38-27.36,67.08-27.37t67.25,27.37Q594,402.43,594,442.14T566.44,509.22ZM464.67,477.56q13.75,13.95,34.52,13.95t34.7-13.95q14-13.95,14-35.42t-14-35.41q-14-14-34.7-14t-34.52,14q-13.79,13.95-13.78,35.41T464.67,477.56Z"/><path class="cls-2" d="M778.92,509.22q-27.54,27.36-67.25,27.36T644.6,509.22q-27.37-27.37-27.37-67.08t27.37-67.07Q672,347.71,711.67,347.7t67.25,27.37q27.54,27.36,27.55,67.07T778.92,509.22ZM677.15,477.56q13.77,13.95,34.52,13.95t34.7-13.95q13.95-13.95,14-35.42t-14-35.41q-13.95-14-34.7-14t-34.52,14q-13.77,13.95-13.77,35.41T677.15,477.56Z"/><path class="cls-2" d="M839,531.57V270.44h46.14V531.57Z"/><path class="cls-2" d="M968.51,403.51q0,7.15,9.48,11.62a125.34,125.34,0,0,0,23.07,7.87,241.71,241.71,0,0,1,27.19,8.59,52.78,52.78,0,0,1,23.07,17.35q9.48,12.17,9.48,30.41,0,27.54-20.57,42.39T988.9,536.58q-55.1,0-75.12-42.57l40.06-22.53q7.88,23.25,35.06,23.25,24.69,0,24.68-15.38,0-7.16-9.48-11.63A135.87,135.87,0,0,0,981,459.67a239.74,239.74,0,0,1-27.19-8.94,55.85,55.85,0,0,1-23.07-17q-9.48-11.62-9.48-29.16,0-26.46,19.5-41.67t48.47-15.21a81,81,0,0,1,39.71,9.84,72,72,0,0,1,28.26,28.08l-39.35,21.47q-8.6-18.25-28.62-18.25-9,0-14.85,3.94A12.27,12.27,0,0,0,968.51,403.51Z"/><path class="cls-2" d="M282.54,806.08a6.2,6.2,0,1,1,0,12.39h-5.07v7.32h-2V806.08Zm0,10.53a4,4,0,0,0,3-1.22,4.64,4.64,0,0,0,0-6.23,4,4,0,0,0-3-1.22h-5.07v8.67Z"/><path class="cls-2" d="M293.4,814.05a4.58,4.58,0,0,1,4.45-2.56v1.8A4.16,4.16,0,0,0,293.4,818v7.83h-1.85V811.71h1.85Z"/><path class="cls-2" d="M311.35,824a7.56,7.56,0,0,1-10.5,0,7.48,7.48,0,0,1,0-10.5,7.42,7.42,0,0,1,10.5,10.5Zm-9.19-1.3a5.54,5.54,0,0,0,9.48-4,5.55,5.55,0,1,0-9.48,4Z"/><path class="cls-2" d="M323.16,826.12a7.38,7.38,0,1,1,3.74-13.75,5.92,5.92,0,0,1,2.42,2.69l-1.52.87a4.39,4.39,0,0,0-1.81-2,5.41,5.41,0,0,0-2.83-.74,5.36,5.36,0,0,0-3.94,1.61,5.66,5.66,0,0,0,0,7.91,5.33,5.33,0,0,0,3.94,1.62,5.38,5.38,0,0,0,2.81-.74,5.3,5.3,0,0,0,1.94-2l1.55.91a6.51,6.51,0,0,1-2.56,2.67A7.23,7.23,0,0,1,323.16,826.12Z"/><path class="cls-2" d="M334,814.05a4.58,4.58,0,0,1,4.45-2.56v1.8a4.63,4.63,0,0,0-3.18,1.12A4.56,4.56,0,0,0,334,818v7.83h-1.85V811.71H334Z"/><path class="cls-2" d="M346.63,811.37a6.41,6.41,0,0,1,5.06,2.21,7.73,7.73,0,0,1,1.92,5.23,8.35,8.35,0,0,1-.05.87H341.2a5,5,0,0,0,1.82,3.39,5.74,5.74,0,0,0,3.78,1.25,5.58,5.58,0,0,0,2.78-.66,4.48,4.48,0,0,0,1.75-1.73l1.64,1a6.72,6.72,0,0,1-2.54,2.36,7.56,7.56,0,0,1-3.66.87,7.3,7.3,0,0,1-5.4-2.08,7.77,7.77,0,0,1,0-10.55A7.07,7.07,0,0,1,346.63,811.37Zm0,1.81a5.25,5.25,0,0,0-5.43,4.7h10.5a5.26,5.26,0,0,0-1.72-3.47A5,5,0,0,0,346.63,813.18Z"/><path class="cls-2" d="M368.68,811.71h1.85v14.08h-1.85V823a6.32,6.32,0,0,1-5.69,3.09,7,7,0,0,1-5.14-2.13,7.54,7.54,0,0,1,0-10.48,7,7,0,0,1,5.14-2.14,6.33,6.33,0,0,1,5.69,3.1Zm-9.49,11a5.55,5.55,0,0,0,9.49-4,5.42,5.42,0,0,0-1.61-4,5.63,5.63,0,0,0-7.88,0,5.66,5.66,0,0,0,0,7.91Z"/><path class="cls-2" d="M381.93,813.51h-4.05V822a2.43,2.43,0,0,0,.45,1.65,1.78,1.78,0,0,0,1.35.51c.6,0,1.35,0,2.25-.05v1.64a6.78,6.78,0,0,1-4.43-.43c-1-.58-1.48-1.68-1.48-3.32v-8.53h-2.95v-1.8H376v-3.38l1.86-.56v3.94h4.05Z"/><path class="cls-2" d="M390.69,811.37a6.39,6.39,0,0,1,5.05,2.21,7.69,7.69,0,0,1,1.93,5.23q0,.3-.06.87H385.26a5,5,0,0,0,1.81,3.39,5.77,5.77,0,0,0,3.79,1.25,5.54,5.54,0,0,0,2.77-.66,4.44,4.44,0,0,0,1.76-1.73l1.63,1a6.69,6.69,0,0,1-2.53,2.36,7.56,7.56,0,0,1-3.66.87,7.31,7.31,0,0,1-5.41-2.08,7.76,7.76,0,0,1,0-10.55A7.05,7.05,0,0,1,390.69,811.37Zm0,1.81a5.23,5.23,0,0,0-5.43,4.7h10.5a5.26,5.26,0,0,0-1.72-3.47A5,5,0,0,0,390.69,813.18Z"/><path class="cls-2" d="M473.37,804.45h2v19.7h-2V815H462.68v9.2h-2v-19.7h2v8.64h10.69Z"/><path class="cls-2" d="M492.23,804.45v1.86h-6.05v17.84h-2V806.31h-6v-1.86Z"/><path class="cls-2" d="M513.06,804.45v19.7h-2V807.43L504.2,819h-.28L497,807.43v16.72h-2v-19.7h2.42l6.59,11,6.59-11Z"/><path class="cls-2" d="M519.54,822.3h9v1.85h-11v-19.7h2Z"/><path class="cls-2" d="M535,821.76l-1.69,6.34h-1.69l1.13-6.34Z"/><path class="cls-2" d="M546.76,824.49a10,10,0,0,1-7.4-3,10.4,10.4,0,0,1,0-14.47,10.53,10.53,0,0,1,12.41-1.65,9.18,9.18,0,0,1,3.52,3.53l-1.75,1a7,7,0,0,0-2.76-2.87,7.76,7.76,0,0,0-4-1.07,8.09,8.09,0,0,0-8.36,8.27,8.09,8.09,0,0,0,8.36,8.28,7.85,7.85,0,0,0,4-1.07,7,7,0,0,0,2.76-2.87l1.75,1a9,9,0,0,1-3.51,3.55A9.88,9.88,0,0,1,546.76,824.49Z"/><path class="cls-2" d="M564.72,824.49a8.12,8.12,0,0,1-4.63-1.28,6.66,6.66,0,0,1-2.69-3.53l1.69-1a5.17,5.17,0,0,0,2,2.86,6.17,6.17,0,0,0,3.69,1,5.43,5.43,0,0,0,3.42-1,3.15,3.15,0,0,0,1.22-2.58,2.68,2.68,0,0,0-1.12-2.34,15.44,15.44,0,0,0-3.72-1.63,21.33,21.33,0,0,1-4-1.63,4.3,4.3,0,0,1-2.26-3.91,4.9,4.9,0,0,1,1.75-4,6.55,6.55,0,0,1,4.31-1.45,6.68,6.68,0,0,1,4,1.2,7.29,7.29,0,0,1,2.51,3.05l-1.66.93A4.85,4.85,0,0,0,564.3,806a4.6,4.6,0,0,0-3,.9,3,3,0,0,0-1.12,2.5,2.52,2.52,0,0,0,1,2.2,12.75,12.75,0,0,0,3.35,1.49l1.53.52q.46.15,1.35.51a7.83,7.83,0,0,1,1.31.62,11.72,11.72,0,0,1,1,.73,3.37,3.37,0,0,1,.87.93,5.62,5.62,0,0,1,.48,1.12,4.69,4.69,0,0,1,.21,1.42,4.94,4.94,0,0,1-1.83,4A7.34,7.34,0,0,1,564.72,824.49Z"/><path class="cls-2" d="M580.23,824.49a8.12,8.12,0,0,1-4.63-1.28,6.66,6.66,0,0,1-2.69-3.53l1.69-1a5.17,5.17,0,0,0,2,2.86,6.17,6.17,0,0,0,3.69,1,5.43,5.43,0,0,0,3.42-1A3.15,3.15,0,0,0,584.9,819a2.68,2.68,0,0,0-1.12-2.34,15.44,15.44,0,0,0-3.72-1.63,21.33,21.33,0,0,1-4-1.63,4.32,4.32,0,0,1-2.26-3.91,4.9,4.9,0,0,1,1.75-4,6.55,6.55,0,0,1,4.31-1.45,6.68,6.68,0,0,1,4,1.2,7.21,7.21,0,0,1,2.51,3.05l-1.66.93a4.85,4.85,0,0,0-4.84-3.26,4.6,4.6,0,0,0-3,.9,3,3,0,0,0-1.12,2.5,2.52,2.52,0,0,0,1,2.2,12.75,12.75,0,0,0,3.35,1.49l1.53.52q.46.15,1.35.51a7.46,7.46,0,0,1,1.31.62,11.72,11.72,0,0,1,1,.73,3.37,3.37,0,0,1,.87.93,5.62,5.62,0,0,1,.48,1.12,4.69,4.69,0,0,1,.21,1.42,4.94,4.94,0,0,1-1.83,4A7.34,7.34,0,0,1,580.23,824.49Z"/><path class="cls-2" d="M663.71,803.43a6.19,6.19,0,1,1,0,12.38h-5.07v7.32h-2v-19.7Zm0,10.53a4.05,4.05,0,0,0,3-1.23,4.66,4.66,0,0,0,0-6.22,4,4,0,0,0-3-1.22h-5.07V814Z"/><path class="cls-2" d="M683.13,809.06h2l-6,15.37a7.63,7.63,0,0,1-2.32,3.28,4.7,4.7,0,0,1-3.37,1V827q2.54.29,3.85-2.93l.36-.91-6.29-14.12h2l5.27,11.69Z"/><path class="cls-2" d="M694.82,810.86h-4.06v8.53a2.43,2.43,0,0,0,.45,1.65,1.81,1.81,0,0,0,1.35.5c.6,0,1.35,0,2.26,0v1.63a6.88,6.88,0,0,1-4.44-.42c-1-.58-1.48-1.69-1.48-3.32v-8.53H686v-1.8h2.95v-3.38l1.86-.56v3.94h4.06Z"/><path class="cls-2" d="M704.5,808.72a5.3,5.3,0,0,1,4,1.56,5.91,5.91,0,0,1,1.48,4.21v8.64h-1.86v-8.64a4.05,4.05,0,0,0-1-2.93,3.76,3.76,0,0,0-2.83-1A4.43,4.43,0,0,0,701,811.8a5.43,5.43,0,0,0-1.27,4v7.37h-1.86v-19.7h1.86v7.82A5.2,5.2,0,0,1,704.5,808.72Z"/><path class="cls-2" d="M725.43,821.35a7.56,7.56,0,0,1-10.5,0,7.48,7.48,0,0,1,0-10.5,7.54,7.54,0,0,1,10.5,0,7.48,7.48,0,0,1,0,10.5Zm-9.19-1.3a5.6,5.6,0,0,0,7.88,0,5.69,5.69,0,0,0,0-7.91,5.6,5.6,0,0,0-7.88,0,5.66,5.66,0,0,0,0,7.91Z"/><path class="cls-2" d="M737.27,808.72a5.32,5.32,0,0,1,4,1.56,5.9,5.9,0,0,1,1.47,4.21v8.64h-1.86v-8.64a4.09,4.09,0,0,0-1-2.93,3.76,3.76,0,0,0-2.83-1,4.47,4.47,0,0,0-3.3,1.28,5.47,5.47,0,0,0-1.26,4v7.37h-1.86V809.06h1.86v2.19A5.19,5.19,0,0,1,737.27,808.72Z"/><rect class="cls-3" x="254.19" y="784.72" width="163.52" height="62.77" rx="24.74"/><rect class="cls-3" x="434.55" y="784.72" width="177.35" height="62.77" rx="24.74"/><rect class="cls-3" x="629.12" y="784.72" width="140.6" height="62.77" rx="24.74"/><path class="cls-2" d="M298,646.55h-9.15v7.26h8.73v1.86h-8.73v8.73h-2V644.69H298Z"/><path class="cls-2" d="M303,646.94a1.31,1.31,0,0,1-1,.4,1.28,1.28,0,0,1-1-.4,1.35,1.35,0,0,1,1-2.3,1.34,1.34,0,0,1,1,.39,1.36,1.36,0,0,1,0,1.91Zm-1.89,17.46V650.32H303V664.4Z"/><path class="cls-2" d="M319,650.32h1.86v13.51a5.9,5.9,0,0,1-2.08,4.79,7.53,7.53,0,0,1-5,1.75c-3.31,0-5.53-1.15-6.68-3.44l1.64-.93q1.26,2.57,5,2.56a5.39,5.39,0,0,0,3.81-1.28,4.44,4.44,0,0,0,1.39-3.45v-2.19a6.29,6.29,0,0,1-5.68,3.09,7,7,0,0,1-5.14-2.13,7.51,7.51,0,0,1,0-10.48,7,7,0,0,1,5.14-2.14,6.3,6.3,0,0,1,5.68,3.1Zm-9.48,11a5.54,5.54,0,0,0,9.48-3.95,5.55,5.55,0,1,0-9.48,3.95Z"/><path class="cls-2" d="M339.81,650a5.05,5.05,0,0,1,3.82,1.52,5.72,5.72,0,0,1,1.45,4.11v8.79h-1.86v-8.79a3.94,3.94,0,0,0-.94-2.82,3.25,3.25,0,0,0-2.49-1A3.69,3.69,0,0,0,337,653a5.25,5.25,0,0,0-1.09,3.65v7.8H334v-8.79a4.13,4.13,0,0,0-.89-2.84,3.06,3.06,0,0,0-2.41-1,3.91,3.91,0,0,0-2.87,1.18,4.94,4.94,0,0,0-1.18,3.63v7.8h-1.86V650.32h1.86v2.06A4.82,4.82,0,0,1,331,650a4.36,4.36,0,0,1,4.27,2.57A5,5,0,0,1,339.81,650Z"/><path class="cls-2" d="M360.79,650.32h1.85V664.4h-1.85v-2.76a6.31,6.31,0,0,1-5.69,3.09A7,7,0,0,1,350,662.6a7.54,7.54,0,0,1,0-10.48A7,7,0,0,1,355.1,650a6.32,6.32,0,0,1,5.69,3.1Zm-9.49,11a5.55,5.55,0,0,0,9.49-3.95,5.42,5.42,0,0,0-1.61-4,5.58,5.58,0,0,0-7.88,7.91Z"/><path class="cls-2" d="M1494.65,667.21h-2.58l-9.24-9.56v9.56h-2v-19.7h2v9l9-9h2.59l-9.45,9.57Z"/><path class="cls-2" d="M1498.76,655.47a4.6,4.6,0,0,1,4.45-2.56v1.8a4.63,4.63,0,0,0-3.18,1.13,4.53,4.53,0,0,0-1.27,3.55v7.82h-1.85V653.14h1.85Z"/><path class="cls-2" d="M1507.63,649.76a1.36,1.36,0,0,1-1.91,0,1.35,1.35,0,1,1,1.91-1.91,1.34,1.34,0,0,1,0,1.91Zm-1.88,17.45V653.14h1.85v14.07Z"/><path class="cls-2" d="M1519,654.94h-4v8.53a2.43,2.43,0,0,0,.45,1.65,1.81,1.81,0,0,0,1.35.5c.6,0,1.35,0,2.25,0v1.63a6.85,6.85,0,0,1-4.43-.42c-1-.58-1.48-1.69-1.48-3.32v-8.53h-2.95v-1.8h2.95v-3.38l1.86-.56v3.94h4Z"/><path class="cls-2" d="M1533.36,653.14h1.86v14.07h-1.86v-2.76a6.29,6.29,0,0,1-5.69,3.1,7,7,0,0,1-5.13-2.14,7.5,7.5,0,0,1,0-10.47,7,7,0,0,1,5.13-2.14,6.29,6.29,0,0,1,5.69,3.1Zm-9.49,11a5.61,5.61,0,0,0,7.89,0,5.58,5.58,0,0,0-4-9.53,5.34,5.34,0,0,0-3.94,1.62,5.69,5.69,0,0,0,0,7.91Z"/><path class="cls-2" d="M452.88,667.18l-1.82-4.84h-9.35l-1.83,4.84h-2.09l7.58-19.7h2l7.58,19.7Zm-10.47-6.7h7.95l-4-10.53Z"/><path class="cls-2" d="M469,647.48h1.86v19.7H469v-2.75a6.3,6.3,0,0,1-5.69,3.09,7,7,0,0,1-5.13-2.14,7.5,7.5,0,0,1,0-10.47,7,7,0,0,1,5.13-2.14,6.29,6.29,0,0,1,5.69,3.1Zm-9.49,16.62a5.55,5.55,0,0,0,9.49-4,5.41,5.41,0,0,0-1.6-4,5.61,5.61,0,0,0-7.89,0,5.69,5.69,0,0,0,0,7.91Z"/><path class="cls-2" d="M486.65,665.4a7.56,7.56,0,0,1-10.5,0,7.48,7.48,0,0,1,0-10.5,7.54,7.54,0,0,1,10.5,0,7.48,7.48,0,0,1,0,10.5Zm-9.19-1.3a5.6,5.6,0,0,0,7.88,0,5.69,5.69,0,0,0,0-7.91,5.6,5.6,0,0,0-7.88,0,5.66,5.66,0,0,0,0,7.91Z"/><path class="cls-2" d="M499.44,652.77a7,7,0,0,1,5.14,2.14,7.5,7.5,0,0,1,0,10.47,7,7,0,0,1-5.14,2.14,6.29,6.29,0,0,1-5.68-3.09v2.75H491.9v-19.7h1.86v8.39A6.28,6.28,0,0,1,499.44,652.77Zm-4.08,11.33a5.6,5.6,0,0,0,7.88,0,5.66,5.66,0,0,0,0-7.91,5.6,5.6,0,0,0-7.88,0,5.69,5.69,0,0,0,0,7.91Z"/><path class="cls-2" d="M516.3,652.77a6.41,6.41,0,0,1,5.06,2.21,7.71,7.71,0,0,1,1.92,5.22,8.37,8.37,0,0,1,0,.88H510.87a5.05,5.05,0,0,0,1.82,3.39,5.8,5.8,0,0,0,3.78,1.25,5.58,5.58,0,0,0,2.78-.66,4.48,4.48,0,0,0,1.75-1.73l1.64.95a6.67,6.67,0,0,1-2.54,2.37,7.56,7.56,0,0,1-3.66.87,7.3,7.3,0,0,1-5.4-2.08,7.16,7.16,0,0,1-2.08-5.29,7.26,7.26,0,0,1,2.05-5.27A7.1,7.1,0,0,1,516.3,652.77Zm0,1.8a5.27,5.27,0,0,0-5.43,4.7h10.5a5.26,5.26,0,0,0-1.72-3.46A5,5,0,0,0,516.3,654.57Z"/><path class="cls-2" d="M547.07,667.18h-2.25l-5.35-8.41-5.35,8.41h-2.25L538.35,657l-6.06-9.53h2.23l5,7.78,5-7.78h2.22L540.59,657Z"/><path class="cls-2" d="M557.49,647.48a8.63,8.63,0,0,1,6.65,2.86,10.59,10.59,0,0,1,0,14,8.65,8.65,0,0,1-6.65,2.85h-7.6v-19.7Zm0,17.85a6.8,6.8,0,0,0,5.3-2.31,8.84,8.84,0,0,0,0-11.37,6.8,6.8,0,0,0-5.3-2.31h-5.63v16Z"/><path class="cls-2" d="M1614.74,663a8.25,8.25,0,0,1-10.58,0,6.7,6.7,0,0,1-2-5.12v-13h2v13a5,5,0,0,0,1.41,3.74,6.31,6.31,0,0,0,7.88,0,5,5,0,0,0,1.41-3.74v-13h2v13A6.67,6.67,0,0,1,1614.74,663Z"/><path class="cls-2" d="M1627.3,650.15a5.3,5.3,0,0,1,4,1.56,5.89,5.89,0,0,1,1.48,4.21v8.64H1631v-8.64a4.08,4.08,0,0,0-1-2.93,3.72,3.72,0,0,0-2.83-1,4.39,4.39,0,0,0-3.29,1.28,5.39,5.39,0,0,0-1.27,3.95v7.38h-1.86V650.48h1.86v2.2A5.2,5.2,0,0,1,1627.3,650.15Z"/><path class="cls-2" d="M1638.31,647.11a1.34,1.34,0,0,1-1,.39,1.3,1.3,0,0,1-1-.39,1.34,1.34,0,0,1-.39-1,1.33,1.33,0,0,1,1.35-1.35,1.34,1.34,0,0,1,1,.39,1.3,1.3,0,0,1,.39,1A1.34,1.34,0,0,1,1638.31,647.11Zm-1.89,17.45V650.48h1.86v14.08Z"/><path class="cls-2" d="M1649.68,652.29h-4.06v8.52a2.43,2.43,0,0,0,.46,1.65,1.76,1.76,0,0,0,1.35.51c.6,0,1.35,0,2.25,0v1.63a6.88,6.88,0,0,1-4.44-.42c-1-.59-1.47-1.69-1.47-3.33v-8.52h-3v-1.81h3v-3.37l1.85-.57v3.94h4.06Z"/><path class="cls-2" d="M1663.19,650.48h2l-6,15.37a7.65,7.65,0,0,1-2.33,3.28,4.67,4.67,0,0,1-3.36,1.06v-1.75q2.54.28,3.85-2.93l.36-.91-6.29-14.12h2l5.27,11.7Z"/><path class="cls-2" d="M645.75,664.54l-1.83-4.84h-9.35l-1.83,4.84h-2.08l7.57-19.71h2l7.57,19.71Zm-10.48-6.7h8l-4-10.54Z"/><path class="cls-2" d="M661.91,644.83h1.85v19.71h-1.85v-2.76a6.32,6.32,0,0,1-5.69,3.1,7,7,0,0,1-5.14-2.14,7.54,7.54,0,0,1,0-10.48,7,7,0,0,1,5.14-2.13,6.31,6.31,0,0,1,5.69,3.09Zm-9.49,16.63a5.63,5.63,0,0,0,7.88,0,5.66,5.66,0,0,0,0-7.91,5.6,5.6,0,0,0-7.88,0,5.66,5.66,0,0,0,0,7.91Z"/><path class="cls-2" d="M679.51,662.75a7.37,7.37,0,1,1,0-10.5,7.46,7.46,0,0,1,0,10.5Zm-9.19-1.29a5.69,5.69,0,1,0-1.6-4A5.37,5.37,0,0,0,670.32,661.46Z"/><path class="cls-2" d="M692.31,650.13a7,7,0,0,1,5.14,2.13,7.54,7.54,0,0,1,0,10.48,7,7,0,0,1-5.14,2.14,6.32,6.32,0,0,1-5.69-3.1v2.76h-1.86V644.83h1.86v8.39A6.31,6.31,0,0,1,692.31,650.13Zm-4.08,11.33a5.66,5.66,0,1,0-1.61-4A5.42,5.42,0,0,0,688.23,661.46Z"/><path class="cls-2" d="M709.17,650.13a6.35,6.35,0,0,1,5.05,2.21,7.65,7.65,0,0,1,1.93,5.22q0,.3-.06.87H703.74a5,5,0,0,0,1.81,3.39,5.77,5.77,0,0,0,3.79,1.25,5.54,5.54,0,0,0,2.77-.66,4.38,4.38,0,0,0,1.76-1.73l1.63,1A6.69,6.69,0,0,1,713,664a7.56,7.56,0,0,1-3.66.88,7.33,7.33,0,0,1-5.41-2.09,7.76,7.76,0,0,1,0-10.55A7,7,0,0,1,709.17,650.13Zm0,1.8a5.26,5.26,0,0,0-5.43,4.7h10.5a5.23,5.23,0,0,0-1.72-3.46A5,5,0,0,0,709.17,651.93Z"/><path class="cls-2" d="M733.69,650.13a7,7,0,0,1,5.13,2.13,7.51,7.51,0,0,1,0,10.48,7,7,0,0,1-5.13,2.14,6.32,6.32,0,0,1-5.69-3.1v8.39h-1.86V650.46H728v2.76A6.31,6.31,0,0,1,733.69,650.13Zm-4.08,11.33a5.66,5.66,0,1,0-1.61-4A5.42,5.42,0,0,0,729.61,661.46Z"/><path class="cls-2" d="M750.63,650.13a5.29,5.29,0,0,1,4,1.56,5.85,5.85,0,0,1,1.48,4.21v8.64h-1.86V655.9a4,4,0,0,0-1-2.93,3.71,3.71,0,0,0-2.83-1,4.41,4.41,0,0,0-3.29,1.28,5.43,5.43,0,0,0-1.27,3.95v7.38h-1.85V644.83h1.85v7.83A5.21,5.21,0,0,1,750.63,650.13Z"/><path class="cls-2" d="M771.56,662.75a7.37,7.37,0,1,1,0-10.5,7.46,7.46,0,0,1,0,10.5Zm-9.19-1.29a5.69,5.69,0,1,0-1.6-4A5.37,5.37,0,0,0,762.37,661.46Z"/><path class="cls-2" d="M784,652.26h-4v8.53a2.43,2.43,0,0,0,.45,1.65,1.78,1.78,0,0,0,1.35.51c.6,0,1.35,0,2.25,0v1.63a6.84,6.84,0,0,1-4.43-.42c-1-.59-1.48-1.69-1.48-3.33v-8.53h-3v-1.8h3v-3.37l1.86-.57v3.94h4Z"/><path class="cls-2" d="M798.05,662.75a7.37,7.37,0,1,1,0-10.5,7.46,7.46,0,0,1,0,10.5Zm-9.19-1.29a5.63,5.63,0,0,0,7.88,0,5.66,5.66,0,0,0,0-7.91,5.6,5.6,0,0,0-7.88,0,5.69,5.69,0,0,0,0,7.91Z"/><path class="cls-2" d="M804.48,654.11a1.71,1.71,0,0,0,.86,1.5,7.6,7.6,0,0,0,2.07.9l2.42.69a4.41,4.41,0,0,1,2,1.25,3.33,3.33,0,0,1,.83,2.37,3.56,3.56,0,0,1-1.42,2.93,5.74,5.74,0,0,1-3.67,1.13,6.25,6.25,0,0,1-3.45-.91,4.74,4.74,0,0,1-2-2.33l1.57-.93a3.3,3.3,0,0,0,1.42,1.73,4.59,4.59,0,0,0,2.44.63,4.54,4.54,0,0,0,2.31-.54,1.85,1.85,0,0,0,.93-1.71,1.77,1.77,0,0,0-.85-1.52,7.46,7.46,0,0,0-2-.9l-2.43-.69a4.6,4.6,0,0,1-2-1.24,3.23,3.23,0,0,1-.84-2.32,3.61,3.61,0,0,1,1.36-2.87,5.15,5.15,0,0,1,3.45-1.15,5.71,5.71,0,0,1,3,.77,4.81,4.81,0,0,1,1.92,2.1l-1.55.9a3.27,3.27,0,0,0-3.38-2,3.78,3.78,0,0,0-2.08.56A1.81,1.81,0,0,0,804.48,654.11Z"/><path class="cls-2" d="M822.25,650.13a5.32,5.32,0,0,1,4,1.56,5.88,5.88,0,0,1,1.47,4.21v8.64h-1.85V655.9a4.08,4.08,0,0,0-1-2.93,3.72,3.72,0,0,0-2.83-1,4.43,4.43,0,0,0-3.3,1.28,5.43,5.43,0,0,0-1.26,3.95v7.38h-1.86V644.83h1.86v7.83A5.19,5.19,0,0,1,822.25,650.13Z"/><path class="cls-2" d="M843.18,662.75a7.54,7.54,0,0,1-10.5,0,7.46,7.46,0,0,1,0-10.5,7.42,7.42,0,0,1,10.5,10.5ZM834,661.46a5.66,5.66,0,1,0-1.61-4A5.42,5.42,0,0,0,834,661.46Z"/><path class="cls-2" d="M856,650.13a7,7,0,0,1,5.14,2.13,7.54,7.54,0,0,1,0,10.48,7,7,0,0,1-5.14,2.14,6.32,6.32,0,0,1-5.69-3.1v8.39h-1.85V650.46h1.85v2.76A6.31,6.31,0,0,1,856,650.13Zm-4.08,11.33a5.66,5.66,0,1,0-1.61-4A5.42,5.42,0,0,0,851.89,661.46Z"/><path class="cls-2" d="M942.28,667.61l-1.83-4.84H931.1l-1.82,4.84h-2.09l7.58-19.71h2l7.57,19.71Zm-10.48-6.7h8l-4-10.54Z"/><path class="cls-2" d="M958.44,647.9h1.86v19.71h-1.86v-2.76a6.31,6.31,0,0,1-5.69,3.09,7,7,0,0,1-5.13-2.13,7.51,7.51,0,0,1,0-10.48,7,7,0,0,1,5.13-2.14,6.32,6.32,0,0,1,5.69,3.1ZM949,664.52a5.55,5.55,0,0,0,9.49-3.95,5.42,5.42,0,0,0-1.61-4,5.58,5.58,0,0,0-7.88,7.91Z"/><path class="cls-2" d="M976.05,665.82a7.56,7.56,0,0,1-10.5,0,7.46,7.46,0,0,1,0-10.5,7.42,7.42,0,0,1,10.5,10.5Zm-9.19-1.3a5.6,5.6,0,0,0,7.88,0,5.55,5.55,0,1,0-7.88,0Z"/><path class="cls-2" d="M988.84,653.19a7,7,0,0,1,5.14,2.14,7.54,7.54,0,0,1,0,10.48,7,7,0,0,1-5.14,2.13,6.31,6.31,0,0,1-5.69-3.09v2.76H981.3V647.9h1.85v8.39A6.32,6.32,0,0,1,988.84,653.19Zm-4.08,11.33a5.6,5.6,0,0,0,7.88,0,5.55,5.55,0,1,0-7.88,0Z"/><path class="cls-2" d="M1005.7,653.19a6.37,6.37,0,0,1,5,2.21,7.69,7.69,0,0,1,1.93,5.23c0,.2,0,.49,0,.87h-12.36a5.06,5.06,0,0,0,1.81,3.39,5.79,5.79,0,0,0,3.79,1.25,5.54,5.54,0,0,0,2.77-.66,4.44,4.44,0,0,0,1.76-1.73l1.64,1a6.72,6.72,0,0,1-2.54,2.36,7.56,7.56,0,0,1-3.66.87,7.3,7.3,0,0,1-5.4-2.08,7.74,7.74,0,0,1,0-10.55A7.05,7.05,0,0,1,1005.7,653.19Zm0,1.81a5.25,5.25,0,0,0-5.43,4.7h10.5a5.26,5.26,0,0,0-1.72-3.47A5,5,0,0,0,1005.7,655Z"/><path class="cls-2" d="M1023,647.9h2v19.71h-2Z"/><path class="cls-2" d="M1029.15,667.61V647.06H1031v20.55Z"/><path class="cls-2" d="M1035,667.61V647.06h1.86v20.55Z"/><path class="cls-2" d="M1050.66,653.53h1.86v14.08h-1.86v-2.2a5.2,5.2,0,0,1-4.73,2.53,5.29,5.29,0,0,1-4-1.56,5.85,5.85,0,0,1-1.48-4.21v-8.64h1.86v8.64a4,4,0,0,0,1,2.93,3.71,3.71,0,0,0,2.83,1,4.39,4.39,0,0,0,3.29-1.28,5.39,5.39,0,0,0,1.27-4Z"/><path class="cls-2" d="M1057.92,657.18a1.69,1.69,0,0,0,.86,1.5,7.67,7.67,0,0,0,2.06.9l2.42.69a4.39,4.39,0,0,1,2,1.25,3.37,3.37,0,0,1,.83,2.37,3.56,3.56,0,0,1-1.42,2.93,5.75,5.75,0,0,1-3.68,1.12,6.27,6.27,0,0,1-3.44-.9,4.86,4.86,0,0,1-2-2.33l1.58-.93a3.25,3.25,0,0,0,1.42,1.73,4.56,4.56,0,0,0,2.43.63,4.44,4.44,0,0,0,2.31-.55,1.83,1.83,0,0,0,.93-1.7,1.76,1.76,0,0,0-.84-1.52,7.53,7.53,0,0,0-2.06-.9l-2.42-.7a4.44,4.44,0,0,1-2-1.23,3.19,3.19,0,0,1-.85-2.32,3.61,3.61,0,0,1,1.37-2.87,5.16,5.16,0,0,1,3.45-1.16,5.74,5.74,0,0,1,3,.78,4.67,4.67,0,0,1,1.91,2.1l-1.55.9a3.26,3.26,0,0,0-3.37-2,3.73,3.73,0,0,0-2.09.56A1.83,1.83,0,0,0,1057.92,657.18Z"/><path class="cls-2" d="M1076.13,655.33h-4.05v8.53a2.43,2.43,0,0,0,.45,1.65,1.78,1.78,0,0,0,1.35.51c.6,0,1.35,0,2.25,0v1.64a6.77,6.77,0,0,1-4.43-.43c-1-.58-1.48-1.68-1.48-3.32v-8.53h-3v-1.8h3v-3.38l1.86-.56v3.94h4.05Z"/><path class="cls-2" d="M1081.09,655.87a4.56,4.56,0,0,1,4.45-2.56v1.8a4.64,4.64,0,0,0-3.19,1.12,4.54,4.54,0,0,0-1.26,3.55v7.83h-1.86V653.53h1.86Z"/><path class="cls-2" d="M1099.33,653.53h1.86v14.08h-1.86v-2.76a6.31,6.31,0,0,1-5.69,3.09,7,7,0,0,1-5.14-2.13,7.54,7.54,0,0,1,0-10.48,7,7,0,0,1,5.14-2.14,6.32,6.32,0,0,1,5.69,3.1Zm-9.49,11a5.55,5.55,0,0,0,9.49-3.95,5.42,5.42,0,0,0-1.61-4,5.58,5.58,0,0,0-7.88,7.91Z"/><path class="cls-2" d="M1112.59,655.33h-4.06v8.53a2.43,2.43,0,0,0,.45,1.65,1.78,1.78,0,0,0,1.35.51c.61,0,1.36,0,2.26,0v1.64a6.81,6.81,0,0,1-4.44-.43c-1-.58-1.47-1.68-1.47-3.32v-8.53h-3v-1.8h3v-3.38l1.85-.56v3.94h4.06Z"/><path class="cls-2" d="M1126.65,665.82a7.56,7.56,0,0,1-10.5,0,7.46,7.46,0,0,1,0-10.5,7.42,7.42,0,0,1,10.5,10.5Zm-9.19-1.3a5.6,5.6,0,0,0,7.88,0,5.55,5.55,0,1,0-7.88,0Z"/><path class="cls-2" d="M1133.76,655.87a4.56,4.56,0,0,1,4.44-2.56v1.8a4.63,4.63,0,0,0-3.18,1.12,4.54,4.54,0,0,0-1.26,3.55v7.83h-1.86V653.53h1.86Z"/><path class="cls-2" d="M1224.58,664.4l-1.83-4.84h-9.35l-1.83,4.84h-2.08l7.57-19.71h2l7.57,19.71Zm-10.48-6.7h8l-4-10.54Z"/><path class="cls-2" d="M1240.73,644.69h1.86V664.4h-1.86v-2.76a6.29,6.29,0,0,1-5.68,3.09,7,7,0,0,1-5.14-2.13,7.54,7.54,0,0,1,0-10.48,7,7,0,0,1,5.14-2.14,6.3,6.3,0,0,1,5.68,3.1Zm-9.48,16.62a5.54,5.54,0,0,0,9.48-3.95,5.55,5.55,0,1,0-9.48,3.95Z"/><path class="cls-2" d="M1258.34,662.61a7.38,7.38,0,1,1,0-10.5,7.46,7.46,0,0,1,0,10.5Zm-9.19-1.3a5.55,5.55,0,0,0,9.49-3.95,5.42,5.42,0,0,0-1.61-4,5.58,5.58,0,0,0-7.88,7.91Z"/><path class="cls-2" d="M1271.14,650a7,7,0,0,1,5.13,2.14,7.51,7.51,0,0,1,0,10.48,7,7,0,0,1-5.13,2.13,6.3,6.3,0,0,1-5.69-3.09v2.76h-1.86V644.69h1.86v8.39A6.31,6.31,0,0,1,1271.14,650Zm-4.09,11.33a5.55,5.55,0,0,0,9.49-3.95,5.55,5.55,0,1,0-9.49,3.95Z"/><path class="cls-2" d="M1288,650a6.4,6.4,0,0,1,5,2.21,7.69,7.69,0,0,1,1.93,5.23q0,.3-.06.87h-12.36a5,5,0,0,0,1.82,3.39,5.77,5.77,0,0,0,3.79,1.25,5.54,5.54,0,0,0,2.77-.66,4.51,4.51,0,0,0,1.76-1.73l1.63,1a6.69,6.69,0,0,1-2.53,2.36,7.56,7.56,0,0,1-3.66.87,7.31,7.31,0,0,1-5.41-2.08,7.76,7.76,0,0,1,0-10.55A7.05,7.05,0,0,1,1288,650Zm0,1.81a5.27,5.27,0,0,0-5.44,4.7h10.5a5.25,5.25,0,0,0-1.71-3.47A5,5,0,0,0,1288,651.79Z"/><path class="cls-2" d="M1305.25,644.69h2V664.4h-2Z"/><path class="cls-2" d="M1318,650a5.26,5.26,0,0,1,4,1.57,5.84,5.84,0,0,1,1.48,4.2v8.65h-1.86v-8.65a4,4,0,0,0-1-2.92,3.71,3.71,0,0,0-2.83-1,4.41,4.41,0,0,0-3.29,1.28,5.43,5.43,0,0,0-1.27,3.95v7.38h-1.85V650.32h1.85v2.2A5.22,5.22,0,0,1,1318,650Z"/><path class="cls-2" d="M1339.26,644.69h1.86V664.4h-1.86v-2.76a6.31,6.31,0,0,1-5.69,3.09,7,7,0,0,1-5.14-2.13,7.54,7.54,0,0,1,0-10.48,7,7,0,0,1,5.14-2.14,6.32,6.32,0,0,1,5.69,3.1Zm-9.49,16.62a5.55,5.55,0,0,0,9.49-3.95,5.42,5.42,0,0,0-1.61-4,5.58,5.58,0,0,0-7.88,7.91Z"/><path class="cls-2" d="M1351.56,650a6.39,6.39,0,0,1,5,2.21,7.69,7.69,0,0,1,1.93,5.23c0,.2,0,.49,0,.87h-12.36a5,5,0,0,0,1.81,3.39,5.79,5.79,0,0,0,3.79,1.25,5.54,5.54,0,0,0,2.77-.66,4.44,4.44,0,0,0,1.76-1.73l1.63,1a6.69,6.69,0,0,1-2.53,2.36,7.56,7.56,0,0,1-3.66.87,7.29,7.29,0,0,1-5.4-2.08,7.74,7.74,0,0,1,0-10.55A7.05,7.05,0,0,1,1351.56,650Zm0,1.81a5.27,5.27,0,0,0-5.43,4.7h10.5a5.26,5.26,0,0,0-1.72-3.47A5,5,0,0,0,1351.56,651.79Z"/><path class="cls-2" d="M1362.4,654a1.7,1.7,0,0,0,.85,1.5,7.6,7.6,0,0,0,2.07.9l2.42.69a4.31,4.31,0,0,1,2,1.25,3.33,3.33,0,0,1,.84,2.37,3.59,3.59,0,0,1-1.42,2.93,5.77,5.77,0,0,1-3.68,1.12,6.33,6.33,0,0,1-3.45-.9,4.84,4.84,0,0,1-2-2.33l1.58-.93a3.25,3.25,0,0,0,1.42,1.73,5.1,5.1,0,0,0,4.74.09,1.85,1.85,0,0,0,.93-1.71,1.75,1.75,0,0,0-.85-1.52,7.32,7.32,0,0,0-2.05-.9l-2.42-.7a4.52,4.52,0,0,1-2.06-1.23,3.23,3.23,0,0,1-.84-2.32,3.61,3.61,0,0,1,1.36-2.87,5.16,5.16,0,0,1,3.45-1.16,5.76,5.76,0,0,1,3,.78,4.67,4.67,0,0,1,1.91,2.1l-1.55.9a3.26,3.26,0,0,0-3.38-2,3.8,3.8,0,0,0-2.08.56A1.83,1.83,0,0,0,1362.4,654Z"/><path class="cls-2" d="M1375.46,646.94a1.35,1.35,0,1,1-1.91-1.91,1.35,1.35,0,0,1,1.91,1.91Zm-1.89,17.46V650.32h1.86V664.4Z"/><path class="cls-2" d="M1391.48,650.32h1.85v13.51a5.9,5.9,0,0,1-2.08,4.79,7.53,7.53,0,0,1-5,1.75c-3.3,0-5.53-1.15-6.67-3.44l1.63-.93q1.26,2.57,5,2.56a5.39,5.39,0,0,0,3.81-1.28,4.45,4.45,0,0,0,1.4-3.45v-2.19a6.31,6.31,0,0,1-5.69,3.09,7,7,0,0,1-5.14-2.13,7.54,7.54,0,0,1,0-10.48,7,7,0,0,1,5.14-2.14,6.32,6.32,0,0,1,5.69,3.1Zm-9.49,11a5.55,5.55,0,0,0,9.49-3.95,5.42,5.42,0,0,0-1.61-4,5.58,5.58,0,0,0-7.88,7.91Z"/><path class="cls-2" d="M1403.86,650a5.26,5.26,0,0,1,4,1.57,5.84,5.84,0,0,1,1.48,4.2v8.65h-1.86v-8.65a4,4,0,0,0-1-2.92,3.71,3.71,0,0,0-2.83-1,4.39,4.39,0,0,0-3.29,1.28,5.43,5.43,0,0,0-1.27,3.95v7.38h-1.85V650.32h1.85v2.2A5.21,5.21,0,0,1,1403.86,650Z"/><rect class="cls-3" x="254.19" y="626.12" width="140.87" height="62.77" rx="24.74"/><rect class="cls-3" x="1454.62" y="626.12" width="106.57" height="62.77" rx="24.74"/><rect class="cls-3" x="412.28" y="626.12" width="180.86" height="62.77" rx="24.74"/><rect class="cls-3" x="1577.93" y="626.12" width="109.75" height="62.77" rx="24.74"/><rect class="cls-3" x="609.75" y="626.12" width="275.23" height="62.77" rx="24.74"/><rect class="cls-3" x="901.6" y="626.12" width="270.19" height="62.77" rx="24.74"/><rect class="cls-3" x="1188.44" y="626.12" width="249.43" height="62.77" rx="24.74"/><path class="cls-2" d="M1298.77,734.2a5.35,5.35,0,0,1,2.3,1.87,5,5,0,0,1,.85,2.86,5.46,5.46,0,0,1-5.49,5.49h-8.58v-19.7h7.94a5.31,5.31,0,0,1,5.29,5.29A4.64,4.64,0,0,1,1298.77,734.2Zm-3-7.63h-6v6.87h6a3.15,3.15,0,0,0,2.35-1,3.52,3.52,0,0,0,0-4.85A3.13,3.13,0,0,0,1295.79,726.57Zm.64,16a3.38,3.38,0,0,0,2.5-1,3.75,3.75,0,0,0,0-5.14,3.36,3.36,0,0,0-2.5-1.07h-6.61v7.26Z"/><path class="cls-2" d="M1305,744.42V723.87h1.86v20.55Z"/><path class="cls-2" d="M1317.32,730a6.35,6.35,0,0,1,5,2.21,7.65,7.65,0,0,1,1.93,5.22c0,.21,0,.5,0,.87h-12.36a5,5,0,0,0,1.81,3.39,5.8,5.8,0,0,0,3.79,1.26,5.54,5.54,0,0,0,2.77-.66,4.46,4.46,0,0,0,1.76-1.74l1.64,1a6.74,6.74,0,0,1-2.54,2.37,7.56,7.56,0,0,1-3.66.87,7.34,7.34,0,0,1-5.4-2.08,7.76,7.76,0,0,1,0-10.56A7,7,0,0,1,1317.32,730Zm0,1.8a5.27,5.27,0,0,0-5.43,4.7h10.5a5.23,5.23,0,0,0-1.72-3.46A5,5,0,0,0,1317.32,731.81Z"/><path class="cls-2" d="M1333.85,730a5.32,5.32,0,0,1,4,1.56,5.88,5.88,0,0,1,1.47,4.21v8.64h-1.86v-8.64a4.09,4.09,0,0,0-1-2.93,3.76,3.76,0,0,0-2.83-1,4.47,4.47,0,0,0-3.3,1.28,5.44,5.44,0,0,0-1.26,4v7.37h-1.86V730.35h1.86v2.19A5.19,5.19,0,0,1,1333.85,730Z"/><path class="cls-2" d="M1355.07,724.72h1.86v19.7h-1.86v-2.76a6.3,6.3,0,0,1-5.69,3.1,7,7,0,0,1-5.13-2.14,7.5,7.5,0,0,1,0-10.47,7,7,0,0,1,5.13-2.14,6.31,6.31,0,0,1,5.69,3.09Zm-9.49,16.62a5.61,5.61,0,0,0,7.89,0,5.69,5.69,0,0,0,0-7.91,5.55,5.55,0,0,0-9.49,4A5.41,5.41,0,0,0,1345.58,741.34Z"/><path class="cls-2" d="M1367.37,730a6.35,6.35,0,0,1,5.05,2.21,7.65,7.65,0,0,1,1.93,5.22c0,.21,0,.5,0,.87h-12.36a5,5,0,0,0,1.81,3.39,5.8,5.8,0,0,0,3.79,1.26,5.54,5.54,0,0,0,2.77-.66,4.46,4.46,0,0,0,1.76-1.74l1.64,1a6.74,6.74,0,0,1-2.54,2.37,7.56,7.56,0,0,1-3.66.87,7.34,7.34,0,0,1-5.4-2.08,7.76,7.76,0,0,1,0-10.56A7,7,0,0,1,1367.37,730Zm0,1.8a5.27,5.27,0,0,0-5.43,4.7h10.5a5.23,5.23,0,0,0-1.72-3.46A5,5,0,0,0,1367.37,731.81Z"/><path class="cls-2" d="M1379.17,732.68a4.56,4.56,0,0,1,4.44-2.56v1.8a4.63,4.63,0,0,0-3.18,1.13,4.53,4.53,0,0,0-1.26,3.55v7.82h-1.86V730.35h1.86Z"/><path class="cls-2" d="M617.81,747.8,616,743h-9.35l-1.83,4.84h-2.08l7.57-19.7h2l7.57,19.7Zm-10.48-6.7h7.95l-4-10.53Z"/><path class="cls-2" d="M634,728.1h1.86v19.7H634V745a6.28,6.28,0,0,1-5.68,3.1,7,7,0,0,1-5.14-2.14,7.52,7.52,0,0,1,0-10.47,7,7,0,0,1,5.14-2.14,6.28,6.28,0,0,1,5.68,3.1Zm-9.48,16.62a5.6,5.6,0,0,0,7.88,0,5.69,5.69,0,0,0,0-7.91,5.6,5.6,0,0,0-7.88,0,5.66,5.66,0,0,0,0,7.91Z"/><path class="cls-2" d="M651.57,746a7.56,7.56,0,0,1-10.5,0,7.48,7.48,0,0,1,0-10.5,7.54,7.54,0,0,1,10.5,0,7.46,7.46,0,0,1,0,10.5Zm-9.19-1.3a5.6,5.6,0,0,0,7.88,0,5.66,5.66,0,0,0,0-7.91,5.6,5.6,0,0,0-7.88,0,5.69,5.69,0,0,0,0,7.91Z"/><path class="cls-2" d="M664.37,733.39a7,7,0,0,1,5.13,2.14,7.5,7.5,0,0,1,0,10.47,7,7,0,0,1-5.13,2.14,6.29,6.29,0,0,1-5.69-3.1v2.76h-1.86V728.1h1.86v8.39A6.29,6.29,0,0,1,664.37,733.39Zm-4.09,11.33a5.55,5.55,0,0,0,9.49-4,5.41,5.41,0,0,0-1.6-4,5.61,5.61,0,0,0-7.89,0,5.69,5.69,0,0,0,0,7.91Z"/><path class="cls-2" d="M681.23,733.39a6.4,6.4,0,0,1,5,2.21,7.65,7.65,0,0,1,1.93,5.22,8.61,8.61,0,0,1-.06.87H675.79a5.09,5.09,0,0,0,1.82,3.4,5.81,5.81,0,0,0,3.79,1.25,5.54,5.54,0,0,0,2.77-.66,4.51,4.51,0,0,0,1.76-1.73l1.63.95a6.64,6.64,0,0,1-2.53,2.37,7.56,7.56,0,0,1-3.66.87,7.31,7.31,0,0,1-5.41-2.08,7.17,7.17,0,0,1-2.08-5.29,7.26,7.26,0,0,1,2.06-5.27A7,7,0,0,1,681.23,733.39Zm0,1.8a5.27,5.27,0,0,0-5.44,4.7h10.5a5.25,5.25,0,0,0-1.71-3.46A5,5,0,0,0,681.23,735.19Z"/><path class="cls-2" d="M705.52,728.1a6.19,6.19,0,1,1,0,12.38h-5.07v7.32h-2V728.1Zm0,10.53a4.05,4.05,0,0,0,3-1.23,4.66,4.66,0,0,0,0-6.22,4,4,0,0,0-3-1.22h-5.07v8.67Z"/><path class="cls-2" d="M716.39,736.06a4.57,4.57,0,0,1,4.44-2.56v1.8a4.63,4.63,0,0,0-3.18,1.13,4.53,4.53,0,0,0-1.26,3.55v7.82h-1.86V733.73h1.86Z"/><path class="cls-2" d="M729,733.39a6.4,6.4,0,0,1,5.05,2.21,7.7,7.7,0,0,1,1.93,5.22,8.61,8.61,0,0,1-.06.87H723.59a5.09,5.09,0,0,0,1.82,3.4,5.81,5.81,0,0,0,3.79,1.25,5.57,5.57,0,0,0,2.77-.66,4.51,4.51,0,0,0,1.76-1.73l1.63.95a6.64,6.64,0,0,1-2.53,2.37,7.56,7.56,0,0,1-3.66.87,7.31,7.31,0,0,1-5.41-2.08,7.17,7.17,0,0,1-2.08-5.29,7.25,7.25,0,0,1,2.05-5.27A7.07,7.07,0,0,1,729,733.39Zm0,1.8a5.27,5.27,0,0,0-5.44,4.7h10.5a5.25,5.25,0,0,0-1.71-3.46A5,5,0,0,0,729,735.19Z"/><path class="cls-2" d="M754,733.39a5,5,0,0,1,3.81,1.52,5.68,5.68,0,0,1,1.45,4.11v8.78h-1.86V739a4,4,0,0,0-.94-2.83,3.25,3.25,0,0,0-2.49-1,3.67,3.67,0,0,0-2.83,1.17A5.24,5.24,0,0,0,750,740v7.79h-1.86V739a4.1,4.1,0,0,0-.89-2.84,3.06,3.06,0,0,0-2.4-1,4,4,0,0,0-2.88,1.18,5,5,0,0,0-1.18,3.64v7.79H739V733.73h1.86v2a4.83,4.83,0,0,1,4.31-2.39,4.37,4.37,0,0,1,4.28,2.56A5,5,0,0,1,754,733.39Z"/><path class="cls-2" d="M764.72,730.35a1.36,1.36,0,0,1-1.91,0,1.35,1.35,0,1,1,1.91-1.91,1.36,1.36,0,0,1,0,1.91Zm-1.89,17.45V733.73h1.86V747.8Z"/><path class="cls-2" d="M775.14,733.39a6.4,6.4,0,0,1,5.05,2.21,7.7,7.7,0,0,1,1.93,5.22,8.61,8.61,0,0,1-.06.87H769.7a5.05,5.05,0,0,0,1.82,3.4,5.8,5.8,0,0,0,3.78,1.25,5.58,5.58,0,0,0,2.78-.66,4.51,4.51,0,0,0,1.76-1.73l1.63.95a6.64,6.64,0,0,1-2.53,2.37,7.56,7.56,0,0,1-3.66.87,7.31,7.31,0,0,1-5.41-2.08,7.17,7.17,0,0,1-2.08-5.29,7.25,7.25,0,0,1,2.05-5.27A7.07,7.07,0,0,1,775.14,733.39Zm0,1.8a5.27,5.27,0,0,0-5.44,4.7h10.5a5.29,5.29,0,0,0-1.71-3.46A5,5,0,0,0,775.14,735.19Z"/><path class="cls-2" d="M786.93,736.06a4.59,4.59,0,0,1,4.45-2.56v1.8a4.6,4.6,0,0,0-3.18,1.13,4.49,4.49,0,0,0-1.27,3.55v7.82h-1.86V733.73h1.86Z"/><path class="cls-2" d="M808.49,733.39a7,7,0,0,1,5.14,2.14,7.5,7.5,0,0,1,0,10.47,7,7,0,0,1-5.14,2.14,6.28,6.28,0,0,1-5.68-3.1v8.39H801v-19.7h1.86v2.76A6.28,6.28,0,0,1,808.49,733.39Zm-4.08,11.33a5.6,5.6,0,0,0,7.88,0,5.66,5.66,0,0,0,0-7.91,5.6,5.6,0,0,0-7.88,0,5.69,5.69,0,0,0,0,7.91Z"/><path class="cls-2" d="M820.71,736.06a4.59,4.59,0,0,1,4.45-2.56v1.8a4.6,4.6,0,0,0-3.18,1.13,4.49,4.49,0,0,0-1.27,3.55v7.82h-1.86V733.73h1.86Z"/><path class="cls-2" d="M838.66,746a7.56,7.56,0,0,1-10.5,0,7.46,7.46,0,0,1,0-10.5,7.54,7.54,0,0,1,10.5,0,7.48,7.48,0,0,1,0,10.5Zm-9.2-1.3a5.55,5.55,0,0,0,9.49-4,5.41,5.41,0,0,0-1.6-4,5.61,5.61,0,0,0-7.89,0,5.69,5.69,0,0,0,0,7.91Z"/><path class="cls-2" d="M300.34,747.8,298.51,743h-9.35l-1.83,4.84h-2.08l7.57-19.7h2l7.57,19.7Zm-10.48-6.7h7.95l-4-10.53Z"/><path class="cls-2" d="M316.5,728.1h1.85v19.7H316.5V745a6.3,6.3,0,0,1-5.69,3.1,7,7,0,0,1-5.14-2.14,7.52,7.52,0,0,1,0-10.47,7,7,0,0,1,5.14-2.14,6.3,6.3,0,0,1,5.69,3.1ZM307,744.72a5.6,5.6,0,0,0,7.88,0,5.66,5.66,0,0,0,0-7.91,5.6,5.6,0,0,0-7.88,0,5.69,5.69,0,0,0,0,7.91Z"/><path class="cls-2" d="M334.1,746a7.56,7.56,0,0,1-10.5,0,7.48,7.48,0,0,1,0-10.5,7.54,7.54,0,0,1,10.5,0,7.46,7.46,0,0,1,0,10.5Zm-9.19-1.3a5.6,5.6,0,0,0,7.88,0,5.66,5.66,0,0,0,0-7.91,5.6,5.6,0,0,0-7.88,0,5.69,5.69,0,0,0,0,7.91Z"/><path class="cls-2" d="M346.9,733.39a7,7,0,0,1,5.14,2.14A7.52,7.52,0,0,1,352,746a7,7,0,0,1-5.14,2.14,6.3,6.3,0,0,1-5.69-3.1v2.76h-1.86V728.1h1.86v8.39A6.3,6.3,0,0,1,346.9,733.39Zm-4.08,11.33a5.6,5.6,0,0,0,7.88,0,5.69,5.69,0,0,0,0-7.91,5.6,5.6,0,0,0-7.88,0,5.66,5.66,0,0,0,0,7.91Z"/><path class="cls-2" d="M363.76,733.39a6.39,6.39,0,0,1,5.05,2.21,7.65,7.65,0,0,1,1.93,5.22,8.61,8.61,0,0,1-.06.87H358.33a5,5,0,0,0,1.81,3.4,5.83,5.83,0,0,0,3.79,1.25,5.54,5.54,0,0,0,2.77-.66,4.44,4.44,0,0,0,1.76-1.73l1.63.95a6.64,6.64,0,0,1-2.53,2.37,7.56,7.56,0,0,1-3.66.87,7.31,7.31,0,0,1-5.41-2.08,7.77,7.77,0,0,1,0-10.56A7,7,0,0,1,363.76,733.39Zm0,1.8a5.34,5.34,0,0,0-3.67,1.31,5.25,5.25,0,0,0-1.76,3.39h10.5a5.26,5.26,0,0,0-1.72-3.46A5,5,0,0,0,363.76,735.19Z"/><path class="cls-2" d="M394.13,747.8,392.31,743H383l-1.82,4.84H379l7.58-19.7h2l7.58,19.7Zm-10.47-6.7h7.95l-4-10.53Z"/><path class="cls-2" d="M405.08,729.56a4,4,0,0,0-3.05.71,3.64,3.64,0,0,0-1,2.89v.57h4.05v1.8H401V747.8h-1.86V735.53h-2.39v-1.8h2.39v-.57a5.41,5.41,0,0,1,1.54-4.18,5.62,5.62,0,0,1,4.37-1.22Z"/><path class="cls-2" d="M415.08,735.53H411v8.53a2.43,2.43,0,0,0,.45,1.65,1.81,1.81,0,0,0,1.35.5c.6,0,1.35,0,2.26,0v1.63a6.87,6.87,0,0,1-4.44-.42c-1-.58-1.48-1.69-1.48-3.32v-8.53h-3v-1.8h3v-3.38l1.86-.56v3.94h4.06Z"/><path class="cls-2" d="M423.83,733.39a6.39,6.39,0,0,1,5.05,2.21,7.65,7.65,0,0,1,1.93,5.22,8.61,8.61,0,0,1-.06.87H418.4a5,5,0,0,0,1.81,3.4,5.84,5.84,0,0,0,3.79,1.25,5.54,5.54,0,0,0,2.77-.66,4.44,4.44,0,0,0,1.76-1.73l1.63.95a6.64,6.64,0,0,1-2.53,2.37,7.56,7.56,0,0,1-3.66.87,7.29,7.29,0,0,1-5.4-2.08,7.18,7.18,0,0,1-2.09-5.29,7.26,7.26,0,0,1,2.06-5.27A7,7,0,0,1,423.83,733.39Zm0,1.8a5.34,5.34,0,0,0-3.67,1.31,5.25,5.25,0,0,0-1.76,3.39h10.5a5.26,5.26,0,0,0-1.72-3.46A5,5,0,0,0,423.83,735.19Z"/><path class="cls-2" d="M435.62,736.06a4.6,4.6,0,0,1,4.45-2.56v1.8a4.63,4.63,0,0,0-3.18,1.13,4.53,4.53,0,0,0-1.27,3.55v7.82h-1.85V733.73h1.85Z"/><path class="cls-2" d="M451.9,745.94h9.57v1.86H449.93V728.1h11.4V730H451.9v7h8.72v1.85H451.9Z"/><path class="cls-2" d="M479.2,729.28a4,4,0,0,0-3.05.7,3.68,3.68,0,0,0-1,2.9v.85h4.05v1.8h-4.05V747.8h-1.86V735.53h-5.74V747.8h-1.86V735.53H463.3v-1.8h2.39v-.57a5.45,5.45,0,0,1,1.53-4.18,5.65,5.65,0,0,1,4.38-1.22v1.8a4,4,0,0,0-3.05.71,3.64,3.64,0,0,0-1,2.89v.57h5.74v-.85a5.43,5.43,0,0,1,1.53-4.18,5.66,5.66,0,0,1,4.38-1.22Z"/><path class="cls-2" d="M486.83,733.39a6.39,6.39,0,0,1,5.05,2.21,7.65,7.65,0,0,1,1.93,5.22,8.61,8.61,0,0,1-.06.87H481.4a5,5,0,0,0,1.81,3.4,5.84,5.84,0,0,0,3.79,1.25,5.54,5.54,0,0,0,2.77-.66,4.44,4.44,0,0,0,1.76-1.73l1.63.95a6.64,6.64,0,0,1-2.53,2.37,7.56,7.56,0,0,1-3.66.87,7.29,7.29,0,0,1-5.4-2.08,7.18,7.18,0,0,1-2.09-5.29,7.26,7.26,0,0,1,2.06-5.27A7,7,0,0,1,486.83,733.39Zm0,1.8a5.34,5.34,0,0,0-3.67,1.31,5.25,5.25,0,0,0-1.76,3.39h10.5a5.26,5.26,0,0,0-1.72-3.46A5,5,0,0,0,486.83,735.19Z"/><path class="cls-2" d="M503.33,748.14a7.38,7.38,0,1,1,0-14.75,7.1,7.1,0,0,1,3.74,1,5.93,5.93,0,0,1,2.42,2.69L508,738a4.36,4.36,0,0,0-1.82-2,5.58,5.58,0,1,0,0,9.65,5.27,5.27,0,0,0,1.94-2l1.55.9a6.39,6.39,0,0,1-2.56,2.67A7.26,7.26,0,0,1,503.33,748.14Z"/><path class="cls-2" d="M519.76,735.53h-4v8.53a2.43,2.43,0,0,0,.45,1.65,1.81,1.81,0,0,0,1.35.5c.6,0,1.35,0,2.25,0v1.63a6.85,6.85,0,0,1-4.43-.42c-1-.58-1.48-1.69-1.48-3.32v-8.53h-3v-1.8h3v-3.38l1.86-.56v3.94h4Z"/><path class="cls-2" d="M523.48,737.38a1.7,1.7,0,0,0,.86,1.49,7.67,7.67,0,0,0,2.06.9l2.42.69a4.33,4.33,0,0,1,2,1.26,3.37,3.37,0,0,1,.83,2.37,3.54,3.54,0,0,1-1.42,2.92,5.68,5.68,0,0,1-3.67,1.13,6.28,6.28,0,0,1-3.45-.9,4.84,4.84,0,0,1-2-2.34l1.58-.93a3.32,3.32,0,0,0,1.42,1.74,4.57,4.57,0,0,0,2.44.63,4.43,4.43,0,0,0,2.3-.55,1.84,1.84,0,0,0,.93-1.7,1.74,1.74,0,0,0-.84-1.52,7.24,7.24,0,0,0-2.06-.91l-2.42-.69a4.44,4.44,0,0,1-2-1.23,3.21,3.21,0,0,1-.85-2.32,3.63,3.63,0,0,1,1.37-2.88,5.15,5.15,0,0,1,3.45-1.15,5.83,5.83,0,0,1,3,.77,4.78,4.78,0,0,1,1.91,2.1l-1.55.9a3.27,3.27,0,0,0-3.37-2,3.74,3.74,0,0,0-2.09.57A1.83,1.83,0,0,0,523.48,737.38Z"/><path class="cls-2" d="M924.21,744.42l-1.83-4.84H913l-1.83,4.84h-2.08l7.57-19.71h2l7.57,19.71Zm-10.48-6.7h7.95l-4-10.54Z"/><path class="cls-2" d="M938.31,730.34h1.86v14.08h-1.86v-2.2a5.21,5.21,0,0,1-4.73,2.54,5.27,5.27,0,0,1-4-1.57,5.88,5.88,0,0,1-1.48-4.2v-8.65h1.86V739a4,4,0,0,0,1,2.92,3.73,3.73,0,0,0,2.83,1.05,4.4,4.4,0,0,0,3.29-1.29,5.39,5.39,0,0,0,1.27-3.95Z"/><path class="cls-2" d="M951.57,732.15h-4.05v8.53a2.4,2.4,0,0,0,.45,1.64,1.78,1.78,0,0,0,1.35.51c.6,0,1.35,0,2.25,0v1.63a6.84,6.84,0,0,1-4.43-.42c-1-.58-1.48-1.69-1.48-3.32v-8.53h-3v-1.81h3V727l1.86-.57v3.94h4.05Z"/><path class="cls-2" d="M965.63,742.63a7.54,7.54,0,0,1-10.5,0,7.48,7.48,0,0,1,0-10.5,7.56,7.56,0,0,1,10.5,0,7.48,7.48,0,0,1,0,10.5Zm-9.19-1.29a5.6,5.6,0,0,0,7.88,0,5.66,5.66,0,0,0,0-7.91,5.6,5.6,0,0,0-7.88,0,5.66,5.66,0,0,0,0,7.91Z"/><path class="cls-2" d="M983,724.71h1.86v19.71H983v-2.76a6.28,6.28,0,0,1-5.68,3.1,7,7,0,0,1-5.14-2.14,7.5,7.5,0,0,1,0-10.47A7,7,0,0,1,977.3,730,6.29,6.29,0,0,1,983,733.1Zm-9.48,16.63a5.6,5.6,0,0,0,7.88,0,5.69,5.69,0,0,0,0-7.91,5.6,5.6,0,0,0-7.88,0,5.66,5.66,0,0,0,0,7.91Z"/><path class="cls-2" d="M995.29,730a6.37,6.37,0,0,1,5.05,2.21,7.7,7.7,0,0,1,1.93,5.22,8.61,8.61,0,0,1-.06.87H989.85a5,5,0,0,0,1.82,3.39,5.75,5.75,0,0,0,3.78,1.26,5.48,5.48,0,0,0,2.78-.67,4.44,4.44,0,0,0,1.76-1.73l1.63,1a6.61,6.61,0,0,1-2.53,2.36,7.45,7.45,0,0,1-3.66.88,7.32,7.32,0,0,1-5.41-2.09,7.14,7.14,0,0,1-2.08-5.29,7.24,7.24,0,0,1,2-5.26A7.07,7.07,0,0,1,995.29,730Zm0,1.8a5.27,5.27,0,0,0-5.44,4.7h10.5a5.27,5.27,0,0,0-1.71-3.46A5,5,0,0,0,995.29,731.81Z"/><path class="cls-2" d="M1006.12,734a1.71,1.71,0,0,0,.86,1.49,7.6,7.6,0,0,0,2.07.9l2.42.69a4.41,4.41,0,0,1,2,1.25,3.41,3.41,0,0,1,.83,2.37,3.55,3.55,0,0,1-1.42,2.93,5.74,5.74,0,0,1-3.67,1.13,6.33,6.33,0,0,1-3.45-.9,4.84,4.84,0,0,1-2-2.34l1.58-.93a3.3,3.3,0,0,0,1.42,1.73,5,5,0,0,0,4.75.09,1.84,1.84,0,0,0,.92-1.7,1.74,1.74,0,0,0-.84-1.52,7.12,7.12,0,0,0-2.06-.91l-2.42-.69a4.42,4.42,0,0,1-2-1.24,3.23,3.23,0,0,1-.84-2.32,3.61,3.61,0,0,1,1.36-2.87,5.15,5.15,0,0,1,3.45-1.15,5.81,5.81,0,0,1,3,.77,4.86,4.86,0,0,1,1.92,2.1l-1.55.9a3.28,3.28,0,0,0-3.38-2,3.7,3.7,0,0,0-2.08.57A1.79,1.79,0,0,0,1006.12,734Z"/><path class="cls-2" d="M1028.67,744.42h-2.48l-7-6.79v6.79h-1.86V724.71h1.86v11.87l6.7-6.24h2.53l-7.26,6.76Z"/><path class="cls-2" d="M1044.65,732.92a6.64,6.64,0,0,1,3.89,1.81,5.34,5.34,0,0,1,1.53,4,5.5,5.5,0,0,1-1.93,4.43,7.06,7.06,0,0,1-4.69,1.62,7.5,7.5,0,0,1-3.91-1,5.45,5.45,0,0,1-2.42-2.9l1.63-1a3.91,3.91,0,0,0,1.72,2.21,5.73,5.73,0,0,0,3,.74,5.1,5.1,0,0,0,3.34-1.08,4.22,4.22,0,0,0,0-6.11,5,5,0,0,0-3.31-1.08v0l0,.05h-.55l-.86-1.32,4.9-6.7h-9.26v-1.86h11.54v1.87Z"/><path class="cls-2" d="M1065.27,724.71h1.85v19.71h-1.85v-2.76a6.3,6.3,0,0,1-5.69,3.1,7,7,0,0,1-5.14-2.14,7.52,7.52,0,0,1,0-10.47,7,7,0,0,1,5.14-2.14,6.31,6.31,0,0,1,5.69,3.09Zm-9.49,16.63a5.6,5.6,0,0,0,7.88,0,5.66,5.66,0,0,0,0-7.91,5.6,5.6,0,0,0-7.88,0,5.66,5.66,0,0,0,0,7.91Z"/><path class="cls-2" d="M1084.58,744.76a8.2,8.2,0,0,1-4.63-1.28,6.64,6.64,0,0,1-2.69-3.54l1.69-1a5.16,5.16,0,0,0,2,2.86,6.19,6.19,0,0,0,3.69,1,5.37,5.37,0,0,0,3.42-1,3.13,3.13,0,0,0,1.22-2.57,2.67,2.67,0,0,0-1.13-2.34,14.74,14.74,0,0,0-3.71-1.63,21.63,21.63,0,0,1-4.06-1.64,4.3,4.3,0,0,1-2.25-3.91,4.83,4.83,0,0,1,1.75-3.95,6.49,6.49,0,0,1,4.3-1.45,6.78,6.78,0,0,1,4,1.19,7.31,7.31,0,0,1,2.51,3.06l-1.66.93a4.86,4.86,0,0,0-4.85-3.27,4.57,4.57,0,0,0-3,.9,3,3,0,0,0-1.13,2.51,2.52,2.52,0,0,0,1,2.19,12.42,12.42,0,0,0,3.35,1.49l1.53.53c.31.1.76.27,1.35.5a8.72,8.72,0,0,1,1.31.62c.28.18.62.42,1,.73a3.37,3.37,0,0,1,.87.93,5.73,5.73,0,0,1,.48,1.13,4.64,4.64,0,0,1,.21,1.42,4.92,4.92,0,0,1-1.83,4A7.29,7.29,0,0,1,1084.58,744.76Z"/><path class="cls-2" d="M1101.35,732.15h-4v8.53a2.4,2.4,0,0,0,.45,1.64,1.78,1.78,0,0,0,1.35.51c.6,0,1.35,0,2.25,0v1.63a6.85,6.85,0,0,1-4.43-.42c-1-.58-1.48-1.69-1.48-3.32v-8.53h-3v-1.81h3V727l1.86-.57v3.94h4Z"/><path class="cls-2" d="M1114.36,730.34h1.86v14.08h-1.86v-2.2a5.21,5.21,0,0,1-4.73,2.54,5.27,5.27,0,0,1-4-1.57,5.88,5.88,0,0,1-1.48-4.2v-8.65H1106V739a4,4,0,0,0,1,2.92,3.73,3.73,0,0,0,2.83,1.05,4.4,4.4,0,0,0,3.29-1.29,5.39,5.39,0,0,0,1.27-3.95Z"/><path class="cls-2" d="M1132.26,724.71h1.86v19.71h-1.86v-2.76a6.28,6.28,0,0,1-5.68,3.1,7,7,0,0,1-5.14-2.14,7.5,7.5,0,0,1,0-10.47,7,7,0,0,1,5.14-2.14,6.29,6.29,0,0,1,5.68,3.09Zm-9.48,16.63a5.6,5.6,0,0,0,7.88,0,5.69,5.69,0,0,0,0-7.91,5.55,5.55,0,0,0-9.49,4A5.42,5.42,0,0,0,1122.78,741.34Z"/><path class="cls-2" d="M1140,727a1.38,1.38,0,1,1,.39-1A1.32,1.32,0,0,1,1140,727Zm-1.89,17.45V730.34h1.86v14.08Z"/><path class="cls-2" d="M1155.67,742.63a7.54,7.54,0,0,1-10.5,0,7.48,7.48,0,0,1,0-10.5,7.56,7.56,0,0,1,10.5,0,7.48,7.48,0,0,1,0,10.5Zm-9.19-1.29a5.6,5.6,0,0,0,7.88,0,5.69,5.69,0,0,0,0-7.91,5.6,5.6,0,0,0-7.88,0,5.66,5.66,0,0,0,0,7.91Z"/><path class="cls-2" d="M1186.25,724.71v19.71h-2V727.7l-6.89,11.54h-.29l-6.89-11.54v16.72h-2V724.71h2.42l6.59,11,6.59-11Z"/><path class="cls-2" d="M1202.58,730.34h1.86v14.08h-1.86v-2.76a6.3,6.3,0,0,1-5.69,3.1,7,7,0,0,1-5.13-2.14,7.5,7.5,0,0,1,0-10.47,7,7,0,0,1,5.13-2.14,6.31,6.31,0,0,1,5.69,3.09Zm-9.49,11a5.61,5.61,0,0,0,7.89,0,5.69,5.69,0,0,0,0-7.91,5.55,5.55,0,0,0-9.49,4A5.41,5.41,0,0,0,1193.09,741.34Z"/><path class="cls-2" d="M1220.2,744.42H1218l-4.39-5.81-4.4,5.81H1207l5.51-7.28-5.14-6.8h2.22l4,5.33,4-5.33h2.23l-5.14,6.8Z"/><rect class="cls-3" x="1263.78" y="706.14" width="142.22" height="62.77" rx="24.74"/><rect class="cls-3" x="580.17" y="706.14" width="284.03" height="62.77" rx="24.74"/><rect class="cls-3" x="254.19" y="706.14" width="309.41" height="62.77" rx="24.74"/><rect class="cls-3" x="881.87" y="706.14" width="365.86" height="62.77" rx="24.74"/></svg>