<svg id="Layer_1" data-name="Layer 1" xmlns="http://www.w3.org/2000/svg" viewBox="0 0 1080 1994"><defs><style>.cls-1{fill:#fff;}.cls-2,.cls-4{fill:#8e8e8e;}.cls-3{fill:none;stroke-width:2.04px;}.cls-3,.cls-4{stroke:#4c4b4b;stroke-miterlimit:10;}</style></defs><path class="cls-1" d="M153.84,167.08q25.18,0,42.41,17t17.21,41.66q0,24.69-17.21,41.66t-42.41,17H123.16v57.3H88.73V167.08Zm0,85.06a24,24,0,0,0,18.21-7.61,26.28,26.28,0,0,0,7.23-18.83q0-11.47-7.23-19a24.29,24.29,0,0,0-18.21-7.48H123.16V252.1Z"/><path class="cls-1" d="M234.41,341.7V159.59h32.18V341.7Z"/><path class="cls-1" d="M390.83,217H423V341.7H390.83V327q-14.47,18.21-40.67,18.21-24.95,0-42.78-19.08t-17.84-46.78q0-27.69,17.84-46.77t42.78-19.08q26.2,0,40.67,18.21Zm-59.38,87.68q9.74,9.87,24.7,9.86T381,304.65q9.86-9.84,9.86-25.32T381,254q-9.86-9.84-24.82-9.85T331.45,254q-9.72,9.87-9.73,25.32t9.73,25.33Z"/><path class="cls-1" d="M533.51,217h34.43L522.46,341.9q-9.72,26.72-25.79,38.83t-40,10.86V361.66q13,.24,20.58-5.49t12.1-18.46L438.22,217h35.17l32.53,83.83Z"/><path class="cls-1" d="M260.11,434.83V448.3q0,37.41-24,60.62t-61.86,23.2q-40.42,0-67-26.32t-26.5-64.24q0-38.16,26.32-64.61t65.23-26.44a91.18,91.18,0,0,1,44.7,11.1,82.31,82.31,0,0,1,31.44,29.56l-29.44,17q-6.24-10.73-18.84-17.46A58.58,58.58,0,0,0,172.1,384q-24.94,0-41,16.34T115,441.6q0,24.7,16.34,40.79t43.28,16.09q20,0,33.06-8.86a44,44,0,0,0,17.83-24.32h-53V434.83Z"/><path class="cls-1" d="M315.24,425.35a33.58,33.58,0,0,1,14.84-18,45.23,45.23,0,0,1,23.08-6v35.92q-14.73-1.74-26.32,6T315.24,469v59.62H283.06V403.89h32.18Z"/><path class="cls-1" d="M473.39,513q-19.2,19.08-46.89,19.09T379.72,513q-19.08-19-19.08-46.74t19.08-46.78Q398.8,400.4,426.5,400.4t46.89,19.08q19.22,19.09,19.21,46.78T473.39,513Zm-71-22.08q9.6,9.74,24.08,9.73T450.69,491q9.74-9.72,9.73-24.69t-9.73-24.7q-9.72-9.74-24.19-9.73t-24.08,9.73q-9.6,9.74-9.6,24.7t9.6,24.69Z"/><path class="cls-1" d="M597.62,403.89h32.19V528.62H597.62v-14q-11.72,17.48-37.17,17.47-20.44,0-33.8-13.72t-13.34-37.92V403.89h32.18v72.6q0,12.47,6.73,19.08t18,6.61q12.48,0,20-7.73t7.48-23.2Z"/><path class="cls-1" d="M728.59,400.4q20.46,0,33.8,13.72T775.74,452v76.58H743.56V456q0-12.47-6.74-19.08t-18-6.61q-12.48,0-20,7.73t-7.48,23.2v67.35h-32.1V403.89h32.18v14Q703.15,400.4,728.59,400.4Z"/><path class="cls-1" d="M897.72,354h32.19V528.62H897.72V513.9q-14.21,18.23-40.41,18.22-25.2,0-43-19.09t-17.84-46.77q0-27.69,17.84-46.78t43-19.08q26.19,0,40.41,18.21ZM838.48,491.58q9.85,9.85,24.82,9.85t24.7-9.85q9.72-9.85,9.72-25.32T888,440.94q-9.74-9.85-24.7-9.86t-24.82,9.86q-9.86,9.85-9.86,25.32T838.48,491.58Z"/><path class="cls-1" d="M993,525.63a21.1,21.1,0,1,1,6.23-15A20.4,20.4,0,0,1,993,525.63Z"/><path class="cls-2" d="M99.92,648.46a10.87,10.87,0,0,1-13.92,0,8.83,8.83,0,0,1-2.66-6.73V624.64h2.59v17.09a6.59,6.59,0,0,0,1.85,4.92,8.32,8.32,0,0,0,10.36,0,6.59,6.59,0,0,0,1.85-4.92V624.64h2.59v17.09A8.83,8.83,0,0,1,99.92,648.46Z"/><path class="cls-2" d="M108.13,624.64h2.59v25.9h-2.59Z"/><path class="cls-2" d="M117,654.17l-1.85.07L130,621l1.85-.06Z"/><path class="cls-2" d="M152.46,648.46a10.87,10.87,0,0,1-13.92,0,8.83,8.83,0,0,1-2.66-6.73V624.64h2.59v17.09a6.59,6.59,0,0,0,1.85,4.92,8.32,8.32,0,0,0,10.36,0,6.59,6.59,0,0,0,1.85-4.92V624.64h2.59v17.09A8.83,8.83,0,0,1,152.46,648.46Z"/><path class="cls-2" d="M178.06,650.54h-3l-7-11.06-7,11.06h-3l8.52-13.37-8-12.53h2.93l6.51,10.22,6.51-10.22h2.92l-8,12.53Z"/><path class="cls-2" d="M201,624.64a11.39,11.39,0,0,1,8.75,3.75,13.95,13.95,0,0,1,0,18.39,11.37,11.37,0,0,1-8.75,3.76H191v-25.9Zm0,23.45a8.94,8.94,0,0,0,7-3,11.63,11.63,0,0,0,0-14.95,8.94,8.94,0,0,0-7-3h-7.4v21Z"/><path class="cls-2" d="M225.83,631.59a8.39,8.39,0,0,1,6.64,2.91,10.07,10.07,0,0,1,2.53,6.86c0,.27,0,.65-.07,1.15H218.68a6.69,6.69,0,0,0,2.39,4.46,7.64,7.64,0,0,0,5,1.64,7.26,7.26,0,0,0,3.64-.87,5.8,5.8,0,0,0,2.31-2.27l2.15,1.26a8.73,8.73,0,0,1-3.33,3.1A9.86,9.86,0,0,1,226,651a9.58,9.58,0,0,1-7.1-2.74,9.39,9.39,0,0,1-2.74-7,9.52,9.52,0,0,1,2.7-6.92A9.29,9.29,0,0,1,225.83,631.59Zm0,2.37a6.94,6.94,0,0,0-7.15,6.18h13.8a6.84,6.84,0,0,0-2.25-4.55A6.52,6.52,0,0,0,225.83,634Z"/><path class="cls-2" d="M240.07,636.83a2.22,2.22,0,0,0,1.13,2,9.67,9.67,0,0,0,2.71,1.18l3.18.91a5.66,5.66,0,0,1,2.69,1.65,4.4,4.4,0,0,1,1.09,3.11A4.7,4.7,0,0,1,249,649.5a7.54,7.54,0,0,1-4.83,1.48,8.32,8.32,0,0,1-4.54-1.18,6.36,6.36,0,0,1-2.6-3.07l2.07-1.23a4.28,4.28,0,0,0,1.87,2.28,6,6,0,0,0,3.2.83,5.86,5.86,0,0,0,3-.72,2.39,2.39,0,0,0,1.22-2.23,2.29,2.29,0,0,0-1.11-2,9.91,9.91,0,0,0-2.7-1.2l-3.18-.9a6,6,0,0,1-2.7-1.62,4.26,4.26,0,0,1-1.11-3.06,4.76,4.76,0,0,1,1.79-3.77,6.8,6.8,0,0,1,4.54-1.52,7.52,7.52,0,0,1,3.95,1,6.22,6.22,0,0,1,2.52,2.76l-2,1.18Q247.32,634,244,634a4.87,4.87,0,0,0-2.74.75A2.36,2.36,0,0,0,240.07,636.83Z"/><path class="cls-2" d="M257.24,627.6a1.79,1.79,0,1,1,.52-1.26A1.75,1.75,0,0,1,257.24,627.6Zm-2.48,22.94V632h2.44v18.5Z"/><path class="cls-2" d="M278.29,632h2.44V649.8a7.78,7.78,0,0,1-2.73,6.29,9.87,9.87,0,0,1-6.55,2.29q-6.52,0-8.77-4.51l2.14-1.22q1.67,3.36,6.63,3.36a7.13,7.13,0,0,0,5-1.68,5.85,5.85,0,0,0,1.83-4.53v-2.89a8.28,8.28,0,0,1-7.47,4.07,9.21,9.21,0,0,1-6.76-2.81,9.88,9.88,0,0,1,0-13.76,9.18,9.18,0,0,1,6.76-2.82,8.28,8.28,0,0,1,7.47,4.07Zm-12.47,14.45a7.33,7.33,0,1,0,0-10.4,7.46,7.46,0,0,0,0,10.4Z"/><path class="cls-2" d="M294.57,631.59a7,7,0,0,1,5.31,2.06,7.69,7.69,0,0,1,1.94,5.53v11.36h-2.44V639.18a5.36,5.36,0,0,0-1.31-3.85,4.94,4.94,0,0,0-3.72-1.37,5.82,5.82,0,0,0-4.33,1.68q-1.66,1.7-1.67,5.2v9.7h-2.44V632h2.44v2.88A6.86,6.86,0,0,1,294.57,631.59Z"/><path class="cls-2" d="M316.18,657.94v-34h2.44v34Z"/><path class="cls-2" d="M336.38,648.09h11.84v2.45H333.79v-25.9h2.59Z"/><path class="cls-2" d="M366.15,648.19a9.93,9.93,0,0,1-13.8,0,9.83,9.83,0,0,1,0-13.8,9.76,9.76,0,0,1,13.8,13.8Zm-12.08-1.7a7.39,7.39,0,0,0,10.36,0,7.46,7.46,0,0,0,0-10.4,7.29,7.29,0,0,0-12.47,5.2A7.11,7.11,0,0,0,354.07,646.49Z"/><path class="cls-2" d="M389,632h2.44V649.8a7.76,7.76,0,0,1-2.74,6.29,9.85,9.85,0,0,1-6.55,2.29q-6.51,0-8.77-4.51l2.15-1.22q1.67,3.36,6.62,3.36a7.17,7.17,0,0,0,5-1.68A5.85,5.85,0,0,0,389,649.8v-2.89a8.31,8.31,0,0,1-7.48,4.07,9.17,9.17,0,0,1-6.75-2.81,9.88,9.88,0,0,1,0-13.76,9.15,9.15,0,0,1,6.75-2.82,8.31,8.31,0,0,1,7.48,4.07Zm-12.47,14.45a7.39,7.39,0,0,0,10.36,0,7.46,7.46,0,0,0,0-10.4,7.36,7.36,0,0,0-10.36,0,7.46,7.46,0,0,0,0,10.4Z"/><path class="cls-2" d="M412.1,648.19a9.93,9.93,0,0,1-13.8,0,9.83,9.83,0,0,1,0-13.8,9.9,9.9,0,0,1,13.8,0,9.83,9.83,0,0,1,0,13.8ZM400,646.49a7.46,7.46,0,1,0-2.11-5.2A7,7,0,0,0,400,646.49Z"/><path class="cls-2" d="M444.16,632h2.44v18.5h-2.44v-3.63a8.28,8.28,0,0,1-7.47,4.07,9.21,9.21,0,0,1-6.76-2.81,9.88,9.88,0,0,1,0-13.76,9.18,9.18,0,0,1,6.76-2.82,8.28,8.28,0,0,1,7.47,4.07Zm-12.47,14.45a7.33,7.33,0,1,0,0-10.4,7.46,7.46,0,0,0,0,10.4Z"/><path class="cls-2" d="M460.44,631.59a7,7,0,0,1,5.31,2.06,7.74,7.74,0,0,1,1.94,5.53v11.36h-2.44V639.18a5.36,5.36,0,0,0-1.31-3.85,4.94,4.94,0,0,0-3.72-1.37,5.82,5.82,0,0,0-4.33,1.68q-1.67,1.7-1.67,5.2v9.7h-2.44V632h2.44v2.88A6.85,6.85,0,0,1,460.44,631.59Z"/><path class="cls-2" d="M488.34,624.64h2.44v25.9h-2.44v-3.63a8.3,8.3,0,0,1-7.48,4.07,9.17,9.17,0,0,1-6.75-2.81,9.88,9.88,0,0,1,0-13.76,9.15,9.15,0,0,1,6.75-2.82,8.3,8.3,0,0,1,7.48,4.07Zm-12.47,21.85a7.39,7.39,0,0,0,10.36,0,7.46,7.46,0,0,0,0-10.4,7.36,7.36,0,0,0-10.36,0,7.46,7.46,0,0,0,0,10.4Z"/><path class="cls-2" d="M519.94,637.11a6.86,6.86,0,0,1,3,2.46,6.48,6.48,0,0,1,1.13,3.75,7.2,7.2,0,0,1-7.22,7.22H505.58v-25.9H516a7,7,0,0,1,7,7A6.11,6.11,0,0,1,519.94,637.11Zm-3.93-10h-7.84v9H516a4.14,4.14,0,0,0,3.09-1.32,4.62,4.62,0,0,0,0-6.38A4.11,4.11,0,0,0,516,627.08Zm.85,21a4.41,4.41,0,0,0,3.28-1.38,4.89,4.89,0,0,0,0-6.75,4.37,4.37,0,0,0-3.28-1.41h-8.69v9.54Z"/><path class="cls-2" d="M530.59,635.11a6,6,0,0,1,5.85-3.37v2.37a6,6,0,0,0-4.18,1.48,5.94,5.94,0,0,0-1.67,4.66v10.29h-2.44V632h2.44Z"/><path class="cls-2" d="M554.57,632H557v18.5h-2.44v-3.63a8.31,8.31,0,0,1-7.48,4.07,9.17,9.17,0,0,1-6.75-2.81,9.88,9.88,0,0,1,0-13.76,9.15,9.15,0,0,1,6.75-2.82,8.31,8.31,0,0,1,7.48,4.07ZM542.1,646.49a7.39,7.39,0,0,0,10.36,0,7.46,7.46,0,0,0,0-10.4,7.29,7.29,0,0,0-12.47,5.2A7.11,7.11,0,0,0,542.1,646.49Z"/><path class="cls-2" d="M570.85,631.59a7,7,0,0,1,5.31,2.06,7.74,7.74,0,0,1,1.94,5.53v11.36h-2.44V639.18a5.32,5.32,0,0,0-1.32-3.85,4.91,4.91,0,0,0-3.72-1.37,5.84,5.84,0,0,0-4.33,1.68q-1.66,1.7-1.66,5.2v9.7h-2.44V632h2.44v2.88A6.84,6.84,0,0,1,570.85,631.59Z"/><path class="cls-2" d="M598.74,624.64h2.45v25.9h-2.45v-3.63a8.28,8.28,0,0,1-7.47,4.07,9.17,9.17,0,0,1-6.75-2.81,9.85,9.85,0,0,1,0-13.76,9.15,9.15,0,0,1,6.75-2.82,8.28,8.28,0,0,1,7.47,4.07Zm-12.47,21.85a7.49,7.49,0,1,0-2.1-5.2A7.14,7.14,0,0,0,586.27,646.49Z"/><path class="cls-2" d="M626,624.64a11.38,11.38,0,0,1,8.75,3.75,13.95,13.95,0,0,1,0,18.39,11.35,11.35,0,0,1-8.75,3.76H616v-25.9Zm0,23.45a9,9,0,0,0,7-3,11.63,11.63,0,0,0,0-14.95,9,9,0,0,0-7-3h-7.4v21Z"/><path class="cls-2" d="M650.8,631.59a8.38,8.38,0,0,1,6.64,2.91,10.08,10.08,0,0,1,2.54,6.86c0,.27,0,.65-.08,1.15H643.66a6.65,6.65,0,0,0,2.39,4.46,7.63,7.63,0,0,0,5,1.64,7.3,7.3,0,0,0,3.65-.87,5.87,5.87,0,0,0,2.31-2.27l2.15,1.26a8.88,8.88,0,0,1-3.33,3.1A9.86,9.86,0,0,1,651,651a9.62,9.62,0,0,1-7.11-2.74,10.2,10.2,0,0,1,0-13.87A9.3,9.3,0,0,1,650.8,631.59Zm0,2.37a6.92,6.92,0,0,0-7.14,6.18h13.8a6.89,6.89,0,0,0-2.26-4.55A6.48,6.48,0,0,0,650.8,634Z"/><path class="cls-2" d="M665.05,636.83a2.23,2.23,0,0,0,1.12,2,9.87,9.87,0,0,0,2.72,1.18l3.18.91a5.66,5.66,0,0,1,2.69,1.65,4.4,4.4,0,0,1,1.09,3.11A4.68,4.68,0,0,1,674,649.5a7.5,7.5,0,0,1-4.83,1.48,8.31,8.31,0,0,1-4.53-1.18,6.44,6.44,0,0,1-2.61-3.07l2.07-1.23a4.32,4.32,0,0,0,1.87,2.28,6,6,0,0,0,3.2.83,5.92,5.92,0,0,0,3-.72,2.41,2.41,0,0,0,1.22-2.23,2.29,2.29,0,0,0-1.11-2,9.91,9.91,0,0,0-2.7-1.2l-3.18-.9a6.1,6.1,0,0,1-2.71-1.62,4.3,4.3,0,0,1-1.1-3.06,4.73,4.73,0,0,1,1.79-3.77,6.8,6.8,0,0,1,4.53-1.52,7.53,7.53,0,0,1,4,1,6.27,6.27,0,0,1,2.52,2.76l-2,1.18q-1.07-2.59-4.44-2.59a4.91,4.91,0,0,0-2.74.75A2.38,2.38,0,0,0,665.05,636.83Z"/><path class="cls-2" d="M682.22,627.6a1.75,1.75,0,0,1-1.26.52,1.78,1.78,0,1,1,0-3.56,1.79,1.79,0,0,1,1.26,3Zm-2.48,22.94V632h2.44v18.5Z"/><path class="cls-2" d="M703.27,632h2.44V649.8a7.76,7.76,0,0,1-2.74,6.29,9.85,9.85,0,0,1-6.55,2.29q-6.51,0-8.77-4.51l2.15-1.22q1.66,3.36,6.62,3.36a7.15,7.15,0,0,0,5-1.68,5.85,5.85,0,0,0,1.83-4.53v-2.89a8.29,8.29,0,0,1-7.48,4.07,9.19,9.19,0,0,1-6.75-2.81,9.88,9.88,0,0,1,0-13.76,9.16,9.16,0,0,1,6.75-2.82,8.29,8.29,0,0,1,7.48,4.07ZM690.8,646.49a7.46,7.46,0,1,0-2.11-5.2A7,7,0,0,0,690.8,646.49Z"/><path class="cls-2" d="M719.55,631.59a7,7,0,0,1,5.31,2.06,7.74,7.74,0,0,1,1.94,5.53v11.36h-2.44V639.18a5.32,5.32,0,0,0-1.32-3.85,4.9,4.9,0,0,0-3.71-1.37,5.82,5.82,0,0,0-4.33,1.68q-1.66,1.7-1.67,5.2v9.7h-2.44V632h2.44v2.88A6.85,6.85,0,0,1,719.55,631.59Z"/><path class="cls-2" d="M741.16,657.94v-34h2.44v34Z"/><path class="cls-2" d="M765.72,650.54l-9.54-25.9H759l8.07,22.41,8.06-22.41h2.81l-9.54,25.9Z"/><path class="cls-2" d="M782.63,627.6a1.79,1.79,0,1,1,.52-1.26A1.72,1.72,0,0,1,782.63,627.6Zm-2.48,22.94V632h2.45v18.5Z"/><path class="cls-2" d="M803.69,624.64h2.44v25.9h-2.44v-3.63a8.31,8.31,0,0,1-7.48,4.07,9.17,9.17,0,0,1-6.75-2.81,9.88,9.88,0,0,1,0-13.76,9.15,9.15,0,0,1,6.75-2.82,8.31,8.31,0,0,1,7.48,4.07Zm-12.47,21.85a7.39,7.39,0,0,0,10.36,0,7.46,7.46,0,0,0,0-10.4,7.29,7.29,0,0,0-12.47,5.2A7.11,7.11,0,0,0,791.22,646.49Z"/><path class="cls-2" d="M819.85,631.59a8.4,8.4,0,0,1,6.65,2.91,10.12,10.12,0,0,1,2.53,6.86c0,.27,0,.65-.07,1.15H812.71A6.65,6.65,0,0,0,815.1,647a7.64,7.64,0,0,0,5,1.64,7.26,7.26,0,0,0,3.64-.87,5.87,5.87,0,0,0,2.31-2.27l2.15,1.26a8.8,8.8,0,0,1-3.33,3.1A9.86,9.86,0,0,1,820,651a9.62,9.62,0,0,1-7.11-2.74,9.42,9.42,0,0,1-2.73-7,9.52,9.52,0,0,1,2.7-6.92A9.28,9.28,0,0,1,819.85,631.59Zm0,2.37a6.94,6.94,0,0,0-7.14,6.18h13.8a6.88,6.88,0,0,0-2.25-4.55A6.53,6.53,0,0,0,819.85,634Z"/><path class="cls-2" d="M848.44,648.19a9.93,9.93,0,0,1-13.8,0,9.83,9.83,0,0,1,0-13.8,9.76,9.76,0,0,1,13.8,13.8Zm-12.08-1.7a7.39,7.39,0,0,0,10.36,0,7.46,7.46,0,0,0,0-10.4,7.29,7.29,0,0,0-12.47,5.2A7.11,7.11,0,0,0,836.36,646.49Z"/><path class="cls-2" d="M867.55,648.09h12.58v2.45H865v-25.9h15v2.44H867.55v9.17H879v2.45H867.55Z"/><path class="cls-2" d="M899.74,624.64h2.44v25.9h-2.44v-3.63a8.3,8.3,0,0,1-7.48,4.07,9.17,9.17,0,0,1-6.75-2.81,9.88,9.88,0,0,1,0-13.76,9.15,9.15,0,0,1,6.75-2.82,8.3,8.3,0,0,1,7.48,4.07Zm-12.47,21.85a7.39,7.39,0,0,0,10.36,0,7.46,7.46,0,0,0,0-10.4,7.36,7.36,0,0,0-10.36,0,7.46,7.46,0,0,0,0,10.4Z"/><path class="cls-2" d="M909.84,627.6a1.79,1.79,0,1,1,.52-1.26A1.75,1.75,0,0,1,909.84,627.6Zm-2.48,22.94V632h2.44v18.5Z"/><path class="cls-2" d="M924.79,634.41h-5.33v11.21a3.14,3.14,0,0,0,.59,2.16,2.38,2.38,0,0,0,1.78.67c.79,0,1.77,0,3-.06v2.15c-2.59.39-4.54.21-5.83-.56s-1.94-2.22-1.94-4.36V634.41h-3.89V632H917V627.6l2.44-.74V632h5.33Z"/><path class="cls-2" d="M931.33,627.6a1.79,1.79,0,1,1,.52-1.26A1.71,1.71,0,0,1,931.33,627.6Zm-2.47,22.94V632h2.44v18.5Z"/><path class="cls-2" d="M945.14,631.59a7,7,0,0,1,5.31,2.06,7.74,7.74,0,0,1,1.94,5.53v11.36H950V639.18a5.32,5.32,0,0,0-1.32-3.85,4.91,4.91,0,0,0-3.72-1.37,5.84,5.84,0,0,0-4.33,1.68q-1.67,1.7-1.66,5.2v9.7h-2.44V632h2.44v2.88A6.84,6.84,0,0,1,945.14,631.59Z"/><path class="cls-2" d="M973,632h2.45V649.8a7.79,7.79,0,0,1-2.74,6.29,9.87,9.87,0,0,1-6.55,2.29q-6.51,0-8.77-4.51l2.15-1.22q1.65,3.36,6.62,3.36a7.13,7.13,0,0,0,5-1.68A5.85,5.85,0,0,0,973,649.8v-2.89a8.28,8.28,0,0,1-7.47,4.07,9.17,9.17,0,0,1-6.75-2.81,9.85,9.85,0,0,1,0-13.76,9.15,9.15,0,0,1,6.75-2.82,8.28,8.28,0,0,1,7.47,4.07Zm-12.47,14.45a7.49,7.49,0,1,0-2.1-5.2A7.14,7.14,0,0,0,960.56,646.49Z"/><path class="cls-2" d="M93,679.64a8.14,8.14,0,1,1,0,16.28H86.3v9.62H83.71v-25.9Zm0,13.83a5.34,5.34,0,0,0,4-1.6,6.11,6.11,0,0,0,0-8.18,5.35,5.35,0,0,0-4-1.61H86.3v11.39Z"/><path class="cls-2" d="M119.21,703.19a9.93,9.93,0,0,1-13.8,0,9.83,9.83,0,0,1,0-13.8,9.9,9.9,0,0,1,13.8,0,9.83,9.83,0,0,1,0,13.8Zm-12.08-1.7a7.33,7.33,0,1,0,0-10.4,7.46,7.46,0,0,0,0,10.4Z"/><path class="cls-2" d="M127.67,691.83a2.23,2.23,0,0,0,1.12,2,9.87,9.87,0,0,0,2.72,1.18l3.18.91a5.63,5.63,0,0,1,2.68,1.65,4.41,4.41,0,0,1,1.1,3.11,4.68,4.68,0,0,1-1.87,3.85,7.5,7.5,0,0,1-4.83,1.48,8.31,8.31,0,0,1-4.53-1.18,6.33,6.33,0,0,1-2.61-3.07l2.07-1.23a4.32,4.32,0,0,0,1.87,2.28,6,6,0,0,0,3.2.83,5.92,5.92,0,0,0,3-.72,2.41,2.41,0,0,0,1.22-2.23,2.29,2.29,0,0,0-1.11-2,9.91,9.91,0,0,0-2.7-1.2l-3.19-.9a6,6,0,0,1-2.7-1.62,4.26,4.26,0,0,1-1.11-3.06,4.74,4.74,0,0,1,1.8-3.77,6.78,6.78,0,0,1,4.53-1.52,7.53,7.53,0,0,1,4,1,6.33,6.33,0,0,1,2.52,2.76l-2,1.18q-1.08-2.59-4.44-2.59a4.91,4.91,0,0,0-2.74.75A2.38,2.38,0,0,0,127.67,691.83Z"/><path class="cls-2" d="M151.6,689.41h-5.32v11.21a3.14,3.14,0,0,0,.59,2.16,2.38,2.38,0,0,0,1.78.67c.78,0,1.77,0,2.95-.06v2.15c-2.58.39-4.53.21-5.82-.56s-1.95-2.22-1.95-4.36V689.41H140V687h3.88V682.6l2.45-.74V687h5.32Z"/><path class="cls-2" d="M163.11,686.59a8.38,8.38,0,0,1,6.64,2.91,10.08,10.08,0,0,1,2.54,6.86c0,.27,0,.65-.08,1.15H156a6.65,6.65,0,0,0,2.39,4.46,7.63,7.63,0,0,0,5,1.64,7.3,7.3,0,0,0,3.65-.87,5.87,5.87,0,0,0,2.31-2.27l2.15,1.26a8.88,8.88,0,0,1-3.33,3.1A9.86,9.86,0,0,1,163.3,706a9.62,9.62,0,0,1-7.11-2.74,9.42,9.42,0,0,1-2.73-7,9.52,9.52,0,0,1,2.7-6.92A9.28,9.28,0,0,1,163.11,686.59Zm0,2.37a6.92,6.92,0,0,0-7.14,6.18h13.8a6.88,6.88,0,0,0-2.25-4.55A6.53,6.53,0,0,0,163.11,689Z"/><path class="cls-2" d="M178.62,690.11a6,6,0,0,1,5.84-3.37v2.37a6,6,0,0,0-4.18,1.48,5.93,5.93,0,0,0-1.66,4.66v10.29h-2.45V687h2.45Z"/><path class="cls-2" d="M189,691.83a2.23,2.23,0,0,0,1.12,2,9.87,9.87,0,0,0,2.72,1.18l3.18.91a5.63,5.63,0,0,1,2.68,1.65,4.41,4.41,0,0,1,1.1,3.11,4.68,4.68,0,0,1-1.87,3.85,7.5,7.5,0,0,1-4.83,1.48,8.31,8.31,0,0,1-4.53-1.18,6.33,6.33,0,0,1-2.61-3.07L188,700.5a4.32,4.32,0,0,0,1.87,2.28,6,6,0,0,0,3.2.83,5.92,5.92,0,0,0,3-.72,2.41,2.41,0,0,0,1.22-2.23,2.29,2.29,0,0,0-1.11-2,9.91,9.91,0,0,0-2.7-1.2l-3.19-.9a6,6,0,0,1-2.7-1.62,4.26,4.26,0,0,1-1.11-3.06,4.74,4.74,0,0,1,1.8-3.77,6.76,6.76,0,0,1,4.53-1.52,7.58,7.58,0,0,1,4,1,6.33,6.33,0,0,1,2.52,2.76l-2,1.18q-1.08-2.59-4.44-2.59a4.91,4.91,0,0,0-2.74.75A2.38,2.38,0,0,0,189,691.83Z"/><path class="cls-2" d="M229,687h2.44v18.5H229v-3.63a8.28,8.28,0,0,1-7.47,4.07,9.21,9.21,0,0,1-6.76-2.81,9.88,9.88,0,0,1,0-13.76,9.18,9.18,0,0,1,6.76-2.82,8.28,8.28,0,0,1,7.47,4.07Zm-12.47,14.45a7.46,7.46,0,1,0-2.11-5.2A7,7,0,0,0,216.54,701.49Z"/><path class="cls-2" d="M245.29,686.59a7,7,0,0,1,5.31,2.06,7.74,7.74,0,0,1,1.94,5.53v11.36H250.1V694.18a5.36,5.36,0,0,0-1.31-3.85,4.94,4.94,0,0,0-3.72-1.37,5.82,5.82,0,0,0-4.33,1.68q-1.67,1.7-1.67,5.2v9.7h-2.44V687h2.44v2.88A6.85,6.85,0,0,1,245.29,686.59Z"/><path class="cls-2" d="M273.19,679.64h2.44v25.9h-2.44v-3.63a8.31,8.31,0,0,1-7.48,4.07,9.17,9.17,0,0,1-6.75-2.81,9.88,9.88,0,0,1,0-13.76,9.15,9.15,0,0,1,6.75-2.82,8.31,8.31,0,0,1,7.48,4.07Zm-12.47,21.85a7.39,7.39,0,0,0,10.36,0,7.46,7.46,0,0,0,0-10.4,7.29,7.29,0,0,0-12.47,5.2A7.11,7.11,0,0,0,260.72,701.49Z"/><path class="cls-2" d="M305,682.08H293v9.54h11.47v2.45H293v11.47h-2.59v-25.9H305Z"/><path class="cls-2" d="M309.11,705.54v-27h2.45v27Z"/><path class="cls-2" d="M330.06,687h2.59l-7.92,20.2a10.12,10.12,0,0,1-3.06,4.31,6.14,6.14,0,0,1-4.42,1.39v-2.3c2.22.25,3.9-1,5.06-3.85l.47-1.19L314.52,687h2.58L324,702.41Z"/><path class="cls-2" d="M343.41,686.59a8.38,8.38,0,0,1,6.64,2.91,10.08,10.08,0,0,1,2.54,6.86c0,.27,0,.65-.08,1.15H336.27a6.65,6.65,0,0,0,2.39,4.46,7.63,7.63,0,0,0,5,1.64,7.3,7.3,0,0,0,3.65-.87,5.87,5.87,0,0,0,2.31-2.27l2.15,1.26a8.88,8.88,0,0,1-3.33,3.1A9.86,9.86,0,0,1,343.6,706a9.62,9.62,0,0,1-7.11-2.74,9.43,9.43,0,0,1-2.74-7,9.53,9.53,0,0,1,2.71-6.92A9.28,9.28,0,0,1,343.41,686.59Zm0,2.37a6.92,6.92,0,0,0-7.14,6.18h13.8a6.84,6.84,0,0,0-2.26-4.55A6.48,6.48,0,0,0,343.41,689Z"/><path class="cls-2" d="M358.92,690.11a6,6,0,0,1,5.84-3.37v2.37a6,6,0,0,0-4.18,1.48,5.93,5.93,0,0,0-1.66,4.66v10.29h-2.45V687h2.45Z"/><path class="cls-2" d="M369.27,691.83a2.24,2.24,0,0,0,1.13,2,9.87,9.87,0,0,0,2.72,1.18l3.18.91a5.63,5.63,0,0,1,2.68,1.65,4.41,4.41,0,0,1,1.1,3.11,4.68,4.68,0,0,1-1.87,3.85,7.54,7.54,0,0,1-4.83,1.48,8.28,8.28,0,0,1-4.53-1.18,6.33,6.33,0,0,1-2.61-3.07l2.07-1.23a4.32,4.32,0,0,0,1.87,2.28,6,6,0,0,0,3.2.83,5.92,5.92,0,0,0,3-.72,2.41,2.41,0,0,0,1.22-2.23,2.29,2.29,0,0,0-1.11-2,10,10,0,0,0-2.71-1.2l-3.18-.9a6,6,0,0,1-2.7-1.62,4.26,4.26,0,0,1-1.11-3.06,4.74,4.74,0,0,1,1.8-3.77,6.76,6.76,0,0,1,4.53-1.52,7.58,7.58,0,0,1,4,1,6.25,6.25,0,0,1,2.51,2.76l-2,1.18q-1.08-2.59-4.44-2.59a4.91,4.91,0,0,0-2.74.75A2.38,2.38,0,0,0,369.27,691.83Z"/><path class="cls-2" d="M417.45,679.64v25.9h-2.59v-22l-9.07,15.17h-.37l-9.06-15.17v22h-2.59v-25.9H397l8.66,14.49,8.66-14.49Z"/><path class="cls-2" d="M438.52,703.19a9.93,9.93,0,0,1-13.8,0,9.83,9.83,0,0,1,0-13.8,9.9,9.9,0,0,1,13.8,0,9.83,9.83,0,0,1,0,13.8Zm-12.08-1.7a7.46,7.46,0,1,0-2.11-5.2A7,7,0,0,0,426.44,701.49Z"/><path class="cls-2" d="M454.85,689.41h-5.32v11.21a3.14,3.14,0,0,0,.59,2.16,2.38,2.38,0,0,0,1.78.67c.78,0,1.77,0,3-.06v2.15c-2.58.39-4.53.21-5.82-.56s-1.95-2.22-1.95-4.36V689.41H443.2V687h3.88V682.6l2.45-.74V687h5.32Z"/><path class="cls-2" d="M461.4,682.6a1.79,1.79,0,1,1,.52-1.26A1.71,1.71,0,0,1,461.4,682.6Zm-2.48,22.94V687h2.45v18.5Z"/><path class="cls-2" d="M482.07,703.19a9.93,9.93,0,0,1-13.8,0,9.83,9.83,0,0,1,0-13.8,9.9,9.9,0,0,1,13.8,0,9.83,9.83,0,0,1,0,13.8ZM470,701.49a7.39,7.39,0,0,0,10.36,0,7.46,7.46,0,0,0,0-10.4,7.29,7.29,0,0,0-12.47,5.2A7.11,7.11,0,0,0,470,701.49Z"/><path class="cls-2" d="M497.63,686.59a7,7,0,0,1,5.31,2.06,7.74,7.74,0,0,1,1.94,5.53v11.36h-2.44V694.18a5.32,5.32,0,0,0-1.32-3.85A4.91,4.91,0,0,0,497.4,689a5.86,5.86,0,0,0-4.33,1.68q-1.67,1.7-1.66,5.2v9.7H489V687h2.44v2.88A6.84,6.84,0,0,1,497.63,686.59Z"/><path class="cls-2" d="M544,693.22v1.33a10.86,10.86,0,0,1-3.44,8.12,12.74,12.74,0,0,1-9.22,3.31,13.4,13.4,0,1,1,0-26.79,12.88,12.88,0,0,1,6.59,1.74,12.15,12.15,0,0,1,4.62,4.63l-2.29,1.33a9.08,9.08,0,0,0-3.63-3.77,10.24,10.24,0,0,0-5.29-1.41,10.88,10.88,0,1,0,7,19.55,8.16,8.16,0,0,0,3-5.6H531v-2.44Z"/><path class="cls-2" d="M550.5,690.11a6,6,0,0,1,5.84-3.37v2.37a6.06,6.06,0,0,0-4.18,1.48,5.93,5.93,0,0,0-1.66,4.66v10.29h-2.44V687h2.44Z"/><path class="cls-2" d="M574.47,687h2.45v18.5h-2.45v-3.63A8.28,8.28,0,0,1,567,706a9.17,9.17,0,0,1-6.75-2.81,9.88,9.88,0,0,1,0-13.76,9.15,9.15,0,0,1,6.75-2.82,8.28,8.28,0,0,1,7.47,4.07ZM562,701.49a7.39,7.39,0,0,0,10.36,0,7.49,7.49,0,0,0,0-10.4,7.29,7.29,0,0,0-12.47,5.2A7.11,7.11,0,0,0,562,701.49Z"/><path class="cls-2" d="M592,686.59a9.15,9.15,0,0,1,6.75,2.82,9.85,9.85,0,0,1,0,13.76A9.17,9.17,0,0,1,592,706a8.28,8.28,0,0,1-7.47-4.07v11H582.1V687h2.44v3.62A8.28,8.28,0,0,1,592,686.59Zm-5.36,14.9a7.39,7.39,0,0,0,10.36,0,7.46,7.46,0,0,0,0-10.4,7.29,7.29,0,0,0-12.47,5.2A7.11,7.11,0,0,0,586.65,701.49Z"/><path class="cls-2" d="M614.29,686.59a6.94,6.94,0,0,1,5.3,2.06,7.7,7.7,0,0,1,1.95,5.53v11.36h-2.45V694.18a5.32,5.32,0,0,0-1.31-3.85,4.91,4.91,0,0,0-3.72-1.37,5.84,5.84,0,0,0-4.33,1.68q-1.66,1.7-1.66,5.2v9.7h-2.44v-25.9h2.44v10.28A6.84,6.84,0,0,1,614.29,686.59Z"/><path class="cls-2" d="M628.75,682.6a1.79,1.79,0,1,1,.52-1.26A1.72,1.72,0,0,1,628.75,682.6Zm-2.48,22.94V687h2.44v18.5Z"/><path class="cls-2" d="M642.52,706a9.7,9.7,0,1,1,4.92-18.07,7.8,7.8,0,0,1,3.18,3.53l-2,1.15a5.77,5.77,0,0,0-2.39-2.65,7.11,7.11,0,0,0-3.71-1,7,7,0,0,0-5.18,2.13,7.32,7.32,0,0,0,5.18,12.52,7,7,0,0,0,6.25-3.62l2,1.18a8.56,8.56,0,0,1-3.36,3.52A9.61,9.61,0,0,1,642.52,706Z"/><path class="cls-2" d="M656.06,691.83a2.23,2.23,0,0,0,1.12,2A9.87,9.87,0,0,0,659.9,695l3.18.91a5.66,5.66,0,0,1,2.69,1.65,4.4,4.4,0,0,1,1.09,3.11A4.68,4.68,0,0,1,665,704.5a7.49,7.49,0,0,1-4.82,1.48,8.32,8.32,0,0,1-4.54-1.18,6.44,6.44,0,0,1-2.61-3.07l2.08-1.23a4.26,4.26,0,0,0,1.86,2.28,6,6,0,0,0,3.21.83,5.91,5.91,0,0,0,3-.72,2.41,2.41,0,0,0,1.22-2.23,2.29,2.29,0,0,0-1.11-2,9.91,9.91,0,0,0-2.7-1.2l-3.18-.9a6,6,0,0,1-2.7-1.62,4.26,4.26,0,0,1-1.11-3.06,4.73,4.73,0,0,1,1.79-3.77,6.8,6.8,0,0,1,4.53-1.52,7.53,7.53,0,0,1,4,1,6.22,6.22,0,0,1,2.52,2.76l-2,1.18q-1.07-2.59-4.44-2.59a4.85,4.85,0,0,0-2.73.75A2.36,2.36,0,0,0,656.06,691.83Z"/><path class="cls-2" d="M680.55,712.94v-34H683v34Z"/><path class="cls-2" d="M705.12,705.54l-9.55-25.9h2.82l8.06,22.41,8.07-22.41h2.81l-9.55,25.9Z"/><path class="cls-2" d="M722,682.6a1.79,1.79,0,1,1,.52-1.26A1.75,1.75,0,0,1,722,682.6Zm-2.48,22.94V687H722v18.5Z"/><path class="cls-2" d="M743.08,679.64h2.44v25.9h-2.44v-3.63a8.28,8.28,0,0,1-7.47,4.07,9.21,9.21,0,0,1-6.76-2.81,9.88,9.88,0,0,1,0-13.76,9.18,9.18,0,0,1,6.76-2.82,8.28,8.28,0,0,1,7.47,4.07Zm-12.47,21.85a7.33,7.33,0,1,0,0-10.4,7.46,7.46,0,0,0,0,10.4Z"/><path class="cls-2" d="M759.25,686.59a8.38,8.38,0,0,1,6.64,2.91,10.08,10.08,0,0,1,2.54,6.86c0,.27,0,.65-.08,1.15H752.11A6.61,6.61,0,0,0,754.5,702a7.63,7.63,0,0,0,5,1.64,7.3,7.3,0,0,0,3.65-.87,5.87,5.87,0,0,0,2.31-2.27l2.14,1.26a8.73,8.73,0,0,1-3.33,3.1,9.83,9.83,0,0,1-4.81,1.15,9.59,9.59,0,0,1-7.1-2.74,9.39,9.39,0,0,1-2.74-7,9.52,9.52,0,0,1,2.7-6.92A9.29,9.29,0,0,1,759.25,686.59Zm0,2.37a6.92,6.92,0,0,0-7.14,6.18h13.8a6.89,6.89,0,0,0-2.26-4.55A6.5,6.5,0,0,0,759.25,689Z"/><path class="cls-2" d="M787.83,703.19a9.93,9.93,0,0,1-13.8,0,9.83,9.83,0,0,1,0-13.8,9.9,9.9,0,0,1,13.8,0,9.83,9.83,0,0,1,0,13.8Zm-12.08-1.7a7.33,7.33,0,1,0,0-10.4,7.46,7.46,0,0,0,0,10.4Z"/><path class="cls-2" d="M806.94,703.09h12.58v2.45H804.35v-25.9h15v2.44h-12.4v9.17h11.47v2.45H806.94Z"/><path class="cls-2" d="M839.13,679.64h2.45v25.9h-2.45v-3.63a8.28,8.28,0,0,1-7.47,4.07,9.17,9.17,0,0,1-6.75-2.81,9.85,9.85,0,0,1,0-13.76,9.15,9.15,0,0,1,6.75-2.82,8.28,8.28,0,0,1,7.47,4.07Zm-12.46,21.85a7.38,7.38,0,0,0,10.35,0,7.46,7.46,0,0,0,0-10.4,7.35,7.35,0,0,0-10.35,0,7.46,7.46,0,0,0,0,10.4Z"/><path class="cls-2" d="M849.23,682.6a1.79,1.79,0,1,1,.52-1.26A1.71,1.71,0,0,1,849.23,682.6Zm-2.48,22.94V687h2.45v18.5Z"/><path class="cls-2" d="M864.18,689.41h-5.33v11.21a3.13,3.13,0,0,0,.6,2.16,2.36,2.36,0,0,0,1.77.67c.79,0,1.78,0,3-.06v2.15c-2.59.39-4.53.21-5.83-.56s-1.94-2.22-1.94-4.36V689.41h-3.88V687h3.88V682.6l2.44-.74V687h5.33Z"/><path class="cls-2" d="M870.73,682.6a1.72,1.72,0,0,1-1.26.52,1.78,1.78,0,1,1,0-3.56,1.78,1.78,0,0,1,1.26,3Zm-2.48,22.94V687h2.44v18.5Z"/><path class="cls-2" d="M884.53,686.59a6.94,6.94,0,0,1,5.31,2.06,7.69,7.69,0,0,1,1.94,5.53v11.36h-2.44V694.18a5.36,5.36,0,0,0-1.31-3.85,4.94,4.94,0,0,0-3.72-1.37,5.82,5.82,0,0,0-4.33,1.68q-1.66,1.7-1.66,5.2v9.7h-2.45V687h2.45v2.88A6.83,6.83,0,0,1,884.53,686.59Z"/><path class="cls-2" d="M912.43,687h2.44V704.8a7.76,7.76,0,0,1-2.74,6.29,9.85,9.85,0,0,1-6.55,2.29q-6.51,0-8.76-4.51l2.14-1.22q1.66,3.36,6.62,3.36a7.13,7.13,0,0,0,5-1.68,5.85,5.85,0,0,0,1.83-4.53v-2.89A8.28,8.28,0,0,1,905,706a9.21,9.21,0,0,1-6.76-2.81,9.88,9.88,0,0,1,0-13.76,9.18,9.18,0,0,1,6.76-2.82,8.28,8.28,0,0,1,7.47,4.07ZM900,701.49a7.46,7.46,0,1,0-2.11-5.2A7,7,0,0,0,900,701.49Z"/><path class="cls-2" d="M93.7,734.64a11.39,11.39,0,0,1,8.75,3.75,13.95,13.95,0,0,1,0,18.39,11.37,11.37,0,0,1-8.75,3.76h-10v-25.9Zm0,23.45a8.93,8.93,0,0,0,7-3,11.63,11.63,0,0,0,0-14.95,8.93,8.93,0,0,0-7-3H86.3v21Z"/><path class="cls-2" d="M112.46,737.6a1.79,1.79,0,1,1,.52-1.26A1.75,1.75,0,0,1,112.46,737.6ZM110,760.54V742h2.44v18.5Z"/><path class="cls-2" d="M133.51,742H136V759.8a7.78,7.78,0,0,1-2.73,6.29,9.87,9.87,0,0,1-6.55,2.29q-6.53,0-8.77-4.51l2.14-1.22q1.67,3.36,6.63,3.36a7.13,7.13,0,0,0,5-1.68,5.85,5.85,0,0,0,1.83-4.53v-2.89A8.28,8.28,0,0,1,126,761a9.21,9.21,0,0,1-6.76-2.81,9.88,9.88,0,0,1,0-13.76,9.18,9.18,0,0,1,6.76-2.82,8.28,8.28,0,0,1,7.47,4.07ZM121,756.49a7.33,7.33,0,1,0,0-10.4,7.46,7.46,0,0,0,0,10.4Z"/><path class="cls-2" d="M143.61,737.6a1.79,1.79,0,1,1,.52-1.26A1.72,1.72,0,0,1,143.61,737.6Zm-2.48,22.94V742h2.44v18.5Z"/><path class="cls-2" d="M158.56,744.41h-5.33v11.21a3.19,3.19,0,0,0,.59,2.16,2.4,2.4,0,0,0,1.78.67c.79,0,1.78,0,3-.06v2.15c-2.59.39-4.53.21-5.83-.56s-1.94-2.22-1.94-4.36V744.41H146.9V742h3.89V737.6l2.44-.74V742h5.33Z"/><path class="cls-2" d="M177.43,742h2.44v18.5h-2.44v-3.63A8.28,8.28,0,0,1,170,761a9.2,9.2,0,0,1-6.76-2.81,9.88,9.88,0,0,1,0-13.76,9.17,9.17,0,0,1,6.76-2.82,8.28,8.28,0,0,1,7.47,4.07ZM165,756.49a7.46,7.46,0,1,0-2.11-5.2A7,7,0,0,0,165,756.49Z"/><path class="cls-2" d="M185.05,760.54v-27h2.44v27Z"/><path class="cls-2" d="M211.54,734.64a8.14,8.14,0,1,1,0,16.28h-6.66v9.62h-2.59v-25.9Zm0,13.83a5.33,5.33,0,0,0,4-1.6,6.11,6.11,0,0,0,0-8.18,5.34,5.34,0,0,0-4-1.61h-6.66v11.39Z"/><path class="cls-2" d="M238.18,742h2.44v18.5h-2.44v-3.63a8.28,8.28,0,0,1-7.47,4.07,9.17,9.17,0,0,1-6.75-2.81,9.85,9.85,0,0,1,0-13.76,9.15,9.15,0,0,1,6.75-2.82,8.28,8.28,0,0,1,7.47,4.07Zm-12.47,14.45a7.33,7.33,0,1,0,0-10.4,7.46,7.46,0,0,0,0,10.4Z"/><path class="cls-2" d="M248.28,737.6a1.79,1.79,0,1,1,.52-1.26A1.71,1.71,0,0,1,248.28,737.6Zm-2.48,22.94V742h2.45v18.5Z"/><path class="cls-2" d="M262.08,741.59a6.94,6.94,0,0,1,5.31,2.06,7.7,7.7,0,0,1,1.95,5.53v11.36h-2.45V749.18a5.32,5.32,0,0,0-1.31-3.85,4.94,4.94,0,0,0-3.72-1.37,5.84,5.84,0,0,0-4.33,1.68q-1.66,1.7-1.66,5.2v9.7h-2.44V742h2.44v2.88A6.83,6.83,0,0,1,262.08,741.59Z"/><path class="cls-2" d="M283.88,744.41h-5.33v11.21a3.19,3.19,0,0,0,.59,2.16,2.4,2.4,0,0,0,1.78.67c.79,0,1.77,0,3-.06v2.15c-2.59.39-4.54.21-5.83-.56s-1.94-2.22-1.94-4.36V744.41h-3.89V742h3.89V737.6l2.44-.74V742h5.33Z"/><path class="cls-2" d="M290.43,737.6a1.75,1.75,0,0,1-1.26.52,1.78,1.78,0,1,1,0-3.56,1.79,1.79,0,0,1,1.26,3ZM288,760.54V742h2.44v18.5Z"/><path class="cls-2" d="M304.23,741.59a7,7,0,0,1,5.31,2.06,7.74,7.74,0,0,1,1.94,5.53v11.36H309V749.18a5.32,5.32,0,0,0-1.32-3.85A4.91,4.91,0,0,0,304,744a5.82,5.82,0,0,0-4.32,1.68q-1.67,1.7-1.67,5.2v9.7h-2.44V742H298v2.88A6.84,6.84,0,0,1,304.23,741.59Z"/><path class="cls-2" d="M332.12,742h2.45V759.8a7.79,7.79,0,0,1-2.74,6.29,9.87,9.87,0,0,1-6.55,2.29q-6.51,0-8.77-4.51l2.15-1.22c1.11,2.24,3.31,3.36,6.62,3.36a7.13,7.13,0,0,0,5-1.68,5.85,5.85,0,0,0,1.83-4.53v-2.89a8.28,8.28,0,0,1-7.47,4.07,9.17,9.17,0,0,1-6.75-2.81,9.85,9.85,0,0,1,0-13.76,9.15,9.15,0,0,1,6.75-2.82,8.28,8.28,0,0,1,7.47,4.07Zm-12.46,14.45a7.39,7.39,0,0,0,10.36,0,7.49,7.49,0,0,0,0-10.4,7.29,7.29,0,0,0-12.47,5.2A7.11,7.11,0,0,0,319.66,756.49Z"/><path class="cls-2" d="M364.91,742h2.44v18.5h-2.44v-3.63a8.31,8.31,0,0,1-7.48,4.07,9.17,9.17,0,0,1-6.75-2.81,9.88,9.88,0,0,1,0-13.76,9.15,9.15,0,0,1,6.75-2.82,8.31,8.31,0,0,1,7.48,4.07Zm-12.47,14.45a7.39,7.39,0,0,0,10.36,0,7.46,7.46,0,0,0,0-10.4,7.29,7.29,0,0,0-12.47,5.2A7.11,7.11,0,0,0,352.44,756.49Z"/><path class="cls-2" d="M381.19,741.59a6.94,6.94,0,0,1,5.3,2.06,7.7,7.7,0,0,1,1.95,5.53v11.36H386V749.18a5.32,5.32,0,0,0-1.32-3.85A4.91,4.91,0,0,0,381,744a5.84,5.84,0,0,0-4.33,1.68q-1.67,1.7-1.66,5.2v9.7h-2.44V742H375v2.88A6.84,6.84,0,0,1,381.19,741.59Z"/><path class="cls-2" d="M409.08,734.64h2.44v25.9h-2.44v-3.63a8.28,8.28,0,0,1-7.47,4.07,9.17,9.17,0,0,1-6.75-2.81,9.85,9.85,0,0,1,0-13.76,9.15,9.15,0,0,1,6.75-2.82,8.28,8.28,0,0,1,7.47,4.07Zm-12.47,21.85a7.33,7.33,0,1,0,0-10.4,7.46,7.46,0,0,0,0,10.4Z"/><path class="cls-2" d="M439.27,742h2.59l-7.58,18.5h-3L423.73,742h2.59l6.48,15.89Z"/><path class="cls-2" d="M452.63,741.59a8.38,8.38,0,0,1,6.64,2.91,10.08,10.08,0,0,1,2.54,6.86c0,.27,0,.65-.08,1.15H445.49a6.65,6.65,0,0,0,2.39,4.46,7.63,7.63,0,0,0,5,1.64,7.3,7.3,0,0,0,3.65-.87,5.87,5.87,0,0,0,2.31-2.27l2.15,1.26a8.88,8.88,0,0,1-3.33,3.1,9.86,9.86,0,0,1-4.81,1.15,9.62,9.62,0,0,1-7.11-2.74,9.42,9.42,0,0,1-2.73-7,9.52,9.52,0,0,1,2.7-6.92A9.28,9.28,0,0,1,452.63,741.59Zm0,2.37a6.92,6.92,0,0,0-7.14,6.18h13.8a6.88,6.88,0,0,0-2.25-4.55A6.53,6.53,0,0,0,452.63,744Z"/><path class="cls-2" d="M474.31,761a9.7,9.7,0,1,1,0-19.39,9.29,9.29,0,0,1,4.92,1.32,7.77,7.77,0,0,1,3.19,3.53l-2,1.15a5.77,5.77,0,0,0-2.39-2.65,7.15,7.15,0,0,0-3.72-1,7,7,0,0,0-5.18,2.13,7.46,7.46,0,0,0,0,10.4,7.05,7.05,0,0,0,5.18,2.12,7,7,0,0,0,6.26-3.62l2,1.18a8.58,8.58,0,0,1-3.37,3.52A9.61,9.61,0,0,1,474.31,761Z"/><path class="cls-2" d="M495.92,744.41h-5.33v11.21a3.13,3.13,0,0,0,.6,2.16,2.36,2.36,0,0,0,1.77.67c.79,0,1.78,0,3-.06v2.15c-2.59.39-4.53.21-5.83-.56s-1.94-2.22-1.94-4.36V744.41h-3.88V742h3.88V737.6l2.44-.74V742h5.33Z"/><path class="cls-2" d="M514.4,758.19a9.93,9.93,0,0,1-13.8,0,9.83,9.83,0,0,1,0-13.8,9.9,9.9,0,0,1,13.8,0,9.83,9.83,0,0,1,0,13.8Zm-12.08-1.7a7.33,7.33,0,1,0,0-10.4,7.46,7.46,0,0,0,0,10.4Z"/><path class="cls-2" d="M523.74,745.11a6,6,0,0,1,5.85-3.37v2.37a6,6,0,0,0-4.18,1.48,5.94,5.94,0,0,0-1.67,4.66v10.29H521.3V742h2.44Z"/><path class="cls-2" d="M558.08,742h2.44v18.5h-2.44v-3.63a8.28,8.28,0,0,1-7.47,4.07,9.2,9.2,0,0,1-6.76-2.81,9.88,9.88,0,0,1,0-13.76,9.17,9.17,0,0,1,6.76-2.82,8.28,8.28,0,0,1,7.47,4.07Zm-12.47,14.45a7.46,7.46,0,1,0-2.11-5.2A7,7,0,0,0,545.61,756.49Z"/><path class="cls-2" d="M568.14,745.11a6,6,0,0,1,5.85-3.37v2.37a6,6,0,0,0-4.18,1.48,5.94,5.94,0,0,0-1.67,4.66v10.29H565.7V742h2.44Z"/><path class="cls-2" d="M587.49,744.41h-5.32v11.21a3.14,3.14,0,0,0,.59,2.16,2.36,2.36,0,0,0,1.77.67c.79,0,1.78,0,3-.06v2.15c-2.59.39-4.53.21-5.82-.56s-1.95-2.22-1.95-4.36V744.41h-3.88V742h3.88V737.6l2.45-.74V742h5.32Z"/><path class="cls-2" d="M601.18,767.94v-34h2.45v34Z"/><path class="cls-2" d="M624.37,760.54,617,734.64h2.73l6.4,22.38,6.74-22.38h3l6.75,22.41L649,734.64h2.62l-7.4,25.9h-3.1l-6.77-22.49-6.77,22.49Z"/><path class="cls-2" d="M661.75,741.59a8.36,8.36,0,0,1,6.64,2.91,10.08,10.08,0,0,1,2.54,6.86c0,.27,0,.65-.07,1.15H654.61A6.65,6.65,0,0,0,657,757a7.64,7.64,0,0,0,5,1.64,7.26,7.26,0,0,0,3.64-.87,5.87,5.87,0,0,0,2.31-2.27l2.15,1.26a8.88,8.88,0,0,1-3.33,3.1,9.86,9.86,0,0,1-4.81,1.15,9.62,9.62,0,0,1-7.11-2.74,9.42,9.42,0,0,1-2.73-7,9.52,9.52,0,0,1,2.7-6.92A9.28,9.28,0,0,1,661.75,741.59Zm0,2.37a6.92,6.92,0,0,0-7.14,6.18h13.8a6.88,6.88,0,0,0-2.25-4.55A6.53,6.53,0,0,0,661.75,744Z"/><path class="cls-2" d="M684.73,741.59a9.15,9.15,0,0,1,6.75,2.82,9.85,9.85,0,0,1,0,13.76,9.17,9.17,0,0,1-6.75,2.81,8.28,8.28,0,0,1-7.47-4.07v3.63h-2.45v-25.9h2.45v11A8.28,8.28,0,0,1,684.73,741.59Zm-5.36,14.9a7.39,7.39,0,0,0,10.36,0,7.49,7.49,0,0,0,0-10.4,7.29,7.29,0,0,0-12.47,5.2A7.11,7.11,0,0,0,679.37,756.49Z"/><path class="cls-2" d="M718,734.64a11.41,11.41,0,0,1,8.75,3.75,13.95,13.95,0,0,1,0,18.39,11.38,11.38,0,0,1-8.75,3.76H708v-25.9Zm0,23.45a8.94,8.94,0,0,0,7-3,11.63,11.63,0,0,0,0-14.95,8.94,8.94,0,0,0-7-3h-7.4v21Z"/><path class="cls-2" d="M742.78,741.59a8.38,8.38,0,0,1,6.64,2.91,10.08,10.08,0,0,1,2.54,6.86c0,.27,0,.65-.08,1.15H735.64A6.65,6.65,0,0,0,738,757a7.63,7.63,0,0,0,5,1.64,7.3,7.3,0,0,0,3.65-.87,5.87,5.87,0,0,0,2.31-2.27l2.15,1.26a8.88,8.88,0,0,1-3.33,3.1A9.86,9.86,0,0,1,743,761a9.62,9.62,0,0,1-7.11-2.74,9.42,9.42,0,0,1-2.73-7,9.52,9.52,0,0,1,2.7-6.92A9.28,9.28,0,0,1,742.78,741.59Zm0,2.37a6.92,6.92,0,0,0-7.14,6.18h13.8a6.88,6.88,0,0,0-2.25-4.55A6.53,6.53,0,0,0,742.78,744Z"/><path class="cls-2" d="M757,746.83a2.23,2.23,0,0,0,1.12,2,9.87,9.87,0,0,0,2.72,1.18l3.18.91a5.66,5.66,0,0,1,2.69,1.65,4.4,4.4,0,0,1,1.09,3.11A4.68,4.68,0,0,1,766,759.5a7.5,7.5,0,0,1-4.83,1.48,8.31,8.31,0,0,1-4.53-1.18,6.44,6.44,0,0,1-2.61-3.07l2.08-1.23a4.26,4.26,0,0,0,1.86,2.28,6,6,0,0,0,3.2.83,5.92,5.92,0,0,0,3-.72,2.41,2.41,0,0,0,1.22-2.23,2.29,2.29,0,0,0-1.11-2,9.91,9.91,0,0,0-2.7-1.2l-3.18-.9a6,6,0,0,1-2.7-1.62,4.26,4.26,0,0,1-1.11-3.06,4.73,4.73,0,0,1,1.79-3.77,6.8,6.8,0,0,1,4.53-1.52,7.53,7.53,0,0,1,4,1,6.27,6.27,0,0,1,2.52,2.76l-2,1.18q-1.07-2.59-4.44-2.59a4.91,4.91,0,0,0-2.74.75A2.38,2.38,0,0,0,757,746.83Z"/><path class="cls-2" d="M774.2,737.6a1.79,1.79,0,0,1-2.52,0,1.79,1.79,0,0,1,0-2.52,1.78,1.78,0,0,1,2.52,2.52Zm-2.48,22.94V742h2.44v18.5Z"/><path class="cls-2" d="M795.25,742h2.44V759.8a7.76,7.76,0,0,1-2.74,6.29,9.85,9.85,0,0,1-6.55,2.29q-6.51,0-8.77-4.51l2.15-1.22q1.66,3.36,6.62,3.36a7.13,7.13,0,0,0,5-1.68,5.85,5.85,0,0,0,1.83-4.53v-2.89a8.28,8.28,0,0,1-7.47,4.07,9.2,9.2,0,0,1-6.76-2.81,9.88,9.88,0,0,1,0-13.76,9.17,9.17,0,0,1,6.76-2.82,8.28,8.28,0,0,1,7.47,4.07Zm-12.47,14.45a7.46,7.46,0,1,0-2.11-5.2A7,7,0,0,0,782.78,756.49Z"/><path class="cls-2" d="M811.53,741.59a7,7,0,0,1,5.31,2.06,7.74,7.74,0,0,1,1.94,5.53v11.36h-2.44V749.18a5.32,5.32,0,0,0-1.32-3.85,4.9,4.9,0,0,0-3.71-1.37,5.82,5.82,0,0,0-4.33,1.68q-1.66,1.7-1.67,5.2v9.7h-2.44V742h2.44v2.88A6.85,6.85,0,0,1,811.53,741.59Z"/><path class="cls-2" d="M848.68,742h2.44v18.5h-2.44v-3.63A8.31,8.31,0,0,1,841.2,761a9.17,9.17,0,0,1-6.75-2.81,9.88,9.88,0,0,1,0-13.76,9.15,9.15,0,0,1,6.75-2.82,8.31,8.31,0,0,1,7.48,4.07Zm-12.47,14.45a7.39,7.39,0,0,0,10.36,0,7.46,7.46,0,0,0,0-10.4,7.29,7.29,0,0,0-12.47,5.2A7.11,7.11,0,0,0,836.21,756.49Z"/><path class="cls-2" d="M865,741.59a6.94,6.94,0,0,1,5.3,2.06,7.7,7.7,0,0,1,2,5.53v11.36h-2.45V749.18a5.32,5.32,0,0,0-1.31-3.85,4.91,4.91,0,0,0-3.72-1.37,5.84,5.84,0,0,0-4.33,1.68q-1.67,1.7-1.66,5.2v9.7H856.3V742h2.44v2.88A6.84,6.84,0,0,1,865,741.59Z"/><path class="cls-2" d="M892.85,734.64h2.44v25.9h-2.44v-3.63a8.28,8.28,0,0,1-7.47,4.07,9.17,9.17,0,0,1-6.75-2.81,9.85,9.85,0,0,1,0-13.76,9.15,9.15,0,0,1,6.75-2.82,8.28,8.28,0,0,1,7.47,4.07Zm-12.47,21.85a7.33,7.33,0,1,0,0-10.4,7.46,7.46,0,0,0,0,10.4Z"/><path class="cls-2" d="M93.7,789.64a11.39,11.39,0,0,1,8.75,3.75,13.95,13.95,0,0,1,0,18.39,11.37,11.37,0,0,1-8.75,3.76h-10v-25.9Zm0,23.45a8.93,8.93,0,0,0,7-3,11.63,11.63,0,0,0,0-14.95,8.93,8.93,0,0,0-7-3H86.3v21Z"/><path class="cls-2" d="M118.53,796.59a8.39,8.39,0,0,1,6.64,2.91,10.07,10.07,0,0,1,2.53,6.86c0,.27,0,.65-.07,1.15H111.39a6.64,6.64,0,0,0,2.38,4.46,7.66,7.66,0,0,0,5,1.64,7.26,7.26,0,0,0,3.64-.87,5.83,5.83,0,0,0,2.32-2.27l2.14,1.26a8.73,8.73,0,0,1-3.33,3.1,9.83,9.83,0,0,1-4.81,1.15,9.58,9.58,0,0,1-7.1-2.74,9.39,9.39,0,0,1-2.74-7,9.52,9.52,0,0,1,2.7-6.92A9.29,9.29,0,0,1,118.53,796.59Zm0,2.37a6.92,6.92,0,0,0-7.14,6.18h13.8a6.89,6.89,0,0,0-2.26-4.55A6.52,6.52,0,0,0,118.53,799Z"/><path class="cls-2" d="M144.17,797h2.59l-7.59,18.5h-3L128.63,797h2.59l6.47,15.89Z"/><path class="cls-2" d="M157.53,796.59a8.39,8.39,0,0,1,6.64,2.91,10.07,10.07,0,0,1,2.53,6.86c0,.27,0,.65-.07,1.15H150.38a6.69,6.69,0,0,0,2.39,4.46,7.64,7.64,0,0,0,5,1.64,7.26,7.26,0,0,0,3.64-.87,5.74,5.74,0,0,0,2.31-2.27l2.15,1.26a8.73,8.73,0,0,1-3.33,3.1,9.86,9.86,0,0,1-4.81,1.15,9.58,9.58,0,0,1-7.1-2.74,9.39,9.39,0,0,1-2.74-7,9.52,9.52,0,0,1,2.7-6.92A9.29,9.29,0,0,1,157.53,796.59Zm0,2.37a6.94,6.94,0,0,0-7.15,6.18h13.81a6.89,6.89,0,0,0-2.26-4.55A6.52,6.52,0,0,0,157.53,799Z"/><path class="cls-2" d="M170.59,815.54v-27H173v27Z"/><path class="cls-2" d="M193.73,813.19a9.93,9.93,0,0,1-13.8,0,9.83,9.83,0,0,1,0-13.8,9.9,9.9,0,0,1,13.8,0,9.83,9.83,0,0,1,0,13.8Zm-12.08-1.7a7.39,7.39,0,0,0,10.36,0,7.46,7.46,0,0,0,0-10.4,7.36,7.36,0,0,0-10.36,0,7.46,7.46,0,0,0,0,10.4Z"/><path class="cls-2" d="M210.54,796.59a9.17,9.17,0,0,1,6.76,2.82,9.88,9.88,0,0,1,0,13.76,9.2,9.2,0,0,1-6.76,2.81,8.28,8.28,0,0,1-7.47-4.07v11h-2.44V797h2.44v3.62A8.28,8.28,0,0,1,210.54,796.59Zm-5.36,14.9a7.46,7.46,0,1,0-2.11-5.2A7,7,0,0,0,205.18,811.49Z"/><path class="cls-2" d="M243.88,796.59a6.65,6.65,0,0,1,5,2,7.49,7.49,0,0,1,1.9,5.4v11.55h-2.44V804a5.25,5.25,0,0,0-1.24-3.72,4.32,4.32,0,0,0-3.28-1.31,4.8,4.8,0,0,0-3.71,1.54,6.86,6.86,0,0,0-1.43,4.79v10.25h-2.44V804a5.38,5.38,0,0,0-1.17-3.73,4,4,0,0,0-3.16-1.3,5.14,5.14,0,0,0-3.77,1.55,6.5,6.5,0,0,0-1.56,4.78v10.25h-2.44V797h2.44v2.7a6.33,6.33,0,0,1,5.66-3.15,5.76,5.76,0,0,1,5.63,3.37A6.53,6.53,0,0,1,243.88,796.59Z"/><path class="cls-2" d="M264.08,796.59a8.38,8.38,0,0,1,6.64,2.91,10.08,10.08,0,0,1,2.54,6.86c0,.27,0,.65-.08,1.15H256.94a6.65,6.65,0,0,0,2.39,4.46,7.63,7.63,0,0,0,5,1.64,7.28,7.28,0,0,0,3.65-.87,5.87,5.87,0,0,0,2.31-2.27l2.15,1.26a8.88,8.88,0,0,1-3.33,3.1,9.86,9.86,0,0,1-4.81,1.15,9.62,9.62,0,0,1-7.11-2.74,9.42,9.42,0,0,1-2.73-7,9.52,9.52,0,0,1,2.7-6.92A9.28,9.28,0,0,1,264.08,796.59Zm0,2.37a6.92,6.92,0,0,0-7.14,6.18h13.8a6.88,6.88,0,0,0-2.25-4.55A6.53,6.53,0,0,0,264.08,799Z"/><path class="cls-2" d="M285.8,796.59a6.94,6.94,0,0,1,5.31,2.06,7.69,7.69,0,0,1,1.94,5.53v11.36h-2.44V804.18a5.36,5.36,0,0,0-1.31-3.85,4.94,4.94,0,0,0-3.72-1.37,5.82,5.82,0,0,0-4.33,1.68q-1.67,1.7-1.66,5.2v9.7h-2.45V797h2.45v2.88A6.83,6.83,0,0,1,285.8,796.59Z"/><path class="cls-2" d="M307.59,799.41h-5.32v11.21a3.14,3.14,0,0,0,.59,2.16,2.37,2.37,0,0,0,1.77.67c.79,0,1.78,0,3-.06v2.15c-2.59.39-4.53.21-5.82-.56s-1.95-2.22-1.95-4.36V799.41h-3.88V797h3.88V792.6l2.45-.74V797h5.32Z"/><path class="cls-2" d="M321.28,822.94v-34h2.45v34Z"/><path class="cls-2" d="M347,800.43a8.64,8.64,0,0,1,5.11,2.38,7,7,0,0,1,2,5.22,7.19,7.19,0,0,1-2.54,5.82,9.25,9.25,0,0,1-6.16,2.13,9.89,9.89,0,0,1-5.14-1.33,7.19,7.19,0,0,1-3.18-3.81l2.14-1.26a5.09,5.09,0,0,0,2.26,2.9,7.38,7.38,0,0,0,3.92,1,6.65,6.65,0,0,0,4.39-1.42,5.56,5.56,0,0,0,0-8,6.59,6.59,0,0,0-4.36-1.42v0l0,.06h-.72l-1.13-1.73,6.44-8.8H337.79v-2.44H353v2.45Z"/><path class="cls-2" d="M368.5,789.64a11.41,11.41,0,0,1,8.75,3.75,13.95,13.95,0,0,1,0,18.39,11.38,11.38,0,0,1-8.75,3.76h-10v-25.9Zm0,23.45a8.94,8.94,0,0,0,7-3,11.63,11.63,0,0,0,0-14.95,8.94,8.94,0,0,0-7-3h-7.4v21Z"/><path class="cls-2" d="M418.08,789.64v25.9h-2.59v-22l-9.07,15.17h-.37L397,793.56v22H394.4v-25.9h3.17l8.67,14.49,8.66-14.49Z"/><path class="cls-2" d="M439.15,813.19a9.93,9.93,0,0,1-13.8,0,9.83,9.83,0,0,1,0-13.8,9.76,9.76,0,0,1,13.8,13.8Zm-12.08-1.7a7.39,7.39,0,0,0,10.36,0,7.46,7.46,0,0,0,0-10.4,7.29,7.29,0,0,0-12.47,5.2A7.11,7.11,0,0,0,427.07,811.49Z"/><path class="cls-2" d="M462,789.64h2.44v25.9H462v-3.63a8.31,8.31,0,0,1-7.48,4.07,9.17,9.17,0,0,1-6.75-2.81,9.88,9.88,0,0,1,0-13.76,9.15,9.15,0,0,1,6.75-2.82,8.31,8.31,0,0,1,7.48,4.07Zm-12.47,21.85a7.39,7.39,0,0,0,10.36,0,7.46,7.46,0,0,0,0-10.4,7.36,7.36,0,0,0-10.36,0,7.46,7.46,0,0,0,0,10.4Z"/><path class="cls-2" d="M478.13,796.59a8.39,8.39,0,0,1,6.64,2.91,10.07,10.07,0,0,1,2.53,6.86c0,.27,0,.65-.07,1.15H471a6.69,6.69,0,0,0,2.39,4.46,7.64,7.64,0,0,0,5,1.64,7.26,7.26,0,0,0,3.64-.87,5.74,5.74,0,0,0,2.31-2.27l2.15,1.26a8.73,8.73,0,0,1-3.33,3.1,9.86,9.86,0,0,1-4.81,1.15,9.58,9.58,0,0,1-7.1-2.74,9.39,9.39,0,0,1-2.74-7,9.52,9.52,0,0,1,2.7-6.92A9.29,9.29,0,0,1,478.13,796.59Zm0,2.37a6.94,6.94,0,0,0-7.15,6.18h13.81a6.89,6.89,0,0,0-2.26-4.55A6.52,6.52,0,0,0,478.13,799Z"/><path class="cls-2" d="M491.19,815.54v-27h2.44v27Z"/><path class="cls-2" d="M501.29,792.6a1.81,1.81,0,1,1,.51-1.26A1.75,1.75,0,0,1,501.29,792.6Zm-2.48,22.94V797h2.44v18.5Z"/><path class="cls-2" d="M515.09,796.59a7,7,0,0,1,5.31,2.06,7.74,7.74,0,0,1,1.94,5.53v11.36H519.9V804.18a5.32,5.32,0,0,0-1.32-3.85,4.9,4.9,0,0,0-3.71-1.37,5.82,5.82,0,0,0-4.33,1.68q-1.67,1.7-1.67,5.2v9.7h-2.44V797h2.44v2.88A6.84,6.84,0,0,1,515.09,796.59Z"/><path class="cls-2" d="M543,797h2.44V814.8a7.79,7.79,0,0,1-2.74,6.29,9.87,9.87,0,0,1-6.55,2.29q-6.51,0-8.77-4.51l2.15-1.22c1.11,2.24,3.31,3.36,6.62,3.36a7.13,7.13,0,0,0,5-1.68A5.86,5.86,0,0,0,543,814.8v-2.89a8.31,8.31,0,0,1-7.48,4.07,9.17,9.17,0,0,1-6.75-2.81,9.88,9.88,0,0,1,0-13.76,9.15,9.15,0,0,1,6.75-2.82,8.31,8.31,0,0,1,7.48,4.07Zm-12.47,14.45a7.39,7.39,0,0,0,10.36,0,7.46,7.46,0,0,0,0-10.4,7.29,7.29,0,0,0-12.47,5.2A7.11,7.11,0,0,0,530.52,811.49Z"/><rect class="cls-3" x="83.19" y="1207.78" width="195.66" height="87.18" rx="24.74"/><rect class="cls-3" x="851.22" y="1317.59" width="148.02" height="87.18" rx="24.74"/><rect class="cls-3" x="302.77" y="1207.78" width="251.2" height="87.18" rx="24.74"/><rect class="cls-3" x="613.97" y="1536.85" width="197.54" height="87.18" rx="24.74"/><rect class="cls-3" x="834.78" y="1536.85" width="152.43" height="87.18" rx="24.74"/><rect class="cls-3" x="82.93" y="1646.98" width="227.12" height="87.18" rx="24.74"/><rect class="cls-3" x="333.44" y="1646.98" width="246.33" height="87.18" rx="24.74"/><rect class="cls-3" x="603.68" y="1646.98" width="195.29" height="87.18" rx="24.74"/><rect class="cls-3" x="577.05" y="1207.78" width="382.29" height="87.18" rx="24.74"/><rect class="cls-3" x="83.1" y="1317.59" width="375.29" height="87.18" rx="24.74"/><rect class="cls-3" x="481.51" y="1317.59" width="346.44" height="87.18" rx="24.74"/><rect class="cls-3" x="535.69" y="1427.75" width="394.5" height="87.18" rx="24.74"/><rect class="cls-3" x="82.92" y="1427.75" width="429.75" height="87.18" rx="24.74"/><path class="cls-4" d="M144.06,1237H131.35v10.09h12.12v2.58H131.35v12.12h-2.74v-27.37h15.45Z"/><path class="cls-4" d="M151,1237.55a1.88,1.88,0,0,1-2.66-2.66,1.88,1.88,0,0,1,2.66,2.66Zm-2.62,24.24v-19.55h2.58v19.55Z"/><path class="cls-4" d="M173.23,1242.24h2.58V1261a8.22,8.22,0,0,1-2.9,6.65,10.45,10.45,0,0,1-6.92,2.42q-6.88,0-9.26-4.77L159,1264q1.77,3.56,7,3.56a7.52,7.52,0,0,0,5.3-1.78,6.19,6.19,0,0,0,1.94-4.79v-3a8.76,8.76,0,0,1-7.9,4.3,9.7,9.7,0,0,1-7.14-3,10.43,10.43,0,0,1,0-14.54,9.67,9.67,0,0,1,7.14-3,8.78,8.78,0,0,1,7.9,4.3Zm-13.18,15.27a7.79,7.79,0,0,0,10.95,0,7.89,7.89,0,0,0,0-11,7.76,7.76,0,0,0-10.95,11Z"/><path class="cls-4" d="M202.12,1241.77a7,7,0,0,1,5.3,2.11,8,8,0,0,1,2,5.71v12.2h-2.58v-12.2a5.54,5.54,0,0,0-1.31-3.93,4.55,4.55,0,0,0-3.46-1.38,5.11,5.11,0,0,0-3.93,1.62q-1.5,1.62-1.5,5.06v10.83h-2.59v-12.2a5.73,5.73,0,0,0-1.23-3.95,4.26,4.26,0,0,0-3.34-1.36,5.43,5.43,0,0,0-4,1.64,6.87,6.87,0,0,0-1.64,5v10.83h-2.58v-19.55h2.58v2.86a6.69,6.69,0,0,1,6-3.33,6.08,6.08,0,0,1,5.95,3.56A6.88,6.88,0,0,1,202.12,1241.77Z"/><path class="cls-4" d="M231.25,1242.24h2.58v19.55h-2.58V1258a8.75,8.75,0,0,1-7.9,4.3,9.7,9.7,0,0,1-7.14-3,10.43,10.43,0,0,1,0-14.54,9.67,9.67,0,0,1,7.14-3,8.77,8.77,0,0,1,7.9,4.3Zm-13.18,15.27a7.79,7.79,0,0,0,11,0,7.89,7.89,0,0,0,0-11,7.81,7.81,0,0,0-11,0,7.89,7.89,0,0,0,0,11Z"/><path class="cls-4" d="M906.83,1373.1h-3.6l-12.82-13.29v13.29h-2.74v-27.37h2.74v12.53l12.43-12.53h3.6L893.3,1359Z"/><path class="cls-4" d="M912.54,1356.8a6.35,6.35,0,0,1,6.17-3.56v2.5a6.35,6.35,0,0,0-4.41,1.57c-1.18,1-1.76,2.68-1.76,4.92v10.87H910v-19.55h2.58Z"/><path class="cls-4" d="M924.85,1348.86a1.79,1.79,0,0,1-1.33.55,1.77,1.77,0,0,1-1.32-.55,1.88,1.88,0,0,1,1.32-3.21,1.83,1.83,0,0,1,1.33.55,1.88,1.88,0,0,1,0,2.66Zm-2.62,24.24v-19.55h2.58v19.55Z"/><path class="cls-4" d="M940.65,1356.05H935v11.85a3.41,3.41,0,0,0,.62,2.29,2.47,2.47,0,0,0,1.88.7c.84,0,1.88,0,3.13-.06v2.27q-4.11.63-6.16-.59t-2-4.61v-11.85h-4.11v-2.5h4.11v-4.69l2.58-.78v5.47h5.63Z"/><path class="cls-4" d="M960.59,1353.55h2.58v19.55h-2.58v-3.83a8.75,8.75,0,0,1-7.9,4.3,9.67,9.67,0,0,1-7.13-3,10.42,10.42,0,0,1,0-14.55,9.67,9.67,0,0,1,7.13-3,8.77,8.77,0,0,1,7.9,4.3Zm-13.18,15.27a7.79,7.79,0,0,0,11,0,7.89,7.89,0,0,0,0-11,7.79,7.79,0,0,0-11,0,7.89,7.89,0,0,0,0,11Z"/><path class="cls-4" d="M359.17,1261.79l-2.54-6.72h-13l-2.54,6.72h-2.89l10.52-27.37h2.81l10.52,27.37Zm-14.56-9.3h11.05l-5.52-14.64Z"/><path class="cls-4" d="M381.61,1234.42h2.58v27.37h-2.58V1258a8.75,8.75,0,0,1-7.9,4.3,9.67,9.67,0,0,1-7.13-3,10.41,10.41,0,0,1,0-14.54,9.64,9.64,0,0,1,7.13-3,8.77,8.77,0,0,1,7.9,4.3Zm-13.18,23.09a7.79,7.79,0,0,0,10.95,0,7.71,7.71,0,1,0-10.95,0Z"/><path class="cls-4" d="M406.07,1259.31a10.49,10.49,0,0,1-14.59,0,10.38,10.38,0,0,1,0-14.58,10.47,10.47,0,0,1,14.59,0,10.38,10.38,0,0,1,0,14.58Zm-12.77-1.8a7.79,7.79,0,0,0,10.95,0,7.89,7.89,0,0,0,0-11,7.76,7.76,0,0,0-10.95,11Z"/><path class="cls-4" d="M423.84,1241.77a9.67,9.67,0,0,1,7.13,3,10.43,10.43,0,0,1,0,14.54,9.7,9.7,0,0,1-7.13,3,8.75,8.75,0,0,1-7.9-4.3v3.83h-2.58v-27.37h2.58v11.65A8.77,8.77,0,0,1,423.84,1241.77Zm-5.67,15.74a7.77,7.77,0,0,0,10.94,0,7.7,7.7,0,1,0-10.94,0Z"/><path class="cls-4" d="M447.26,1241.77a8.87,8.87,0,0,1,7,3.07,10.68,10.68,0,0,1,2.68,7.26,10.89,10.89,0,0,1-.08,1.21H439.71a7,7,0,0,0,2.52,4.71,8,8,0,0,0,5.26,1.74,7.7,7.7,0,0,0,3.85-.92,6.13,6.13,0,0,0,2.44-2.4l2.27,1.32a9.22,9.22,0,0,1-3.52,3.29,10.42,10.42,0,0,1-5.08,1.21,10.15,10.15,0,0,1-7.51-2.89,10,10,0,0,1-2.89-7.35,10.06,10.06,0,0,1,2.85-7.31A9.82,9.82,0,0,1,447.26,1241.77Zm0,2.51a7.3,7.3,0,0,0-7.55,6.52h14.58a7.26,7.26,0,0,0-2.38-4.8A6.89,6.89,0,0,0,447.26,1244.28Z"/><path class="cls-4" d="M490,1261.79h-3.13l-7.43-11.68L472,1261.79h-3.13l9-14.13-8.42-13.24h3.09l6.88,10.8,6.89-10.8h3.08L481,1247.66Z"/><path class="cls-4" d="M504.46,1234.42a12,12,0,0,1,9.24,4,14.72,14.72,0,0,1,0,19.43,12,12,0,0,1-9.24,4H493.9v-27.37Zm0,24.79a9.46,9.46,0,0,0,7.37-3.21,12.29,12.29,0,0,0,0-15.79,9.46,9.46,0,0,0-7.37-3.21h-7.82v22.21Z"/><path class="cls-4" d="M662.58,1578.17a7.27,7.27,0,0,1,3.19,2.6,6.88,6.88,0,0,1,1.19,4,7.61,7.61,0,0,1-7.63,7.62H647.41V1565h11a7.37,7.37,0,0,1,7.35,7.35A6.45,6.45,0,0,1,662.58,1578.17Zm-4.14-10.6h-8.29v9.54h8.29a4.4,4.4,0,0,0,3.26-1.38,4.89,4.89,0,0,0,0-6.75A4.35,4.35,0,0,0,658.44,1567.57Zm.89,22.21a4.66,4.66,0,0,0,3.46-1.46,5.17,5.17,0,0,0,0-7.14,4.62,4.62,0,0,0-3.46-1.49h-9.18v10.09Z"/><path class="cls-4" d="M671.26,1592.36v-28.54h2.58v28.54Z"/><path class="cls-4" d="M688.35,1572.34a8.87,8.87,0,0,1,7,3.07,10.68,10.68,0,0,1,2.68,7.26,10.89,10.89,0,0,1-.08,1.21H680.8a7,7,0,0,0,2.52,4.71,8.06,8.06,0,0,0,5.26,1.74,7.7,7.7,0,0,0,3.85-.92,6.22,6.22,0,0,0,2.45-2.4l2.26,1.32a9.22,9.22,0,0,1-3.52,3.29,10.42,10.42,0,0,1-5.08,1.21,10.17,10.17,0,0,1-7.51-2.89,10.78,10.78,0,0,1,0-14.66A9.79,9.79,0,0,1,688.35,1572.34Zm0,2.51a7.3,7.3,0,0,0-7.55,6.53h14.58a7.26,7.26,0,0,0-2.38-4.81A6.89,6.89,0,0,0,688.35,1574.85Z"/><path class="cls-4" d="M711.3,1572.34a7.38,7.38,0,0,1,5.61,2.17,8.17,8.17,0,0,1,2.05,5.85v12h-2.58v-12a5.63,5.63,0,0,0-1.39-4.07,5.19,5.19,0,0,0-3.93-1.44,6.16,6.16,0,0,0-4.57,1.77q-1.75,1.79-1.76,5.5v10.24h-2.58v-19.55h2.58v3A7.24,7.24,0,0,1,711.3,1572.34Z"/><path class="cls-4" d="M740.78,1565h2.58v27.37h-2.58v-3.83a8.75,8.75,0,0,1-7.9,4.3,9.7,9.7,0,0,1-7.14-3,10.43,10.43,0,0,1,0-14.54,9.67,9.67,0,0,1,7.14-3,8.77,8.77,0,0,1,7.9,4.3Zm-13.18,23.09a7.79,7.79,0,0,0,10.95,0,7.89,7.89,0,0,0,0-11,7.81,7.81,0,0,0-10.95,0,7.89,7.89,0,0,0,0,11Z"/><path class="cls-4" d="M757.86,1572.34a8.87,8.87,0,0,1,7,3.07,10.68,10.68,0,0,1,2.68,7.26c0,.28,0,.69-.08,1.21H750.32a7,7,0,0,0,2.52,4.71,8,8,0,0,0,5.26,1.74,7.72,7.72,0,0,0,3.85-.92,6.13,6.13,0,0,0,2.44-2.4l2.27,1.32a9.22,9.22,0,0,1-3.52,3.29,10.42,10.42,0,0,1-5.08,1.21,10.15,10.15,0,0,1-7.51-2.89,10,10,0,0,1-2.89-7.35,10.06,10.06,0,0,1,2.85-7.31A9.82,9.82,0,0,1,757.86,1572.34Zm0,2.51a7.3,7.3,0,0,0-7.54,6.53H764.9a7.26,7.26,0,0,0-2.38-4.81A6.89,6.89,0,0,0,757.86,1574.85Z"/><path class="cls-4" d="M774.25,1576.06a6.35,6.35,0,0,1,6.17-3.56v2.5a6.35,6.35,0,0,0-4.41,1.57c-1.18,1-1.76,2.68-1.76,4.92v10.87h-2.58v-19.55h2.58Z"/><path class="cls-4" d="M885.92,1590.17a11.48,11.48,0,0,1-14.7,0,9.3,9.3,0,0,1-2.82-7.11V1565h2.74v18.07a7,7,0,0,0,2,5.2,8.8,8.8,0,0,0,10.95,0,7,7,0,0,0,2-5.2V1565h2.73v18.07A9.33,9.33,0,0,1,885.92,1590.17Z"/><path class="cls-4" d="M903.36,1572.34a7.38,7.38,0,0,1,5.61,2.17,8.21,8.21,0,0,1,2,5.85v12h-2.58v-12a5.63,5.63,0,0,0-1.39-4.07,5.2,5.2,0,0,0-3.93-1.44,6.15,6.15,0,0,0-4.57,1.77c-1.18,1.19-1.76,3-1.76,5.5v10.24h-2.58v-19.55h2.58v3A7.24,7.24,0,0,1,903.36,1572.34Z"/><path class="cls-4" d="M918.64,1568.12a1.79,1.79,0,0,1-1.33.55,1.77,1.77,0,0,1-1.32-.55,1.87,1.87,0,0,1,1.32-3.2,1.86,1.86,0,0,1,1.88,1.87A1.79,1.79,0,0,1,918.64,1568.12ZM916,1592.36v-19.55h2.58v19.55Z"/><path class="cls-4" d="M934.44,1575.32h-5.63v11.84a3.35,3.35,0,0,0,.63,2.29,2.43,2.43,0,0,0,1.87.7c.84,0,1.88,0,3.13-.06v2.27c-2.74.42-4.79.22-6.16-.58s-2-2.35-2-4.62v-11.84h-4.11v-2.51h4.11v-4.69l2.58-.78v5.47h5.63Z"/><path class="cls-4" d="M953.21,1572.81h2.73l-8.36,21.35a10.62,10.62,0,0,1-3.23,4.56,6.51,6.51,0,0,1-4.67,1.46v-2.42q3.51.39,5.34-4.07l.5-1.27-8.73-19.61h2.73l7.32,16.24Z"/><path class="cls-4" d="M122.3,1675.13a8.6,8.6,0,1,1,0,17.2h-7v10.17h-2.74v-27.37Zm0,14.62a5.64,5.64,0,0,0,4.2-1.7,6.45,6.45,0,0,0,0-8.64,5.61,5.61,0,0,0-4.2-1.7h-7v12Z"/><path class="cls-4" d="M137.39,1686.19a6.36,6.36,0,0,1,6.18-3.56v2.5a6.41,6.41,0,0,0-4.42,1.57q-1.76,1.56-1.76,4.93v10.87h-2.58V1683h2.58Z"/><path class="cls-4" d="M162.31,1700a10.48,10.48,0,0,1-14.58,0,10.38,10.38,0,0,1,0-14.58,10.48,10.48,0,0,1,14.58,0,10.36,10.36,0,0,1,0,14.58Zm-12.76-1.8a7.79,7.79,0,0,0,10.95,0,7.87,7.87,0,0,0,0-11,7.79,7.79,0,0,0-10.95,0,7.87,7.87,0,0,0,0,11Z"/><path class="cls-4" d="M178.72,1703a10.24,10.24,0,1,1,5.2-19.1,8.31,8.31,0,0,1,3.36,3.74l-2.11,1.21a6.19,6.19,0,0,0-2.52-2.8,7.56,7.56,0,0,0-3.93-1,7.42,7.42,0,0,0-5.48,2.25,7.87,7.87,0,0,0,0,11,7.57,7.57,0,0,0,12.08-1.58l2.15,1.25a9,9,0,0,1-3.55,3.72A10.17,10.17,0,0,1,178.72,1703Z"/><path class="cls-4" d="M193.77,1686.19a6.36,6.36,0,0,1,6.18-3.56v2.5a6.41,6.41,0,0,0-4.42,1.57c-1.18,1-1.76,2.68-1.76,4.93v10.87h-2.58V1683h2.58Z"/><path class="cls-4" d="M211.32,1682.48a8.84,8.84,0,0,1,7,3.07,10.63,10.63,0,0,1,2.68,7.25c0,.29,0,.69-.08,1.21H203.78a7,7,0,0,0,2.52,4.71,8,8,0,0,0,5.26,1.74,7.62,7.62,0,0,0,3.85-.92,6.13,6.13,0,0,0,2.44-2.4l2.27,1.33a9.27,9.27,0,0,1-3.52,3.28,10.42,10.42,0,0,1-5.08,1.21,10.15,10.15,0,0,1-7.51-2.89,10,10,0,0,1-2.89-7.35,10.06,10.06,0,0,1,2.85-7.31A9.81,9.81,0,0,1,211.32,1682.48Zm0,2.5a7.32,7.32,0,0,0-7.54,6.53h14.58a7.29,7.29,0,0,0-2.38-4.81A6.89,6.89,0,0,0,211.32,1685Z"/><path class="cls-4" d="M241.94,1683h2.58v19.55h-2.58v-3.84a8.75,8.75,0,0,1-7.9,4.3,9.67,9.67,0,0,1-7.13-3,10.41,10.41,0,0,1,0-14.54,9.67,9.67,0,0,1,7.13-3,8.75,8.75,0,0,1,7.9,4.3Zm-13.18,15.26a7.79,7.79,0,0,0,11,0,7.87,7.87,0,0,0,0-11,7.79,7.79,0,0,0-11,0,7.87,7.87,0,0,0,0,11Z"/><path class="cls-4" d="M260.35,1685.45h-5.63v11.84a3.34,3.34,0,0,0,.63,2.29,2.49,2.49,0,0,0,1.88.71q1.25,0,3.12-.06v2.27c-2.73.41-4.79.22-6.15-.59s-2.06-2.35-2.06-4.62v-11.84H248V1683h4.1v-4.7l2.58-.78V1683h5.63Z"/><path class="cls-4" d="M272.51,1682.48a8.84,8.84,0,0,1,7,3.07,10.63,10.63,0,0,1,2.68,7.25c0,.29,0,.69-.08,1.21H265a7,7,0,0,0,2.52,4.71,8,8,0,0,0,5.26,1.74,7.62,7.62,0,0,0,3.85-.92,6.13,6.13,0,0,0,2.44-2.4l2.27,1.33a9.27,9.27,0,0,1-3.52,3.28,10.42,10.42,0,0,1-5.08,1.21,10.15,10.15,0,0,1-7.51-2.89,10,10,0,0,1-2.89-7.35,10.06,10.06,0,0,1,2.85-7.31A9.81,9.81,0,0,1,272.51,1682.48Zm0,2.5a7.32,7.32,0,0,0-7.54,6.53h14.58a7.29,7.29,0,0,0-2.38-4.81A6.89,6.89,0,0,0,272.51,1685Z"/><path class="cls-4" d="M387.36,1675.13h2.74v27.37h-2.74v-12.79H372.5v12.79h-2.73v-27.37h2.73v12h14.86Z"/><path class="cls-4" d="M413.56,1675.13v2.58h-8.41v24.79h-2.74v-24.79H394v-2.58Z"/><path class="cls-4" d="M442.49,1675.13v27.37h-2.74v-23.23l-9.58,16h-.39l-9.58-16v23.23h-2.73v-27.37h3.35l9.16,15.32,9.15-15.32Z"/><path class="cls-4" d="M451.48,1699.92H464v2.58H448.75v-27.37h2.73Z"/><path class="cls-4" d="M473,1699.17l-2.35,8.8h-2.35l1.57-8.8Z"/><path class="cls-4" d="M489.29,1703a14.15,14.15,0,1,1,7-26.49,12.81,12.81,0,0,1,4.89,4.91l-2.43,1.41a9.67,9.67,0,0,0-3.83-4,10.87,10.87,0,0,0-5.59-1.48,11.5,11.5,0,1,0,0,23,10.88,10.88,0,0,0,5.59-1.49,9.67,9.67,0,0,0,3.83-4l2.43,1.37a12.6,12.6,0,0,1-4.87,4.93A13.78,13.78,0,0,1,489.29,1703Z"/><path class="cls-4" d="M514.24,1703a11.42,11.42,0,0,1-6.44-1.77,9.32,9.32,0,0,1-3.73-4.91l2.35-1.37a7.17,7.17,0,0,0,2.73,4,8.61,8.61,0,0,0,5.12,1.43A7.49,7.49,0,0,0,519,1699a4.35,4.35,0,0,0,1.7-3.58,3.73,3.73,0,0,0-1.57-3.25,20.66,20.66,0,0,0-5.16-2.26,30.69,30.69,0,0,1-5.63-2.27,6,6,0,0,1-3.13-5.44,6.74,6.74,0,0,1,2.43-5.49,9,9,0,0,1,6-2,9.32,9.32,0,0,1,5.55,1.66,10.09,10.09,0,0,1,3.48,4.24l-2.31,1.29a6.74,6.74,0,0,0-6.72-4.53,6.36,6.36,0,0,0-4.11,1.25,4.2,4.2,0,0,0-1.56,3.48,3.52,3.52,0,0,0,1.41,3,18.36,18.36,0,0,0,4.65,2.07l2.13.72c.43.15,1.06.38,1.88.71a11,11,0,0,1,1.82.86c.39.24.86.58,1.42,1a4.47,4.47,0,0,1,1.21,1.29,8,8,0,0,1,.67,1.57,6.3,6.3,0,0,1,.29,2,6.82,6.82,0,0,1-2.54,5.57A10.14,10.14,0,0,1,514.24,1703Z"/><path class="cls-4" d="M535.78,1703a11.39,11.39,0,0,1-6.43-1.77,9.34,9.34,0,0,1-3.74-4.91l2.35-1.37a7.18,7.18,0,0,0,2.74,4,8.59,8.59,0,0,0,5.12,1.43,7.46,7.46,0,0,0,4.75-1.35,4.35,4.35,0,0,0,1.7-3.58,3.72,3.72,0,0,0-1.56-3.25,20.94,20.94,0,0,0-5.17-2.26,31,31,0,0,1-5.63-2.27,6,6,0,0,1-3.12-5.44,6.74,6.74,0,0,1,2.42-5.49,9.06,9.06,0,0,1,6-2,9.32,9.32,0,0,1,5.55,1.66,10,10,0,0,1,3.48,4.24l-2.3,1.29a6.75,6.75,0,0,0-6.73-4.53,6.33,6.33,0,0,0-4.1,1.25,4.18,4.18,0,0,0-1.57,3.48,3.52,3.52,0,0,0,1.41,3,18.36,18.36,0,0,0,4.65,2.07l2.13.72c.43.15,1.06.38,1.88.71a11,11,0,0,1,1.82.86c.39.24.87.58,1.43,1a4.62,4.62,0,0,1,1.21,1.29,7.49,7.49,0,0,1,.66,1.57,6.3,6.3,0,0,1,.3,2,6.83,6.83,0,0,1-2.55,5.57A10.14,10.14,0,0,1,535.78,1703Z"/><path class="cls-4" d="M651.73,1675.13a8.6,8.6,0,1,1,0,17.2h-7v10.17H642v-27.37Zm0,14.62a5.63,5.63,0,0,0,4.2-1.7,6.42,6.42,0,0,0,0-8.64,5.59,5.59,0,0,0-4.2-1.7h-7v12Z"/><path class="cls-4" d="M678.71,1683h2.74l-8.37,21.34a10.62,10.62,0,0,1-3.23,4.56,6.47,6.47,0,0,1-4.67,1.47v-2.43q3.51.39,5.35-4.07l.49-1.26L662.29,1683H665l7.32,16.24Z"/><path class="cls-4" d="M694.94,1685.45H689.3v11.84a3.34,3.34,0,0,0,.63,2.29,2.49,2.49,0,0,0,1.88.71c.83,0,1.87,0,3.13-.06v2.27c-2.74.41-4.79.22-6.16-.59s-2.06-2.35-2.06-4.62v-11.84h-4.1V1683h4.1v-4.7l2.58-.78V1683h5.64Z"/><path class="cls-4" d="M708.38,1682.48a7.35,7.35,0,0,1,5.62,2.17,8.17,8.17,0,0,1,2,5.84v12h-2.58v-12a5.65,5.65,0,0,0-1.39-4.06,5.19,5.19,0,0,0-3.93-1.45,6.12,6.12,0,0,0-4.57,1.78c-1.18,1.18-1.76,3-1.76,5.49v10.25h-2.58v-27.37h2.58V1686A7.22,7.22,0,0,1,708.38,1682.48Z"/><path class="cls-4" d="M737.46,1700a10.49,10.49,0,0,1-14.59,0,10.38,10.38,0,0,1,0-14.58,10.49,10.49,0,0,1,14.59,0,10.38,10.38,0,0,1,0,14.58Zm-12.77-1.8a7.79,7.79,0,0,0,10.95,0,7.87,7.87,0,0,0,0-11,7.79,7.79,0,0,0-10.95,0,7.87,7.87,0,0,0,0,11Z"/><path class="cls-4" d="M753.9,1682.48a7.34,7.34,0,0,1,5.61,2.17,8.13,8.13,0,0,1,2,5.84v12H759v-12a5.6,5.6,0,0,0-1.39-4.06,5.16,5.16,0,0,0-3.93-1.45,6.12,6.12,0,0,0-4.57,1.78c-1.18,1.18-1.76,3-1.76,5.49v10.25h-2.58V1683h2.58v3A7.22,7.22,0,0,1,753.9,1682.48Z"/><path class="cls-4" d="M627.05,1261.79l-2.54-6.72h-13l-2.54,6.72h-2.89l10.52-27.37h2.81l10.52,27.37Zm-14.55-9.3h11L618,1237.85Z"/><path class="cls-4" d="M649.49,1234.42h2.58v27.37h-2.58V1258a8.75,8.75,0,0,1-7.9,4.3,9.67,9.67,0,0,1-7.13-3,10.43,10.43,0,0,1,0-14.54,9.64,9.64,0,0,1,7.13-3,8.77,8.77,0,0,1,7.9,4.3Zm-13.18,23.09a7.79,7.79,0,0,0,11,0,7.7,7.7,0,1,0-11,0Z"/><path class="cls-4" d="M674,1259.31a10.49,10.49,0,0,1-14.59,0,10.38,10.38,0,0,1,0-14.58,10.47,10.47,0,0,1,14.59,0,10.38,10.38,0,0,1,0,14.58Zm-12.77-1.8a7.79,7.79,0,0,0,11,0,7.89,7.89,0,0,0,0-11,7.81,7.81,0,0,0-11,0,7.89,7.89,0,0,0,0,11Z"/><path class="cls-4" d="M691.72,1241.77a9.65,9.65,0,0,1,7.13,3,10.43,10.43,0,0,1,0,14.54,9.68,9.68,0,0,1-7.13,3,8.75,8.75,0,0,1-7.9-4.3v3.83h-2.58v-27.37h2.58v11.65A8.77,8.77,0,0,1,691.72,1241.77Zm-5.67,15.74a7.79,7.79,0,0,0,11,0,7.91,7.91,0,0,0,0-11,7.76,7.76,0,0,0-11,11Z"/><path class="cls-4" d="M715.14,1241.77a8.9,8.9,0,0,1,7,3.07,10.72,10.72,0,0,1,2.67,7.26c0,.28,0,.69-.07,1.21H707.59a7,7,0,0,0,2.52,4.71,8.06,8.06,0,0,0,5.26,1.74,7.7,7.7,0,0,0,3.85-.92,6.22,6.22,0,0,0,2.45-2.4l2.26,1.32a9.26,9.26,0,0,1-3.51,3.29,10.46,10.46,0,0,1-5.09,1.21,10.13,10.13,0,0,1-7.5-2.89,10.77,10.77,0,0,1,0-14.66A9.79,9.79,0,0,1,715.14,1241.77Zm0,2.51a7.3,7.3,0,0,0-7.55,6.52h14.58a7.26,7.26,0,0,0-2.38-4.8A6.89,6.89,0,0,0,715.14,1244.28Z"/><path class="cls-4" d="M749.19,1241.77a9.67,9.67,0,0,1,7.14,3,10.43,10.43,0,0,1,0,14.54,9.7,9.7,0,0,1-7.14,3,8.75,8.75,0,0,1-7.9-4.3v11.65h-2.58v-27.37h2.58v3.83A8.77,8.77,0,0,1,749.19,1241.77Zm-5.67,15.74a7.79,7.79,0,0,0,11,0,7.71,7.71,0,1,0-11,0Z"/><path class="cls-4" d="M772.73,1241.77a7.38,7.38,0,0,1,5.61,2.17,8.17,8.17,0,0,1,2,5.85v12h-2.58v-12a5.63,5.63,0,0,0-1.39-4.07,5.18,5.18,0,0,0-3.92-1.44,6.17,6.17,0,0,0-4.58,1.77q-1.75,1.79-1.76,5.5v10.24h-2.58v-27.37h2.58v10.87A7.24,7.24,0,0,1,772.73,1241.77Z"/><path class="cls-4" d="M801.8,1259.31a10.48,10.48,0,0,1-14.58,0,10.38,10.38,0,0,1,0-14.58,10.46,10.46,0,0,1,14.58,0,10.38,10.38,0,0,1,0,14.58Zm-12.77-1.8a7.79,7.79,0,0,0,11,0,7.7,7.7,0,1,0-11,0Z"/><path class="cls-4" d="M819.06,1244.75h-5.63v11.84a3.35,3.35,0,0,0,.63,2.29,2.43,2.43,0,0,0,1.87.7c.84,0,1.88,0,3.13-.06v2.27c-2.73.42-4.79.22-6.16-.58s-2-2.35-2-4.62v-11.84h-4.1v-2.51h4.1v-4.69l2.58-.78v5.47h5.63Z"/><path class="cls-4" d="M838.59,1259.31a10.48,10.48,0,0,1-14.58,0,10.38,10.38,0,0,1,0-14.58,10.46,10.46,0,0,1,14.58,0,10.38,10.38,0,0,1,0,14.58Zm-12.76-1.8a7.77,7.77,0,0,0,10.94,0,7.7,7.7,0,1,0-10.94,0Z"/><path class="cls-4" d="M847.53,1247.31a2.37,2.37,0,0,0,1.18,2.08,10.84,10.84,0,0,0,2.87,1.25l3.37,1a6.07,6.07,0,0,1,2.84,1.74,4.66,4.66,0,0,1,1.15,3.29,5,5,0,0,1-2,4.07,8,8,0,0,1-5.1,1.56,8.78,8.78,0,0,1-4.79-1.25,6.66,6.66,0,0,1-2.76-3.25l2.19-1.29a4.57,4.57,0,0,0,2,2.41,7,7,0,0,0,6.59.12,2.56,2.56,0,0,0,1.29-2.37,2.42,2.42,0,0,0-1.17-2.11,10.2,10.2,0,0,0-2.86-1.26l-3.36-1a6.21,6.21,0,0,1-2.85-1.71,4.5,4.5,0,0,1-1.17-3.23,5,5,0,0,1,1.89-4,7.17,7.17,0,0,1,4.79-1.61,8,8,0,0,1,4.19,1.08,6.64,6.64,0,0,1,2.65,2.91l-2.15,1.25c-.75-1.82-2.32-2.73-4.69-2.73a5.23,5.23,0,0,0-2.89.78A2.53,2.53,0,0,0,847.53,1247.31Z"/><path class="cls-4" d="M872.2,1241.77a7.38,7.38,0,0,1,5.61,2.17,8.17,8.17,0,0,1,2.05,5.85v12h-2.58v-12a5.63,5.63,0,0,0-1.39-4.07,5.19,5.19,0,0,0-3.93-1.44,6.16,6.16,0,0,0-4.57,1.77q-1.75,1.79-1.76,5.5v10.24h-2.58v-27.37h2.58v10.87A7.24,7.24,0,0,1,872.2,1241.77Z"/><path class="cls-4" d="M901.27,1259.31a10.49,10.49,0,0,1-14.59,0,10.38,10.38,0,0,1,0-14.58,10.47,10.47,0,0,1,14.59,0,10.38,10.38,0,0,1,0,14.58Zm-12.77-1.8a7.79,7.79,0,0,0,11,0,7.71,7.71,0,1,0-11,0Z"/><path class="cls-4" d="M919,1241.77a9.64,9.64,0,0,1,7.13,3,10.43,10.43,0,0,1,0,14.54,9.67,9.67,0,0,1-7.13,3,8.75,8.75,0,0,1-7.9-4.3v11.65h-2.58v-27.37h2.58v3.83A8.77,8.77,0,0,1,919,1241.77Zm-5.67,15.74a7.79,7.79,0,0,0,11,0,7.91,7.91,0,0,0,0-11,7.76,7.76,0,0,0-11,11Z"/><path class="cls-4" d="M139.6,1373.1l-2.53-6.72h-13l-2.54,6.72h-2.89l10.52-27.37H132l10.52,27.37Zm-14.55-9.3h11l-5.52-14.64Z"/><path class="cls-4" d="M162.05,1345.73h2.58v27.37h-2.58v-3.83a8.75,8.75,0,0,1-7.9,4.3,9.7,9.7,0,0,1-7.14-3,10.45,10.45,0,0,1,0-14.55,9.7,9.7,0,0,1,7.14-3,8.77,8.77,0,0,1,7.9,4.3Zm-13.18,23.09a7.79,7.79,0,0,0,10.95,0,7.89,7.89,0,0,0,0-11,7.79,7.79,0,0,0-10.95,0,7.89,7.89,0,0,0,0,11Z"/><path class="cls-4" d="M186.5,1370.62a10.48,10.48,0,0,1-14.58,0,10.38,10.38,0,0,1,0-14.58,10.46,10.46,0,0,1,14.58,0,10.36,10.36,0,0,1,0,14.58Zm-12.76-1.8a7.79,7.79,0,0,0,10.95,0,7.91,7.91,0,0,0,0-11,7.79,7.79,0,0,0-10.95,0,7.89,7.89,0,0,0,0,11Z"/><path class="cls-4" d="M204.27,1353.08a9.7,9.7,0,0,1,7.14,3,10.45,10.45,0,0,1,0,14.55,9.7,9.7,0,0,1-7.14,3,8.73,8.73,0,0,1-7.89-4.3v3.83H193.8v-27.37h2.58v11.65A8.75,8.75,0,0,1,204.27,1353.08Zm-5.67,15.74a7.79,7.79,0,0,0,11,0,7.89,7.89,0,0,0,0-11,7.79,7.79,0,0,0-11,0,7.91,7.91,0,0,0,0,11Z"/><path class="cls-4" d="M227.69,1353.08a8.87,8.87,0,0,1,7,3.07,10.68,10.68,0,0,1,2.68,7.26c0,.28,0,.69-.08,1.21H220.15a7,7,0,0,0,2.52,4.71,8,8,0,0,0,5.26,1.74,7.72,7.72,0,0,0,3.85-.92,6.13,6.13,0,0,0,2.44-2.4l2.27,1.32a9.22,9.22,0,0,1-3.52,3.29,10.42,10.42,0,0,1-5.08,1.21,10.15,10.15,0,0,1-7.51-2.89,10,10,0,0,1-2.89-7.35,10.06,10.06,0,0,1,2.85-7.31A9.82,9.82,0,0,1,227.69,1353.08Zm0,2.5a7.32,7.32,0,0,0-7.54,6.53h14.58a7.26,7.26,0,0,0-2.38-4.8A6.9,6.9,0,0,0,227.69,1355.58Z"/><path class="cls-4" d="M251.66,1345.73h2.74v27.37h-2.74Z"/><path class="cls-4" d="M260.26,1373.1v-28.54h2.58v28.54Z"/><path class="cls-4" d="M268.32,1373.1v-28.54h2.58v28.54Z"/><path class="cls-4" d="M290.13,1353.55h2.59v19.55h-2.59v-3a7.22,7.22,0,0,1-6.56,3.52,7.31,7.31,0,0,1-5.61-2.17,8.15,8.15,0,0,1-2.06-5.84v-12h2.58v12a5.65,5.65,0,0,0,1.39,4.06,5.19,5.19,0,0,0,3.93,1.45,6.16,6.16,0,0,0,4.58-1.78q1.75-1.79,1.75-5.49Z"/><path class="cls-4" d="M300.22,1358.62a2.38,2.38,0,0,0,1.19,2.08,10.7,10.7,0,0,0,2.87,1.25l3.36,1a6,6,0,0,1,2.84,1.74,4.67,4.67,0,0,1,1.16,3.29,5,5,0,0,1-2,4.07,8,8,0,0,1-5.1,1.56,8.83,8.83,0,0,1-4.79-1.25,6.69,6.69,0,0,1-2.75-3.25l2.19-1.29a4.57,4.57,0,0,0,2,2.41,7,7,0,0,0,6.59.12,2.56,2.56,0,0,0,1.29-2.37,2.42,2.42,0,0,0-1.17-2.11,10.33,10.33,0,0,0-2.86-1.26l-3.36-1a6.3,6.3,0,0,1-2.86-1.71,4.5,4.5,0,0,1-1.17-3.23,5,5,0,0,1,1.9-4,7.15,7.15,0,0,1,4.79-1.61,8,8,0,0,1,4.18,1.08,6.61,6.61,0,0,1,2.66,2.91l-2.15,1.25c-.76-1.82-2.32-2.74-4.69-2.74a5.26,5.26,0,0,0-2.9.79A2.55,2.55,0,0,0,300.22,1358.62Z"/><path class="cls-4" d="M325.52,1356.05h-5.63v11.85a3.35,3.35,0,0,0,.63,2.29,2.43,2.43,0,0,0,1.87.7c.84,0,1.88,0,3.13-.06v2.27q-4.11.63-6.16-.59t-2.05-4.61v-11.85H313.2v-2.5h4.11v-4.69l2.58-.78v5.47h5.63Z"/><path class="cls-4" d="M332.4,1356.8a6.36,6.36,0,0,1,6.18-3.56v2.5a6.38,6.38,0,0,0-4.42,1.57q-1.76,1.56-1.76,4.92v10.87h-2.58v-19.55h2.58Z"/><path class="cls-4" d="M357.74,1353.55h2.58v19.55h-2.58v-3.83a8.75,8.75,0,0,1-7.9,4.3,9.7,9.7,0,0,1-7.14-3,10.45,10.45,0,0,1,0-14.55,9.7,9.7,0,0,1,7.14-3,8.77,8.77,0,0,1,7.9,4.3Zm-13.18,15.27a7.79,7.79,0,0,0,10.95,0,7.89,7.89,0,0,0,0-11,7.79,7.79,0,0,0-10.95,0,7.89,7.89,0,0,0,0,11Z"/><path class="cls-4" d="M376.15,1356.05h-5.63v11.85a3.35,3.35,0,0,0,.63,2.29,2.43,2.43,0,0,0,1.87.7c.84,0,1.88,0,3.13-.06v2.27c-2.73.42-4.79.22-6.16-.59s-2.05-2.34-2.05-4.61v-11.85h-4.1v-2.5h4.1v-4.69l2.58-.78v5.47h5.63Z"/><path class="cls-4" d="M395.68,1370.62a10.48,10.48,0,0,1-14.58,0,10.38,10.38,0,0,1,0-14.58,10.46,10.46,0,0,1,14.58,0,10.38,10.38,0,0,1,0,14.58Zm-12.76-1.8a7.77,7.77,0,0,0,10.94,0,7.89,7.89,0,0,0,0-11,7.77,7.77,0,0,0-10.94,0,7.89,7.89,0,0,0,0,11Z"/><path class="cls-4" d="M405.55,1356.8a6.36,6.36,0,0,1,6.18-3.56v2.5a6.4,6.4,0,0,0-4.42,1.57q-1.76,1.56-1.76,4.92v10.87H403v-19.55h2.58Z"/><path class="cls-4" d="M531.7,1373.1l-2.53-6.72h-13l-2.54,6.72h-2.89l10.51-27.37h2.82l10.52,27.37Zm-14.55-9.3h11l-5.52-14.64Z"/><path class="cls-4" d="M554.14,1345.73h2.58v27.37h-2.58v-3.83a8.73,8.73,0,0,1-7.89,4.3,9.7,9.7,0,0,1-7.14-3,10.45,10.45,0,0,1,0-14.55,9.7,9.7,0,0,1,7.14-3,8.75,8.75,0,0,1,7.89,4.3ZM541,1368.82a7.79,7.79,0,0,0,10.95,0,7.91,7.91,0,0,0,0-11,7.79,7.79,0,0,0-10.95,0,7.89,7.89,0,0,0,0,11Z"/><path class="cls-4" d="M578.6,1370.62a10.48,10.48,0,0,1-14.58,0,10.38,10.38,0,0,1,0-14.58,10.46,10.46,0,0,1,14.58,0,10.38,10.38,0,0,1,0,14.58Zm-12.77-1.8a7.75,7.75,0,1,0,0-11,7.91,7.91,0,0,0,0,11Z"/><path class="cls-4" d="M596.37,1353.08a9.7,9.7,0,0,1,7.14,3,10.45,10.45,0,0,1,0,14.55,9.7,9.7,0,0,1-7.14,3,8.75,8.75,0,0,1-7.9-4.3v3.83h-2.58v-27.37h2.58v11.65A8.77,8.77,0,0,1,596.37,1353.08Zm-5.67,15.74a7.79,7.79,0,0,0,10.95,0,7.89,7.89,0,0,0,0-11,7.79,7.79,0,0,0-10.95,0,7.89,7.89,0,0,0,0,11Z"/><path class="cls-4" d="M619.79,1353.08a8.9,8.9,0,0,1,7,3.07,10.73,10.73,0,0,1,2.68,7.26c0,.28,0,.69-.08,1.21H612.25a7,7,0,0,0,2.52,4.71,8,8,0,0,0,5.26,1.74,7.75,7.75,0,0,0,3.85-.92,6.19,6.19,0,0,0,2.44-2.4l2.27,1.32a9.22,9.22,0,0,1-3.52,3.29,10.45,10.45,0,0,1-5.08,1.21,10.15,10.15,0,0,1-7.51-2.89,10,10,0,0,1-2.89-7.35,10.06,10.06,0,0,1,2.85-7.31A9.79,9.79,0,0,1,619.79,1353.08Zm0,2.5a7.32,7.32,0,0,0-7.54,6.53h14.58a7.27,7.27,0,0,0-2.39-4.8A6.88,6.88,0,0,0,619.79,1355.58Z"/><path class="cls-4" d="M643.76,1345.73h2.74v27.37h-2.74Z"/><path class="cls-4" d="M661.51,1353.08a7.38,7.38,0,0,1,5.61,2.17,8.17,8.17,0,0,1,2,5.85v12h-2.58v-12a5.63,5.63,0,0,0-1.39-4.07,5.19,5.19,0,0,0-3.93-1.45,6.17,6.17,0,0,0-4.57,1.78q-1.76,1.79-1.76,5.5v10.24h-2.58v-19.55h2.58v3A7.24,7.24,0,0,1,661.51,1353.08Z"/><path class="cls-4" d="M691,1345.73h2.58v27.37H691v-3.83a8.75,8.75,0,0,1-7.9,4.3,9.67,9.67,0,0,1-7.13-3,10.42,10.42,0,0,1,0-14.55,9.67,9.67,0,0,1,7.13-3,8.77,8.77,0,0,1,7.9,4.3Zm-13.18,23.09a7.79,7.79,0,0,0,11,0,7.89,7.89,0,0,0,0-11,7.79,7.79,0,0,0-11,0,7.89,7.89,0,0,0,0,11Z"/><path class="cls-4" d="M708.08,1353.08a8.87,8.87,0,0,1,7,3.07,10.68,10.68,0,0,1,2.68,7.26c0,.28,0,.69-.07,1.21H700.53a7,7,0,0,0,2.52,4.71,8.06,8.06,0,0,0,5.26,1.74,7.7,7.7,0,0,0,3.85-.92,6.22,6.22,0,0,0,2.45-2.4l2.26,1.32a9.22,9.22,0,0,1-3.52,3.29,10.42,10.42,0,0,1-5.08,1.21,10.17,10.17,0,0,1-7.51-2.89,10.78,10.78,0,0,1,0-14.66A9.79,9.79,0,0,1,708.08,1353.08Zm0,2.5a7.32,7.32,0,0,0-7.55,6.53h14.58a7.26,7.26,0,0,0-2.38-4.8A6.89,6.89,0,0,0,708.08,1355.58Z"/><path class="cls-4" d="M723.13,1358.62a2.38,2.38,0,0,0,1.19,2.08,10.7,10.7,0,0,0,2.87,1.25l3.36,1a6,6,0,0,1,2.84,1.74,4.67,4.67,0,0,1,1.16,3.29,5,5,0,0,1-2,4.07,8,8,0,0,1-5.1,1.56,8.8,8.8,0,0,1-4.79-1.25,6.66,6.66,0,0,1-2.76-3.25l2.19-1.29a4.63,4.63,0,0,0,2,2.41,7,7,0,0,0,6.59.12,2.56,2.56,0,0,0,1.29-2.37,2.43,2.43,0,0,0-1.18-2.11,10.13,10.13,0,0,0-2.85-1.26l-3.36-1a6.24,6.24,0,0,1-2.86-1.71,4.5,4.5,0,0,1-1.17-3.23,5,5,0,0,1,1.9-4,7.15,7.15,0,0,1,4.79-1.61,8,8,0,0,1,4.18,1.08,6.67,6.67,0,0,1,2.66,2.91l-2.15,1.25c-.76-1.82-2.32-2.74-4.69-2.74a5.24,5.24,0,0,0-2.9.79A2.53,2.53,0,0,0,723.13,1358.62Z"/><path class="cls-4" d="M741.27,1348.86a1.88,1.88,0,0,1-2.66,0,1.91,1.91,0,0,1,0-2.66,1.88,1.88,0,0,1,2.66,0,1.88,1.88,0,0,1,0,2.66Zm-2.62,24.24v-19.55h2.58v19.55Z"/><path class="cls-4" d="M763.52,1353.55h2.58v18.77a8.25,8.25,0,0,1-2.89,6.65,10.46,10.46,0,0,1-6.92,2.42q-6.88,0-9.27-4.77l2.27-1.29q1.76,3.56,7,3.56a7.54,7.54,0,0,0,5.29-1.78,6.19,6.19,0,0,0,1.94-4.79v-3a8.75,8.75,0,0,1-7.9,4.3,9.67,9.67,0,0,1-7.13-3,10.42,10.42,0,0,1,0-14.55,9.67,9.67,0,0,1,7.13-3,8.77,8.77,0,0,1,7.9,4.3Zm-13.18,15.27a7.79,7.79,0,0,0,10.95,0,7.89,7.89,0,0,0,0-11,7.79,7.79,0,0,0-10.95,0,7.89,7.89,0,0,0,0,11Z"/><path class="cls-4" d="M780.72,1353.08a7.38,7.38,0,0,1,5.61,2.17,8.17,8.17,0,0,1,2.06,5.85v12H785.8v-12a5.67,5.67,0,0,0-1.38-4.07,5.22,5.22,0,0,0-3.93-1.45,6.19,6.19,0,0,0-4.58,1.78q-1.75,1.79-1.76,5.5v10.24h-2.58v-19.55h2.58v3A7.24,7.24,0,0,1,780.72,1353.08Z"/><path class="cls-4" d="M588,1483.26l-2.54-6.72h-13l-2.54,6.72H567l10.52-27.37h2.82l10.52,27.37Zm-14.55-9.3h11l-5.52-14.64Z"/><path class="cls-4" d="M610.41,1455.89H613v27.37h-2.58v-3.83a8.76,8.76,0,0,1-7.9,4.3,9.7,9.7,0,0,1-7.14-3,10.45,10.45,0,0,1,0-14.55,9.7,9.7,0,0,1,7.14-3,8.78,8.78,0,0,1,7.9,4.3ZM597.23,1479a7.79,7.79,0,0,0,10.95,0,7.89,7.89,0,0,0,0-11,7.76,7.76,0,0,0-10.95,11Z"/><path class="cls-4" d="M634.86,1480.78a10.48,10.48,0,0,1-14.58,0,10.38,10.38,0,0,1,0-14.58,10.46,10.46,0,0,1,14.58,0,10.38,10.38,0,0,1,0,14.58Zm-12.77-1.8a7.74,7.74,0,1,0,0-11,7.91,7.91,0,0,0,0,11Z"/><path class="cls-4" d="M652.63,1463.24a9.7,9.7,0,0,1,7.14,3,10.45,10.45,0,0,1,0,14.55,9.7,9.7,0,0,1-7.14,3,8.75,8.75,0,0,1-7.9-4.3v3.83h-2.58v-27.37h2.58v11.65A8.77,8.77,0,0,1,652.63,1463.24ZM647,1479a7.79,7.79,0,0,0,10.95,0,7.71,7.71,0,1,0-10.95,0Z"/><path class="cls-4" d="M676.05,1463.24a8.9,8.9,0,0,1,7,3.07,10.73,10.73,0,0,1,2.68,7.26c0,.28,0,.69-.08,1.21H668.5a7.06,7.06,0,0,0,2.53,4.71,8,8,0,0,0,5.26,1.74,7.75,7.75,0,0,0,3.85-.92,6.19,6.19,0,0,0,2.44-2.4l2.27,1.32a9.22,9.22,0,0,1-3.52,3.29,10.45,10.45,0,0,1-5.08,1.21,10.15,10.15,0,0,1-7.51-2.89,10,10,0,0,1-2.89-7.35,10.06,10.06,0,0,1,2.85-7.31A9.79,9.79,0,0,1,676.05,1463.24Zm0,2.51a7.32,7.32,0,0,0-7.55,6.52h14.59a7.27,7.27,0,0,0-2.39-4.8A6.87,6.87,0,0,0,676.05,1465.75Z"/><path class="cls-4" d="M709.79,1455.89a8.61,8.61,0,1,1,0,17.21h-7v10.16H700v-27.37Zm0,14.63a5.62,5.62,0,0,0,4.21-1.71,6.45,6.45,0,0,0,0-8.64,5.65,5.65,0,0,0-4.21-1.7h-7v12Z"/><path class="cls-4" d="M724.89,1467a6.34,6.34,0,0,1,6.17-3.56v2.5a6.35,6.35,0,0,0-4.41,1.57c-1.18,1-1.76,2.68-1.76,4.92v10.87h-2.58v-19.55h2.58Z"/><path class="cls-4" d="M742.44,1463.24a8.9,8.9,0,0,1,7,3.07,10.68,10.68,0,0,1,2.68,7.26c0,.28,0,.69-.08,1.21H734.9a7,7,0,0,0,2.52,4.71,8,8,0,0,0,5.26,1.74,7.72,7.72,0,0,0,3.85-.92,6.19,6.19,0,0,0,2.44-2.4l2.27,1.32a9.22,9.22,0,0,1-3.52,3.29,10.45,10.45,0,0,1-5.08,1.21,10.15,10.15,0,0,1-7.51-2.89,10,10,0,0,1-2.89-7.35,10.06,10.06,0,0,1,2.85-7.31A9.79,9.79,0,0,1,742.44,1463.24Zm0,2.51a7.3,7.3,0,0,0-7.54,6.52h14.58a7.27,7.27,0,0,0-2.39-4.8A6.87,6.87,0,0,0,742.44,1465.75Z"/><path class="cls-4" d="M777.08,1463.24a7,7,0,0,1,5.3,2.11,8,8,0,0,1,2,5.71v12.2h-2.59v-12.2a5.49,5.49,0,0,0-1.31-3.93,4.53,4.53,0,0,0-3.46-1.38,5.1,5.1,0,0,0-3.92,1.62q-1.51,1.62-1.51,5.06v10.83H769v-12.2a5.73,5.73,0,0,0-1.23-4,4.28,4.28,0,0,0-3.34-1.36,5.39,5.39,0,0,0-4,1.64,6.83,6.83,0,0,0-1.65,5v10.83h-2.58v-19.55h2.58v2.86a6.71,6.71,0,0,1,6-3.33,6.08,6.08,0,0,1,5.94,3.56A6.9,6.9,0,0,1,777.08,1463.24Z"/><path class="cls-4" d="M792,1459a1.88,1.88,0,0,1-2.66-2.66A1.88,1.88,0,0,1,792,1459Zm-2.62,24.24v-19.55H792v19.55Z"/><path class="cls-4" d="M806.49,1463.24a8.87,8.87,0,0,1,7,3.07,10.68,10.68,0,0,1,2.68,7.26,10.89,10.89,0,0,1-.08,1.21H798.94a7,7,0,0,0,2.52,4.71,8,8,0,0,0,5.26,1.74,7.7,7.7,0,0,0,3.85-.92,6.22,6.22,0,0,0,2.45-2.4l2.26,1.32a9.22,9.22,0,0,1-3.52,3.29,10.42,10.42,0,0,1-5.08,1.21,10.17,10.17,0,0,1-7.51-2.89,10.8,10.8,0,0,1,0-14.66A9.82,9.82,0,0,1,806.49,1463.24Zm0,2.51a7.3,7.3,0,0,0-7.55,6.52h14.58a7.26,7.26,0,0,0-2.38-4.8A6.89,6.89,0,0,0,806.49,1465.75Z"/><path class="cls-4" d="M822.87,1467a6.36,6.36,0,0,1,6.18-3.56v2.5a6.36,6.36,0,0,0-4.42,1.57q-1.75,1.56-1.76,4.92v10.87h-2.58v-19.55h2.58Z"/><path class="cls-4" d="M852.82,1463.24a9.67,9.67,0,0,1,7.13,3,10.42,10.42,0,0,1,0,14.55,9.67,9.67,0,0,1-7.13,3,8.75,8.75,0,0,1-7.9-4.3v11.65h-2.58v-27.37h2.58v3.83A8.77,8.77,0,0,1,852.82,1463.24ZM847.15,1479a7.79,7.79,0,0,0,11,0,7.89,7.89,0,0,0,0-11,7.76,7.76,0,0,0-11,11Z"/><path class="cls-4" d="M869.79,1467a6.35,6.35,0,0,1,6.17-3.56v2.5a6.35,6.35,0,0,0-4.41,1.57c-1.18,1-1.76,2.68-1.76,4.92v10.87h-2.58v-19.55h2.58Z"/><path class="cls-4" d="M894.71,1480.78a10.48,10.48,0,0,1-14.58,0,10.38,10.38,0,0,1,0-14.58,10.46,10.46,0,0,1,14.58,0,10.38,10.38,0,0,1,0,14.58ZM882,1479a7.77,7.77,0,0,0,10.94,0,7.7,7.7,0,1,0-10.94,0Z"/><path class="cls-4" d="M147,1483.26l-2.54-6.72h-13l-2.54,6.72h-2.9l10.52-27.37h2.82l10.51,27.37Zm-14.55-9.3h11L138,1459.32Z"/><path class="cls-4" d="M169.45,1455.89H172v27.37h-2.58v-3.83a8.73,8.73,0,0,1-7.89,4.3,9.7,9.7,0,0,1-7.14-3,10.45,10.45,0,0,1,0-14.55,9.7,9.7,0,0,1,7.14-3,8.75,8.75,0,0,1,7.89,4.3ZM156.28,1479a7.79,7.79,0,0,0,10.95,0,7.74,7.74,0,0,0-5.48-13.23,7.42,7.42,0,0,0-5.47,2.24,7.89,7.89,0,0,0,0,11Z"/><path class="cls-4" d="M193.91,1480.78a10.48,10.48,0,0,1-14.58,0,10.36,10.36,0,0,1,0-14.58,10.46,10.46,0,0,1,14.58,0,10.38,10.38,0,0,1,0,14.58Zm-12.77-1.8a7.79,7.79,0,0,0,11,0,7.7,7.7,0,1,0-11,0Z"/><path class="cls-4" d="M211.68,1463.24a9.7,9.7,0,0,1,7.14,3,10.45,10.45,0,0,1,0,14.55,9.7,9.7,0,0,1-7.14,3,8.75,8.75,0,0,1-7.9-4.3v3.83H201.2v-27.37h2.58v11.65A8.77,8.77,0,0,1,211.68,1463.24ZM206,1479a7.79,7.79,0,0,0,11,0,7.89,7.89,0,0,0,0-11,7.81,7.81,0,0,0-11,0,7.89,7.89,0,0,0,0,11Z"/><path class="cls-4" d="M235.1,1463.24a8.9,8.9,0,0,1,7,3.07,10.73,10.73,0,0,1,2.68,7.26c0,.28,0,.69-.08,1.21H227.55a7,7,0,0,0,2.53,4.71,8,8,0,0,0,5.25,1.74,7.76,7.76,0,0,0,3.86-.92,6.19,6.19,0,0,0,2.44-2.4l2.27,1.32a9.29,9.29,0,0,1-3.52,3.29,10.45,10.45,0,0,1-5.08,1.21,10.15,10.15,0,0,1-7.51-2.89,10,10,0,0,1-2.89-7.35,10.06,10.06,0,0,1,2.85-7.31A9.79,9.79,0,0,1,235.1,1463.24Zm0,2.51a7.32,7.32,0,0,0-7.55,6.52h14.59a7.27,7.27,0,0,0-2.39-4.8A6.89,6.89,0,0,0,235.1,1465.75Z"/><path class="cls-4" d="M277.29,1483.26l-2.54-6.72h-13l-2.54,6.72h-2.89l10.52-27.37h2.81l10.52,27.37Zm-14.55-9.3h11l-5.52-14.64Z"/><path class="cls-4" d="M292.5,1457.93a5.62,5.62,0,0,0-4.25,1,5.13,5.13,0,0,0-1.38,4v.78h5.63v2.5h-5.63v17h-2.58v-17H281v-2.5h3.33v-.78a7.55,7.55,0,0,1,2.13-5.81c1.42-1.31,3.44-1.88,6.08-1.7Z"/><path class="cls-4" d="M306.38,1466.21h-5.63v11.85a3.36,3.36,0,0,0,.62,2.29,2.45,2.45,0,0,0,1.88.7c.83,0,1.88,0,3.13-.06v2.27q-4.11.63-6.16-.59t-2.05-4.61v-11.85h-4.11v-2.5h4.11V1459l2.58-.78v5.47h5.63Z"/><path class="cls-4" d="M318.54,1463.24a8.87,8.87,0,0,1,7,3.07,10.68,10.68,0,0,1,2.68,7.26,10.89,10.89,0,0,1-.08,1.21H311a7,7,0,0,0,2.52,4.71,8.06,8.06,0,0,0,5.26,1.74,7.7,7.7,0,0,0,3.85-.92,6.22,6.22,0,0,0,2.45-2.4l2.26,1.32a9.22,9.22,0,0,1-3.52,3.29,10.42,10.42,0,0,1-5.08,1.21,10.13,10.13,0,0,1-7.5-2.89,10.77,10.77,0,0,1,0-14.66A9.79,9.79,0,0,1,318.54,1463.24Zm0,2.51a7.3,7.3,0,0,0-7.55,6.52h14.58a7.26,7.26,0,0,0-2.38-4.8A6.89,6.89,0,0,0,318.54,1465.75Z"/><path class="cls-4" d="M334.92,1467a6.36,6.36,0,0,1,6.18-3.56v2.5a6.36,6.36,0,0,0-4.42,1.57q-1.76,1.56-1.76,4.92v10.87h-2.58v-19.55h2.58Z"/><path class="cls-4" d="M357.52,1480.68h13.29v2.58h-16v-27.37h15.84v2.58h-13.1v9.7h12.12v2.58H357.52Z"/><path class="cls-4" d="M395.44,1457.53a5.61,5.61,0,0,0-4.24,1,5.13,5.13,0,0,0-1.39,4v1.17h5.63v2.5h-5.63v17h-2.58v-17h-8v17h-2.58v-17h-3.33v-2.5h3.33v-.78a7.55,7.55,0,0,1,2.13-5.81c1.42-1.31,3.44-1.88,6.08-1.7v2.51a5.58,5.58,0,0,0-4.24,1,5.09,5.09,0,0,0-1.39,4v.78h8v-1.17a7.54,7.54,0,0,1,2.13-5.81c1.43-1.31,3.45-1.88,6.08-1.7Z"/><path class="cls-4" d="M406,1463.24a8.9,8.9,0,0,1,7,3.07,10.73,10.73,0,0,1,2.68,7.26c0,.28,0,.69-.08,1.21H398.49a7,7,0,0,0,2.53,4.71,8,8,0,0,0,5.25,1.74,7.76,7.76,0,0,0,3.86-.92,6.19,6.19,0,0,0,2.44-2.4l2.27,1.32a9.29,9.29,0,0,1-3.52,3.29,10.45,10.45,0,0,1-5.08,1.21,10.15,10.15,0,0,1-7.51-2.89,10,10,0,0,1-2.89-7.35,10.06,10.06,0,0,1,2.85-7.31A9.79,9.79,0,0,1,406,1463.24Zm0,2.51a7.32,7.32,0,0,0-7.55,6.52h14.59a7.27,7.27,0,0,0-2.39-4.8A6.89,6.89,0,0,0,406,1465.75Z"/><path class="cls-4" d="M429,1483.73a10.25,10.25,0,1,1,5.2-19.1,8.28,8.28,0,0,1,3.37,3.74l-2.12,1.21a6,6,0,0,0-2.52-2.8,7.54,7.54,0,0,0-3.93-1,7.42,7.42,0,0,0-5.47,2.24,7.89,7.89,0,0,0,0,11,7.6,7.6,0,0,0,12.08-1.58l2.15,1.25a9,9,0,0,1-3.56,3.71A10.15,10.15,0,0,1,429,1483.73Z"/><path class="cls-4" d="M451.79,1466.21h-5.63v11.85a3.36,3.36,0,0,0,.62,2.29,2.45,2.45,0,0,0,1.88.7c.83,0,1.87,0,3.13-.06v2.27q-4.11.63-6.16-.59t-2.06-4.61v-11.85h-4.1v-2.5h4.1V1459l2.59-.78v5.47h5.63Z"/><path class="cls-4" d="M457,1468.78a2.35,2.35,0,0,0,1.19,2.08,10.56,10.56,0,0,0,2.87,1.25l3.36,1a6.07,6.07,0,0,1,2.84,1.74,4.66,4.66,0,0,1,1.15,3.29,5,5,0,0,1-2,4.07,8,8,0,0,1-5.1,1.56,8.78,8.78,0,0,1-4.79-1.25,6.66,6.66,0,0,1-2.76-3.25l2.19-1.29a4.57,4.57,0,0,0,2,2.41,7,7,0,0,0,6.59.12,2.56,2.56,0,0,0,1.29-2.37,2.42,2.42,0,0,0-1.17-2.11,10.07,10.07,0,0,0-2.86-1.26l-3.36-1a6.21,6.21,0,0,1-2.85-1.71,4.5,4.5,0,0,1-1.17-3.23,5,5,0,0,1,1.89-4,7.17,7.17,0,0,1,4.79-1.61,8,8,0,0,1,4.19,1.08,6.64,6.64,0,0,1,2.65,2.91l-2.15,1.25c-.75-1.82-2.32-2.73-4.69-2.73a5.23,5.23,0,0,0-2.89.78A2.53,2.53,0,0,0,457,1468.78Z"/><path class="cls-4" d="M142.33,1592.36l-2.54-6.72h-13l-2.54,6.72h-2.89L131.89,1565h2.81l10.52,27.37Zm-14.56-9.3h11l-5.53-14.64Z"/><path class="cls-4" d="M161.92,1572.81h2.58v19.55h-2.58v-3a7.23,7.23,0,0,1-6.57,3.52,7.31,7.31,0,0,1-5.61-2.17,8.15,8.15,0,0,1-2.06-5.84v-12h2.58v12a5.65,5.65,0,0,0,1.39,4.06,5.19,5.19,0,0,0,3.93,1.45,6.16,6.16,0,0,0,4.58-1.78q1.76-1.79,1.76-5.49Z"/><path class="cls-4" d="M180.33,1575.31H174.7v11.85a3.35,3.35,0,0,0,.63,2.29,2.43,2.43,0,0,0,1.87.7c.84,0,1.88,0,3.13-.06v2.27q-4.11.63-6.16-.59t-2-4.61v-11.85H168v-2.5h4.11v-4.69l2.58-.78v5.47h5.63Z"/><path class="cls-4" d="M199.86,1589.88a10.48,10.48,0,0,1-14.58,0,10.39,10.39,0,0,1,0-14.59,10.48,10.48,0,0,1,14.58,0,10.39,10.39,0,0,1,0,14.59Zm-12.77-1.8a7.79,7.79,0,0,0,10.95,0,7.89,7.89,0,0,0,0-11,7.79,7.79,0,0,0-10.95,0,7.91,7.91,0,0,0,0,11Z"/><path class="cls-4" d="M224,1565h2.59v27.37H224v-3.83a8.73,8.73,0,0,1-7.89,4.3,9.7,9.7,0,0,1-7.14-3,10.45,10.45,0,0,1,0-14.55,9.7,9.7,0,0,1,7.14-3,8.75,8.75,0,0,1,7.89,4.3Zm-13.17,23.09a7.79,7.79,0,0,0,11,0,7.91,7.91,0,0,0,0-11,7.79,7.79,0,0,0-11,0,7.89,7.89,0,0,0,0,11Z"/><path class="cls-4" d="M241.05,1572.34a8.9,8.9,0,0,1,7,3.07,10.73,10.73,0,0,1,2.68,7.26c0,.28,0,.69-.08,1.21H233.5a7,7,0,0,0,2.53,4.71,8,8,0,0,0,5.26,1.74,7.75,7.75,0,0,0,3.85-.92,6.15,6.15,0,0,0,2.44-2.41l2.27,1.33a9.29,9.29,0,0,1-3.52,3.29,10.45,10.45,0,0,1-5.08,1.21,10.15,10.15,0,0,1-7.51-2.89,10,10,0,0,1-2.89-7.35,10.06,10.06,0,0,1,2.85-7.31A9.79,9.79,0,0,1,241.05,1572.34Zm0,2.5a7.34,7.34,0,0,0-7.55,6.53h14.59a7.27,7.27,0,0,0-2.39-4.8A6.89,6.89,0,0,0,241.05,1574.84Z"/><path class="cls-4" d="M256.1,1577.88a2.38,2.38,0,0,0,1.19,2.08,10.84,10.84,0,0,0,2.87,1.25l3.36,1a6,6,0,0,1,2.84,1.74,4.67,4.67,0,0,1,1.16,3.29,5,5,0,0,1-2,4.07,8,8,0,0,1-5.11,1.56,8.83,8.83,0,0,1-4.79-1.25,6.69,6.69,0,0,1-2.75-3.25l2.19-1.29a4.57,4.57,0,0,0,2,2.41,7,7,0,0,0,6.59.12,2.56,2.56,0,0,0,1.29-2.37,2.42,2.42,0,0,0-1.17-2.11,10.33,10.33,0,0,0-2.86-1.26l-3.36-1a6.21,6.21,0,0,1-2.85-1.71,4.46,4.46,0,0,1-1.18-3.23,5,5,0,0,1,1.9-4,7.15,7.15,0,0,1,4.79-1.61,8,8,0,0,1,4.18,1.08,6.55,6.55,0,0,1,2.66,2.91l-2.15,1.25c-.75-1.82-2.32-2.74-4.69-2.74a5.21,5.21,0,0,0-2.89.79A2.54,2.54,0,0,0,256.1,1577.88Z"/><path class="cls-4" d="M287.42,1592.36H284l-9.77-9.43v9.43h-2.58V1565h2.58v16.48l9.3-8.66H287l-10.09,9.39Z"/><path class="cls-4" d="M309.62,1576.39a9.22,9.22,0,0,1,5.4,2.52,7.4,7.4,0,0,1,2.12,5.51,7.6,7.6,0,0,1-2.68,6.16,9.8,9.8,0,0,1-6.51,2.25,10.44,10.44,0,0,1-5.43-1.41,7.62,7.62,0,0,1-3.37-4l2.27-1.33a5.4,5.4,0,0,0,2.39,3.07,7.85,7.85,0,0,0,4.14,1,7,7,0,0,0,4.63-1.5,5.87,5.87,0,0,0,0-8.49,7,7,0,0,0-4.6-1.5v0l0,.07h-.76l-1.2-1.83,6.81-9.31H299.93V1565h16v2.6Z"/><path class="cls-4" d="M338.25,1565h2.58v27.37h-2.58v-3.83a8.75,8.75,0,0,1-7.9,4.3,9.68,9.68,0,0,1-7.13-3,10.45,10.45,0,0,1,0-14.55,9.68,9.68,0,0,1,7.13-3,8.77,8.77,0,0,1,7.9,4.3Zm-13.18,23.09a7.79,7.79,0,0,0,10.95,0,7.89,7.89,0,0,0,0-11,7.79,7.79,0,0,0-10.95,0,7.91,7.91,0,0,0,0,11Z"/><path class="cls-4" d="M365.07,1592.83a11.34,11.34,0,0,1-6.43-1.78,9.25,9.25,0,0,1-3.73-4.91l2.34-1.36a7.27,7.27,0,0,0,2.74,4,8.61,8.61,0,0,0,5.12,1.42,7.44,7.44,0,0,0,4.75-1.35,4.32,4.32,0,0,0,1.7-3.57A3.71,3.71,0,0,0,370,1582a20.61,20.61,0,0,0-5.16-2.27,30,30,0,0,1-5.63-2.27,6,6,0,0,1-3.13-5.43,6.77,6.77,0,0,1,2.42-5.49,9,9,0,0,1,6-2,9.43,9.43,0,0,1,5.55,1.66,10.19,10.19,0,0,1,3.48,4.25l-2.31,1.29a6.74,6.74,0,0,0-6.72-4.54,6.4,6.4,0,0,0-4.11,1.25,4.23,4.23,0,0,0-1.56,3.48,3.53,3.53,0,0,0,1.4,3,17.61,17.61,0,0,0,4.66,2.07l2.13.73c.43.14,1.05.38,1.88.7a11.65,11.65,0,0,1,1.81.86c.39.25.87.59,1.43,1a4.62,4.62,0,0,1,1.21,1.29,8.2,8.2,0,0,1,.67,1.56,6.67,6.67,0,0,1,.29,2,6.87,6.87,0,0,1-2.54,5.57A10.22,10.22,0,0,1,365.07,1592.83Z"/><path class="cls-4" d="M388.38,1575.31h-5.63v11.85a3.36,3.36,0,0,0,.62,2.29,2.45,2.45,0,0,0,1.88.7c.83,0,1.87,0,3.13-.06v2.27q-4.11.63-6.16-.59t-2.06-4.61v-11.85h-4.1v-2.5h4.1v-4.69l2.59-.78v5.47h5.63Z"/><path class="cls-4" d="M406.44,1572.81H409v19.55h-2.58v-3a7.22,7.22,0,0,1-6.57,3.52,7.34,7.34,0,0,1-5.61-2.17,8.14,8.14,0,0,1-2.05-5.84v-12h2.58v12a5.6,5.6,0,0,0,1.39,4.06,5.16,5.16,0,0,0,3.93,1.45,6.13,6.13,0,0,0,4.57-1.78q1.76-1.79,1.76-5.49Z"/><path class="cls-4" d="M431.31,1565h2.58v27.37h-2.58v-3.83a8.75,8.75,0,0,1-7.9,4.3,9.7,9.7,0,0,1-7.14-3,10.45,10.45,0,0,1,0-14.55,9.7,9.7,0,0,1,7.14-3,8.77,8.77,0,0,1,7.9,4.3Zm-13.18,23.09a7.79,7.79,0,0,0,10.95,0,7.89,7.89,0,0,0,0-11,7.79,7.79,0,0,0-10.95,0,7.89,7.89,0,0,0,0,11Z"/><path class="cls-4" d="M442,1568.12a1.88,1.88,0,0,1-2.66,0,1.88,1.88,0,1,1,2.66,0Zm-2.62,24.24v-19.55h2.58v19.55Z"/><path class="cls-4" d="M463.82,1589.88a10.49,10.49,0,0,1-14.59,0,10.39,10.39,0,0,1,0-14.59,10.49,10.49,0,0,1,14.59,0,10.39,10.39,0,0,1,0,14.59Zm-12.77-1.8a7.79,7.79,0,0,0,10.95,0,7.89,7.89,0,0,0,0-11,7.79,7.79,0,0,0-10.95,0,7.89,7.89,0,0,0,0,11Z"/><path class="cls-4" d="M506.3,1565v27.37h-2.74v-23.22l-9.58,16h-.39l-9.58-16v23.22h-2.74V1565h3.36l9.16,15.32,9.15-15.32Z"/><path class="cls-4" d="M529,1572.81h2.59v19.55H529v-3.83a8.73,8.73,0,0,1-7.89,4.3,9.7,9.7,0,0,1-7.14-3,10.45,10.45,0,0,1,0-14.55,9.7,9.7,0,0,1,7.14-3,8.75,8.75,0,0,1,7.89,4.3Zm-13.17,15.27a7.79,7.79,0,0,0,11,0,7.91,7.91,0,0,0,0-11,7.79,7.79,0,0,0-11,0,7.89,7.89,0,0,0,0,11Z"/><path class="cls-4" d="M553.45,1592.36h-3.09l-6.1-8.07-6.1,8.07h-3.09l7.65-10.11-7.14-9.44h3.09l5.59,7.4,5.59-7.4h3.09l-7.13,9.44Z"/><rect class="cls-3" x="83.52" y="1536.85" width="508.16" height="87.18" rx="24.74"/><path class="cls-1" d="M212.3,931.89V965H165V1107.2H130.41V965H83.32V931.89Z"/><path class="cls-1" d="M314,1091.54q-19.29,19.17-47.08,19.16t-47-19.16q-19.16-19.15-19.16-47t19.16-47q19.16-19.15,47-19.16T314,997.63q19.29,19.15,19.29,47T314,1091.54Zm-71.25-22.16q9.65,9.76,24.17,9.77t24.29-9.77q9.76-9.77,9.77-24.79t-9.77-24.8q-9.76-9.76-24.29-9.76t-24.17,9.76q-9.64,9.76-9.64,24.8T242.73,1069.38Z"/><path class="cls-1" d="M462.74,1091.54q-19.29,19.17-47.08,19.16t-47-19.16q-19.15-19.15-19.16-47t19.16-47q19.16-19.15,47-19.16t47.08,19.16q19.29,19.15,19.29,47T462.74,1091.54Zm-71.25-22.16q9.64,9.76,24.17,9.77t24.29-9.77q9.76-9.77,9.77-24.79t-9.77-24.8q-9.76-9.76-24.29-9.76t-24.17,9.76q-9.64,9.76-9.64,24.8T391.49,1069.38Z"/><path class="cls-1" d="M504.81,1107.2V924.38h32.31V1107.2Z"/><path class="cls-1" d="M595.47,1017.54q0,5,6.64,8.14a88.52,88.52,0,0,0,16.15,5.51,168,168,0,0,1,19,6,37,37,0,0,1,16.15,12.14q6.63,8.52,6.64,21.29,0,19.29-14.4,29.68t-35.94,10.39q-38.57,0-52.59-29.8l28.05-15.78q5.5,16.29,24.54,16.28,17.28,0,17.28-10.77,0-5-6.64-8.14a95.35,95.35,0,0,0-16.15-5.63,169.14,169.14,0,0,1-19-6.26,39.06,39.06,0,0,1-16.16-11.9q-6.63-8.13-6.63-20.41,0-18.52,13.64-29.18T610,978.47a56.76,56.76,0,0,1,27.8,6.89A50.26,50.26,0,0,1,657.58,1005L630,1020q-6-12.76-20-12.77a18.29,18.29,0,0,0-10.39,2.76A8.59,8.59,0,0,0,595.47,1017.54Z"/></svg>